<svg version="1.1" xmlns="http://www.w3.org/2000/svg" xmlns:xlink="http://www.w3.org/1999/xlink" width="700" height="1000" style="width: 700px; height: 1000px;"><defs/><g><g transform="scale(1,1) translate(0.5,0.5)"><rect fill="#FFFFFF" stroke="none" x="0" y="0" width="700" height="1000"/><rect fill="#ffffff" stroke="none" x="0" y="0" width="700" height="1000"/><rect fill="#FFFFFF" stroke="none" x="242" y="28" width="408" height="927"/><rect fill="#ffffff" stroke="none" x="242" y="28" width="408" height="927"/><g><rect fill="none" stroke="#e5e5e5" x="242" y="28" width="408" height="927" stroke-miterlimit="10"/></g><g><g><path fill="none" stroke="#e5e5e5" paint-order="fill stroke markers" d=" M 343 955 L 343 28" stroke-miterlimit="10"/><path fill="none" stroke="#e5e5e5" paint-order="fill stroke markers" d=" M 445 955 L 445 28" stroke-miterlimit="10"/><path fill="none" stroke="#e5e5e5" paint-order="fill stroke markers" d=" M 546 955 L 546 28" stroke-miterlimit="10"/><path fill="none" stroke="#e5e5e5" paint-order="fill stroke markers" d=" M 647 955 L 647 28" stroke-miterlimit="10"/></g><g><path fill="none" stroke="#e5e5e5" paint-order="fill stroke markers" d=" M 242 932 L 650 932" stroke-miterlimit="10"/><path fill="none" stroke="#e5e5e5" paint-order="fill stroke markers" d=" M 242 885 L 650 885" stroke-miterlimit="10"/><path fill="none" stroke="#e5e5e5" paint-order="fill stroke markers" d=" M 242 839 L 650 839" stroke-miterlimit="10"/><path fill="none" stroke="#e5e5e5" paint-order="fill stroke markers" d=" M 242 793 L 650 793" stroke-miterlimit="10"/><path fill="none" stroke="#e5e5e5" paint-order="fill stroke markers" d=" M 242 746 L 650 746" stroke-miterlimit="10"/><path fill="none" stroke="#e5e5e5" paint-order="fill stroke markers" d=" M 242 700 L 650 700" stroke-miterlimit="10"/><path fill="none" stroke="#e5e5e5" paint-order="fill stroke markers" d=" M 242 654 L 650 654" stroke-miterlimit="10"/><path fill="none" stroke="#e5e5e5" paint-order="fill stroke markers" d=" M 242 607 L 650 607" stroke-miterlimit="10"/><path fill="none" stroke="#e5e5e5" paint-order="fill stroke markers" d=" M 242 561 L 650 561" stroke-miterlimit="10"/><path fill="none" stroke="#e5e5e5" paint-order="fill stroke markers" d=" M 242 515 L 650 515" stroke-miterlimit="10"/><path fill="none" stroke="#e5e5e5" paint-order="fill stroke markers" d=" M 242 468 L 650 468" stroke-miterlimit="10"/><path fill="none" stroke="#e5e5e5" paint-order="fill stroke markers" d=" M 242 422 L 650 422" stroke-miterlimit="10"/><path fill="none" stroke="#e5e5e5" paint-order="fill stroke markers" d=" M 242 376 L 650 376" stroke-miterlimit="10"/><path fill="none" stroke="#e5e5e5" paint-order="fill stroke markers" d=" M 242 329 L 650 329" stroke-miterlimit="10"/><path fill="none" stroke="#e5e5e5" paint-order="fill stroke markers" d=" M 242 283 L 650 283" stroke-miterlimit="10"/><path fill="none" stroke="#e5e5e5" paint-order="fill stroke markers" d=" M 242 237 L 650 237" stroke-miterlimit="10"/><path fill="none" stroke="#e5e5e5" paint-order="fill stroke markers" d=" M 242 190 L 650 190" stroke-miterlimit="10"/><path fill="none" stroke="#e5e5e5" paint-order="fill stroke markers" d=" M 242 144 L 650 144" stroke-miterlimit="10"/><path fill="none" stroke="#e5e5e5" paint-order="fill stroke markers" d=" M 242 98 L 650 98" stroke-miterlimit="10"/><path fill="none" stroke="#e5e5e5" paint-order="fill stroke markers" d=" M 242 51 L 650 51" stroke-miterlimit="10"/></g><g><path fill="none" stroke="none"/><rect fill="#1f77b4" stroke="none" x="242" y="914.4437500000001" width="337.4664679582712" height="34.76249999999982"/><path fill="none" stroke="#1f77b4" paint-order="fill stroke markers" d=" M 242 914.4437500000001 L 579.4664679582712 914.4437500000001 L 579.4664679582712 949.20625 L 242 949.20625 L 242 914.4437500000001 Z" stroke-miterlimit="10"/><rect fill="#1f77b4" stroke="none" x="242" y="868.09375" width="257.204172876304" height="34.762500000000045"/><path fill="none" stroke="#1f77b4" paint-order="fill stroke markers" d=" M 242 868.09375 L 499.204172876304 868.09375 L 499.204172876304 902.85625 L 242 902.85625 L 242 868.09375 Z" stroke-miterlimit="10"/><rect fill="#1f77b4" stroke="none" x="242" y="821.74375" width="243.97913561847986" height="34.762500000000045"/><path fill="none" stroke="#1f77b4" paint-order="fill stroke markers" d=" M 242 821.74375 L 485.97913561847986 821.74375 L 485.97913561847986 856.50625 L 242 856.50625 L 242 821.74375 Z" stroke-miterlimit="10"/><rect fill="#1f77b4" stroke="none" x="242" y="775.39375" width="219.60655737704917" height="34.762500000000045"/><path fill="none" stroke="#1f77b4" paint-order="fill stroke markers" d=" M 242 775.39375 L 461.60655737704917 775.39375 L 461.60655737704917 810.15625 L 242 810.15625 L 242 775.39375 Z" stroke-miterlimit="10"/><rect fill="#1f77b4" stroke="none" x="242" y="729.04375" width="183.88375558867358" height="34.76249999999982"/><path fill="none" stroke="#1f77b4" paint-order="fill stroke markers" d=" M 242 729.04375 L 425.8837555886736 729.04375 L 425.8837555886736 763.8062499999999 L 242 763.8062499999999 L 242 729.04375 Z" stroke-miterlimit="10"/><rect fill="#1f77b4" stroke="none" x="242" y="682.69375" width="170.91207153502233" height="34.762500000000045"/><path fill="none" stroke="#1f77b4" paint-order="fill stroke markers" d=" M 242 682.69375 L 412.91207153502233 682.69375 L 412.91207153502233 717.4562500000001 L 242 717.4562500000001 L 242 682.69375 Z" stroke-miterlimit="10"/><rect fill="#1f77b4" stroke="none" x="242" y="636.3437499999999" width="167.87183308494787" height="34.762500000000045"/><path fill="none" stroke="#1f77b4" paint-order="fill stroke markers" d=" M 242 636.3437499999999 L 409.87183308494787 636.3437499999999 L 409.87183308494787 671.1062499999999 L 242 671.1062499999999 L 242 636.3437499999999 Z" stroke-miterlimit="10"/><rect fill="#1f77b4" stroke="none" x="242" y="589.9937500000001" width="165.946348733234" height="34.76249999999982"/><path fill="none" stroke="#1f77b4" paint-order="fill stroke markers" d=" M 242 589.9937500000001 L 407.946348733234 589.9937500000001 L 407.946348733234 624.7562499999999 L 242 624.7562499999999 L 242 589.9937500000001 Z" stroke-miterlimit="10"/><rect fill="#1f77b4" stroke="none" x="242" y="543.64375" width="157.0789865871833" height="34.762500000000045"/><path fill="none" stroke="#1f77b4" paint-order="fill stroke markers" d=" M 242 543.64375 L 399.0789865871833 543.64375 L 399.0789865871833 578.40625 L 242 578.40625 L 242 543.64375 Z" stroke-miterlimit="10"/><rect fill="#1f77b4" stroke="none" x="242" y="497.29374999999993" width="142.78986587183306" height="34.762500000000045"/><path fill="none" stroke="#1f77b4" paint-order="fill stroke markers" d=" M 242 497.29374999999993 L 384.78986587183306 497.29374999999993 L 384.78986587183306 532.05625 L 242 532.05625 L 242 497.29374999999993 Z" stroke-miterlimit="10"/><rect fill="#1f77b4" stroke="none" x="242" y="450.94374999999997" width="141.47242921013412" height="34.762500000000045"/><path fill="none" stroke="#1f77b4" paint-order="fill stroke markers" d=" M 242 450.94374999999997 L 383.4724292101341 450.94374999999997 L 383.4724292101341 485.70625 L 242 485.70625 L 242 450.94374999999997 Z" stroke-miterlimit="10"/><rect fill="#1f77b4" stroke="none" x="242" y="404.59375000000006" width="115.7824143070045" height="34.76249999999993"/><path fill="none" stroke="#1f77b4" paint-order="fill stroke markers" d=" M 242 404.59375000000006 L 357.7824143070045 404.59375000000006 L 357.7824143070045 439.35625 L 242 439.35625 L 242 404.59375000000006 Z" stroke-miterlimit="10"/><rect fill="#1f77b4" stroke="none" x="242" y="358.24375" width="115.68107302533531" height="34.762500000000045"/><path fill="none" stroke="#1f77b4" paint-order="fill stroke markers" d=" M 242 358.24375 L 357.6810730253353 358.24375 L 357.6810730253353 393.00625 L 242 393.00625 L 242 358.24375 Z" stroke-miterlimit="10"/><rect fill="#1f77b4" stroke="none" x="242" y="311.89374999999995" width="107.11773472429206" height="34.762500000000045"/><path fill="none" stroke="#1f77b4" paint-order="fill stroke markers" d=" M 242 311.89374999999995 L 349.11773472429206 311.89374999999995 L 349.11773472429206 346.65625 L 242 346.65625 L 242 311.89374999999995 Z" stroke-miterlimit="10"/><rect fill="#1f77b4" stroke="none" x="242" y="265.54374999999993" width="92.57526080476902" height="34.762500000000045"/><path fill="none" stroke="#1f77b4" paint-order="fill stroke markers" d=" M 242 265.54374999999993 L 334.575260804769 265.54374999999993 L 334.575260804769 300.30625 L 242 300.30625 L 242 265.54374999999993 Z" stroke-miterlimit="10"/><rect fill="#1f77b4" stroke="none" x="242" y="219.19374999999997" width="60.65275707898661" height="34.76249999999993"/><path fill="none" stroke="#1f77b4" paint-order="fill stroke markers" d=" M 242 219.19374999999997 L 302.6527570789866 219.19374999999997 L 302.6527570789866 253.9562499999999 L 242 253.9562499999999 L 242 219.19374999999997 Z" stroke-miterlimit="10"/><rect fill="#1f77b4" stroke="none" x="242" y="172.84375000000006" width="58.67660208643815" height="34.76249999999993"/><path fill="none" stroke="#1f77b4" paint-order="fill stroke markers" d=" M 242 172.84375000000006 L 300.67660208643815 172.84375000000006 L 300.67660208643815 207.60625 L 242 207.60625 L 242 172.84375000000006 Z" stroke-miterlimit="10"/><rect fill="#1f77b4" stroke="none" x="242" y="126.49374999999998" width="57.257824143070025" height="34.762500000000045"/><path fill="none" stroke="#1f77b4" paint-order="fill stroke markers" d=" M 242 126.49374999999998 L 299.25782414307 126.49374999999998 L 299.25782414307 161.25625000000002 L 242 161.25625000000002 L 242 126.49374999999998 Z" stroke-miterlimit="10"/><rect fill="#1f77b4" stroke="none" x="242" y="80.14374999999995" width="45.552906110283175" height="34.762500000000045"/><path fill="none" stroke="#1f77b4" paint-order="fill stroke markers" d=" M 242 80.14374999999995 L 287.5529061102832 80.14374999999995 L 287.5529061102832 114.90625 L 242 114.90625 L 242 80.14374999999995 Z" stroke-miterlimit="10"/><rect fill="#1f77b4" stroke="none" x="242" y="33.79374999999993" width="13.022354694485841" height="34.762500000000045"/><path fill="none" stroke="#1f77b4" paint-order="fill stroke markers" d=" M 242 33.79374999999993 L 255.02235469448584 33.79374999999993 L 255.02235469448584 68.55624999999998 L 242 68.55624999999998 L 242 33.79374999999993 Z" stroke-miterlimit="10"/></g><g fill="#444444"><path fill="" stroke="none" d=""/><g transform="translate(589.4664679582712,929.825) rotate(0,0,0)"><path fill="none" stroke="none"/><text fill="" stroke="none" font-family="helvetica" font-size="8pt" font-style="normal" font-weight="normal" text-decoration="normal" x="0" y="0" text-anchor="start" dominant-baseline="text-after-edge">53.38%</text></g></g><g fill="#444444"><path fill="" stroke="none" d=""/><g transform="translate(509.204172876304,883.475) rotate(0,0,0)"><path fill="none" stroke="none"/><text fill="" stroke="none" font-family="helvetica" font-size="8pt" font-style="normal" font-weight="normal" text-decoration="normal" x="0" y="0" text-anchor="start" dominant-baseline="text-after-edge">40.68%</text></g></g><g fill="#444444"><path fill="" stroke="none" d=""/><g transform="translate(495.97913561847986,837.125) rotate(0,0,0)"><path fill="none" stroke="none"/><text fill="" stroke="none" font-family="helvetica" font-size="8pt" font-style="normal" font-weight="normal" text-decoration="normal" x="0" y="0" text-anchor="start" dominant-baseline="text-after-edge">38.59%</text></g></g><g fill="#444444"><path fill="" stroke="none" d=""/><g transform="translate(471.60655737704917,790.775) rotate(0,0,0)"><path fill="none" stroke="none"/><text fill="" stroke="none" font-family="helvetica" font-size="8pt" font-style="normal" font-weight="normal" text-decoration="normal" x="0" y="0" text-anchor="start" dominant-baseline="text-after-edge">34.74%</text></g></g><g fill="#444444"><path fill="" stroke="none" d=""/><g transform="translate(435.8837555886736,744.425) rotate(0,0,0)"><path fill="none" stroke="none"/><text fill="" stroke="none" font-family="helvetica" font-size="8pt" font-style="normal" font-weight="normal" text-decoration="normal" x="0" y="0" text-anchor="start" dominant-baseline="text-after-edge">29.09%</text></g></g><g fill="#444444"><path fill="" stroke="none" d=""/><g transform="translate(422.91207153502233,698.075) rotate(0,0,0)"><path fill="none" stroke="none"/><text fill="" stroke="none" font-family="helvetica" font-size="8pt" font-style="normal" font-weight="normal" text-decoration="normal" x="0" y="0" text-anchor="start" dominant-baseline="text-after-edge">27.03%</text></g></g><g fill="#444444"><path fill="" stroke="none" d=""/><g transform="translate(419.87183308494787,651.7249999999999) rotate(0,0,0)"><path fill="none" stroke="none"/><text fill="" stroke="none" font-family="helvetica" font-size="8pt" font-style="normal" font-weight="normal" text-decoration="normal" x="0" y="0" text-anchor="start" dominant-baseline="text-after-edge">26.55%</text></g></g><g fill="#444444"><path fill="" stroke="none" d=""/><g transform="translate(417.946348733234,605.375) rotate(0,0,0)"><path fill="none" stroke="none"/><text fill="" stroke="none" font-family="helvetica" font-size="8pt" font-style="normal" font-weight="normal" text-decoration="normal" x="0" y="0" text-anchor="start" dominant-baseline="text-after-edge">26.25%</text></g></g><g fill="#444444"><path fill="" stroke="none" d=""/><g transform="translate(409.0789865871833,559.025) rotate(0,0,0)"><path fill="none" stroke="none"/><text fill="" stroke="none" font-family="helvetica" font-size="8pt" font-style="normal" font-weight="normal" text-decoration="normal" x="0" y="0" text-anchor="start" dominant-baseline="text-after-edge">24.85%</text></g></g><g fill="#444444"><path fill="" stroke="none" d=""/><g transform="translate(394.78986587183306,512.675) rotate(0,0,0)"><path fill="none" stroke="none"/><text fill="" stroke="none" font-family="helvetica" font-size="8pt" font-style="normal" font-weight="normal" text-decoration="normal" x="0" y="0" text-anchor="start" dominant-baseline="text-after-edge">22.59%</text></g></g><g fill="#444444"><path fill="" stroke="none" d=""/><g transform="translate(393.4724292101341,466.325) rotate(0,0,0)"><path fill="none" stroke="none"/><text fill="" stroke="none" font-family="helvetica" font-size="8pt" font-style="normal" font-weight="normal" text-decoration="normal" x="0" y="0" text-anchor="start" dominant-baseline="text-after-edge">22.38%</text></g></g><g fill="#444444"><path fill="" stroke="none" d=""/><g transform="translate(367.7824143070045,419.975) rotate(0,0,0)"><path fill="none" stroke="none"/><text fill="" stroke="none" font-family="helvetica" font-size="8pt" font-style="normal" font-weight="normal" text-decoration="normal" x="0" y="0" text-anchor="start" dominant-baseline="text-after-edge">18.31%</text></g></g><g fill="#444444"><path fill="" stroke="none" d=""/><g transform="translate(367.6810730253353,373.625) rotate(0,0,0)"><path fill="none" stroke="none"/><text fill="" stroke="none" font-family="helvetica" font-size="8pt" font-style="normal" font-weight="normal" text-decoration="normal" x="0" y="0" text-anchor="start" dominant-baseline="text-after-edge">18.30%</text></g></g><g fill="#444444"><path fill="" stroke="none" d=""/><g transform="translate(359.11773472429206,327.275) rotate(0,0,0)"><path fill="none" stroke="none"/><text fill="" stroke="none" font-family="helvetica" font-size="8pt" font-style="normal" font-weight="normal" text-decoration="normal" x="0" y="0" text-anchor="start" dominant-baseline="text-after-edge">16.94%</text></g></g><g fill="#444444"><path fill="" stroke="none" d=""/><g transform="translate(344.575260804769,280.92499999999995) rotate(0,0,0)"><path fill="none" stroke="none"/><text fill="" stroke="none" font-family="helvetica" font-size="8pt" font-style="normal" font-weight="normal" text-decoration="normal" x="0" y="0" text-anchor="start" dominant-baseline="text-after-edge">14.64%</text></g></g><g fill="#444444"><path fill="" stroke="none" d=""/><g transform="translate(312.6527570789866,234.57499999999993) rotate(0,0,0)"><path fill="none" stroke="none"/><text fill="" stroke="none" font-family="helvetica" font-size="8pt" font-style="normal" font-weight="normal" text-decoration="normal" x="0" y="0" text-anchor="start" dominant-baseline="text-after-edge">9.59%</text></g></g><g fill="#444444"><path fill="" stroke="none" d=""/><g transform="translate(310.67660208643815,188.22500000000002) rotate(0,0,0)"><path fill="none" stroke="none"/><text fill="" stroke="none" font-family="helvetica" font-size="8pt" font-style="normal" font-weight="normal" text-decoration="normal" x="0" y="0" text-anchor="start" dominant-baseline="text-after-edge">9.28%</text></g></g><g fill="#444444"><path fill="" stroke="none" d=""/><g transform="translate(309.25782414307,141.875) rotate(0,0,0)"><path fill="none" stroke="none"/><text fill="" stroke="none" font-family="helvetica" font-size="8pt" font-style="normal" font-weight="normal" text-decoration="normal" x="0" y="0" text-anchor="start" dominant-baseline="text-after-edge">9.06%</text></g></g><g fill="#444444"><path fill="" stroke="none" d=""/><g transform="translate(297.5529061102832,95.52499999999998) rotate(0,0,0)"><path fill="none" stroke="none"/><text fill="" stroke="none" font-family="helvetica" font-size="8pt" font-style="normal" font-weight="normal" text-decoration="normal" x="0" y="0" text-anchor="start" dominant-baseline="text-after-edge">7.21%</text></g></g><g fill="#444444"><path fill="" stroke="none" d=""/><g transform="translate(265.02235469448584,49.174999999999955) rotate(0,0,0)"><path fill="none" stroke="none"/><text fill="" stroke="none" font-family="helvetica" font-size="8pt" font-style="normal" font-weight="normal" text-decoration="normal" x="0" y="0" text-anchor="start" dominant-baseline="text-after-edge">2.06%</text></g></g><g fill="#444444"><path fill="" stroke="none" d=""/><g transform="translate(589.4664679582712,943.825) rotate(0,0,0)"><path fill="none" stroke="none"/><text fill="" stroke="none" font-family="helvetica" font-size="8pt" font-style="normal" font-weight="normal" text-decoration="normal" x="0" y="0" text-anchor="start" dominant-baseline="text-after-edge">6660</text></g></g><g fill="#444444"><path fill="" stroke="none" d=""/><g transform="translate(509.204172876304,897.475) rotate(0,0,0)"><path fill="none" stroke="none"/><text fill="" stroke="none" font-family="helvetica" font-size="8pt" font-style="normal" font-weight="normal" text-decoration="normal" x="0" y="0" text-anchor="start" dominant-baseline="text-after-edge">5076</text></g></g><g fill="#444444"><path fill="" stroke="none" d=""/><g transform="translate(495.97913561847986,851.125) rotate(0,0,0)"><path fill="none" stroke="none"/><text fill="" stroke="none" font-family="helvetica" font-size="8pt" font-style="normal" font-weight="normal" text-decoration="normal" x="0" y="0" text-anchor="start" dominant-baseline="text-after-edge">4815</text></g></g><g fill="#444444"><path fill="" stroke="none" d=""/><g transform="translate(471.60655737704917,804.775) rotate(0,0,0)"><path fill="none" stroke="none"/><text fill="" stroke="none" font-family="helvetica" font-size="8pt" font-style="normal" font-weight="normal" text-decoration="normal" x="0" y="0" text-anchor="start" dominant-baseline="text-after-edge">4334</text></g></g><g fill="#444444"><path fill="" stroke="none" d=""/><g transform="translate(435.8837555886736,758.425) rotate(0,0,0)"><path fill="none" stroke="none"/><text fill="" stroke="none" font-family="helvetica" font-size="8pt" font-style="normal" font-weight="normal" text-decoration="normal" x="0" y="0" text-anchor="start" dominant-baseline="text-after-edge">3629</text></g></g><g fill="#444444"><path fill="" stroke="none" d=""/><g transform="translate(422.91207153502233,712.075) rotate(0,0,0)"><path fill="none" stroke="none"/><text fill="" stroke="none" font-family="helvetica" font-size="8pt" font-style="normal" font-weight="normal" text-decoration="normal" x="0" y="0" text-anchor="start" dominant-baseline="text-after-edge">3373</text></g></g><g fill="#444444"><path fill="" stroke="none" d=""/><g transform="translate(419.87183308494787,665.7249999999999) rotate(0,0,0)"><path fill="none" stroke="none"/><text fill="" stroke="none" font-family="helvetica" font-size="8pt" font-style="normal" font-weight="normal" text-decoration="normal" x="0" y="0" text-anchor="start" dominant-baseline="text-after-edge">3313</text></g></g><g fill="#444444"><path fill="" stroke="none" d=""/><g transform="translate(417.946348733234,619.375) rotate(0,0,0)"><path fill="none" stroke="none"/><text fill="" stroke="none" font-family="helvetica" font-size="8pt" font-style="normal" font-weight="normal" text-decoration="normal" x="0" y="0" text-anchor="start" dominant-baseline="text-after-edge">3275</text></g></g><g fill="#444444"><path fill="" stroke="none" d=""/><g transform="translate(409.0789865871833,573.025) rotate(0,0,0)"><path fill="none" stroke="none"/><text fill="" stroke="none" font-family="helvetica" font-size="8pt" font-style="normal" font-weight="normal" text-decoration="normal" x="0" y="0" text-anchor="start" dominant-baseline="text-after-edge">3100</text></g></g><g fill="#444444"><path fill="" stroke="none" d=""/><g transform="translate(394.78986587183306,526.675) rotate(0,0,0)"><path fill="none" stroke="none"/><text fill="" stroke="none" font-family="helvetica" font-size="8pt" font-style="normal" font-weight="normal" text-decoration="normal" x="0" y="0" text-anchor="start" dominant-baseline="text-after-edge">2818</text></g></g><g fill="#444444"><path fill="" stroke="none" d=""/><g transform="translate(393.4724292101341,480.325) rotate(0,0,0)"><path fill="none" stroke="none"/><text fill="" stroke="none" font-family="helvetica" font-size="8pt" font-style="normal" font-weight="normal" text-decoration="normal" x="0" y="0" text-anchor="start" dominant-baseline="text-after-edge">2792</text></g></g><g fill="#444444"><path fill="" stroke="none" d=""/><g transform="translate(367.7824143070045,433.975) rotate(0,0,0)"><path fill="none" stroke="none"/><text fill="" stroke="none" font-family="helvetica" font-size="8pt" font-style="normal" font-weight="normal" text-decoration="normal" x="0" y="0" text-anchor="start" dominant-baseline="text-after-edge">2285</text></g></g><g fill="#444444"><path fill="" stroke="none" d=""/><g transform="translate(367.6810730253353,387.625) rotate(0,0,0)"><path fill="none" stroke="none"/><text fill="" stroke="none" font-family="helvetica" font-size="8pt" font-style="normal" font-weight="normal" text-decoration="normal" x="0" y="0" text-anchor="start" dominant-baseline="text-after-edge">2283</text></g></g><g fill="#444444"><path fill="" stroke="none" d=""/><g transform="translate(359.11773472429206,341.275) rotate(0,0,0)"><path fill="none" stroke="none"/><text fill="" stroke="none" font-family="helvetica" font-size="8pt" font-style="normal" font-weight="normal" text-decoration="normal" x="0" y="0" text-anchor="start" dominant-baseline="text-after-edge">2114</text></g></g><g fill="#444444"><path fill="" stroke="none" d=""/><g transform="translate(344.575260804769,294.92499999999995) rotate(0,0,0)"><path fill="none" stroke="none"/><text fill="" stroke="none" font-family="helvetica" font-size="8pt" font-style="normal" font-weight="normal" text-decoration="normal" x="0" y="0" text-anchor="start" dominant-baseline="text-after-edge">1827</text></g></g><g fill="#444444"><path fill="" stroke="none" d=""/><g transform="translate(312.6527570789866,248.57499999999993) rotate(0,0,0)"><path fill="none" stroke="none"/><text fill="" stroke="none" font-family="helvetica" font-size="8pt" font-style="normal" font-weight="normal" text-decoration="normal" x="0" y="0" text-anchor="start" dominant-baseline="text-after-edge">1197</text></g></g><g fill="#444444"><path fill="" stroke="none" d=""/><g transform="translate(310.67660208643815,202.22500000000002) rotate(0,0,0)"><path fill="none" stroke="none"/><text fill="" stroke="none" font-family="helvetica" font-size="8pt" font-style="normal" font-weight="normal" text-decoration="normal" x="0" y="0" text-anchor="start" dominant-baseline="text-after-edge">1158</text></g></g><g fill="#444444"><path fill="" stroke="none" d=""/><g transform="translate(309.25782414307,155.875) rotate(0,0,0)"><path fill="none" stroke="none"/><text fill="" stroke="none" font-family="helvetica" font-size="8pt" font-style="normal" font-weight="normal" text-decoration="normal" x="0" y="0" text-anchor="start" dominant-baseline="text-after-edge">1130</text></g></g><g fill="#444444"><path fill="" stroke="none" d=""/><g transform="translate(297.5529061102832,109.52499999999998) rotate(0,0,0)"><path fill="none" stroke="none"/><text fill="" stroke="none" font-family="helvetica" font-size="8pt" font-style="normal" font-weight="normal" text-decoration="normal" x="0" y="0" text-anchor="start" dominant-baseline="text-after-edge">899</text></g></g><g fill="#444444"><path fill="" stroke="none" d=""/><g transform="translate(265.02235469448584,63.174999999999955) rotate(0,0,0)"><path fill="none" stroke="none"/><text fill="" stroke="none" font-family="helvetica" font-size="8pt" font-style="normal" font-weight="normal" text-decoration="normal" x="0" y="0" text-anchor="start" dominant-baseline="text-after-edge">257</text></g></g></g><g/><g><g fill="#444444"><path fill="none" stroke="black" paint-order="fill stroke markers" d=" M 242 955 L 650 955" stroke-miterlimit="10"/><path fill="none" stroke="black" paint-order="fill stroke markers" d=" M 242 961 L 242 953" stroke-miterlimit="10"/><path fill="none" stroke="black" paint-order="fill stroke markers" d=" M 343 961 L 343 953" stroke-miterlimit="10"/><path fill="none" stroke="black" paint-order="fill stroke markers" d=" M 445 961 L 445 953" stroke-miterlimit="10"/><path fill="none" stroke="black" paint-order="fill stroke markers" d=" M 546 961 L 546 953" stroke-miterlimit="10"/><path fill="none" stroke="black" paint-order="fill stroke markers" d=" M 647 961 L 647 953" stroke-miterlimit="10"/><path fill="none" stroke="black" paint-order="fill stroke markers" d=" M 242 959 L 242 955" stroke-miterlimit="10"/><path fill="none" stroke="black" paint-order="fill stroke markers" d=" M 262 959 L 262 955" stroke-miterlimit="10"/><path fill="none" stroke="black" paint-order="fill stroke markers" d=" M 283 959 L 283 955" stroke-miterlimit="10"/><path fill="none" stroke="black" paint-order="fill stroke markers" d=" M 303 959 L 303 955" stroke-miterlimit="10"/><path fill="none" stroke="black" paint-order="fill stroke markers" d=" M 323 959 L 323 955" stroke-miterlimit="10"/><path fill="none" stroke="black" paint-order="fill stroke markers" d=" M 343 959 L 343 955" stroke-miterlimit="10"/><path fill="none" stroke="black" paint-order="fill stroke markers" d=" M 364 959 L 364 955" stroke-miterlimit="10"/><path fill="none" stroke="black" paint-order="fill stroke markers" d=" M 384 959 L 384 955" stroke-miterlimit="10"/><path fill="none" stroke="black" paint-order="fill stroke markers" d=" M 404 959 L 404 955" stroke-miterlimit="10"/><path fill="none" stroke="black" paint-order="fill stroke markers" d=" M 424 959 L 424 955" stroke-miterlimit="10"/><path fill="none" stroke="black" paint-order="fill stroke markers" d=" M 445 959 L 445 955" stroke-miterlimit="10"/><path fill="none" stroke="black" paint-order="fill stroke markers" d=" M 465 959 L 465 955" stroke-miterlimit="10"/><path fill="none" stroke="black" paint-order="fill stroke markers" d=" M 485 959 L 485 955" stroke-miterlimit="10"/><path fill="none" stroke="black" paint-order="fill stroke markers" d=" M 505 959 L 505 955" stroke-miterlimit="10"/><path fill="none" stroke="black" paint-order="fill stroke markers" d=" M 526 959 L 526 955" stroke-miterlimit="10"/><path fill="none" stroke="black" paint-order="fill stroke markers" d=" M 546 959 L 546 955" stroke-miterlimit="10"/><path fill="none" stroke="black" paint-order="fill stroke markers" d=" M 566 959 L 566 955" stroke-miterlimit="10"/><path fill="none" stroke="black" paint-order="fill stroke markers" d=" M 587 959 L 587 955" stroke-miterlimit="10"/><path fill="none" stroke="black" paint-order="fill stroke markers" d=" M 607 959 L 607 955" stroke-miterlimit="10"/><path fill="none" stroke="black" paint-order="fill stroke markers" d=" M 627 959 L 627 955" stroke-miterlimit="10"/><path fill="" stroke="black" paint-order="fill stroke markers" d=" M 647 959 L 647 955" stroke-miterlimit="10"/><g transform="translate(242,966) rotate(0,0,0)"><text fill="" stroke="none" font-family="helvetica" font-size="8pt" font-style="normal" font-weight="normal" text-decoration="normal" x="0" y="0" text-anchor="middle" dominant-baseline="hanging">0</text><g transform="rotate(0,0,0) translate(-242,-966) translate(343,966) rotate(0,0,0)"><text fill="" stroke="none" font-family="helvetica" font-size="8pt" font-style="normal" font-weight="normal" text-decoration="normal" x="0" y="0" text-anchor="middle" dominant-baseline="hanging">2000</text><g transform="rotate(0,0,0) translate(-343,-966) translate(445,966) rotate(0,0,0)"><text fill="" stroke="none" font-family="helvetica" font-size="8pt" font-style="normal" font-weight="normal" text-decoration="normal" x="0" y="0" text-anchor="middle" dominant-baseline="hanging">4000</text><g transform="rotate(0,0,0) translate(-445,-966) translate(546,966) rotate(0,0,0)"><text fill="" stroke="none" font-family="helvetica" font-size="8pt" font-style="normal" font-weight="normal" text-decoration="normal" x="0" y="0" text-anchor="middle" dominant-baseline="hanging">6000</text><g transform="rotate(0,0,0) translate(-546,-966) translate(647,966) rotate(0,0,0)"><text fill="" stroke="none" font-family="helvetica" font-size="8pt" font-style="normal" font-weight="normal" text-decoration="normal" x="0" y="0" text-anchor="middle" dominant-baseline="hanging">8000</text><g transform="rotate(0,0,0) translate(-647,-966) translate(446,984) rotate(0,0,0)"><text fill="" stroke="none" font-family="helvetica" font-size="10pt" font-style="italic" font-weight="normal" text-decoration="normal" x="0" y="0" text-anchor="middle" dominant-baseline="hanging">Respondents</text><g transform="rotate(0,0,0) translate(-446,-984)"/></g></g></g></g></g></g></g><g fill="#444444"><path fill="none" stroke="black" paint-order="fill stroke markers" d=" M 242 955 L 242 28" stroke-miterlimit="10"/><path fill="none" stroke="black" paint-order="fill stroke markers" d=" M 236 932 L 244 932" stroke-miterlimit="10"/><path fill="none" stroke="black" paint-order="fill stroke markers" d=" M 236 885 L 244 885" stroke-miterlimit="10"/><path fill="none" stroke="black" paint-order="fill stroke markers" d=" M 236 839 L 244 839" stroke-miterlimit="10"/><path fill="none" stroke="black" paint-order="fill stroke markers" d=" M 236 793 L 244 793" stroke-miterlimit="10"/><path fill="none" stroke="black" paint-order="fill stroke markers" d=" M 236 746 L 244 746" stroke-miterlimit="10"/><path fill="none" stroke="black" paint-order="fill stroke markers" d=" M 236 700 L 244 700" stroke-miterlimit="10"/><path fill="none" stroke="black" paint-order="fill stroke markers" d=" M 236 654 L 244 654" stroke-miterlimit="10"/><path fill="none" stroke="black" paint-order="fill stroke markers" d=" M 236 607 L 244 607" stroke-miterlimit="10"/><path fill="none" stroke="black" paint-order="fill stroke markers" d=" M 236 561 L 244 561" stroke-miterlimit="10"/><path fill="none" stroke="black" paint-order="fill stroke markers" d=" M 236 515 L 244 515" stroke-miterlimit="10"/><path fill="none" stroke="black" paint-order="fill stroke markers" d=" M 236 468 L 244 468" stroke-miterlimit="10"/><path fill="none" stroke="black" paint-order="fill stroke markers" d=" M 236 422 L 244 422" stroke-miterlimit="10"/><path fill="none" stroke="black" paint-order="fill stroke markers" d=" M 236 376 L 244 376" stroke-miterlimit="10"/><path fill="none" stroke="black" paint-order="fill stroke markers" d=" M 236 329 L 244 329" stroke-miterlimit="10"/><path fill="none" stroke="black" paint-order="fill stroke markers" d=" M 236 283 L 244 283" stroke-miterlimit="10"/><path fill="none" stroke="black" paint-order="fill stroke markers" d=" M 236 237 L 244 237" stroke-miterlimit="10"/><path fill="none" stroke="black" paint-order="fill stroke markers" d=" M 236 190 L 244 190" stroke-miterlimit="10"/><path fill="none" stroke="black" paint-order="fill stroke markers" d=" M 236 144 L 244 144" stroke-miterlimit="10"/><path fill="none" stroke="black" paint-order="fill stroke markers" d=" M 236 98 L 244 98" stroke-miterlimit="10"/><path fill="" stroke="black" paint-order="fill stroke markers" d=" M 236 51 L 244 51" stroke-miterlimit="10"/><g transform="translate(231,932) rotate(0,0,0)"><text fill="" stroke="none" font-family="helvetica" font-size="8pt" font-style="normal" font-weight="normal" text-decoration="normal" x="0" y="0" text-anchor="end" dominant-baseline="central">AI and machine learning</text><g transform="rotate(0,0,0) translate(-231,-932) translate(231,885) rotate(0,0,0)"><text fill="" stroke="none" font-family="helvetica" font-size="8pt" font-style="normal" font-weight="normal" text-decoration="normal" x="0" y="0" text-anchor="end" dominant-baseline="central">Augmented Reality</text><g transform="rotate(0,0,0) translate(-231,-885) translate(231,839) rotate(0,0,0)"><text fill="" stroke="none" font-family="helvetica" font-size="8pt" font-style="normal" font-weight="normal" text-decoration="normal" x="0" y="0" text-anchor="end" dominant-baseline="central">Virtual Reality</text><g transform="rotate(0,0,0) translate(-231,-839) translate(231,793) rotate(0,0,0)"><text fill="" stroke="none" font-family="helvetica" font-size="8pt" font-style="normal" font-weight="normal" text-decoration="normal" x="0" y="0" text-anchor="end" dominant-baseline="central">Behavior tracking and modeling</text><g transform="rotate(0,0,0) translate(-231,-793) translate(231,746) rotate(0,0,0)"><text fill="" stroke="none" font-family="helvetica" font-size="8pt" font-style="normal" font-weight="normal" text-decoration="normal" x="0" y="0" text-anchor="end" dominant-baseline="central">Internet of Things</text><g transform="rotate(0,0,0) translate(-231,-746) translate(231,700) rotate(0,0,0)"><text fill="" stroke="none" font-family="helvetica" font-size="8pt" font-style="normal" font-weight="normal" text-decoration="normal" x="0" y="0" text-anchor="end" dominant-baseline="central">Distributed teams and virtual workplace</text><g transform="rotate(0,0,0) translate(-231,-700) translate(231,654) rotate(0,0,0)"><text fill="" stroke="none" font-family="helvetica" font-size="8pt" font-style="normal" font-weight="normal" text-decoration="normal" x="0" y="0" text-anchor="end" dominant-baseline="central">3D printing</text><g transform="rotate(0,0,0) translate(-231,-654) translate(231,607) rotate(0,0,0)"><text fill="" stroke="none" font-family="helvetica" font-size="8pt" font-style="normal" font-weight="normal" text-decoration="normal" x="0" y="0" text-anchor="end" dominant-baseline="central">Democratization of design</text><g transform="rotate(0,0,0) translate(-231,-607) translate(231,561) rotate(0,0,0)"><text fill="" stroke="none" font-family="helvetica" font-size="8pt" font-style="normal" font-weight="normal" text-decoration="normal" x="0" y="0" text-anchor="end" dominant-baseline="central">Algorithmic design</text><g transform="rotate(0,0,0) translate(-231,-561) translate(231,515) rotate(0,0,0)"><text fill="" stroke="none" font-family="helvetica" font-size="8pt" font-style="normal" font-weight="normal" text-decoration="normal" x="0" y="0" text-anchor="end" dominant-baseline="central">Crowdsourcing and open source</text><g transform="rotate(0,0,0) translate(-231,-515) translate(231,468) rotate(0,0,0)"><text fill="" stroke="none" font-family="helvetica" font-size="8pt" font-style="normal" font-weight="normal" text-decoration="normal" x="0" y="0" text-anchor="end" dominant-baseline="central">Facial and voice recognition</text><g transform="rotate(0,0,0) translate(-231,-468) translate(231,422) rotate(0,0,0)"><text fill="" stroke="none" font-family="helvetica" font-size="8pt" font-style="normal" font-weight="normal" text-decoration="normal" x="0" y="0" text-anchor="end" dominant-baseline="central">Conversational interfaces</text><g transform="rotate(0,0,0) translate(-231,-422) translate(231,376) rotate(0,0,0)"><text fill="" stroke="none" font-family="helvetica" font-size="8pt" font-style="normal" font-weight="normal" text-decoration="normal" x="0" y="0" text-anchor="end" dominant-baseline="central">Image recognition</text><g transform="rotate(0,0,0) translate(-231,-376) translate(231,329) rotate(0,0,0)"><text fill="" stroke="none" font-family="helvetica" font-size="8pt" font-style="normal" font-weight="normal" text-decoration="normal" x="0" y="0" text-anchor="end" dominant-baseline="central">Human augmentation</text><g transform="rotate(0,0,0) translate(-231,-329) translate(231,283) rotate(0,0,0)"><text fill="" stroke="none" font-family="helvetica" font-size="8pt" font-style="normal" font-weight="normal" text-decoration="normal" x="0" y="0" text-anchor="end" dominant-baseline="central">Biological or genetic design</text><g transform="rotate(0,0,0) translate(-231,-283) translate(231,237) rotate(0,0,0)"><text fill="" stroke="none" font-family="helvetica" font-size="8pt" font-style="normal" font-weight="normal" text-decoration="normal" x="0" y="0" text-anchor="end" dominant-baseline="central">Battery and energy technology</text><g transform="rotate(0,0,0) translate(-231,-237) translate(231,190) rotate(0,0,0)"><text fill="" stroke="none" font-family="helvetica" font-size="8pt" font-style="normal" font-weight="normal" text-decoration="normal" x="0" y="0" text-anchor="end" dominant-baseline="central">Quantum computing</text><g transform="rotate(0,0,0) translate(-231,-190) translate(231,144) rotate(0,0,0)"><text fill="" stroke="none" font-family="helvetica" font-size="8pt" font-style="normal" font-weight="normal" text-decoration="normal" x="0" y="0" text-anchor="end" dominant-baseline="central">Miniaturization and nanotechnology</text><g transform="rotate(0,0,0) translate(-231,-144) translate(231,98) rotate(0,0,0)"><text fill="" stroke="none" font-family="helvetica" font-size="8pt" font-style="normal" font-weight="normal" text-decoration="normal" x="0" y="0" text-anchor="end" dominant-baseline="central">Networked device ubiquity</text><g transform="rotate(0,0,0) translate(-231,-98) translate(231,51) rotate(0,0,0)"><text fill="" stroke="none" font-family="helvetica" font-size="8pt" font-style="normal" font-weight="normal" text-decoration="normal" x="0" y="0" text-anchor="end" dominant-baseline="central">None of these</text><g transform="rotate(0,0,0) translate(-231,-51) translate(15,492) rotate(-90,0,0)"><text fill="" stroke="none" font-family="helvetica" font-size="10pt" font-style="italic" font-weight="normal" text-decoration="normal" x="0" y="0" text-anchor="middle" dominant-baseline="alphabetic">Categories</text><g transform="rotate(90,0,0) translate(-15,-492)"/></g></g></g></g></g></g></g></g></g></g></g></g></g></g></g></g></g></g></g></g></g></g><g fill="#444444"><path fill="" stroke="none" d=""/><g transform="translate(242,23)"><path fill="none" stroke="none"/><text fill="" stroke="none" font-family="helvetica" font-size="10pt" font-style="normal" font-weight="bold" text-decoration="normal" x="0" y="0" text-anchor="start" dominant-baseline="text-after-edge">All: The emerging trends and technologies that will have the biggest impact on design are (answer optional):</text></g></g></g></g></g></svg>