<svg version="1.1" xmlns="http://www.w3.org/2000/svg" xmlns:xlink="http://www.w3.org/1999/xlink" width="700" height="1200" style="width: 700px; height: 1200px;"><defs/><g><g transform="scale(1,1) translate(0.5,0.5)"><rect fill="#FFFFFF" stroke="none" x="0" y="0" width="700" height="1200"/><rect fill="#ffffff" stroke="none" x="0" y="0" width="700" height="1200"/><rect fill="#FFFFFF" stroke="none" x="238" y="28" width="412" height="1127"/><rect fill="#ffffff" stroke="none" x="238" y="28" width="412" height="1127"/><g><rect fill="none" stroke="#e5e5e5" x="238" y="28" width="412" height="1127" stroke-miterlimit="10"/></g><g><g><path fill="none" stroke="#e5e5e5" paint-order="fill stroke markers" d=" M 316 1155 L 316 28" stroke-miterlimit="10"/><path fill="none" stroke="#e5e5e5" paint-order="fill stroke markers" d=" M 394 1155 L 394 28" stroke-miterlimit="10"/><path fill="none" stroke="#e5e5e5" paint-order="fill stroke markers" d=" M 473 1155 L 473 28" stroke-miterlimit="10"/><path fill="none" stroke="#e5e5e5" paint-order="fill stroke markers" d=" M 551 1155 L 551 28" stroke-miterlimit="10"/><path fill="none" stroke="#e5e5e5" paint-order="fill stroke markers" d=" M 629 1155 L 629 28" stroke-miterlimit="10"/></g><g><path fill="none" stroke="#e5e5e5" paint-order="fill stroke markers" d=" M 238 1132 L 650 1132" stroke-miterlimit="10"/><path fill="none" stroke="#e5e5e5" paint-order="fill stroke markers" d=" M 238 1085 L 650 1085" stroke-miterlimit="10"/><path fill="none" stroke="#e5e5e5" paint-order="fill stroke markers" d=" M 238 1038 L 650 1038" stroke-miterlimit="10"/><path fill="none" stroke="#e5e5e5" paint-order="fill stroke markers" d=" M 238 991 L 650 991" stroke-miterlimit="10"/><path fill="none" stroke="#e5e5e5" paint-order="fill stroke markers" d=" M 238 944 L 650 944" stroke-miterlimit="10"/><path fill="none" stroke="#e5e5e5" paint-order="fill stroke markers" d=" M 238 897 L 650 897" stroke-miterlimit="10"/><path fill="none" stroke="#e5e5e5" paint-order="fill stroke markers" d=" M 238 850 L 650 850" stroke-miterlimit="10"/><path fill="none" stroke="#e5e5e5" paint-order="fill stroke markers" d=" M 238 803 L 650 803" stroke-miterlimit="10"/><path fill="none" stroke="#e5e5e5" paint-order="fill stroke markers" d=" M 238 756 L 650 756" stroke-miterlimit="10"/><path fill="none" stroke="#e5e5e5" paint-order="fill stroke markers" d=" M 238 709 L 650 709" stroke-miterlimit="10"/><path fill="none" stroke="#e5e5e5" paint-order="fill stroke markers" d=" M 238 662 L 650 662" stroke-miterlimit="10"/><path fill="none" stroke="#e5e5e5" paint-order="fill stroke markers" d=" M 238 615 L 650 615" stroke-miterlimit="10"/><path fill="none" stroke="#e5e5e5" paint-order="fill stroke markers" d=" M 238 568 L 650 568" stroke-miterlimit="10"/><path fill="none" stroke="#e5e5e5" paint-order="fill stroke markers" d=" M 238 521 L 650 521" stroke-miterlimit="10"/><path fill="none" stroke="#e5e5e5" paint-order="fill stroke markers" d=" M 238 474 L 650 474" stroke-miterlimit="10"/><path fill="none" stroke="#e5e5e5" paint-order="fill stroke markers" d=" M 238 427 L 650 427" stroke-miterlimit="10"/><path fill="none" stroke="#e5e5e5" paint-order="fill stroke markers" d=" M 238 380 L 650 380" stroke-miterlimit="10"/><path fill="none" stroke="#e5e5e5" paint-order="fill stroke markers" d=" M 238 333 L 650 333" stroke-miterlimit="10"/><path fill="none" stroke="#e5e5e5" paint-order="fill stroke markers" d=" M 238 286 L 650 286" stroke-miterlimit="10"/><path fill="none" stroke="#e5e5e5" paint-order="fill stroke markers" d=" M 238 239 L 650 239" stroke-miterlimit="10"/><path fill="none" stroke="#e5e5e5" paint-order="fill stroke markers" d=" M 238 192 L 650 192" stroke-miterlimit="10"/><path fill="none" stroke="#e5e5e5" paint-order="fill stroke markers" d=" M 238 145 L 650 145" stroke-miterlimit="10"/><path fill="none" stroke="#e5e5e5" paint-order="fill stroke markers" d=" M 238 98 L 650 98" stroke-miterlimit="10"/><path fill="none" stroke="#e5e5e5" paint-order="fill stroke markers" d=" M 238 51 L 650 51" stroke-miterlimit="10"/></g><g><path fill="none" stroke="none"/><rect fill="#1f77b4" stroke="none" x="238" y="1113.9114583333333" width="341.3772409601945" height="35.21875"/><path fill="none" stroke="#1f77b4" paint-order="fill stroke markers" d=" M 238 1113.9114583333333 L 579.3772409601945 1113.9114583333333 L 579.3772409601945 1149.1302083333333 L 238 1149.1302083333333 L 238 1113.9114583333333 Z" stroke-miterlimit="10"/><rect fill="#1f77b4" stroke="none" x="238" y="1066.953125" width="285.04178061379525" height="35.21875"/><path fill="none" stroke="#1f77b4" paint-order="fill stroke markers" d=" M 238 1066.953125 L 523.0417806137953 1066.953125 L 523.0417806137953 1102.171875 L 238 1102.171875 L 238 1066.953125 Z" stroke-miterlimit="10"/><rect fill="#1f77b4" stroke="none" x="238" y="1019.9947916666667" width="231.87518991188085" height="35.21875"/><path fill="none" stroke="#1f77b4" paint-order="fill stroke markers" d=" M 238 1019.9947916666667 L 469.87518991188085 1019.9947916666667 L 469.87518991188085 1055.2135416666667 L 238 1055.2135416666667 L 238 1019.9947916666667 Z" stroke-miterlimit="10"/><rect fill="#1f77b4" stroke="none" x="238" y="973.0364583333333" width="212.82285019750833" height="35.21875"/><path fill="none" stroke="#1f77b4" paint-order="fill stroke markers" d=" M 238 973.0364583333333 L 450.82285019750833 973.0364583333333 L 450.82285019750833 1008.2552083333333 L 238 1008.2552083333333 L 238 973.0364583333333 Z" stroke-miterlimit="10"/><rect fill="#1f77b4" stroke="none" x="238" y="926.078125" width="204.9593588574901" height="35.21875"/><path fill="none" stroke="#1f77b4" paint-order="fill stroke markers" d=" M 238 926.078125 L 442.9593588574901 926.078125 L 442.9593588574901 961.296875 L 238 961.296875 L 238 926.078125 Z" stroke-miterlimit="10"/><rect fill="#1f77b4" stroke="none" x="238" y="879.1197916666666" width="203.00326648435123" height="35.21875"/><path fill="none" stroke="#1f77b4" paint-order="fill stroke markers" d=" M 238 879.1197916666666 L 441.00326648435123 879.1197916666666 L 441.00326648435123 914.3385416666666 L 238 914.3385416666666 L 238 879.1197916666666 Z" stroke-miterlimit="10"/><rect fill="#1f77b4" stroke="none" x="238" y="832.1614583333333" width="192.71422060164082" height="35.21875"/><path fill="none" stroke="#1f77b4" paint-order="fill stroke markers" d=" M 238 832.1614583333333 L 430.7142206016408 832.1614583333333 L 430.7142206016408 867.3802083333333 L 238 867.3802083333333 L 238 832.1614583333333 Z" stroke-miterlimit="10"/><rect fill="#1f77b4" stroke="none" x="238" y="785.203125" width="188.91940139775147" height="35.21875"/><path fill="none" stroke="#1f77b4" paint-order="fill stroke markers" d=" M 238 785.203125 L 426.91940139775147 785.203125 L 426.91940139775147 820.421875 L 238 820.421875 L 238 785.203125 Z" stroke-miterlimit="10"/><rect fill="#1f77b4" stroke="none" x="238" y="738.2447916666666" width="183.16848982072315" height="35.21875"/><path fill="none" stroke="#1f77b4" paint-order="fill stroke markers" d=" M 238 738.2447916666666 L 421.16848982072315 738.2447916666666 L 421.16848982072315 773.4635416666666 L 238 773.4635416666666 L 238 738.2447916666666 Z" stroke-miterlimit="10"/><rect fill="#1f77b4" stroke="none" x="238" y="691.2864583333333" width="182.38605287146765" height="35.21875"/><path fill="none" stroke="#1f77b4" paint-order="fill stroke markers" d=" M 238 691.2864583333333 L 420.38605287146765 691.2864583333333 L 420.38605287146765 726.5052083333333 L 238 726.5052083333333 L 238 691.2864583333333 Z" stroke-miterlimit="10"/><rect fill="#1f77b4" stroke="none" x="238" y="644.328125" width="182.11219993922816" height="35.21875"/><path fill="none" stroke="#1f77b4" paint-order="fill stroke markers" d=" M 238 644.328125 L 420.11219993922816 644.328125 L 420.11219993922816 679.546875 L 238 679.546875 L 238 644.328125 Z" stroke-miterlimit="10"/><rect fill="#1f77b4" stroke="none" x="238" y="597.3697916666666" width="139.35202066241266" height="35.21875"/><path fill="none" stroke="#1f77b4" paint-order="fill stroke markers" d=" M 238 597.3697916666666 L 377.35202066241266 597.3697916666666 L 377.35202066241266 632.5885416666666 L 238 632.5885416666666 L 238 597.3697916666666 Z" stroke-miterlimit="10"/><rect fill="#1f77b4" stroke="none" x="238" y="550.4114583333333" width="130.15838650866" height="35.21875"/><path fill="none" stroke="#1f77b4" paint-order="fill stroke markers" d=" M 238 550.4114583333333 L 368.15838650866 550.4114583333333 L 368.15838650866 585.6302083333333 L 238 585.6302083333333 L 238 550.4114583333333 Z" stroke-miterlimit="10"/><rect fill="#1f77b4" stroke="none" x="238" y="503.453125" width="118.2262230325129" height="35.21875"/><path fill="none" stroke="#1f77b4" paint-order="fill stroke markers" d=" M 238 503.453125 L 356.2262230325129 503.453125 L 356.2262230325129 538.671875 L 238 538.671875 L 238 503.453125 Z" stroke-miterlimit="10"/><rect fill="#1f77b4" stroke="none" x="238" y="456.49479166666663" width="107.54595867517469" height="35.21875"/><path fill="none" stroke="#1f77b4" paint-order="fill stroke markers" d=" M 238 456.49479166666663 L 345.5459586751747 456.49479166666663 L 345.5459586751747 491.71354166666663 L 238 491.71354166666663 L 238 456.49479166666663 Z" stroke-miterlimit="10"/><rect fill="#1f77b4" stroke="none" x="238" y="409.53645833333326" width="87.9459130963233" height="35.21875"/><path fill="none" stroke="#1f77b4" paint-order="fill stroke markers" d=" M 238 409.53645833333326 L 325.9459130963233 409.53645833333326 L 325.9459130963233 444.75520833333326 L 238 444.75520833333326 L 238 409.53645833333326 Z" stroke-miterlimit="10"/><rect fill="#1f77b4" stroke="none" x="238" y="362.578125" width="84.42494682467333" height="35.21875"/><path fill="none" stroke="#1f77b4" paint-order="fill stroke markers" d=" M 238 362.578125 L 322.4249468246733 362.578125 L 322.4249468246733 397.796875 L 238 397.796875 L 238 362.578125 Z" stroke-miterlimit="10"/><rect fill="#1f77b4" stroke="none" x="238" y="315.61979166666663" width="68.3067456700091" height="35.21875"/><path fill="none" stroke="#1f77b4" paint-order="fill stroke markers" d=" M 238 315.61979166666663 L 306.3067456700091 315.61979166666663 L 306.3067456700091 350.83854166666663 L 238 350.83854166666663 L 238 315.61979166666663 Z" stroke-miterlimit="10"/><rect fill="#1f77b4" stroke="none" x="238" y="268.66145833333326" width="63.57300212701307" height="35.21875"/><path fill="none" stroke="#1f77b4" paint-order="fill stroke markers" d=" M 238 268.66145833333326 L 301.57300212701307 268.66145833333326 L 301.57300212701307 303.88020833333326 L 238 303.88020833333326 L 238 268.66145833333326 Z" stroke-miterlimit="10"/><rect fill="#1f77b4" stroke="none" x="238" y="221.703125" width="57.196140990580375" height="35.21875"/><path fill="none" stroke="#1f77b4" paint-order="fill stroke markers" d=" M 238 221.703125 L 295.1961409905804 221.703125 L 295.1961409905804 256.921875 L 238 256.921875 L 238 221.703125 Z" stroke-miterlimit="10"/><rect fill="#1f77b4" stroke="none" x="238" y="174.74479166666663" width="50.89752354907324" height="35.21875"/><path fill="none" stroke="#1f77b4" paint-order="fill stroke markers" d=" M 238 174.74479166666663 L 288.89752354907324 174.74479166666663 L 288.89752354907324 209.96354166666663 L 238 209.96354166666663 L 238 174.74479166666663 Z" stroke-miterlimit="10"/><rect fill="#1f77b4" stroke="none" x="238" y="127.78645833333326" width="43.69910361592224" height="35.21875"/><path fill="none" stroke="#1f77b4" paint-order="fill stroke markers" d=" M 238 127.78645833333326 L 281.69910361592224 127.78645833333326 L 281.69910361592224 163.00520833333326 L 238 163.00520833333326 L 238 127.78645833333326 Z" stroke-miterlimit="10"/><rect fill="#1f77b4" stroke="none" x="238" y="80.828125" width="40.53023397143727" height="35.21875"/><path fill="none" stroke="#1f77b4" paint-order="fill stroke markers" d=" M 238 80.828125 L 278.53023397143727 80.828125 L 278.53023397143727 116.046875 L 238 116.046875 L 238 80.828125 Z" stroke-miterlimit="10"/><rect fill="#1f77b4" stroke="none" x="238" y="33.869791666666515" width="3.4818444241871873" height="35.21875"/><path fill="none" stroke="#1f77b4" paint-order="fill stroke markers" d=" M 238 33.869791666666515 L 241.4818444241872 33.869791666666515 L 241.4818444241872 69.08854166666652 L 238 69.08854166666652 L 238 33.869791666666515 Z" stroke-miterlimit="10"/></g><g fill="#444444"><path fill="" stroke="none" d=""/><g transform="translate(589.3772409601945,1129.5208333333333) rotate(0,0,0)"><path fill="none" stroke="none"/><text fill="" stroke="none" font-family="helvetica" font-size="8pt" font-style="normal" font-weight="normal" text-decoration="normal" x="0" y="0" text-anchor="start" dominant-baseline="text-after-edge">69.94%</text></g></g><g fill="#444444"><path fill="" stroke="none" d=""/><g transform="translate(533.0417806137953,1082.5625) rotate(0,0,0)"><path fill="none" stroke="none"/><text fill="" stroke="none" font-family="helvetica" font-size="8pt" font-style="normal" font-weight="normal" text-decoration="normal" x="0" y="0" text-anchor="start" dominant-baseline="text-after-edge">58.40%</text></g></g><g fill="#444444"><path fill="" stroke="none" d=""/><g transform="translate(479.87518991188085,1035.6041666666667) rotate(0,0,0)"><path fill="none" stroke="none"/><text fill="" stroke="none" font-family="helvetica" font-size="8pt" font-style="normal" font-weight="normal" text-decoration="normal" x="0" y="0" text-anchor="start" dominant-baseline="text-after-edge">47.50%</text></g></g><g fill="#444444"><path fill="" stroke="none" d=""/><g transform="translate(460.82285019750833,988.6458333333333) rotate(0,0,0)"><path fill="none" stroke="none"/><text fill="" stroke="none" font-family="helvetica" font-size="8pt" font-style="normal" font-weight="normal" text-decoration="normal" x="0" y="0" text-anchor="start" dominant-baseline="text-after-edge">43.60%</text></g></g><g fill="#444444"><path fill="" stroke="none" d=""/><g transform="translate(452.9593588574901,941.6875) rotate(0,0,0)"><path fill="none" stroke="none"/><text fill="" stroke="none" font-family="helvetica" font-size="8pt" font-style="normal" font-weight="normal" text-decoration="normal" x="0" y="0" text-anchor="start" dominant-baseline="text-after-edge">41.99%</text></g></g><g fill="#444444"><path fill="" stroke="none" d=""/><g transform="translate(451.00326648435123,894.7291666666666) rotate(0,0,0)"><path fill="none" stroke="none"/><text fill="" stroke="none" font-family="helvetica" font-size="8pt" font-style="normal" font-weight="normal" text-decoration="normal" x="0" y="0" text-anchor="start" dominant-baseline="text-after-edge">41.59%</text></g></g><g fill="#444444"><path fill="" stroke="none" d=""/><g transform="translate(440.7142206016408,847.7708333333333) rotate(0,0,0)"><path fill="none" stroke="none"/><text fill="" stroke="none" font-family="helvetica" font-size="8pt" font-style="normal" font-weight="normal" text-decoration="normal" x="0" y="0" text-anchor="start" dominant-baseline="text-after-edge">39.48%</text></g></g><g fill="#444444"><path fill="" stroke="none" d=""/><g transform="translate(436.91940139775147,800.8125) rotate(0,0,0)"><path fill="none" stroke="none"/><text fill="" stroke="none" font-family="helvetica" font-size="8pt" font-style="normal" font-weight="normal" text-decoration="normal" x="0" y="0" text-anchor="start" dominant-baseline="text-after-edge">38.70%</text></g></g><g fill="#444444"><path fill="" stroke="none" d=""/><g transform="translate(431.16848982072315,753.8541666666666) rotate(0,0,0)"><path fill="none" stroke="none"/><text fill="" stroke="none" font-family="helvetica" font-size="8pt" font-style="normal" font-weight="normal" text-decoration="normal" x="0" y="0" text-anchor="start" dominant-baseline="text-after-edge">37.53%</text></g></g><g fill="#444444"><path fill="" stroke="none" d=""/><g transform="translate(430.38605287146765,706.8958333333333) rotate(0,0,0)"><path fill="none" stroke="none"/><text fill="" stroke="none" font-family="helvetica" font-size="8pt" font-style="normal" font-weight="normal" text-decoration="normal" x="0" y="0" text-anchor="start" dominant-baseline="text-after-edge">37.36%</text></g></g><g fill="#444444"><path fill="" stroke="none" d=""/><g transform="translate(430.11219993922816,659.9375) rotate(0,0,0)"><path fill="none" stroke="none"/><text fill="" stroke="none" font-family="helvetica" font-size="8pt" font-style="normal" font-weight="normal" text-decoration="normal" x="0" y="0" text-anchor="start" dominant-baseline="text-after-edge">37.31%</text></g></g><g fill="#444444"><path fill="" stroke="none" d=""/><g transform="translate(387.35202066241266,612.9791666666666) rotate(0,0,0)"><path fill="none" stroke="none"/><text fill="" stroke="none" font-family="helvetica" font-size="8pt" font-style="normal" font-weight="normal" text-decoration="normal" x="0" y="0" text-anchor="start" dominant-baseline="text-after-edge">28.55%</text></g></g><g fill="#444444"><path fill="" stroke="none" d=""/><g transform="translate(378.15838650866,566.0208333333333) rotate(0,0,0)"><path fill="none" stroke="none"/><text fill="" stroke="none" font-family="helvetica" font-size="8pt" font-style="normal" font-weight="normal" text-decoration="normal" x="0" y="0" text-anchor="start" dominant-baseline="text-after-edge">26.67%</text></g></g><g fill="#444444"><path fill="" stroke="none" d=""/><g transform="translate(366.2262230325129,519.0625) rotate(0,0,0)"><path fill="none" stroke="none"/><text fill="" stroke="none" font-family="helvetica" font-size="8pt" font-style="normal" font-weight="normal" text-decoration="normal" x="0" y="0" text-anchor="start" dominant-baseline="text-after-edge">24.22%</text></g></g><g fill="#444444"><path fill="" stroke="none" d=""/><g transform="translate(355.5459586751747,472.10416666666663) rotate(0,0,0)"><path fill="none" stroke="none"/><text fill="" stroke="none" font-family="helvetica" font-size="8pt" font-style="normal" font-weight="normal" text-decoration="normal" x="0" y="0" text-anchor="start" dominant-baseline="text-after-edge">22.03%</text></g></g><g fill="#444444"><path fill="" stroke="none" d=""/><g transform="translate(335.9459130963233,425.14583333333326) rotate(0,0,0)"><path fill="none" stroke="none"/><text fill="" stroke="none" font-family="helvetica" font-size="8pt" font-style="normal" font-weight="normal" text-decoration="normal" x="0" y="0" text-anchor="start" dominant-baseline="text-after-edge">18.02%</text></g></g><g fill="#444444"><path fill="" stroke="none" d=""/><g transform="translate(332.4249468246733,378.1875) rotate(0,0,0)"><path fill="none" stroke="none"/><text fill="" stroke="none" font-family="helvetica" font-size="8pt" font-style="normal" font-weight="normal" text-decoration="normal" x="0" y="0" text-anchor="start" dominant-baseline="text-after-edge">17.30%</text></g></g><g fill="#444444"><path fill="" stroke="none" d=""/><g transform="translate(316.3067456700091,331.22916666666663) rotate(0,0,0)"><path fill="none" stroke="none"/><text fill="" stroke="none" font-family="helvetica" font-size="8pt" font-style="normal" font-weight="normal" text-decoration="normal" x="0" y="0" text-anchor="start" dominant-baseline="text-after-edge">13.99%</text></g></g><g fill="#444444"><path fill="" stroke="none" d=""/><g transform="translate(311.57300212701307,284.27083333333326) rotate(0,0,0)"><path fill="none" stroke="none"/><text fill="" stroke="none" font-family="helvetica" font-size="8pt" font-style="normal" font-weight="normal" text-decoration="normal" x="0" y="0" text-anchor="start" dominant-baseline="text-after-edge">13.02%</text></g></g><g fill="#444444"><path fill="" stroke="none" d=""/><g transform="translate(305.1961409905804,237.3125) rotate(0,0,0)"><path fill="none" stroke="none"/><text fill="" stroke="none" font-family="helvetica" font-size="8pt" font-style="normal" font-weight="normal" text-decoration="normal" x="0" y="0" text-anchor="start" dominant-baseline="text-after-edge">11.72%</text></g></g><g fill="#444444"><path fill="" stroke="none" d=""/><g transform="translate(298.89752354907324,190.35416666666663) rotate(0,0,0)"><path fill="none" stroke="none"/><text fill="" stroke="none" font-family="helvetica" font-size="8pt" font-style="normal" font-weight="normal" text-decoration="normal" x="0" y="0" text-anchor="start" dominant-baseline="text-after-edge">10.43%</text></g></g><g fill="#444444"><path fill="" stroke="none" d=""/><g transform="translate(291.69910361592224,143.39583333333326) rotate(0,0,0)"><path fill="none" stroke="none"/><text fill="" stroke="none" font-family="helvetica" font-size="8pt" font-style="normal" font-weight="normal" text-decoration="normal" x="0" y="0" text-anchor="start" dominant-baseline="text-after-edge">8.95%</text></g></g><g fill="#444444"><path fill="" stroke="none" d=""/><g transform="translate(288.53023397143727,96.4375) rotate(0,0,0)"><path fill="none" stroke="none"/><text fill="" stroke="none" font-family="helvetica" font-size="8pt" font-style="normal" font-weight="normal" text-decoration="normal" x="0" y="0" text-anchor="start" dominant-baseline="text-after-edge">8.30%</text></g></g><g fill="#444444"><path fill="" stroke="none" d=""/><g transform="translate(251.4818444241872,49.479166666666515) rotate(0,0,0)"><path fill="none" stroke="none"/><text fill="" stroke="none" font-family="helvetica" font-size="8pt" font-style="normal" font-weight="normal" text-decoration="normal" x="0" y="0" text-anchor="start" dominant-baseline="text-after-edge">0.71%</text></g></g><g fill="#444444"><path fill="" stroke="none" d=""/><g transform="translate(589.3772409601945,1143.5208333333333) rotate(0,0,0)"><path fill="none" stroke="none"/><text fill="" stroke="none" font-family="helvetica" font-size="8pt" font-style="normal" font-weight="normal" text-decoration="normal" x="0" y="0" text-anchor="start" dominant-baseline="text-after-edge">8726</text></g></g><g fill="#444444"><path fill="" stroke="none" d=""/><g transform="translate(533.0417806137953,1096.5625) rotate(0,0,0)"><path fill="none" stroke="none"/><text fill="" stroke="none" font-family="helvetica" font-size="8pt" font-style="normal" font-weight="normal" text-decoration="normal" x="0" y="0" text-anchor="start" dominant-baseline="text-after-edge">7286</text></g></g><g fill="#444444"><path fill="" stroke="none" d=""/><g transform="translate(479.87518991188085,1049.6041666666667) rotate(0,0,0)"><path fill="none" stroke="none"/><text fill="" stroke="none" font-family="helvetica" font-size="8pt" font-style="normal" font-weight="normal" text-decoration="normal" x="0" y="0" text-anchor="start" dominant-baseline="text-after-edge">5927</text></g></g><g fill="#444444"><path fill="" stroke="none" d=""/><g transform="translate(460.82285019750833,1002.6458333333333) rotate(0,0,0)"><path fill="none" stroke="none"/><text fill="" stroke="none" font-family="helvetica" font-size="8pt" font-style="normal" font-weight="normal" text-decoration="normal" x="0" y="0" text-anchor="start" dominant-baseline="text-after-edge">5440</text></g></g><g fill="#444444"><path fill="" stroke="none" d=""/><g transform="translate(452.9593588574901,955.6875) rotate(0,0,0)"><path fill="none" stroke="none"/><text fill="" stroke="none" font-family="helvetica" font-size="8pt" font-style="normal" font-weight="normal" text-decoration="normal" x="0" y="0" text-anchor="start" dominant-baseline="text-after-edge">5239</text></g></g><g fill="#444444"><path fill="" stroke="none" d=""/><g transform="translate(451.00326648435123,908.7291666666666) rotate(0,0,0)"><path fill="none" stroke="none"/><text fill="" stroke="none" font-family="helvetica" font-size="8pt" font-style="normal" font-weight="normal" text-decoration="normal" x="0" y="0" text-anchor="start" dominant-baseline="text-after-edge">5189</text></g></g><g fill="#444444"><path fill="" stroke="none" d=""/><g transform="translate(440.7142206016408,861.7708333333333) rotate(0,0,0)"><path fill="none" stroke="none"/><text fill="" stroke="none" font-family="helvetica" font-size="8pt" font-style="normal" font-weight="normal" text-decoration="normal" x="0" y="0" text-anchor="start" dominant-baseline="text-after-edge">4926</text></g></g><g fill="#444444"><path fill="" stroke="none" d=""/><g transform="translate(436.91940139775147,814.8125) rotate(0,0,0)"><path fill="none" stroke="none"/><text fill="" stroke="none" font-family="helvetica" font-size="8pt" font-style="normal" font-weight="normal" text-decoration="normal" x="0" y="0" text-anchor="start" dominant-baseline="text-after-edge">4829</text></g></g><g fill="#444444"><path fill="" stroke="none" d=""/><g transform="translate(431.16848982072315,767.8541666666666) rotate(0,0,0)"><path fill="none" stroke="none"/><text fill="" stroke="none" font-family="helvetica" font-size="8pt" font-style="normal" font-weight="normal" text-decoration="normal" x="0" y="0" text-anchor="start" dominant-baseline="text-after-edge">4682</text></g></g><g fill="#444444"><path fill="" stroke="none" d=""/><g transform="translate(430.38605287146765,720.8958333333333) rotate(0,0,0)"><path fill="none" stroke="none"/><text fill="" stroke="none" font-family="helvetica" font-size="8pt" font-style="normal" font-weight="normal" text-decoration="normal" x="0" y="0" text-anchor="start" dominant-baseline="text-after-edge">4662</text></g></g><g fill="#444444"><path fill="" stroke="none" d=""/><g transform="translate(430.11219993922816,673.9375) rotate(0,0,0)"><path fill="none" stroke="none"/><text fill="" stroke="none" font-family="helvetica" font-size="8pt" font-style="normal" font-weight="normal" text-decoration="normal" x="0" y="0" text-anchor="start" dominant-baseline="text-after-edge">4655</text></g></g><g fill="#444444"><path fill="" stroke="none" d=""/><g transform="translate(387.35202066241266,626.9791666666666) rotate(0,0,0)"><path fill="none" stroke="none"/><text fill="" stroke="none" font-family="helvetica" font-size="8pt" font-style="normal" font-weight="normal" text-decoration="normal" x="0" y="0" text-anchor="start" dominant-baseline="text-after-edge">3562</text></g></g><g fill="#444444"><path fill="" stroke="none" d=""/><g transform="translate(378.15838650866,580.0208333333333) rotate(0,0,0)"><path fill="none" stroke="none"/><text fill="" stroke="none" font-family="helvetica" font-size="8pt" font-style="normal" font-weight="normal" text-decoration="normal" x="0" y="0" text-anchor="start" dominant-baseline="text-after-edge">3327</text></g></g><g fill="#444444"><path fill="" stroke="none" d=""/><g transform="translate(366.2262230325129,533.0625) rotate(0,0,0)"><path fill="none" stroke="none"/><text fill="" stroke="none" font-family="helvetica" font-size="8pt" font-style="normal" font-weight="normal" text-decoration="normal" x="0" y="0" text-anchor="start" dominant-baseline="text-after-edge">3022</text></g></g><g fill="#444444"><path fill="" stroke="none" d=""/><g transform="translate(355.5459586751747,486.10416666666663) rotate(0,0,0)"><path fill="none" stroke="none"/><text fill="" stroke="none" font-family="helvetica" font-size="8pt" font-style="normal" font-weight="normal" text-decoration="normal" x="0" y="0" text-anchor="start" dominant-baseline="text-after-edge">2749</text></g></g><g fill="#444444"><path fill="" stroke="none" d=""/><g transform="translate(335.9459130963233,439.14583333333326) rotate(0,0,0)"><path fill="none" stroke="none"/><text fill="" stroke="none" font-family="helvetica" font-size="8pt" font-style="normal" font-weight="normal" text-decoration="normal" x="0" y="0" text-anchor="start" dominant-baseline="text-after-edge">2248</text></g></g><g fill="#444444"><path fill="" stroke="none" d=""/><g transform="translate(332.4249468246733,392.1875) rotate(0,0,0)"><path fill="none" stroke="none"/><text fill="" stroke="none" font-family="helvetica" font-size="8pt" font-style="normal" font-weight="normal" text-decoration="normal" x="0" y="0" text-anchor="start" dominant-baseline="text-after-edge">2158</text></g></g><g fill="#444444"><path fill="" stroke="none" d=""/><g transform="translate(316.3067456700091,345.22916666666663) rotate(0,0,0)"><path fill="none" stroke="none"/><text fill="" stroke="none" font-family="helvetica" font-size="8pt" font-style="normal" font-weight="normal" text-decoration="normal" x="0" y="0" text-anchor="start" dominant-baseline="text-after-edge">1746</text></g></g><g fill="#444444"><path fill="" stroke="none" d=""/><g transform="translate(311.57300212701307,298.27083333333326) rotate(0,0,0)"><path fill="none" stroke="none"/><text fill="" stroke="none" font-family="helvetica" font-size="8pt" font-style="normal" font-weight="normal" text-decoration="normal" x="0" y="0" text-anchor="start" dominant-baseline="text-after-edge">1625</text></g></g><g fill="#444444"><path fill="" stroke="none" d=""/><g transform="translate(305.1961409905804,251.3125) rotate(0,0,0)"><path fill="none" stroke="none"/><text fill="" stroke="none" font-family="helvetica" font-size="8pt" font-style="normal" font-weight="normal" text-decoration="normal" x="0" y="0" text-anchor="start" dominant-baseline="text-after-edge">1462</text></g></g><g fill="#444444"><path fill="" stroke="none" d=""/><g transform="translate(298.89752354907324,204.35416666666663) rotate(0,0,0)"><path fill="none" stroke="none"/><text fill="" stroke="none" font-family="helvetica" font-size="8pt" font-style="normal" font-weight="normal" text-decoration="normal" x="0" y="0" text-anchor="start" dominant-baseline="text-after-edge">1301</text></g></g><g fill="#444444"><path fill="" stroke="none" d=""/><g transform="translate(291.69910361592224,157.39583333333326) rotate(0,0,0)"><path fill="none" stroke="none"/><text fill="" stroke="none" font-family="helvetica" font-size="8pt" font-style="normal" font-weight="normal" text-decoration="normal" x="0" y="0" text-anchor="start" dominant-baseline="text-after-edge">1117</text></g></g><g fill="#444444"><path fill="" stroke="none" d=""/><g transform="translate(288.53023397143727,110.4375) rotate(0,0,0)"><path fill="none" stroke="none"/><text fill="" stroke="none" font-family="helvetica" font-size="8pt" font-style="normal" font-weight="normal" text-decoration="normal" x="0" y="0" text-anchor="start" dominant-baseline="text-after-edge">1036</text></g></g><g fill="#444444"><path fill="" stroke="none" d=""/><g transform="translate(251.4818444241872,63.479166666666515) rotate(0,0,0)"><path fill="none" stroke="none"/><text fill="" stroke="none" font-family="helvetica" font-size="8pt" font-style="normal" font-weight="normal" text-decoration="normal" x="0" y="0" text-anchor="start" dominant-baseline="text-after-edge">89</text></g></g></g><g/><g><g fill="#444444"><path fill="none" stroke="black" paint-order="fill stroke markers" d=" M 238 1155 L 650 1155" stroke-miterlimit="10"/><path fill="none" stroke="black" paint-order="fill stroke markers" d=" M 238 1161 L 238 1153" stroke-miterlimit="10"/><path fill="none" stroke="black" paint-order="fill stroke markers" d=" M 316 1161 L 316 1153" stroke-miterlimit="10"/><path fill="none" stroke="black" paint-order="fill stroke markers" d=" M 394 1161 L 394 1153" stroke-miterlimit="10"/><path fill="none" stroke="black" paint-order="fill stroke markers" d=" M 473 1161 L 473 1153" stroke-miterlimit="10"/><path fill="none" stroke="black" paint-order="fill stroke markers" d=" M 551 1161 L 551 1153" stroke-miterlimit="10"/><path fill="none" stroke="black" paint-order="fill stroke markers" d=" M 629 1161 L 629 1153" stroke-miterlimit="10"/><path fill="none" stroke="black" paint-order="fill stroke markers" d=" M 238 1159 L 238 1155" stroke-miterlimit="10"/><path fill="none" stroke="black" paint-order="fill stroke markers" d=" M 254 1159 L 254 1155" stroke-miterlimit="10"/><path fill="none" stroke="black" paint-order="fill stroke markers" d=" M 269 1159 L 269 1155" stroke-miterlimit="10"/><path fill="none" stroke="black" paint-order="fill stroke markers" d=" M 285 1159 L 285 1155" stroke-miterlimit="10"/><path fill="none" stroke="black" paint-order="fill stroke markers" d=" M 301 1159 L 301 1155" stroke-miterlimit="10"/><path fill="none" stroke="black" paint-order="fill stroke markers" d=" M 316 1159 L 316 1155" stroke-miterlimit="10"/><path fill="none" stroke="black" paint-order="fill stroke markers" d=" M 332 1159 L 332 1155" stroke-miterlimit="10"/><path fill="none" stroke="black" paint-order="fill stroke markers" d=" M 348 1159 L 348 1155" stroke-miterlimit="10"/><path fill="none" stroke="black" paint-order="fill stroke markers" d=" M 363 1159 L 363 1155" stroke-miterlimit="10"/><path fill="none" stroke="black" paint-order="fill stroke markers" d=" M 379 1159 L 379 1155" stroke-miterlimit="10"/><path fill="none" stroke="black" paint-order="fill stroke markers" d=" M 394 1159 L 394 1155" stroke-miterlimit="10"/><path fill="none" stroke="black" paint-order="fill stroke markers" d=" M 410 1159 L 410 1155" stroke-miterlimit="10"/><path fill="none" stroke="black" paint-order="fill stroke markers" d=" M 426 1159 L 426 1155" stroke-miterlimit="10"/><path fill="none" stroke="black" paint-order="fill stroke markers" d=" M 441 1159 L 441 1155" stroke-miterlimit="10"/><path fill="none" stroke="black" paint-order="fill stroke markers" d=" M 457 1159 L 457 1155" stroke-miterlimit="10"/><path fill="none" stroke="black" paint-order="fill stroke markers" d=" M 473 1159 L 473 1155" stroke-miterlimit="10"/><path fill="none" stroke="black" paint-order="fill stroke markers" d=" M 488 1159 L 488 1155" stroke-miterlimit="10"/><path fill="none" stroke="black" paint-order="fill stroke markers" d=" M 504 1159 L 504 1155" stroke-miterlimit="10"/><path fill="none" stroke="black" paint-order="fill stroke markers" d=" M 520 1159 L 520 1155" stroke-miterlimit="10"/><path fill="none" stroke="black" paint-order="fill stroke markers" d=" M 535 1159 L 535 1155" stroke-miterlimit="10"/><path fill="none" stroke="black" paint-order="fill stroke markers" d=" M 551 1159 L 551 1155" stroke-miterlimit="10"/><path fill="none" stroke="black" paint-order="fill stroke markers" d=" M 567 1159 L 567 1155" stroke-miterlimit="10"/><path fill="none" stroke="black" paint-order="fill stroke markers" d=" M 582 1159 L 582 1155" stroke-miterlimit="10"/><path fill="none" stroke="black" paint-order="fill stroke markers" d=" M 598 1159 L 598 1155" stroke-miterlimit="10"/><path fill="none" stroke="black" paint-order="fill stroke markers" d=" M 614 1159 L 614 1155" stroke-miterlimit="10"/><path fill="none" stroke="black" paint-order="fill stroke markers" d=" M 629 1159 L 629 1155" stroke-miterlimit="10"/><path fill="" stroke="black" paint-order="fill stroke markers" d=" M 645 1159 L 645 1155" stroke-miterlimit="10"/><g transform="translate(238,1166) rotate(0,0,0)"><text fill="" stroke="none" font-family="helvetica" font-size="8pt" font-style="normal" font-weight="normal" text-decoration="normal" x="0" y="0" text-anchor="middle" dominant-baseline="hanging">0</text><g transform="rotate(0,0,0) translate(-238,-1166) translate(316,1166) rotate(0,0,0)"><text fill="" stroke="none" font-family="helvetica" font-size="8pt" font-style="normal" font-weight="normal" text-decoration="normal" x="0" y="0" text-anchor="middle" dominant-baseline="hanging">2000</text><g transform="rotate(0,0,0) translate(-316,-1166) translate(394,1166) rotate(0,0,0)"><text fill="" stroke="none" font-family="helvetica" font-size="8pt" font-style="normal" font-weight="normal" text-decoration="normal" x="0" y="0" text-anchor="middle" dominant-baseline="hanging">4000</text><g transform="rotate(0,0,0) translate(-394,-1166) translate(473,1166) rotate(0,0,0)"><text fill="" stroke="none" font-family="helvetica" font-size="8pt" font-style="normal" font-weight="normal" text-decoration="normal" x="0" y="0" text-anchor="middle" dominant-baseline="hanging">6000</text><g transform="rotate(0,0,0) translate(-473,-1166) translate(551,1166) rotate(0,0,0)"><text fill="" stroke="none" font-family="helvetica" font-size="8pt" font-style="normal" font-weight="normal" text-decoration="normal" x="0" y="0" text-anchor="middle" dominant-baseline="hanging">8000</text><g transform="rotate(0,0,0) translate(-551,-1166) translate(629,1166) rotate(0,0,0)"><text fill="" stroke="none" font-family="helvetica" font-size="8pt" font-style="normal" font-weight="normal" text-decoration="normal" x="0" y="0" text-anchor="middle" dominant-baseline="hanging">10000</text><g transform="rotate(0,0,0) translate(-629,-1166) translate(444,1184) rotate(0,0,0)"><text fill="" stroke="none" font-family="helvetica" font-size="10pt" font-style="italic" font-weight="normal" text-decoration="normal" x="0" y="0" text-anchor="middle" dominant-baseline="hanging">Respondents</text><g transform="rotate(0,0,0) translate(-444,-1184)"/></g></g></g></g></g></g></g></g><g fill="#444444"><path fill="none" stroke="black" paint-order="fill stroke markers" d=" M 238 1155 L 238 28" stroke-miterlimit="10"/><path fill="none" stroke="black" paint-order="fill stroke markers" d=" M 232 1132 L 240 1132" stroke-miterlimit="10"/><path fill="none" stroke="black" paint-order="fill stroke markers" d=" M 232 1085 L 240 1085" stroke-miterlimit="10"/><path fill="none" stroke="black" paint-order="fill stroke markers" d=" M 232 1038 L 240 1038" stroke-miterlimit="10"/><path fill="none" stroke="black" paint-order="fill stroke markers" d=" M 232 991 L 240 991" stroke-miterlimit="10"/><path fill="none" stroke="black" paint-order="fill stroke markers" d=" M 232 944 L 240 944" stroke-miterlimit="10"/><path fill="none" stroke="black" paint-order="fill stroke markers" d=" M 232 897 L 240 897" stroke-miterlimit="10"/><path fill="none" stroke="black" paint-order="fill stroke markers" d=" M 232 850 L 240 850" stroke-miterlimit="10"/><path fill="none" stroke="black" paint-order="fill stroke markers" d=" M 232 803 L 240 803" stroke-miterlimit="10"/><path fill="none" stroke="black" paint-order="fill stroke markers" d=" M 232 756 L 240 756" stroke-miterlimit="10"/><path fill="none" stroke="black" paint-order="fill stroke markers" d=" M 232 709 L 240 709" stroke-miterlimit="10"/><path fill="none" stroke="black" paint-order="fill stroke markers" d=" M 232 662 L 240 662" stroke-miterlimit="10"/><path fill="none" stroke="black" paint-order="fill stroke markers" d=" M 232 615 L 240 615" stroke-miterlimit="10"/><path fill="none" stroke="black" paint-order="fill stroke markers" d=" M 232 568 L 240 568" stroke-miterlimit="10"/><path fill="none" stroke="black" paint-order="fill stroke markers" d=" M 232 521 L 240 521" stroke-miterlimit="10"/><path fill="none" stroke="black" paint-order="fill stroke markers" d=" M 232 474 L 240 474" stroke-miterlimit="10"/><path fill="none" stroke="black" paint-order="fill stroke markers" d=" M 232 427 L 240 427" stroke-miterlimit="10"/><path fill="none" stroke="black" paint-order="fill stroke markers" d=" M 232 380 L 240 380" stroke-miterlimit="10"/><path fill="none" stroke="black" paint-order="fill stroke markers" d=" M 232 333 L 240 333" stroke-miterlimit="10"/><path fill="none" stroke="black" paint-order="fill stroke markers" d=" M 232 286 L 240 286" stroke-miterlimit="10"/><path fill="none" stroke="black" paint-order="fill stroke markers" d=" M 232 239 L 240 239" stroke-miterlimit="10"/><path fill="none" stroke="black" paint-order="fill stroke markers" d=" M 232 192 L 240 192" stroke-miterlimit="10"/><path fill="none" stroke="black" paint-order="fill stroke markers" d=" M 232 145 L 240 145" stroke-miterlimit="10"/><path fill="none" stroke="black" paint-order="fill stroke markers" d=" M 232 98 L 240 98" stroke-miterlimit="10"/><path fill="" stroke="black" paint-order="fill stroke markers" d=" M 232 51 L 240 51" stroke-miterlimit="10"/><g transform="translate(227,1132) rotate(0,0,0)"><text fill="" stroke="none" font-family="helvetica" font-size="8pt" font-style="normal" font-weight="normal" text-decoration="normal" x="0" y="0" text-anchor="end" dominant-baseline="central">Adaptability to tech and social change</text><g transform="rotate(0,0,0) translate(-227,-1132) translate(227,1085) rotate(0,0,0)"><text fill="" stroke="none" font-family="helvetica" font-size="8pt" font-style="normal" font-weight="normal" text-decoration="normal" x="0" y="0" text-anchor="end" dominant-baseline="central">Communication skills</text><g transform="rotate(0,0,0) translate(-227,-1085) translate(227,1038) rotate(0,0,0)"><text fill="" stroke="none" font-family="helvetica" font-size="8pt" font-style="normal" font-weight="normal" text-decoration="normal" x="0" y="0" text-anchor="end" dominant-baseline="central">Empathy</text><g transform="rotate(0,0,0) translate(-227,-1038) translate(227,991) rotate(0,0,0)"><text fill="" stroke="none" font-family="helvetica" font-size="8pt" font-style="normal" font-weight="normal" text-decoration="normal" x="0" y="0" text-anchor="end" dominant-baseline="central">Asking good questions</text><g transform="rotate(0,0,0) translate(-227,-991) translate(227,944) rotate(0,0,0)"><text fill="" stroke="none" font-family="helvetica" font-size="8pt" font-style="normal" font-weight="normal" text-decoration="normal" x="0" y="0" text-anchor="end" dominant-baseline="central">Cross-functional skills</text><g transform="rotate(0,0,0) translate(-227,-944) translate(227,897) rotate(0,0,0)"><text fill="" stroke="none" font-family="helvetica" font-size="8pt" font-style="normal" font-weight="normal" text-decoration="normal" x="0" y="0" text-anchor="end" dominant-baseline="central">Storytelling</text><g transform="rotate(0,0,0) translate(-227,-897) translate(227,850) rotate(0,0,0)"><text fill="" stroke="none" font-family="helvetica" font-size="8pt" font-style="normal" font-weight="normal" text-decoration="normal" x="0" y="0" text-anchor="end" dominant-baseline="central">Cross-cultural skills</text><g transform="rotate(0,0,0) translate(-227,-850) translate(227,803) rotate(0,0,0)"><text fill="" stroke="none" font-family="helvetica" font-size="8pt" font-style="normal" font-weight="normal" text-decoration="normal" x="0" y="0" text-anchor="end" dominant-baseline="central">Observation and listening</text><g transform="rotate(0,0,0) translate(-227,-803) translate(227,756) rotate(0,0,0)"><text fill="" stroke="none" font-family="helvetica" font-size="8pt" font-style="normal" font-weight="normal" text-decoration="normal" x="0" y="0" text-anchor="end" dominant-baseline="central">Psychology and human behavior</text><g transform="rotate(0,0,0) translate(-227,-756) translate(227,709) rotate(0,0,0)"><text fill="" stroke="none" font-family="helvetica" font-size="8pt" font-style="normal" font-weight="normal" text-decoration="normal" x="0" y="0" text-anchor="end" dominant-baseline="central">Interpersonal skills</text><g transform="rotate(0,0,0) translate(-227,-709) translate(227,662) rotate(0,0,0)"><text fill="" stroke="none" font-family="helvetica" font-size="8pt" font-style="normal" font-weight="normal" text-decoration="normal" x="0" y="0" text-anchor="end" dominant-baseline="central">Managing complexity</text><g transform="rotate(0,0,0) translate(-227,-662) translate(227,615) rotate(0,0,0)"><text fill="" stroke="none" font-family="helvetica" font-size="8pt" font-style="normal" font-weight="normal" text-decoration="normal" x="0" y="0" text-anchor="end" dominant-baseline="central">Leadership</text><g transform="rotate(0,0,0) translate(-227,-615) translate(227,568) rotate(0,0,0)"><text fill="" stroke="none" font-family="helvetica" font-size="8pt" font-style="normal" font-weight="normal" text-decoration="normal" x="0" y="0" text-anchor="end" dominant-baseline="central">Systems thinking</text><g transform="rotate(0,0,0) translate(-227,-568) translate(227,521) rotate(0,0,0)"><text fill="" stroke="none" font-family="helvetica" font-size="8pt" font-style="normal" font-weight="normal" text-decoration="normal" x="0" y="0" text-anchor="end" dominant-baseline="central">Improvisation</text><g transform="rotate(0,0,0) translate(-227,-521) translate(227,474) rotate(0,0,0)"><text fill="" stroke="none" font-family="helvetica" font-size="8pt" font-style="normal" font-weight="normal" text-decoration="normal" x="0" y="0" text-anchor="end" dominant-baseline="central">Play</text><g transform="rotate(0,0,0) translate(-227,-474) translate(227,427) rotate(0,0,0)"><text fill="" stroke="none" font-family="helvetica" font-size="8pt" font-style="normal" font-weight="normal" text-decoration="normal" x="0" y="0" text-anchor="end" dominant-baseline="central">DIY or maker mentality</text><g transform="rotate(0,0,0) translate(-227,-427) translate(227,380) rotate(0,0,0)"><text fill="" stroke="none" font-family="helvetica" font-size="8pt" font-style="normal" font-weight="normal" text-decoration="normal" x="0" y="0" text-anchor="end" dominant-baseline="central">Data analysis</text><g transform="rotate(0,0,0) translate(-227,-380) translate(227,333) rotate(0,0,0)"><text fill="" stroke="none" font-family="helvetica" font-size="8pt" font-style="normal" font-weight="normal" text-decoration="normal" x="0" y="0" text-anchor="end" dominant-baseline="central">Algorithm and data model design</text><g transform="rotate(0,0,0) translate(-227,-333) translate(227,286) rotate(0,0,0)"><text fill="" stroke="none" font-family="helvetica" font-size="8pt" font-style="normal" font-weight="normal" text-decoration="normal" x="0" y="0" text-anchor="end" dominant-baseline="central">Risk tolerance</text><g transform="rotate(0,0,0) translate(-227,-286) translate(227,239) rotate(0,0,0)"><text fill="" stroke="none" font-family="helvetica" font-size="8pt" font-style="normal" font-weight="normal" text-decoration="normal" x="0" y="0" text-anchor="end" dominant-baseline="central">Facilitation</text><g transform="rotate(0,0,0) translate(-227,-239) translate(227,192) rotate(0,0,0)"><text fill="" stroke="none" font-family="helvetica" font-size="8pt" font-style="normal" font-weight="normal" text-decoration="normal" x="0" y="0" text-anchor="end" dominant-baseline="central">Voice interface design</text><g transform="rotate(0,0,0) translate(-227,-192) translate(227,145) rotate(0,0,0)"><text fill="" stroke="none" font-family="helvetica" font-size="8pt" font-style="normal" font-weight="normal" text-decoration="normal" x="0" y="0" text-anchor="end" dominant-baseline="central">Architecture and environmental design</text><g transform="rotate(0,0,0) translate(-227,-145) translate(227,98) rotate(0,0,0)"><text fill="" stroke="none" font-family="helvetica" font-size="8pt" font-style="normal" font-weight="normal" text-decoration="normal" x="0" y="0" text-anchor="end" dominant-baseline="central">Scientific methods</text><g transform="rotate(0,0,0) translate(-227,-98) translate(227,51) rotate(0,0,0)"><text fill="" stroke="none" font-family="helvetica" font-size="8pt" font-style="normal" font-weight="normal" text-decoration="normal" x="0" y="0" text-anchor="end" dominant-baseline="central">None of these</text><g transform="rotate(0,0,0) translate(-227,-51) translate(16,592) rotate(-90,0,0)"><text fill="" stroke="none" font-family="helvetica" font-size="10pt" font-style="italic" font-weight="normal" text-decoration="normal" x="0" y="0" text-anchor="middle" dominant-baseline="alphabetic">Categories</text><g transform="rotate(90,0,0) translate(-16,-592)"/></g></g></g></g></g></g></g></g></g></g></g></g></g></g></g></g></g></g></g></g></g></g></g></g></g></g><g fill="#444444"><path fill="" stroke="none" d=""/><g transform="translate(238,23)"><path fill="none" stroke="none"/><text fill="" stroke="none" font-family="helvetica" font-size="10pt" font-style="normal" font-weight="bold" text-decoration="normal" x="0" y="0" text-anchor="start" dominant-baseline="text-after-edge">All: The most valuable design skills for the future will be (answer optional):</text></g></g></g></g></g></svg>