<svg version="1.1" xmlns="http://www.w3.org/2000/svg" xmlns:xlink="http://www.w3.org/1999/xlink" width="700" height="750" style="width: 700px; height: 750px;"><defs/><g><g transform="scale(1,1) translate(0.5,0.5)"><rect fill="#FFFFFF" stroke="none" x="0" y="0" width="700" height="750"/><rect fill="#ffffff" stroke="none" x="0" y="0" width="700" height="750"/><rect fill="#FFFFFF" stroke="none" x="252" y="28" width="398" height="677"/><rect fill="#ffffff" stroke="none" x="252" y="28" width="398" height="677"/><g><rect fill="none" stroke="#e5e5e5" x="252" y="28" width="398" height="677" stroke-miterlimit="10"/></g><g><g><path fill="none" stroke="#e5e5e5" paint-order="fill stroke markers" d=" M 309 705 L 309 28" stroke-miterlimit="10"/><path fill="none" stroke="#e5e5e5" paint-order="fill stroke markers" d=" M 365 705 L 365 28" stroke-miterlimit="10"/><path fill="none" stroke="#e5e5e5" paint-order="fill stroke markers" d=" M 422 705 L 422 28" stroke-miterlimit="10"/><path fill="none" stroke="#e5e5e5" paint-order="fill stroke markers" d=" M 479 705 L 479 28" stroke-miterlimit="10"/><path fill="none" stroke="#e5e5e5" paint-order="fill stroke markers" d=" M 535 705 L 535 28" stroke-miterlimit="10"/><path fill="none" stroke="#e5e5e5" paint-order="fill stroke markers" d=" M 592 705 L 592 28" stroke-miterlimit="10"/><path fill="none" stroke="#e5e5e5" paint-order="fill stroke markers" d=" M 649 705 L 649 28" stroke-miterlimit="10"/></g><g><path fill="none" stroke="#e5e5e5" paint-order="fill stroke markers" d=" M 252 682 L 650 682" stroke-miterlimit="10"/><path fill="none" stroke="#e5e5e5" paint-order="fill stroke markers" d=" M 252 637 L 650 637" stroke-miterlimit="10"/><path fill="none" stroke="#e5e5e5" paint-order="fill stroke markers" d=" M 252 592 L 650 592" stroke-miterlimit="10"/><path fill="none" stroke="#e5e5e5" paint-order="fill stroke markers" d=" M 252 547 L 650 547" stroke-miterlimit="10"/><path fill="none" stroke="#e5e5e5" paint-order="fill stroke markers" d=" M 252 502 L 650 502" stroke-miterlimit="10"/><path fill="none" stroke="#e5e5e5" paint-order="fill stroke markers" d=" M 252 457 L 650 457" stroke-miterlimit="10"/><path fill="none" stroke="#e5e5e5" paint-order="fill stroke markers" d=" M 252 412 L 650 412" stroke-miterlimit="10"/><path fill="none" stroke="#e5e5e5" paint-order="fill stroke markers" d=" M 252 367 L 650 367" stroke-miterlimit="10"/><path fill="none" stroke="#e5e5e5" paint-order="fill stroke markers" d=" M 252 321 L 650 321" stroke-miterlimit="10"/><path fill="none" stroke="#e5e5e5" paint-order="fill stroke markers" d=" M 252 276 L 650 276" stroke-miterlimit="10"/><path fill="none" stroke="#e5e5e5" paint-order="fill stroke markers" d=" M 252 231 L 650 231" stroke-miterlimit="10"/><path fill="none" stroke="#e5e5e5" paint-order="fill stroke markers" d=" M 252 186 L 650 186" stroke-miterlimit="10"/><path fill="none" stroke="#e5e5e5" paint-order="fill stroke markers" d=" M 252 141 L 650 141" stroke-miterlimit="10"/><path fill="none" stroke="#e5e5e5" paint-order="fill stroke markers" d=" M 252 96 L 650 96" stroke-miterlimit="10"/><path fill="none" stroke="#e5e5e5" paint-order="fill stroke markers" d=" M 252 51 L 650 51" stroke-miterlimit="10"/></g><g><path fill="none" stroke="none"/><rect fill="#1f77b4" stroke="none" x="252" y="665.5083333333332" width="328.83336180875904" height="33.850000000000136"/><path fill="none" stroke="#1f77b4" paint-order="fill stroke markers" d=" M 252 665.5083333333332 L 580.833361808759 665.5083333333332 L 580.833361808759 699.3583333333333 L 252 699.3583333333333 L 252 665.5083333333332 Z" stroke-miterlimit="10"/><rect fill="#1f77b4" stroke="none" x="252" y="620.375" width="300.3869810353665" height="33.84999999999991"/><path fill="none" stroke="#1f77b4" paint-order="fill stroke markers" d=" M 252 620.375 L 552.3869810353665 620.375 L 552.3869810353665 654.2249999999999 L 252 654.2249999999999 L 252 620.375 Z" stroke-miterlimit="10"/><rect fill="#1f77b4" stroke="none" x="252" y="575.2416666666666" width="274.66057292556525" height="33.850000000000136"/><path fill="none" stroke="#1f77b4" paint-order="fill stroke markers" d=" M 252 575.2416666666666 L 526.6605729255652 575.2416666666666 L 526.6605729255652 609.0916666666667 L 252 609.0916666666667 L 252 575.2416666666666 Z" stroke-miterlimit="10"/><rect fill="#1f77b4" stroke="none" x="252" y="530.1083333333333" width="244.62754143174436" height="33.84999999999991"/><path fill="none" stroke="#1f77b4" paint-order="fill stroke markers" d=" M 252 530.1083333333333 L 496.62754143174436 530.1083333333333 L 496.62754143174436 563.9583333333333 L 252 563.9583333333333 L 252 530.1083333333333 Z" stroke-miterlimit="10"/><rect fill="#1f77b4" stroke="none" x="252" y="484.97499999999997" width="211.1945441084344" height="33.85000000000008"/><path fill="none" stroke="#1f77b4" paint-order="fill stroke markers" d=" M 252 484.97499999999997 L 463.1945441084344 484.97499999999997 L 463.1945441084344 518.825 L 252 518.825 L 252 484.97499999999997 Z" stroke-miterlimit="10"/><rect fill="#1f77b4" stroke="none" x="252" y="439.8416666666667" width="203.3746227006094" height="33.84999999999991"/><path fill="none" stroke="#1f77b4" paint-order="fill stroke markers" d=" M 252 439.8416666666667 L 455.3746227006094 439.8416666666667 L 455.3746227006094 473.6916666666666 L 252 473.6916666666666 L 252 439.8416666666667 Z" stroke-miterlimit="10"/><rect fill="#1f77b4" stroke="none" x="252" y="394.7083333333333" width="190.2847542570761" height="33.85000000000002"/><path fill="none" stroke="#1f77b4" paint-order="fill stroke markers" d=" M 252 394.7083333333333 L 442.2847542570761 394.7083333333333 L 442.2847542570761 428.55833333333334 L 252 428.55833333333334 L 252 394.7083333333333 Z" stroke-miterlimit="10"/><rect fill="#1f77b4" stroke="none" x="252" y="349.575" width="111.12221652713708" height="33.85000000000002"/><path fill="none" stroke="#1f77b4" paint-order="fill stroke markers" d=" M 252 349.575 L 363.1222165271371 349.575 L 363.1222165271371 383.425 L 252 383.425 L 252 349.575 Z" stroke-miterlimit="10"/><rect fill="#1f77b4" stroke="none" x="252" y="304.44166666666666" width="103.4722934107865" height="33.85000000000002"/><path fill="none" stroke="#1f77b4" paint-order="fill stroke markers" d=" M 252 304.44166666666666 L 355.4722934107865 304.44166666666666 L 355.4722934107865 338.2916666666667 L 252 338.2916666666667 L 252 304.44166666666666 Z" stroke-miterlimit="10"/><rect fill="#1f77b4" stroke="none" x="252" y="259.30833333333334" width="97.74901759781307" height="33.85000000000002"/><path fill="none" stroke="#1f77b4" paint-order="fill stroke markers" d=" M 252 259.30833333333334 L 349.74901759781307 259.30833333333334 L 349.74901759781307 293.15833333333336 L 252 293.15833333333336 L 252 259.30833333333334 Z" stroke-miterlimit="10"/><rect fill="#1f77b4" stroke="none" x="252" y="214.17500000000004" width="83.63915940543313" height="33.849999999999966"/><path fill="none" stroke="#1f77b4" paint-order="fill stroke markers" d=" M 252 214.17500000000004 L 335.63915940543313 214.17500000000004 L 335.63915940543313 248.025 L 252 248.025 L 252 214.17500000000004 Z" stroke-miterlimit="10"/><rect fill="#1f77b4" stroke="none" x="252" y="169.04166666666669" width="78.53921066119938" height="33.85000000000002"/><path fill="none" stroke="#1f77b4" paint-order="fill stroke markers" d=" M 252 169.04166666666669 L 330.5392106611994 169.04166666666669 L 330.5392106611994 202.8916666666667 L 252 202.8916666666667 L 252 169.04166666666669 Z" stroke-miterlimit="10"/><rect fill="#1f77b4" stroke="none" x="252" y="123.90833333333336" width="76.4992311635059" height="33.85000000000002"/><path fill="none" stroke="#1f77b4" paint-order="fill stroke markers" d=" M 252 123.90833333333336 L 328.4992311635059 123.90833333333336 L 328.4992311635059 157.75833333333338 L 252 157.75833333333338 L 252 123.90833333333336 Z" stroke-miterlimit="10"/><rect fill="#1f77b4" stroke="none" x="252" y="78.77500000000003" width="65.84600489777324" height="33.85000000000002"/><path fill="none" stroke="#1f77b4" paint-order="fill stroke markers" d=" M 252 78.77500000000003 L 317.84600489777324 78.77500000000003 L 317.84600489777324 112.62500000000006 L 252 112.62500000000006 L 252 78.77500000000003 Z" stroke-miterlimit="10"/><rect fill="#1f77b4" stroke="none" x="252" y="33.64166666666671" width="34.9629819465801" height="33.85000000000002"/><path fill="none" stroke="#1f77b4" paint-order="fill stroke markers" d=" M 252 33.64166666666671 L 286.9629819465801 33.64166666666671 L 286.9629819465801 67.49166666666673 L 252 67.49166666666673 L 252 33.64166666666671 Z" stroke-miterlimit="10"/></g><g fill="#444444"><path fill="" stroke="none" d=""/><g transform="translate(590.833361808759,680.4333333333333) rotate(0,0,0)"><path fill="none" stroke="none"/><text fill="" stroke="none" font-family="helvetica" font-size="8pt" font-style="normal" font-weight="normal" text-decoration="normal" x="0" y="0" text-anchor="start" dominant-baseline="text-after-edge">46.51%</text></g></g><g fill="#444444"><path fill="" stroke="none" d=""/><g transform="translate(562.3869810353665,635.3) rotate(0,0,0)"><path fill="none" stroke="none"/><text fill="" stroke="none" font-family="helvetica" font-size="8pt" font-style="normal" font-weight="normal" text-decoration="normal" x="0" y="0" text-anchor="start" dominant-baseline="text-after-edge">42.49%</text></g></g><g fill="#444444"><path fill="" stroke="none" d=""/><g transform="translate(536.6605729255652,590.1666666666666) rotate(0,0,0)"><path fill="none" stroke="none"/><text fill="" stroke="none" font-family="helvetica" font-size="8pt" font-style="normal" font-weight="normal" text-decoration="normal" x="0" y="0" text-anchor="start" dominant-baseline="text-after-edge">38.85%</text></g></g><g fill="#444444"><path fill="" stroke="none" d=""/><g transform="translate(506.62754143174436,545.0333333333333) rotate(0,0,0)"><path fill="none" stroke="none"/><text fill="" stroke="none" font-family="helvetica" font-size="8pt" font-style="normal" font-weight="normal" text-decoration="normal" x="0" y="0" text-anchor="start" dominant-baseline="text-after-edge">34.60%</text></g></g><g fill="#444444"><path fill="" stroke="none" d=""/><g transform="translate(473.1945441084344,499.9) rotate(0,0,0)"><path fill="none" stroke="none"/><text fill="" stroke="none" font-family="helvetica" font-size="8pt" font-style="normal" font-weight="normal" text-decoration="normal" x="0" y="0" text-anchor="start" dominant-baseline="text-after-edge">29.87%</text></g></g><g fill="#444444"><path fill="" stroke="none" d=""/><g transform="translate(465.3746227006094,454.76666666666665) rotate(0,0,0)"><path fill="none" stroke="none"/><text fill="" stroke="none" font-family="helvetica" font-size="8pt" font-style="normal" font-weight="normal" text-decoration="normal" x="0" y="0" text-anchor="start" dominant-baseline="text-after-edge">28.76%</text></g></g><g fill="#444444"><path fill="" stroke="none" d=""/><g transform="translate(452.2847542570761,409.6333333333333) rotate(0,0,0)"><path fill="none" stroke="none"/><text fill="" stroke="none" font-family="helvetica" font-size="8pt" font-style="normal" font-weight="normal" text-decoration="normal" x="0" y="0" text-anchor="start" dominant-baseline="text-after-edge">26.91%</text></g></g><g fill="#444444"><path fill="" stroke="none" d=""/><g transform="translate(373.1222165271371,364.5) rotate(0,0,0)"><path fill="none" stroke="none"/><text fill="" stroke="none" font-family="helvetica" font-size="8pt" font-style="normal" font-weight="normal" text-decoration="normal" x="0" y="0" text-anchor="start" dominant-baseline="text-after-edge">15.72%</text></g></g><g fill="#444444"><path fill="" stroke="none" d=""/><g transform="translate(365.4722934107865,319.3666666666667) rotate(0,0,0)"><path fill="none" stroke="none"/><text fill="" stroke="none" font-family="helvetica" font-size="8pt" font-style="normal" font-weight="normal" text-decoration="normal" x="0" y="0" text-anchor="start" dominant-baseline="text-after-edge">14.63%</text></g></g><g fill="#444444"><path fill="" stroke="none" d=""/><g transform="translate(359.74901759781307,274.23333333333335) rotate(0,0,0)"><path fill="none" stroke="none"/><text fill="" stroke="none" font-family="helvetica" font-size="8pt" font-style="normal" font-weight="normal" text-decoration="normal" x="0" y="0" text-anchor="start" dominant-baseline="text-after-edge">13.83%</text></g></g><g fill="#444444"><path fill="" stroke="none" d=""/><g transform="translate(345.63915940543313,229.10000000000002) rotate(0,0,0)"><path fill="none" stroke="none"/><text fill="" stroke="none" font-family="helvetica" font-size="8pt" font-style="normal" font-weight="normal" text-decoration="normal" x="0" y="0" text-anchor="start" dominant-baseline="text-after-edge">11.83%</text></g></g><g fill="#444444"><path fill="" stroke="none" d=""/><g transform="translate(340.5392106611994,183.9666666666667) rotate(0,0,0)"><path fill="none" stroke="none"/><text fill="" stroke="none" font-family="helvetica" font-size="8pt" font-style="normal" font-weight="normal" text-decoration="normal" x="0" y="0" text-anchor="start" dominant-baseline="text-after-edge">11.11%</text></g></g><g fill="#444444"><path fill="" stroke="none" d=""/><g transform="translate(338.4992311635059,138.83333333333337) rotate(0,0,0)"><path fill="none" stroke="none"/><text fill="" stroke="none" font-family="helvetica" font-size="8pt" font-style="normal" font-weight="normal" text-decoration="normal" x="0" y="0" text-anchor="start" dominant-baseline="text-after-edge">10.82%</text></g></g><g fill="#444444"><path fill="" stroke="none" d=""/><g transform="translate(327.84600489777324,93.70000000000005) rotate(0,0,0)"><path fill="none" stroke="none"/><text fill="" stroke="none" font-family="helvetica" font-size="8pt" font-style="normal" font-weight="normal" text-decoration="normal" x="0" y="0" text-anchor="start" dominant-baseline="text-after-edge">9.31%</text></g></g><g fill="#444444"><path fill="" stroke="none" d=""/><g transform="translate(296.9629819465801,48.56666666666672) rotate(0,0,0)"><path fill="none" stroke="none"/><text fill="" stroke="none" font-family="helvetica" font-size="8pt" font-style="normal" font-weight="normal" text-decoration="normal" x="0" y="0" text-anchor="start" dominant-baseline="text-after-edge">4.95%</text></g></g><g fill="#444444"><path fill="" stroke="none" d=""/><g transform="translate(590.833361808759,694.4333333333333) rotate(0,0,0)"><path fill="none" stroke="none"/><text fill="" stroke="none" font-family="helvetica" font-size="8pt" font-style="normal" font-weight="normal" text-decoration="normal" x="0" y="0" text-anchor="start" dominant-baseline="text-after-edge">5803</text></g></g><g fill="#444444"><path fill="" stroke="none" d=""/><g transform="translate(562.3869810353665,649.3) rotate(0,0,0)"><path fill="none" stroke="none"/><text fill="" stroke="none" font-family="helvetica" font-size="8pt" font-style="normal" font-weight="normal" text-decoration="normal" x="0" y="0" text-anchor="start" dominant-baseline="text-after-edge">5301</text></g></g><g fill="#444444"><path fill="" stroke="none" d=""/><g transform="translate(536.6605729255652,604.1666666666666) rotate(0,0,0)"><path fill="none" stroke="none"/><text fill="" stroke="none" font-family="helvetica" font-size="8pt" font-style="normal" font-weight="normal" text-decoration="normal" x="0" y="0" text-anchor="start" dominant-baseline="text-after-edge">4847</text></g></g><g fill="#444444"><path fill="" stroke="none" d=""/><g transform="translate(506.62754143174436,559.0333333333333) rotate(0,0,0)"><path fill="none" stroke="none"/><text fill="" stroke="none" font-family="helvetica" font-size="8pt" font-style="normal" font-weight="normal" text-decoration="normal" x="0" y="0" text-anchor="start" dominant-baseline="text-after-edge">4317</text></g></g><g fill="#444444"><path fill="" stroke="none" d=""/><g transform="translate(473.1945441084344,513.9) rotate(0,0,0)"><path fill="none" stroke="none"/><text fill="" stroke="none" font-family="helvetica" font-size="8pt" font-style="normal" font-weight="normal" text-decoration="normal" x="0" y="0" text-anchor="start" dominant-baseline="text-after-edge">3727</text></g></g><g fill="#444444"><path fill="" stroke="none" d=""/><g transform="translate(465.3746227006094,468.76666666666665) rotate(0,0,0)"><path fill="none" stroke="none"/><text fill="" stroke="none" font-family="helvetica" font-size="8pt" font-style="normal" font-weight="normal" text-decoration="normal" x="0" y="0" text-anchor="start" dominant-baseline="text-after-edge">3589</text></g></g><g fill="#444444"><path fill="" stroke="none" d=""/><g transform="translate(452.2847542570761,423.6333333333333) rotate(0,0,0)"><path fill="none" stroke="none"/><text fill="" stroke="none" font-family="helvetica" font-size="8pt" font-style="normal" font-weight="normal" text-decoration="normal" x="0" y="0" text-anchor="start" dominant-baseline="text-after-edge">3358</text></g></g><g fill="#444444"><path fill="" stroke="none" d=""/><g transform="translate(373.1222165271371,378.5) rotate(0,0,0)"><path fill="none" stroke="none"/><text fill="" stroke="none" font-family="helvetica" font-size="8pt" font-style="normal" font-weight="normal" text-decoration="normal" x="0" y="0" text-anchor="start" dominant-baseline="text-after-edge">1961</text></g></g><g fill="#444444"><path fill="" stroke="none" d=""/><g transform="translate(365.4722934107865,333.3666666666667) rotate(0,0,0)"><path fill="none" stroke="none"/><text fill="" stroke="none" font-family="helvetica" font-size="8pt" font-style="normal" font-weight="normal" text-decoration="normal" x="0" y="0" text-anchor="start" dominant-baseline="text-after-edge">1826</text></g></g><g fill="#444444"><path fill="" stroke="none" d=""/><g transform="translate(359.74901759781307,288.23333333333335) rotate(0,0,0)"><path fill="none" stroke="none"/><text fill="" stroke="none" font-family="helvetica" font-size="8pt" font-style="normal" font-weight="normal" text-decoration="normal" x="0" y="0" text-anchor="start" dominant-baseline="text-after-edge">1725</text></g></g><g fill="#444444"><path fill="" stroke="none" d=""/><g transform="translate(345.63915940543313,243.10000000000002) rotate(0,0,0)"><path fill="none" stroke="none"/><text fill="" stroke="none" font-family="helvetica" font-size="8pt" font-style="normal" font-weight="normal" text-decoration="normal" x="0" y="0" text-anchor="start" dominant-baseline="text-after-edge">1476</text></g></g><g fill="#444444"><path fill="" stroke="none" d=""/><g transform="translate(340.5392106611994,197.9666666666667) rotate(0,0,0)"><path fill="none" stroke="none"/><text fill="" stroke="none" font-family="helvetica" font-size="8pt" font-style="normal" font-weight="normal" text-decoration="normal" x="0" y="0" text-anchor="start" dominant-baseline="text-after-edge">1386</text></g></g><g fill="#444444"><path fill="" stroke="none" d=""/><g transform="translate(338.4992311635059,152.83333333333337) rotate(0,0,0)"><path fill="none" stroke="none"/><text fill="" stroke="none" font-family="helvetica" font-size="8pt" font-style="normal" font-weight="normal" text-decoration="normal" x="0" y="0" text-anchor="start" dominant-baseline="text-after-edge">1350</text></g></g><g fill="#444444"><path fill="" stroke="none" d=""/><g transform="translate(327.84600489777324,107.70000000000005) rotate(0,0,0)"><path fill="none" stroke="none"/><text fill="" stroke="none" font-family="helvetica" font-size="8pt" font-style="normal" font-weight="normal" text-decoration="normal" x="0" y="0" text-anchor="start" dominant-baseline="text-after-edge">1162</text></g></g><g fill="#444444"><path fill="" stroke="none" d=""/><g transform="translate(296.9629819465801,62.56666666666672) rotate(0,0,0)"><path fill="none" stroke="none"/><text fill="" stroke="none" font-family="helvetica" font-size="8pt" font-style="normal" font-weight="normal" text-decoration="normal" x="0" y="0" text-anchor="start" dominant-baseline="text-after-edge">617</text></g></g></g><g/><g><g fill="#444444"><path fill="none" stroke="black" paint-order="fill stroke markers" d=" M 252 705 L 650 705" stroke-miterlimit="10"/><path fill="none" stroke="black" paint-order="fill stroke markers" d=" M 252 711 L 252 703" stroke-miterlimit="10"/><path fill="none" stroke="black" paint-order="fill stroke markers" d=" M 309 711 L 309 703" stroke-miterlimit="10"/><path fill="none" stroke="black" paint-order="fill stroke markers" d=" M 365 711 L 365 703" stroke-miterlimit="10"/><path fill="none" stroke="black" paint-order="fill stroke markers" d=" M 422 711 L 422 703" stroke-miterlimit="10"/><path fill="none" stroke="black" paint-order="fill stroke markers" d=" M 479 711 L 479 703" stroke-miterlimit="10"/><path fill="none" stroke="black" paint-order="fill stroke markers" d=" M 535 711 L 535 703" stroke-miterlimit="10"/><path fill="none" stroke="black" paint-order="fill stroke markers" d=" M 592 711 L 592 703" stroke-miterlimit="10"/><path fill="none" stroke="black" paint-order="fill stroke markers" d=" M 649 711 L 649 703" stroke-miterlimit="10"/><path fill="none" stroke="black" paint-order="fill stroke markers" d=" M 252 709 L 252 705" stroke-miterlimit="10"/><path fill="none" stroke="black" paint-order="fill stroke markers" d=" M 263 709 L 263 705" stroke-miterlimit="10"/><path fill="none" stroke="black" paint-order="fill stroke markers" d=" M 275 709 L 275 705" stroke-miterlimit="10"/><path fill="none" stroke="black" paint-order="fill stroke markers" d=" M 286 709 L 286 705" stroke-miterlimit="10"/><path fill="none" stroke="black" paint-order="fill stroke markers" d=" M 297 709 L 297 705" stroke-miterlimit="10"/><path fill="none" stroke="black" paint-order="fill stroke markers" d=" M 309 709 L 309 705" stroke-miterlimit="10"/><path fill="none" stroke="black" paint-order="fill stroke markers" d=" M 320 709 L 320 705" stroke-miterlimit="10"/><path fill="none" stroke="black" paint-order="fill stroke markers" d=" M 331 709 L 331 705" stroke-miterlimit="10"/><path fill="none" stroke="black" paint-order="fill stroke markers" d=" M 343 709 L 343 705" stroke-miterlimit="10"/><path fill="none" stroke="black" paint-order="fill stroke markers" d=" M 354 709 L 354 705" stroke-miterlimit="10"/><path fill="none" stroke="black" paint-order="fill stroke markers" d=" M 365 709 L 365 705" stroke-miterlimit="10"/><path fill="none" stroke="black" paint-order="fill stroke markers" d=" M 377 709 L 377 705" stroke-miterlimit="10"/><path fill="none" stroke="black" paint-order="fill stroke markers" d=" M 388 709 L 388 705" stroke-miterlimit="10"/><path fill="none" stroke="black" paint-order="fill stroke markers" d=" M 399 709 L 399 705" stroke-miterlimit="10"/><path fill="none" stroke="black" paint-order="fill stroke markers" d=" M 411 709 L 411 705" stroke-miterlimit="10"/><path fill="none" stroke="black" paint-order="fill stroke markers" d=" M 422 709 L 422 705" stroke-miterlimit="10"/><path fill="none" stroke="black" paint-order="fill stroke markers" d=" M 433 709 L 433 705" stroke-miterlimit="10"/><path fill="none" stroke="black" paint-order="fill stroke markers" d=" M 445 709 L 445 705" stroke-miterlimit="10"/><path fill="none" stroke="black" paint-order="fill stroke markers" d=" M 456 709 L 456 705" stroke-miterlimit="10"/><path fill="none" stroke="black" paint-order="fill stroke markers" d=" M 467 709 L 467 705" stroke-miterlimit="10"/><path fill="none" stroke="black" paint-order="fill stroke markers" d=" M 479 709 L 479 705" stroke-miterlimit="10"/><path fill="none" stroke="black" paint-order="fill stroke markers" d=" M 490 709 L 490 705" stroke-miterlimit="10"/><path fill="none" stroke="black" paint-order="fill stroke markers" d=" M 501 709 L 501 705" stroke-miterlimit="10"/><path fill="none" stroke="black" paint-order="fill stroke markers" d=" M 513 709 L 513 705" stroke-miterlimit="10"/><path fill="none" stroke="black" paint-order="fill stroke markers" d=" M 524 709 L 524 705" stroke-miterlimit="10"/><path fill="none" stroke="black" paint-order="fill stroke markers" d=" M 535 709 L 535 705" stroke-miterlimit="10"/><path fill="none" stroke="black" paint-order="fill stroke markers" d=" M 547 709 L 547 705" stroke-miterlimit="10"/><path fill="none" stroke="black" paint-order="fill stroke markers" d=" M 558 709 L 558 705" stroke-miterlimit="10"/><path fill="none" stroke="black" paint-order="fill stroke markers" d=" M 569 709 L 569 705" stroke-miterlimit="10"/><path fill="none" stroke="black" paint-order="fill stroke markers" d=" M 581 709 L 581 705" stroke-miterlimit="10"/><path fill="none" stroke="black" paint-order="fill stroke markers" d=" M 592 709 L 592 705" stroke-miterlimit="10"/><path fill="none" stroke="black" paint-order="fill stroke markers" d=" M 603 709 L 603 705" stroke-miterlimit="10"/><path fill="none" stroke="black" paint-order="fill stroke markers" d=" M 615 709 L 615 705" stroke-miterlimit="10"/><path fill="none" stroke="black" paint-order="fill stroke markers" d=" M 626 709 L 626 705" stroke-miterlimit="10"/><path fill="none" stroke="black" paint-order="fill stroke markers" d=" M 637 709 L 637 705" stroke-miterlimit="10"/><path fill="" stroke="black" paint-order="fill stroke markers" d=" M 649 709 L 649 705" stroke-miterlimit="10"/><g transform="translate(252,716) rotate(0,0,0)"><text fill="" stroke="none" font-family="helvetica" font-size="8pt" font-style="normal" font-weight="normal" text-decoration="normal" x="0" y="0" text-anchor="middle" dominant-baseline="hanging">0</text><g transform="rotate(0,0,0) translate(-252,-716) translate(309,716) rotate(0,0,0)"><text fill="" stroke="none" font-family="helvetica" font-size="8pt" font-style="normal" font-weight="normal" text-decoration="normal" x="0" y="0" text-anchor="middle" dominant-baseline="hanging">1000</text><g transform="rotate(0,0,0) translate(-309,-716) translate(365,716) rotate(0,0,0)"><text fill="" stroke="none" font-family="helvetica" font-size="8pt" font-style="normal" font-weight="normal" text-decoration="normal" x="0" y="0" text-anchor="middle" dominant-baseline="hanging">2000</text><g transform="rotate(0,0,0) translate(-365,-716) translate(422,716) rotate(0,0,0)"><text fill="" stroke="none" font-family="helvetica" font-size="8pt" font-style="normal" font-weight="normal" text-decoration="normal" x="0" y="0" text-anchor="middle" dominant-baseline="hanging">3000</text><g transform="rotate(0,0,0) translate(-422,-716) translate(479,716) rotate(0,0,0)"><text fill="" stroke="none" font-family="helvetica" font-size="8pt" font-style="normal" font-weight="normal" text-decoration="normal" x="0" y="0" text-anchor="middle" dominant-baseline="hanging">4000</text><g transform="rotate(0,0,0) translate(-479,-716) translate(535,716) rotate(0,0,0)"><text fill="" stroke="none" font-family="helvetica" font-size="8pt" font-style="normal" font-weight="normal" text-decoration="normal" x="0" y="0" text-anchor="middle" dominant-baseline="hanging">5000</text><g transform="rotate(0,0,0) translate(-535,-716) translate(592,716) rotate(0,0,0)"><text fill="" stroke="none" font-family="helvetica" font-size="8pt" font-style="normal" font-weight="normal" text-decoration="normal" x="0" y="0" text-anchor="middle" dominant-baseline="hanging">6000</text><g transform="rotate(0,0,0) translate(-592,-716) translate(649,716) rotate(0,0,0)"><text fill="" stroke="none" font-family="helvetica" font-size="8pt" font-style="normal" font-weight="normal" text-decoration="normal" x="0" y="0" text-anchor="middle" dominant-baseline="hanging">7000</text><g transform="rotate(0,0,0) translate(-649,-716) translate(451,734) rotate(0,0,0)"><text fill="" stroke="none" font-family="helvetica" font-size="10pt" font-style="italic" font-weight="normal" text-decoration="normal" x="0" y="0" text-anchor="middle" dominant-baseline="hanging">Respondents</text><g transform="rotate(0,0,0) translate(-451,-734)"/></g></g></g></g></g></g></g></g></g></g><g fill="#444444"><path fill="none" stroke="black" paint-order="fill stroke markers" d=" M 252 705 L 252 28" stroke-miterlimit="10"/><path fill="none" stroke="black" paint-order="fill stroke markers" d=" M 246 682 L 254 682" stroke-miterlimit="10"/><path fill="none" stroke="black" paint-order="fill stroke markers" d=" M 246 637 L 254 637" stroke-miterlimit="10"/><path fill="none" stroke="black" paint-order="fill stroke markers" d=" M 246 592 L 254 592" stroke-miterlimit="10"/><path fill="none" stroke="black" paint-order="fill stroke markers" d=" M 246 547 L 254 547" stroke-miterlimit="10"/><path fill="none" stroke="black" paint-order="fill stroke markers" d=" M 246 502 L 254 502" stroke-miterlimit="10"/><path fill="none" stroke="black" paint-order="fill stroke markers" d=" M 246 457 L 254 457" stroke-miterlimit="10"/><path fill="none" stroke="black" paint-order="fill stroke markers" d=" M 246 412 L 254 412" stroke-miterlimit="10"/><path fill="none" stroke="black" paint-order="fill stroke markers" d=" M 246 367 L 254 367" stroke-miterlimit="10"/><path fill="none" stroke="black" paint-order="fill stroke markers" d=" M 246 321 L 254 321" stroke-miterlimit="10"/><path fill="none" stroke="black" paint-order="fill stroke markers" d=" M 246 276 L 254 276" stroke-miterlimit="10"/><path fill="none" stroke="black" paint-order="fill stroke markers" d=" M 246 231 L 254 231" stroke-miterlimit="10"/><path fill="none" stroke="black" paint-order="fill stroke markers" d=" M 246 186 L 254 186" stroke-miterlimit="10"/><path fill="none" stroke="black" paint-order="fill stroke markers" d=" M 246 141 L 254 141" stroke-miterlimit="10"/><path fill="none" stroke="black" paint-order="fill stroke markers" d=" M 246 96 L 254 96" stroke-miterlimit="10"/><path fill="" stroke="black" paint-order="fill stroke markers" d=" M 246 51 L 254 51" stroke-miterlimit="10"/><g transform="translate(241,682) rotate(0,0,0)"><text fill="" stroke="none" font-family="helvetica" font-size="8pt" font-style="normal" font-weight="normal" text-decoration="normal" x="0" y="0" text-anchor="end" dominant-baseline="central">Design not having a "seat at the table"</text><g transform="rotate(0,0,0) translate(-241,-682) translate(241,637) rotate(0,0,0)"><text fill="" stroke="none" font-family="helvetica" font-size="8pt" font-style="normal" font-weight="normal" text-decoration="normal" x="0" y="0" text-anchor="end" dominant-baseline="central">Diversity in design and tech</text><g transform="rotate(0,0,0) translate(-241,-637) translate(241,592) rotate(0,0,0)"><text fill="" stroke="none" font-family="helvetica" font-size="8pt" font-style="normal" font-weight="normal" text-decoration="normal" x="0" y="0" text-anchor="end" dominant-baseline="central">Ethics in design</text><g transform="rotate(0,0,0) translate(-241,-592) translate(241,547) rotate(0,0,0)"><text fill="" stroke="none" font-family="helvetica" font-size="8pt" font-style="normal" font-weight="normal" text-decoration="normal" x="0" y="0" text-anchor="end" dominant-baseline="central">Education cost and equity of access</text><g transform="rotate(0,0,0) translate(-241,-547) translate(241,502) rotate(0,0,0)"><text fill="" stroke="none" font-family="helvetica" font-size="8pt" font-style="normal" font-weight="normal" text-decoration="normal" x="0" y="0" text-anchor="end" dominant-baseline="central">Consumer vs. social impact focus</text><g transform="rotate(0,0,0) translate(-241,-502) translate(241,457) rotate(0,0,0)"><text fill="" stroke="none" font-family="helvetica" font-size="8pt" font-style="normal" font-weight="normal" text-decoration="normal" x="0" y="0" text-anchor="end" dominant-baseline="central">Generational differences in the workforce</text><g transform="rotate(0,0,0) translate(-241,-457) translate(241,412) rotate(0,0,0)"><text fill="" stroke="none" font-family="helvetica" font-size="8pt" font-style="normal" font-weight="normal" text-decoration="normal" x="0" y="0" text-anchor="end" dominant-baseline="central">Environmental impacts of design</text><g transform="rotate(0,0,0) translate(-241,-412) translate(241,367) rotate(0,0,0)"><text fill="" stroke="none" font-family="helvetica" font-size="8pt" font-style="normal" font-weight="normal" text-decoration="normal" x="0" y="0" text-anchor="end" dominant-baseline="central">Algorithm bias</text><g transform="rotate(0,0,0) translate(-241,-367) translate(241,321) rotate(0,0,0)"><text fill="" stroke="none" font-family="helvetica" font-size="8pt" font-style="normal" font-weight="normal" text-decoration="normal" x="0" y="0" text-anchor="end" dominant-baseline="central">Advertising supported content model</text><g transform="rotate(0,0,0) translate(-241,-321) translate(241,276) rotate(0,0,0)"><text fill="" stroke="none" font-family="helvetica" font-size="8pt" font-style="normal" font-weight="normal" text-decoration="normal" x="0" y="0" text-anchor="end" dominant-baseline="central">Dark UX patterns</text><g transform="rotate(0,0,0) translate(-241,-276) translate(241,231) rotate(0,0,0)"><text fill="" stroke="none" font-family="helvetica" font-size="8pt" font-style="normal" font-weight="normal" text-decoration="normal" x="0" y="0" text-anchor="end" dominant-baseline="central">Human-machine interface limitations</text><g transform="rotate(0,0,0) translate(-241,-231) translate(241,186) rotate(0,0,0)"><text fill="" stroke="none" font-family="helvetica" font-size="8pt" font-style="normal" font-weight="normal" text-decoration="normal" x="0" y="0" text-anchor="end" dominant-baseline="central">Machine ethics</text><g transform="rotate(0,0,0) translate(-241,-186) translate(241,141) rotate(0,0,0)"><text fill="" stroke="none" font-family="helvetica" font-size="8pt" font-style="normal" font-weight="normal" text-decoration="normal" x="0" y="0" text-anchor="end" dominant-baseline="central">Software complexity</text><g transform="rotate(0,0,0) translate(-241,-141) translate(241,96) rotate(0,0,0)"><text fill="" stroke="none" font-family="helvetica" font-size="8pt" font-style="normal" font-weight="normal" text-decoration="normal" x="0" y="0" text-anchor="end" dominant-baseline="central">Trademark and patent issues</text><g transform="rotate(0,0,0) translate(-241,-96) translate(241,51) rotate(0,0,0)"><text fill="" stroke="none" font-family="helvetica" font-size="8pt" font-style="normal" font-weight="normal" text-decoration="normal" x="0" y="0" text-anchor="end" dominant-baseline="central">None of these</text><g transform="rotate(0,0,0) translate(-241,-51) translate(16,367) rotate(-90,0,0)"><text fill="" stroke="none" font-family="helvetica" font-size="10pt" font-style="italic" font-weight="normal" text-decoration="normal" x="0" y="0" text-anchor="middle" dominant-baseline="alphabetic">Categories</text><g transform="rotate(90,0,0) translate(-16,-367)"/></g></g></g></g></g></g></g></g></g></g></g></g></g></g></g></g></g><g fill="#444444"><path fill="" stroke="none" d=""/><g transform="translate(252,23)"><path fill="none" stroke="none"/><text fill="" stroke="none" font-family="helvetica" font-size="10pt" font-style="normal" font-weight="bold" text-decoration="normal" x="0" y="0" text-anchor="start" dominant-baseline="text-after-edge">All: The most critical issues and challenges currently facing design are (answer optional):</text></g></g></g></g></g></svg>