<svg version="1.1" xmlns="http://www.w3.org/2000/svg" xmlns:xlink="http://www.w3.org/1999/xlink" width="700" height="550" style="width: 700px; height: 550px;"><defs/><g><g transform="scale(1,1) translate(0.5,0.5)"><rect fill="#FFFFFF" stroke="none" x="0" y="0" width="700" height="550"/><rect fill="#ffffff" stroke="none" x="0" y="0" width="700" height="550"/><rect fill="#FFFFFF" stroke="none" x="114" y="28" width="536" height="477"/><rect fill="#ffffff" stroke="none" x="114" y="28" width="536" height="477"/><g><rect fill="none" stroke="#e5e5e5" x="114" y="28" width="536" height="477" stroke-miterlimit="10"/></g><g><g><path fill="none" stroke="#e5e5e5" paint-order="fill stroke markers" d=" M 246 505 L 246 28" stroke-miterlimit="10"/><path fill="none" stroke="#e5e5e5" paint-order="fill stroke markers" d=" M 378 505 L 378 28" stroke-miterlimit="10"/><path fill="none" stroke="#e5e5e5" paint-order="fill stroke markers" d=" M 510 505 L 510 28" stroke-miterlimit="10"/><path fill="none" stroke="#e5e5e5" paint-order="fill stroke markers" d=" M 642 505 L 642 28" stroke-miterlimit="10"/></g><g><path fill="none" stroke="#e5e5e5" paint-order="fill stroke markers" d=" M 114 483 L 650 483" stroke-miterlimit="10"/><path fill="none" stroke="#e5e5e5" paint-order="fill stroke markers" d=" M 114 440 L 650 440" stroke-miterlimit="10"/><path fill="none" stroke="#e5e5e5" paint-order="fill stroke markers" d=" M 114 397 L 650 397" stroke-miterlimit="10"/><path fill="none" stroke="#e5e5e5" paint-order="fill stroke markers" d=" M 114 353 L 650 353" stroke-miterlimit="10"/><path fill="none" stroke="#e5e5e5" paint-order="fill stroke markers" d=" M 114 310 L 650 310" stroke-miterlimit="10"/><path fill="none" stroke="#e5e5e5" paint-order="fill stroke markers" d=" M 114 267 L 650 267" stroke-miterlimit="10"/><path fill="none" stroke="#e5e5e5" paint-order="fill stroke markers" d=" M 114 223 L 650 223" stroke-miterlimit="10"/><path fill="none" stroke="#e5e5e5" paint-order="fill stroke markers" d=" M 114 180 L 650 180" stroke-miterlimit="10"/><path fill="none" stroke="#e5e5e5" paint-order="fill stroke markers" d=" M 114 136 L 650 136" stroke-miterlimit="10"/><path fill="none" stroke="#e5e5e5" paint-order="fill stroke markers" d=" M 114 93 L 650 93" stroke-miterlimit="10"/><path fill="none" stroke="#e5e5e5" paint-order="fill stroke markers" d=" M 114 50 L 650 50" stroke-miterlimit="10"/></g><g><path fill="none" stroke="none"/><rect fill="#1f77b4" stroke="none" x="114" y="467.0568181818182" width="440.0728274776104" height="32.52272727272725"/><path fill="none" stroke="#1f77b4" paint-order="fill stroke markers" d=" M 114 467.0568181818182 L 554.0728274776104 467.0568181818182 L 554.0728274776104 499.57954545454544 L 114 499.57954545454544 L 114 467.0568181818182 Z" stroke-miterlimit="10"/><rect fill="#1f77b4" stroke="none" x="114" y="423.6931818181818" width="386.1352229111308" height="32.52272727272725"/><path fill="none" stroke="#1f77b4" paint-order="fill stroke markers" d=" M 114 423.6931818181818 L 500.1352229111308 423.6931818181818 L 500.1352229111308 456.21590909090907 L 114 456.21590909090907 L 114 423.6931818181818 Z" stroke-miterlimit="10"/><rect fill="#1f77b4" stroke="none" x="114" y="380.3295454545454" width="307.27290621001873" height="32.522727272727366"/><path fill="none" stroke="#1f77b4" paint-order="fill stroke markers" d=" M 114 380.3295454545454 L 421.27290621001873 380.3295454545454 L 421.27290621001873 412.85227272727275 L 114 412.85227272727275 L 114 380.3295454545454 Z" stroke-miterlimit="10"/><rect fill="#1f77b4" stroke="none" x="114" y="336.9659090909091" width="269.8198996161795" height="32.52272727272725"/><path fill="none" stroke="#1f77b4" paint-order="fill stroke markers" d=" M 114 336.9659090909091 L 383.8198996161795 336.9659090909091 L 383.8198996161795 369.4886363636364 L 114 369.4886363636364 L 114 336.9659090909091 Z" stroke-miterlimit="10"/><rect fill="#1f77b4" stroke="none" x="114" y="293.60227272727275" width="268.89676212971165" height="32.52272727272725"/><path fill="none" stroke="#1f77b4" paint-order="fill stroke markers" d=" M 114 293.60227272727275 L 382.89676212971165 293.60227272727275 L 382.89676212971165 326.125 L 114 326.125 L 114 293.60227272727275 Z" stroke-miterlimit="10"/><rect fill="#1f77b4" stroke="none" x="114" y="250.23863636363637" width="173.41797067217794" height="32.52272727272725"/><path fill="none" stroke="#1f77b4" paint-order="fill stroke markers" d=" M 114 250.23863636363637 L 287.41797067217794 250.23863636363637 L 287.41797067217794 282.7613636363636 L 114 282.7613636363636 L 114 250.23863636363637 Z" stroke-miterlimit="10"/><rect fill="#1f77b4" stroke="none" x="114" y="206.875" width="140.71252829445922" height="32.52272727272725"/><path fill="none" stroke="#1f77b4" paint-order="fill stroke markers" d=" M 114 206.875 L 254.71252829445922 206.875 L 254.71252829445922 239.39772727272725 L 114 239.39772727272725 L 114 206.875 Z" stroke-miterlimit="10"/><rect fill="#1f77b4" stroke="none" x="114" y="163.51136363636363" width="113.41403405176658" height="32.52272727272725"/><path fill="none" stroke="#1f77b4" paint-order="fill stroke markers" d=" M 114 163.51136363636363 L 227.41403405176658 163.51136363636363 L 227.41403405176658 196.03409090909088 L 114 196.03409090909088 L 114 163.51136363636363 Z" stroke-miterlimit="10"/><rect fill="#1f77b4" stroke="none" x="114" y="120.14772727272725" width="94.68753075484699" height="32.52272727272725"/><path fill="none" stroke="#1f77b4" paint-order="fill stroke markers" d=" M 114 120.14772727272725 L 208.687530754847 120.14772727272725 L 208.687530754847 152.6704545454545 L 114 152.6704545454545 L 114 120.14772727272725 Z" stroke-miterlimit="10"/><rect fill="#1f77b4" stroke="none" x="114" y="76.78409090909088" width="54.46511170160417" height="32.52272727272725"/><path fill="none" stroke="#1f77b4" paint-order="fill stroke markers" d=" M 114 76.78409090909088 L 168.46511170160417 76.78409090909088 L 168.46511170160417 109.30681818181813 L 114 109.30681818181813 L 114 76.78409090909088 Z" stroke-miterlimit="10"/><rect fill="#1f77b4" stroke="none" x="114" y="33.420454545454476" width="39.1674047829938" height="32.52272727272731"/><path fill="none" stroke="#1f77b4" paint-order="fill stroke markers" d=" M 114 33.420454545454476 L 153.1674047829938 33.420454545454476 L 153.1674047829938 65.94318181818178 L 114 65.94318181818178 L 114 33.420454545454476 Z" stroke-miterlimit="10"/></g><g fill="#444444"><path fill="" stroke="none" d=""/><g transform="translate(564.0728274776104,481.3181818181818) rotate(0,0,0)"><path fill="none" stroke="none"/><text fill="" stroke="none" font-family="helvetica" font-size="8pt" font-style="normal" font-weight="normal" text-decoration="normal" x="0" y="0" text-anchor="start" dominant-baseline="text-after-edge">26.75%</text></g></g><g fill="#444444"><path fill="" stroke="none" d=""/><g transform="translate(510.1352229111308,437.95454545454544) rotate(0,0,0)"><path fill="none" stroke="none"/><text fill="" stroke="none" font-family="helvetica" font-size="8pt" font-style="normal" font-weight="normal" text-decoration="normal" x="0" y="0" text-anchor="start" dominant-baseline="text-after-edge">23.47%</text></g></g><g fill="#444444"><path fill="" stroke="none" d=""/><g transform="translate(431.27290621001873,394.59090909090907) rotate(0,0,0)"><path fill="none" stroke="none"/><text fill="" stroke="none" font-family="helvetica" font-size="8pt" font-style="normal" font-weight="normal" text-decoration="normal" x="0" y="0" text-anchor="start" dominant-baseline="text-after-edge">18.67%</text></g></g><g fill="#444444"><path fill="" stroke="none" d=""/><g transform="translate(393.8198996161795,351.22727272727275) rotate(0,0,0)"><path fill="none" stroke="none"/><text fill="" stroke="none" font-family="helvetica" font-size="8pt" font-style="normal" font-weight="normal" text-decoration="normal" x="0" y="0" text-anchor="start" dominant-baseline="text-after-edge">16.40%</text></g></g><g fill="#444444"><path fill="" stroke="none" d=""/><g transform="translate(392.89676212971165,307.8636363636364) rotate(0,0,0)"><path fill="none" stroke="none"/><text fill="" stroke="none" font-family="helvetica" font-size="8pt" font-style="normal" font-weight="normal" text-decoration="normal" x="0" y="0" text-anchor="start" dominant-baseline="text-after-edge">16.34%</text></g></g><g fill="#444444"><path fill="" stroke="none" d=""/><g transform="translate(297.41797067217794,264.5) rotate(0,0,0)"><path fill="none" stroke="none"/><text fill="" stroke="none" font-family="helvetica" font-size="8pt" font-style="normal" font-weight="normal" text-decoration="normal" x="0" y="0" text-anchor="start" dominant-baseline="text-after-edge">10.54%</text></g></g><g fill="#444444"><path fill="" stroke="none" d=""/><g transform="translate(264.7125282944592,221.13636363636363) rotate(0,0,0)"><path fill="none" stroke="none"/><text fill="" stroke="none" font-family="helvetica" font-size="8pt" font-style="normal" font-weight="normal" text-decoration="normal" x="0" y="0" text-anchor="start" dominant-baseline="text-after-edge">8.55%</text></g></g><g fill="#444444"><path fill="" stroke="none" d=""/><g transform="translate(237.41403405176658,177.77272727272725) rotate(0,0,0)"><path fill="none" stroke="none"/><text fill="" stroke="none" font-family="helvetica" font-size="8pt" font-style="normal" font-weight="normal" text-decoration="normal" x="0" y="0" text-anchor="start" dominant-baseline="text-after-edge">6.89%</text></g></g><g fill="#444444"><path fill="" stroke="none" d=""/><g transform="translate(218.687530754847,134.40909090909088) rotate(0,0,0)"><path fill="none" stroke="none"/><text fill="" stroke="none" font-family="helvetica" font-size="8pt" font-style="normal" font-weight="normal" text-decoration="normal" x="0" y="0" text-anchor="start" dominant-baseline="text-after-edge">5.75%</text></g></g><g fill="#444444"><path fill="" stroke="none" d=""/><g transform="translate(178.46511170160417,91.0454545454545) rotate(0,0,0)"><path fill="none" stroke="none"/><text fill="" stroke="none" font-family="helvetica" font-size="8pt" font-style="normal" font-weight="normal" text-decoration="normal" x="0" y="0" text-anchor="start" dominant-baseline="text-after-edge">3.31%</text></g></g><g fill="#444444"><path fill="" stroke="none" d=""/><g transform="translate(163.1674047829938,47.68181818181813) rotate(0,0,0)"><path fill="none" stroke="none"/><text fill="" stroke="none" font-family="helvetica" font-size="8pt" font-style="normal" font-weight="normal" text-decoration="normal" x="0" y="0" text-anchor="start" dominant-baseline="text-after-edge">2.38%</text></g></g><g fill="#444444"><path fill="" stroke="none" d=""/><g transform="translate(564.0728274776104,495.3181818181818) rotate(0,0,0)"><path fill="none" stroke="none"/><text fill="" stroke="none" font-family="helvetica" font-size="8pt" font-style="normal" font-weight="normal" text-decoration="normal" x="0" y="0" text-anchor="start" dominant-baseline="text-after-edge">3337</text></g></g><g fill="#444444"><path fill="" stroke="none" d=""/><g transform="translate(510.1352229111308,451.95454545454544) rotate(0,0,0)"><path fill="none" stroke="none"/><text fill="" stroke="none" font-family="helvetica" font-size="8pt" font-style="normal" font-weight="normal" text-decoration="normal" x="0" y="0" text-anchor="start" dominant-baseline="text-after-edge">2928</text></g></g><g fill="#444444"><path fill="" stroke="none" d=""/><g transform="translate(431.27290621001873,408.59090909090907) rotate(0,0,0)"><path fill="none" stroke="none"/><text fill="" stroke="none" font-family="helvetica" font-size="8pt" font-style="normal" font-weight="normal" text-decoration="normal" x="0" y="0" text-anchor="start" dominant-baseline="text-after-edge">2330</text></g></g><g fill="#444444"><path fill="" stroke="none" d=""/><g transform="translate(393.8198996161795,365.22727272727275) rotate(0,0,0)"><path fill="none" stroke="none"/><text fill="" stroke="none" font-family="helvetica" font-size="8pt" font-style="normal" font-weight="normal" text-decoration="normal" x="0" y="0" text-anchor="start" dominant-baseline="text-after-edge">2046</text></g></g><g fill="#444444"><path fill="" stroke="none" d=""/><g transform="translate(392.89676212971165,321.8636363636364) rotate(0,0,0)"><path fill="none" stroke="none"/><text fill="" stroke="none" font-family="helvetica" font-size="8pt" font-style="normal" font-weight="normal" text-decoration="normal" x="0" y="0" text-anchor="start" dominant-baseline="text-after-edge">2039</text></g></g><g fill="#444444"><path fill="" stroke="none" d=""/><g transform="translate(297.41797067217794,278.5) rotate(0,0,0)"><path fill="none" stroke="none"/><text fill="" stroke="none" font-family="helvetica" font-size="8pt" font-style="normal" font-weight="normal" text-decoration="normal" x="0" y="0" text-anchor="start" dominant-baseline="text-after-edge">1315</text></g></g><g fill="#444444"><path fill="" stroke="none" d=""/><g transform="translate(264.7125282944592,235.13636363636363) rotate(0,0,0)"><path fill="none" stroke="none"/><text fill="" stroke="none" font-family="helvetica" font-size="8pt" font-style="normal" font-weight="normal" text-decoration="normal" x="0" y="0" text-anchor="start" dominant-baseline="text-after-edge">1067</text></g></g><g fill="#444444"><path fill="" stroke="none" d=""/><g transform="translate(237.41403405176658,191.77272727272725) rotate(0,0,0)"><path fill="none" stroke="none"/><text fill="" stroke="none" font-family="helvetica" font-size="8pt" font-style="normal" font-weight="normal" text-decoration="normal" x="0" y="0" text-anchor="start" dominant-baseline="text-after-edge">860</text></g></g><g fill="#444444"><path fill="" stroke="none" d=""/><g transform="translate(218.687530754847,148.40909090909088) rotate(0,0,0)"><path fill="none" stroke="none"/><text fill="" stroke="none" font-family="helvetica" font-size="8pt" font-style="normal" font-weight="normal" text-decoration="normal" x="0" y="0" text-anchor="start" dominant-baseline="text-after-edge">718</text></g></g><g fill="#444444"><path fill="" stroke="none" d=""/><g transform="translate(178.46511170160417,105.0454545454545) rotate(0,0,0)"><path fill="none" stroke="none"/><text fill="" stroke="none" font-family="helvetica" font-size="8pt" font-style="normal" font-weight="normal" text-decoration="normal" x="0" y="0" text-anchor="start" dominant-baseline="text-after-edge">413</text></g></g><g fill="#444444"><path fill="" stroke="none" d=""/><g transform="translate(163.1674047829938,61.68181818181813) rotate(0,0,0)"><path fill="none" stroke="none"/><text fill="" stroke="none" font-family="helvetica" font-size="8pt" font-style="normal" font-weight="normal" text-decoration="normal" x="0" y="0" text-anchor="start" dominant-baseline="text-after-edge">297</text></g></g></g><g/><g><g fill="#444444"><path fill="none" stroke="black" paint-order="fill stroke markers" d=" M 114 505 L 650 505" stroke-miterlimit="10"/><path fill="none" stroke="black" paint-order="fill stroke markers" d=" M 114 511 L 114 503" stroke-miterlimit="10"/><path fill="none" stroke="black" paint-order="fill stroke markers" d=" M 246 511 L 246 503" stroke-miterlimit="10"/><path fill="none" stroke="black" paint-order="fill stroke markers" d=" M 378 511 L 378 503" stroke-miterlimit="10"/><path fill="none" stroke="black" paint-order="fill stroke markers" d=" M 510 511 L 510 503" stroke-miterlimit="10"/><path fill="none" stroke="black" paint-order="fill stroke markers" d=" M 642 511 L 642 503" stroke-miterlimit="10"/><path fill="none" stroke="black" paint-order="fill stroke markers" d=" M 114 509 L 114 505" stroke-miterlimit="10"/><path fill="none" stroke="black" paint-order="fill stroke markers" d=" M 140 509 L 140 505" stroke-miterlimit="10"/><path fill="none" stroke="black" paint-order="fill stroke markers" d=" M 167 509 L 167 505" stroke-miterlimit="10"/><path fill="none" stroke="black" paint-order="fill stroke markers" d=" M 193 509 L 193 505" stroke-miterlimit="10"/><path fill="none" stroke="black" paint-order="fill stroke markers" d=" M 220 509 L 220 505" stroke-miterlimit="10"/><path fill="none" stroke="black" paint-order="fill stroke markers" d=" M 246 509 L 246 505" stroke-miterlimit="10"/><path fill="none" stroke="black" paint-order="fill stroke markers" d=" M 272 509 L 272 505" stroke-miterlimit="10"/><path fill="none" stroke="black" paint-order="fill stroke markers" d=" M 299 509 L 299 505" stroke-miterlimit="10"/><path fill="none" stroke="black" paint-order="fill stroke markers" d=" M 325 509 L 325 505" stroke-miterlimit="10"/><path fill="none" stroke="black" paint-order="fill stroke markers" d=" M 351 509 L 351 505" stroke-miterlimit="10"/><path fill="none" stroke="black" paint-order="fill stroke markers" d=" M 378 509 L 378 505" stroke-miterlimit="10"/><path fill="none" stroke="black" paint-order="fill stroke markers" d=" M 404 509 L 404 505" stroke-miterlimit="10"/><path fill="none" stroke="black" paint-order="fill stroke markers" d=" M 431 509 L 431 505" stroke-miterlimit="10"/><path fill="none" stroke="black" paint-order="fill stroke markers" d=" M 457 509 L 457 505" stroke-miterlimit="10"/><path fill="none" stroke="black" paint-order="fill stroke markers" d=" M 483 509 L 483 505" stroke-miterlimit="10"/><path fill="none" stroke="black" paint-order="fill stroke markers" d=" M 510 509 L 510 505" stroke-miterlimit="10"/><path fill="none" stroke="black" paint-order="fill stroke markers" d=" M 536 509 L 536 505" stroke-miterlimit="10"/><path fill="none" stroke="black" paint-order="fill stroke markers" d=" M 562 509 L 562 505" stroke-miterlimit="10"/><path fill="none" stroke="black" paint-order="fill stroke markers" d=" M 589 509 L 589 505" stroke-miterlimit="10"/><path fill="none" stroke="black" paint-order="fill stroke markers" d=" M 615 509 L 615 505" stroke-miterlimit="10"/><path fill="" stroke="black" paint-order="fill stroke markers" d=" M 642 509 L 642 505" stroke-miterlimit="10"/><g transform="translate(114,516) rotate(0,0,0)"><text fill="" stroke="none" font-family="helvetica" font-size="8pt" font-style="normal" font-weight="normal" text-decoration="normal" x="0" y="0" text-anchor="middle" dominant-baseline="hanging">0</text><g transform="rotate(0,0,0) translate(-114,-516) translate(246,516) rotate(0,0,0)"><text fill="" stroke="none" font-family="helvetica" font-size="8pt" font-style="normal" font-weight="normal" text-decoration="normal" x="0" y="0" text-anchor="middle" dominant-baseline="hanging">1000</text><g transform="rotate(0,0,0) translate(-246,-516) translate(378,516) rotate(0,0,0)"><text fill="" stroke="none" font-family="helvetica" font-size="8pt" font-style="normal" font-weight="normal" text-decoration="normal" x="0" y="0" text-anchor="middle" dominant-baseline="hanging">2000</text><g transform="rotate(0,0,0) translate(-378,-516) translate(510,516) rotate(0,0,0)"><text fill="" stroke="none" font-family="helvetica" font-size="8pt" font-style="normal" font-weight="normal" text-decoration="normal" x="0" y="0" text-anchor="middle" dominant-baseline="hanging">3000</text><g transform="rotate(0,0,0) translate(-510,-516) translate(642,516) rotate(0,0,0)"><text fill="" stroke="none" font-family="helvetica" font-size="8pt" font-style="normal" font-weight="normal" text-decoration="normal" x="0" y="0" text-anchor="middle" dominant-baseline="hanging">4000</text><g transform="rotate(0,0,0) translate(-642,-516) translate(382,534) rotate(0,0,0)"><text fill="" stroke="none" font-family="helvetica" font-size="10pt" font-style="italic" font-weight="normal" text-decoration="normal" x="0" y="0" text-anchor="middle" dominant-baseline="hanging">Respondents</text><g transform="rotate(0,0,0) translate(-382,-534)"/></g></g></g></g></g></g></g><g fill="#444444"><path fill="none" stroke="black" paint-order="fill stroke markers" d=" M 114 505 L 114 28" stroke-miterlimit="10"/><path fill="none" stroke="black" paint-order="fill stroke markers" d=" M 108 483 L 116 483" stroke-miterlimit="10"/><path fill="none" stroke="black" paint-order="fill stroke markers" d=" M 108 440 L 116 440" stroke-miterlimit="10"/><path fill="none" stroke="black" paint-order="fill stroke markers" d=" M 108 397 L 116 397" stroke-miterlimit="10"/><path fill="none" stroke="black" paint-order="fill stroke markers" d=" M 108 353 L 116 353" stroke-miterlimit="10"/><path fill="none" stroke="black" paint-order="fill stroke markers" d=" M 108 310 L 116 310" stroke-miterlimit="10"/><path fill="none" stroke="black" paint-order="fill stroke markers" d=" M 108 267 L 116 267" stroke-miterlimit="10"/><path fill="none" stroke="black" paint-order="fill stroke markers" d=" M 108 223 L 116 223" stroke-miterlimit="10"/><path fill="none" stroke="black" paint-order="fill stroke markers" d=" M 108 180 L 116 180" stroke-miterlimit="10"/><path fill="none" stroke="black" paint-order="fill stroke markers" d=" M 108 136 L 116 136" stroke-miterlimit="10"/><path fill="none" stroke="black" paint-order="fill stroke markers" d=" M 108 93 L 116 93" stroke-miterlimit="10"/><path fill="" stroke="black" paint-order="fill stroke markers" d=" M 108 50 L 116 50" stroke-miterlimit="10"/><g transform="translate(103,483) rotate(0,0,0)"><text fill="" stroke="none" font-family="helvetica" font-size="8pt" font-style="normal" font-weight="normal" text-decoration="normal" x="0" y="0" text-anchor="end" dominant-baseline="central">Digital</text><g transform="rotate(0,0,0) translate(-103,-483) translate(103,440) rotate(0,0,0)"><text fill="" stroke="none" font-family="helvetica" font-size="8pt" font-style="normal" font-weight="normal" text-decoration="normal" x="0" y="0" text-anchor="end" dominant-baseline="central">Branding</text><g transform="rotate(0,0,0) translate(-103,-440) translate(103,397) rotate(0,0,0)"><text fill="" stroke="none" font-family="helvetica" font-size="8pt" font-style="normal" font-weight="normal" text-decoration="normal" x="0" y="0" text-anchor="end" dominant-baseline="central">Print</text><g transform="rotate(0,0,0) translate(-103,-397) translate(103,353) rotate(0,0,0)"><text fill="" stroke="none" font-family="helvetica" font-size="8pt" font-style="normal" font-weight="normal" text-decoration="normal" x="0" y="0" text-anchor="end" dominant-baseline="central">Advertising</text><g transform="rotate(0,0,0) translate(-103,-353) translate(103,310) rotate(0,0,0)"><text fill="" stroke="none" font-family="helvetica" font-size="8pt" font-style="normal" font-weight="normal" text-decoration="normal" x="0" y="0" text-anchor="end" dominant-baseline="central">Strategy</text><g transform="rotate(0,0,0) translate(-103,-310) translate(103,267) rotate(0,0,0)"><text fill="" stroke="none" font-family="helvetica" font-size="8pt" font-style="normal" font-weight="normal" text-decoration="normal" x="0" y="0" text-anchor="end" dominant-baseline="central">Product Design</text><g transform="rotate(0,0,0) translate(-103,-267) translate(103,223) rotate(0,0,0)"><text fill="" stroke="none" font-family="helvetica" font-size="8pt" font-style="normal" font-weight="normal" text-decoration="normal" x="0" y="0" text-anchor="end" dominant-baseline="central">Innovation</text><g transform="rotate(0,0,0) translate(-103,-223) translate(103,180) rotate(0,0,0)"><text fill="" stroke="none" font-family="helvetica" font-size="8pt" font-style="normal" font-weight="normal" text-decoration="normal" x="0" y="0" text-anchor="end" dominant-baseline="central">Service Design</text><g transform="rotate(0,0,0) translate(-103,-180) translate(103,136) rotate(0,0,0)"><text fill="" stroke="none" font-family="helvetica" font-size="8pt" font-style="normal" font-weight="normal" text-decoration="normal" x="0" y="0" text-anchor="end" dominant-baseline="central">Social Impact</text><g transform="rotate(0,0,0) translate(-103,-136) translate(103,93) rotate(0,0,0)"><text fill="" stroke="none" font-family="helvetica" font-size="8pt" font-style="normal" font-weight="normal" text-decoration="normal" x="0" y="0" text-anchor="end" dominant-baseline="central">None of these</text><g transform="rotate(0,0,0) translate(-103,-93) translate(103,50) rotate(0,0,0)"><text fill="" stroke="none" font-family="helvetica" font-size="8pt" font-style="normal" font-weight="normal" text-decoration="normal" x="0" y="0" text-anchor="end" dominant-baseline="central">Broadcast</text><g transform="rotate(0,0,0) translate(-103,-50) translate(15,267) rotate(-90,0,0)"><text fill="" stroke="none" font-family="helvetica" font-size="10pt" font-style="italic" font-weight="normal" text-decoration="normal" x="0" y="0" text-anchor="middle" dominant-baseline="alphabetic">Categories</text><g transform="rotate(90,0,0) translate(-15,-267)"/></g></g></g></g></g></g></g></g></g></g></g></g></g><g fill="#444444"><path fill="" stroke="none" d=""/><g transform="translate(114,23)"><path fill="none" stroke="none"/><text fill="" stroke="none" font-family="helvetica" font-size="10pt" font-style="normal" font-weight="bold" text-decoration="normal" x="0" y="0" text-anchor="start" dominant-baseline="text-after-edge">All: My company specializes in:</text></g></g></g></g></g></svg>