<svg version="1.1" xmlns="http://www.w3.org/2000/svg" xmlns:xlink="http://www.w3.org/1999/xlink" width="700" height="800" style="width: 700px; height: 800px;"><defs/><g><g transform="scale(1,1) translate(0.5,0.5)"><rect fill="#FFFFFF" stroke="none" x="0" y="0" width="700" height="800"/><rect fill="#ffffff" stroke="none" x="0" y="0" width="700" height="800"/><rect fill="#FFFFFF" stroke="none" x="197" y="28" width="453" height="727"/><rect fill="#ffffff" stroke="none" x="197" y="28" width="453" height="727"/><g><rect fill="none" stroke="#e5e5e5" x="197" y="28" width="453" height="727" stroke-miterlimit="10"/></g><g><g><path fill="none" stroke="#e5e5e5" paint-order="fill stroke markers" d=" M 283 755 L 283 28" stroke-miterlimit="10"/><path fill="none" stroke="#e5e5e5" paint-order="fill stroke markers" d=" M 369 755 L 369 28" stroke-miterlimit="10"/><path fill="none" stroke="#e5e5e5" paint-order="fill stroke markers" d=" M 455 755 L 455 28" stroke-miterlimit="10"/><path fill="none" stroke="#e5e5e5" paint-order="fill stroke markers" d=" M 541 755 L 541 28" stroke-miterlimit="10"/><path fill="none" stroke="#e5e5e5" paint-order="fill stroke markers" d=" M 627 755 L 627 28" stroke-miterlimit="10"/></g><g><path fill="none" stroke="#e5e5e5" paint-order="fill stroke markers" d=" M 197 732 L 650 732" stroke-miterlimit="10"/><path fill="none" stroke="#e5e5e5" paint-order="fill stroke markers" d=" M 197 687 L 650 687" stroke-miterlimit="10"/><path fill="none" stroke="#e5e5e5" paint-order="fill stroke markers" d=" M 197 641 L 650 641" stroke-miterlimit="10"/><path fill="none" stroke="#e5e5e5" paint-order="fill stroke markers" d=" M 197 596 L 650 596" stroke-miterlimit="10"/><path fill="none" stroke="#e5e5e5" paint-order="fill stroke markers" d=" M 197 551 L 650 551" stroke-miterlimit="10"/><path fill="none" stroke="#e5e5e5" paint-order="fill stroke markers" d=" M 197 505 L 650 505" stroke-miterlimit="10"/><path fill="none" stroke="#e5e5e5" paint-order="fill stroke markers" d=" M 197 460 L 650 460" stroke-miterlimit="10"/><path fill="none" stroke="#e5e5e5" paint-order="fill stroke markers" d=" M 197 414 L 650 414" stroke-miterlimit="10"/><path fill="none" stroke="#e5e5e5" paint-order="fill stroke markers" d=" M 197 369 L 650 369" stroke-miterlimit="10"/><path fill="none" stroke="#e5e5e5" paint-order="fill stroke markers" d=" M 197 323 L 650 323" stroke-miterlimit="10"/><path fill="none" stroke="#e5e5e5" paint-order="fill stroke markers" d=" M 197 278 L 650 278" stroke-miterlimit="10"/><path fill="none" stroke="#e5e5e5" paint-order="fill stroke markers" d=" M 197 232 L 650 232" stroke-miterlimit="10"/><path fill="none" stroke="#e5e5e5" paint-order="fill stroke markers" d=" M 197 187 L 650 187" stroke-miterlimit="10"/><path fill="none" stroke="#e5e5e5" paint-order="fill stroke markers" d=" M 197 142 L 650 142" stroke-miterlimit="10"/><path fill="none" stroke="#e5e5e5" paint-order="fill stroke markers" d=" M 197 96 L 650 96" stroke-miterlimit="10"/><path fill="none" stroke="#e5e5e5" paint-order="fill stroke markers" d=" M 197 51 L 650 51" stroke-miterlimit="10"/></g><g><path fill="none" stroke="none"/><rect fill="#1f77b4" stroke="none" x="197" y="715.2421875" width="375.3504726113199" height="34.078125"/><path fill="none" stroke="#1f77b4" paint-order="fill stroke markers" d=" M 197 715.2421875 L 572.3504726113199 715.2421875 L 572.3504726113199 749.3203125 L 197 749.3203125 L 197 715.2421875 Z" stroke-miterlimit="10"/><rect fill="#1f77b4" stroke="none" x="197" y="669.8046875" width="370.10562578294036" height="34.078125"/><path fill="none" stroke="#1f77b4" paint-order="fill stroke markers" d=" M 197 669.8046875 L 567.1056257829404 669.8046875 L 567.1056257829404 703.8828125 L 197 703.8828125 L 197 669.8046875 Z" stroke-miterlimit="10"/><rect fill="#1f77b4" stroke="none" x="197" y="624.3671875" width="318.73192119348596" height="34.078125"/><path fill="none" stroke="#1f77b4" paint-order="fill stroke markers" d=" M 197 624.3671875 L 515.731921193486 624.3671875 L 515.731921193486 658.4453125 L 197 658.4453125 L 197 624.3671875 Z" stroke-miterlimit="10"/><rect fill="#1f77b4" stroke="none" x="197" y="578.9296875" width="247.5825646281744" height="34.078125"/><path fill="none" stroke="#1f77b4" paint-order="fill stroke markers" d=" M 197 578.9296875 L 444.5825646281744 578.9296875 L 444.5825646281744 613.0078125 L 197 613.0078125 L 197 578.9296875 Z" stroke-miterlimit="10"/><rect fill="#1f77b4" stroke="none" x="197" y="533.4921875" width="246.46481038606078" height="34.078125"/><path fill="none" stroke="#1f77b4" paint-order="fill stroke markers" d=" M 197 533.4921875 L 443.4648103860608 533.4921875 L 443.4648103860608 567.5703125 L 197 567.5703125 L 197 533.4921875 Z" stroke-miterlimit="10"/><rect fill="#1f77b4" stroke="none" x="197" y="488.0546875" width="240.01622822002048" height="34.078125"/><path fill="none" stroke="#1f77b4" paint-order="fill stroke markers" d=" M 197 488.0546875 L 437.0162282200205 488.0546875 L 437.0162282200205 522.1328125 L 197 522.1328125 L 197 488.0546875 Z" stroke-miterlimit="10"/><rect fill="#1f77b4" stroke="none" x="197" y="442.6171875" width="205.5378089055916" height="34.078125"/><path fill="none" stroke="#1f77b4" paint-order="fill stroke markers" d=" M 197 442.6171875 L 402.5378089055916 442.6171875 L 402.5378089055916 476.6953125 L 197 476.6953125 L 197 442.6171875 Z" stroke-miterlimit="10"/><rect fill="#1f77b4" stroke="none" x="197" y="397.1796875" width="192.21073909577495" height="34.078125"/><path fill="none" stroke="#1f77b4" paint-order="fill stroke markers" d=" M 197 397.1796875 L 389.21073909577495 397.1796875 L 389.21073909577495 431.2578125 L 197 431.2578125 L 197 397.1796875 Z" stroke-miterlimit="10"/><rect fill="#1f77b4" stroke="none" x="197" y="351.7421875" width="153.64821774285383" height="34.078125"/><path fill="none" stroke="#1f77b4" paint-order="fill stroke markers" d=" M 197 351.7421875 L 350.64821774285383 351.7421875 L 350.64821774285383 385.8203125 L 197 385.8203125 L 197 351.7421875 Z" stroke-miterlimit="10"/><rect fill="#1f77b4" stroke="none" x="197" y="306.3046875" width="150.42392665983368" height="34.078125"/><path fill="none" stroke="#1f77b4" paint-order="fill stroke markers" d=" M 197 306.3046875 L 347.4239266598337 306.3046875 L 347.4239266598337 340.3828125 L 197 340.3828125 L 197 306.3046875 Z" stroke-miterlimit="10"/><rect fill="#1f77b4" stroke="none" x="197" y="260.8671875" width="131.809019473864" height="34.078125"/><path fill="none" stroke="#1f77b4" paint-order="fill stroke markers" d=" M 197 260.8671875 L 328.809019473864 260.8671875 L 328.809019473864 294.9453125 L 197 294.9453125 L 197 260.8671875 Z" stroke-miterlimit="10"/><rect fill="#1f77b4" stroke="none" x="197" y="215.4296875" width="131.50808563944878" height="34.078125"/><path fill="none" stroke="#1f77b4" paint-order="fill stroke markers" d=" M 197 215.4296875 L 328.5080856394488 215.4296875 L 328.5080856394488 249.5078125 L 197 249.5078125 L 197 215.4296875 Z" stroke-miterlimit="10"/><rect fill="#1f77b4" stroke="none" x="197" y="169.9921875" width="125.70436169001249" height="34.078125"/><path fill="none" stroke="#1f77b4" paint-order="fill stroke markers" d=" M 197 169.9921875 L 322.7043616900125 169.9921875 L 322.7043616900125 204.0703125 L 197 204.0703125 L 197 169.9921875 Z" stroke-miterlimit="10"/><rect fill="#1f77b4" stroke="none" x="197" y="124.5546875" width="105.24086094977793" height="34.078125"/><path fill="none" stroke="#1f77b4" paint-order="fill stroke markers" d=" M 197 124.5546875 L 302.2408609497779 124.5546875 L 302.2408609497779 158.6328125 L 197 158.6328125 L 197 124.5546875 Z" stroke-miterlimit="10"/><rect fill="#1f77b4" stroke="none" x="197" y="79.1171875" width="98.749288235964" height="34.078125"/><path fill="none" stroke="#1f77b4" paint-order="fill stroke markers" d=" M 197 79.1171875 L 295.749288235964 79.1171875 L 295.749288235964 113.1953125 L 197 113.1953125 L 197 79.1171875 Z" stroke-miterlimit="10"/><rect fill="#1f77b4" stroke="none" x="197" y="33.6796875" width="32.71580685571121" height="34.078125"/><path fill="none" stroke="#1f77b4" paint-order="fill stroke markers" d=" M 197 33.6796875 L 229.7158068557112 33.6796875 L 229.7158068557112 67.7578125 L 197 67.7578125 L 197 33.6796875 Z" stroke-miterlimit="10"/></g><g fill="#444444"><path fill="" stroke="none" d=""/><g transform="translate(582.3504726113199,730.28125) rotate(0,0,0)"><path fill="none" stroke="none"/><text fill="" stroke="none" font-family="helvetica" font-size="8pt" font-style="normal" font-weight="normal" text-decoration="normal" x="0" y="0" text-anchor="start" dominant-baseline="text-after-edge">69.98%</text></g></g><g fill="#444444"><path fill="" stroke="none" d=""/><g transform="translate(577.1056257829404,684.84375) rotate(0,0,0)"><path fill="none" stroke="none"/><text fill="" stroke="none" font-family="helvetica" font-size="8pt" font-style="normal" font-weight="normal" text-decoration="normal" x="0" y="0" text-anchor="start" dominant-baseline="text-after-edge">69.00%</text></g></g><g fill="#444444"><path fill="" stroke="none" d=""/><g transform="translate(525.731921193486,639.40625) rotate(0,0,0)"><path fill="none" stroke="none"/><text fill="" stroke="none" font-family="helvetica" font-size="8pt" font-style="normal" font-weight="normal" text-decoration="normal" x="0" y="0" text-anchor="start" dominant-baseline="text-after-edge">59.42%</text></g></g><g fill="#444444"><path fill="" stroke="none" d=""/><g transform="translate(454.5825646281744,593.96875) rotate(0,0,0)"><path fill="none" stroke="none"/><text fill="" stroke="none" font-family="helvetica" font-size="8pt" font-style="normal" font-weight="normal" text-decoration="normal" x="0" y="0" text-anchor="start" dominant-baseline="text-after-edge">46.16%</text></g></g><g fill="#444444"><path fill="" stroke="none" d=""/><g transform="translate(453.4648103860608,548.53125) rotate(0,0,0)"><path fill="none" stroke="none"/><text fill="" stroke="none" font-family="helvetica" font-size="8pt" font-style="normal" font-weight="normal" text-decoration="normal" x="0" y="0" text-anchor="start" dominant-baseline="text-after-edge">45.95%</text></g></g><g fill="#444444"><path fill="" stroke="none" d=""/><g transform="translate(447.0162282200205,503.09375) rotate(0,0,0)"><path fill="none" stroke="none"/><text fill="" stroke="none" font-family="helvetica" font-size="8pt" font-style="normal" font-weight="normal" text-decoration="normal" x="0" y="0" text-anchor="start" dominant-baseline="text-after-edge">44.75%</text></g></g><g fill="#444444"><path fill="" stroke="none" d=""/><g transform="translate(412.5378089055916,457.65625) rotate(0,0,0)"><path fill="none" stroke="none"/><text fill="" stroke="none" font-family="helvetica" font-size="8pt" font-style="normal" font-weight="normal" text-decoration="normal" x="0" y="0" text-anchor="start" dominant-baseline="text-after-edge">38.32%</text></g></g><g fill="#444444"><path fill="" stroke="none" d=""/><g transform="translate(399.21073909577495,412.21875) rotate(0,0,0)"><path fill="none" stroke="none"/><text fill="" stroke="none" font-family="helvetica" font-size="8pt" font-style="normal" font-weight="normal" text-decoration="normal" x="0" y="0" text-anchor="start" dominant-baseline="text-after-edge">35.83%</text></g></g><g fill="#444444"><path fill="" stroke="none" d=""/><g transform="translate(360.64821774285383,366.78125) rotate(0,0,0)"><path fill="none" stroke="none"/><text fill="" stroke="none" font-family="helvetica" font-size="8pt" font-style="normal" font-weight="normal" text-decoration="normal" x="0" y="0" text-anchor="start" dominant-baseline="text-after-edge">28.64%</text></g></g><g fill="#444444"><path fill="" stroke="none" d=""/><g transform="translate(357.4239266598337,321.34375) rotate(0,0,0)"><path fill="none" stroke="none"/><text fill="" stroke="none" font-family="helvetica" font-size="8pt" font-style="normal" font-weight="normal" text-decoration="normal" x="0" y="0" text-anchor="start" dominant-baseline="text-after-edge">28.04%</text></g></g><g fill="#444444"><path fill="" stroke="none" d=""/><g transform="translate(338.809019473864,275.90625) rotate(0,0,0)"><path fill="none" stroke="none"/><text fill="" stroke="none" font-family="helvetica" font-size="8pt" font-style="normal" font-weight="normal" text-decoration="normal" x="0" y="0" text-anchor="start" dominant-baseline="text-after-edge">24.57%</text></g></g><g fill="#444444"><path fill="" stroke="none" d=""/><g transform="translate(338.5080856394488,230.46875) rotate(0,0,0)"><path fill="none" stroke="none"/><text fill="" stroke="none" font-family="helvetica" font-size="8pt" font-style="normal" font-weight="normal" text-decoration="normal" x="0" y="0" text-anchor="start" dominant-baseline="text-after-edge">24.52%</text></g></g><g fill="#444444"><path fill="" stroke="none" d=""/><g transform="translate(332.7043616900125,185.03125) rotate(0,0,0)"><path fill="none" stroke="none"/><text fill="" stroke="none" font-family="helvetica" font-size="8pt" font-style="normal" font-weight="normal" text-decoration="normal" x="0" y="0" text-anchor="start" dominant-baseline="text-after-edge">23.44%</text></g></g><g fill="#444444"><path fill="" stroke="none" d=""/><g transform="translate(312.2408609497779,139.59375) rotate(0,0,0)"><path fill="none" stroke="none"/><text fill="" stroke="none" font-family="helvetica" font-size="8pt" font-style="normal" font-weight="normal" text-decoration="normal" x="0" y="0" text-anchor="start" dominant-baseline="text-after-edge">19.62%</text></g></g><g fill="#444444"><path fill="" stroke="none" d=""/><g transform="translate(305.749288235964,94.15625) rotate(0,0,0)"><path fill="none" stroke="none"/><text fill="" stroke="none" font-family="helvetica" font-size="8pt" font-style="normal" font-weight="normal" text-decoration="normal" x="0" y="0" text-anchor="start" dominant-baseline="text-after-edge">18.41%</text></g></g><g fill="#444444"><path fill="" stroke="none" d=""/><g transform="translate(239.7158068557112,48.71875) rotate(0,0,0)"><path fill="none" stroke="none"/><text fill="" stroke="none" font-family="helvetica" font-size="8pt" font-style="normal" font-weight="normal" text-decoration="normal" x="0" y="0" text-anchor="start" dominant-baseline="text-after-edge">6.10%</text></g></g><g fill="#444444"><path fill="" stroke="none" d=""/><g transform="translate(582.3504726113199,744.28125) rotate(0,0,0)"><path fill="none" stroke="none"/><text fill="" stroke="none" font-family="helvetica" font-size="8pt" font-style="normal" font-weight="normal" text-decoration="normal" x="0" y="0" text-anchor="start" dominant-baseline="text-after-edge">8731</text></g></g><g fill="#444444"><path fill="" stroke="none" d=""/><g transform="translate(577.1056257829404,698.84375) rotate(0,0,0)"><path fill="none" stroke="none"/><text fill="" stroke="none" font-family="helvetica" font-size="8pt" font-style="normal" font-weight="normal" text-decoration="normal" x="0" y="0" text-anchor="start" dominant-baseline="text-after-edge">8609</text></g></g><g fill="#444444"><path fill="" stroke="none" d=""/><g transform="translate(525.731921193486,653.40625) rotate(0,0,0)"><path fill="none" stroke="none"/><text fill="" stroke="none" font-family="helvetica" font-size="8pt" font-style="normal" font-weight="normal" text-decoration="normal" x="0" y="0" text-anchor="start" dominant-baseline="text-after-edge">7414</text></g></g><g fill="#444444"><path fill="" stroke="none" d=""/><g transform="translate(454.5825646281744,607.96875) rotate(0,0,0)"><path fill="none" stroke="none"/><text fill="" stroke="none" font-family="helvetica" font-size="8pt" font-style="normal" font-weight="normal" text-decoration="normal" x="0" y="0" text-anchor="start" dominant-baseline="text-after-edge">5759</text></g></g><g fill="#444444"><path fill="" stroke="none" d=""/><g transform="translate(453.4648103860608,562.53125) rotate(0,0,0)"><path fill="none" stroke="none"/><text fill="" stroke="none" font-family="helvetica" font-size="8pt" font-style="normal" font-weight="normal" text-decoration="normal" x="0" y="0" text-anchor="start" dominant-baseline="text-after-edge">5733</text></g></g><g fill="#444444"><path fill="" stroke="none" d=""/><g transform="translate(447.0162282200205,517.09375) rotate(0,0,0)"><path fill="none" stroke="none"/><text fill="" stroke="none" font-family="helvetica" font-size="8pt" font-style="normal" font-weight="normal" text-decoration="normal" x="0" y="0" text-anchor="start" dominant-baseline="text-after-edge">5583</text></g></g><g fill="#444444"><path fill="" stroke="none" d=""/><g transform="translate(412.5378089055916,471.65625) rotate(0,0,0)"><path fill="none" stroke="none"/><text fill="" stroke="none" font-family="helvetica" font-size="8pt" font-style="normal" font-weight="normal" text-decoration="normal" x="0" y="0" text-anchor="start" dominant-baseline="text-after-edge">4781</text></g></g><g fill="#444444"><path fill="" stroke="none" d=""/><g transform="translate(399.21073909577495,426.21875) rotate(0,0,0)"><path fill="none" stroke="none"/><text fill="" stroke="none" font-family="helvetica" font-size="8pt" font-style="normal" font-weight="normal" text-decoration="normal" x="0" y="0" text-anchor="start" dominant-baseline="text-after-edge">4471</text></g></g><g fill="#444444"><path fill="" stroke="none" d=""/><g transform="translate(360.64821774285383,380.78125) rotate(0,0,0)"><path fill="none" stroke="none"/><text fill="" stroke="none" font-family="helvetica" font-size="8pt" font-style="normal" font-weight="normal" text-decoration="normal" x="0" y="0" text-anchor="start" dominant-baseline="text-after-edge">3574</text></g></g><g fill="#444444"><path fill="" stroke="none" d=""/><g transform="translate(357.4239266598337,335.34375) rotate(0,0,0)"><path fill="none" stroke="none"/><text fill="" stroke="none" font-family="helvetica" font-size="8pt" font-style="normal" font-weight="normal" text-decoration="normal" x="0" y="0" text-anchor="start" dominant-baseline="text-after-edge">3499</text></g></g><g fill="#444444"><path fill="" stroke="none" d=""/><g transform="translate(338.809019473864,289.90625) rotate(0,0,0)"><path fill="none" stroke="none"/><text fill="" stroke="none" font-family="helvetica" font-size="8pt" font-style="normal" font-weight="normal" text-decoration="normal" x="0" y="0" text-anchor="start" dominant-baseline="text-after-edge">3066</text></g></g><g fill="#444444"><path fill="" stroke="none" d=""/><g transform="translate(338.5080856394488,244.46875) rotate(0,0,0)"><path fill="none" stroke="none"/><text fill="" stroke="none" font-family="helvetica" font-size="8pt" font-style="normal" font-weight="normal" text-decoration="normal" x="0" y="0" text-anchor="start" dominant-baseline="text-after-edge">3059</text></g></g><g fill="#444444"><path fill="" stroke="none" d=""/><g transform="translate(332.7043616900125,199.03125) rotate(0,0,0)"><path fill="none" stroke="none"/><text fill="" stroke="none" font-family="helvetica" font-size="8pt" font-style="normal" font-weight="normal" text-decoration="normal" x="0" y="0" text-anchor="start" dominant-baseline="text-after-edge">2924</text></g></g><g fill="#444444"><path fill="" stroke="none" d=""/><g transform="translate(312.2408609497779,153.59375) rotate(0,0,0)"><path fill="none" stroke="none"/><text fill="" stroke="none" font-family="helvetica" font-size="8pt" font-style="normal" font-weight="normal" text-decoration="normal" x="0" y="0" text-anchor="start" dominant-baseline="text-after-edge">2448</text></g></g><g fill="#444444"><path fill="" stroke="none" d=""/><g transform="translate(305.749288235964,108.15625) rotate(0,0,0)"><path fill="none" stroke="none"/><text fill="" stroke="none" font-family="helvetica" font-size="8pt" font-style="normal" font-weight="normal" text-decoration="normal" x="0" y="0" text-anchor="start" dominant-baseline="text-after-edge">2297</text></g></g><g fill="#444444"><path fill="" stroke="none" d=""/><g transform="translate(239.7158068557112,62.71875) rotate(0,0,0)"><path fill="none" stroke="none"/><text fill="" stroke="none" font-family="helvetica" font-size="8pt" font-style="normal" font-weight="normal" text-decoration="normal" x="0" y="0" text-anchor="start" dominant-baseline="text-after-edge">761</text></g></g></g><g/><g><g fill="#444444"><path fill="none" stroke="black" paint-order="fill stroke markers" d=" M 197 755 L 650 755" stroke-miterlimit="10"/><path fill="none" stroke="black" paint-order="fill stroke markers" d=" M 197 761 L 197 753" stroke-miterlimit="10"/><path fill="none" stroke="black" paint-order="fill stroke markers" d=" M 283 761 L 283 753" stroke-miterlimit="10"/><path fill="none" stroke="black" paint-order="fill stroke markers" d=" M 369 761 L 369 753" stroke-miterlimit="10"/><path fill="none" stroke="black" paint-order="fill stroke markers" d=" M 455 761 L 455 753" stroke-miterlimit="10"/><path fill="none" stroke="black" paint-order="fill stroke markers" d=" M 541 761 L 541 753" stroke-miterlimit="10"/><path fill="none" stroke="black" paint-order="fill stroke markers" d=" M 627 761 L 627 753" stroke-miterlimit="10"/><path fill="none" stroke="black" paint-order="fill stroke markers" d=" M 197 759 L 197 755" stroke-miterlimit="10"/><path fill="none" stroke="black" paint-order="fill stroke markers" d=" M 214 759 L 214 755" stroke-miterlimit="10"/><path fill="none" stroke="black" paint-order="fill stroke markers" d=" M 231 759 L 231 755" stroke-miterlimit="10"/><path fill="none" stroke="black" paint-order="fill stroke markers" d=" M 249 759 L 249 755" stroke-miterlimit="10"/><path fill="none" stroke="black" paint-order="fill stroke markers" d=" M 266 759 L 266 755" stroke-miterlimit="10"/><path fill="none" stroke="black" paint-order="fill stroke markers" d=" M 283 759 L 283 755" stroke-miterlimit="10"/><path fill="none" stroke="black" paint-order="fill stroke markers" d=" M 300 759 L 300 755" stroke-miterlimit="10"/><path fill="none" stroke="black" paint-order="fill stroke markers" d=" M 317 759 L 317 755" stroke-miterlimit="10"/><path fill="none" stroke="black" paint-order="fill stroke markers" d=" M 335 759 L 335 755" stroke-miterlimit="10"/><path fill="none" stroke="black" paint-order="fill stroke markers" d=" M 352 759 L 352 755" stroke-miterlimit="10"/><path fill="none" stroke="black" paint-order="fill stroke markers" d=" M 369 759 L 369 755" stroke-miterlimit="10"/><path fill="none" stroke="black" paint-order="fill stroke markers" d=" M 386 759 L 386 755" stroke-miterlimit="10"/><path fill="none" stroke="black" paint-order="fill stroke markers" d=" M 403 759 L 403 755" stroke-miterlimit="10"/><path fill="none" stroke="black" paint-order="fill stroke markers" d=" M 421 759 L 421 755" stroke-miterlimit="10"/><path fill="none" stroke="black" paint-order="fill stroke markers" d=" M 438 759 L 438 755" stroke-miterlimit="10"/><path fill="none" stroke="black" paint-order="fill stroke markers" d=" M 455 759 L 455 755" stroke-miterlimit="10"/><path fill="none" stroke="black" paint-order="fill stroke markers" d=" M 472 759 L 472 755" stroke-miterlimit="10"/><path fill="none" stroke="black" paint-order="fill stroke markers" d=" M 489 759 L 489 755" stroke-miterlimit="10"/><path fill="none" stroke="black" paint-order="fill stroke markers" d=" M 507 759 L 507 755" stroke-miterlimit="10"/><path fill="none" stroke="black" paint-order="fill stroke markers" d=" M 524 759 L 524 755" stroke-miterlimit="10"/><path fill="none" stroke="black" paint-order="fill stroke markers" d=" M 541 759 L 541 755" stroke-miterlimit="10"/><path fill="none" stroke="black" paint-order="fill stroke markers" d=" M 558 759 L 558 755" stroke-miterlimit="10"/><path fill="none" stroke="black" paint-order="fill stroke markers" d=" M 575 759 L 575 755" stroke-miterlimit="10"/><path fill="none" stroke="black" paint-order="fill stroke markers" d=" M 593 759 L 593 755" stroke-miterlimit="10"/><path fill="none" stroke="black" paint-order="fill stroke markers" d=" M 610 759 L 610 755" stroke-miterlimit="10"/><path fill="none" stroke="black" paint-order="fill stroke markers" d=" M 627 759 L 627 755" stroke-miterlimit="10"/><path fill="" stroke="black" paint-order="fill stroke markers" d=" M 644 759 L 644 755" stroke-miterlimit="10"/><g transform="translate(197,766) rotate(0,0,0)"><text fill="" stroke="none" font-family="helvetica" font-size="8pt" font-style="normal" font-weight="normal" text-decoration="normal" x="0" y="0" text-anchor="middle" dominant-baseline="hanging">0</text><g transform="rotate(0,0,0) translate(-197,-766) translate(283,766) rotate(0,0,0)"><text fill="" stroke="none" font-family="helvetica" font-size="8pt" font-style="normal" font-weight="normal" text-decoration="normal" x="0" y="0" text-anchor="middle" dominant-baseline="hanging">2000</text><g transform="rotate(0,0,0) translate(-283,-766) translate(369,766) rotate(0,0,0)"><text fill="" stroke="none" font-family="helvetica" font-size="8pt" font-style="normal" font-weight="normal" text-decoration="normal" x="0" y="0" text-anchor="middle" dominant-baseline="hanging">4000</text><g transform="rotate(0,0,0) translate(-369,-766) translate(455,766) rotate(0,0,0)"><text fill="" stroke="none" font-family="helvetica" font-size="8pt" font-style="normal" font-weight="normal" text-decoration="normal" x="0" y="0" text-anchor="middle" dominant-baseline="hanging">6000</text><g transform="rotate(0,0,0) translate(-455,-766) translate(541,766) rotate(0,0,0)"><text fill="" stroke="none" font-family="helvetica" font-size="8pt" font-style="normal" font-weight="normal" text-decoration="normal" x="0" y="0" text-anchor="middle" dominant-baseline="hanging">8000</text><g transform="rotate(0,0,0) translate(-541,-766) translate(627,766) rotate(0,0,0)"><text fill="" stroke="none" font-family="helvetica" font-size="8pt" font-style="normal" font-weight="normal" text-decoration="normal" x="0" y="0" text-anchor="middle" dominant-baseline="hanging">10000</text><g transform="rotate(0,0,0) translate(-627,-766) translate(424,784) rotate(0,0,0)"><text fill="" stroke="none" font-family="helvetica" font-size="10pt" font-style="italic" font-weight="normal" text-decoration="normal" x="0" y="0" text-anchor="middle" dominant-baseline="hanging">Respondents</text><g transform="rotate(0,0,0) translate(-424,-784)"/></g></g></g></g></g></g></g></g><g fill="#444444"><path fill="none" stroke="black" paint-order="fill stroke markers" d=" M 197 755 L 197 28" stroke-miterlimit="10"/><path fill="none" stroke="black" paint-order="fill stroke markers" d=" M 191 732 L 199 732" stroke-miterlimit="10"/><path fill="none" stroke="black" paint-order="fill stroke markers" d=" M 191 687 L 199 687" stroke-miterlimit="10"/><path fill="none" stroke="black" paint-order="fill stroke markers" d=" M 191 641 L 199 641" stroke-miterlimit="10"/><path fill="none" stroke="black" paint-order="fill stroke markers" d=" M 191 596 L 199 596" stroke-miterlimit="10"/><path fill="none" stroke="black" paint-order="fill stroke markers" d=" M 191 551 L 199 551" stroke-miterlimit="10"/><path fill="none" stroke="black" paint-order="fill stroke markers" d=" M 191 505 L 199 505" stroke-miterlimit="10"/><path fill="none" stroke="black" paint-order="fill stroke markers" d=" M 191 460 L 199 460" stroke-miterlimit="10"/><path fill="none" stroke="black" paint-order="fill stroke markers" d=" M 191 414 L 199 414" stroke-miterlimit="10"/><path fill="none" stroke="black" paint-order="fill stroke markers" d=" M 191 369 L 199 369" stroke-miterlimit="10"/><path fill="none" stroke="black" paint-order="fill stroke markers" d=" M 191 323 L 199 323" stroke-miterlimit="10"/><path fill="none" stroke="black" paint-order="fill stroke markers" d=" M 191 278 L 199 278" stroke-miterlimit="10"/><path fill="none" stroke="black" paint-order="fill stroke markers" d=" M 191 232 L 199 232" stroke-miterlimit="10"/><path fill="none" stroke="black" paint-order="fill stroke markers" d=" M 191 187 L 199 187" stroke-miterlimit="10"/><path fill="none" stroke="black" paint-order="fill stroke markers" d=" M 191 142 L 199 142" stroke-miterlimit="10"/><path fill="none" stroke="black" paint-order="fill stroke markers" d=" M 191 96 L 199 96" stroke-miterlimit="10"/><path fill="" stroke="black" paint-order="fill stroke markers" d=" M 191 51 L 199 51" stroke-miterlimit="10"/><g transform="translate(186,732) rotate(0,0,0)"><text fill="" stroke="none" font-family="helvetica" font-size="8pt" font-style="normal" font-weight="normal" text-decoration="normal" x="0" y="0" text-anchor="end" dominant-baseline="central">Paid Time Off</text><g transform="rotate(0,0,0) translate(-186,-732) translate(186,687) rotate(0,0,0)"><text fill="" stroke="none" font-family="helvetica" font-size="8pt" font-style="normal" font-weight="normal" text-decoration="normal" x="0" y="0" text-anchor="end" dominant-baseline="central">Medical Insurance</text><g transform="rotate(0,0,0) translate(-186,-687) translate(186,641) rotate(0,0,0)"><text fill="" stroke="none" font-family="helvetica" font-size="8pt" font-style="normal" font-weight="normal" text-decoration="normal" x="0" y="0" text-anchor="end" dominant-baseline="central">Dental Insurance</text><g transform="rotate(0,0,0) translate(-186,-641) translate(186,596) rotate(0,0,0)"><text fill="" stroke="none" font-family="helvetica" font-size="8pt" font-style="normal" font-weight="normal" text-decoration="normal" x="0" y="0" text-anchor="end" dominant-baseline="central">Employer-matched Retirement</text><g transform="rotate(0,0,0) translate(-186,-596) translate(186,551) rotate(0,0,0)"><text fill="" stroke="none" font-family="helvetica" font-size="8pt" font-style="normal" font-weight="normal" text-decoration="normal" x="0" y="0" text-anchor="end" dominant-baseline="central">Life Insurance</text><g transform="rotate(0,0,0) translate(-186,-551) translate(186,505) rotate(0,0,0)"><text fill="" stroke="none" font-family="helvetica" font-size="8pt" font-style="normal" font-weight="normal" text-decoration="normal" x="0" y="0" text-anchor="end" dominant-baseline="central">Professional Development</text><g transform="rotate(0,0,0) translate(-186,-505) translate(186,460) rotate(0,0,0)"><text fill="" stroke="none" font-family="helvetica" font-size="8pt" font-style="normal" font-weight="normal" text-decoration="normal" x="0" y="0" text-anchor="end" dominant-baseline="central">Paid Parental Leave</text><g transform="rotate(0,0,0) translate(-186,-460) translate(186,414) rotate(0,0,0)"><text fill="" stroke="none" font-family="helvetica" font-size="8pt" font-style="normal" font-weight="normal" text-decoration="normal" x="0" y="0" text-anchor="end" dominant-baseline="central">Disability Insurance</text><g transform="rotate(0,0,0) translate(-186,-414) translate(186,369) rotate(0,0,0)"><text fill="" stroke="none" font-family="helvetica" font-size="8pt" font-style="normal" font-weight="normal" text-decoration="normal" x="0" y="0" text-anchor="end" dominant-baseline="central">Wellness Programs</text><g transform="rotate(0,0,0) translate(-186,-369) translate(186,323) rotate(0,0,0)"><text fill="" stroke="none" font-family="helvetica" font-size="8pt" font-style="normal" font-weight="normal" text-decoration="normal" x="0" y="0" text-anchor="end" dominant-baseline="central">Fitness Benefits</text><g transform="rotate(0,0,0) translate(-186,-323) translate(186,278) rotate(0,0,0)"><text fill="" stroke="none" font-family="helvetica" font-size="8pt" font-style="normal" font-weight="normal" text-decoration="normal" x="0" y="0" text-anchor="end" dominant-baseline="central">Commuting Benefits</text><g transform="rotate(0,0,0) translate(-186,-278) translate(186,232) rotate(0,0,0)"><text fill="" stroke="none" font-family="helvetica" font-size="8pt" font-style="normal" font-weight="normal" text-decoration="normal" x="0" y="0" text-anchor="end" dominant-baseline="central">Education Funding</text><g transform="rotate(0,0,0) translate(-186,-232) translate(186,187) rotate(0,0,0)"><text fill="" stroke="none" font-family="helvetica" font-size="8pt" font-style="normal" font-weight="normal" text-decoration="normal" x="0" y="0" text-anchor="end" dominant-baseline="central">Profit Sharing or Stock Options</text><g transform="rotate(0,0,0) translate(-186,-187) translate(186,142) rotate(0,0,0)"><text fill="" stroke="none" font-family="helvetica" font-size="8pt" font-style="normal" font-weight="normal" text-decoration="normal" x="0" y="0" text-anchor="end" dominant-baseline="central">Professional Memberships</text><g transform="rotate(0,0,0) translate(-186,-142) translate(186,96) rotate(0,0,0)"><text fill="" stroke="none" font-family="helvetica" font-size="8pt" font-style="normal" font-weight="normal" text-decoration="normal" x="0" y="0" text-anchor="end" dominant-baseline="central">None of these</text><g transform="rotate(0,0,0) translate(-186,-96) translate(186,51) rotate(0,0,0)"><text fill="" stroke="none" font-family="helvetica" font-size="8pt" font-style="normal" font-weight="normal" text-decoration="normal" x="0" y="0" text-anchor="end" dominant-baseline="central">Child Care</text><g transform="rotate(0,0,0) translate(-186,-51) translate(15,392) rotate(-90,0,0)"><text fill="" stroke="none" font-family="helvetica" font-size="10pt" font-style="italic" font-weight="normal" text-decoration="normal" x="0" y="0" text-anchor="middle" dominant-baseline="alphabetic">Categories</text><g transform="rotate(90,0,0) translate(-15,-392)"/></g></g></g></g></g></g></g></g></g></g></g></g></g></g></g></g></g></g><g fill="#444444"><path fill="" stroke="none" d=""/><g transform="translate(197,23)"><path fill="none" stroke="none"/><text fill="" stroke="none" font-family="helvetica" font-size="10pt" font-style="normal" font-weight="bold" text-decoration="normal" x="0" y="0" text-anchor="start" dominant-baseline="text-after-edge">All: My job provides:</text></g></g></g></g></g></svg>