<svg version="1.1" xmlns="http://www.w3.org/2000/svg" xmlns:xlink="http://www.w3.org/1999/xlink" width="700" height="800" style="width: 700px; height: 800px;"><defs/><g><g transform="scale(1,1) translate(0.5,0.5)"><rect fill="#FFFFFF" stroke="none" x="0" y="0" width="700" height="800"/><rect fill="#ffffff" stroke="none" x="0" y="0" width="700" height="800"/><rect fill="#FFFFFF" stroke="none" x="178" y="28" width="472" height="727"/><rect fill="#ffffff" stroke="none" x="178" y="28" width="472" height="727"/><g><rect fill="none" stroke="#e5e5e5" x="178" y="28" width="472" height="727" stroke-miterlimit="10"/></g><g><g><path fill="none" stroke="#e5e5e5" paint-order="fill stroke markers" d=" M 248 755 L 248 28" stroke-miterlimit="10"/><path fill="none" stroke="#e5e5e5" paint-order="fill stroke markers" d=" M 318 755 L 318 28" stroke-miterlimit="10"/><path fill="none" stroke="#e5e5e5" paint-order="fill stroke markers" d=" M 388 755 L 388 28" stroke-miterlimit="10"/><path fill="none" stroke="#e5e5e5" paint-order="fill stroke markers" d=" M 458 755 L 458 28" stroke-miterlimit="10"/><path fill="none" stroke="#e5e5e5" paint-order="fill stroke markers" d=" M 528 755 L 528 28" stroke-miterlimit="10"/><path fill="none" stroke="#e5e5e5" paint-order="fill stroke markers" d=" M 598 755 L 598 28" stroke-miterlimit="10"/></g><g><path fill="none" stroke="#e5e5e5" paint-order="fill stroke markers" d=" M 178 732 L 650 732" stroke-miterlimit="10"/><path fill="none" stroke="#e5e5e5" paint-order="fill stroke markers" d=" M 178 687 L 650 687" stroke-miterlimit="10"/><path fill="none" stroke="#e5e5e5" paint-order="fill stroke markers" d=" M 178 641 L 650 641" stroke-miterlimit="10"/><path fill="none" stroke="#e5e5e5" paint-order="fill stroke markers" d=" M 178 596 L 650 596" stroke-miterlimit="10"/><path fill="none" stroke="#e5e5e5" paint-order="fill stroke markers" d=" M 178 551 L 650 551" stroke-miterlimit="10"/><path fill="none" stroke="#e5e5e5" paint-order="fill stroke markers" d=" M 178 505 L 650 505" stroke-miterlimit="10"/><path fill="none" stroke="#e5e5e5" paint-order="fill stroke markers" d=" M 178 460 L 650 460" stroke-miterlimit="10"/><path fill="none" stroke="#e5e5e5" paint-order="fill stroke markers" d=" M 178 414 L 650 414" stroke-miterlimit="10"/><path fill="none" stroke="#e5e5e5" paint-order="fill stroke markers" d=" M 178 369 L 650 369" stroke-miterlimit="10"/><path fill="none" stroke="#e5e5e5" paint-order="fill stroke markers" d=" M 178 323 L 650 323" stroke-miterlimit="10"/><path fill="none" stroke="#e5e5e5" paint-order="fill stroke markers" d=" M 178 278 L 650 278" stroke-miterlimit="10"/><path fill="none" stroke="#e5e5e5" paint-order="fill stroke markers" d=" M 178 232 L 650 232" stroke-miterlimit="10"/><path fill="none" stroke="#e5e5e5" paint-order="fill stroke markers" d=" M 178 187 L 650 187" stroke-miterlimit="10"/><path fill="none" stroke="#e5e5e5" paint-order="fill stroke markers" d=" M 178 142 L 650 142" stroke-miterlimit="10"/><path fill="none" stroke="#e5e5e5" paint-order="fill stroke markers" d=" M 178 96 L 650 96" stroke-miterlimit="10"/><path fill="none" stroke="#e5e5e5" paint-order="fill stroke markers" d=" M 178 51 L 650 51" stroke-miterlimit="10"/></g><g><path fill="none" stroke="none"/><rect fill="#1f77b4" stroke="none" x="178" y="715.2421875" width="386.329534662868" height="34.078125"/><path fill="none" stroke="#1f77b4" paint-order="fill stroke markers" d=" M 178 715.2421875 L 564.329534662868 715.2421875 L 564.329534662868 749.3203125 L 178 749.3203125 L 178 715.2421875 Z" stroke-miterlimit="10"/><rect fill="#1f77b4" stroke="none" x="178" y="669.8046875" width="99.59401709401709" height="34.078125"/><path fill="none" stroke="#1f77b4" paint-order="fill stroke markers" d=" M 178 669.8046875 L 277.5940170940171 669.8046875 L 277.5940170940171 703.8828125 L 178 703.8828125 L 178 669.8046875 Z" stroke-miterlimit="10"/><rect fill="#1f77b4" stroke="none" x="178" y="624.3671875" width="78.58262108262107" height="34.078125"/><path fill="none" stroke="#1f77b4" paint-order="fill stroke markers" d=" M 178 624.3671875 L 256.5826210826211 624.3671875 L 256.5826210826211 658.4453125 L 178 658.4453125 L 178 624.3671875 Z" stroke-miterlimit="10"/><rect fill="#1f77b4" stroke="none" x="178" y="578.9296875" width="78.30246913580248" height="34.078125"/><path fill="none" stroke="#1f77b4" paint-order="fill stroke markers" d=" M 178 578.9296875 L 256.3024691358025 578.9296875 L 256.3024691358025 613.0078125 L 178 613.0078125 L 178 578.9296875 Z" stroke-miterlimit="10"/><rect fill="#1f77b4" stroke="none" x="178" y="533.4921875" width="72.83950617283949" height="34.078125"/><path fill="none" stroke="#1f77b4" paint-order="fill stroke markers" d=" M 178 533.4921875 L 250.8395061728395 533.4921875 L 250.8395061728395 567.5703125 L 178 567.5703125 L 178 533.4921875 Z" stroke-miterlimit="10"/><rect fill="#1f77b4" stroke="none" x="178" y="488.0546875" width="59.81244064577399" height="34.078125"/><path fill="none" stroke="#1f77b4" paint-order="fill stroke markers" d=" M 178 488.0546875 L 237.812440645774 488.0546875 L 237.812440645774 522.1328125 L 178 522.1328125 L 178 488.0546875 Z" stroke-miterlimit="10"/><rect fill="#1f77b4" stroke="none" x="178" y="442.6171875" width="17.929724596391253" height="34.078125"/><path fill="none" stroke="#1f77b4" paint-order="fill stroke markers" d=" M 178 442.6171875 L 195.92972459639125 442.6171875 L 195.92972459639125 476.6953125 L 178 476.6953125 L 178 442.6171875 Z" stroke-miterlimit="10"/><rect fill="#1f77b4" stroke="none" x="178" y="397.1796875" width="10.225546058879388" height="34.078125"/><path fill="none" stroke="#1f77b4" paint-order="fill stroke markers" d=" M 178 397.1796875 L 188.2255460588794 397.1796875 L 188.2255460588794 431.2578125 L 178 431.2578125 L 178 397.1796875 Z" stroke-miterlimit="10"/><rect fill="#1f77b4" stroke="none" x="178" y="351.7421875" width="8.4045584045584" height="34.078125"/><path fill="none" stroke="#1f77b4" paint-order="fill stroke markers" d=" M 178 351.7421875 L 186.4045584045584 351.7421875 L 186.4045584045584 385.8203125 L 178 385.8203125 L 178 351.7421875 Z" stroke-miterlimit="10"/><rect fill="#1f77b4" stroke="none" x="178" y="306.3046875" width="6.3034188034187935" height="34.078125"/><path fill="none" stroke="#1f77b4" paint-order="fill stroke markers" d=" M 178 306.3046875 L 184.3034188034188 306.3046875 L 184.3034188034188 340.3828125 L 178 340.3828125 L 178 306.3046875 Z" stroke-miterlimit="10"/><rect fill="#1f77b4" stroke="none" x="178" y="260.8671875" width="0.14007597340929578" height="34.078125"/><path fill="none" stroke="#1f77b4" paint-order="fill stroke markers" d=" M 178 260.8671875 L 178.1400759734093 260.8671875 L 178.1400759734093 294.9453125 L 178 294.9453125 L 178 260.8671875 Z" stroke-miterlimit="10"/><rect fill="#1f77b4" stroke="none" x="178" y="215.4296875" width="0.14007597340929578" height="34.078125"/><path fill="none" stroke="#1f77b4" paint-order="fill stroke markers" d=" M 178 215.4296875 L 178.1400759734093 215.4296875 L 178.1400759734093 249.5078125 L 178 249.5078125 L 178 215.4296875 Z" stroke-miterlimit="10"/><rect fill="#1f77b4" stroke="none" x="178" y="169.9921875" width="0.14007597340929578" height="34.078125"/><path fill="none" stroke="#1f77b4" paint-order="fill stroke markers" d=" M 178 169.9921875 L 178.1400759734093 169.9921875 L 178.1400759734093 204.0703125 L 178 204.0703125 L 178 169.9921875 Z" stroke-miterlimit="10"/><rect fill="#1f77b4" stroke="none" x="178" y="124.5546875" width="0.14007597340929578" height="34.078125"/><path fill="none" stroke="#1f77b4" paint-order="fill stroke markers" d=" M 178 124.5546875 L 178.1400759734093 124.5546875 L 178.1400759734093 158.6328125 L 178 158.6328125 L 178 124.5546875 Z" stroke-miterlimit="10"/><rect fill="#1f77b4" stroke="none" x="178" y="79.1171875" width="0.14007597340929578" height="34.078125"/><path fill="none" stroke="#1f77b4" paint-order="fill stroke markers" d=" M 178 79.1171875 L 178.1400759734093 79.1171875 L 178.1400759734093 113.1953125 L 178 113.1953125 L 178 79.1171875 Z" stroke-miterlimit="10"/><rect fill="#1f77b4" stroke="none" x="178" y="33.6796875" width="0.14007597340929578" height="34.078125"/><path fill="none" stroke="#1f77b4" paint-order="fill stroke markers" d=" M 178 33.6796875 L 178.1400759734093 33.6796875 L 178.1400759734093 67.7578125 L 178 67.7578125 L 178 33.6796875 Z" stroke-miterlimit="10"/></g><g fill="#444444"><path fill="" stroke="none" d=""/><g transform="translate(574.329534662868,730.28125) rotate(0,0,0)"><path fill="none" stroke="none"/><text fill="" stroke="none" font-family="helvetica" font-size="8pt" font-style="normal" font-weight="normal" text-decoration="normal" x="0" y="0" text-anchor="start" dominant-baseline="text-after-edge">22.10%</text></g></g><g fill="#444444"><path fill="" stroke="none" d=""/><g transform="translate(287.5940170940171,684.84375) rotate(0,0,0)"><path fill="none" stroke="none"/><text fill="" stroke="none" font-family="helvetica" font-size="8pt" font-style="normal" font-weight="normal" text-decoration="normal" x="0" y="0" text-anchor="start" dominant-baseline="text-after-edge">5.70%</text></g></g><g fill="#444444"><path fill="" stroke="none" d=""/><g transform="translate(266.5826210826211,639.40625) rotate(0,0,0)"><path fill="none" stroke="none"/><text fill="" stroke="none" font-family="helvetica" font-size="8pt" font-style="normal" font-weight="normal" text-decoration="normal" x="0" y="0" text-anchor="start" dominant-baseline="text-after-edge">4.50%</text></g></g><g fill="#444444"><path fill="" stroke="none" d=""/><g transform="translate(266.3024691358025,593.96875) rotate(0,0,0)"><path fill="none" stroke="none"/><text fill="" stroke="none" font-family="helvetica" font-size="8pt" font-style="normal" font-weight="normal" text-decoration="normal" x="0" y="0" text-anchor="start" dominant-baseline="text-after-edge">4.48%</text></g></g><g fill="#444444"><path fill="" stroke="none" d=""/><g transform="translate(260.8395061728395,548.53125) rotate(0,0,0)"><path fill="none" stroke="none"/><text fill="" stroke="none" font-family="helvetica" font-size="8pt" font-style="normal" font-weight="normal" text-decoration="normal" x="0" y="0" text-anchor="start" dominant-baseline="text-after-edge">4.17%</text></g></g><g fill="#444444"><path fill="" stroke="none" d=""/><g transform="translate(247.812440645774,503.09375) rotate(0,0,0)"><path fill="none" stroke="none"/><text fill="" stroke="none" font-family="helvetica" font-size="8pt" font-style="normal" font-weight="normal" text-decoration="normal" x="0" y="0" text-anchor="start" dominant-baseline="text-after-edge">3.42%</text></g></g><g fill="#444444"><path fill="" stroke="none" d=""/><g transform="translate(205.92972459639125,457.65625) rotate(0,0,0)"><path fill="none" stroke="none"/><text fill="" stroke="none" font-family="helvetica" font-size="8pt" font-style="normal" font-weight="normal" text-decoration="normal" x="0" y="0" text-anchor="start" dominant-baseline="text-after-edge">1.03%</text></g></g><g fill="#444444"><path fill="" stroke="none" d=""/><g transform="translate(198.2255460588794,412.21875) rotate(0,0,0)"><path fill="none" stroke="none"/><text fill="" stroke="none" font-family="helvetica" font-size="8pt" font-style="normal" font-weight="normal" text-decoration="normal" x="0" y="0" text-anchor="start" dominant-baseline="text-after-edge">0.59%</text></g></g><g fill="#444444"><path fill="" stroke="none" d=""/><g transform="translate(196.4045584045584,366.78125) rotate(0,0,0)"><path fill="none" stroke="none"/><text fill="" stroke="none" font-family="helvetica" font-size="8pt" font-style="normal" font-weight="normal" text-decoration="normal" x="0" y="0" text-anchor="start" dominant-baseline="text-after-edge">0.48%</text></g></g><g fill="#444444"><path fill="" stroke="none" d=""/><g transform="translate(194.3034188034188,321.34375) rotate(0,0,0)"><path fill="none" stroke="none"/><text fill="" stroke="none" font-family="helvetica" font-size="8pt" font-style="normal" font-weight="normal" text-decoration="normal" x="0" y="0" text-anchor="start" dominant-baseline="text-after-edge">0.36%</text></g></g><g fill="#444444"><path fill="" stroke="none" d=""/><g transform="translate(188.1400759734093,275.90625) rotate(0,0,0)"><path fill="none" stroke="none"/><text fill="" stroke="none" font-family="helvetica" font-size="8pt" font-style="normal" font-weight="normal" text-decoration="normal" x="0" y="0" text-anchor="start" dominant-baseline="text-after-edge">0.01%</text></g></g><g fill="#444444"><path fill="" stroke="none" d=""/><g transform="translate(188.1400759734093,230.46875) rotate(0,0,0)"><path fill="none" stroke="none"/><text fill="" stroke="none" font-family="helvetica" font-size="8pt" font-style="normal" font-weight="normal" text-decoration="normal" x="0" y="0" text-anchor="start" dominant-baseline="text-after-edge">0.01%</text></g></g><g fill="#444444"><path fill="" stroke="none" d=""/><g transform="translate(188.1400759734093,185.03125) rotate(0,0,0)"><path fill="none" stroke="none"/><text fill="" stroke="none" font-family="helvetica" font-size="8pt" font-style="normal" font-weight="normal" text-decoration="normal" x="0" y="0" text-anchor="start" dominant-baseline="text-after-edge">0.01%</text></g></g><g fill="#444444"><path fill="" stroke="none" d=""/><g transform="translate(188.1400759734093,139.59375) rotate(0,0,0)"><path fill="none" stroke="none"/><text fill="" stroke="none" font-family="helvetica" font-size="8pt" font-style="normal" font-weight="normal" text-decoration="normal" x="0" y="0" text-anchor="start" dominant-baseline="text-after-edge">0.01%</text></g></g><g fill="#444444"><path fill="" stroke="none" d=""/><g transform="translate(188.1400759734093,94.15625) rotate(0,0,0)"><path fill="none" stroke="none"/><text fill="" stroke="none" font-family="helvetica" font-size="8pt" font-style="normal" font-weight="normal" text-decoration="normal" x="0" y="0" text-anchor="start" dominant-baseline="text-after-edge">0.01%</text></g></g><g fill="#444444"><path fill="" stroke="none" d=""/><g transform="translate(188.1400759734093,48.71875) rotate(0,0,0)"><path fill="none" stroke="none"/><text fill="" stroke="none" font-family="helvetica" font-size="8pt" font-style="normal" font-weight="normal" text-decoration="normal" x="0" y="0" text-anchor="start" dominant-baseline="text-after-edge">0.01%</text></g></g><g fill="#444444"><path fill="" stroke="none" d=""/><g transform="translate(574.329534662868,744.28125) rotate(0,0,0)"><path fill="none" stroke="none"/><text fill="" stroke="none" font-family="helvetica" font-size="8pt" font-style="normal" font-weight="normal" text-decoration="normal" x="0" y="0" text-anchor="start" dominant-baseline="text-after-edge">2758</text></g></g><g fill="#444444"><path fill="" stroke="none" d=""/><g transform="translate(287.5940170940171,698.84375) rotate(0,0,0)"><path fill="none" stroke="none"/><text fill="" stroke="none" font-family="helvetica" font-size="8pt" font-style="normal" font-weight="normal" text-decoration="normal" x="0" y="0" text-anchor="start" dominant-baseline="text-after-edge">711</text></g></g><g fill="#444444"><path fill="" stroke="none" d=""/><g transform="translate(266.5826210826211,653.40625) rotate(0,0,0)"><path fill="none" stroke="none"/><text fill="" stroke="none" font-family="helvetica" font-size="8pt" font-style="normal" font-weight="normal" text-decoration="normal" x="0" y="0" text-anchor="start" dominant-baseline="text-after-edge">561</text></g></g><g fill="#444444"><path fill="" stroke="none" d=""/><g transform="translate(266.3024691358025,607.96875) rotate(0,0,0)"><path fill="none" stroke="none"/><text fill="" stroke="none" font-family="helvetica" font-size="8pt" font-style="normal" font-weight="normal" text-decoration="normal" x="0" y="0" text-anchor="start" dominant-baseline="text-after-edge">559</text></g></g><g fill="#444444"><path fill="" stroke="none" d=""/><g transform="translate(260.8395061728395,562.53125) rotate(0,0,0)"><path fill="none" stroke="none"/><text fill="" stroke="none" font-family="helvetica" font-size="8pt" font-style="normal" font-weight="normal" text-decoration="normal" x="0" y="0" text-anchor="start" dominant-baseline="text-after-edge">520</text></g></g><g fill="#444444"><path fill="" stroke="none" d=""/><g transform="translate(247.812440645774,517.09375) rotate(0,0,0)"><path fill="none" stroke="none"/><text fill="" stroke="none" font-family="helvetica" font-size="8pt" font-style="normal" font-weight="normal" text-decoration="normal" x="0" y="0" text-anchor="start" dominant-baseline="text-after-edge">427</text></g></g><g fill="#444444"><path fill="" stroke="none" d=""/><g transform="translate(205.92972459639125,471.65625) rotate(0,0,0)"><path fill="none" stroke="none"/><text fill="" stroke="none" font-family="helvetica" font-size="8pt" font-style="normal" font-weight="normal" text-decoration="normal" x="0" y="0" text-anchor="start" dominant-baseline="text-after-edge">128</text></g></g><g fill="#444444"><path fill="" stroke="none" d=""/><g transform="translate(198.2255460588794,426.21875) rotate(0,0,0)"><path fill="none" stroke="none"/><text fill="" stroke="none" font-family="helvetica" font-size="8pt" font-style="normal" font-weight="normal" text-decoration="normal" x="0" y="0" text-anchor="start" dominant-baseline="text-after-edge">73</text></g></g><g fill="#444444"><path fill="" stroke="none" d=""/><g transform="translate(196.4045584045584,380.78125) rotate(0,0,0)"><path fill="none" stroke="none"/><text fill="" stroke="none" font-family="helvetica" font-size="8pt" font-style="normal" font-weight="normal" text-decoration="normal" x="0" y="0" text-anchor="start" dominant-baseline="text-after-edge">60</text></g></g><g fill="#444444"><path fill="" stroke="none" d=""/><g transform="translate(194.3034188034188,335.34375) rotate(0,0,0)"><path fill="none" stroke="none"/><text fill="" stroke="none" font-family="helvetica" font-size="8pt" font-style="normal" font-weight="normal" text-decoration="normal" x="0" y="0" text-anchor="start" dominant-baseline="text-after-edge">45</text></g></g><g fill="#444444"><path fill="" stroke="none" d=""/><g transform="translate(188.1400759734093,289.90625) rotate(0,0,0)"><path fill="none" stroke="none"/><text fill="" stroke="none" font-family="helvetica" font-size="8pt" font-style="normal" font-weight="normal" text-decoration="normal" x="0" y="0" text-anchor="start" dominant-baseline="text-after-edge">1</text></g></g><g fill="#444444"><path fill="" stroke="none" d=""/><g transform="translate(188.1400759734093,244.46875) rotate(0,0,0)"><path fill="none" stroke="none"/><text fill="" stroke="none" font-family="helvetica" font-size="8pt" font-style="normal" font-weight="normal" text-decoration="normal" x="0" y="0" text-anchor="start" dominant-baseline="text-after-edge">1</text></g></g><g fill="#444444"><path fill="" stroke="none" d=""/><g transform="translate(188.1400759734093,199.03125) rotate(0,0,0)"><path fill="none" stroke="none"/><text fill="" stroke="none" font-family="helvetica" font-size="8pt" font-style="normal" font-weight="normal" text-decoration="normal" x="0" y="0" text-anchor="start" dominant-baseline="text-after-edge">1</text></g></g><g fill="#444444"><path fill="" stroke="none" d=""/><g transform="translate(188.1400759734093,153.59375) rotate(0,0,0)"><path fill="none" stroke="none"/><text fill="" stroke="none" font-family="helvetica" font-size="8pt" font-style="normal" font-weight="normal" text-decoration="normal" x="0" y="0" text-anchor="start" dominant-baseline="text-after-edge">1</text></g></g><g fill="#444444"><path fill="" stroke="none" d=""/><g transform="translate(188.1400759734093,108.15625) rotate(0,0,0)"><path fill="none" stroke="none"/><text fill="" stroke="none" font-family="helvetica" font-size="8pt" font-style="normal" font-weight="normal" text-decoration="normal" x="0" y="0" text-anchor="start" dominant-baseline="text-after-edge">1</text></g></g><g fill="#444444"><path fill="" stroke="none" d=""/><g transform="translate(188.1400759734093,62.71875) rotate(0,0,0)"><path fill="none" stroke="none"/><text fill="" stroke="none" font-family="helvetica" font-size="8pt" font-style="normal" font-weight="normal" text-decoration="normal" x="0" y="0" text-anchor="start" dominant-baseline="text-after-edge">1</text></g></g></g><g/><g><g fill="#444444"><path fill="none" stroke="black" paint-order="fill stroke markers" d=" M 178 755 L 650 755" stroke-miterlimit="10"/><path fill="none" stroke="black" paint-order="fill stroke markers" d=" M 178 761 L 178 753" stroke-miterlimit="10"/><path fill="none" stroke="black" paint-order="fill stroke markers" d=" M 248 761 L 248 753" stroke-miterlimit="10"/><path fill="none" stroke="black" paint-order="fill stroke markers" d=" M 318 761 L 318 753" stroke-miterlimit="10"/><path fill="none" stroke="black" paint-order="fill stroke markers" d=" M 388 761 L 388 753" stroke-miterlimit="10"/><path fill="none" stroke="black" paint-order="fill stroke markers" d=" M 458 761 L 458 753" stroke-miterlimit="10"/><path fill="none" stroke="black" paint-order="fill stroke markers" d=" M 528 761 L 528 753" stroke-miterlimit="10"/><path fill="none" stroke="black" paint-order="fill stroke markers" d=" M 598 761 L 598 753" stroke-miterlimit="10"/><path fill="none" stroke="black" paint-order="fill stroke markers" d=" M 178 759 L 178 755" stroke-miterlimit="10"/><path fill="none" stroke="black" paint-order="fill stroke markers" d=" M 192 759 L 192 755" stroke-miterlimit="10"/><path fill="none" stroke="black" paint-order="fill stroke markers" d=" M 206 759 L 206 755" stroke-miterlimit="10"/><path fill="none" stroke="black" paint-order="fill stroke markers" d=" M 220 759 L 220 755" stroke-miterlimit="10"/><path fill="none" stroke="black" paint-order="fill stroke markers" d=" M 234 759 L 234 755" stroke-miterlimit="10"/><path fill="none" stroke="black" paint-order="fill stroke markers" d=" M 248 759 L 248 755" stroke-miterlimit="10"/><path fill="none" stroke="black" paint-order="fill stroke markers" d=" M 262 759 L 262 755" stroke-miterlimit="10"/><path fill="none" stroke="black" paint-order="fill stroke markers" d=" M 276 759 L 276 755" stroke-miterlimit="10"/><path fill="none" stroke="black" paint-order="fill stroke markers" d=" M 290 759 L 290 755" stroke-miterlimit="10"/><path fill="none" stroke="black" paint-order="fill stroke markers" d=" M 304 759 L 304 755" stroke-miterlimit="10"/><path fill="none" stroke="black" paint-order="fill stroke markers" d=" M 318 759 L 318 755" stroke-miterlimit="10"/><path fill="none" stroke="black" paint-order="fill stroke markers" d=" M 332 759 L 332 755" stroke-miterlimit="10"/><path fill="none" stroke="black" paint-order="fill stroke markers" d=" M 346 759 L 346 755" stroke-miterlimit="10"/><path fill="none" stroke="black" paint-order="fill stroke markers" d=" M 360 759 L 360 755" stroke-miterlimit="10"/><path fill="none" stroke="black" paint-order="fill stroke markers" d=" M 374 759 L 374 755" stroke-miterlimit="10"/><path fill="none" stroke="black" paint-order="fill stroke markers" d=" M 388 759 L 388 755" stroke-miterlimit="10"/><path fill="none" stroke="black" paint-order="fill stroke markers" d=" M 402 759 L 402 755" stroke-miterlimit="10"/><path fill="none" stroke="black" paint-order="fill stroke markers" d=" M 416 759 L 416 755" stroke-miterlimit="10"/><path fill="none" stroke="black" paint-order="fill stroke markers" d=" M 430 759 L 430 755" stroke-miterlimit="10"/><path fill="none" stroke="black" paint-order="fill stroke markers" d=" M 444 759 L 444 755" stroke-miterlimit="10"/><path fill="none" stroke="black" paint-order="fill stroke markers" d=" M 458 759 L 458 755" stroke-miterlimit="10"/><path fill="none" stroke="black" paint-order="fill stroke markers" d=" M 472 759 L 472 755" stroke-miterlimit="10"/><path fill="none" stroke="black" paint-order="fill stroke markers" d=" M 486 759 L 486 755" stroke-miterlimit="10"/><path fill="none" stroke="black" paint-order="fill stroke markers" d=" M 500 759 L 500 755" stroke-miterlimit="10"/><path fill="none" stroke="black" paint-order="fill stroke markers" d=" M 514 759 L 514 755" stroke-miterlimit="10"/><path fill="none" stroke="black" paint-order="fill stroke markers" d=" M 528 759 L 528 755" stroke-miterlimit="10"/><path fill="none" stroke="black" paint-order="fill stroke markers" d=" M 542 759 L 542 755" stroke-miterlimit="10"/><path fill="none" stroke="black" paint-order="fill stroke markers" d=" M 556 759 L 556 755" stroke-miterlimit="10"/><path fill="none" stroke="black" paint-order="fill stroke markers" d=" M 570 759 L 570 755" stroke-miterlimit="10"/><path fill="none" stroke="black" paint-order="fill stroke markers" d=" M 584 759 L 584 755" stroke-miterlimit="10"/><path fill="none" stroke="black" paint-order="fill stroke markers" d=" M 598 759 L 598 755" stroke-miterlimit="10"/><path fill="none" stroke="black" paint-order="fill stroke markers" d=" M 612 759 L 612 755" stroke-miterlimit="10"/><path fill="none" stroke="black" paint-order="fill stroke markers" d=" M 626 759 L 626 755" stroke-miterlimit="10"/><path fill="" stroke="black" paint-order="fill stroke markers" d=" M 640 759 L 640 755" stroke-miterlimit="10"/><g transform="translate(178,766) rotate(0,0,0)"><text fill="" stroke="none" font-family="helvetica" font-size="8pt" font-style="normal" font-weight="normal" text-decoration="normal" x="0" y="0" text-anchor="middle" dominant-baseline="hanging">0</text><g transform="rotate(0,0,0) translate(-178,-766) translate(248,766) rotate(0,0,0)"><text fill="" stroke="none" font-family="helvetica" font-size="8pt" font-style="normal" font-weight="normal" text-decoration="normal" x="0" y="0" text-anchor="middle" dominant-baseline="hanging">500</text><g transform="rotate(0,0,0) translate(-248,-766) translate(318,766) rotate(0,0,0)"><text fill="" stroke="none" font-family="helvetica" font-size="8pt" font-style="normal" font-weight="normal" text-decoration="normal" x="0" y="0" text-anchor="middle" dominant-baseline="hanging">1000</text><g transform="rotate(0,0,0) translate(-318,-766) translate(388,766) rotate(0,0,0)"><text fill="" stroke="none" font-family="helvetica" font-size="8pt" font-style="normal" font-weight="normal" text-decoration="normal" x="0" y="0" text-anchor="middle" dominant-baseline="hanging">1500</text><g transform="rotate(0,0,0) translate(-388,-766) translate(458,766) rotate(0,0,0)"><text fill="" stroke="none" font-family="helvetica" font-size="8pt" font-style="normal" font-weight="normal" text-decoration="normal" x="0" y="0" text-anchor="middle" dominant-baseline="hanging">2000</text><g transform="rotate(0,0,0) translate(-458,-766) translate(528,766) rotate(0,0,0)"><text fill="" stroke="none" font-family="helvetica" font-size="8pt" font-style="normal" font-weight="normal" text-decoration="normal" x="0" y="0" text-anchor="middle" dominant-baseline="hanging">2500</text><g transform="rotate(0,0,0) translate(-528,-766) translate(598,766) rotate(0,0,0)"><text fill="" stroke="none" font-family="helvetica" font-size="8pt" font-style="normal" font-weight="normal" text-decoration="normal" x="0" y="0" text-anchor="middle" dominant-baseline="hanging">3000</text><g transform="rotate(0,0,0) translate(-598,-766) translate(414,784) rotate(0,0,0)"><text fill="" stroke="none" font-family="helvetica" font-size="10pt" font-style="italic" font-weight="normal" text-decoration="normal" x="0" y="0" text-anchor="middle" dominant-baseline="hanging">Respondents</text><g transform="rotate(0,0,0) translate(-414,-784)"/></g></g></g></g></g></g></g></g></g><g fill="#444444"><path fill="none" stroke="black" paint-order="fill stroke markers" d=" M 178 755 L 178 28" stroke-miterlimit="10"/><path fill="none" stroke="black" paint-order="fill stroke markers" d=" M 172 732 L 180 732" stroke-miterlimit="10"/><path fill="none" stroke="black" paint-order="fill stroke markers" d=" M 172 687 L 180 687" stroke-miterlimit="10"/><path fill="none" stroke="black" paint-order="fill stroke markers" d=" M 172 641 L 180 641" stroke-miterlimit="10"/><path fill="none" stroke="black" paint-order="fill stroke markers" d=" M 172 596 L 180 596" stroke-miterlimit="10"/><path fill="none" stroke="black" paint-order="fill stroke markers" d=" M 172 551 L 180 551" stroke-miterlimit="10"/><path fill="none" stroke="black" paint-order="fill stroke markers" d=" M 172 505 L 180 505" stroke-miterlimit="10"/><path fill="none" stroke="black" paint-order="fill stroke markers" d=" M 172 460 L 180 460" stroke-miterlimit="10"/><path fill="none" stroke="black" paint-order="fill stroke markers" d=" M 172 414 L 180 414" stroke-miterlimit="10"/><path fill="none" stroke="black" paint-order="fill stroke markers" d=" M 172 369 L 180 369" stroke-miterlimit="10"/><path fill="none" stroke="black" paint-order="fill stroke markers" d=" M 172 323 L 180 323" stroke-miterlimit="10"/><path fill="none" stroke="black" paint-order="fill stroke markers" d=" M 172 278 L 180 278" stroke-miterlimit="10"/><path fill="none" stroke="black" paint-order="fill stroke markers" d=" M 172 232 L 180 232" stroke-miterlimit="10"/><path fill="none" stroke="black" paint-order="fill stroke markers" d=" M 172 187 L 180 187" stroke-miterlimit="10"/><path fill="none" stroke="black" paint-order="fill stroke markers" d=" M 172 142 L 180 142" stroke-miterlimit="10"/><path fill="none" stroke="black" paint-order="fill stroke markers" d=" M 172 96 L 180 96" stroke-miterlimit="10"/><path fill="" stroke="black" paint-order="fill stroke markers" d=" M 172 51 L 180 51" stroke-miterlimit="10"/><g transform="translate(167,732) rotate(0,0,0)"><text fill="" stroke="none" font-family="helvetica" font-size="8pt" font-style="normal" font-weight="normal" text-decoration="normal" x="0" y="0" text-anchor="end" dominant-baseline="central">Mid-level specialist</text><g transform="rotate(0,0,0) translate(-167,-732) translate(167,687) rotate(0,0,0)"><text fill="" stroke="none" font-family="helvetica" font-size="8pt" font-style="normal" font-weight="normal" text-decoration="normal" x="0" y="0" text-anchor="end" dominant-baseline="central">Junior contributor</text><g transform="rotate(0,0,0) translate(-167,-687) translate(167,641) rotate(0,0,0)"><text fill="" stroke="none" font-family="helvetica" font-size="8pt" font-style="normal" font-weight="normal" text-decoration="normal" x="0" y="0" text-anchor="end" dominant-baseline="central">Director</text><g transform="rotate(0,0,0) translate(-167,-641) translate(167,596) rotate(0,0,0)"><text fill="" stroke="none" font-family="helvetica" font-size="8pt" font-style="normal" font-weight="normal" text-decoration="normal" x="0" y="0" text-anchor="end" dominant-baseline="central">Senior manager</text><g transform="rotate(0,0,0) translate(-167,-596) translate(167,551) rotate(0,0,0)"><text fill="" stroke="none" font-family="helvetica" font-size="8pt" font-style="normal" font-weight="normal" text-decoration="normal" x="0" y="0" text-anchor="end" dominant-baseline="central">Team Leader</text><g transform="rotate(0,0,0) translate(-167,-551) translate(167,505) rotate(0,0,0)"><text fill="" stroke="none" font-family="helvetica" font-size="8pt" font-style="normal" font-weight="normal" text-decoration="normal" x="0" y="0" text-anchor="end" dominant-baseline="central">Other</text><g transform="rotate(0,0,0) translate(-167,-505) translate(167,460) rotate(0,0,0)"><text fill="" stroke="none" font-family="helvetica" font-size="8pt" font-style="normal" font-weight="normal" text-decoration="normal" x="0" y="0" text-anchor="end" dominant-baseline="central">Group Leader</text><g transform="rotate(0,0,0) translate(-167,-460) translate(167,414) rotate(0,0,0)"><text fill="" stroke="none" font-family="helvetica" font-size="8pt" font-style="normal" font-weight="normal" text-decoration="normal" x="0" y="0" text-anchor="end" dominant-baseline="central">Executive</text><g transform="rotate(0,0,0) translate(-167,-414) translate(167,369) rotate(0,0,0)"><text fill="" stroke="none" font-family="helvetica" font-size="8pt" font-style="normal" font-weight="normal" text-decoration="normal" x="0" y="0" text-anchor="end" dominant-baseline="central">Senior Executive</text><g transform="rotate(0,0,0) translate(-167,-369) translate(167,323) rotate(0,0,0)"><text fill="" stroke="none" font-family="helvetica" font-size="8pt" font-style="normal" font-weight="normal" text-decoration="normal" x="0" y="0" text-anchor="end" dominant-baseline="central">Intern</text><g transform="rotate(0,0,0) translate(-167,-323) translate(167,278) rotate(0,0,0)"><text fill="" stroke="none" font-family="helvetica" font-size="8pt" font-style="normal" font-weight="normal" text-decoration="normal" x="0" y="0" text-anchor="end" dominant-baseline="central">Ejecutivo</text><g transform="rotate(0,0,0) translate(-167,-278) translate(167,232) rotate(0,0,0)"><text fill="" stroke="none" font-family="helvetica" font-size="8pt" font-style="normal" font-weight="normal" text-decoration="normal" x="0" y="0" text-anchor="end" dominant-baseline="central">Colaborador Junior</text><g transform="rotate(0,0,0) translate(-167,-232) translate(167,187) rotate(0,0,0)"><text fill="" stroke="none" font-family="helvetica" font-size="8pt" font-style="normal" font-weight="normal" text-decoration="normal" x="0" y="0" text-anchor="end" dominant-baseline="central">Especialista de nível médio</text><g transform="rotate(0,0,0) translate(-167,-187) translate(167,142) rotate(0,0,0)"><text fill="" stroke="none" font-family="helvetica" font-size="8pt" font-style="normal" font-weight="normal" text-decoration="normal" x="0" y="0" text-anchor="end" dominant-baseline="central">中级专家</text><g transform="rotate(0,0,0) translate(-167,-142) translate(167,96) rotate(0,0,0)"><text fill="" stroke="none" font-family="helvetica" font-size="8pt" font-style="normal" font-weight="normal" text-decoration="normal" x="0" y="0" text-anchor="end" dominant-baseline="central">Junior collaboratore</text><g transform="rotate(0,0,0) translate(-167,-96) translate(167,51) rotate(0,0,0)"><text fill="" stroke="none" font-family="helvetica" font-size="8pt" font-style="normal" font-weight="normal" text-decoration="normal" x="0" y="0" text-anchor="end" dominant-baseline="central">初级贡献者</text><g transform="rotate(0,0,0) translate(-167,-51) translate(16,392) rotate(-90,0,0)"><text fill="" stroke="none" font-family="helvetica" font-size="10pt" font-style="italic" font-weight="normal" text-decoration="normal" x="0" y="0" text-anchor="middle" dominant-baseline="alphabetic">Categories</text><g transform="rotate(90,0,0) translate(-16,-392)"/></g></g></g></g></g></g></g></g></g></g></g></g></g></g></g></g></g></g><g fill="#444444"><path fill="" stroke="none" d=""/><g transform="translate(178,23)"><path fill="none" stroke="none"/><text fill="" stroke="none" font-family="helvetica" font-size="10pt" font-style="normal" font-weight="bold" text-decoration="normal" x="0" y="0" text-anchor="start" dominant-baseline="text-after-edge">All: My role is:</text></g></g></g></g></g></svg>