<svg version="1.1" xmlns="http://www.w3.org/2000/svg" xmlns:xlink="http://www.w3.org/1999/xlink" width="700" height="450" style="width: 700px; height: 450px;"><defs/><g><g transform="scale(1,1) translate(0.5,0.5)"><rect fill="#FFFFFF" stroke="none" x="0" y="0" width="700" height="450"/><rect fill="#ffffff" stroke="none" x="0" y="0" width="700" height="450"/><rect fill="#FFFFFF" stroke="none" x="139" y="28" width="511" height="377"/><rect fill="#ffffff" stroke="none" x="139" y="28" width="511" height="377"/><g><rect fill="none" stroke="#e5e5e5" x="139" y="28" width="511" height="377" stroke-miterlimit="10"/></g><g><g><path fill="none" stroke="#e5e5e5" paint-order="fill stroke markers" d=" M 264 405 L 264 28" stroke-miterlimit="10"/><path fill="none" stroke="#e5e5e5" paint-order="fill stroke markers" d=" M 388 405 L 388 28" stroke-miterlimit="10"/><path fill="none" stroke="#e5e5e5" paint-order="fill stroke markers" d=" M 513 405 L 513 28" stroke-miterlimit="10"/><path fill="none" stroke="#e5e5e5" paint-order="fill stroke markers" d=" M 637 405 L 637 28" stroke-miterlimit="10"/></g><g><path fill="none" stroke="#e5e5e5" paint-order="fill stroke markers" d=" M 139 384 L 650 384" stroke-miterlimit="10"/><path fill="none" stroke="#e5e5e5" paint-order="fill stroke markers" d=" M 139 342 L 650 342" stroke-miterlimit="10"/><path fill="none" stroke="#e5e5e5" paint-order="fill stroke markers" d=" M 139 300 L 650 300" stroke-miterlimit="10"/><path fill="none" stroke="#e5e5e5" paint-order="fill stroke markers" d=" M 139 258 L 650 258" stroke-miterlimit="10"/><path fill="none" stroke="#e5e5e5" paint-order="fill stroke markers" d=" M 139 217 L 650 217" stroke-miterlimit="10"/><path fill="none" stroke="#e5e5e5" paint-order="fill stroke markers" d=" M 139 175 L 650 175" stroke-miterlimit="10"/><path fill="none" stroke="#e5e5e5" paint-order="fill stroke markers" d=" M 139 133 L 650 133" stroke-miterlimit="10"/><path fill="none" stroke="#e5e5e5" paint-order="fill stroke markers" d=" M 139 91 L 650 91" stroke-miterlimit="10"/><path fill="none" stroke="#e5e5e5" paint-order="fill stroke markers" d=" M 139 49 L 650 49" stroke-miterlimit="10"/></g><g><path fill="none" stroke="none"/><rect fill="#1f77b4" stroke="none" x="139" y="368.3472222222222" width="301.3206627680312" height="31.416666666666742"/><path fill="none" stroke="#1f77b4" paint-order="fill stroke markers" d=" M 139 368.3472222222222 L 440.3206627680312 368.3472222222222 L 440.3206627680312 399.7638888888889 L 139 399.7638888888889 L 139 368.3472222222222 Z" stroke-miterlimit="10"/><rect fill="#1f77b4" stroke="none" x="139" y="326.45833333333337" width="146.92495126705654" height="31.41666666666663"/><path fill="none" stroke="#1f77b4" paint-order="fill stroke markers" d=" M 139 326.45833333333337 L 285.92495126705654 326.45833333333337 L 285.92495126705654 357.875 L 139 357.875 L 139 326.45833333333337 Z" stroke-miterlimit="10"/><rect fill="#1f77b4" stroke="none" x="139" y="284.56944444444446" width="139.4541910331384" height="31.41666666666663"/><path fill="none" stroke="#1f77b4" paint-order="fill stroke markers" d=" M 139 284.56944444444446 L 278.4541910331384 284.56944444444446 L 278.4541910331384 315.9861111111111 L 139 315.9861111111111 L 139 284.56944444444446 Z" stroke-miterlimit="10"/><rect fill="#1f77b4" stroke="none" x="139" y="242.6805555555556" width="119.53216374269005" height="31.41666666666663"/><path fill="none" stroke="#1f77b4" paint-order="fill stroke markers" d=" M 139 242.6805555555556 L 258.53216374269005 242.6805555555556 L 258.53216374269005 274.09722222222223 L 139 274.09722222222223 L 139 242.6805555555556 Z" stroke-miterlimit="10"/><rect fill="#1f77b4" stroke="none" x="139" y="200.79166666666669" width="97.11988304093569" height="31.41666666666663"/><path fill="none" stroke="#1f77b4" paint-order="fill stroke markers" d=" M 139 200.79166666666669 L 236.1198830409357 200.79166666666669 L 236.1198830409357 232.20833333333331 L 139 232.20833333333331 L 139 200.79166666666669 Z" stroke-miterlimit="10"/><rect fill="#1f77b4" stroke="none" x="139" y="158.90277777777783" width="72.21734892787526" height="31.41666666666663"/><path fill="none" stroke="#1f77b4" paint-order="fill stroke markers" d=" M 139 158.90277777777783 L 211.21734892787526 158.90277777777783 L 211.21734892787526 190.31944444444446 L 139 190.31944444444446 L 139 158.90277777777783 Z" stroke-miterlimit="10"/><rect fill="#1f77b4" stroke="none" x="139" y="117.01388888888889" width="59.76608187134502" height="31.416666666666686"/><path fill="none" stroke="#1f77b4" paint-order="fill stroke markers" d=" M 139 117.01388888888889 L 198.76608187134502 117.01388888888889 L 198.76608187134502 148.43055555555557 L 139 148.43055555555557 L 139 117.01388888888889 Z" stroke-miterlimit="10"/><rect fill="#1f77b4" stroke="none" x="139" y="75.12500000000003" width="7.470760233918128" height="31.416666666666686"/><path fill="none" stroke="#1f77b4" paint-order="fill stroke markers" d=" M 139 75.12500000000003 L 146.47076023391813 75.12500000000003 L 146.47076023391813 106.54166666666671 L 139 106.54166666666671 L 139 75.12500000000003 Z" stroke-miterlimit="10"/><rect fill="#1f77b4" stroke="none" x="139" y="33.236111111111114" width="7.470760233918128" height="31.416666666666686"/><path fill="none" stroke="#1f77b4" paint-order="fill stroke markers" d=" M 139 33.236111111111114 L 146.47076023391813 33.236111111111114 L 146.47076023391813 64.6527777777778 L 139 64.6527777777778 L 139 33.236111111111114 Z" stroke-miterlimit="10"/></g><g fill="#444444"><path fill="" stroke="none" d=""/><g transform="translate(450.3206627680312,382.05555555555554) rotate(0,0,0)"><path fill="none" stroke="none"/><text fill="" stroke="none" font-family="helvetica" font-size="8pt" font-style="normal" font-weight="normal" text-decoration="normal" x="0" y="0" text-anchor="start" dominant-baseline="text-after-edge">0.97%</text></g></g><g fill="#444444"><path fill="" stroke="none" d=""/><g transform="translate(295.92495126705654,340.1666666666667) rotate(0,0,0)"><path fill="none" stroke="none"/><text fill="" stroke="none" font-family="helvetica" font-size="8pt" font-style="normal" font-weight="normal" text-decoration="normal" x="0" y="0" text-anchor="start" dominant-baseline="text-after-edge">0.47%</text></g></g><g fill="#444444"><path fill="" stroke="none" d=""/><g transform="translate(288.4541910331384,298.27777777777777) rotate(0,0,0)"><path fill="none" stroke="none"/><text fill="" stroke="none" font-family="helvetica" font-size="8pt" font-style="normal" font-weight="normal" text-decoration="normal" x="0" y="0" text-anchor="start" dominant-baseline="text-after-edge">0.45%</text></g></g><g fill="#444444"><path fill="" stroke="none" d=""/><g transform="translate(268.53216374269005,256.3888888888889) rotate(0,0,0)"><path fill="none" stroke="none"/><text fill="" stroke="none" font-family="helvetica" font-size="8pt" font-style="normal" font-weight="normal" text-decoration="normal" x="0" y="0" text-anchor="start" dominant-baseline="text-after-edge">0.38%</text></g></g><g fill="#444444"><path fill="" stroke="none" d=""/><g transform="translate(246.1198830409357,214.5) rotate(0,0,0)"><path fill="none" stroke="none"/><text fill="" stroke="none" font-family="helvetica" font-size="8pt" font-style="normal" font-weight="normal" text-decoration="normal" x="0" y="0" text-anchor="start" dominant-baseline="text-after-edge">0.31%</text></g></g><g fill="#444444"><path fill="" stroke="none" d=""/><g transform="translate(221.21734892787526,172.61111111111114) rotate(0,0,0)"><path fill="none" stroke="none"/><text fill="" stroke="none" font-family="helvetica" font-size="8pt" font-style="normal" font-weight="normal" text-decoration="normal" x="0" y="0" text-anchor="start" dominant-baseline="text-after-edge">0.23%</text></g></g><g fill="#444444"><path fill="" stroke="none" d=""/><g transform="translate(208.76608187134502,130.72222222222223) rotate(0,0,0)"><path fill="none" stroke="none"/><text fill="" stroke="none" font-family="helvetica" font-size="8pt" font-style="normal" font-weight="normal" text-decoration="normal" x="0" y="0" text-anchor="start" dominant-baseline="text-after-edge">0.19%</text></g></g><g fill="#444444"><path fill="" stroke="none" d=""/><g transform="translate(156.47076023391813,88.83333333333337) rotate(0,0,0)"><path fill="none" stroke="none"/><text fill="" stroke="none" font-family="helvetica" font-size="8pt" font-style="normal" font-weight="normal" text-decoration="normal" x="0" y="0" text-anchor="start" dominant-baseline="text-after-edge">0.02%</text></g></g><g fill="#444444"><path fill="" stroke="none" d=""/><g transform="translate(156.47076023391813,46.94444444444446) rotate(0,0,0)"><path fill="none" stroke="none"/><text fill="" stroke="none" font-family="helvetica" font-size="8pt" font-style="normal" font-weight="normal" text-decoration="normal" x="0" y="0" text-anchor="start" dominant-baseline="text-after-edge">0.02%</text></g></g><g fill="#444444"><path fill="" stroke="none" d=""/><g transform="translate(450.3206627680312,396.05555555555554) rotate(0,0,0)"><path fill="none" stroke="none"/><text fill="" stroke="none" font-family="helvetica" font-size="8pt" font-style="normal" font-weight="normal" text-decoration="normal" x="0" y="0" text-anchor="start" dominant-baseline="text-after-edge">121</text></g></g><g fill="#444444"><path fill="" stroke="none" d=""/><g transform="translate(295.92495126705654,354.1666666666667) rotate(0,0,0)"><path fill="none" stroke="none"/><text fill="" stroke="none" font-family="helvetica" font-size="8pt" font-style="normal" font-weight="normal" text-decoration="normal" x="0" y="0" text-anchor="start" dominant-baseline="text-after-edge">59</text></g></g><g fill="#444444"><path fill="" stroke="none" d=""/><g transform="translate(288.4541910331384,312.27777777777777) rotate(0,0,0)"><path fill="none" stroke="none"/><text fill="" stroke="none" font-family="helvetica" font-size="8pt" font-style="normal" font-weight="normal" text-decoration="normal" x="0" y="0" text-anchor="start" dominant-baseline="text-after-edge">56</text></g></g><g fill="#444444"><path fill="" stroke="none" d=""/><g transform="translate(268.53216374269005,270.3888888888889) rotate(0,0,0)"><path fill="none" stroke="none"/><text fill="" stroke="none" font-family="helvetica" font-size="8pt" font-style="normal" font-weight="normal" text-decoration="normal" x="0" y="0" text-anchor="start" dominant-baseline="text-after-edge">48</text></g></g><g fill="#444444"><path fill="" stroke="none" d=""/><g transform="translate(246.1198830409357,228.5) rotate(0,0,0)"><path fill="none" stroke="none"/><text fill="" stroke="none" font-family="helvetica" font-size="8pt" font-style="normal" font-weight="normal" text-decoration="normal" x="0" y="0" text-anchor="start" dominant-baseline="text-after-edge">39</text></g></g><g fill="#444444"><path fill="" stroke="none" d=""/><g transform="translate(221.21734892787526,186.61111111111114) rotate(0,0,0)"><path fill="none" stroke="none"/><text fill="" stroke="none" font-family="helvetica" font-size="8pt" font-style="normal" font-weight="normal" text-decoration="normal" x="0" y="0" text-anchor="start" dominant-baseline="text-after-edge">29</text></g></g><g fill="#444444"><path fill="" stroke="none" d=""/><g transform="translate(208.76608187134502,144.72222222222223) rotate(0,0,0)"><path fill="none" stroke="none"/><text fill="" stroke="none" font-family="helvetica" font-size="8pt" font-style="normal" font-weight="normal" text-decoration="normal" x="0" y="0" text-anchor="start" dominant-baseline="text-after-edge">24</text></g></g><g fill="#444444"><path fill="" stroke="none" d=""/><g transform="translate(156.47076023391813,102.83333333333337) rotate(0,0,0)"><path fill="none" stroke="none"/><text fill="" stroke="none" font-family="helvetica" font-size="8pt" font-style="normal" font-weight="normal" text-decoration="normal" x="0" y="0" text-anchor="start" dominant-baseline="text-after-edge">3</text></g></g><g fill="#444444"><path fill="" stroke="none" d=""/><g transform="translate(156.47076023391813,60.94444444444446) rotate(0,0,0)"><path fill="none" stroke="none"/><text fill="" stroke="none" font-family="helvetica" font-size="8pt" font-style="normal" font-weight="normal" text-decoration="normal" x="0" y="0" text-anchor="start" dominant-baseline="text-after-edge">3</text></g></g></g><g/><g><g fill="#444444"><path fill="none" stroke="black" paint-order="fill stroke markers" d=" M 139 405 L 650 405" stroke-miterlimit="10"/><path fill="none" stroke="black" paint-order="fill stroke markers" d=" M 139 411 L 139 403" stroke-miterlimit="10"/><path fill="none" stroke="black" paint-order="fill stroke markers" d=" M 264 411 L 264 403" stroke-miterlimit="10"/><path fill="none" stroke="black" paint-order="fill stroke markers" d=" M 388 411 L 388 403" stroke-miterlimit="10"/><path fill="none" stroke="black" paint-order="fill stroke markers" d=" M 513 411 L 513 403" stroke-miterlimit="10"/><path fill="none" stroke="black" paint-order="fill stroke markers" d=" M 637 411 L 637 403" stroke-miterlimit="10"/><path fill="none" stroke="black" paint-order="fill stroke markers" d=" M 139 409 L 139 405" stroke-miterlimit="10"/><path fill="none" stroke="black" paint-order="fill stroke markers" d=" M 164 409 L 164 405" stroke-miterlimit="10"/><path fill="none" stroke="black" paint-order="fill stroke markers" d=" M 189 409 L 189 405" stroke-miterlimit="10"/><path fill="none" stroke="black" paint-order="fill stroke markers" d=" M 214 409 L 214 405" stroke-miterlimit="10"/><path fill="none" stroke="black" paint-order="fill stroke markers" d=" M 239 409 L 239 405" stroke-miterlimit="10"/><path fill="none" stroke="black" paint-order="fill stroke markers" d=" M 264 409 L 264 405" stroke-miterlimit="10"/><path fill="none" stroke="black" paint-order="fill stroke markers" d=" M 288 409 L 288 405" stroke-miterlimit="10"/><path fill="none" stroke="black" paint-order="fill stroke markers" d=" M 313 409 L 313 405" stroke-miterlimit="10"/><path fill="none" stroke="black" paint-order="fill stroke markers" d=" M 338 409 L 338 405" stroke-miterlimit="10"/><path fill="none" stroke="black" paint-order="fill stroke markers" d=" M 363 409 L 363 405" stroke-miterlimit="10"/><path fill="none" stroke="black" paint-order="fill stroke markers" d=" M 388 409 L 388 405" stroke-miterlimit="10"/><path fill="none" stroke="black" paint-order="fill stroke markers" d=" M 413 409 L 413 405" stroke-miterlimit="10"/><path fill="none" stroke="black" paint-order="fill stroke markers" d=" M 438 409 L 438 405" stroke-miterlimit="10"/><path fill="none" stroke="black" paint-order="fill stroke markers" d=" M 463 409 L 463 405" stroke-miterlimit="10"/><path fill="none" stroke="black" paint-order="fill stroke markers" d=" M 488 409 L 488 405" stroke-miterlimit="10"/><path fill="none" stroke="black" paint-order="fill stroke markers" d=" M 513 409 L 513 405" stroke-miterlimit="10"/><path fill="none" stroke="black" paint-order="fill stroke markers" d=" M 537 409 L 537 405" stroke-miterlimit="10"/><path fill="none" stroke="black" paint-order="fill stroke markers" d=" M 562 409 L 562 405" stroke-miterlimit="10"/><path fill="none" stroke="black" paint-order="fill stroke markers" d=" M 587 409 L 587 405" stroke-miterlimit="10"/><path fill="none" stroke="black" paint-order="fill stroke markers" d=" M 612 409 L 612 405" stroke-miterlimit="10"/><path fill="" stroke="black" paint-order="fill stroke markers" d=" M 637 409 L 637 405" stroke-miterlimit="10"/><g transform="translate(139,416) rotate(0,0,0)"><text fill="" stroke="none" font-family="helvetica" font-size="8pt" font-style="normal" font-weight="normal" text-decoration="normal" x="0" y="0" text-anchor="middle" dominant-baseline="hanging">0</text><g transform="rotate(0,0,0) translate(-139,-416) translate(264,416) rotate(0,0,0)"><text fill="" stroke="none" font-family="helvetica" font-size="8pt" font-style="normal" font-weight="normal" text-decoration="normal" x="0" y="0" text-anchor="middle" dominant-baseline="hanging">50</text><g transform="rotate(0,0,0) translate(-264,-416) translate(388,416) rotate(0,0,0)"><text fill="" stroke="none" font-family="helvetica" font-size="8pt" font-style="normal" font-weight="normal" text-decoration="normal" x="0" y="0" text-anchor="middle" dominant-baseline="hanging">100</text><g transform="rotate(0,0,0) translate(-388,-416) translate(513,416) rotate(0,0,0)"><text fill="" stroke="none" font-family="helvetica" font-size="8pt" font-style="normal" font-weight="normal" text-decoration="normal" x="0" y="0" text-anchor="middle" dominant-baseline="hanging">150</text><g transform="rotate(0,0,0) translate(-513,-416) translate(637,416) rotate(0,0,0)"><text fill="" stroke="none" font-family="helvetica" font-size="8pt" font-style="normal" font-weight="normal" text-decoration="normal" x="0" y="0" text-anchor="middle" dominant-baseline="hanging">200</text><g transform="rotate(0,0,0) translate(-637,-416) translate(395,434) rotate(0,0,0)"><text fill="" stroke="none" font-family="helvetica" font-size="10pt" font-style="italic" font-weight="normal" text-decoration="normal" x="0" y="0" text-anchor="middle" dominant-baseline="hanging">Respondents</text><g transform="rotate(0,0,0) translate(-395,-434)"/></g></g></g></g></g></g></g><g fill="#444444"><path fill="none" stroke="black" paint-order="fill stroke markers" d=" M 139 405 L 139 28" stroke-miterlimit="10"/><path fill="none" stroke="black" paint-order="fill stroke markers" d=" M 133 384 L 141 384" stroke-miterlimit="10"/><path fill="none" stroke="black" paint-order="fill stroke markers" d=" M 133 342 L 141 342" stroke-miterlimit="10"/><path fill="none" stroke="black" paint-order="fill stroke markers" d=" M 133 300 L 141 300" stroke-miterlimit="10"/><path fill="none" stroke="black" paint-order="fill stroke markers" d=" M 133 258 L 141 258" stroke-miterlimit="10"/><path fill="none" stroke="black" paint-order="fill stroke markers" d=" M 133 217 L 141 217" stroke-miterlimit="10"/><path fill="none" stroke="black" paint-order="fill stroke markers" d=" M 133 175 L 141 175" stroke-miterlimit="10"/><path fill="none" stroke="black" paint-order="fill stroke markers" d=" M 133 133 L 141 133" stroke-miterlimit="10"/><path fill="none" stroke="black" paint-order="fill stroke markers" d=" M 133 91 L 141 91" stroke-miterlimit="10"/><path fill="" stroke="black" paint-order="fill stroke markers" d=" M 133 49 L 141 49" stroke-miterlimit="10"/><g transform="translate(128,384) rotate(0,0,0)"><text fill="" stroke="none" font-family="helvetica" font-size="8pt" font-style="normal" font-weight="normal" text-decoration="normal" x="0" y="0" text-anchor="end" dominant-baseline="central">Associate Professor</text><g transform="rotate(0,0,0) translate(-128,-384) translate(128,342) rotate(0,0,0)"><text fill="" stroke="none" font-family="helvetica" font-size="8pt" font-style="normal" font-weight="normal" text-decoration="normal" x="0" y="0" text-anchor="end" dominant-baseline="central">Professor</text><g transform="rotate(0,0,0) translate(-128,-342) translate(128,300) rotate(0,0,0)"><text fill="" stroke="none" font-family="helvetica" font-size="8pt" font-style="normal" font-weight="normal" text-decoration="normal" x="0" y="0" text-anchor="end" dominant-baseline="central">Instructor</text><g transform="rotate(0,0,0) translate(-128,-300) translate(128,258) rotate(0,0,0)"><text fill="" stroke="none" font-family="helvetica" font-size="8pt" font-style="normal" font-weight="normal" text-decoration="normal" x="0" y="0" text-anchor="end" dominant-baseline="central">Program Chair</text><g transform="rotate(0,0,0) translate(-128,-258) translate(128,217) rotate(0,0,0)"><text fill="" stroke="none" font-family="helvetica" font-size="8pt" font-style="normal" font-weight="normal" text-decoration="normal" x="0" y="0" text-anchor="end" dominant-baseline="central">Other</text><g transform="rotate(0,0,0) translate(-128,-217) translate(128,175) rotate(0,0,0)"><text fill="" stroke="none" font-family="helvetica" font-size="8pt" font-style="normal" font-weight="normal" text-decoration="normal" x="0" y="0" text-anchor="end" dominant-baseline="central">Lecturer</text><g transform="rotate(0,0,0) translate(-128,-175) translate(128,133) rotate(0,0,0)"><text fill="" stroke="none" font-family="helvetica" font-size="8pt" font-style="normal" font-weight="normal" text-decoration="normal" x="0" y="0" text-anchor="end" dominant-baseline="central">Adjunct Professor</text><g transform="rotate(0,0,0) translate(-128,-133) translate(128,91) rotate(0,0,0)"><text fill="" stroke="none" font-family="helvetica" font-size="8pt" font-style="normal" font-weight="normal" text-decoration="normal" x="0" y="0" text-anchor="end" dominant-baseline="central">Dean</text><g transform="rotate(0,0,0) translate(-128,-91) translate(128,49) rotate(0,0,0)"><text fill="" stroke="none" font-family="helvetica" font-size="8pt" font-style="normal" font-weight="normal" text-decoration="normal" x="0" y="0" text-anchor="end" dominant-baseline="central">Associate Dean</text><g transform="rotate(0,0,0) translate(-128,-49) translate(16,217) rotate(-90,0,0)"><text fill="" stroke="none" font-family="helvetica" font-size="10pt" font-style="italic" font-weight="normal" text-decoration="normal" x="0" y="0" text-anchor="middle" dominant-baseline="alphabetic">Categories</text><g transform="rotate(90,0,0) translate(-16,-217)"/></g></g></g></g></g></g></g></g></g></g></g><g fill="#444444"><path fill="" stroke="none" d=""/><g transform="translate(139,23)"><path fill="none" stroke="none"/><text fill="" stroke="none" font-family="helvetica" font-size="10pt" font-style="normal" font-weight="bold" text-decoration="normal" x="0" y="0" text-anchor="start" dominant-baseline="text-after-edge">All: My role is:</text></g></g></g></g></g></svg>