<svg version="1.1" xmlns="http://www.w3.org/2000/svg" xmlns:xlink="http://www.w3.org/1999/xlink" width="700" height="900" style="width: 700px; height: 900px;"><defs/><g><g transform="scale(1,1) translate(0.5,0.5)"><rect fill="#FFFFFF" stroke="none" x="0" y="0" width="700" height="900"/><rect fill="#ffffff" stroke="none" x="0" y="0" width="700" height="900"/><rect fill="#FFFFFF" stroke="none" x="176" y="28" width="474" height="827"/><rect fill="#ffffff" stroke="none" x="176" y="28" width="474" height="827"/><g><rect fill="none" stroke="#e5e5e5" x="176" y="28" width="474" height="827" stroke-miterlimit="10"/></g><g><g><path fill="none" stroke="#e5e5e5" paint-order="fill stroke markers" d=" M 257 855 L 257 28" stroke-miterlimit="10"/><path fill="none" stroke="#e5e5e5" paint-order="fill stroke markers" d=" M 338 855 L 338 28" stroke-miterlimit="10"/><path fill="none" stroke="#e5e5e5" paint-order="fill stroke markers" d=" M 419 855 L 419 28" stroke-miterlimit="10"/><path fill="none" stroke="#e5e5e5" paint-order="fill stroke markers" d=" M 500 855 L 500 28" stroke-miterlimit="10"/><path fill="none" stroke="#e5e5e5" paint-order="fill stroke markers" d=" M 581 855 L 581 28" stroke-miterlimit="10"/></g><g><path fill="none" stroke="#e5e5e5" paint-order="fill stroke markers" d=" M 176 832 L 650 832" stroke-miterlimit="10"/><path fill="none" stroke="#e5e5e5" paint-order="fill stroke markers" d=" M 176 786 L 650 786" stroke-miterlimit="10"/><path fill="none" stroke="#e5e5e5" paint-order="fill stroke markers" d=" M 176 740 L 650 740" stroke-miterlimit="10"/><path fill="none" stroke="#e5e5e5" paint-order="fill stroke markers" d=" M 176 694 L 650 694" stroke-miterlimit="10"/><path fill="none" stroke="#e5e5e5" paint-order="fill stroke markers" d=" M 176 648 L 650 648" stroke-miterlimit="10"/><path fill="none" stroke="#e5e5e5" paint-order="fill stroke markers" d=" M 176 602 L 650 602" stroke-miterlimit="10"/><path fill="none" stroke="#e5e5e5" paint-order="fill stroke markers" d=" M 176 556 L 650 556" stroke-miterlimit="10"/><path fill="none" stroke="#e5e5e5" paint-order="fill stroke markers" d=" M 176 510 L 650 510" stroke-miterlimit="10"/><path fill="none" stroke="#e5e5e5" paint-order="fill stroke markers" d=" M 176 464 L 650 464" stroke-miterlimit="10"/><path fill="none" stroke="#e5e5e5" paint-order="fill stroke markers" d=" M 176 419 L 650 419" stroke-miterlimit="10"/><path fill="none" stroke="#e5e5e5" paint-order="fill stroke markers" d=" M 176 373 L 650 373" stroke-miterlimit="10"/><path fill="none" stroke="#e5e5e5" paint-order="fill stroke markers" d=" M 176 327 L 650 327" stroke-miterlimit="10"/><path fill="none" stroke="#e5e5e5" paint-order="fill stroke markers" d=" M 176 281 L 650 281" stroke-miterlimit="10"/><path fill="none" stroke="#e5e5e5" paint-order="fill stroke markers" d=" M 176 235 L 650 235" stroke-miterlimit="10"/><path fill="none" stroke="#e5e5e5" paint-order="fill stroke markers" d=" M 176 189 L 650 189" stroke-miterlimit="10"/><path fill="none" stroke="#e5e5e5" paint-order="fill stroke markers" d=" M 176 143 L 650 143" stroke-miterlimit="10"/><path fill="none" stroke="#e5e5e5" paint-order="fill stroke markers" d=" M 176 97 L 650 97" stroke-miterlimit="10"/><path fill="none" stroke="#e5e5e5" paint-order="fill stroke markers" d=" M 176 51 L 650 51" stroke-miterlimit="10"/></g><g><path fill="none" stroke="none"/><rect fill="#1f77b4" stroke="none" x="176" y="814.7986111111111" width="392.9764344262296" height="34.458333333333485"/><path fill="none" stroke="#1f77b4" paint-order="fill stroke markers" d=" M 176 814.7986111111111 L 568.9764344262296 814.7986111111111 L 568.9764344262296 849.2569444444446 L 176 849.2569444444446 L 176 814.7986111111111 Z" stroke-miterlimit="10"/><rect fill="#1f77b4" stroke="none" x="176" y="768.8541666666667" width="220.20440573770497" height="34.45833333333326"/><path fill="none" stroke="#1f77b4" paint-order="fill stroke markers" d=" M 176 768.8541666666667 L 396.204405737705 768.8541666666667 L 396.204405737705 803.3125 L 176 803.3125 L 176 768.8541666666667 Z" stroke-miterlimit="10"/><rect fill="#1f77b4" stroke="none" x="176" y="722.9097222222222" width="201.1019467213115" height="34.458333333333485"/><path fill="none" stroke="#1f77b4" paint-order="fill stroke markers" d=" M 176 722.9097222222222 L 377.1019467213115 722.9097222222222 L 377.1019467213115 757.3680555555557 L 176 757.3680555555557 L 176 722.9097222222222 Z" stroke-miterlimit="10"/><rect fill="#1f77b4" stroke="none" x="176" y="676.9652777777778" width="200.73770491803282" height="34.45833333333326"/><path fill="none" stroke="#1f77b4" paint-order="fill stroke markers" d=" M 176 676.9652777777778 L 376.7377049180328 676.9652777777778 L 376.7377049180328 711.4236111111111 L 176 711.4236111111111 L 176 676.9652777777778 Z" stroke-miterlimit="10"/><rect fill="#1f77b4" stroke="none" x="176" y="631.0208333333333" width="184.95389344262298" height="34.458333333333485"/><path fill="none" stroke="#1f77b4" paint-order="fill stroke markers" d=" M 176 631.0208333333333 L 360.953893442623 631.0208333333333 L 360.953893442623 665.4791666666667 L 176 665.4791666666667 L 176 631.0208333333333 Z" stroke-miterlimit="10"/><rect fill="#1f77b4" stroke="none" x="176" y="585.0763888888889" width="177.87141393442624" height="34.45833333333326"/><path fill="none" stroke="#1f77b4" paint-order="fill stroke markers" d=" M 176 585.0763888888889 L 353.87141393442624 585.0763888888889 L 353.87141393442624 619.5347222222222 L 176 619.5347222222222 L 176 585.0763888888889 Z" stroke-miterlimit="10"/><rect fill="#1f77b4" stroke="none" x="176" y="539.1319444444443" width="160.38780737704917" height="34.458333333333485"/><path fill="none" stroke="#1f77b4" paint-order="fill stroke markers" d=" M 176 539.1319444444443 L 336.38780737704917 539.1319444444443 L 336.38780737704917 573.5902777777778 L 176 573.5902777777778 L 176 539.1319444444443 Z" stroke-miterlimit="10"/><rect fill="#1f77b4" stroke="none" x="176" y="493.1875" width="121.21157786885249" height="34.45833333333337"/><path fill="none" stroke="#1f77b4" paint-order="fill stroke markers" d=" M 176 493.1875 L 297.2115778688525 493.1875 L 297.2115778688525 527.6458333333334 L 176 527.6458333333334 L 176 493.1875 Z" stroke-miterlimit="10"/><rect fill="#1f77b4" stroke="none" x="176" y="447.24305555555554" width="108.86782786885249" height="34.45833333333337"/><path fill="none" stroke="#1f77b4" paint-order="fill stroke markers" d=" M 176 447.24305555555554 L 284.8678278688525 447.24305555555554 L 284.8678278688525 481.7013888888889 L 176 481.7013888888889 L 176 447.24305555555554 Z" stroke-miterlimit="10"/><rect fill="#1f77b4" stroke="none" x="176" y="401.2986111111111" width="99.80225409836066" height="34.45833333333337"/><path fill="none" stroke="#1f77b4" paint-order="fill stroke markers" d=" M 176 401.2986111111111 L 275.80225409836066 401.2986111111111 L 275.80225409836066 435.75694444444446 L 176 435.75694444444446 L 176 401.2986111111111 Z" stroke-miterlimit="10"/><rect fill="#1f77b4" stroke="none" x="176" y="355.35416666666674" width="98.79047131147541" height="34.45833333333326"/><path fill="none" stroke="#1f77b4" paint-order="fill stroke markers" d=" M 176 355.35416666666674 L 274.7904713114754 355.35416666666674 L 274.7904713114754 389.8125 L 176 389.8125 L 176 355.35416666666674 Z" stroke-miterlimit="10"/><rect fill="#1f77b4" stroke="none" x="176" y="309.4097222222223" width="93.44825819672133" height="34.45833333333326"/><path fill="none" stroke="#1f77b4" paint-order="fill stroke markers" d=" M 176 309.4097222222223 L 269.4482581967213 309.4097222222223 L 269.4482581967213 343.86805555555554 L 176 343.86805555555554 L 176 309.4097222222223 Z" stroke-miterlimit="10"/><rect fill="#1f77b4" stroke="none" x="176" y="263.4652777777778" width="78.59528688524591" height="34.45833333333326"/><path fill="none" stroke="#1f77b4" paint-order="fill stroke markers" d=" M 176 263.4652777777778 L 254.5952868852459 263.4652777777778 L 254.5952868852459 297.9236111111111 L 176 297.9236111111111 L 176 263.4652777777778 Z" stroke-miterlimit="10"/><rect fill="#1f77b4" stroke="none" x="176" y="217.52083333333331" width="53.30071721311475" height="34.45833333333337"/><path fill="none" stroke="#1f77b4" paint-order="fill stroke markers" d=" M 176 217.52083333333331 L 229.30071721311475 217.52083333333331 L 229.30071721311475 251.97916666666669 L 176 251.97916666666669 L 176 217.52083333333331 Z" stroke-miterlimit="10"/><rect fill="#1f77b4" stroke="none" x="176" y="171.57638888888886" width="27.520491803278702" height="34.45833333333337"/><path fill="none" stroke="#1f77b4" paint-order="fill stroke markers" d=" M 176 171.57638888888886 L 203.5204918032787 171.57638888888886 L 203.5204918032787 206.03472222222223 L 176 206.03472222222223 L 176 171.57638888888886 Z" stroke-miterlimit="10"/><rect fill="#1f77b4" stroke="none" x="176" y="125.6319444444444" width="27.15625" height="34.45833333333337"/><path fill="none" stroke="#1f77b4" paint-order="fill stroke markers" d=" M 176 125.6319444444444 L 203.15625 125.6319444444444 L 203.15625 160.09027777777777 L 176 160.09027777777777 L 176 125.6319444444444 Z" stroke-miterlimit="10"/><rect fill="#1f77b4" stroke="none" x="176" y="79.68750000000006" width="20.27612704918033" height="34.45833333333337"/><path fill="none" stroke="#1f77b4" paint-order="fill stroke markers" d=" M 176 79.68750000000006 L 196.27612704918033 79.68750000000006 L 196.27612704918033 114.14583333333343 L 176 114.14583333333343 L 176 79.68750000000006 Z" stroke-miterlimit="10"/><rect fill="#1f77b4" stroke="none" x="176" y="33.7430555555556" width="8.377561475409834" height="34.45833333333337"/><path fill="none" stroke="#1f77b4" paint-order="fill stroke markers" d=" M 176 33.7430555555556 L 184.37756147540983 33.7430555555556 L 184.37756147540983 68.20138888888897 L 176 68.20138888888897 L 176 33.7430555555556 Z" stroke-miterlimit="10"/></g><g fill="#444444"><path fill="" stroke="none" d=""/><g transform="translate(578.9764344262296,830.0277777777778) rotate(0,0,0)"><path fill="none" stroke="none"/><text fill="" stroke="none" font-family="helvetica" font-size="8pt" font-style="normal" font-weight="normal" text-decoration="normal" x="0" y="0" text-anchor="start" dominant-baseline="text-after-edge">77.82%</text></g></g><g fill="#444444"><path fill="" stroke="none" d=""/><g transform="translate(406.204405737705,784.0833333333334) rotate(0,0,0)"><path fill="none" stroke="none"/><text fill="" stroke="none" font-family="helvetica" font-size="8pt" font-style="normal" font-weight="normal" text-decoration="normal" x="0" y="0" text-anchor="start" dominant-baseline="text-after-edge">43.61%</text></g></g><g fill="#444444"><path fill="" stroke="none" d=""/><g transform="translate(387.1019467213115,738.1388888888889) rotate(0,0,0)"><path fill="none" stroke="none"/><text fill="" stroke="none" font-family="helvetica" font-size="8pt" font-style="normal" font-weight="normal" text-decoration="normal" x="0" y="0" text-anchor="start" dominant-baseline="text-after-edge">39.83%</text></g></g><g fill="#444444"><path fill="" stroke="none" d=""/><g transform="translate(386.7377049180328,692.1944444444445) rotate(0,0,0)"><path fill="none" stroke="none"/><text fill="" stroke="none" font-family="helvetica" font-size="8pt" font-style="normal" font-weight="normal" text-decoration="normal" x="0" y="0" text-anchor="start" dominant-baseline="text-after-edge">39.75%</text></g></g><g fill="#444444"><path fill="" stroke="none" d=""/><g transform="translate(370.953893442623,646.25) rotate(0,0,0)"><path fill="none" stroke="none"/><text fill="" stroke="none" font-family="helvetica" font-size="8pt" font-style="normal" font-weight="normal" text-decoration="normal" x="0" y="0" text-anchor="start" dominant-baseline="text-after-edge">36.63%</text></g></g><g fill="#444444"><path fill="" stroke="none" d=""/><g transform="translate(363.87141393442624,600.3055555555555) rotate(0,0,0)"><path fill="none" stroke="none"/><text fill="" stroke="none" font-family="helvetica" font-size="8pt" font-style="normal" font-weight="normal" text-decoration="normal" x="0" y="0" text-anchor="start" dominant-baseline="text-after-edge">35.22%</text></g></g><g fill="#444444"><path fill="" stroke="none" d=""/><g transform="translate(346.38780737704917,554.3611111111111) rotate(0,0,0)"><path fill="none" stroke="none"/><text fill="" stroke="none" font-family="helvetica" font-size="8pt" font-style="normal" font-weight="normal" text-decoration="normal" x="0" y="0" text-anchor="start" dominant-baseline="text-after-edge">31.76%</text></g></g><g fill="#444444"><path fill="" stroke="none" d=""/><g transform="translate(307.2115778688525,508.4166666666667) rotate(0,0,0)"><path fill="none" stroke="none"/><text fill="" stroke="none" font-family="helvetica" font-size="8pt" font-style="normal" font-weight="normal" text-decoration="normal" x="0" y="0" text-anchor="start" dominant-baseline="text-after-edge">24.00%</text></g></g><g fill="#444444"><path fill="" stroke="none" d=""/><g transform="translate(294.8678278688525,462.47222222222223) rotate(0,0,0)"><path fill="none" stroke="none"/><text fill="" stroke="none" font-family="helvetica" font-size="8pt" font-style="normal" font-weight="normal" text-decoration="normal" x="0" y="0" text-anchor="start" dominant-baseline="text-after-edge">21.56%</text></g></g><g fill="#444444"><path fill="" stroke="none" d=""/><g transform="translate(285.80225409836066,416.52777777777777) rotate(0,0,0)"><path fill="none" stroke="none"/><text fill="" stroke="none" font-family="helvetica" font-size="8pt" font-style="normal" font-weight="normal" text-decoration="normal" x="0" y="0" text-anchor="start" dominant-baseline="text-after-edge">19.76%</text></g></g><g fill="#444444"><path fill="" stroke="none" d=""/><g transform="translate(284.7904713114754,370.58333333333337) rotate(0,0,0)"><path fill="none" stroke="none"/><text fill="" stroke="none" font-family="helvetica" font-size="8pt" font-style="normal" font-weight="normal" text-decoration="normal" x="0" y="0" text-anchor="start" dominant-baseline="text-after-edge">19.56%</text></g></g><g fill="#444444"><path fill="" stroke="none" d=""/><g transform="translate(279.4482581967213,324.6388888888889) rotate(0,0,0)"><path fill="none" stroke="none"/><text fill="" stroke="none" font-family="helvetica" font-size="8pt" font-style="normal" font-weight="normal" text-decoration="normal" x="0" y="0" text-anchor="start" dominant-baseline="text-after-edge">18.51%</text></g></g><g fill="#444444"><path fill="" stroke="none" d=""/><g transform="translate(264.5952868852459,278.69444444444446) rotate(0,0,0)"><path fill="none" stroke="none"/><text fill="" stroke="none" font-family="helvetica" font-size="8pt" font-style="normal" font-weight="normal" text-decoration="normal" x="0" y="0" text-anchor="start" dominant-baseline="text-after-edge">15.56%</text></g></g><g fill="#444444"><path fill="" stroke="none" d=""/><g transform="translate(239.30071721311475,232.75) rotate(0,0,0)"><path fill="none" stroke="none"/><text fill="" stroke="none" font-family="helvetica" font-size="8pt" font-style="normal" font-weight="normal" text-decoration="normal" x="0" y="0" text-anchor="start" dominant-baseline="text-after-edge">10.56%</text></g></g><g fill="#444444"><path fill="" stroke="none" d=""/><g transform="translate(213.5204918032787,186.80555555555554) rotate(0,0,0)"><path fill="none" stroke="none"/><text fill="" stroke="none" font-family="helvetica" font-size="8pt" font-style="normal" font-weight="normal" text-decoration="normal" x="0" y="0" text-anchor="start" dominant-baseline="text-after-edge">5.45%</text></g></g><g fill="#444444"><path fill="" stroke="none" d=""/><g transform="translate(213.15625,140.8611111111111) rotate(0,0,0)"><path fill="none" stroke="none"/><text fill="" stroke="none" font-family="helvetica" font-size="8pt" font-style="normal" font-weight="normal" text-decoration="normal" x="0" y="0" text-anchor="start" dominant-baseline="text-after-edge">5.38%</text></g></g><g fill="#444444"><path fill="" stroke="none" d=""/><g transform="translate(206.27612704918033,94.91666666666674) rotate(0,0,0)"><path fill="none" stroke="none"/><text fill="" stroke="none" font-family="helvetica" font-size="8pt" font-style="normal" font-weight="normal" text-decoration="normal" x="0" y="0" text-anchor="start" dominant-baseline="text-after-edge">4.02%</text></g></g><g fill="#444444"><path fill="" stroke="none" d=""/><g transform="translate(194.37756147540983,48.972222222222285) rotate(0,0,0)"><path fill="none" stroke="none"/><text fill="" stroke="none" font-family="helvetica" font-size="8pt" font-style="normal" font-weight="normal" text-decoration="normal" x="0" y="0" text-anchor="start" dominant-baseline="text-after-edge">1.66%</text></g></g><g fill="#444444"><path fill="" stroke="none" d=""/><g transform="translate(578.9764344262296,844.0277777777778) rotate(0,0,0)"><path fill="none" stroke="none"/><text fill="" stroke="none" font-family="helvetica" font-size="8pt" font-style="normal" font-weight="normal" text-decoration="normal" x="0" y="0" text-anchor="start" dominant-baseline="text-after-edge">9710</text></g></g><g fill="#444444"><path fill="" stroke="none" d=""/><g transform="translate(406.204405737705,798.0833333333334) rotate(0,0,0)"><path fill="none" stroke="none"/><text fill="" stroke="none" font-family="helvetica" font-size="8pt" font-style="normal" font-weight="normal" text-decoration="normal" x="0" y="0" text-anchor="start" dominant-baseline="text-after-edge">5441</text></g></g><g fill="#444444"><path fill="" stroke="none" d=""/><g transform="translate(387.1019467213115,752.1388888888889) rotate(0,0,0)"><path fill="none" stroke="none"/><text fill="" stroke="none" font-family="helvetica" font-size="8pt" font-style="normal" font-weight="normal" text-decoration="normal" x="0" y="0" text-anchor="start" dominant-baseline="text-after-edge">4969</text></g></g><g fill="#444444"><path fill="" stroke="none" d=""/><g transform="translate(386.7377049180328,706.1944444444445) rotate(0,0,0)"><path fill="none" stroke="none"/><text fill="" stroke="none" font-family="helvetica" font-size="8pt" font-style="normal" font-weight="normal" text-decoration="normal" x="0" y="0" text-anchor="start" dominant-baseline="text-after-edge">4960</text></g></g><g fill="#444444"><path fill="" stroke="none" d=""/><g transform="translate(370.953893442623,660.25) rotate(0,0,0)"><path fill="none" stroke="none"/><text fill="" stroke="none" font-family="helvetica" font-size="8pt" font-style="normal" font-weight="normal" text-decoration="normal" x="0" y="0" text-anchor="start" dominant-baseline="text-after-edge">4570</text></g></g><g fill="#444444"><path fill="" stroke="none" d=""/><g transform="translate(363.87141393442624,614.3055555555555) rotate(0,0,0)"><path fill="none" stroke="none"/><text fill="" stroke="none" font-family="helvetica" font-size="8pt" font-style="normal" font-weight="normal" text-decoration="normal" x="0" y="0" text-anchor="start" dominant-baseline="text-after-edge">4395</text></g></g><g fill="#444444"><path fill="" stroke="none" d=""/><g transform="translate(346.38780737704917,568.3611111111111) rotate(0,0,0)"><path fill="none" stroke="none"/><text fill="" stroke="none" font-family="helvetica" font-size="8pt" font-style="normal" font-weight="normal" text-decoration="normal" x="0" y="0" text-anchor="start" dominant-baseline="text-after-edge">3963</text></g></g><g fill="#444444"><path fill="" stroke="none" d=""/><g transform="translate(307.2115778688525,522.4166666666667) rotate(0,0,0)"><path fill="none" stroke="none"/><text fill="" stroke="none" font-family="helvetica" font-size="8pt" font-style="normal" font-weight="normal" text-decoration="normal" x="0" y="0" text-anchor="start" dominant-baseline="text-after-edge">2995</text></g></g><g fill="#444444"><path fill="" stroke="none" d=""/><g transform="translate(294.8678278688525,476.47222222222223) rotate(0,0,0)"><path fill="none" stroke="none"/><text fill="" stroke="none" font-family="helvetica" font-size="8pt" font-style="normal" font-weight="normal" text-decoration="normal" x="0" y="0" text-anchor="start" dominant-baseline="text-after-edge">2690</text></g></g><g fill="#444444"><path fill="" stroke="none" d=""/><g transform="translate(285.80225409836066,430.52777777777777) rotate(0,0,0)"><path fill="none" stroke="none"/><text fill="" stroke="none" font-family="helvetica" font-size="8pt" font-style="normal" font-weight="normal" text-decoration="normal" x="0" y="0" text-anchor="start" dominant-baseline="text-after-edge">2466</text></g></g><g fill="#444444"><path fill="" stroke="none" d=""/><g transform="translate(284.7904713114754,384.58333333333337) rotate(0,0,0)"><path fill="none" stroke="none"/><text fill="" stroke="none" font-family="helvetica" font-size="8pt" font-style="normal" font-weight="normal" text-decoration="normal" x="0" y="0" text-anchor="start" dominant-baseline="text-after-edge">2441</text></g></g><g fill="#444444"><path fill="" stroke="none" d=""/><g transform="translate(279.4482581967213,338.6388888888889) rotate(0,0,0)"><path fill="none" stroke="none"/><text fill="" stroke="none" font-family="helvetica" font-size="8pt" font-style="normal" font-weight="normal" text-decoration="normal" x="0" y="0" text-anchor="start" dominant-baseline="text-after-edge">2309</text></g></g><g fill="#444444"><path fill="" stroke="none" d=""/><g transform="translate(264.5952868852459,292.69444444444446) rotate(0,0,0)"><path fill="none" stroke="none"/><text fill="" stroke="none" font-family="helvetica" font-size="8pt" font-style="normal" font-weight="normal" text-decoration="normal" x="0" y="0" text-anchor="start" dominant-baseline="text-after-edge">1942</text></g></g><g fill="#444444"><path fill="" stroke="none" d=""/><g transform="translate(239.30071721311475,246.75) rotate(0,0,0)"><path fill="none" stroke="none"/><text fill="" stroke="none" font-family="helvetica" font-size="8pt" font-style="normal" font-weight="normal" text-decoration="normal" x="0" y="0" text-anchor="start" dominant-baseline="text-after-edge">1317</text></g></g><g fill="#444444"><path fill="" stroke="none" d=""/><g transform="translate(213.5204918032787,200.80555555555554) rotate(0,0,0)"><path fill="none" stroke="none"/><text fill="" stroke="none" font-family="helvetica" font-size="8pt" font-style="normal" font-weight="normal" text-decoration="normal" x="0" y="0" text-anchor="start" dominant-baseline="text-after-edge">680</text></g></g><g fill="#444444"><path fill="" stroke="none" d=""/><g transform="translate(213.15625,154.8611111111111) rotate(0,0,0)"><path fill="none" stroke="none"/><text fill="" stroke="none" font-family="helvetica" font-size="8pt" font-style="normal" font-weight="normal" text-decoration="normal" x="0" y="0" text-anchor="start" dominant-baseline="text-after-edge">671</text></g></g><g fill="#444444"><path fill="" stroke="none" d=""/><g transform="translate(206.27612704918033,108.91666666666674) rotate(0,0,0)"><path fill="none" stroke="none"/><text fill="" stroke="none" font-family="helvetica" font-size="8pt" font-style="normal" font-weight="normal" text-decoration="normal" x="0" y="0" text-anchor="start" dominant-baseline="text-after-edge">501</text></g></g><g fill="#444444"><path fill="" stroke="none" d=""/><g transform="translate(194.37756147540983,62.972222222222285) rotate(0,0,0)"><path fill="none" stroke="none"/><text fill="" stroke="none" font-family="helvetica" font-size="8pt" font-style="normal" font-weight="normal" text-decoration="normal" x="0" y="0" text-anchor="start" dominant-baseline="text-after-edge">207</text></g></g></g><g/><g><g fill="#444444"><path fill="none" stroke="black" paint-order="fill stroke markers" d=" M 176 855 L 650 855" stroke-miterlimit="10"/><path fill="none" stroke="black" paint-order="fill stroke markers" d=" M 176 861 L 176 853" stroke-miterlimit="10"/><path fill="none" stroke="black" paint-order="fill stroke markers" d=" M 257 861 L 257 853" stroke-miterlimit="10"/><path fill="none" stroke="black" paint-order="fill stroke markers" d=" M 338 861 L 338 853" stroke-miterlimit="10"/><path fill="none" stroke="black" paint-order="fill stroke markers" d=" M 419 861 L 419 853" stroke-miterlimit="10"/><path fill="none" stroke="black" paint-order="fill stroke markers" d=" M 500 861 L 500 853" stroke-miterlimit="10"/><path fill="none" stroke="black" paint-order="fill stroke markers" d=" M 581 861 L 581 853" stroke-miterlimit="10"/><path fill="none" stroke="black" paint-order="fill stroke markers" d=" M 176 859 L 176 855" stroke-miterlimit="10"/><path fill="none" stroke="black" paint-order="fill stroke markers" d=" M 192 859 L 192 855" stroke-miterlimit="10"/><path fill="none" stroke="black" paint-order="fill stroke markers" d=" M 208 859 L 208 855" stroke-miterlimit="10"/><path fill="none" stroke="black" paint-order="fill stroke markers" d=" M 225 859 L 225 855" stroke-miterlimit="10"/><path fill="none" stroke="black" paint-order="fill stroke markers" d=" M 241 859 L 241 855" stroke-miterlimit="10"/><path fill="none" stroke="black" paint-order="fill stroke markers" d=" M 257 859 L 257 855" stroke-miterlimit="10"/><path fill="none" stroke="black" paint-order="fill stroke markers" d=" M 273 859 L 273 855" stroke-miterlimit="10"/><path fill="none" stroke="black" paint-order="fill stroke markers" d=" M 289 859 L 289 855" stroke-miterlimit="10"/><path fill="none" stroke="black" paint-order="fill stroke markers" d=" M 306 859 L 306 855" stroke-miterlimit="10"/><path fill="none" stroke="black" paint-order="fill stroke markers" d=" M 322 859 L 322 855" stroke-miterlimit="10"/><path fill="none" stroke="black" paint-order="fill stroke markers" d=" M 338 859 L 338 855" stroke-miterlimit="10"/><path fill="none" stroke="black" paint-order="fill stroke markers" d=" M 354 859 L 354 855" stroke-miterlimit="10"/><path fill="none" stroke="black" paint-order="fill stroke markers" d=" M 370 859 L 370 855" stroke-miterlimit="10"/><path fill="none" stroke="black" paint-order="fill stroke markers" d=" M 386 859 L 386 855" stroke-miterlimit="10"/><path fill="none" stroke="black" paint-order="fill stroke markers" d=" M 403 859 L 403 855" stroke-miterlimit="10"/><path fill="none" stroke="black" paint-order="fill stroke markers" d=" M 419 859 L 419 855" stroke-miterlimit="10"/><path fill="none" stroke="black" paint-order="fill stroke markers" d=" M 435 859 L 435 855" stroke-miterlimit="10"/><path fill="none" stroke="black" paint-order="fill stroke markers" d=" M 451 859 L 451 855" stroke-miterlimit="10"/><path fill="none" stroke="black" paint-order="fill stroke markers" d=" M 467 859 L 467 855" stroke-miterlimit="10"/><path fill="none" stroke="black" paint-order="fill stroke markers" d=" M 484 859 L 484 855" stroke-miterlimit="10"/><path fill="none" stroke="black" paint-order="fill stroke markers" d=" M 500 859 L 500 855" stroke-miterlimit="10"/><path fill="none" stroke="black" paint-order="fill stroke markers" d=" M 516 859 L 516 855" stroke-miterlimit="10"/><path fill="none" stroke="black" paint-order="fill stroke markers" d=" M 532 859 L 532 855" stroke-miterlimit="10"/><path fill="none" stroke="black" paint-order="fill stroke markers" d=" M 548 859 L 548 855" stroke-miterlimit="10"/><path fill="none" stroke="black" paint-order="fill stroke markers" d=" M 565 859 L 565 855" stroke-miterlimit="10"/><path fill="none" stroke="black" paint-order="fill stroke markers" d=" M 581 859 L 581 855" stroke-miterlimit="10"/><path fill="none" stroke="black" paint-order="fill stroke markers" d=" M 597 859 L 597 855" stroke-miterlimit="10"/><path fill="none" stroke="black" paint-order="fill stroke markers" d=" M 613 859 L 613 855" stroke-miterlimit="10"/><path fill="none" stroke="black" paint-order="fill stroke markers" d=" M 629 859 L 629 855" stroke-miterlimit="10"/><path fill="" stroke="black" paint-order="fill stroke markers" d=" M 645 859 L 645 855" stroke-miterlimit="10"/><g transform="translate(176,866) rotate(0,0,0)"><text fill="" stroke="none" font-family="helvetica" font-size="8pt" font-style="normal" font-weight="normal" text-decoration="normal" x="0" y="0" text-anchor="middle" dominant-baseline="hanging">0</text><g transform="rotate(0,0,0) translate(-176,-866) translate(257,866) rotate(0,0,0)"><text fill="" stroke="none" font-family="helvetica" font-size="8pt" font-style="normal" font-weight="normal" text-decoration="normal" x="0" y="0" text-anchor="middle" dominant-baseline="hanging">2000</text><g transform="rotate(0,0,0) translate(-257,-866) translate(338,866) rotate(0,0,0)"><text fill="" stroke="none" font-family="helvetica" font-size="8pt" font-style="normal" font-weight="normal" text-decoration="normal" x="0" y="0" text-anchor="middle" dominant-baseline="hanging">4000</text><g transform="rotate(0,0,0) translate(-338,-866) translate(419,866) rotate(0,0,0)"><text fill="" stroke="none" font-family="helvetica" font-size="8pt" font-style="normal" font-weight="normal" text-decoration="normal" x="0" y="0" text-anchor="middle" dominant-baseline="hanging">6000</text><g transform="rotate(0,0,0) translate(-419,-866) translate(500,866) rotate(0,0,0)"><text fill="" stroke="none" font-family="helvetica" font-size="8pt" font-style="normal" font-weight="normal" text-decoration="normal" x="0" y="0" text-anchor="middle" dominant-baseline="hanging">8000</text><g transform="rotate(0,0,0) translate(-500,-866) translate(581,866) rotate(0,0,0)"><text fill="" stroke="none" font-family="helvetica" font-size="8pt" font-style="normal" font-weight="normal" text-decoration="normal" x="0" y="0" text-anchor="middle" dominant-baseline="hanging">10000</text><g transform="rotate(0,0,0) translate(-581,-866) translate(413,884) rotate(0,0,0)"><text fill="" stroke="none" font-family="helvetica" font-size="10pt" font-style="italic" font-weight="normal" text-decoration="normal" x="0" y="0" text-anchor="middle" dominant-baseline="hanging">Respondents</text><g transform="rotate(0,0,0) translate(-413,-884)"/></g></g></g></g></g></g></g></g><g fill="#444444"><path fill="none" stroke="black" paint-order="fill stroke markers" d=" M 176 855 L 176 28" stroke-miterlimit="10"/><path fill="none" stroke="black" paint-order="fill stroke markers" d=" M 170 832 L 178 832" stroke-miterlimit="10"/><path fill="none" stroke="black" paint-order="fill stroke markers" d=" M 170 786 L 178 786" stroke-miterlimit="10"/><path fill="none" stroke="black" paint-order="fill stroke markers" d=" M 170 740 L 178 740" stroke-miterlimit="10"/><path fill="none" stroke="black" paint-order="fill stroke markers" d=" M 170 694 L 178 694" stroke-miterlimit="10"/><path fill="none" stroke="black" paint-order="fill stroke markers" d=" M 170 648 L 178 648" stroke-miterlimit="10"/><path fill="none" stroke="black" paint-order="fill stroke markers" d=" M 170 602 L 178 602" stroke-miterlimit="10"/><path fill="none" stroke="black" paint-order="fill stroke markers" d=" M 170 556 L 178 556" stroke-miterlimit="10"/><path fill="none" stroke="black" paint-order="fill stroke markers" d=" M 170 510 L 178 510" stroke-miterlimit="10"/><path fill="none" stroke="black" paint-order="fill stroke markers" d=" M 170 464 L 178 464" stroke-miterlimit="10"/><path fill="none" stroke="black" paint-order="fill stroke markers" d=" M 170 419 L 178 419" stroke-miterlimit="10"/><path fill="none" stroke="black" paint-order="fill stroke markers" d=" M 170 373 L 178 373" stroke-miterlimit="10"/><path fill="none" stroke="black" paint-order="fill stroke markers" d=" M 170 327 L 178 327" stroke-miterlimit="10"/><path fill="none" stroke="black" paint-order="fill stroke markers" d=" M 170 281 L 178 281" stroke-miterlimit="10"/><path fill="none" stroke="black" paint-order="fill stroke markers" d=" M 170 235 L 178 235" stroke-miterlimit="10"/><path fill="none" stroke="black" paint-order="fill stroke markers" d=" M 170 189 L 178 189" stroke-miterlimit="10"/><path fill="none" stroke="black" paint-order="fill stroke markers" d=" M 170 143 L 178 143" stroke-miterlimit="10"/><path fill="none" stroke="black" paint-order="fill stroke markers" d=" M 170 97 L 178 97" stroke-miterlimit="10"/><path fill="" stroke="black" paint-order="fill stroke markers" d=" M 170 51 L 178 51" stroke-miterlimit="10"/><g transform="translate(165,832) rotate(0,0,0)"><text fill="" stroke="none" font-family="helvetica" font-size="8pt" font-style="normal" font-weight="normal" text-decoration="normal" x="0" y="0" text-anchor="end" dominant-baseline="central">Brainstorming and Ideation</text><g transform="rotate(0,0,0) translate(-165,-832) translate(165,786) rotate(0,0,0)"><text fill="" stroke="none" font-family="helvetica" font-size="8pt" font-style="normal" font-weight="normal" text-decoration="normal" x="0" y="0" text-anchor="end" dominant-baseline="central">Project Management</text><g transform="rotate(0,0,0) translate(-165,-786) translate(165,740) rotate(0,0,0)"><text fill="" stroke="none" font-family="helvetica" font-size="8pt" font-style="normal" font-weight="normal" text-decoration="normal" x="0" y="0" text-anchor="end" dominant-baseline="central">Drawing or Painting</text><g transform="rotate(0,0,0) translate(-165,-740) translate(165,694) rotate(0,0,0)"><text fill="" stroke="none" font-family="helvetica" font-size="8pt" font-style="normal" font-weight="normal" text-decoration="normal" x="0" y="0" text-anchor="end" dominant-baseline="central">Leadership</text><g transform="rotate(0,0,0) translate(-165,-694) translate(165,648) rotate(0,0,0)"><text fill="" stroke="none" font-family="helvetica" font-size="8pt" font-style="normal" font-weight="normal" text-decoration="normal" x="0" y="0" text-anchor="end" dominant-baseline="central">Writing</text><g transform="rotate(0,0,0) translate(-165,-648) translate(165,602) rotate(0,0,0)"><text fill="" stroke="none" font-family="helvetica" font-size="8pt" font-style="normal" font-weight="normal" text-decoration="normal" x="0" y="0" text-anchor="end" dominant-baseline="central">Mentoring</text><g transform="rotate(0,0,0) translate(-165,-602) translate(165,556) rotate(0,0,0)"><text fill="" stroke="none" font-family="helvetica" font-size="8pt" font-style="normal" font-weight="normal" text-decoration="normal" x="0" y="0" text-anchor="end" dominant-baseline="central">Social Media</text><g transform="rotate(0,0,0) translate(-165,-556) translate(165,510) rotate(0,0,0)"><text fill="" stroke="none" font-family="helvetica" font-size="8pt" font-style="normal" font-weight="normal" text-decoration="normal" x="0" y="0" text-anchor="end" dominant-baseline="central">Business</text><g transform="rotate(0,0,0) translate(-165,-510) translate(165,464) rotate(0,0,0)"><text fill="" stroke="none" font-family="helvetica" font-size="8pt" font-style="normal" font-weight="normal" text-decoration="normal" x="0" y="0" text-anchor="end" dominant-baseline="central">Public Speaking</text><g transform="rotate(0,0,0) translate(-165,-464) translate(165,419) rotate(0,0,0)"><text fill="" stroke="none" font-family="helvetica" font-size="8pt" font-style="normal" font-weight="normal" text-decoration="normal" x="0" y="0" text-anchor="end" dominant-baseline="central">Diversity and Inclusion</text><g transform="rotate(0,0,0) translate(-165,-419) translate(165,373) rotate(0,0,0)"><text fill="" stroke="none" font-family="helvetica" font-size="8pt" font-style="normal" font-weight="normal" text-decoration="normal" x="0" y="0" text-anchor="end" dominant-baseline="central">Coding</text><g transform="rotate(0,0,0) translate(-165,-373) translate(165,327) rotate(0,0,0)"><text fill="" stroke="none" font-family="helvetica" font-size="8pt" font-style="normal" font-weight="normal" text-decoration="normal" x="0" y="0" text-anchor="end" dominant-baseline="central">Facilitation</text><g transform="rotate(0,0,0) translate(-165,-327) translate(165,281) rotate(0,0,0)"><text fill="" stroke="none" font-family="helvetica" font-size="8pt" font-style="normal" font-weight="normal" text-decoration="normal" x="0" y="0" text-anchor="end" dominant-baseline="central">Relationship Management</text><g transform="rotate(0,0,0) translate(-165,-281) translate(165,235) rotate(0,0,0)"><text fill="" stroke="none" font-family="helvetica" font-size="8pt" font-style="normal" font-weight="normal" text-decoration="normal" x="0" y="0" text-anchor="end" dominant-baseline="central">Data Analysis</text><g transform="rotate(0,0,0) translate(-165,-235) translate(165,189) rotate(0,0,0)"><text fill="" stroke="none" font-family="helvetica" font-size="8pt" font-style="normal" font-weight="normal" text-decoration="normal" x="0" y="0" text-anchor="end" dominant-baseline="central">SEO/SEM</text><g transform="rotate(0,0,0) translate(-165,-189) translate(165,143) rotate(0,0,0)"><text fill="" stroke="none" font-family="helvetica" font-size="8pt" font-style="normal" font-weight="normal" text-decoration="normal" x="0" y="0" text-anchor="end" dominant-baseline="central">Sales</text><g transform="rotate(0,0,0) translate(-165,-143) translate(165,97) rotate(0,0,0)"><text fill="" stroke="none" font-family="helvetica" font-size="8pt" font-style="normal" font-weight="normal" text-decoration="normal" x="0" y="0" text-anchor="end" dominant-baseline="central">Engineering</text><g transform="rotate(0,0,0) translate(-165,-97) translate(165,51) rotate(0,0,0)"><text fill="" stroke="none" font-family="helvetica" font-size="8pt" font-style="normal" font-weight="normal" text-decoration="normal" x="0" y="0" text-anchor="end" dominant-baseline="central">None of these</text><g transform="rotate(0,0,0) translate(-165,-51) translate(16,442) rotate(-90,0,0)"><text fill="" stroke="none" font-family="helvetica" font-size="10pt" font-style="italic" font-weight="normal" text-decoration="normal" x="0" y="0" text-anchor="middle" dominant-baseline="alphabetic">Categories</text><g transform="rotate(90,0,0) translate(-16,-442)"/></g></g></g></g></g></g></g></g></g></g></g></g></g></g></g></g></g></g></g></g><g fill="#444444"><path fill="" stroke="none" d=""/><g transform="translate(176,23)"><path fill="none" stroke="none"/><text fill="" stroke="none" font-family="helvetica" font-size="10pt" font-style="normal" font-weight="bold" text-decoration="normal" x="0" y="0" text-anchor="start" dominant-baseline="text-after-edge">All: I'm also good at:</text></g></g></g></g></g></svg>