<svg version="1.1" xmlns="http://www.w3.org/2000/svg" xmlns:xlink="http://www.w3.org/1999/xlink" width="700" height="900" style="width: 700px; height: 900px;"><defs/><g><g transform="scale(1,1) translate(0.5,0.5)"><rect fill="#FFFFFF" stroke="none" x="0" y="0" width="700" height="900"/><rect fill="#ffffff" stroke="none" x="0" y="0" width="700" height="900"/><rect fill="#FFFFFF" stroke="none" x="159" y="28" width="491" height="827"/><rect fill="#ffffff" stroke="none" x="159" y="28" width="491" height="827"/><g><rect fill="none" stroke="#e5e5e5" x="159" y="28" width="491" height="827" stroke-miterlimit="10"/></g><g><g><path fill="none" stroke="#e5e5e5" paint-order="fill stroke markers" d=" M 299 855 L 299 28" stroke-miterlimit="10"/><path fill="none" stroke="#e5e5e5" paint-order="fill stroke markers" d=" M 438 855 L 438 28" stroke-miterlimit="10"/><path fill="none" stroke="#e5e5e5" paint-order="fill stroke markers" d=" M 578 855 L 578 28" stroke-miterlimit="10"/></g><g><path fill="none" stroke="#e5e5e5" paint-order="fill stroke markers" d=" M 159 832 L 650 832" stroke-miterlimit="10"/><path fill="none" stroke="#e5e5e5" paint-order="fill stroke markers" d=" M 159 786 L 650 786" stroke-miterlimit="10"/><path fill="none" stroke="#e5e5e5" paint-order="fill stroke markers" d=" M 159 740 L 650 740" stroke-miterlimit="10"/><path fill="none" stroke="#e5e5e5" paint-order="fill stroke markers" d=" M 159 694 L 650 694" stroke-miterlimit="10"/><path fill="none" stroke="#e5e5e5" paint-order="fill stroke markers" d=" M 159 648 L 650 648" stroke-miterlimit="10"/><path fill="none" stroke="#e5e5e5" paint-order="fill stroke markers" d=" M 159 602 L 650 602" stroke-miterlimit="10"/><path fill="none" stroke="#e5e5e5" paint-order="fill stroke markers" d=" M 159 556 L 650 556" stroke-miterlimit="10"/><path fill="none" stroke="#e5e5e5" paint-order="fill stroke markers" d=" M 159 510 L 650 510" stroke-miterlimit="10"/><path fill="none" stroke="#e5e5e5" paint-order="fill stroke markers" d=" M 159 464 L 650 464" stroke-miterlimit="10"/><path fill="none" stroke="#e5e5e5" paint-order="fill stroke markers" d=" M 159 419 L 650 419" stroke-miterlimit="10"/><path fill="none" stroke="#e5e5e5" paint-order="fill stroke markers" d=" M 159 373 L 650 373" stroke-miterlimit="10"/><path fill="none" stroke="#e5e5e5" paint-order="fill stroke markers" d=" M 159 327 L 650 327" stroke-miterlimit="10"/><path fill="none" stroke="#e5e5e5" paint-order="fill stroke markers" d=" M 159 281 L 650 281" stroke-miterlimit="10"/><path fill="none" stroke="#e5e5e5" paint-order="fill stroke markers" d=" M 159 235 L 650 235" stroke-miterlimit="10"/><path fill="none" stroke="#e5e5e5" paint-order="fill stroke markers" d=" M 159 189 L 650 189" stroke-miterlimit="10"/><path fill="none" stroke="#e5e5e5" paint-order="fill stroke markers" d=" M 159 143 L 650 143" stroke-miterlimit="10"/><path fill="none" stroke="#e5e5e5" paint-order="fill stroke markers" d=" M 159 97 L 650 97" stroke-miterlimit="10"/><path fill="none" stroke="#e5e5e5" paint-order="fill stroke markers" d=" M 159 51 L 650 51" stroke-miterlimit="10"/></g><g><path fill="none" stroke="none"/><rect fill="#1f77b4" stroke="none" x="159" y="814.7986111111111" width="395.2114597544338" height="34.458333333333485"/><path fill="none" stroke="#1f77b4" paint-order="fill stroke markers" d=" M 159 814.7986111111111 L 554.2114597544338 814.7986111111111 L 554.2114597544338 849.2569444444446 L 159 849.2569444444446 L 159 814.7986111111111 Z" stroke-miterlimit="10"/><rect fill="#1f77b4" stroke="none" x="159" y="768.8541666666667" width="388.79206457480666" height="34.45833333333326"/><path fill="none" stroke="#1f77b4" paint-order="fill stroke markers" d=" M 159 768.8541666666667 L 547.7920645748067 768.8541666666667 L 547.7920645748067 803.3125 L 159 803.3125 L 159 768.8541666666667 Z" stroke-miterlimit="10"/><rect fill="#1f77b4" stroke="none" x="159" y="722.9097222222222" width="209.60720782173712" height="34.458333333333485"/><path fill="none" stroke="#1f77b4" paint-order="fill stroke markers" d=" M 159 722.9097222222222 L 368.6072078217371 722.9097222222222 L 368.6072078217371 757.3680555555557 L 159 757.3680555555557 L 159 722.9097222222222 Z" stroke-miterlimit="10"/><rect fill="#1f77b4" stroke="none" x="159" y="676.9652777777778" width="172.48635743519776" height="34.45833333333326"/><path fill="none" stroke="#1f77b4" paint-order="fill stroke markers" d=" M 159 676.9652777777778 L 331.48635743519776 676.9652777777778 L 331.48635743519776 711.4236111111111 L 159 711.4236111111111 L 159 676.9652777777778 Z" stroke-miterlimit="10"/><rect fill="#1f77b4" stroke="none" x="159" y="631.0208333333333" width="155.46100500227374" height="34.458333333333485"/><path fill="none" stroke="#1f77b4" paint-order="fill stroke markers" d=" M 159 631.0208333333333 L 314.46100500227374 631.0208333333333 L 314.46100500227374 665.4791666666667 L 159 665.4791666666667 L 159 631.0208333333333 Z" stroke-miterlimit="10"/><rect fill="#1f77b4" stroke="none" x="159" y="585.0763888888889" width="145.69236016371076" height="34.45833333333326"/><path fill="none" stroke="#1f77b4" paint-order="fill stroke markers" d=" M 159 585.0763888888889 L 304.69236016371076 585.0763888888889 L 304.69236016371076 619.5347222222222 L 159 619.5347222222222 L 159 585.0763888888889 Z" stroke-miterlimit="10"/><rect fill="#1f77b4" stroke="none" x="159" y="539.1319444444443" width="89.87153251477943" height="34.458333333333485"/><path fill="none" stroke="#1f77b4" paint-order="fill stroke markers" d=" M 159 539.1319444444443 L 248.87153251477943 539.1319444444443 L 248.87153251477943 573.5902777777778 L 159 573.5902777777778 L 159 539.1319444444443 Z" stroke-miterlimit="10"/><rect fill="#1f77b4" stroke="none" x="159" y="493.1875" width="41.58651659845384" height="34.45833333333337"/><path fill="none" stroke="#1f77b4" paint-order="fill stroke markers" d=" M 159 493.1875 L 200.58651659845384 493.1875 L 200.58651659845384 527.6458333333334 L 159 527.6458333333334 L 159 493.1875 Z" stroke-miterlimit="10"/><rect fill="#1f77b4" stroke="none" x="159" y="447.24305555555554" width="27.352205547976354" height="34.45833333333337"/><path fill="none" stroke="#1f77b4" paint-order="fill stroke markers" d=" M 159 447.24305555555554 L 186.35220554797635 447.24305555555554 L 186.35220554797635 481.7013888888889 L 159 481.7013888888889 L 159 447.24305555555554 Z" stroke-miterlimit="10"/><rect fill="#1f77b4" stroke="none" x="159" y="401.2986111111111" width="24.56116416552979" height="34.45833333333337"/><path fill="none" stroke="#1f77b4" paint-order="fill stroke markers" d=" M 159 401.2986111111111 L 183.5611641655298 401.2986111111111 L 183.5611641655298 435.75694444444446 L 159 435.75694444444446 L 159 401.2986111111111 Z" stroke-miterlimit="10"/><rect fill="#1f77b4" stroke="none" x="159" y="355.35416666666674" width="0.5582082764893244" height="34.45833333333326"/><path fill="none" stroke="#1f77b4" paint-order="fill stroke markers" d=" M 159 355.35416666666674 L 159.55820827648932 355.35416666666674 L 159.55820827648932 389.8125 L 159 389.8125 L 159 355.35416666666674 Z" stroke-miterlimit="10"/><rect fill="#1f77b4" stroke="none" x="159" y="309.4097222222223" width="0.2791041382446622" height="34.45833333333326"/><path fill="none" stroke="#1f77b4" paint-order="fill stroke markers" d=" M 159 309.4097222222223 L 159.27910413824466 309.4097222222223 L 159.27910413824466 343.86805555555554 L 159 343.86805555555554 L 159 309.4097222222223 Z" stroke-miterlimit="10"/><rect fill="#1f77b4" stroke="none" x="159" y="263.4652777777778" width="0.2791041382446622" height="34.45833333333326"/><path fill="none" stroke="#1f77b4" paint-order="fill stroke markers" d=" M 159 263.4652777777778 L 159.27910413824466 263.4652777777778 L 159.27910413824466 297.9236111111111 L 159 297.9236111111111 L 159 263.4652777777778 Z" stroke-miterlimit="10"/><rect fill="#1f77b4" stroke="none" x="159" y="217.52083333333331" width="0.2791041382446622" height="34.45833333333337"/><path fill="none" stroke="#1f77b4" paint-order="fill stroke markers" d=" M 159 217.52083333333331 L 159.27910413824466 217.52083333333331 L 159.27910413824466 251.97916666666669 L 159 251.97916666666669 L 159 217.52083333333331 Z" stroke-miterlimit="10"/><rect fill="#1f77b4" stroke="none" x="159" y="171.57638888888886" width="0.2791041382446622" height="34.45833333333337"/><path fill="none" stroke="#1f77b4" paint-order="fill stroke markers" d=" M 159 171.57638888888886 L 159.27910413824466 171.57638888888886 L 159.27910413824466 206.03472222222223 L 159 206.03472222222223 L 159 171.57638888888886 Z" stroke-miterlimit="10"/><rect fill="#1f77b4" stroke="none" x="159" y="125.6319444444444" width="0.2791041382446622" height="34.45833333333337"/><path fill="none" stroke="#1f77b4" paint-order="fill stroke markers" d=" M 159 125.6319444444444 L 159.27910413824466 125.6319444444444 L 159.27910413824466 160.09027777777777 L 159 160.09027777777777 L 159 125.6319444444444 Z" stroke-miterlimit="10"/><rect fill="#1f77b4" stroke="none" x="159" y="79.68750000000006" width="0.2791041382446622" height="34.45833333333337"/><path fill="none" stroke="#1f77b4" paint-order="fill stroke markers" d=" M 159 79.68750000000006 L 159.27910413824466 79.68750000000006 L 159.27910413824466 114.14583333333343 L 159 114.14583333333343 L 159 79.68750000000006 Z" stroke-miterlimit="10"/><rect fill="#1f77b4" stroke="none" x="159" y="33.7430555555556" width="0.2791041382446622" height="34.45833333333337"/><path fill="none" stroke="#1f77b4" paint-order="fill stroke markers" d=" M 159 33.7430555555556 L 159.27910413824466 33.7430555555556 L 159.27910413824466 68.20138888888897 L 159 68.20138888888897 L 159 33.7430555555556 Z" stroke-miterlimit="10"/></g><g fill="#444444"><path fill="" stroke="none" d=""/><g transform="translate(564.2114597544338,830.0277777777778) rotate(0,0,0)"><path fill="none" stroke="none"/><text fill="" stroke="none" font-family="helvetica" font-size="8pt" font-style="normal" font-weight="normal" text-decoration="normal" x="0" y="0" text-anchor="start" dominant-baseline="text-after-edge">11.35%</text></g></g><g fill="#444444"><path fill="" stroke="none" d=""/><g transform="translate(557.7920645748067,784.0833333333334) rotate(0,0,0)"><path fill="none" stroke="none"/><text fill="" stroke="none" font-family="helvetica" font-size="8pt" font-style="normal" font-weight="normal" text-decoration="normal" x="0" y="0" text-anchor="start" dominant-baseline="text-after-edge">11.16%</text></g></g><g fill="#444444"><path fill="" stroke="none" d=""/><g transform="translate(378.6072078217371,738.1388888888889) rotate(0,0,0)"><path fill="none" stroke="none"/><text fill="" stroke="none" font-family="helvetica" font-size="8pt" font-style="normal" font-weight="normal" text-decoration="normal" x="0" y="0" text-anchor="start" dominant-baseline="text-after-edge">6.02%</text></g></g><g fill="#444444"><path fill="" stroke="none" d=""/><g transform="translate(341.48635743519776,692.1944444444445) rotate(0,0,0)"><path fill="none" stroke="none"/><text fill="" stroke="none" font-family="helvetica" font-size="8pt" font-style="normal" font-weight="normal" text-decoration="normal" x="0" y="0" text-anchor="start" dominant-baseline="text-after-edge">4.95%</text></g></g><g fill="#444444"><path fill="" stroke="none" d=""/><g transform="translate(324.46100500227374,646.25) rotate(0,0,0)"><path fill="none" stroke="none"/><text fill="" stroke="none" font-family="helvetica" font-size="8pt" font-style="normal" font-weight="normal" text-decoration="normal" x="0" y="0" text-anchor="start" dominant-baseline="text-after-edge">4.46%</text></g></g><g fill="#444444"><path fill="" stroke="none" d=""/><g transform="translate(314.69236016371076,600.3055555555555) rotate(0,0,0)"><path fill="none" stroke="none"/><text fill="" stroke="none" font-family="helvetica" font-size="8pt" font-style="normal" font-weight="normal" text-decoration="normal" x="0" y="0" text-anchor="start" dominant-baseline="text-after-edge">4.18%</text></g></g><g fill="#444444"><path fill="" stroke="none" d=""/><g transform="translate(258.87153251477946,554.3611111111111) rotate(0,0,0)"><path fill="none" stroke="none"/><text fill="" stroke="none" font-family="helvetica" font-size="8pt" font-style="normal" font-weight="normal" text-decoration="normal" x="0" y="0" text-anchor="start" dominant-baseline="text-after-edge">2.58%</text></g></g><g fill="#444444"><path fill="" stroke="none" d=""/><g transform="translate(210.58651659845384,508.4166666666667) rotate(0,0,0)"><path fill="none" stroke="none"/><text fill="" stroke="none" font-family="helvetica" font-size="8pt" font-style="normal" font-weight="normal" text-decoration="normal" x="0" y="0" text-anchor="start" dominant-baseline="text-after-edge">1.19%</text></g></g><g fill="#444444"><path fill="" stroke="none" d=""/><g transform="translate(196.35220554797635,462.47222222222223) rotate(0,0,0)"><path fill="none" stroke="none"/><text fill="" stroke="none" font-family="helvetica" font-size="8pt" font-style="normal" font-weight="normal" text-decoration="normal" x="0" y="0" text-anchor="start" dominant-baseline="text-after-edge">0.79%</text></g></g><g fill="#444444"><path fill="" stroke="none" d=""/><g transform="translate(193.5611641655298,416.52777777777777) rotate(0,0,0)"><path fill="none" stroke="none"/><text fill="" stroke="none" font-family="helvetica" font-size="8pt" font-style="normal" font-weight="normal" text-decoration="normal" x="0" y="0" text-anchor="start" dominant-baseline="text-after-edge">0.71%</text></g></g><g fill="#444444"><path fill="" stroke="none" d=""/><g transform="translate(169.55820827648932,370.58333333333337) rotate(0,0,0)"><path fill="none" stroke="none"/><text fill="" stroke="none" font-family="helvetica" font-size="8pt" font-style="normal" font-weight="normal" text-decoration="normal" x="0" y="0" text-anchor="start" dominant-baseline="text-after-edge">0.02%</text></g></g><g fill="#444444"><path fill="" stroke="none" d=""/><g transform="translate(169.27910413824466,324.6388888888889) rotate(0,0,0)"><path fill="none" stroke="none"/><text fill="" stroke="none" font-family="helvetica" font-size="8pt" font-style="normal" font-weight="normal" text-decoration="normal" x="0" y="0" text-anchor="start" dominant-baseline="text-after-edge">0.01%</text></g></g><g fill="#444444"><path fill="" stroke="none" d=""/><g transform="translate(169.27910413824466,278.69444444444446) rotate(0,0,0)"><path fill="none" stroke="none"/><text fill="" stroke="none" font-family="helvetica" font-size="8pt" font-style="normal" font-weight="normal" text-decoration="normal" x="0" y="0" text-anchor="start" dominant-baseline="text-after-edge">0.01%</text></g></g><g fill="#444444"><path fill="" stroke="none" d=""/><g transform="translate(169.27910413824466,232.75) rotate(0,0,0)"><path fill="none" stroke="none"/><text fill="" stroke="none" font-family="helvetica" font-size="8pt" font-style="normal" font-weight="normal" text-decoration="normal" x="0" y="0" text-anchor="start" dominant-baseline="text-after-edge">0.01%</text></g></g><g fill="#444444"><path fill="" stroke="none" d=""/><g transform="translate(169.27910413824466,186.80555555555554) rotate(0,0,0)"><path fill="none" stroke="none"/><text fill="" stroke="none" font-family="helvetica" font-size="8pt" font-style="normal" font-weight="normal" text-decoration="normal" x="0" y="0" text-anchor="start" dominant-baseline="text-after-edge">0.01%</text></g></g><g fill="#444444"><path fill="" stroke="none" d=""/><g transform="translate(169.27910413824466,140.8611111111111) rotate(0,0,0)"><path fill="none" stroke="none"/><text fill="" stroke="none" font-family="helvetica" font-size="8pt" font-style="normal" font-weight="normal" text-decoration="normal" x="0" y="0" text-anchor="start" dominant-baseline="text-after-edge">0.01%</text></g></g><g fill="#444444"><path fill="" stroke="none" d=""/><g transform="translate(169.27910413824466,94.91666666666674) rotate(0,0,0)"><path fill="none" stroke="none"/><text fill="" stroke="none" font-family="helvetica" font-size="8pt" font-style="normal" font-weight="normal" text-decoration="normal" x="0" y="0" text-anchor="start" dominant-baseline="text-after-edge">0.01%</text></g></g><g fill="#444444"><path fill="" stroke="none" d=""/><g transform="translate(169.27910413824466,48.972222222222285) rotate(0,0,0)"><path fill="none" stroke="none"/><text fill="" stroke="none" font-family="helvetica" font-size="8pt" font-style="normal" font-weight="normal" text-decoration="normal" x="0" y="0" text-anchor="start" dominant-baseline="text-after-edge">0.01%</text></g></g><g fill="#444444"><path fill="" stroke="none" d=""/><g transform="translate(564.2114597544338,844.0277777777778) rotate(0,0,0)"><path fill="none" stroke="none"/><text fill="" stroke="none" font-family="helvetica" font-size="8pt" font-style="normal" font-weight="normal" text-decoration="normal" x="0" y="0" text-anchor="start" dominant-baseline="text-after-edge">1416</text></g></g><g fill="#444444"><path fill="" stroke="none" d=""/><g transform="translate(557.7920645748067,798.0833333333334) rotate(0,0,0)"><path fill="none" stroke="none"/><text fill="" stroke="none" font-family="helvetica" font-size="8pt" font-style="normal" font-weight="normal" text-decoration="normal" x="0" y="0" text-anchor="start" dominant-baseline="text-after-edge">1393</text></g></g><g fill="#444444"><path fill="" stroke="none" d=""/><g transform="translate(378.6072078217371,752.1388888888889) rotate(0,0,0)"><path fill="none" stroke="none"/><text fill="" stroke="none" font-family="helvetica" font-size="8pt" font-style="normal" font-weight="normal" text-decoration="normal" x="0" y="0" text-anchor="start" dominant-baseline="text-after-edge">751</text></g></g><g fill="#444444"><path fill="" stroke="none" d=""/><g transform="translate(341.48635743519776,706.1944444444445) rotate(0,0,0)"><path fill="none" stroke="none"/><text fill="" stroke="none" font-family="helvetica" font-size="8pt" font-style="normal" font-weight="normal" text-decoration="normal" x="0" y="0" text-anchor="start" dominant-baseline="text-after-edge">618</text></g></g><g fill="#444444"><path fill="" stroke="none" d=""/><g transform="translate(324.46100500227374,660.25) rotate(0,0,0)"><path fill="none" stroke="none"/><text fill="" stroke="none" font-family="helvetica" font-size="8pt" font-style="normal" font-weight="normal" text-decoration="normal" x="0" y="0" text-anchor="start" dominant-baseline="text-after-edge">557</text></g></g><g fill="#444444"><path fill="" stroke="none" d=""/><g transform="translate(314.69236016371076,614.3055555555555) rotate(0,0,0)"><path fill="none" stroke="none"/><text fill="" stroke="none" font-family="helvetica" font-size="8pt" font-style="normal" font-weight="normal" text-decoration="normal" x="0" y="0" text-anchor="start" dominant-baseline="text-after-edge">522</text></g></g><g fill="#444444"><path fill="" stroke="none" d=""/><g transform="translate(258.87153251477946,568.3611111111111) rotate(0,0,0)"><path fill="none" stroke="none"/><text fill="" stroke="none" font-family="helvetica" font-size="8pt" font-style="normal" font-weight="normal" text-decoration="normal" x="0" y="0" text-anchor="start" dominant-baseline="text-after-edge">322</text></g></g><g fill="#444444"><path fill="" stroke="none" d=""/><g transform="translate(210.58651659845384,522.4166666666667) rotate(0,0,0)"><path fill="none" stroke="none"/><text fill="" stroke="none" font-family="helvetica" font-size="8pt" font-style="normal" font-weight="normal" text-decoration="normal" x="0" y="0" text-anchor="start" dominant-baseline="text-after-edge">149</text></g></g><g fill="#444444"><path fill="" stroke="none" d=""/><g transform="translate(196.35220554797635,476.47222222222223) rotate(0,0,0)"><path fill="none" stroke="none"/><text fill="" stroke="none" font-family="helvetica" font-size="8pt" font-style="normal" font-weight="normal" text-decoration="normal" x="0" y="0" text-anchor="start" dominant-baseline="text-after-edge">98</text></g></g><g fill="#444444"><path fill="" stroke="none" d=""/><g transform="translate(193.5611641655298,430.52777777777777) rotate(0,0,0)"><path fill="none" stroke="none"/><text fill="" stroke="none" font-family="helvetica" font-size="8pt" font-style="normal" font-weight="normal" text-decoration="normal" x="0" y="0" text-anchor="start" dominant-baseline="text-after-edge">88</text></g></g><g fill="#444444"><path fill="" stroke="none" d=""/><g transform="translate(169.55820827648932,384.58333333333337) rotate(0,0,0)"><path fill="none" stroke="none"/><text fill="" stroke="none" font-family="helvetica" font-size="8pt" font-style="normal" font-weight="normal" text-decoration="normal" x="0" y="0" text-anchor="start" dominant-baseline="text-after-edge">2</text></g></g><g fill="#444444"><path fill="" stroke="none" d=""/><g transform="translate(169.27910413824466,338.6388888888889) rotate(0,0,0)"><path fill="none" stroke="none"/><text fill="" stroke="none" font-family="helvetica" font-size="8pt" font-style="normal" font-weight="normal" text-decoration="normal" x="0" y="0" text-anchor="start" dominant-baseline="text-after-edge">1</text></g></g><g fill="#444444"><path fill="" stroke="none" d=""/><g transform="translate(169.27910413824466,292.69444444444446) rotate(0,0,0)"><path fill="none" stroke="none"/><text fill="" stroke="none" font-family="helvetica" font-size="8pt" font-style="normal" font-weight="normal" text-decoration="normal" x="0" y="0" text-anchor="start" dominant-baseline="text-after-edge">1</text></g></g><g fill="#444444"><path fill="" stroke="none" d=""/><g transform="translate(169.27910413824466,246.75) rotate(0,0,0)"><path fill="none" stroke="none"/><text fill="" stroke="none" font-family="helvetica" font-size="8pt" font-style="normal" font-weight="normal" text-decoration="normal" x="0" y="0" text-anchor="start" dominant-baseline="text-after-edge">1</text></g></g><g fill="#444444"><path fill="" stroke="none" d=""/><g transform="translate(169.27910413824466,200.80555555555554) rotate(0,0,0)"><path fill="none" stroke="none"/><text fill="" stroke="none" font-family="helvetica" font-size="8pt" font-style="normal" font-weight="normal" text-decoration="normal" x="0" y="0" text-anchor="start" dominant-baseline="text-after-edge">1</text></g></g><g fill="#444444"><path fill="" stroke="none" d=""/><g transform="translate(169.27910413824466,154.8611111111111) rotate(0,0,0)"><path fill="none" stroke="none"/><text fill="" stroke="none" font-family="helvetica" font-size="8pt" font-style="normal" font-weight="normal" text-decoration="normal" x="0" y="0" text-anchor="start" dominant-baseline="text-after-edge">1</text></g></g><g fill="#444444"><path fill="" stroke="none" d=""/><g transform="translate(169.27910413824466,108.91666666666674) rotate(0,0,0)"><path fill="none" stroke="none"/><text fill="" stroke="none" font-family="helvetica" font-size="8pt" font-style="normal" font-weight="normal" text-decoration="normal" x="0" y="0" text-anchor="start" dominant-baseline="text-after-edge">1</text></g></g><g fill="#444444"><path fill="" stroke="none" d=""/><g transform="translate(169.27910413824466,62.972222222222285) rotate(0,0,0)"><path fill="none" stroke="none"/><text fill="" stroke="none" font-family="helvetica" font-size="8pt" font-style="normal" font-weight="normal" text-decoration="normal" x="0" y="0" text-anchor="start" dominant-baseline="text-after-edge">1</text></g></g></g><g/><g><g fill="#444444"><path fill="none" stroke="black" paint-order="fill stroke markers" d=" M 159 855 L 650 855" stroke-miterlimit="10"/><path fill="none" stroke="black" paint-order="fill stroke markers" d=" M 159 861 L 159 853" stroke-miterlimit="10"/><path fill="none" stroke="black" paint-order="fill stroke markers" d=" M 299 861 L 299 853" stroke-miterlimit="10"/><path fill="none" stroke="black" paint-order="fill stroke markers" d=" M 438 861 L 438 853" stroke-miterlimit="10"/><path fill="none" stroke="black" paint-order="fill stroke markers" d=" M 578 861 L 578 853" stroke-miterlimit="10"/><path fill="none" stroke="black" paint-order="fill stroke markers" d=" M 159 859 L 159 855" stroke-miterlimit="10"/><path fill="none" stroke="black" paint-order="fill stroke markers" d=" M 187 859 L 187 855" stroke-miterlimit="10"/><path fill="none" stroke="black" paint-order="fill stroke markers" d=" M 215 859 L 215 855" stroke-miterlimit="10"/><path fill="none" stroke="black" paint-order="fill stroke markers" d=" M 243 859 L 243 855" stroke-miterlimit="10"/><path fill="none" stroke="black" paint-order="fill stroke markers" d=" M 271 859 L 271 855" stroke-miterlimit="10"/><path fill="none" stroke="black" paint-order="fill stroke markers" d=" M 299 859 L 299 855" stroke-miterlimit="10"/><path fill="none" stroke="black" paint-order="fill stroke markers" d=" M 326 859 L 326 855" stroke-miterlimit="10"/><path fill="none" stroke="black" paint-order="fill stroke markers" d=" M 354 859 L 354 855" stroke-miterlimit="10"/><path fill="none" stroke="black" paint-order="fill stroke markers" d=" M 382 859 L 382 855" stroke-miterlimit="10"/><path fill="none" stroke="black" paint-order="fill stroke markers" d=" M 410 859 L 410 855" stroke-miterlimit="10"/><path fill="none" stroke="black" paint-order="fill stroke markers" d=" M 438 859 L 438 855" stroke-miterlimit="10"/><path fill="none" stroke="black" paint-order="fill stroke markers" d=" M 466 859 L 466 855" stroke-miterlimit="10"/><path fill="none" stroke="black" paint-order="fill stroke markers" d=" M 494 859 L 494 855" stroke-miterlimit="10"/><path fill="none" stroke="black" paint-order="fill stroke markers" d=" M 522 859 L 522 855" stroke-miterlimit="10"/><path fill="none" stroke="black" paint-order="fill stroke markers" d=" M 550 859 L 550 855" stroke-miterlimit="10"/><path fill="none" stroke="black" paint-order="fill stroke markers" d=" M 578 859 L 578 855" stroke-miterlimit="10"/><path fill="none" stroke="black" paint-order="fill stroke markers" d=" M 606 859 L 606 855" stroke-miterlimit="10"/><path fill="" stroke="black" paint-order="fill stroke markers" d=" M 633 859 L 633 855" stroke-miterlimit="10"/><g transform="translate(159,866) rotate(0,0,0)"><text fill="" stroke="none" font-family="helvetica" font-size="8pt" font-style="normal" font-weight="normal" text-decoration="normal" x="0" y="0" text-anchor="middle" dominant-baseline="hanging">0</text><g transform="rotate(0,0,0) translate(-159,-866) translate(299,866) rotate(0,0,0)"><text fill="" stroke="none" font-family="helvetica" font-size="8pt" font-style="normal" font-weight="normal" text-decoration="normal" x="0" y="0" text-anchor="middle" dominant-baseline="hanging">500</text><g transform="rotate(0,0,0) translate(-299,-866) translate(438,866) rotate(0,0,0)"><text fill="" stroke="none" font-family="helvetica" font-size="8pt" font-style="normal" font-weight="normal" text-decoration="normal" x="0" y="0" text-anchor="middle" dominant-baseline="hanging">1000</text><g transform="rotate(0,0,0) translate(-438,-866) translate(578,866) rotate(0,0,0)"><text fill="" stroke="none" font-family="helvetica" font-size="8pt" font-style="normal" font-weight="normal" text-decoration="normal" x="0" y="0" text-anchor="middle" dominant-baseline="hanging">1500</text><g transform="rotate(0,0,0) translate(-578,-866) translate(405,884) rotate(0,0,0)"><text fill="" stroke="none" font-family="helvetica" font-size="10pt" font-style="italic" font-weight="normal" text-decoration="normal" x="0" y="0" text-anchor="middle" dominant-baseline="hanging">Respondents</text><g transform="rotate(0,0,0) translate(-405,-884)"/></g></g></g></g></g></g><g fill="#444444"><path fill="none" stroke="black" paint-order="fill stroke markers" d=" M 159 855 L 159 28" stroke-miterlimit="10"/><path fill="none" stroke="black" paint-order="fill stroke markers" d=" M 153 832 L 161 832" stroke-miterlimit="10"/><path fill="none" stroke="black" paint-order="fill stroke markers" d=" M 153 786 L 161 786" stroke-miterlimit="10"/><path fill="none" stroke="black" paint-order="fill stroke markers" d=" M 153 740 L 161 740" stroke-miterlimit="10"/><path fill="none" stroke="black" paint-order="fill stroke markers" d=" M 153 694 L 161 694" stroke-miterlimit="10"/><path fill="none" stroke="black" paint-order="fill stroke markers" d=" M 153 648 L 161 648" stroke-miterlimit="10"/><path fill="none" stroke="black" paint-order="fill stroke markers" d=" M 153 602 L 161 602" stroke-miterlimit="10"/><path fill="none" stroke="black" paint-order="fill stroke markers" d=" M 153 556 L 161 556" stroke-miterlimit="10"/><path fill="none" stroke="black" paint-order="fill stroke markers" d=" M 153 510 L 161 510" stroke-miterlimit="10"/><path fill="none" stroke="black" paint-order="fill stroke markers" d=" M 153 464 L 161 464" stroke-miterlimit="10"/><path fill="none" stroke="black" paint-order="fill stroke markers" d=" M 153 419 L 161 419" stroke-miterlimit="10"/><path fill="none" stroke="black" paint-order="fill stroke markers" d=" M 153 373 L 161 373" stroke-miterlimit="10"/><path fill="none" stroke="black" paint-order="fill stroke markers" d=" M 153 327 L 161 327" stroke-miterlimit="10"/><path fill="none" stroke="black" paint-order="fill stroke markers" d=" M 153 281 L 161 281" stroke-miterlimit="10"/><path fill="none" stroke="black" paint-order="fill stroke markers" d=" M 153 235 L 161 235" stroke-miterlimit="10"/><path fill="none" stroke="black" paint-order="fill stroke markers" d=" M 153 189 L 161 189" stroke-miterlimit="10"/><path fill="none" stroke="black" paint-order="fill stroke markers" d=" M 153 143 L 161 143" stroke-miterlimit="10"/><path fill="none" stroke="black" paint-order="fill stroke markers" d=" M 153 97 L 161 97" stroke-miterlimit="10"/><path fill="" stroke="black" paint-order="fill stroke markers" d=" M 153 51 L 161 51" stroke-miterlimit="10"/><g transform="translate(148,832) rotate(0,0,0)"><text fill="" stroke="none" font-family="helvetica" font-size="8pt" font-style="normal" font-weight="normal" text-decoration="normal" x="0" y="0" text-anchor="end" dominant-baseline="central">Mid-level specialist</text><g transform="rotate(0,0,0) translate(-148,-832) translate(148,786) rotate(0,0,0)"><text fill="" stroke="none" font-family="helvetica" font-size="8pt" font-style="normal" font-weight="normal" text-decoration="normal" x="0" y="0" text-anchor="end" dominant-baseline="central">Owner/Partner</text><g transform="rotate(0,0,0) translate(-148,-786) translate(148,740) rotate(0,0,0)"><text fill="" stroke="none" font-family="helvetica" font-size="8pt" font-style="normal" font-weight="normal" text-decoration="normal" x="0" y="0" text-anchor="end" dominant-baseline="central">Art Director</text><g transform="rotate(0,0,0) translate(-148,-740) translate(148,694) rotate(0,0,0)"><text fill="" stroke="none" font-family="helvetica" font-size="8pt" font-style="normal" font-weight="normal" text-decoration="normal" x="0" y="0" text-anchor="end" dominant-baseline="central">Junior contributor</text><g transform="rotate(0,0,0) translate(-148,-694) translate(148,648) rotate(0,0,0)"><text fill="" stroke="none" font-family="helvetica" font-size="8pt" font-style="normal" font-weight="normal" text-decoration="normal" x="0" y="0" text-anchor="end" dominant-baseline="central">Creative Director</text><g transform="rotate(0,0,0) translate(-148,-648) translate(148,602) rotate(0,0,0)"><text fill="" stroke="none" font-family="helvetica" font-size="8pt" font-style="normal" font-weight="normal" text-decoration="normal" x="0" y="0" text-anchor="end" dominant-baseline="central">Other</text><g transform="rotate(0,0,0) translate(-148,-602) translate(148,556) rotate(0,0,0)"><text fill="" stroke="none" font-family="helvetica" font-size="8pt" font-style="normal" font-weight="normal" text-decoration="normal" x="0" y="0" text-anchor="end" dominant-baseline="central">Senior manager</text><g transform="rotate(0,0,0) translate(-148,-556) translate(148,510) rotate(0,0,0)"><text fill="" stroke="none" font-family="helvetica" font-size="8pt" font-style="normal" font-weight="normal" text-decoration="normal" x="0" y="0" text-anchor="end" dominant-baseline="central">Director</text><g transform="rotate(0,0,0) translate(-148,-510) translate(148,464) rotate(0,0,0)"><text fill="" stroke="none" font-family="helvetica" font-size="8pt" font-style="normal" font-weight="normal" text-decoration="normal" x="0" y="0" text-anchor="end" dominant-baseline="central">Intern</text><g transform="rotate(0,0,0) translate(-148,-464) translate(148,419) rotate(0,0,0)"><text fill="" stroke="none" font-family="helvetica" font-size="8pt" font-style="normal" font-weight="normal" text-decoration="normal" x="0" y="0" text-anchor="end" dominant-baseline="central">Executive</text><g transform="rotate(0,0,0) translate(-148,-419) translate(148,373) rotate(0,0,0)"><text fill="" stroke="none" font-family="helvetica" font-size="8pt" font-style="normal" font-weight="normal" text-decoration="normal" x="0" y="0" text-anchor="end" dominant-baseline="central">Director de arte</text><g transform="rotate(0,0,0) translate(-148,-373) translate(148,327) rotate(0,0,0)"><text fill="" stroke="none" font-family="helvetica" font-size="8pt" font-style="normal" font-weight="normal" text-decoration="normal" x="0" y="0" text-anchor="end" dominant-baseline="central">Креативный директор</text><g transform="rotate(0,0,0) translate(-148,-327) translate(148,281) rotate(0,0,0)"><text fill="" stroke="none" font-family="helvetica" font-size="8pt" font-style="normal" font-weight="normal" text-decoration="normal" x="0" y="0" text-anchor="end" dominant-baseline="central">미술 감독</text><g transform="rotate(0,0,0) translate(-148,-281) translate(148,235) rotate(0,0,0)"><text fill="" stroke="none" font-family="helvetica" font-size="8pt" font-style="normal" font-weight="normal" text-decoration="normal" x="0" y="0" text-anchor="end" dominant-baseline="central">Autre</text><g transform="rotate(0,0,0) translate(-148,-235) translate(148,189) rotate(0,0,0)"><text fill="" stroke="none" font-family="helvetica" font-size="8pt" font-style="normal" font-weight="normal" text-decoration="normal" x="0" y="0" text-anchor="end" dominant-baseline="central">Propietario / Socio</text><g transform="rotate(0,0,0) translate(-148,-189) translate(148,143) rotate(0,0,0)"><text fill="" stroke="none" font-family="helvetica" font-size="8pt" font-style="normal" font-weight="normal" text-decoration="normal" x="0" y="0" text-anchor="end" dominant-baseline="central">高级经理</text><g transform="rotate(0,0,0) translate(-148,-143) translate(148,97) rotate(0,0,0)"><text fill="" stroke="none" font-family="helvetica" font-size="8pt" font-style="normal" font-weight="normal" text-decoration="normal" x="0" y="0" text-anchor="end" dominant-baseline="central">Sócia proprietária</text><g transform="rotate(0,0,0) translate(-148,-97) translate(148,51) rotate(0,0,0)"><text fill="" stroke="none" font-family="helvetica" font-size="8pt" font-style="normal" font-weight="normal" text-decoration="normal" x="0" y="0" text-anchor="end" dominant-baseline="central">藝術總監</text><g transform="rotate(0,0,0) translate(-148,-51) translate(15,442) rotate(-90,0,0)"><text fill="" stroke="none" font-family="helvetica" font-size="10pt" font-style="italic" font-weight="normal" text-decoration="normal" x="0" y="0" text-anchor="middle" dominant-baseline="alphabetic">Categories</text><g transform="rotate(90,0,0) translate(-15,-442)"/></g></g></g></g></g></g></g></g></g></g></g></g></g></g></g></g></g></g></g></g><g fill="#444444"><path fill="" stroke="none" d=""/><g transform="translate(159,23)"><path fill="none" stroke="none"/><text fill="" stroke="none" font-family="helvetica" font-size="10pt" font-style="normal" font-weight="bold" text-decoration="normal" x="0" y="0" text-anchor="start" dominant-baseline="text-after-edge">All: My role is:</text></g></g></g></g></g></svg>