<svg version="1.1" xmlns="http://www.w3.org/2000/svg" xmlns:xlink="http://www.w3.org/1999/xlink" width="700" height="350" style="width: 700px; height: 350px;"><defs/><g><g transform="scale(1,1) translate(0.5,0.5)"><rect fill="#FFFFFF" stroke="none" x="0" y="0" width="700" height="350"/><rect fill="#ffffff" stroke="none" x="0" y="0" width="700" height="350"/><rect fill="#FFFFFF" stroke="none" x="295" y="28" width="355" height="277"/><rect fill="#ffffff" stroke="none" x="295" y="28" width="355" height="277"/><g><rect fill="none" stroke="#e5e5e5" x="295" y="28" width="355" height="277" stroke-miterlimit="10"/></g><g><g><path fill="none" stroke="#e5e5e5" paint-order="fill stroke markers" d=" M 349 305 L 349 28" stroke-miterlimit="10"/><path fill="none" stroke="#e5e5e5" paint-order="fill stroke markers" d=" M 403 305 L 403 28" stroke-miterlimit="10"/><path fill="none" stroke="#e5e5e5" paint-order="fill stroke markers" d=" M 456 305 L 456 28" stroke-miterlimit="10"/><path fill="none" stroke="#e5e5e5" paint-order="fill stroke markers" d=" M 510 305 L 510 28" stroke-miterlimit="10"/><path fill="none" stroke="#e5e5e5" paint-order="fill stroke markers" d=" M 564 305 L 564 28" stroke-miterlimit="10"/><path fill="none" stroke="#e5e5e5" paint-order="fill stroke markers" d=" M 618 305 L 618 28" stroke-miterlimit="10"/></g><g><path fill="none" stroke="#e5e5e5" paint-order="fill stroke markers" d=" M 295 285 L 650 285" stroke-miterlimit="10"/><path fill="none" stroke="#e5e5e5" paint-order="fill stroke markers" d=" M 295 246 L 650 246" stroke-miterlimit="10"/><path fill="none" stroke="#e5e5e5" paint-order="fill stroke markers" d=" M 295 206 L 650 206" stroke-miterlimit="10"/><path fill="none" stroke="#e5e5e5" paint-order="fill stroke markers" d=" M 295 167 L 650 167" stroke-miterlimit="10"/><path fill="none" stroke="#e5e5e5" paint-order="fill stroke markers" d=" M 295 127 L 650 127" stroke-miterlimit="10"/><path fill="none" stroke="#e5e5e5" paint-order="fill stroke markers" d=" M 295 87 L 650 87" stroke-miterlimit="10"/><path fill="none" stroke="#e5e5e5" paint-order="fill stroke markers" d=" M 295 48 L 650 48" stroke-miterlimit="10"/></g><g><path fill="none" stroke="none"/><rect fill="#1f77b4" stroke="none" x="295" y="270.375" width="293.145405536374" height="29.678571428571445"/><path fill="none" stroke="#1f77b4" paint-order="fill stroke markers" d=" M 295 270.375 L 588.145405536374 270.375 L 588.145405536374 300.05357142857144 L 295 300.05357142857144 L 295 270.375 Z" stroke-miterlimit="10"/><rect fill="#1f77b4" stroke="none" x="295" y="230.80357142857142" width="198.36907141559146" height="29.678571428571473"/><path fill="none" stroke="#1f77b4" paint-order="fill stroke markers" d=" M 295 230.80357142857142 L 493.36907141559146 230.80357142857142 L 493.36907141559146 260.4821428571429 L 295 260.4821428571429 L 295 230.80357142857142 Z" stroke-miterlimit="10"/><rect fill="#1f77b4" stroke="none" x="295" y="191.2321428571429" width="103.8615300745048" height="29.678571428571388"/><path fill="none" stroke="#1f77b4" paint-order="fill stroke markers" d=" M 295 191.2321428571429 L 398.8615300745048 191.2321428571429 L 398.8615300745048 220.91071428571428 L 295 220.91071428571428 L 295 191.2321428571429 Z" stroke-miterlimit="10"/><rect fill="#1f77b4" stroke="none" x="295" y="151.66071428571428" width="21.234629595977935" height="29.678571428571445"/><path fill="none" stroke="#1f77b4" paint-order="fill stroke markers" d=" M 295 151.66071428571428 L 316.23462959597794 151.66071428571428 L 316.23462959597794 181.33928571428572 L 295 181.33928571428572 L 295 151.66071428571428 Z" stroke-miterlimit="10"/><rect fill="#1f77b4" stroke="none" x="295" y="112.08928571428574" width="20.535768368768572" height="29.67857142857143"/><path fill="none" stroke="#1f77b4" paint-order="fill stroke markers" d=" M 295 112.08928571428574 L 315.5357683687686 112.08928571428574 L 315.5357683687686 141.76785714285717 L 295 141.76785714285717 L 295 112.08928571428574 Z" stroke-miterlimit="10"/><rect fill="#1f77b4" stroke="none" x="295" y="72.51785714285715" width="17.417772124295823" height="29.678571428571416"/><path fill="none" stroke="#1f77b4" paint-order="fill stroke markers" d=" M 295 72.51785714285715 L 312.4177721242958 72.51785714285715 L 312.4177721242958 102.19642857142857 L 295 102.19642857142857 L 295 72.51785714285715 Z" stroke-miterlimit="10"/><rect fill="#1f77b4" stroke="none" x="295" y="32.946428571428584" width="16.181325337694602" height="29.678571428571388"/><path fill="none" stroke="#1f77b4" paint-order="fill stroke markers" d=" M 295 32.946428571428584 L 311.1813253376946 32.946428571428584 L 311.1813253376946 62.62499999999997 L 295 62.62499999999997 L 295 32.946428571428584 Z" stroke-miterlimit="10"/></g><g fill="#444444"><path fill="" stroke="none" d=""/><g transform="translate(598.145405536374,283.2142857142857) rotate(0,0,0)"><path fill="none" stroke="none"/><text fill="" stroke="none" font-family="helvetica" font-size="8pt" font-style="normal" font-weight="normal" text-decoration="normal" x="0" y="0" text-anchor="start" dominant-baseline="text-after-edge">43.70%</text></g></g><g fill="#444444"><path fill="" stroke="none" d=""/><g transform="translate(503.36907141559146,243.64285714285714) rotate(0,0,0)"><path fill="none" stroke="none"/><text fill="" stroke="none" font-family="helvetica" font-size="8pt" font-style="normal" font-weight="normal" text-decoration="normal" x="0" y="0" text-anchor="start" dominant-baseline="text-after-edge">29.57%</text></g></g><g fill="#444444"><path fill="" stroke="none" d=""/><g transform="translate(408.8615300745048,204.07142857142858) rotate(0,0,0)"><path fill="none" stroke="none"/><text fill="" stroke="none" font-family="helvetica" font-size="8pt" font-style="normal" font-weight="normal" text-decoration="normal" x="0" y="0" text-anchor="start" dominant-baseline="text-after-edge">15.48%</text></g></g><g fill="#444444"><path fill="" stroke="none" d=""/><g transform="translate(326.23462959597794,164.5) rotate(0,0,0)"><path fill="none" stroke="none"/><text fill="" stroke="none" font-family="helvetica" font-size="8pt" font-style="normal" font-weight="normal" text-decoration="normal" x="0" y="0" text-anchor="start" dominant-baseline="text-after-edge">3.17%</text></g></g><g fill="#444444"><path fill="" stroke="none" d=""/><g transform="translate(325.5357683687686,124.92857142857144) rotate(0,0,0)"><path fill="none" stroke="none"/><text fill="" stroke="none" font-family="helvetica" font-size="8pt" font-style="normal" font-weight="normal" text-decoration="normal" x="0" y="0" text-anchor="start" dominant-baseline="text-after-edge">3.06%</text></g></g><g fill="#444444"><path fill="" stroke="none" d=""/><g transform="translate(322.4177721242958,85.35714285714286) rotate(0,0,0)"><path fill="none" stroke="none"/><text fill="" stroke="none" font-family="helvetica" font-size="8pt" font-style="normal" font-weight="normal" text-decoration="normal" x="0" y="0" text-anchor="start" dominant-baseline="text-after-edge">2.60%</text></g></g><g fill="#444444"><path fill="" stroke="none" d=""/><g transform="translate(321.1813253376946,45.78571428571428) rotate(0,0,0)"><path fill="none" stroke="none"/><text fill="" stroke="none" font-family="helvetica" font-size="8pt" font-style="normal" font-weight="normal" text-decoration="normal" x="0" y="0" text-anchor="start" dominant-baseline="text-after-edge">2.41%</text></g></g><g fill="#444444"><path fill="" stroke="none" d=""/><g transform="translate(598.145405536374,297.2142857142857) rotate(0,0,0)"><path fill="none" stroke="none"/><text fill="" stroke="none" font-family="helvetica" font-size="8pt" font-style="normal" font-weight="normal" text-decoration="normal" x="0" y="0" text-anchor="start" dominant-baseline="text-after-edge">5453</text></g></g><g fill="#444444"><path fill="" stroke="none" d=""/><g transform="translate(503.36907141559146,257.6428571428571) rotate(0,0,0)"><path fill="none" stroke="none"/><text fill="" stroke="none" font-family="helvetica" font-size="8pt" font-style="normal" font-weight="normal" text-decoration="normal" x="0" y="0" text-anchor="start" dominant-baseline="text-after-edge">3690</text></g></g><g fill="#444444"><path fill="" stroke="none" d=""/><g transform="translate(408.8615300745048,218.07142857142858) rotate(0,0,0)"><path fill="none" stroke="none"/><text fill="" stroke="none" font-family="helvetica" font-size="8pt" font-style="normal" font-weight="normal" text-decoration="normal" x="0" y="0" text-anchor="start" dominant-baseline="text-after-edge">1932</text></g></g><g fill="#444444"><path fill="" stroke="none" d=""/><g transform="translate(326.23462959597794,178.5) rotate(0,0,0)"><path fill="none" stroke="none"/><text fill="" stroke="none" font-family="helvetica" font-size="8pt" font-style="normal" font-weight="normal" text-decoration="normal" x="0" y="0" text-anchor="start" dominant-baseline="text-after-edge">395</text></g></g><g fill="#444444"><path fill="" stroke="none" d=""/><g transform="translate(325.5357683687686,138.92857142857144) rotate(0,0,0)"><path fill="none" stroke="none"/><text fill="" stroke="none" font-family="helvetica" font-size="8pt" font-style="normal" font-weight="normal" text-decoration="normal" x="0" y="0" text-anchor="start" dominant-baseline="text-after-edge">382</text></g></g><g fill="#444444"><path fill="" stroke="none" d=""/><g transform="translate(322.4177721242958,99.35714285714286) rotate(0,0,0)"><path fill="none" stroke="none"/><text fill="" stroke="none" font-family="helvetica" font-size="8pt" font-style="normal" font-weight="normal" text-decoration="normal" x="0" y="0" text-anchor="start" dominant-baseline="text-after-edge">324</text></g></g><g fill="#444444"><path fill="" stroke="none" d=""/><g transform="translate(321.1813253376946,59.78571428571428) rotate(0,0,0)"><path fill="none" stroke="none"/><text fill="" stroke="none" font-family="helvetica" font-size="8pt" font-style="normal" font-weight="normal" text-decoration="normal" x="0" y="0" text-anchor="start" dominant-baseline="text-after-edge">301</text></g></g></g><g/><g><g fill="#444444"><path fill="none" stroke="black" paint-order="fill stroke markers" d=" M 295 305 L 650 305" stroke-miterlimit="10"/><path fill="none" stroke="black" paint-order="fill stroke markers" d=" M 295 311 L 295 303" stroke-miterlimit="10"/><path fill="none" stroke="black" paint-order="fill stroke markers" d=" M 349 311 L 349 303" stroke-miterlimit="10"/><path fill="none" stroke="black" paint-order="fill stroke markers" d=" M 403 311 L 403 303" stroke-miterlimit="10"/><path fill="none" stroke="black" paint-order="fill stroke markers" d=" M 456 311 L 456 303" stroke-miterlimit="10"/><path fill="none" stroke="black" paint-order="fill stroke markers" d=" M 510 311 L 510 303" stroke-miterlimit="10"/><path fill="none" stroke="black" paint-order="fill stroke markers" d=" M 564 311 L 564 303" stroke-miterlimit="10"/><path fill="none" stroke="black" paint-order="fill stroke markers" d=" M 618 311 L 618 303" stroke-miterlimit="10"/><path fill="none" stroke="black" paint-order="fill stroke markers" d=" M 295 309 L 295 305" stroke-miterlimit="10"/><path fill="none" stroke="black" paint-order="fill stroke markers" d=" M 306 309 L 306 305" stroke-miterlimit="10"/><path fill="none" stroke="black" paint-order="fill stroke markers" d=" M 317 309 L 317 305" stroke-miterlimit="10"/><path fill="none" stroke="black" paint-order="fill stroke markers" d=" M 327 309 L 327 305" stroke-miterlimit="10"/><path fill="none" stroke="black" paint-order="fill stroke markers" d=" M 338 309 L 338 305" stroke-miterlimit="10"/><path fill="none" stroke="black" paint-order="fill stroke markers" d=" M 349 309 L 349 305" stroke-miterlimit="10"/><path fill="none" stroke="black" paint-order="fill stroke markers" d=" M 360 309 L 360 305" stroke-miterlimit="10"/><path fill="none" stroke="black" paint-order="fill stroke markers" d=" M 370 309 L 370 305" stroke-miterlimit="10"/><path fill="none" stroke="black" paint-order="fill stroke markers" d=" M 381 309 L 381 305" stroke-miterlimit="10"/><path fill="none" stroke="black" paint-order="fill stroke markers" d=" M 392 309 L 392 305" stroke-miterlimit="10"/><path fill="none" stroke="black" paint-order="fill stroke markers" d=" M 403 309 L 403 305" stroke-miterlimit="10"/><path fill="none" stroke="black" paint-order="fill stroke markers" d=" M 413 309 L 413 305" stroke-miterlimit="10"/><path fill="none" stroke="black" paint-order="fill stroke markers" d=" M 424 309 L 424 305" stroke-miterlimit="10"/><path fill="none" stroke="black" paint-order="fill stroke markers" d=" M 435 309 L 435 305" stroke-miterlimit="10"/><path fill="none" stroke="black" paint-order="fill stroke markers" d=" M 446 309 L 446 305" stroke-miterlimit="10"/><path fill="none" stroke="black" paint-order="fill stroke markers" d=" M 456 309 L 456 305" stroke-miterlimit="10"/><path fill="none" stroke="black" paint-order="fill stroke markers" d=" M 467 309 L 467 305" stroke-miterlimit="10"/><path fill="none" stroke="black" paint-order="fill stroke markers" d=" M 478 309 L 478 305" stroke-miterlimit="10"/><path fill="none" stroke="black" paint-order="fill stroke markers" d=" M 489 309 L 489 305" stroke-miterlimit="10"/><path fill="none" stroke="black" paint-order="fill stroke markers" d=" M 499 309 L 499 305" stroke-miterlimit="10"/><path fill="none" stroke="black" paint-order="fill stroke markers" d=" M 510 309 L 510 305" stroke-miterlimit="10"/><path fill="none" stroke="black" paint-order="fill stroke markers" d=" M 521 309 L 521 305" stroke-miterlimit="10"/><path fill="none" stroke="black" paint-order="fill stroke markers" d=" M 532 309 L 532 305" stroke-miterlimit="10"/><path fill="none" stroke="black" paint-order="fill stroke markers" d=" M 542 309 L 542 305" stroke-miterlimit="10"/><path fill="none" stroke="black" paint-order="fill stroke markers" d=" M 553 309 L 553 305" stroke-miterlimit="10"/><path fill="none" stroke="black" paint-order="fill stroke markers" d=" M 564 309 L 564 305" stroke-miterlimit="10"/><path fill="none" stroke="black" paint-order="fill stroke markers" d=" M 575 309 L 575 305" stroke-miterlimit="10"/><path fill="none" stroke="black" paint-order="fill stroke markers" d=" M 585 309 L 585 305" stroke-miterlimit="10"/><path fill="none" stroke="black" paint-order="fill stroke markers" d=" M 596 309 L 596 305" stroke-miterlimit="10"/><path fill="none" stroke="black" paint-order="fill stroke markers" d=" M 607 309 L 607 305" stroke-miterlimit="10"/><path fill="none" stroke="black" paint-order="fill stroke markers" d=" M 618 309 L 618 305" stroke-miterlimit="10"/><path fill="none" stroke="black" paint-order="fill stroke markers" d=" M 628 309 L 628 305" stroke-miterlimit="10"/><path fill="none" stroke="black" paint-order="fill stroke markers" d=" M 639 309 L 639 305" stroke-miterlimit="10"/><path fill="" stroke="black" paint-order="fill stroke markers" d=" M 650 309 L 650 305" stroke-miterlimit="10"/><g transform="translate(295,316) rotate(0,0,0)"><text fill="" stroke="none" font-family="helvetica" font-size="8pt" font-style="normal" font-weight="normal" text-decoration="normal" x="0" y="0" text-anchor="middle" dominant-baseline="hanging">0</text><g transform="rotate(0,0,0) translate(-295,-316) translate(349,316) rotate(0,0,0)"><text fill="" stroke="none" font-family="helvetica" font-size="8pt" font-style="normal" font-weight="normal" text-decoration="normal" x="0" y="0" text-anchor="middle" dominant-baseline="hanging">1000</text><g transform="rotate(0,0,0) translate(-349,-316) translate(403,316) rotate(0,0,0)"><text fill="" stroke="none" font-family="helvetica" font-size="8pt" font-style="normal" font-weight="normal" text-decoration="normal" x="0" y="0" text-anchor="middle" dominant-baseline="hanging">2000</text><g transform="rotate(0,0,0) translate(-403,-316) translate(456,316) rotate(0,0,0)"><text fill="" stroke="none" font-family="helvetica" font-size="8pt" font-style="normal" font-weight="normal" text-decoration="normal" x="0" y="0" text-anchor="middle" dominant-baseline="hanging">3000</text><g transform="rotate(0,0,0) translate(-456,-316) translate(510,316) rotate(0,0,0)"><text fill="" stroke="none" font-family="helvetica" font-size="8pt" font-style="normal" font-weight="normal" text-decoration="normal" x="0" y="0" text-anchor="middle" dominant-baseline="hanging">4000</text><g transform="rotate(0,0,0) translate(-510,-316) translate(564,316) rotate(0,0,0)"><text fill="" stroke="none" font-family="helvetica" font-size="8pt" font-style="normal" font-weight="normal" text-decoration="normal" x="0" y="0" text-anchor="middle" dominant-baseline="hanging">5000</text><g transform="rotate(0,0,0) translate(-564,-316) translate(618,316) rotate(0,0,0)"><text fill="" stroke="none" font-family="helvetica" font-size="8pt" font-style="normal" font-weight="normal" text-decoration="normal" x="0" y="0" text-anchor="middle" dominant-baseline="hanging">6000</text><g transform="rotate(0,0,0) translate(-618,-316) translate(473,334) rotate(0,0,0)"><text fill="" stroke="none" font-family="helvetica" font-size="10pt" font-style="italic" font-weight="normal" text-decoration="normal" x="0" y="0" text-anchor="middle" dominant-baseline="hanging">Respondents</text><g transform="rotate(0,0,0) translate(-473,-334)"/></g></g></g></g></g></g></g></g></g><g fill="#444444"><path fill="none" stroke="black" paint-order="fill stroke markers" d=" M 295 305 L 295 28" stroke-miterlimit="10"/><path fill="none" stroke="black" paint-order="fill stroke markers" d=" M 289 285 L 297 285" stroke-miterlimit="10"/><path fill="none" stroke="black" paint-order="fill stroke markers" d=" M 289 246 L 297 246" stroke-miterlimit="10"/><path fill="none" stroke="black" paint-order="fill stroke markers" d=" M 289 206 L 297 206" stroke-miterlimit="10"/><path fill="none" stroke="black" paint-order="fill stroke markers" d=" M 289 167 L 297 167" stroke-miterlimit="10"/><path fill="none" stroke="black" paint-order="fill stroke markers" d=" M 289 127 L 297 127" stroke-miterlimit="10"/><path fill="none" stroke="black" paint-order="fill stroke markers" d=" M 289 87 L 297 87" stroke-miterlimit="10"/><path fill="" stroke="black" paint-order="fill stroke markers" d=" M 289 48 L 297 48" stroke-miterlimit="10"/><g transform="translate(284,285) rotate(0,0,0)"><text fill="" stroke="none" font-family="helvetica" font-size="8pt" font-style="normal" font-weight="normal" text-decoration="normal" x="0" y="0" text-anchor="end" dominant-baseline="central">A full-time employee in-house</text><g transform="rotate(0,0,0) translate(-284,-285) translate(284,246) rotate(0,0,0)"><text fill="" stroke="none" font-family="helvetica" font-size="8pt" font-style="normal" font-weight="normal" text-decoration="normal" x="0" y="0" text-anchor="end" dominant-baseline="central">A full-time employee at an agency or consultancy</text><g transform="rotate(0,0,0) translate(-284,-246) translate(284,206) rotate(0,0,0)"><text fill="" stroke="none" font-family="helvetica" font-size="8pt" font-style="normal" font-weight="normal" text-decoration="normal" x="0" y="0" text-anchor="end" dominant-baseline="central">Self-employed or freelancing</text><g transform="rotate(0,0,0) translate(-284,-206) translate(284,167) rotate(0,0,0)"><text fill="" stroke="none" font-family="helvetica" font-size="8pt" font-style="normal" font-weight="normal" text-decoration="normal" x="0" y="0" text-anchor="end" dominant-baseline="central">A contract employee in-house</text><g transform="rotate(0,0,0) translate(-284,-167) translate(284,127) rotate(0,0,0)"><text fill="" stroke="none" font-family="helvetica" font-size="8pt" font-style="normal" font-weight="normal" text-decoration="normal" x="0" y="0" text-anchor="end" dominant-baseline="central">An educator</text><g transform="rotate(0,0,0) translate(-284,-127) translate(284,87) rotate(0,0,0)"><text fill="" stroke="none" font-family="helvetica" font-size="8pt" font-style="normal" font-weight="normal" text-decoration="normal" x="0" y="0" text-anchor="end" dominant-baseline="central">Other</text><g transform="rotate(0,0,0) translate(-284,-87) translate(284,48) rotate(0,0,0)"><text fill="" stroke="none" font-family="helvetica" font-size="8pt" font-style="normal" font-weight="normal" text-decoration="normal" x="0" y="0" text-anchor="end" dominant-baseline="central">A contract employee at an agency or consultancy</text><g transform="rotate(0,0,0) translate(-284,-48) translate(16,167) rotate(-90,0,0)"><text fill="" stroke="none" font-family="helvetica" font-size="10pt" font-style="italic" font-weight="normal" text-decoration="normal" x="0" y="0" text-anchor="middle" dominant-baseline="alphabetic">Categories</text><g transform="rotate(90,0,0) translate(-16,-167)"/></g></g></g></g></g></g></g></g></g><g fill="#444444"><path fill="" stroke="none" d=""/><g transform="translate(295,23)"><path fill="none" stroke="none"/><text fill="" stroke="none" font-family="helvetica" font-size="10pt" font-style="normal" font-weight="bold" text-decoration="normal" x="0" y="0" text-anchor="start" dominant-baseline="text-after-edge">All: I am currently:</text></g></g></g></g></g></svg>