<svg version="1.1" xmlns="http://www.w3.org/2000/svg" xmlns:xlink="http://www.w3.org/1999/xlink" width="700" height="400" style="width: 700px; height: 400px;"><defs/><g><g transform="scale(1,1) translate(0.5,0.5)"><rect fill="#FFFFFF" stroke="none" x="0" y="0" width="700" height="400"/><rect fill="#ffffff" stroke="none" x="0" y="0" width="700" height="400"/><rect fill="#FFFFFF" stroke="none" x="279" y="28" width="371" height="327"/><rect fill="#ffffff" stroke="none" x="279" y="28" width="371" height="327"/><g><rect fill="none" stroke="#e5e5e5" x="279" y="28" width="371" height="327" stroke-miterlimit="10"/></g><g><g><path fill="none" stroke="#e5e5e5" paint-order="fill stroke markers" d=" M 346 355 L 346 28" stroke-miterlimit="10"/><path fill="none" stroke="#e5e5e5" paint-order="fill stroke markers" d=" M 412 355 L 412 28" stroke-miterlimit="10"/><path fill="none" stroke="#e5e5e5" paint-order="fill stroke markers" d=" M 479 355 L 479 28" stroke-miterlimit="10"/><path fill="none" stroke="#e5e5e5" paint-order="fill stroke markers" d=" M 546 355 L 546 28" stroke-miterlimit="10"/><path fill="none" stroke="#e5e5e5" paint-order="fill stroke markers" d=" M 613 355 L 613 28" stroke-miterlimit="10"/></g><g><path fill="none" stroke="#e5e5e5" paint-order="fill stroke markers" d=" M 279 335 L 650 335" stroke-miterlimit="10"/><path fill="none" stroke="#e5e5e5" paint-order="fill stroke markers" d=" M 279 294 L 650 294" stroke-miterlimit="10"/><path fill="none" stroke="#e5e5e5" paint-order="fill stroke markers" d=" M 279 253 L 650 253" stroke-miterlimit="10"/><path fill="none" stroke="#e5e5e5" paint-order="fill stroke markers" d=" M 279 212 L 650 212" stroke-miterlimit="10"/><path fill="none" stroke="#e5e5e5" paint-order="fill stroke markers" d=" M 279 171 L 650 171" stroke-miterlimit="10"/><path fill="none" stroke="#e5e5e5" paint-order="fill stroke markers" d=" M 279 130 L 650 130" stroke-miterlimit="10"/><path fill="none" stroke="#e5e5e5" paint-order="fill stroke markers" d=" M 279 89 L 650 89" stroke-miterlimit="10"/><path fill="none" stroke="#e5e5e5" paint-order="fill stroke markers" d=" M 279 48 L 650 48" stroke-miterlimit="10"/></g><g><path fill="none" stroke="none"/><rect fill="#1f77b4" stroke="none" x="279" y="319.234375" width="307.4982011153086" height="30.65625"/><path fill="none" stroke="#1f77b4" paint-order="fill stroke markers" d=" M 279 319.234375 L 586.4982011153086 319.234375 L 586.4982011153086 349.890625 L 279 349.890625 L 279 319.234375 Z" stroke-miterlimit="10"/><rect fill="#1f77b4" stroke="none" x="279" y="278.359375" width="50.6212448282065" height="30.65625"/><path fill="none" stroke="#1f77b4" paint-order="fill stroke markers" d=" M 279 278.359375 L 329.6212448282065 278.359375 L 329.6212448282065 309.015625 L 279 309.015625 L 279 278.359375 Z" stroke-miterlimit="10"/><rect fill="#1f77b4" stroke="none" x="279" y="237.484375" width="40.77729807519336" height="30.65625"/><path fill="none" stroke="#1f77b4" paint-order="fill stroke markers" d=" M 279 237.484375 L 319.77729807519336 237.484375 L 319.77729807519336 268.140625 L 279 268.140625 L 279 237.484375 Z" stroke-miterlimit="10"/><rect fill="#1f77b4" stroke="none" x="279" y="196.609375" width="16.68465551358156" height="30.65625"/><path fill="none" stroke="#1f77b4" paint-order="fill stroke markers" d=" M 279 196.609375 L 295.68465551358156 196.609375 L 295.68465551358156 227.265625 L 279 227.265625 L 279 196.609375 Z" stroke-miterlimit="10"/><rect fill="#1f77b4" stroke="none" x="279" y="155.734375" width="12.07969059183307" height="30.65625"/><path fill="none" stroke="#1f77b4" paint-order="fill stroke markers" d=" M 279 155.734375 L 291.07969059183307 155.734375 L 291.07969059183307 186.390625 L 279 186.390625 L 279 155.734375 Z" stroke-miterlimit="10"/><rect fill="#1f77b4" stroke="none" x="279" y="114.859375" width="10.578071595610709" height="30.65625"/><path fill="none" stroke="#1f77b4" paint-order="fill stroke markers" d=" M 279 114.859375 L 289.5780715956107 114.859375 L 289.5780715956107 145.515625 L 279 145.515625 L 279 114.859375 Z" stroke-miterlimit="10"/><rect fill="#1f77b4" stroke="none" x="279" y="73.984375" width="4.905288720992985" height="30.65625"/><path fill="none" stroke="#1f77b4" paint-order="fill stroke markers" d=" M 279 73.984375 L 283.905288720993 73.984375 L 283.905288720993 104.640625 L 279 104.640625 L 279 73.984375 Z" stroke-miterlimit="10"/><rect fill="#1f77b4" stroke="none" x="279" y="33.109375" width="4.104425256341074" height="30.65625"/><path fill="none" stroke="#1f77b4" paint-order="fill stroke markers" d=" M 279 33.109375 L 283.1044252563411 33.109375 L 283.1044252563411 63.765625 L 279 63.765625 L 279 33.109375 Z" stroke-miterlimit="10"/></g><g fill="#444444"><path fill="" stroke="none" d=""/><g transform="translate(596.4982011153086,332.5625) rotate(0,0,0)"><path fill="none" stroke="none"/><text fill="" stroke="none" font-family="helvetica" font-size="8pt" font-style="normal" font-weight="normal" text-decoration="normal" x="0" y="0" text-anchor="start" dominant-baseline="text-after-edge">73.86%</text></g></g><g fill="#444444"><path fill="" stroke="none" d=""/><g transform="translate(339.6212448282065,291.6875) rotate(0,0,0)"><path fill="none" stroke="none"/><text fill="" stroke="none" font-family="helvetica" font-size="8pt" font-style="normal" font-weight="normal" text-decoration="normal" x="0" y="0" text-anchor="start" dominant-baseline="text-after-edge">12.16%</text></g></g><g fill="#444444"><path fill="" stroke="none" d=""/><g transform="translate(329.77729807519336,250.8125) rotate(0,0,0)"><path fill="none" stroke="none"/><text fill="" stroke="none" font-family="helvetica" font-size="8pt" font-style="normal" font-weight="normal" text-decoration="normal" x="0" y="0" text-anchor="start" dominant-baseline="text-after-edge">9.79%</text></g></g><g fill="#444444"><path fill="" stroke="none" d=""/><g transform="translate(305.68465551358156,209.9375) rotate(0,0,0)"><path fill="none" stroke="none"/><text fill="" stroke="none" font-family="helvetica" font-size="8pt" font-style="normal" font-weight="normal" text-decoration="normal" x="0" y="0" text-anchor="start" dominant-baseline="text-after-edge">4.01%</text></g></g><g fill="#444444"><path fill="" stroke="none" d=""/><g transform="translate(301.07969059183307,169.0625) rotate(0,0,0)"><path fill="none" stroke="none"/><text fill="" stroke="none" font-family="helvetica" font-size="8pt" font-style="normal" font-weight="normal" text-decoration="normal" x="0" y="0" text-anchor="start" dominant-baseline="text-after-edge">2.90%</text></g></g><g fill="#444444"><path fill="" stroke="none" d=""/><g transform="translate(299.5780715956107,128.1875) rotate(0,0,0)"><path fill="none" stroke="none"/><text fill="" stroke="none" font-family="helvetica" font-size="8pt" font-style="normal" font-weight="normal" text-decoration="normal" x="0" y="0" text-anchor="start" dominant-baseline="text-after-edge">2.54%</text></g></g><g fill="#444444"><path fill="" stroke="none" d=""/><g transform="translate(293.905288720993,87.3125) rotate(0,0,0)"><path fill="none" stroke="none"/><text fill="" stroke="none" font-family="helvetica" font-size="8pt" font-style="normal" font-weight="normal" text-decoration="normal" x="0" y="0" text-anchor="start" dominant-baseline="text-after-edge">1.18%</text></g></g><g fill="#444444"><path fill="" stroke="none" d=""/><g transform="translate(293.1044252563411,46.4375) rotate(0,0,0)"><path fill="none" stroke="none"/><text fill="" stroke="none" font-family="helvetica" font-size="8pt" font-style="normal" font-weight="normal" text-decoration="normal" x="0" y="0" text-anchor="start" dominant-baseline="text-after-edge">0.99%</text></g></g><g fill="#444444"><path fill="" stroke="none" d=""/><g transform="translate(596.4982011153086,346.5625) rotate(0,0,0)"><path fill="none" stroke="none"/><text fill="" stroke="none" font-family="helvetica" font-size="8pt" font-style="normal" font-weight="normal" text-decoration="normal" x="0" y="0" text-anchor="start" dominant-baseline="text-after-edge">9215</text></g></g><g fill="#444444"><path fill="" stroke="none" d=""/><g transform="translate(339.6212448282065,305.6875) rotate(0,0,0)"><path fill="none" stroke="none"/><text fill="" stroke="none" font-family="helvetica" font-size="8pt" font-style="normal" font-weight="normal" text-decoration="normal" x="0" y="0" text-anchor="start" dominant-baseline="text-after-edge">1517</text></g></g><g fill="#444444"><path fill="" stroke="none" d=""/><g transform="translate(329.77729807519336,264.8125) rotate(0,0,0)"><path fill="none" stroke="none"/><text fill="" stroke="none" font-family="helvetica" font-size="8pt" font-style="normal" font-weight="normal" text-decoration="normal" x="0" y="0" text-anchor="start" dominant-baseline="text-after-edge">1222</text></g></g><g fill="#444444"><path fill="" stroke="none" d=""/><g transform="translate(305.68465551358156,223.9375) rotate(0,0,0)"><path fill="none" stroke="none"/><text fill="" stroke="none" font-family="helvetica" font-size="8pt" font-style="normal" font-weight="normal" text-decoration="normal" x="0" y="0" text-anchor="start" dominant-baseline="text-after-edge">500</text></g></g><g fill="#444444"><path fill="" stroke="none" d=""/><g transform="translate(301.07969059183307,183.0625) rotate(0,0,0)"><path fill="none" stroke="none"/><text fill="" stroke="none" font-family="helvetica" font-size="8pt" font-style="normal" font-weight="normal" text-decoration="normal" x="0" y="0" text-anchor="start" dominant-baseline="text-after-edge">362</text></g></g><g fill="#444444"><path fill="" stroke="none" d=""/><g transform="translate(299.5780715956107,142.1875) rotate(0,0,0)"><path fill="none" stroke="none"/><text fill="" stroke="none" font-family="helvetica" font-size="8pt" font-style="normal" font-weight="normal" text-decoration="normal" x="0" y="0" text-anchor="start" dominant-baseline="text-after-edge">317</text></g></g><g fill="#444444"><path fill="" stroke="none" d=""/><g transform="translate(293.905288720993,101.3125) rotate(0,0,0)"><path fill="none" stroke="none"/><text fill="" stroke="none" font-family="helvetica" font-size="8pt" font-style="normal" font-weight="normal" text-decoration="normal" x="0" y="0" text-anchor="start" dominant-baseline="text-after-edge">147</text></g></g><g fill="#444444"><path fill="" stroke="none" d=""/><g transform="translate(293.1044252563411,60.4375) rotate(0,0,0)"><path fill="none" stroke="none"/><text fill="" stroke="none" font-family="helvetica" font-size="8pt" font-style="normal" font-weight="normal" text-decoration="normal" x="0" y="0" text-anchor="start" dominant-baseline="text-after-edge">123</text></g></g></g><g/><g><g fill="#444444"><path fill="none" stroke="black" paint-order="fill stroke markers" d=" M 279 355 L 650 355" stroke-miterlimit="10"/><path fill="none" stroke="black" paint-order="fill stroke markers" d=" M 279 361 L 279 353" stroke-miterlimit="10"/><path fill="none" stroke="black" paint-order="fill stroke markers" d=" M 346 361 L 346 353" stroke-miterlimit="10"/><path fill="none" stroke="black" paint-order="fill stroke markers" d=" M 412 361 L 412 353" stroke-miterlimit="10"/><path fill="none" stroke="black" paint-order="fill stroke markers" d=" M 479 361 L 479 353" stroke-miterlimit="10"/><path fill="none" stroke="black" paint-order="fill stroke markers" d=" M 546 361 L 546 353" stroke-miterlimit="10"/><path fill="none" stroke="black" paint-order="fill stroke markers" d=" M 613 361 L 613 353" stroke-miterlimit="10"/><path fill="none" stroke="black" paint-order="fill stroke markers" d=" M 279 359 L 279 355" stroke-miterlimit="10"/><path fill="none" stroke="black" paint-order="fill stroke markers" d=" M 292 359 L 292 355" stroke-miterlimit="10"/><path fill="none" stroke="black" paint-order="fill stroke markers" d=" M 306 359 L 306 355" stroke-miterlimit="10"/><path fill="none" stroke="black" paint-order="fill stroke markers" d=" M 319 359 L 319 355" stroke-miterlimit="10"/><path fill="none" stroke="black" paint-order="fill stroke markers" d=" M 332 359 L 332 355" stroke-miterlimit="10"/><path fill="none" stroke="black" paint-order="fill stroke markers" d=" M 346 359 L 346 355" stroke-miterlimit="10"/><path fill="none" stroke="black" paint-order="fill stroke markers" d=" M 359 359 L 359 355" stroke-miterlimit="10"/><path fill="none" stroke="black" paint-order="fill stroke markers" d=" M 372 359 L 372 355" stroke-miterlimit="10"/><path fill="none" stroke="black" paint-order="fill stroke markers" d=" M 386 359 L 386 355" stroke-miterlimit="10"/><path fill="none" stroke="black" paint-order="fill stroke markers" d=" M 399 359 L 399 355" stroke-miterlimit="10"/><path fill="none" stroke="black" paint-order="fill stroke markers" d=" M 412 359 L 412 355" stroke-miterlimit="10"/><path fill="none" stroke="black" paint-order="fill stroke markers" d=" M 426 359 L 426 355" stroke-miterlimit="10"/><path fill="none" stroke="black" paint-order="fill stroke markers" d=" M 439 359 L 439 355" stroke-miterlimit="10"/><path fill="none" stroke="black" paint-order="fill stroke markers" d=" M 453 359 L 453 355" stroke-miterlimit="10"/><path fill="none" stroke="black" paint-order="fill stroke markers" d=" M 466 359 L 466 355" stroke-miterlimit="10"/><path fill="none" stroke="black" paint-order="fill stroke markers" d=" M 479 359 L 479 355" stroke-miterlimit="10"/><path fill="none" stroke="black" paint-order="fill stroke markers" d=" M 493 359 L 493 355" stroke-miterlimit="10"/><path fill="none" stroke="black" paint-order="fill stroke markers" d=" M 506 359 L 506 355" stroke-miterlimit="10"/><path fill="none" stroke="black" paint-order="fill stroke markers" d=" M 519 359 L 519 355" stroke-miterlimit="10"/><path fill="none" stroke="black" paint-order="fill stroke markers" d=" M 533 359 L 533 355" stroke-miterlimit="10"/><path fill="none" stroke="black" paint-order="fill stroke markers" d=" M 546 359 L 546 355" stroke-miterlimit="10"/><path fill="none" stroke="black" paint-order="fill stroke markers" d=" M 559 359 L 559 355" stroke-miterlimit="10"/><path fill="none" stroke="black" paint-order="fill stroke markers" d=" M 573 359 L 573 355" stroke-miterlimit="10"/><path fill="none" stroke="black" paint-order="fill stroke markers" d=" M 586 359 L 586 355" stroke-miterlimit="10"/><path fill="none" stroke="black" paint-order="fill stroke markers" d=" M 599 359 L 599 355" stroke-miterlimit="10"/><path fill="none" stroke="black" paint-order="fill stroke markers" d=" M 613 359 L 613 355" stroke-miterlimit="10"/><path fill="none" stroke="black" paint-order="fill stroke markers" d=" M 626 359 L 626 355" stroke-miterlimit="10"/><path fill="" stroke="black" paint-order="fill stroke markers" d=" M 639 359 L 639 355" stroke-miterlimit="10"/><g transform="translate(279,366) rotate(0,0,0)"><text fill="" stroke="none" font-family="helvetica" font-size="8pt" font-style="normal" font-weight="normal" text-decoration="normal" x="0" y="0" text-anchor="middle" dominant-baseline="hanging">0</text><g transform="rotate(0,0,0) translate(-279,-366) translate(346,366) rotate(0,0,0)"><text fill="" stroke="none" font-family="helvetica" font-size="8pt" font-style="normal" font-weight="normal" text-decoration="normal" x="0" y="0" text-anchor="middle" dominant-baseline="hanging">2000</text><g transform="rotate(0,0,0) translate(-346,-366) translate(412,366) rotate(0,0,0)"><text fill="" stroke="none" font-family="helvetica" font-size="8pt" font-style="normal" font-weight="normal" text-decoration="normal" x="0" y="0" text-anchor="middle" dominant-baseline="hanging">4000</text><g transform="rotate(0,0,0) translate(-412,-366) translate(479,366) rotate(0,0,0)"><text fill="" stroke="none" font-family="helvetica" font-size="8pt" font-style="normal" font-weight="normal" text-decoration="normal" x="0" y="0" text-anchor="middle" dominant-baseline="hanging">6000</text><g transform="rotate(0,0,0) translate(-479,-366) translate(546,366) rotate(0,0,0)"><text fill="" stroke="none" font-family="helvetica" font-size="8pt" font-style="normal" font-weight="normal" text-decoration="normal" x="0" y="0" text-anchor="middle" dominant-baseline="hanging">8000</text><g transform="rotate(0,0,0) translate(-546,-366) translate(613,366) rotate(0,0,0)"><text fill="" stroke="none" font-family="helvetica" font-size="8pt" font-style="normal" font-weight="normal" text-decoration="normal" x="0" y="0" text-anchor="middle" dominant-baseline="hanging">10000</text><g transform="rotate(0,0,0) translate(-613,-366) translate(465,384) rotate(0,0,0)"><text fill="" stroke="none" font-family="helvetica" font-size="10pt" font-style="italic" font-weight="normal" text-decoration="normal" x="0" y="0" text-anchor="middle" dominant-baseline="hanging">Respondents</text><g transform="rotate(0,0,0) translate(-465,-384)"/></g></g></g></g></g></g></g></g><g fill="#444444"><path fill="none" stroke="black" paint-order="fill stroke markers" d=" M 279 355 L 279 28" stroke-miterlimit="10"/><path fill="none" stroke="black" paint-order="fill stroke markers" d=" M 273 335 L 281 335" stroke-miterlimit="10"/><path fill="none" stroke="black" paint-order="fill stroke markers" d=" M 273 294 L 281 294" stroke-miterlimit="10"/><path fill="none" stroke="black" paint-order="fill stroke markers" d=" M 273 253 L 281 253" stroke-miterlimit="10"/><path fill="none" stroke="black" paint-order="fill stroke markers" d=" M 273 212 L 281 212" stroke-miterlimit="10"/><path fill="none" stroke="black" paint-order="fill stroke markers" d=" M 273 171 L 281 171" stroke-miterlimit="10"/><path fill="none" stroke="black" paint-order="fill stroke markers" d=" M 273 130 L 281 130" stroke-miterlimit="10"/><path fill="none" stroke="black" paint-order="fill stroke markers" d=" M 273 89 L 281 89" stroke-miterlimit="10"/><path fill="" stroke="black" paint-order="fill stroke markers" d=" M 273 48 L 281 48" stroke-miterlimit="10"/><g transform="translate(268,335) rotate(0,0,0)"><text fill="" stroke="none" font-family="helvetica" font-size="8pt" font-style="normal" font-weight="normal" text-decoration="normal" x="0" y="0" text-anchor="end" dominant-baseline="central">White or Caucasian</text><g transform="rotate(0,0,0) translate(-268,-335) translate(268,294) rotate(0,0,0)"><text fill="" stroke="none" font-family="helvetica" font-size="8pt" font-style="normal" font-weight="normal" text-decoration="normal" x="0" y="0" text-anchor="end" dominant-baseline="central">Asian</text><g transform="rotate(0,0,0) translate(-268,-294) translate(268,253) rotate(0,0,0)"><text fill="" stroke="none" font-family="helvetica" font-size="8pt" font-style="normal" font-weight="normal" text-decoration="normal" x="0" y="0" text-anchor="end" dominant-baseline="central">Latina, Latino, Latinx, or Hispanic</text><g transform="rotate(0,0,0) translate(-268,-253) translate(268,212) rotate(0,0,0)"><text fill="" stroke="none" font-family="helvetica" font-size="8pt" font-style="normal" font-weight="normal" text-decoration="normal" x="0" y="0" text-anchor="end" dominant-baseline="central">Black or African American</text><g transform="rotate(0,0,0) translate(-268,-212) translate(268,171) rotate(0,0,0)"><text fill="" stroke="none" font-family="helvetica" font-size="8pt" font-style="normal" font-weight="normal" text-decoration="normal" x="0" y="0" text-anchor="end" dominant-baseline="central">Other</text><g transform="rotate(0,0,0) translate(-268,-171) translate(268,130) rotate(0,0,0)"><text fill="" stroke="none" font-family="helvetica" font-size="8pt" font-style="normal" font-weight="normal" text-decoration="normal" x="0" y="0" text-anchor="end" dominant-baseline="central">Prefer not to say</text><g transform="rotate(0,0,0) translate(-268,-130) translate(268,89) rotate(0,0,0)"><text fill="" stroke="none" font-family="helvetica" font-size="8pt" font-style="normal" font-weight="normal" text-decoration="normal" x="0" y="0" text-anchor="end" dominant-baseline="central">Native American, First Nations, or First People</text><g transform="rotate(0,0,0) translate(-268,-89) translate(268,48) rotate(0,0,0)"><text fill="" stroke="none" font-family="helvetica" font-size="8pt" font-style="normal" font-weight="normal" text-decoration="normal" x="0" y="0" text-anchor="end" dominant-baseline="central">Native Hawaiian or Pacific Islander</text><g transform="rotate(0,0,0) translate(-268,-48) translate(15,192) rotate(-90,0,0)"><text fill="" stroke="none" font-family="helvetica" font-size="10pt" font-style="italic" font-weight="normal" text-decoration="normal" x="0" y="0" text-anchor="middle" dominant-baseline="alphabetic">Categories</text><g transform="rotate(90,0,0) translate(-15,-192)"/></g></g></g></g></g></g></g></g></g></g><g fill="#444444"><path fill="" stroke="none" d=""/><g transform="translate(279,23)"><path fill="none" stroke="none"/><text fill="" stroke="none" font-family="helvetica" font-size="10pt" font-style="normal" font-weight="bold" text-decoration="normal" x="0" y="0" text-anchor="start" dominant-baseline="text-after-edge">All: My ethnicity is:</text></g></g></g></g></g></svg>