<svg version="1.1" xmlns="http://www.w3.org/2000/svg" xmlns:xlink="http://www.w3.org/1999/xlink" width="700" height="450" style="width: 700px; height: 450px;"><defs/><g><g transform="scale(1,1) translate(0.5,0.5)"><rect fill="#FFFFFF" stroke="none" x="0" y="0" width="700" height="450"/><rect fill="#ffffff" stroke="none" x="0" y="0" width="700" height="450"/><rect fill="#FFFFFF" stroke="none" x="139" y="28" width="511" height="377"/><rect fill="#ffffff" stroke="none" x="139" y="28" width="511" height="377"/><g><rect fill="none" stroke="#e5e5e5" x="139" y="28" width="511" height="377" stroke-miterlimit="10"/></g><g><g><path fill="none" stroke="#e5e5e5" paint-order="fill stroke markers" d=" M 239 405 L 239 28" stroke-miterlimit="10"/><path fill="none" stroke="#e5e5e5" paint-order="fill stroke markers" d=" M 339 405 L 339 28" stroke-miterlimit="10"/><path fill="none" stroke="#e5e5e5" paint-order="fill stroke markers" d=" M 440 405 L 440 28" stroke-miterlimit="10"/><path fill="none" stroke="#e5e5e5" paint-order="fill stroke markers" d=" M 540 405 L 540 28" stroke-miterlimit="10"/><path fill="none" stroke="#e5e5e5" paint-order="fill stroke markers" d=" M 640 405 L 640 28" stroke-miterlimit="10"/></g><g><path fill="none" stroke="#e5e5e5" paint-order="fill stroke markers" d=" M 139 384 L 650 384" stroke-miterlimit="10"/><path fill="none" stroke="#e5e5e5" paint-order="fill stroke markers" d=" M 139 342 L 650 342" stroke-miterlimit="10"/><path fill="none" stroke="#e5e5e5" paint-order="fill stroke markers" d=" M 139 300 L 650 300" stroke-miterlimit="10"/><path fill="none" stroke="#e5e5e5" paint-order="fill stroke markers" d=" M 139 258 L 650 258" stroke-miterlimit="10"/><path fill="none" stroke="#e5e5e5" paint-order="fill stroke markers" d=" M 139 217 L 650 217" stroke-miterlimit="10"/><path fill="none" stroke="#e5e5e5" paint-order="fill stroke markers" d=" M 139 175 L 650 175" stroke-miterlimit="10"/><path fill="none" stroke="#e5e5e5" paint-order="fill stroke markers" d=" M 139 133 L 650 133" stroke-miterlimit="10"/><path fill="none" stroke="#e5e5e5" paint-order="fill stroke markers" d=" M 139 91 L 650 91" stroke-miterlimit="10"/><path fill="none" stroke="#e5e5e5" paint-order="fill stroke markers" d=" M 139 49 L 650 49" stroke-miterlimit="10"/></g><g><path fill="none" stroke="none"/><rect fill="#1f77b4" stroke="none" x="139" y="368.3472222222222" width="175.343137254902" height="31.416666666666742"/><path fill="none" stroke="#1f77b4" paint-order="fill stroke markers" d=" M 139 368.3472222222222 L 314.343137254902 368.3472222222222 L 314.343137254902 399.7638888888889 L 139 399.7638888888889 L 139 368.3472222222222 Z" stroke-miterlimit="10"/><rect fill="#1f77b4" stroke="none" x="139" y="326.45833333333337" width="165.3235294117647" height="31.41666666666663"/><path fill="none" stroke="#1f77b4" paint-order="fill stroke markers" d=" M 139 326.45833333333337 L 304.3235294117647 326.45833333333337 L 304.3235294117647 357.875 L 139 357.875 L 139 326.45833333333337 Z" stroke-miterlimit="10"/><rect fill="#1f77b4" stroke="none" x="139" y="284.56944444444446" width="120.23529411764707" height="31.41666666666663"/><path fill="none" stroke="#1f77b4" paint-order="fill stroke markers" d=" M 139 284.56944444444446 L 259.2352941176471 284.56944444444446 L 259.2352941176471 315.9861111111111 L 139 315.9861111111111 L 139 284.56944444444446 Z" stroke-miterlimit="10"/><rect fill="#1f77b4" stroke="none" x="139" y="242.6805555555556" width="100.19607843137254" height="31.41666666666663"/><path fill="none" stroke="#1f77b4" paint-order="fill stroke markers" d=" M 139 242.6805555555556 L 239.19607843137254 242.6805555555556 L 239.19607843137254 274.09722222222223 L 139 274.09722222222223 L 139 242.6805555555556 Z" stroke-miterlimit="10"/><rect fill="#1f77b4" stroke="none" x="139" y="200.79166666666669" width="90.1764705882353" height="31.41666666666663"/><path fill="none" stroke="#1f77b4" paint-order="fill stroke markers" d=" M 139 200.79166666666669 L 229.1764705882353 200.79166666666669 L 229.1764705882353 232.20833333333331 L 139 232.20833333333331 L 139 200.79166666666669 Z" stroke-miterlimit="10"/><rect fill="#1f77b4" stroke="none" x="139" y="158.90277777777783" width="65.12745098039215" height="31.41666666666663"/><path fill="none" stroke="#1f77b4" paint-order="fill stroke markers" d=" M 139 158.90277777777783 L 204.12745098039215 158.90277777777783 L 204.12745098039215 190.31944444444446 L 139 190.31944444444446 L 139 158.90277777777783 Z" stroke-miterlimit="10"/><rect fill="#1f77b4" stroke="none" x="139" y="117.01388888888889" width="55.10784313725492" height="31.416666666666686"/><path fill="none" stroke="#1f77b4" paint-order="fill stroke markers" d=" M 139 117.01388888888889 L 194.10784313725492 117.01388888888889 L 194.10784313725492 148.43055555555557 L 139 148.43055555555557 L 139 117.01388888888889 Z" stroke-miterlimit="10"/><rect fill="#1f77b4" stroke="none" x="139" y="75.12500000000003" width="10.019607843137265" height="31.416666666666686"/><path fill="none" stroke="#1f77b4" paint-order="fill stroke markers" d=" M 139 75.12500000000003 L 149.01960784313727 75.12500000000003 L 149.01960784313727 106.54166666666671 L 139 106.54166666666671 L 139 75.12500000000003 Z" stroke-miterlimit="10"/><rect fill="#1f77b4" stroke="none" x="139" y="33.236111111111114" width="5.0098039215686185" height="31.416666666666686"/><path fill="none" stroke="#1f77b4" paint-order="fill stroke markers" d=" M 139 33.236111111111114 L 144.00980392156862 33.236111111111114 L 144.00980392156862 64.6527777777778 L 139 64.6527777777778 L 139 33.236111111111114 Z" stroke-miterlimit="10"/></g><g fill="#444444"><path fill="" stroke="none" d=""/><g transform="translate(324.343137254902,382.05555555555554) rotate(0,0,0)"><path fill="none" stroke="none"/><text fill="" stroke="none" font-family="helvetica" font-size="8pt" font-style="normal" font-weight="normal" text-decoration="normal" x="0" y="0" text-anchor="start" dominant-baseline="text-after-edge">0.45%</text></g></g><g fill="#444444"><path fill="" stroke="none" d=""/><g transform="translate(314.3235294117647,340.1666666666667) rotate(0,0,0)"><path fill="none" stroke="none"/><text fill="" stroke="none" font-family="helvetica" font-size="8pt" font-style="normal" font-weight="normal" text-decoration="normal" x="0" y="0" text-anchor="start" dominant-baseline="text-after-edge">0.42%</text></g></g><g fill="#444444"><path fill="" stroke="none" d=""/><g transform="translate(269.2352941176471,298.27777777777777) rotate(0,0,0)"><path fill="none" stroke="none"/><text fill="" stroke="none" font-family="helvetica" font-size="8pt" font-style="normal" font-weight="normal" text-decoration="normal" x="0" y="0" text-anchor="start" dominant-baseline="text-after-edge">0.31%</text></g></g><g fill="#444444"><path fill="" stroke="none" d=""/><g transform="translate(249.19607843137254,256.3888888888889) rotate(0,0,0)"><path fill="none" stroke="none"/><text fill="" stroke="none" font-family="helvetica" font-size="8pt" font-style="normal" font-weight="normal" text-decoration="normal" x="0" y="0" text-anchor="start" dominant-baseline="text-after-edge">0.26%</text></g></g><g fill="#444444"><path fill="" stroke="none" d=""/><g transform="translate(239.1764705882353,214.5) rotate(0,0,0)"><path fill="none" stroke="none"/><text fill="" stroke="none" font-family="helvetica" font-size="8pt" font-style="normal" font-weight="normal" text-decoration="normal" x="0" y="0" text-anchor="start" dominant-baseline="text-after-edge">0.23%</text></g></g><g fill="#444444"><path fill="" stroke="none" d=""/><g transform="translate(214.12745098039215,172.61111111111114) rotate(0,0,0)"><path fill="none" stroke="none"/><text fill="" stroke="none" font-family="helvetica" font-size="8pt" font-style="normal" font-weight="normal" text-decoration="normal" x="0" y="0" text-anchor="start" dominant-baseline="text-after-edge">0.17%</text></g></g><g fill="#444444"><path fill="" stroke="none" d=""/><g transform="translate(204.10784313725492,130.72222222222223) rotate(0,0,0)"><path fill="none" stroke="none"/><text fill="" stroke="none" font-family="helvetica" font-size="8pt" font-style="normal" font-weight="normal" text-decoration="normal" x="0" y="0" text-anchor="start" dominant-baseline="text-after-edge">0.14%</text></g></g><g fill="#444444"><path fill="" stroke="none" d=""/><g transform="translate(159.01960784313727,88.83333333333337) rotate(0,0,0)"><path fill="none" stroke="none"/><text fill="" stroke="none" font-family="helvetica" font-size="8pt" font-style="normal" font-weight="normal" text-decoration="normal" x="0" y="0" text-anchor="start" dominant-baseline="text-after-edge">0.03%</text></g></g><g fill="#444444"><path fill="" stroke="none" d=""/><g transform="translate(154.00980392156862,46.94444444444446) rotate(0,0,0)"><path fill="none" stroke="none"/><text fill="" stroke="none" font-family="helvetica" font-size="8pt" font-style="normal" font-weight="normal" text-decoration="normal" x="0" y="0" text-anchor="start" dominant-baseline="text-after-edge">0.01%</text></g></g><g fill="#444444"><path fill="" stroke="none" d=""/><g transform="translate(324.343137254902,396.05555555555554) rotate(0,0,0)"><path fill="none" stroke="none"/><text fill="" stroke="none" font-family="helvetica" font-size="8pt" font-style="normal" font-weight="normal" text-decoration="normal" x="0" y="0" text-anchor="start" dominant-baseline="text-after-edge">35</text></g></g><g fill="#444444"><path fill="" stroke="none" d=""/><g transform="translate(314.3235294117647,354.1666666666667) rotate(0,0,0)"><path fill="none" stroke="none"/><text fill="" stroke="none" font-family="helvetica" font-size="8pt" font-style="normal" font-weight="normal" text-decoration="normal" x="0" y="0" text-anchor="start" dominant-baseline="text-after-edge">33</text></g></g><g fill="#444444"><path fill="" stroke="none" d=""/><g transform="translate(269.2352941176471,312.27777777777777) rotate(0,0,0)"><path fill="none" stroke="none"/><text fill="" stroke="none" font-family="helvetica" font-size="8pt" font-style="normal" font-weight="normal" text-decoration="normal" x="0" y="0" text-anchor="start" dominant-baseline="text-after-edge">24</text></g></g><g fill="#444444"><path fill="" stroke="none" d=""/><g transform="translate(249.19607843137254,270.3888888888889) rotate(0,0,0)"><path fill="none" stroke="none"/><text fill="" stroke="none" font-family="helvetica" font-size="8pt" font-style="normal" font-weight="normal" text-decoration="normal" x="0" y="0" text-anchor="start" dominant-baseline="text-after-edge">20</text></g></g><g fill="#444444"><path fill="" stroke="none" d=""/><g transform="translate(239.1764705882353,228.5) rotate(0,0,0)"><path fill="none" stroke="none"/><text fill="" stroke="none" font-family="helvetica" font-size="8pt" font-style="normal" font-weight="normal" text-decoration="normal" x="0" y="0" text-anchor="start" dominant-baseline="text-after-edge">18</text></g></g><g fill="#444444"><path fill="" stroke="none" d=""/><g transform="translate(214.12745098039215,186.61111111111114) rotate(0,0,0)"><path fill="none" stroke="none"/><text fill="" stroke="none" font-family="helvetica" font-size="8pt" font-style="normal" font-weight="normal" text-decoration="normal" x="0" y="0" text-anchor="start" dominant-baseline="text-after-edge">13</text></g></g><g fill="#444444"><path fill="" stroke="none" d=""/><g transform="translate(204.10784313725492,144.72222222222223) rotate(0,0,0)"><path fill="none" stroke="none"/><text fill="" stroke="none" font-family="helvetica" font-size="8pt" font-style="normal" font-weight="normal" text-decoration="normal" x="0" y="0" text-anchor="start" dominant-baseline="text-after-edge">11</text></g></g><g fill="#444444"><path fill="" stroke="none" d=""/><g transform="translate(159.01960784313727,102.83333333333337) rotate(0,0,0)"><path fill="none" stroke="none"/><text fill="" stroke="none" font-family="helvetica" font-size="8pt" font-style="normal" font-weight="normal" text-decoration="normal" x="0" y="0" text-anchor="start" dominant-baseline="text-after-edge">2</text></g></g><g fill="#444444"><path fill="" stroke="none" d=""/><g transform="translate(154.00980392156862,60.94444444444446) rotate(0,0,0)"><path fill="none" stroke="none"/><text fill="" stroke="none" font-family="helvetica" font-size="8pt" font-style="normal" font-weight="normal" text-decoration="normal" x="0" y="0" text-anchor="start" dominant-baseline="text-after-edge">1</text></g></g></g><g/><g><g fill="#444444"><path fill="none" stroke="black" paint-order="fill stroke markers" d=" M 139 405 L 650 405" stroke-miterlimit="10"/><path fill="none" stroke="black" paint-order="fill stroke markers" d=" M 139 411 L 139 403" stroke-miterlimit="10"/><path fill="none" stroke="black" paint-order="fill stroke markers" d=" M 239 411 L 239 403" stroke-miterlimit="10"/><path fill="none" stroke="black" paint-order="fill stroke markers" d=" M 339 411 L 339 403" stroke-miterlimit="10"/><path fill="none" stroke="black" paint-order="fill stroke markers" d=" M 440 411 L 440 403" stroke-miterlimit="10"/><path fill="none" stroke="black" paint-order="fill stroke markers" d=" M 540 411 L 540 403" stroke-miterlimit="10"/><path fill="none" stroke="black" paint-order="fill stroke markers" d=" M 640 411 L 640 403" stroke-miterlimit="10"/><path fill="none" stroke="black" paint-order="fill stroke markers" d=" M 139 409 L 139 405" stroke-miterlimit="10"/><path fill="none" stroke="black" paint-order="fill stroke markers" d=" M 159 409 L 159 405" stroke-miterlimit="10"/><path fill="none" stroke="black" paint-order="fill stroke markers" d=" M 179 409 L 179 405" stroke-miterlimit="10"/><path fill="none" stroke="black" paint-order="fill stroke markers" d=" M 199 409 L 199 405" stroke-miterlimit="10"/><path fill="none" stroke="black" paint-order="fill stroke markers" d=" M 219 409 L 219 405" stroke-miterlimit="10"/><path fill="none" stroke="black" paint-order="fill stroke markers" d=" M 239 409 L 239 405" stroke-miterlimit="10"/><path fill="none" stroke="black" paint-order="fill stroke markers" d=" M 259 409 L 259 405" stroke-miterlimit="10"/><path fill="none" stroke="black" paint-order="fill stroke markers" d=" M 279 409 L 279 405" stroke-miterlimit="10"/><path fill="none" stroke="black" paint-order="fill stroke markers" d=" M 299 409 L 299 405" stroke-miterlimit="10"/><path fill="none" stroke="black" paint-order="fill stroke markers" d=" M 319 409 L 319 405" stroke-miterlimit="10"/><path fill="none" stroke="black" paint-order="fill stroke markers" d=" M 339 409 L 339 405" stroke-miterlimit="10"/><path fill="none" stroke="black" paint-order="fill stroke markers" d=" M 359 409 L 359 405" stroke-miterlimit="10"/><path fill="none" stroke="black" paint-order="fill stroke markers" d=" M 379 409 L 379 405" stroke-miterlimit="10"/><path fill="none" stroke="black" paint-order="fill stroke markers" d=" M 400 409 L 400 405" stroke-miterlimit="10"/><path fill="none" stroke="black" paint-order="fill stroke markers" d=" M 420 409 L 420 405" stroke-miterlimit="10"/><path fill="none" stroke="black" paint-order="fill stroke markers" d=" M 440 409 L 440 405" stroke-miterlimit="10"/><path fill="none" stroke="black" paint-order="fill stroke markers" d=" M 460 409 L 460 405" stroke-miterlimit="10"/><path fill="none" stroke="black" paint-order="fill stroke markers" d=" M 480 409 L 480 405" stroke-miterlimit="10"/><path fill="none" stroke="black" paint-order="fill stroke markers" d=" M 500 409 L 500 405" stroke-miterlimit="10"/><path fill="none" stroke="black" paint-order="fill stroke markers" d=" M 520 409 L 520 405" stroke-miterlimit="10"/><path fill="none" stroke="black" paint-order="fill stroke markers" d=" M 540 409 L 540 405" stroke-miterlimit="10"/><path fill="none" stroke="black" paint-order="fill stroke markers" d=" M 560 409 L 560 405" stroke-miterlimit="10"/><path fill="none" stroke="black" paint-order="fill stroke markers" d=" M 580 409 L 580 405" stroke-miterlimit="10"/><path fill="none" stroke="black" paint-order="fill stroke markers" d=" M 600 409 L 600 405" stroke-miterlimit="10"/><path fill="none" stroke="black" paint-order="fill stroke markers" d=" M 620 409 L 620 405" stroke-miterlimit="10"/><path fill="" stroke="black" paint-order="fill stroke markers" d=" M 640 409 L 640 405" stroke-miterlimit="10"/><g transform="translate(139,416) rotate(0,0,0)"><text fill="" stroke="none" font-family="helvetica" font-size="8pt" font-style="normal" font-weight="normal" text-decoration="normal" x="0" y="0" text-anchor="middle" dominant-baseline="hanging">0</text><g transform="rotate(0,0,0) translate(-139,-416) translate(239,416) rotate(0,0,0)"><text fill="" stroke="none" font-family="helvetica" font-size="8pt" font-style="normal" font-weight="normal" text-decoration="normal" x="0" y="0" text-anchor="middle" dominant-baseline="hanging">20</text><g transform="rotate(0,0,0) translate(-239,-416) translate(339,416) rotate(0,0,0)"><text fill="" stroke="none" font-family="helvetica" font-size="8pt" font-style="normal" font-weight="normal" text-decoration="normal" x="0" y="0" text-anchor="middle" dominant-baseline="hanging">40</text><g transform="rotate(0,0,0) translate(-339,-416) translate(440,416) rotate(0,0,0)"><text fill="" stroke="none" font-family="helvetica" font-size="8pt" font-style="normal" font-weight="normal" text-decoration="normal" x="0" y="0" text-anchor="middle" dominant-baseline="hanging">60</text><g transform="rotate(0,0,0) translate(-440,-416) translate(540,416) rotate(0,0,0)"><text fill="" stroke="none" font-family="helvetica" font-size="8pt" font-style="normal" font-weight="normal" text-decoration="normal" x="0" y="0" text-anchor="middle" dominant-baseline="hanging">80</text><g transform="rotate(0,0,0) translate(-540,-416) translate(640,416) rotate(0,0,0)"><text fill="" stroke="none" font-family="helvetica" font-size="8pt" font-style="normal" font-weight="normal" text-decoration="normal" x="0" y="0" text-anchor="middle" dominant-baseline="hanging">100</text><g transform="rotate(0,0,0) translate(-640,-416) translate(395,434) rotate(0,0,0)"><text fill="" stroke="none" font-family="helvetica" font-size="10pt" font-style="italic" font-weight="normal" text-decoration="normal" x="0" y="0" text-anchor="middle" dominant-baseline="hanging">Respondents</text><g transform="rotate(0,0,0) translate(-395,-434)"/></g></g></g></g></g></g></g></g><g fill="#444444"><path fill="none" stroke="black" paint-order="fill stroke markers" d=" M 139 405 L 139 28" stroke-miterlimit="10"/><path fill="none" stroke="black" paint-order="fill stroke markers" d=" M 133 384 L 141 384" stroke-miterlimit="10"/><path fill="none" stroke="black" paint-order="fill stroke markers" d=" M 133 342 L 141 342" stroke-miterlimit="10"/><path fill="none" stroke="black" paint-order="fill stroke markers" d=" M 133 300 L 141 300" stroke-miterlimit="10"/><path fill="none" stroke="black" paint-order="fill stroke markers" d=" M 133 258 L 141 258" stroke-miterlimit="10"/><path fill="none" stroke="black" paint-order="fill stroke markers" d=" M 133 217 L 141 217" stroke-miterlimit="10"/><path fill="none" stroke="black" paint-order="fill stroke markers" d=" M 133 175 L 141 175" stroke-miterlimit="10"/><path fill="none" stroke="black" paint-order="fill stroke markers" d=" M 133 133 L 141 133" stroke-miterlimit="10"/><path fill="none" stroke="black" paint-order="fill stroke markers" d=" M 133 91 L 141 91" stroke-miterlimit="10"/><path fill="" stroke="black" paint-order="fill stroke markers" d=" M 133 49 L 141 49" stroke-miterlimit="10"/><g transform="translate(128,384) rotate(0,0,0)"><text fill="" stroke="none" font-family="helvetica" font-size="8pt" font-style="normal" font-weight="normal" text-decoration="normal" x="0" y="0" text-anchor="end" dominant-baseline="central">Associate Professor</text><g transform="rotate(0,0,0) translate(-128,-384) translate(128,342) rotate(0,0,0)"><text fill="" stroke="none" font-family="helvetica" font-size="8pt" font-style="normal" font-weight="normal" text-decoration="normal" x="0" y="0" text-anchor="end" dominant-baseline="central">Instructor</text><g transform="rotate(0,0,0) translate(-128,-342) translate(128,300) rotate(0,0,0)"><text fill="" stroke="none" font-family="helvetica" font-size="8pt" font-style="normal" font-weight="normal" text-decoration="normal" x="0" y="0" text-anchor="end" dominant-baseline="central">Professor</text><g transform="rotate(0,0,0) translate(-128,-300) translate(128,258) rotate(0,0,0)"><text fill="" stroke="none" font-family="helvetica" font-size="8pt" font-style="normal" font-weight="normal" text-decoration="normal" x="0" y="0" text-anchor="end" dominant-baseline="central">Program Chair</text><g transform="rotate(0,0,0) translate(-128,-258) translate(128,217) rotate(0,0,0)"><text fill="" stroke="none" font-family="helvetica" font-size="8pt" font-style="normal" font-weight="normal" text-decoration="normal" x="0" y="0" text-anchor="end" dominant-baseline="central">Lecturer</text><g transform="rotate(0,0,0) translate(-128,-217) translate(128,175) rotate(0,0,0)"><text fill="" stroke="none" font-family="helvetica" font-size="8pt" font-style="normal" font-weight="normal" text-decoration="normal" x="0" y="0" text-anchor="end" dominant-baseline="central">Other</text><g transform="rotate(0,0,0) translate(-128,-175) translate(128,133) rotate(0,0,0)"><text fill="" stroke="none" font-family="helvetica" font-size="8pt" font-style="normal" font-weight="normal" text-decoration="normal" x="0" y="0" text-anchor="end" dominant-baseline="central">Adjunct Professor</text><g transform="rotate(0,0,0) translate(-128,-133) translate(128,91) rotate(0,0,0)"><text fill="" stroke="none" font-family="helvetica" font-size="8pt" font-style="normal" font-weight="normal" text-decoration="normal" x="0" y="0" text-anchor="end" dominant-baseline="central">Associate Dean</text><g transform="rotate(0,0,0) translate(-128,-91) translate(128,49) rotate(0,0,0)"><text fill="" stroke="none" font-family="helvetica" font-size="8pt" font-style="normal" font-weight="normal" text-decoration="normal" x="0" y="0" text-anchor="end" dominant-baseline="central">Dean</text><g transform="rotate(0,0,0) translate(-128,-49) translate(16,217) rotate(-90,0,0)"><text fill="" stroke="none" font-family="helvetica" font-size="10pt" font-style="italic" font-weight="normal" text-decoration="normal" x="0" y="0" text-anchor="middle" dominant-baseline="alphabetic">Categories</text><g transform="rotate(90,0,0) translate(-16,-217)"/></g></g></g></g></g></g></g></g></g></g></g><g fill="#444444"><path fill="" stroke="none" d=""/><g transform="translate(139,23)"><path fill="none" stroke="none"/><text fill="" stroke="none" font-family="helvetica" font-size="10pt" font-style="normal" font-weight="bold" text-decoration="normal" x="0" y="0" text-anchor="start" dominant-baseline="text-after-edge">NotAIGA: My role is:</text></g></g></g></g></g></svg>