<svg version="1.1" xmlns="http://www.w3.org/2000/svg" xmlns:xlink="http://www.w3.org/1999/xlink" width="700" height="400" style="width: 700px; height: 400px;"><defs/><g><g transform="scale(1,1) translate(0.5,0.5)"><rect fill="#FFFFFF" stroke="none" x="0" y="0" width="700" height="400"/><rect fill="#ffffff" stroke="none" x="0" y="0" width="700" height="400"/><rect fill="#FFFFFF" stroke="none" x="144" y="28" width="506" height="327"/><rect fill="#ffffff" stroke="none" x="144" y="28" width="506" height="327"/><g><rect fill="none" stroke="#e5e5e5" x="144" y="28" width="506" height="327" stroke-miterlimit="10"/></g><g><g><path fill="none" stroke="#e5e5e5" paint-order="fill stroke markers" d=" M 249 355 L 249 28" stroke-miterlimit="10"/><path fill="none" stroke="#e5e5e5" paint-order="fill stroke markers" d=" M 354 355 L 354 28" stroke-miterlimit="10"/><path fill="none" stroke="#e5e5e5" paint-order="fill stroke markers" d=" M 459 355 L 459 28" stroke-miterlimit="10"/><path fill="none" stroke="#e5e5e5" paint-order="fill stroke markers" d=" M 564 355 L 564 28" stroke-miterlimit="10"/></g><g><path fill="none" stroke="#e5e5e5" paint-order="fill stroke markers" d=" M 144 335 L 650 335" stroke-miterlimit="10"/><path fill="none" stroke="#e5e5e5" paint-order="fill stroke markers" d=" M 144 294 L 650 294" stroke-miterlimit="10"/><path fill="none" stroke="#e5e5e5" paint-order="fill stroke markers" d=" M 144 253 L 650 253" stroke-miterlimit="10"/><path fill="none" stroke="#e5e5e5" paint-order="fill stroke markers" d=" M 144 212 L 650 212" stroke-miterlimit="10"/><path fill="none" stroke="#e5e5e5" paint-order="fill stroke markers" d=" M 144 171 L 650 171" stroke-miterlimit="10"/><path fill="none" stroke="#e5e5e5" paint-order="fill stroke markers" d=" M 144 130 L 650 130" stroke-miterlimit="10"/><path fill="none" stroke="#e5e5e5" paint-order="fill stroke markers" d=" M 144 89 L 650 89" stroke-miterlimit="10"/><path fill="none" stroke="#e5e5e5" paint-order="fill stroke markers" d=" M 144 48 L 650 48" stroke-miterlimit="10"/></g><g><path fill="none" stroke="none"/><rect fill="#1f77b4" stroke="none" x="144" y="319.234375" width="411.1669986719787" height="30.65625"/><path fill="none" stroke="#1f77b4" paint-order="fill stroke markers" d=" M 144 319.234375 L 555.1669986719787 319.234375 L 555.1669986719787 349.890625 L 144 349.890625 L 144 319.234375 Z" stroke-miterlimit="10"/><rect fill="#1f77b4" stroke="none" x="144" y="278.359375" width="372.94820717131483" height="30.65625"/><path fill="none" stroke="#1f77b4" paint-order="fill stroke markers" d=" M 144 278.359375 L 516.9482071713148 278.359375 L 516.9482071713148 309.015625 L 144 309.015625 L 144 278.359375 Z" stroke-miterlimit="10"/><rect fill="#1f77b4" stroke="none" x="144" y="237.484375" width="316.6699867197875" height="30.65625"/><path fill="none" stroke="#1f77b4" paint-order="fill stroke markers" d=" M 144 237.484375 L 460.6699867197875 237.484375 L 460.6699867197875 268.140625 L 144 268.140625 L 144 237.484375 Z" stroke-miterlimit="10"/><rect fill="#1f77b4" stroke="none" x="144" y="196.609375" width="156.23505976095618" height="30.65625"/><path fill="none" stroke="#1f77b4" paint-order="fill stroke markers" d=" M 144 196.609375 L 300.2350597609562 196.609375 L 300.2350597609562 227.265625 L 144 227.265625 L 144 196.609375 Z" stroke-miterlimit="10"/><rect fill="#1f77b4" stroke="none" x="144" y="155.734375" width="151.19521912350598" height="30.65625"/><path fill="none" stroke="#1f77b4" paint-order="fill stroke markers" d=" M 144 155.734375 L 295.195219123506 155.734375 L 295.195219123506 186.390625 L 144 186.390625 L 144 155.734375 Z" stroke-miterlimit="10"/><rect fill="#1f77b4" stroke="none" x="144" y="114.859375" width="111.71646746347943" height="30.65625"/><path fill="none" stroke="#1f77b4" paint-order="fill stroke markers" d=" M 144 114.859375 L 255.71646746347943 114.859375 L 255.71646746347943 145.515625 L 144 145.515625 L 144 114.859375 Z" stroke-miterlimit="10"/><rect fill="#1f77b4" stroke="none" x="144" y="73.984375" width="90.71713147410361" height="30.65625"/><path fill="none" stroke="#1f77b4" paint-order="fill stroke markers" d=" M 144 73.984375 L 234.7171314741036 73.984375 L 234.7171314741036 104.640625 L 144 104.640625 L 144 73.984375 Z" stroke-miterlimit="10"/><rect fill="#1f77b4" stroke="none" x="144" y="33.109375" width="34.22891766268259" height="30.65625"/><path fill="none" stroke="#1f77b4" paint-order="fill stroke markers" d=" M 144 33.109375 L 178.2289176626826 33.109375 L 178.2289176626826 63.765625 L 144 63.765625 L 144 33.109375 Z" stroke-miterlimit="10"/></g><g fill="#444444"><path fill="" stroke="none" d=""/><g transform="translate(565.1669986719787,332.5625) rotate(0,0,0)"><path fill="none" stroke="none"/><text fill="" stroke="none" font-family="helvetica" font-size="8pt" font-style="normal" font-weight="normal" text-decoration="normal" x="0" y="0" text-anchor="start" dominant-baseline="text-after-edge">24.98%</text></g></g><g fill="#444444"><path fill="" stroke="none" d=""/><g transform="translate(526.9482071713148,291.6875) rotate(0,0,0)"><path fill="none" stroke="none"/><text fill="" stroke="none" font-family="helvetica" font-size="8pt" font-style="normal" font-weight="normal" text-decoration="normal" x="0" y="0" text-anchor="start" dominant-baseline="text-after-edge">22.66%</text></g></g><g fill="#444444"><path fill="" stroke="none" d=""/><g transform="translate(470.6699867197875,250.8125) rotate(0,0,0)"><path fill="none" stroke="none"/><text fill="" stroke="none" font-family="helvetica" font-size="8pt" font-style="normal" font-weight="normal" text-decoration="normal" x="0" y="0" text-anchor="start" dominant-baseline="text-after-edge">19.24%</text></g></g><g fill="#444444"><path fill="" stroke="none" d=""/><g transform="translate(310.2350597609562,209.9375) rotate(0,0,0)"><path fill="none" stroke="none"/><text fill="" stroke="none" font-family="helvetica" font-size="8pt" font-style="normal" font-weight="normal" text-decoration="normal" x="0" y="0" text-anchor="start" dominant-baseline="text-after-edge">9.49%</text></g></g><g fill="#444444"><path fill="" stroke="none" d=""/><g transform="translate(305.195219123506,169.0625) rotate(0,0,0)"><path fill="none" stroke="none"/><text fill="" stroke="none" font-family="helvetica" font-size="8pt" font-style="normal" font-weight="normal" text-decoration="normal" x="0" y="0" text-anchor="start" dominant-baseline="text-after-edge">9.18%</text></g></g><g fill="#444444"><path fill="" stroke="none" d=""/><g transform="translate(265.71646746347943,128.1875) rotate(0,0,0)"><path fill="none" stroke="none"/><text fill="" stroke="none" font-family="helvetica" font-size="8pt" font-style="normal" font-weight="normal" text-decoration="normal" x="0" y="0" text-anchor="start" dominant-baseline="text-after-edge">6.79%</text></g></g><g fill="#444444"><path fill="" stroke="none" d=""/><g transform="translate(244.7171314741036,87.3125) rotate(0,0,0)"><path fill="none" stroke="none"/><text fill="" stroke="none" font-family="helvetica" font-size="8pt" font-style="normal" font-weight="normal" text-decoration="normal" x="0" y="0" text-anchor="start" dominant-baseline="text-after-edge">5.51%</text></g></g><g fill="#444444"><path fill="" stroke="none" d=""/><g transform="translate(188.2289176626826,46.4375) rotate(0,0,0)"><path fill="none" stroke="none"/><text fill="" stroke="none" font-family="helvetica" font-size="8pt" font-style="normal" font-weight="normal" text-decoration="normal" x="0" y="0" text-anchor="start" dominant-baseline="text-after-edge">2.08%</text></g></g><g fill="#444444"><path fill="" stroke="none" d=""/><g transform="translate(565.1669986719787,346.5625) rotate(0,0,0)"><path fill="none" stroke="none"/><text fill="" stroke="none" font-family="helvetica" font-size="8pt" font-style="normal" font-weight="normal" text-decoration="normal" x="0" y="0" text-anchor="start" dominant-baseline="text-after-edge">1958</text></g></g><g fill="#444444"><path fill="" stroke="none" d=""/><g transform="translate(526.9482071713148,305.6875) rotate(0,0,0)"><path fill="none" stroke="none"/><text fill="" stroke="none" font-family="helvetica" font-size="8pt" font-style="normal" font-weight="normal" text-decoration="normal" x="0" y="0" text-anchor="start" dominant-baseline="text-after-edge">1776</text></g></g><g fill="#444444"><path fill="" stroke="none" d=""/><g transform="translate(470.6699867197875,264.8125) rotate(0,0,0)"><path fill="none" stroke="none"/><text fill="" stroke="none" font-family="helvetica" font-size="8pt" font-style="normal" font-weight="normal" text-decoration="normal" x="0" y="0" text-anchor="start" dominant-baseline="text-after-edge">1508</text></g></g><g fill="#444444"><path fill="" stroke="none" d=""/><g transform="translate(310.2350597609562,223.9375) rotate(0,0,0)"><path fill="none" stroke="none"/><text fill="" stroke="none" font-family="helvetica" font-size="8pt" font-style="normal" font-weight="normal" text-decoration="normal" x="0" y="0" text-anchor="start" dominant-baseline="text-after-edge">744</text></g></g><g fill="#444444"><path fill="" stroke="none" d=""/><g transform="translate(305.195219123506,183.0625) rotate(0,0,0)"><path fill="none" stroke="none"/><text fill="" stroke="none" font-family="helvetica" font-size="8pt" font-style="normal" font-weight="normal" text-decoration="normal" x="0" y="0" text-anchor="start" dominant-baseline="text-after-edge">720</text></g></g><g fill="#444444"><path fill="" stroke="none" d=""/><g transform="translate(265.71646746347943,142.1875) rotate(0,0,0)"><path fill="none" stroke="none"/><text fill="" stroke="none" font-family="helvetica" font-size="8pt" font-style="normal" font-weight="normal" text-decoration="normal" x="0" y="0" text-anchor="start" dominant-baseline="text-after-edge">532</text></g></g><g fill="#444444"><path fill="" stroke="none" d=""/><g transform="translate(244.7171314741036,101.3125) rotate(0,0,0)"><path fill="none" stroke="none"/><text fill="" stroke="none" font-family="helvetica" font-size="8pt" font-style="normal" font-weight="normal" text-decoration="normal" x="0" y="0" text-anchor="start" dominant-baseline="text-after-edge">432</text></g></g><g fill="#444444"><path fill="" stroke="none" d=""/><g transform="translate(188.2289176626826,60.4375) rotate(0,0,0)"><path fill="none" stroke="none"/><text fill="" stroke="none" font-family="helvetica" font-size="8pt" font-style="normal" font-weight="normal" text-decoration="normal" x="0" y="0" text-anchor="start" dominant-baseline="text-after-edge">163</text></g></g></g><g/><g><g fill="#444444"><path fill="none" stroke="black" paint-order="fill stroke markers" d=" M 144 355 L 650 355" stroke-miterlimit="10"/><path fill="none" stroke="black" paint-order="fill stroke markers" d=" M 144 361 L 144 353" stroke-miterlimit="10"/><path fill="none" stroke="black" paint-order="fill stroke markers" d=" M 249 361 L 249 353" stroke-miterlimit="10"/><path fill="none" stroke="black" paint-order="fill stroke markers" d=" M 354 361 L 354 353" stroke-miterlimit="10"/><path fill="none" stroke="black" paint-order="fill stroke markers" d=" M 459 361 L 459 353" stroke-miterlimit="10"/><path fill="none" stroke="black" paint-order="fill stroke markers" d=" M 564 361 L 564 353" stroke-miterlimit="10"/><path fill="none" stroke="black" paint-order="fill stroke markers" d=" M 144 359 L 144 355" stroke-miterlimit="10"/><path fill="none" stroke="black" paint-order="fill stroke markers" d=" M 165 359 L 165 355" stroke-miterlimit="10"/><path fill="none" stroke="black" paint-order="fill stroke markers" d=" M 186 359 L 186 355" stroke-miterlimit="10"/><path fill="none" stroke="black" paint-order="fill stroke markers" d=" M 207 359 L 207 355" stroke-miterlimit="10"/><path fill="none" stroke="black" paint-order="fill stroke markers" d=" M 228 359 L 228 355" stroke-miterlimit="10"/><path fill="none" stroke="black" paint-order="fill stroke markers" d=" M 249 359 L 249 355" stroke-miterlimit="10"/><path fill="none" stroke="black" paint-order="fill stroke markers" d=" M 270 359 L 270 355" stroke-miterlimit="10"/><path fill="none" stroke="black" paint-order="fill stroke markers" d=" M 291 359 L 291 355" stroke-miterlimit="10"/><path fill="none" stroke="black" paint-order="fill stroke markers" d=" M 312 359 L 312 355" stroke-miterlimit="10"/><path fill="none" stroke="black" paint-order="fill stroke markers" d=" M 333 359 L 333 355" stroke-miterlimit="10"/><path fill="none" stroke="black" paint-order="fill stroke markers" d=" M 354 359 L 354 355" stroke-miterlimit="10"/><path fill="none" stroke="black" paint-order="fill stroke markers" d=" M 375 359 L 375 355" stroke-miterlimit="10"/><path fill="none" stroke="black" paint-order="fill stroke markers" d=" M 396 359 L 396 355" stroke-miterlimit="10"/><path fill="none" stroke="black" paint-order="fill stroke markers" d=" M 417 359 L 417 355" stroke-miterlimit="10"/><path fill="none" stroke="black" paint-order="fill stroke markers" d=" M 438 359 L 438 355" stroke-miterlimit="10"/><path fill="none" stroke="black" paint-order="fill stroke markers" d=" M 459 359 L 459 355" stroke-miterlimit="10"/><path fill="none" stroke="black" paint-order="fill stroke markers" d=" M 480 359 L 480 355" stroke-miterlimit="10"/><path fill="none" stroke="black" paint-order="fill stroke markers" d=" M 501 359 L 501 355" stroke-miterlimit="10"/><path fill="none" stroke="black" paint-order="fill stroke markers" d=" M 522 359 L 522 355" stroke-miterlimit="10"/><path fill="none" stroke="black" paint-order="fill stroke markers" d=" M 543 359 L 543 355" stroke-miterlimit="10"/><path fill="none" stroke="black" paint-order="fill stroke markers" d=" M 564 359 L 564 355" stroke-miterlimit="10"/><path fill="none" stroke="black" paint-order="fill stroke markers" d=" M 585 359 L 585 355" stroke-miterlimit="10"/><path fill="none" stroke="black" paint-order="fill stroke markers" d=" M 606 359 L 606 355" stroke-miterlimit="10"/><path fill="none" stroke="black" paint-order="fill stroke markers" d=" M 627 359 L 627 355" stroke-miterlimit="10"/><path fill="" stroke="black" paint-order="fill stroke markers" d=" M 648 359 L 648 355" stroke-miterlimit="10"/><g transform="translate(144,366) rotate(0,0,0)"><text fill="" stroke="none" font-family="helvetica" font-size="8pt" font-style="normal" font-weight="normal" text-decoration="normal" x="0" y="0" text-anchor="middle" dominant-baseline="hanging">0</text><g transform="rotate(0,0,0) translate(-144,-366) translate(249,366) rotate(0,0,0)"><text fill="" stroke="none" font-family="helvetica" font-size="8pt" font-style="normal" font-weight="normal" text-decoration="normal" x="0" y="0" text-anchor="middle" dominant-baseline="hanging">500</text><g transform="rotate(0,0,0) translate(-249,-366) translate(354,366) rotate(0,0,0)"><text fill="" stroke="none" font-family="helvetica" font-size="8pt" font-style="normal" font-weight="normal" text-decoration="normal" x="0" y="0" text-anchor="middle" dominant-baseline="hanging">1000</text><g transform="rotate(0,0,0) translate(-354,-366) translate(459,366) rotate(0,0,0)"><text fill="" stroke="none" font-family="helvetica" font-size="8pt" font-style="normal" font-weight="normal" text-decoration="normal" x="0" y="0" text-anchor="middle" dominant-baseline="hanging">1500</text><g transform="rotate(0,0,0) translate(-459,-366) translate(564,366) rotate(0,0,0)"><text fill="" stroke="none" font-family="helvetica" font-size="8pt" font-style="normal" font-weight="normal" text-decoration="normal" x="0" y="0" text-anchor="middle" dominant-baseline="hanging">2000</text><g transform="rotate(0,0,0) translate(-564,-366) translate(397,384) rotate(0,0,0)"><text fill="" stroke="none" font-family="helvetica" font-size="10pt" font-style="italic" font-weight="normal" text-decoration="normal" x="0" y="0" text-anchor="middle" dominant-baseline="hanging">Respondents</text><g transform="rotate(0,0,0) translate(-397,-384)"/></g></g></g></g></g></g></g><g fill="#444444"><path fill="none" stroke="black" paint-order="fill stroke markers" d=" M 144 355 L 144 28" stroke-miterlimit="10"/><path fill="none" stroke="black" paint-order="fill stroke markers" d=" M 138 335 L 146 335" stroke-miterlimit="10"/><path fill="none" stroke="black" paint-order="fill stroke markers" d=" M 138 294 L 146 294" stroke-miterlimit="10"/><path fill="none" stroke="black" paint-order="fill stroke markers" d=" M 138 253 L 146 253" stroke-miterlimit="10"/><path fill="none" stroke="black" paint-order="fill stroke markers" d=" M 138 212 L 146 212" stroke-miterlimit="10"/><path fill="none" stroke="black" paint-order="fill stroke markers" d=" M 138 171 L 146 171" stroke-miterlimit="10"/><path fill="none" stroke="black" paint-order="fill stroke markers" d=" M 138 130 L 146 130" stroke-miterlimit="10"/><path fill="none" stroke="black" paint-order="fill stroke markers" d=" M 138 89 L 146 89" stroke-miterlimit="10"/><path fill="" stroke="black" paint-order="fill stroke markers" d=" M 138 48 L 146 48" stroke-miterlimit="10"/><g transform="translate(133,335) rotate(0,0,0)"><text fill="" stroke="none" font-family="helvetica" font-size="8pt" font-style="normal" font-weight="normal" text-decoration="normal" x="0" y="0" text-anchor="end" dominant-baseline="central">1-10 employees</text><g transform="rotate(0,0,0) translate(-133,-335) translate(133,294) rotate(0,0,0)"><text fill="" stroke="none" font-family="helvetica" font-size="8pt" font-style="normal" font-weight="normal" text-decoration="normal" x="0" y="0" text-anchor="end" dominant-baseline="central">1000+ employees</text><g transform="rotate(0,0,0) translate(-133,-294) translate(133,253) rotate(0,0,0)"><text fill="" stroke="none" font-family="helvetica" font-size="8pt" font-style="normal" font-weight="normal" text-decoration="normal" x="0" y="0" text-anchor="end" dominant-baseline="central">11-50 employees</text><g transform="rotate(0,0,0) translate(-133,-253) translate(133,212) rotate(0,0,0)"><text fill="" stroke="none" font-family="helvetica" font-size="8pt" font-style="normal" font-weight="normal" text-decoration="normal" x="0" y="0" text-anchor="end" dominant-baseline="central">51-100 employees</text><g transform="rotate(0,0,0) translate(-133,-212) translate(133,171) rotate(0,0,0)"><text fill="" stroke="none" font-family="helvetica" font-size="8pt" font-style="normal" font-weight="normal" text-decoration="normal" x="0" y="0" text-anchor="end" dominant-baseline="central">101-250 employees</text><g transform="rotate(0,0,0) translate(-133,-171) translate(133,130) rotate(0,0,0)"><text fill="" stroke="none" font-family="helvetica" font-size="8pt" font-style="normal" font-weight="normal" text-decoration="normal" x="0" y="0" text-anchor="end" dominant-baseline="central">251-500 employees</text><g transform="rotate(0,0,0) translate(-133,-130) translate(133,89) rotate(0,0,0)"><text fill="" stroke="none" font-family="helvetica" font-size="8pt" font-style="normal" font-weight="normal" text-decoration="normal" x="0" y="0" text-anchor="end" dominant-baseline="central">501-1000 employees</text><g transform="rotate(0,0,0) translate(-133,-89) translate(133,48) rotate(0,0,0)"><text fill="" stroke="none" font-family="helvetica" font-size="8pt" font-style="normal" font-weight="normal" text-decoration="normal" x="0" y="0" text-anchor="end" dominant-baseline="central">Not sure</text><g transform="rotate(0,0,0) translate(-133,-48) translate(15,192) rotate(-90,0,0)"><text fill="" stroke="none" font-family="helvetica" font-size="10pt" font-style="italic" font-weight="normal" text-decoration="normal" x="0" y="0" text-anchor="middle" dominant-baseline="alphabetic">Categories</text><g transform="rotate(90,0,0) translate(-15,-192)"/></g></g></g></g></g></g></g></g></g></g><g fill="#444444"><path fill="" stroke="none" d=""/><g transform="translate(144,23)"><path fill="none" stroke="none"/><text fill="" stroke="none" font-family="helvetica" font-size="10pt" font-style="normal" font-weight="bold" text-decoration="normal" x="0" y="0" text-anchor="start" dominant-baseline="text-after-edge">NotAIGA: My organization has:</text></g></g></g></g></g></svg>