<svg version="1.1" xmlns="http://www.w3.org/2000/svg" xmlns:xlink="http://www.w3.org/1999/xlink" width="700" height="800" style="width: 700px; height: 800px;"><defs/><g><g transform="scale(1,1) translate(0.5,0.5)"><rect fill="#FFFFFF" stroke="none" x="0" y="0" width="700" height="800"/><rect fill="#ffffff" stroke="none" x="0" y="0" width="700" height="800"/><rect fill="#FFFFFF" stroke="none" x="197" y="28" width="453" height="727"/><rect fill="#ffffff" stroke="none" x="197" y="28" width="453" height="727"/><g><rect fill="none" stroke="#e5e5e5" x="197" y="28" width="453" height="727" stroke-miterlimit="10"/></g><g><g><path fill="none" stroke="#e5e5e5" paint-order="fill stroke markers" d=" M 267 755 L 267 28" stroke-miterlimit="10"/><path fill="none" stroke="#e5e5e5" paint-order="fill stroke markers" d=" M 337 755 L 337 28" stroke-miterlimit="10"/><path fill="none" stroke="#e5e5e5" paint-order="fill stroke markers" d=" M 406 755 L 406 28" stroke-miterlimit="10"/><path fill="none" stroke="#e5e5e5" paint-order="fill stroke markers" d=" M 476 755 L 476 28" stroke-miterlimit="10"/><path fill="none" stroke="#e5e5e5" paint-order="fill stroke markers" d=" M 546 755 L 546 28" stroke-miterlimit="10"/><path fill="none" stroke="#e5e5e5" paint-order="fill stroke markers" d=" M 616 755 L 616 28" stroke-miterlimit="10"/></g><g><path fill="none" stroke="#e5e5e5" paint-order="fill stroke markers" d=" M 197 732 L 650 732" stroke-miterlimit="10"/><path fill="none" stroke="#e5e5e5" paint-order="fill stroke markers" d=" M 197 687 L 650 687" stroke-miterlimit="10"/><path fill="none" stroke="#e5e5e5" paint-order="fill stroke markers" d=" M 197 641 L 650 641" stroke-miterlimit="10"/><path fill="none" stroke="#e5e5e5" paint-order="fill stroke markers" d=" M 197 596 L 650 596" stroke-miterlimit="10"/><path fill="none" stroke="#e5e5e5" paint-order="fill stroke markers" d=" M 197 551 L 650 551" stroke-miterlimit="10"/><path fill="none" stroke="#e5e5e5" paint-order="fill stroke markers" d=" M 197 505 L 650 505" stroke-miterlimit="10"/><path fill="none" stroke="#e5e5e5" paint-order="fill stroke markers" d=" M 197 460 L 650 460" stroke-miterlimit="10"/><path fill="none" stroke="#e5e5e5" paint-order="fill stroke markers" d=" M 197 414 L 650 414" stroke-miterlimit="10"/><path fill="none" stroke="#e5e5e5" paint-order="fill stroke markers" d=" M 197 369 L 650 369" stroke-miterlimit="10"/><path fill="none" stroke="#e5e5e5" paint-order="fill stroke markers" d=" M 197 323 L 650 323" stroke-miterlimit="10"/><path fill="none" stroke="#e5e5e5" paint-order="fill stroke markers" d=" M 197 278 L 650 278" stroke-miterlimit="10"/><path fill="none" stroke="#e5e5e5" paint-order="fill stroke markers" d=" M 197 232 L 650 232" stroke-miterlimit="10"/><path fill="none" stroke="#e5e5e5" paint-order="fill stroke markers" d=" M 197 187 L 650 187" stroke-miterlimit="10"/><path fill="none" stroke="#e5e5e5" paint-order="fill stroke markers" d=" M 197 142 L 650 142" stroke-miterlimit="10"/><path fill="none" stroke="#e5e5e5" paint-order="fill stroke markers" d=" M 197 96 L 650 96" stroke-miterlimit="10"/><path fill="none" stroke="#e5e5e5" paint-order="fill stroke markers" d=" M 197 51 L 650 51" stroke-miterlimit="10"/></g><g><path fill="none" stroke="none"/><rect fill="#1f77b4" stroke="none" x="197" y="715.2421875" width="374.01044555370686" height="34.078125"/><path fill="none" stroke="#1f77b4" paint-order="fill stroke markers" d=" M 197 715.2421875 L 571.0104455537069 715.2421875 L 571.0104455537069 749.3203125 L 197 749.3203125 L 197 715.2421875 Z" stroke-miterlimit="10"/><rect fill="#1f77b4" stroke="none" x="197" y="669.8046875" width="362.07616934738394" height="34.078125"/><path fill="none" stroke="#1f77b4" paint-order="fill stroke markers" d=" M 197 669.8046875 L 559.0761693473839 669.8046875 L 559.0761693473839 703.8828125 L 197 703.8828125 L 197 669.8046875 Z" stroke-miterlimit="10"/><rect fill="#1f77b4" stroke="none" x="197" y="624.3671875" width="301.6370863375855" height="34.078125"/><path fill="none" stroke="#1f77b4" paint-order="fill stroke markers" d=" M 197 624.3671875 L 498.6370863375855 624.3671875 L 498.6370863375855 658.4453125 L 197 658.4453125 L 197 624.3671875 Z" stroke-miterlimit="10"/><rect fill="#1f77b4" stroke="none" x="197" y="578.9296875" width="235.47513403586618" height="34.078125"/><path fill="none" stroke="#1f77b4" paint-order="fill stroke markers" d=" M 197 578.9296875 L 432.4751340358662 578.9296875 L 432.4751340358662 613.0078125 L 197 613.0078125 L 197 578.9296875 Z" stroke-miterlimit="10"/><rect fill="#1f77b4" stroke="none" x="197" y="533.4921875" width="229.26372712146423" height="34.078125"/><path fill="none" stroke="#1f77b4" paint-order="fill stroke markers" d=" M 197 533.4921875 L 426.2637271214642 533.4921875 L 426.2637271214642 567.5703125 L 197 567.5703125 L 197 533.4921875 Z" stroke-miterlimit="10"/><rect fill="#1f77b4" stroke="none" x="197" y="488.0546875" width="229.19393603253837" height="34.078125"/><path fill="none" stroke="#1f77b4" paint-order="fill stroke markers" d=" M 197 488.0546875 L 426.1939360325384 488.0546875 L 426.1939360325384 522.1328125 L 197 522.1328125 L 197 488.0546875 Z" stroke-miterlimit="10"/><rect fill="#1f77b4" stroke="none" x="197" y="442.6171875" width="206.86078757626183" height="34.078125"/><path fill="none" stroke="#1f77b4" paint-order="fill stroke markers" d=" M 197 442.6171875 L 403.8607875762618 442.6171875 L 403.8607875762618 476.6953125 L 197 476.6953125 L 197 442.6171875 Z" stroke-miterlimit="10"/><rect fill="#1f77b4" stroke="none" x="197" y="397.1796875" width="179.22351636161955" height="34.078125"/><path fill="none" stroke="#1f77b4" paint-order="fill stroke markers" d=" M 197 397.1796875 L 376.22351636161955 397.1796875 L 376.22351636161955 431.2578125 L 197 431.2578125 L 197 397.1796875 Z" stroke-miterlimit="10"/><rect fill="#1f77b4" stroke="none" x="197" y="351.7421875" width="150.53937881308934" height="34.078125"/><path fill="none" stroke="#1f77b4" paint-order="fill stroke markers" d=" M 197 351.7421875 L 347.53937881308934 351.7421875 L 347.53937881308934 385.8203125 L 197 385.8203125 L 197 351.7421875 Z" stroke-miterlimit="10"/><rect fill="#1f77b4" stroke="none" x="197" y="306.3046875" width="150.05084119060825" height="34.078125"/><path fill="none" stroke="#1f77b4" paint-order="fill stroke markers" d=" M 197 306.3046875 L 347.05084119060825 306.3046875 L 347.05084119060825 340.3828125 L 197 340.3828125 L 197 306.3046875 Z" stroke-miterlimit="10"/><rect fill="#1f77b4" stroke="none" x="197" y="260.8671875" width="133.51035311517842" height="34.078125"/><path fill="none" stroke="#1f77b4" paint-order="fill stroke markers" d=" M 197 260.8671875 L 330.5103531151784 260.8671875 L 330.5103531151784 294.9453125 L 197 294.9453125 L 197 260.8671875 Z" stroke-miterlimit="10"/><rect fill="#1f77b4" stroke="none" x="197" y="215.4296875" width="131.0676650027732" height="34.078125"/><path fill="none" stroke="#1f77b4" paint-order="fill stroke markers" d=" M 197 215.4296875 L 328.0676650027732 215.4296875 L 328.0676650027732 249.5078125 L 197 249.5078125 L 197 215.4296875 Z" stroke-miterlimit="10"/><rect fill="#1f77b4" stroke="none" x="197" y="169.9921875" width="123.94897393233498" height="34.078125"/><path fill="none" stroke="#1f77b4" paint-order="fill stroke markers" d=" M 197 169.9921875 L 320.948973932335 169.9921875 L 320.948973932335 204.0703125 L 197 204.0703125 L 197 169.9921875 Z" stroke-miterlimit="10"/><rect fill="#1f77b4" stroke="none" x="197" y="124.5546875" width="103.8491403216861" height="34.078125"/><path fill="none" stroke="#1f77b4" paint-order="fill stroke markers" d=" M 197 124.5546875 L 300.8491403216861 124.5546875 L 300.8491403216861 158.6328125 L 197 158.6328125 L 197 124.5546875 Z" stroke-miterlimit="10"/><rect fill="#1f77b4" stroke="none" x="197" y="79.1171875" width="73.14106119430579" height="34.078125"/><path fill="none" stroke="#1f77b4" paint-order="fill stroke markers" d=" M 197 79.1171875 L 270.1410611943058 79.1171875 L 270.1410611943058 113.1953125 L 197 113.1953125 L 197 79.1171875 Z" stroke-miterlimit="10"/><rect fill="#1f77b4" stroke="none" x="197" y="33.6796875" width="35.453873174339066" height="34.078125"/><path fill="none" stroke="#1f77b4" paint-order="fill stroke markers" d=" M 197 33.6796875 L 232.45387317433907 33.6796875 L 232.45387317433907 67.7578125 L 197 67.7578125 L 197 33.6796875 Z" stroke-miterlimit="10"/></g><g fill="#444444"><path fill="" stroke="none" d=""/><g transform="translate(581.0104455537069,730.28125) rotate(0,0,0)"><path fill="none" stroke="none"/><text fill="" stroke="none" font-family="helvetica" font-size="8pt" font-style="normal" font-weight="normal" text-decoration="normal" x="0" y="0" text-anchor="start" dominant-baseline="text-after-edge">68.36%</text></g></g><g fill="#444444"><path fill="" stroke="none" d=""/><g transform="translate(569.0761693473839,684.84375) rotate(0,0,0)"><path fill="none" stroke="none"/><text fill="" stroke="none" font-family="helvetica" font-size="8pt" font-style="normal" font-weight="normal" text-decoration="normal" x="0" y="0" text-anchor="start" dominant-baseline="text-after-edge">66.18%</text></g></g><g fill="#444444"><path fill="" stroke="none" d=""/><g transform="translate(508.6370863375855,639.40625) rotate(0,0,0)"><path fill="none" stroke="none"/><text fill="" stroke="none" font-family="helvetica" font-size="8pt" font-style="normal" font-weight="normal" text-decoration="normal" x="0" y="0" text-anchor="start" dominant-baseline="text-after-edge">55.13%</text></g></g><g fill="#444444"><path fill="" stroke="none" d=""/><g transform="translate(442.4751340358662,593.96875) rotate(0,0,0)"><path fill="none" stroke="none"/><text fill="" stroke="none" font-family="helvetica" font-size="8pt" font-style="normal" font-weight="normal" text-decoration="normal" x="0" y="0" text-anchor="start" dominant-baseline="text-after-edge">43.04%</text></g></g><g fill="#444444"><path fill="" stroke="none" d=""/><g transform="translate(436.2637271214642,548.53125) rotate(0,0,0)"><path fill="none" stroke="none"/><text fill="" stroke="none" font-family="helvetica" font-size="8pt" font-style="normal" font-weight="normal" text-decoration="normal" x="0" y="0" text-anchor="start" dominant-baseline="text-after-edge">41.91%</text></g></g><g fill="#444444"><path fill="" stroke="none" d=""/><g transform="translate(436.1939360325384,503.09375) rotate(0,0,0)"><path fill="none" stroke="none"/><text fill="" stroke="none" font-family="helvetica" font-size="8pt" font-style="normal" font-weight="normal" text-decoration="normal" x="0" y="0" text-anchor="start" dominant-baseline="text-after-edge">41.89%</text></g></g><g fill="#444444"><path fill="" stroke="none" d=""/><g transform="translate(413.8607875762618,457.65625) rotate(0,0,0)"><path fill="none" stroke="none"/><text fill="" stroke="none" font-family="helvetica" font-size="8pt" font-style="normal" font-weight="normal" text-decoration="normal" x="0" y="0" text-anchor="start" dominant-baseline="text-after-edge">37.81%</text></g></g><g fill="#444444"><path fill="" stroke="none" d=""/><g transform="translate(386.22351636161955,412.21875) rotate(0,0,0)"><path fill="none" stroke="none"/><text fill="" stroke="none" font-family="helvetica" font-size="8pt" font-style="normal" font-weight="normal" text-decoration="normal" x="0" y="0" text-anchor="start" dominant-baseline="text-after-edge">32.76%</text></g></g><g fill="#444444"><path fill="" stroke="none" d=""/><g transform="translate(357.53937881308934,366.78125) rotate(0,0,0)"><path fill="none" stroke="none"/><text fill="" stroke="none" font-family="helvetica" font-size="8pt" font-style="normal" font-weight="normal" text-decoration="normal" x="0" y="0" text-anchor="start" dominant-baseline="text-after-edge">27.52%</text></g></g><g fill="#444444"><path fill="" stroke="none" d=""/><g transform="translate(357.05084119060825,321.34375) rotate(0,0,0)"><path fill="none" stroke="none"/><text fill="" stroke="none" font-family="helvetica" font-size="8pt" font-style="normal" font-weight="normal" text-decoration="normal" x="0" y="0" text-anchor="start" dominant-baseline="text-after-edge">27.43%</text></g></g><g fill="#444444"><path fill="" stroke="none" d=""/><g transform="translate(340.5103531151784,275.90625) rotate(0,0,0)"><path fill="none" stroke="none"/><text fill="" stroke="none" font-family="helvetica" font-size="8pt" font-style="normal" font-weight="normal" text-decoration="normal" x="0" y="0" text-anchor="start" dominant-baseline="text-after-edge">24.40%</text></g></g><g fill="#444444"><path fill="" stroke="none" d=""/><g transform="translate(338.0676650027732,230.46875) rotate(0,0,0)"><path fill="none" stroke="none"/><text fill="" stroke="none" font-family="helvetica" font-size="8pt" font-style="normal" font-weight="normal" text-decoration="normal" x="0" y="0" text-anchor="start" dominant-baseline="text-after-edge">23.96%</text></g></g><g fill="#444444"><path fill="" stroke="none" d=""/><g transform="translate(330.948973932335,185.03125) rotate(0,0,0)"><path fill="none" stroke="none"/><text fill="" stroke="none" font-family="helvetica" font-size="8pt" font-style="normal" font-weight="normal" text-decoration="normal" x="0" y="0" text-anchor="start" dominant-baseline="text-after-edge">22.66%</text></g></g><g fill="#444444"><path fill="" stroke="none" d=""/><g transform="translate(310.8491403216861,139.59375) rotate(0,0,0)"><path fill="none" stroke="none"/><text fill="" stroke="none" font-family="helvetica" font-size="8pt" font-style="normal" font-weight="normal" text-decoration="normal" x="0" y="0" text-anchor="start" dominant-baseline="text-after-edge">18.98%</text></g></g><g fill="#444444"><path fill="" stroke="none" d=""/><g transform="translate(280.1410611943058,94.15625) rotate(0,0,0)"><path fill="none" stroke="none"/><text fill="" stroke="none" font-family="helvetica" font-size="8pt" font-style="normal" font-weight="normal" text-decoration="normal" x="0" y="0" text-anchor="start" dominant-baseline="text-after-edge">13.37%</text></g></g><g fill="#444444"><path fill="" stroke="none" d=""/><g transform="translate(242.45387317433907,48.71875) rotate(0,0,0)"><path fill="none" stroke="none"/><text fill="" stroke="none" font-family="helvetica" font-size="8pt" font-style="normal" font-weight="normal" text-decoration="normal" x="0" y="0" text-anchor="start" dominant-baseline="text-after-edge">6.48%</text></g></g><g fill="#444444"><path fill="" stroke="none" d=""/><g transform="translate(581.0104455537069,744.28125) rotate(0,0,0)"><path fill="none" stroke="none"/><text fill="" stroke="none" font-family="helvetica" font-size="8pt" font-style="normal" font-weight="normal" text-decoration="normal" x="0" y="0" text-anchor="start" dominant-baseline="text-after-edge">5359</text></g></g><g fill="#444444"><path fill="" stroke="none" d=""/><g transform="translate(569.0761693473839,698.84375) rotate(0,0,0)"><path fill="none" stroke="none"/><text fill="" stroke="none" font-family="helvetica" font-size="8pt" font-style="normal" font-weight="normal" text-decoration="normal" x="0" y="0" text-anchor="start" dominant-baseline="text-after-edge">5188</text></g></g><g fill="#444444"><path fill="" stroke="none" d=""/><g transform="translate(508.6370863375855,653.40625) rotate(0,0,0)"><path fill="none" stroke="none"/><text fill="" stroke="none" font-family="helvetica" font-size="8pt" font-style="normal" font-weight="normal" text-decoration="normal" x="0" y="0" text-anchor="start" dominant-baseline="text-after-edge">4322</text></g></g><g fill="#444444"><path fill="" stroke="none" d=""/><g transform="translate(442.4751340358662,607.96875) rotate(0,0,0)"><path fill="none" stroke="none"/><text fill="" stroke="none" font-family="helvetica" font-size="8pt" font-style="normal" font-weight="normal" text-decoration="normal" x="0" y="0" text-anchor="start" dominant-baseline="text-after-edge">3374</text></g></g><g fill="#444444"><path fill="" stroke="none" d=""/><g transform="translate(436.2637271214642,562.53125) rotate(0,0,0)"><path fill="none" stroke="none"/><text fill="" stroke="none" font-family="helvetica" font-size="8pt" font-style="normal" font-weight="normal" text-decoration="normal" x="0" y="0" text-anchor="start" dominant-baseline="text-after-edge">3285</text></g></g><g fill="#444444"><path fill="" stroke="none" d=""/><g transform="translate(436.1939360325384,517.09375) rotate(0,0,0)"><path fill="none" stroke="none"/><text fill="" stroke="none" font-family="helvetica" font-size="8pt" font-style="normal" font-weight="normal" text-decoration="normal" x="0" y="0" text-anchor="start" dominant-baseline="text-after-edge">3284</text></g></g><g fill="#444444"><path fill="" stroke="none" d=""/><g transform="translate(413.8607875762618,471.65625) rotate(0,0,0)"><path fill="none" stroke="none"/><text fill="" stroke="none" font-family="helvetica" font-size="8pt" font-style="normal" font-weight="normal" text-decoration="normal" x="0" y="0" text-anchor="start" dominant-baseline="text-after-edge">2964</text></g></g><g fill="#444444"><path fill="" stroke="none" d=""/><g transform="translate(386.22351636161955,426.21875) rotate(0,0,0)"><path fill="none" stroke="none"/><text fill="" stroke="none" font-family="helvetica" font-size="8pt" font-style="normal" font-weight="normal" text-decoration="normal" x="0" y="0" text-anchor="start" dominant-baseline="text-after-edge">2568</text></g></g><g fill="#444444"><path fill="" stroke="none" d=""/><g transform="translate(357.53937881308934,380.78125) rotate(0,0,0)"><path fill="none" stroke="none"/><text fill="" stroke="none" font-family="helvetica" font-size="8pt" font-style="normal" font-weight="normal" text-decoration="normal" x="0" y="0" text-anchor="start" dominant-baseline="text-after-edge">2157</text></g></g><g fill="#444444"><path fill="" stroke="none" d=""/><g transform="translate(357.05084119060825,335.34375) rotate(0,0,0)"><path fill="none" stroke="none"/><text fill="" stroke="none" font-family="helvetica" font-size="8pt" font-style="normal" font-weight="normal" text-decoration="normal" x="0" y="0" text-anchor="start" dominant-baseline="text-after-edge">2150</text></g></g><g fill="#444444"><path fill="" stroke="none" d=""/><g transform="translate(340.5103531151784,289.90625) rotate(0,0,0)"><path fill="none" stroke="none"/><text fill="" stroke="none" font-family="helvetica" font-size="8pt" font-style="normal" font-weight="normal" text-decoration="normal" x="0" y="0" text-anchor="start" dominant-baseline="text-after-edge">1913</text></g></g><g fill="#444444"><path fill="" stroke="none" d=""/><g transform="translate(338.0676650027732,244.46875) rotate(0,0,0)"><path fill="none" stroke="none"/><text fill="" stroke="none" font-family="helvetica" font-size="8pt" font-style="normal" font-weight="normal" text-decoration="normal" x="0" y="0" text-anchor="start" dominant-baseline="text-after-edge">1878</text></g></g><g fill="#444444"><path fill="" stroke="none" d=""/><g transform="translate(330.948973932335,199.03125) rotate(0,0,0)"><path fill="none" stroke="none"/><text fill="" stroke="none" font-family="helvetica" font-size="8pt" font-style="normal" font-weight="normal" text-decoration="normal" x="0" y="0" text-anchor="start" dominant-baseline="text-after-edge">1776</text></g></g><g fill="#444444"><path fill="" stroke="none" d=""/><g transform="translate(310.8491403216861,153.59375) rotate(0,0,0)"><path fill="none" stroke="none"/><text fill="" stroke="none" font-family="helvetica" font-size="8pt" font-style="normal" font-weight="normal" text-decoration="normal" x="0" y="0" text-anchor="start" dominant-baseline="text-after-edge">1488</text></g></g><g fill="#444444"><path fill="" stroke="none" d=""/><g transform="translate(280.1410611943058,108.15625) rotate(0,0,0)"><path fill="none" stroke="none"/><text fill="" stroke="none" font-family="helvetica" font-size="8pt" font-style="normal" font-weight="normal" text-decoration="normal" x="0" y="0" text-anchor="start" dominant-baseline="text-after-edge">1048</text></g></g><g fill="#444444"><path fill="" stroke="none" d=""/><g transform="translate(242.45387317433907,62.71875) rotate(0,0,0)"><path fill="none" stroke="none"/><text fill="" stroke="none" font-family="helvetica" font-size="8pt" font-style="normal" font-weight="normal" text-decoration="normal" x="0" y="0" text-anchor="start" dominant-baseline="text-after-edge">508</text></g></g></g><g/><g><g fill="#444444"><path fill="none" stroke="black" paint-order="fill stroke markers" d=" M 197 755 L 650 755" stroke-miterlimit="10"/><path fill="none" stroke="black" paint-order="fill stroke markers" d=" M 197 761 L 197 753" stroke-miterlimit="10"/><path fill="none" stroke="black" paint-order="fill stroke markers" d=" M 267 761 L 267 753" stroke-miterlimit="10"/><path fill="none" stroke="black" paint-order="fill stroke markers" d=" M 337 761 L 337 753" stroke-miterlimit="10"/><path fill="none" stroke="black" paint-order="fill stroke markers" d=" M 406 761 L 406 753" stroke-miterlimit="10"/><path fill="none" stroke="black" paint-order="fill stroke markers" d=" M 476 761 L 476 753" stroke-miterlimit="10"/><path fill="none" stroke="black" paint-order="fill stroke markers" d=" M 546 761 L 546 753" stroke-miterlimit="10"/><path fill="none" stroke="black" paint-order="fill stroke markers" d=" M 616 761 L 616 753" stroke-miterlimit="10"/><path fill="none" stroke="black" paint-order="fill stroke markers" d=" M 197 759 L 197 755" stroke-miterlimit="10"/><path fill="none" stroke="black" paint-order="fill stroke markers" d=" M 211 759 L 211 755" stroke-miterlimit="10"/><path fill="none" stroke="black" paint-order="fill stroke markers" d=" M 225 759 L 225 755" stroke-miterlimit="10"/><path fill="none" stroke="black" paint-order="fill stroke markers" d=" M 239 759 L 239 755" stroke-miterlimit="10"/><path fill="none" stroke="black" paint-order="fill stroke markers" d=" M 253 759 L 253 755" stroke-miterlimit="10"/><path fill="none" stroke="black" paint-order="fill stroke markers" d=" M 267 759 L 267 755" stroke-miterlimit="10"/><path fill="none" stroke="black" paint-order="fill stroke markers" d=" M 281 759 L 281 755" stroke-miterlimit="10"/><path fill="none" stroke="black" paint-order="fill stroke markers" d=" M 295 759 L 295 755" stroke-miterlimit="10"/><path fill="none" stroke="black" paint-order="fill stroke markers" d=" M 309 759 L 309 755" stroke-miterlimit="10"/><path fill="none" stroke="black" paint-order="fill stroke markers" d=" M 323 759 L 323 755" stroke-miterlimit="10"/><path fill="none" stroke="black" paint-order="fill stroke markers" d=" M 337 759 L 337 755" stroke-miterlimit="10"/><path fill="none" stroke="black" paint-order="fill stroke markers" d=" M 351 759 L 351 755" stroke-miterlimit="10"/><path fill="none" stroke="black" paint-order="fill stroke markers" d=" M 364 759 L 364 755" stroke-miterlimit="10"/><path fill="none" stroke="black" paint-order="fill stroke markers" d=" M 378 759 L 378 755" stroke-miterlimit="10"/><path fill="none" stroke="black" paint-order="fill stroke markers" d=" M 392 759 L 392 755" stroke-miterlimit="10"/><path fill="none" stroke="black" paint-order="fill stroke markers" d=" M 406 759 L 406 755" stroke-miterlimit="10"/><path fill="none" stroke="black" paint-order="fill stroke markers" d=" M 420 759 L 420 755" stroke-miterlimit="10"/><path fill="none" stroke="black" paint-order="fill stroke markers" d=" M 434 759 L 434 755" stroke-miterlimit="10"/><path fill="none" stroke="black" paint-order="fill stroke markers" d=" M 448 759 L 448 755" stroke-miterlimit="10"/><path fill="none" stroke="black" paint-order="fill stroke markers" d=" M 462 759 L 462 755" stroke-miterlimit="10"/><path fill="none" stroke="black" paint-order="fill stroke markers" d=" M 476 759 L 476 755" stroke-miterlimit="10"/><path fill="none" stroke="black" paint-order="fill stroke markers" d=" M 490 759 L 490 755" stroke-miterlimit="10"/><path fill="none" stroke="black" paint-order="fill stroke markers" d=" M 504 759 L 504 755" stroke-miterlimit="10"/><path fill="none" stroke="black" paint-order="fill stroke markers" d=" M 518 759 L 518 755" stroke-miterlimit="10"/><path fill="none" stroke="black" paint-order="fill stroke markers" d=" M 532 759 L 532 755" stroke-miterlimit="10"/><path fill="none" stroke="black" paint-order="fill stroke markers" d=" M 546 759 L 546 755" stroke-miterlimit="10"/><path fill="none" stroke="black" paint-order="fill stroke markers" d=" M 560 759 L 560 755" stroke-miterlimit="10"/><path fill="none" stroke="black" paint-order="fill stroke markers" d=" M 574 759 L 574 755" stroke-miterlimit="10"/><path fill="none" stroke="black" paint-order="fill stroke markers" d=" M 588 759 L 588 755" stroke-miterlimit="10"/><path fill="none" stroke="black" paint-order="fill stroke markers" d=" M 602 759 L 602 755" stroke-miterlimit="10"/><path fill="none" stroke="black" paint-order="fill stroke markers" d=" M 616 759 L 616 755" stroke-miterlimit="10"/><path fill="none" stroke="black" paint-order="fill stroke markers" d=" M 630 759 L 630 755" stroke-miterlimit="10"/><path fill="" stroke="black" paint-order="fill stroke markers" d=" M 644 759 L 644 755" stroke-miterlimit="10"/><g transform="translate(197,766) rotate(0,0,0)"><text fill="" stroke="none" font-family="helvetica" font-size="8pt" font-style="normal" font-weight="normal" text-decoration="normal" x="0" y="0" text-anchor="middle" dominant-baseline="hanging">0</text><g transform="rotate(0,0,0) translate(-197,-766) translate(267,766) rotate(0,0,0)"><text fill="" stroke="none" font-family="helvetica" font-size="8pt" font-style="normal" font-weight="normal" text-decoration="normal" x="0" y="0" text-anchor="middle" dominant-baseline="hanging">1000</text><g transform="rotate(0,0,0) translate(-267,-766) translate(337,766) rotate(0,0,0)"><text fill="" stroke="none" font-family="helvetica" font-size="8pt" font-style="normal" font-weight="normal" text-decoration="normal" x="0" y="0" text-anchor="middle" dominant-baseline="hanging">2000</text><g transform="rotate(0,0,0) translate(-337,-766) translate(406,766) rotate(0,0,0)"><text fill="" stroke="none" font-family="helvetica" font-size="8pt" font-style="normal" font-weight="normal" text-decoration="normal" x="0" y="0" text-anchor="middle" dominant-baseline="hanging">3000</text><g transform="rotate(0,0,0) translate(-406,-766) translate(476,766) rotate(0,0,0)"><text fill="" stroke="none" font-family="helvetica" font-size="8pt" font-style="normal" font-weight="normal" text-decoration="normal" x="0" y="0" text-anchor="middle" dominant-baseline="hanging">4000</text><g transform="rotate(0,0,0) translate(-476,-766) translate(546,766) rotate(0,0,0)"><text fill="" stroke="none" font-family="helvetica" font-size="8pt" font-style="normal" font-weight="normal" text-decoration="normal" x="0" y="0" text-anchor="middle" dominant-baseline="hanging">5000</text><g transform="rotate(0,0,0) translate(-546,-766) translate(616,766) rotate(0,0,0)"><text fill="" stroke="none" font-family="helvetica" font-size="8pt" font-style="normal" font-weight="normal" text-decoration="normal" x="0" y="0" text-anchor="middle" dominant-baseline="hanging">6000</text><g transform="rotate(0,0,0) translate(-616,-766) translate(424,784) rotate(0,0,0)"><text fill="" stroke="none" font-family="helvetica" font-size="10pt" font-style="italic" font-weight="normal" text-decoration="normal" x="0" y="0" text-anchor="middle" dominant-baseline="hanging">Respondents</text><g transform="rotate(0,0,0) translate(-424,-784)"/></g></g></g></g></g></g></g></g></g><g fill="#444444"><path fill="none" stroke="black" paint-order="fill stroke markers" d=" M 197 755 L 197 28" stroke-miterlimit="10"/><path fill="none" stroke="black" paint-order="fill stroke markers" d=" M 191 732 L 199 732" stroke-miterlimit="10"/><path fill="none" stroke="black" paint-order="fill stroke markers" d=" M 191 687 L 199 687" stroke-miterlimit="10"/><path fill="none" stroke="black" paint-order="fill stroke markers" d=" M 191 641 L 199 641" stroke-miterlimit="10"/><path fill="none" stroke="black" paint-order="fill stroke markers" d=" M 191 596 L 199 596" stroke-miterlimit="10"/><path fill="none" stroke="black" paint-order="fill stroke markers" d=" M 191 551 L 199 551" stroke-miterlimit="10"/><path fill="none" stroke="black" paint-order="fill stroke markers" d=" M 191 505 L 199 505" stroke-miterlimit="10"/><path fill="none" stroke="black" paint-order="fill stroke markers" d=" M 191 460 L 199 460" stroke-miterlimit="10"/><path fill="none" stroke="black" paint-order="fill stroke markers" d=" M 191 414 L 199 414" stroke-miterlimit="10"/><path fill="none" stroke="black" paint-order="fill stroke markers" d=" M 191 369 L 199 369" stroke-miterlimit="10"/><path fill="none" stroke="black" paint-order="fill stroke markers" d=" M 191 323 L 199 323" stroke-miterlimit="10"/><path fill="none" stroke="black" paint-order="fill stroke markers" d=" M 191 278 L 199 278" stroke-miterlimit="10"/><path fill="none" stroke="black" paint-order="fill stroke markers" d=" M 191 232 L 199 232" stroke-miterlimit="10"/><path fill="none" stroke="black" paint-order="fill stroke markers" d=" M 191 187 L 199 187" stroke-miterlimit="10"/><path fill="none" stroke="black" paint-order="fill stroke markers" d=" M 191 142 L 199 142" stroke-miterlimit="10"/><path fill="none" stroke="black" paint-order="fill stroke markers" d=" M 191 96 L 199 96" stroke-miterlimit="10"/><path fill="" stroke="black" paint-order="fill stroke markers" d=" M 191 51 L 199 51" stroke-miterlimit="10"/><g transform="translate(186,732) rotate(0,0,0)"><text fill="" stroke="none" font-family="helvetica" font-size="8pt" font-style="normal" font-weight="normal" text-decoration="normal" x="0" y="0" text-anchor="end" dominant-baseline="central">Paid Time Off</text><g transform="rotate(0,0,0) translate(-186,-732) translate(186,687) rotate(0,0,0)"><text fill="" stroke="none" font-family="helvetica" font-size="8pt" font-style="normal" font-weight="normal" text-decoration="normal" x="0" y="0" text-anchor="end" dominant-baseline="central">Medical Insurance</text><g transform="rotate(0,0,0) translate(-186,-687) translate(186,641) rotate(0,0,0)"><text fill="" stroke="none" font-family="helvetica" font-size="8pt" font-style="normal" font-weight="normal" text-decoration="normal" x="0" y="0" text-anchor="end" dominant-baseline="central">Dental Insurance</text><g transform="rotate(0,0,0) translate(-186,-641) translate(186,596) rotate(0,0,0)"><text fill="" stroke="none" font-family="helvetica" font-size="8pt" font-style="normal" font-weight="normal" text-decoration="normal" x="0" y="0" text-anchor="end" dominant-baseline="central">Life Insurance</text><g transform="rotate(0,0,0) translate(-186,-596) translate(186,551) rotate(0,0,0)"><text fill="" stroke="none" font-family="helvetica" font-size="8pt" font-style="normal" font-weight="normal" text-decoration="normal" x="0" y="0" text-anchor="end" dominant-baseline="central">Professional Development</text><g transform="rotate(0,0,0) translate(-186,-551) translate(186,505) rotate(0,0,0)"><text fill="" stroke="none" font-family="helvetica" font-size="8pt" font-style="normal" font-weight="normal" text-decoration="normal" x="0" y="0" text-anchor="end" dominant-baseline="central">Employer-matched Retirement</text><g transform="rotate(0,0,0) translate(-186,-505) translate(186,460) rotate(0,0,0)"><text fill="" stroke="none" font-family="helvetica" font-size="8pt" font-style="normal" font-weight="normal" text-decoration="normal" x="0" y="0" text-anchor="end" dominant-baseline="central">Paid Parental Leave</text><g transform="rotate(0,0,0) translate(-186,-460) translate(186,414) rotate(0,0,0)"><text fill="" stroke="none" font-family="helvetica" font-size="8pt" font-style="normal" font-weight="normal" text-decoration="normal" x="0" y="0" text-anchor="end" dominant-baseline="central">Disability Insurance</text><g transform="rotate(0,0,0) translate(-186,-414) translate(186,369) rotate(0,0,0)"><text fill="" stroke="none" font-family="helvetica" font-size="8pt" font-style="normal" font-weight="normal" text-decoration="normal" x="0" y="0" text-anchor="end" dominant-baseline="central">Fitness Benefits</text><g transform="rotate(0,0,0) translate(-186,-369) translate(186,323) rotate(0,0,0)"><text fill="" stroke="none" font-family="helvetica" font-size="8pt" font-style="normal" font-weight="normal" text-decoration="normal" x="0" y="0" text-anchor="end" dominant-baseline="central">Wellness Programs</text><g transform="rotate(0,0,0) translate(-186,-323) translate(186,278) rotate(0,0,0)"><text fill="" stroke="none" font-family="helvetica" font-size="8pt" font-style="normal" font-weight="normal" text-decoration="normal" x="0" y="0" text-anchor="end" dominant-baseline="central">Commuting Benefits</text><g transform="rotate(0,0,0) translate(-186,-278) translate(186,232) rotate(0,0,0)"><text fill="" stroke="none" font-family="helvetica" font-size="8pt" font-style="normal" font-weight="normal" text-decoration="normal" x="0" y="0" text-anchor="end" dominant-baseline="central">Profit Sharing or Stock Options</text><g transform="rotate(0,0,0) translate(-186,-232) translate(186,187) rotate(0,0,0)"><text fill="" stroke="none" font-family="helvetica" font-size="8pt" font-style="normal" font-weight="normal" text-decoration="normal" x="0" y="0" text-anchor="end" dominant-baseline="central">Education Funding</text><g transform="rotate(0,0,0) translate(-186,-187) translate(186,142) rotate(0,0,0)"><text fill="" stroke="none" font-family="helvetica" font-size="8pt" font-style="normal" font-weight="normal" text-decoration="normal" x="0" y="0" text-anchor="end" dominant-baseline="central">None of these</text><g transform="rotate(0,0,0) translate(-186,-142) translate(186,96) rotate(0,0,0)"><text fill="" stroke="none" font-family="helvetica" font-size="8pt" font-style="normal" font-weight="normal" text-decoration="normal" x="0" y="0" text-anchor="end" dominant-baseline="central">Professional Memberships</text><g transform="rotate(0,0,0) translate(-186,-96) translate(186,51) rotate(0,0,0)"><text fill="" stroke="none" font-family="helvetica" font-size="8pt" font-style="normal" font-weight="normal" text-decoration="normal" x="0" y="0" text-anchor="end" dominant-baseline="central">Child Care</text><g transform="rotate(0,0,0) translate(-186,-51) translate(15,392) rotate(-90,0,0)"><text fill="" stroke="none" font-family="helvetica" font-size="10pt" font-style="italic" font-weight="normal" text-decoration="normal" x="0" y="0" text-anchor="middle" dominant-baseline="alphabetic">Categories</text><g transform="rotate(90,0,0) translate(-15,-392)"/></g></g></g></g></g></g></g></g></g></g></g></g></g></g></g></g></g></g><g fill="#444444"><path fill="" stroke="none" d=""/><g transform="translate(197,23)"><path fill="none" stroke="none"/><text fill="" stroke="none" font-family="helvetica" font-size="10pt" font-style="normal" font-weight="bold" text-decoration="normal" x="0" y="0" text-anchor="start" dominant-baseline="text-after-edge">NotAIGA: My job provides:</text></g></g></g></g></g></svg>