<svg version="1.1" xmlns="http://www.w3.org/2000/svg" xmlns:xlink="http://www.w3.org/1999/xlink" width="700" height="400" style="width: 700px; height: 400px;"><defs/><g><g transform="scale(1,1) translate(0.5,0.5)"><rect fill="#FFFFFF" stroke="none" x="0" y="0" width="700" height="400"/><rect fill="#ffffff" stroke="none" x="0" y="0" width="700" height="400"/><rect fill="#FFFFFF" stroke="none" x="120" y="28" width="530" height="327"/><rect fill="#ffffff" stroke="none" x="120" y="28" width="530" height="327"/><g><rect fill="none" stroke="#e5e5e5" x="120" y="28" width="530" height="327" stroke-miterlimit="10"/></g><g><g><path fill="none" stroke="#e5e5e5" paint-order="fill stroke markers" d=" M 206 355 L 206 28" stroke-miterlimit="10"/><path fill="none" stroke="#e5e5e5" paint-order="fill stroke markers" d=" M 292 355 L 292 28" stroke-miterlimit="10"/><path fill="none" stroke="#e5e5e5" paint-order="fill stroke markers" d=" M 378 355 L 378 28" stroke-miterlimit="10"/><path fill="none" stroke="#e5e5e5" paint-order="fill stroke markers" d=" M 464 355 L 464 28" stroke-miterlimit="10"/><path fill="none" stroke="#e5e5e5" paint-order="fill stroke markers" d=" M 550 355 L 550 28" stroke-miterlimit="10"/><path fill="none" stroke="#e5e5e5" paint-order="fill stroke markers" d=" M 636 355 L 636 28" stroke-miterlimit="10"/></g><g><path fill="none" stroke="#e5e5e5" paint-order="fill stroke markers" d=" M 120 335 L 650 335" stroke-miterlimit="10"/><path fill="none" stroke="#e5e5e5" paint-order="fill stroke markers" d=" M 120 294 L 650 294" stroke-miterlimit="10"/><path fill="none" stroke="#e5e5e5" paint-order="fill stroke markers" d=" M 120 253 L 650 253" stroke-miterlimit="10"/><path fill="none" stroke="#e5e5e5" paint-order="fill stroke markers" d=" M 120 212 L 650 212" stroke-miterlimit="10"/><path fill="none" stroke="#e5e5e5" paint-order="fill stroke markers" d=" M 120 171 L 650 171" stroke-miterlimit="10"/><path fill="none" stroke="#e5e5e5" paint-order="fill stroke markers" d=" M 120 130 L 650 130" stroke-miterlimit="10"/><path fill="none" stroke="#e5e5e5" paint-order="fill stroke markers" d=" M 120 89 L 650 89" stroke-miterlimit="10"/><path fill="none" stroke="#e5e5e5" paint-order="fill stroke markers" d=" M 120 48 L 650 48" stroke-miterlimit="10"/></g><g><path fill="none" stroke="none"/><rect fill="#1f77b4" stroke="none" x="120" y="319.234375" width="433.0672377985462" height="30.65625"/><path fill="none" stroke="#1f77b4" paint-order="fill stroke markers" d=" M 120 319.234375 L 553.0672377985462 319.234375 L 553.0672377985462 349.890625 L 120 349.890625 L 120 319.234375 Z" stroke-miterlimit="10"/><rect fill="#1f77b4" stroke="none" x="120" y="278.359375" width="292.5525700934579" height="30.65625"/><path fill="none" stroke="#1f77b4" paint-order="fill stroke markers" d=" M 120 278.359375 L 412.5525700934579 278.359375 L 412.5525700934579 309.015625 L 120 309.015625 L 120 278.359375 Z" stroke-miterlimit="10"/><rect fill="#1f77b4" stroke="none" x="120" y="237.484375" width="274.8377466251298" height="30.65625"/><path fill="none" stroke="#1f77b4" paint-order="fill stroke markers" d=" M 120 237.484375 L 394.8377466251298 237.484375 L 394.8377466251298 268.140625 L 120 268.140625 L 120 237.484375 Z" stroke-miterlimit="10"/><rect fill="#1f77b4" stroke="none" x="120" y="196.609375" width="146.36227933541016" height="30.65625"/><path fill="none" stroke="#1f77b4" paint-order="fill stroke markers" d=" M 120 196.609375 L 266.36227933541016 196.609375 L 266.36227933541016 227.265625 L 120 227.265625 L 120 196.609375 Z" stroke-miterlimit="10"/><rect fill="#1f77b4" stroke="none" x="120" y="155.734375" width="81.86656282450673" height="30.65625"/><path fill="none" stroke="#1f77b4" paint-order="fill stroke markers" d=" M 120 155.734375 L 201.86656282450673 155.734375 L 201.86656282450673 186.390625 L 120 186.390625 L 120 155.734375 Z" stroke-miterlimit="10"/><rect fill="#1f77b4" stroke="none" x="120" y="114.859375" width="57.44418483904465" height="30.65625"/><path fill="none" stroke="#1f77b4" paint-order="fill stroke markers" d=" M 120 114.859375 L 177.44418483904465 114.859375 L 177.44418483904465 145.515625 L 120 145.515625 L 120 114.859375 Z" stroke-miterlimit="10"/><rect fill="#1f77b4" stroke="none" x="120" y="73.984375" width="55.72429906542055" height="30.65625"/><path fill="none" stroke="#1f77b4" paint-order="fill stroke markers" d=" M 120 73.984375 L 175.72429906542055 73.984375 L 175.72429906542055 104.640625 L 120 104.640625 L 120 73.984375 Z" stroke-miterlimit="10"/><rect fill="#1f77b4" stroke="none" x="120" y="33.109375" width="6.363577362409131" height="30.65625"/><path fill="none" stroke="#1f77b4" paint-order="fill stroke markers" d=" M 120 33.109375 L 126.36357736240913 33.109375 L 126.36357736240913 63.765625 L 120 63.765625 L 120 33.109375 Z" stroke-miterlimit="10"/></g><g fill="#444444"><path fill="" stroke="none" d=""/><g transform="translate(563.0672377985462,332.5625) rotate(0,0,0)"><path fill="none" stroke="none"/><text fill="" stroke="none" font-family="helvetica" font-size="8pt" font-style="normal" font-weight="normal" text-decoration="normal" x="0" y="0" text-anchor="start" dominant-baseline="text-after-edge">32.12%</text></g></g><g fill="#444444"><path fill="" stroke="none" d=""/><g transform="translate(422.5525700934579,291.6875) rotate(0,0,0)"><path fill="none" stroke="none"/><text fill="" stroke="none" font-family="helvetica" font-size="8pt" font-style="normal" font-weight="normal" text-decoration="normal" x="0" y="0" text-anchor="start" dominant-baseline="text-after-edge">21.70%</text></g></g><g fill="#444444"><path fill="" stroke="none" d=""/><g transform="translate(404.8377466251298,250.8125) rotate(0,0,0)"><path fill="none" stroke="none"/><text fill="" stroke="none" font-family="helvetica" font-size="8pt" font-style="normal" font-weight="normal" text-decoration="normal" x="0" y="0" text-anchor="start" dominant-baseline="text-after-edge">20.39%</text></g></g><g fill="#444444"><path fill="" stroke="none" d=""/><g transform="translate(276.36227933541016,209.9375) rotate(0,0,0)"><path fill="none" stroke="none"/><text fill="" stroke="none" font-family="helvetica" font-size="8pt" font-style="normal" font-weight="normal" text-decoration="normal" x="0" y="0" text-anchor="start" dominant-baseline="text-after-edge">10.86%</text></g></g><g fill="#444444"><path fill="" stroke="none" d=""/><g transform="translate(211.86656282450673,169.0625) rotate(0,0,0)"><path fill="none" stroke="none"/><text fill="" stroke="none" font-family="helvetica" font-size="8pt" font-style="normal" font-weight="normal" text-decoration="normal" x="0" y="0" text-anchor="start" dominant-baseline="text-after-edge">6.07%</text></g></g><g fill="#444444"><path fill="" stroke="none" d=""/><g transform="translate(187.44418483904465,128.1875) rotate(0,0,0)"><path fill="none" stroke="none"/><text fill="" stroke="none" font-family="helvetica" font-size="8pt" font-style="normal" font-weight="normal" text-decoration="normal" x="0" y="0" text-anchor="start" dominant-baseline="text-after-edge">4.26%</text></g></g><g fill="#444444"><path fill="" stroke="none" d=""/><g transform="translate(185.72429906542055,87.3125) rotate(0,0,0)"><path fill="none" stroke="none"/><text fill="" stroke="none" font-family="helvetica" font-size="8pt" font-style="normal" font-weight="normal" text-decoration="normal" x="0" y="0" text-anchor="start" dominant-baseline="text-after-edge">4.13%</text></g></g><g fill="#444444"><path fill="" stroke="none" d=""/><g transform="translate(136.36357736240913,46.4375) rotate(0,0,0)"><path fill="none" stroke="none"/><text fill="" stroke="none" font-family="helvetica" font-size="8pt" font-style="normal" font-weight="normal" text-decoration="normal" x="0" y="0" text-anchor="start" dominant-baseline="text-after-edge">0.47%</text></g></g><g fill="#444444"><path fill="" stroke="none" d=""/><g transform="translate(563.0672377985462,346.5625) rotate(0,0,0)"><path fill="none" stroke="none"/><text fill="" stroke="none" font-family="helvetica" font-size="8pt" font-style="normal" font-weight="normal" text-decoration="normal" x="0" y="0" text-anchor="start" dominant-baseline="text-after-edge">2518</text></g></g><g fill="#444444"><path fill="" stroke="none" d=""/><g transform="translate(422.5525700934579,305.6875) rotate(0,0,0)"><path fill="none" stroke="none"/><text fill="" stroke="none" font-family="helvetica" font-size="8pt" font-style="normal" font-weight="normal" text-decoration="normal" x="0" y="0" text-anchor="start" dominant-baseline="text-after-edge">1701</text></g></g><g fill="#444444"><path fill="" stroke="none" d=""/><g transform="translate(404.8377466251298,264.8125) rotate(0,0,0)"><path fill="none" stroke="none"/><text fill="" stroke="none" font-family="helvetica" font-size="8pt" font-style="normal" font-weight="normal" text-decoration="normal" x="0" y="0" text-anchor="start" dominant-baseline="text-after-edge">1598</text></g></g><g fill="#444444"><path fill="" stroke="none" d=""/><g transform="translate(276.36227933541016,223.9375) rotate(0,0,0)"><path fill="none" stroke="none"/><text fill="" stroke="none" font-family="helvetica" font-size="8pt" font-style="normal" font-weight="normal" text-decoration="normal" x="0" y="0" text-anchor="start" dominant-baseline="text-after-edge">851</text></g></g><g fill="#444444"><path fill="" stroke="none" d=""/><g transform="translate(211.86656282450673,183.0625) rotate(0,0,0)"><path fill="none" stroke="none"/><text fill="" stroke="none" font-family="helvetica" font-size="8pt" font-style="normal" font-weight="normal" text-decoration="normal" x="0" y="0" text-anchor="start" dominant-baseline="text-after-edge">476</text></g></g><g fill="#444444"><path fill="" stroke="none" d=""/><g transform="translate(187.44418483904465,142.1875) rotate(0,0,0)"><path fill="none" stroke="none"/><text fill="" stroke="none" font-family="helvetica" font-size="8pt" font-style="normal" font-weight="normal" text-decoration="normal" x="0" y="0" text-anchor="start" dominant-baseline="text-after-edge">334</text></g></g><g fill="#444444"><path fill="" stroke="none" d=""/><g transform="translate(185.72429906542055,101.3125) rotate(0,0,0)"><path fill="none" stroke="none"/><text fill="" stroke="none" font-family="helvetica" font-size="8pt" font-style="normal" font-weight="normal" text-decoration="normal" x="0" y="0" text-anchor="start" dominant-baseline="text-after-edge">324</text></g></g><g fill="#444444"><path fill="" stroke="none" d=""/><g transform="translate(136.36357736240913,60.4375) rotate(0,0,0)"><path fill="none" stroke="none"/><text fill="" stroke="none" font-family="helvetica" font-size="8pt" font-style="normal" font-weight="normal" text-decoration="normal" x="0" y="0" text-anchor="start" dominant-baseline="text-after-edge">37</text></g></g></g><g/><g><g fill="#444444"><path fill="none" stroke="black" paint-order="fill stroke markers" d=" M 120 355 L 650 355" stroke-miterlimit="10"/><path fill="none" stroke="black" paint-order="fill stroke markers" d=" M 120 361 L 120 353" stroke-miterlimit="10"/><path fill="none" stroke="black" paint-order="fill stroke markers" d=" M 206 361 L 206 353" stroke-miterlimit="10"/><path fill="none" stroke="black" paint-order="fill stroke markers" d=" M 292 361 L 292 353" stroke-miterlimit="10"/><path fill="none" stroke="black" paint-order="fill stroke markers" d=" M 378 361 L 378 353" stroke-miterlimit="10"/><path fill="none" stroke="black" paint-order="fill stroke markers" d=" M 464 361 L 464 353" stroke-miterlimit="10"/><path fill="none" stroke="black" paint-order="fill stroke markers" d=" M 550 361 L 550 353" stroke-miterlimit="10"/><path fill="none" stroke="black" paint-order="fill stroke markers" d=" M 636 361 L 636 353" stroke-miterlimit="10"/><path fill="none" stroke="black" paint-order="fill stroke markers" d=" M 120 359 L 120 355" stroke-miterlimit="10"/><path fill="none" stroke="black" paint-order="fill stroke markers" d=" M 137 359 L 137 355" stroke-miterlimit="10"/><path fill="none" stroke="black" paint-order="fill stroke markers" d=" M 154 359 L 154 355" stroke-miterlimit="10"/><path fill="none" stroke="black" paint-order="fill stroke markers" d=" M 172 359 L 172 355" stroke-miterlimit="10"/><path fill="none" stroke="black" paint-order="fill stroke markers" d=" M 189 359 L 189 355" stroke-miterlimit="10"/><path fill="none" stroke="black" paint-order="fill stroke markers" d=" M 206 359 L 206 355" stroke-miterlimit="10"/><path fill="none" stroke="black" paint-order="fill stroke markers" d=" M 223 359 L 223 355" stroke-miterlimit="10"/><path fill="none" stroke="black" paint-order="fill stroke markers" d=" M 240 359 L 240 355" stroke-miterlimit="10"/><path fill="none" stroke="black" paint-order="fill stroke markers" d=" M 258 359 L 258 355" stroke-miterlimit="10"/><path fill="none" stroke="black" paint-order="fill stroke markers" d=" M 275 359 L 275 355" stroke-miterlimit="10"/><path fill="none" stroke="black" paint-order="fill stroke markers" d=" M 292 359 L 292 355" stroke-miterlimit="10"/><path fill="none" stroke="black" paint-order="fill stroke markers" d=" M 309 359 L 309 355" stroke-miterlimit="10"/><path fill="none" stroke="black" paint-order="fill stroke markers" d=" M 326 359 L 326 355" stroke-miterlimit="10"/><path fill="none" stroke="black" paint-order="fill stroke markers" d=" M 344 359 L 344 355" stroke-miterlimit="10"/><path fill="none" stroke="black" paint-order="fill stroke markers" d=" M 361 359 L 361 355" stroke-miterlimit="10"/><path fill="none" stroke="black" paint-order="fill stroke markers" d=" M 378 359 L 378 355" stroke-miterlimit="10"/><path fill="none" stroke="black" paint-order="fill stroke markers" d=" M 395 359 L 395 355" stroke-miterlimit="10"/><path fill="none" stroke="black" paint-order="fill stroke markers" d=" M 412 359 L 412 355" stroke-miterlimit="10"/><path fill="none" stroke="black" paint-order="fill stroke markers" d=" M 430 359 L 430 355" stroke-miterlimit="10"/><path fill="none" stroke="black" paint-order="fill stroke markers" d=" M 447 359 L 447 355" stroke-miterlimit="10"/><path fill="none" stroke="black" paint-order="fill stroke markers" d=" M 464 359 L 464 355" stroke-miterlimit="10"/><path fill="none" stroke="black" paint-order="fill stroke markers" d=" M 481 359 L 481 355" stroke-miterlimit="10"/><path fill="none" stroke="black" paint-order="fill stroke markers" d=" M 498 359 L 498 355" stroke-miterlimit="10"/><path fill="none" stroke="black" paint-order="fill stroke markers" d=" M 516 359 L 516 355" stroke-miterlimit="10"/><path fill="none" stroke="black" paint-order="fill stroke markers" d=" M 533 359 L 533 355" stroke-miterlimit="10"/><path fill="none" stroke="black" paint-order="fill stroke markers" d=" M 550 359 L 550 355" stroke-miterlimit="10"/><path fill="none" stroke="black" paint-order="fill stroke markers" d=" M 567 359 L 567 355" stroke-miterlimit="10"/><path fill="none" stroke="black" paint-order="fill stroke markers" d=" M 584 359 L 584 355" stroke-miterlimit="10"/><path fill="none" stroke="black" paint-order="fill stroke markers" d=" M 602 359 L 602 355" stroke-miterlimit="10"/><path fill="none" stroke="black" paint-order="fill stroke markers" d=" M 619 359 L 619 355" stroke-miterlimit="10"/><path fill="" stroke="black" paint-order="fill stroke markers" d=" M 636 359 L 636 355" stroke-miterlimit="10"/><g transform="translate(120,366) rotate(0,0,0)"><text fill="" stroke="none" font-family="helvetica" font-size="8pt" font-style="normal" font-weight="normal" text-decoration="normal" x="0" y="0" text-anchor="middle" dominant-baseline="hanging">0</text><g transform="rotate(0,0,0) translate(-120,-366) translate(206,366) rotate(0,0,0)"><text fill="" stroke="none" font-family="helvetica" font-size="8pt" font-style="normal" font-weight="normal" text-decoration="normal" x="0" y="0" text-anchor="middle" dominant-baseline="hanging">500</text><g transform="rotate(0,0,0) translate(-206,-366) translate(292,366) rotate(0,0,0)"><text fill="" stroke="none" font-family="helvetica" font-size="8pt" font-style="normal" font-weight="normal" text-decoration="normal" x="0" y="0" text-anchor="middle" dominant-baseline="hanging">1000</text><g transform="rotate(0,0,0) translate(-292,-366) translate(378,366) rotate(0,0,0)"><text fill="" stroke="none" font-family="helvetica" font-size="8pt" font-style="normal" font-weight="normal" text-decoration="normal" x="0" y="0" text-anchor="middle" dominant-baseline="hanging">1500</text><g transform="rotate(0,0,0) translate(-378,-366) translate(464,366) rotate(0,0,0)"><text fill="" stroke="none" font-family="helvetica" font-size="8pt" font-style="normal" font-weight="normal" text-decoration="normal" x="0" y="0" text-anchor="middle" dominant-baseline="hanging">2000</text><g transform="rotate(0,0,0) translate(-464,-366) translate(550,366) rotate(0,0,0)"><text fill="" stroke="none" font-family="helvetica" font-size="8pt" font-style="normal" font-weight="normal" text-decoration="normal" x="0" y="0" text-anchor="middle" dominant-baseline="hanging">2500</text><g transform="rotate(0,0,0) translate(-550,-366) translate(636,366) rotate(0,0,0)"><text fill="" stroke="none" font-family="helvetica" font-size="8pt" font-style="normal" font-weight="normal" text-decoration="normal" x="0" y="0" text-anchor="middle" dominant-baseline="hanging">3000</text><g transform="rotate(0,0,0) translate(-636,-366) translate(385,384) rotate(0,0,0)"><text fill="" stroke="none" font-family="helvetica" font-size="10pt" font-style="italic" font-weight="normal" text-decoration="normal" x="0" y="0" text-anchor="middle" dominant-baseline="hanging">Respondents</text><g transform="rotate(0,0,0) translate(-385,-384)"/></g></g></g></g></g></g></g></g></g><g fill="#444444"><path fill="none" stroke="black" paint-order="fill stroke markers" d=" M 120 355 L 120 28" stroke-miterlimit="10"/><path fill="none" stroke="black" paint-order="fill stroke markers" d=" M 114 335 L 122 335" stroke-miterlimit="10"/><path fill="none" stroke="black" paint-order="fill stroke markers" d=" M 114 294 L 122 294" stroke-miterlimit="10"/><path fill="none" stroke="black" paint-order="fill stroke markers" d=" M 114 253 L 122 253" stroke-miterlimit="10"/><path fill="none" stroke="black" paint-order="fill stroke markers" d=" M 114 212 L 122 212" stroke-miterlimit="10"/><path fill="none" stroke="black" paint-order="fill stroke markers" d=" M 114 171 L 122 171" stroke-miterlimit="10"/><path fill="none" stroke="black" paint-order="fill stroke markers" d=" M 114 130 L 122 130" stroke-miterlimit="10"/><path fill="none" stroke="black" paint-order="fill stroke markers" d=" M 114 89 L 122 89" stroke-miterlimit="10"/><path fill="" stroke="black" paint-order="fill stroke markers" d=" M 114 48 L 122 48" stroke-miterlimit="10"/><g transform="translate(109,335) rotate(0,0,0)"><text fill="" stroke="none" font-family="helvetica" font-size="8pt" font-style="normal" font-weight="normal" text-decoration="normal" x="0" y="0" text-anchor="end" dominant-baseline="central">25 to 30</text><g transform="rotate(0,0,0) translate(-109,-335) translate(109,294) rotate(0,0,0)"><text fill="" stroke="none" font-family="helvetica" font-size="8pt" font-style="normal" font-weight="normal" text-decoration="normal" x="0" y="0" text-anchor="end" dominant-baseline="central">30 to 35</text><g transform="rotate(0,0,0) translate(-109,-294) translate(109,253) rotate(0,0,0)"><text fill="" stroke="none" font-family="helvetica" font-size="8pt" font-style="normal" font-weight="normal" text-decoration="normal" x="0" y="0" text-anchor="end" dominant-baseline="central">20 to 25</text><g transform="rotate(0,0,0) translate(-109,-253) translate(109,212) rotate(0,0,0)"><text fill="" stroke="none" font-family="helvetica" font-size="8pt" font-style="normal" font-weight="normal" text-decoration="normal" x="0" y="0" text-anchor="end" dominant-baseline="central">35 to 40</text><g transform="rotate(0,0,0) translate(-109,-212) translate(109,171) rotate(0,0,0)"><text fill="" stroke="none" font-family="helvetica" font-size="8pt" font-style="normal" font-weight="normal" text-decoration="normal" x="0" y="0" text-anchor="end" dominant-baseline="central">40 to 45</text><g transform="rotate(0,0,0) translate(-109,-171) translate(109,130) rotate(0,0,0)"><text fill="" stroke="none" font-family="helvetica" font-size="8pt" font-style="normal" font-weight="normal" text-decoration="normal" x="0" y="0" text-anchor="end" dominant-baseline="central">Older than 50</text><g transform="rotate(0,0,0) translate(-109,-130) translate(109,89) rotate(0,0,0)"><text fill="" stroke="none" font-family="helvetica" font-size="8pt" font-style="normal" font-weight="normal" text-decoration="normal" x="0" y="0" text-anchor="end" dominant-baseline="central">45 to 50</text><g transform="rotate(0,0,0) translate(-109,-89) translate(109,48) rotate(0,0,0)"><text fill="" stroke="none" font-family="helvetica" font-size="8pt" font-style="normal" font-weight="normal" text-decoration="normal" x="0" y="0" text-anchor="end" dominant-baseline="central">Younger than 20</text><g transform="rotate(0,0,0) translate(-109,-48) translate(16,192) rotate(-90,0,0)"><text fill="" stroke="none" font-family="helvetica" font-size="10pt" font-style="italic" font-weight="normal" text-decoration="normal" x="0" y="0" text-anchor="middle" dominant-baseline="alphabetic">Categories</text><g transform="rotate(90,0,0) translate(-16,-192)"/></g></g></g></g></g></g></g></g></g></g><g fill="#444444"><path fill="" stroke="none" d=""/><g transform="translate(120,23)"><path fill="none" stroke="none"/><text fill="" stroke="none" font-family="helvetica" font-size="10pt" font-style="normal" font-weight="bold" text-decoration="normal" x="0" y="0" text-anchor="start" dominant-baseline="text-after-edge">NotAIGA: My age is:</text></g></g></g></g></g></svg>