<svg version="1.1" xmlns="http://www.w3.org/2000/svg" xmlns:xlink="http://www.w3.org/1999/xlink" width="700" height="1000" style="width: 700px; height: 1000px;"><defs/><g><g transform="scale(1,1) translate(0.5,0.5)"><rect fill="#FFFFFF" stroke="none" x="0" y="0" width="700" height="1000"/><rect fill="#ffffff" stroke="none" x="0" y="0" width="700" height="1000"/><rect fill="#FFFFFF" stroke="none" x="242" y="28" width="408" height="927"/><rect fill="#ffffff" stroke="none" x="242" y="28" width="408" height="927"/><g><rect fill="none" stroke="#e5e5e5" x="242" y="28" width="408" height="927" stroke-miterlimit="10"/></g><g><g><path fill="none" stroke="#e5e5e5" paint-order="fill stroke markers" d=" M 319 955 L 319 28" stroke-miterlimit="10"/><path fill="none" stroke="#e5e5e5" paint-order="fill stroke markers" d=" M 397 955 L 397 28" stroke-miterlimit="10"/><path fill="none" stroke="#e5e5e5" paint-order="fill stroke markers" d=" M 474 955 L 474 28" stroke-miterlimit="10"/><path fill="none" stroke="#e5e5e5" paint-order="fill stroke markers" d=" M 551 955 L 551 28" stroke-miterlimit="10"/><path fill="none" stroke="#e5e5e5" paint-order="fill stroke markers" d=" M 628 955 L 628 28" stroke-miterlimit="10"/></g><g><path fill="none" stroke="#e5e5e5" paint-order="fill stroke markers" d=" M 242 932 L 650 932" stroke-miterlimit="10"/><path fill="none" stroke="#e5e5e5" paint-order="fill stroke markers" d=" M 242 885 L 650 885" stroke-miterlimit="10"/><path fill="none" stroke="#e5e5e5" paint-order="fill stroke markers" d=" M 242 839 L 650 839" stroke-miterlimit="10"/><path fill="none" stroke="#e5e5e5" paint-order="fill stroke markers" d=" M 242 793 L 650 793" stroke-miterlimit="10"/><path fill="none" stroke="#e5e5e5" paint-order="fill stroke markers" d=" M 242 746 L 650 746" stroke-miterlimit="10"/><path fill="none" stroke="#e5e5e5" paint-order="fill stroke markers" d=" M 242 700 L 650 700" stroke-miterlimit="10"/><path fill="none" stroke="#e5e5e5" paint-order="fill stroke markers" d=" M 242 654 L 650 654" stroke-miterlimit="10"/><path fill="none" stroke="#e5e5e5" paint-order="fill stroke markers" d=" M 242 607 L 650 607" stroke-miterlimit="10"/><path fill="none" stroke="#e5e5e5" paint-order="fill stroke markers" d=" M 242 561 L 650 561" stroke-miterlimit="10"/><path fill="none" stroke="#e5e5e5" paint-order="fill stroke markers" d=" M 242 515 L 650 515" stroke-miterlimit="10"/><path fill="none" stroke="#e5e5e5" paint-order="fill stroke markers" d=" M 242 468 L 650 468" stroke-miterlimit="10"/><path fill="none" stroke="#e5e5e5" paint-order="fill stroke markers" d=" M 242 422 L 650 422" stroke-miterlimit="10"/><path fill="none" stroke="#e5e5e5" paint-order="fill stroke markers" d=" M 242 376 L 650 376" stroke-miterlimit="10"/><path fill="none" stroke="#e5e5e5" paint-order="fill stroke markers" d=" M 242 329 L 650 329" stroke-miterlimit="10"/><path fill="none" stroke="#e5e5e5" paint-order="fill stroke markers" d=" M 242 283 L 650 283" stroke-miterlimit="10"/><path fill="none" stroke="#e5e5e5" paint-order="fill stroke markers" d=" M 242 237 L 650 237" stroke-miterlimit="10"/><path fill="none" stroke="#e5e5e5" paint-order="fill stroke markers" d=" M 242 190 L 650 190" stroke-miterlimit="10"/><path fill="none" stroke="#e5e5e5" paint-order="fill stroke markers" d=" M 242 144 L 650 144" stroke-miterlimit="10"/><path fill="none" stroke="#e5e5e5" paint-order="fill stroke markers" d=" M 242 98 L 650 98" stroke-miterlimit="10"/><path fill="none" stroke="#e5e5e5" paint-order="fill stroke markers" d=" M 242 51 L 650 51" stroke-miterlimit="10"/></g><g><path fill="none" stroke="none"/><rect fill="#1f77b4" stroke="none" x="242" y="914.4437500000001" width="336.1363636363636" height="34.76249999999982"/><path fill="none" stroke="#1f77b4" paint-order="fill stroke markers" d=" M 242 914.4437500000001 L 578.1363636363636 914.4437500000001 L 578.1363636363636 949.20625 L 242 949.20625 L 242 914.4437500000001 Z" stroke-miterlimit="10"/><rect fill="#1f77b4" stroke="none" x="242" y="868.09375" width="245.41818181818178" height="34.762500000000045"/><path fill="none" stroke="#1f77b4" paint-order="fill stroke markers" d=" M 242 868.09375 L 487.4181818181818 868.09375 L 487.4181818181818 902.85625 L 242 902.85625 L 242 868.09375 Z" stroke-miterlimit="10"/><rect fill="#1f77b4" stroke="none" x="242" y="821.74375" width="228.57272727272726" height="34.762500000000045"/><path fill="none" stroke="#1f77b4" paint-order="fill stroke markers" d=" M 242 821.74375 L 470.57272727272726 821.74375 L 470.57272727272726 856.50625 L 242 856.50625 L 242 821.74375 Z" stroke-miterlimit="10"/><rect fill="#1f77b4" stroke="none" x="242" y="775.39375" width="202.2227272727273" height="34.762500000000045"/><path fill="none" stroke="#1f77b4" paint-order="fill stroke markers" d=" M 242 775.39375 L 444.2227272727273 775.39375 L 444.2227272727273 810.15625 L 242 810.15625 L 242 775.39375 Z" stroke-miterlimit="10"/><rect fill="#1f77b4" stroke="none" x="242" y="729.04375" width="180.2772727272727" height="34.76249999999982"/><path fill="none" stroke="#1f77b4" paint-order="fill stroke markers" d=" M 242 729.04375 L 422.2772727272727 729.04375 L 422.2772727272727 763.8062499999999 L 242 763.8062499999999 L 242 729.04375 Z" stroke-miterlimit="10"/><rect fill="#1f77b4" stroke="none" x="242" y="682.69375" width="156.16818181818178" height="34.762500000000045"/><path fill="none" stroke="#1f77b4" paint-order="fill stroke markers" d=" M 242 682.69375 L 398.1681818181818 682.69375 L 398.1681818181818 717.4562500000001 L 242 717.4562500000001 L 242 682.69375 Z" stroke-miterlimit="10"/><rect fill="#1f77b4" stroke="none" x="242" y="636.3437499999999" width="155.54999999999995" height="34.762500000000045"/><path fill="none" stroke="#1f77b4" paint-order="fill stroke markers" d=" M 242 636.3437499999999 L 397.54999999999995 636.3437499999999 L 397.54999999999995 671.1062499999999 L 242 671.1062499999999 L 242 636.3437499999999 Z" stroke-miterlimit="10"/><rect fill="#1f77b4" stroke="none" x="242" y="589.9937500000001" width="155.08636363636367" height="34.76249999999982"/><path fill="none" stroke="#1f77b4" paint-order="fill stroke markers" d=" M 242 589.9937500000001 L 397.08636363636367 589.9937500000001 L 397.08636363636367 624.7562499999999 L 242 624.7562499999999 L 242 589.9937500000001 Z" stroke-miterlimit="10"/><rect fill="#1f77b4" stroke="none" x="242" y="543.64375" width="146.5090909090909" height="34.762500000000045"/><path fill="none" stroke="#1f77b4" paint-order="fill stroke markers" d=" M 242 543.64375 L 388.5090909090909 543.64375 L 388.5090909090909 578.40625 L 242 578.40625 L 242 543.64375 Z" stroke-miterlimit="10"/><rect fill="#1f77b4" stroke="none" x="242" y="497.29374999999993" width="135.22727272727275" height="34.762500000000045"/><path fill="none" stroke="#1f77b4" paint-order="fill stroke markers" d=" M 242 497.29374999999993 L 377.22727272727275 497.29374999999993 L 377.22727272727275 532.05625 L 242 532.05625 L 242 497.29374999999993 Z" stroke-miterlimit="10"/><rect fill="#1f77b4" stroke="none" x="242" y="450.94374999999997" width="125.2590909090909" height="34.762500000000045"/><path fill="none" stroke="#1f77b4" paint-order="fill stroke markers" d=" M 242 450.94374999999997 L 367.2590909090909 450.94374999999997 L 367.2590909090909 485.70625 L 242 485.70625 L 242 450.94374999999997 Z" stroke-miterlimit="10"/><rect fill="#1f77b4" stroke="none" x="242" y="404.59375000000006" width="115.90909090909088" height="34.76249999999993"/><path fill="none" stroke="#1f77b4" paint-order="fill stroke markers" d=" M 242 404.59375000000006 L 357.9090909090909 404.59375000000006 L 357.9090909090909 439.35625 L 242 439.35625 L 242 404.59375000000006 Z" stroke-miterlimit="10"/><rect fill="#1f77b4" stroke="none" x="242" y="358.24375" width="111.50454545454545" height="34.762500000000045"/><path fill="none" stroke="#1f77b4" paint-order="fill stroke markers" d=" M 242 358.24375 L 353.50454545454545 358.24375 L 353.50454545454545 393.00625 L 242 393.00625 L 242 358.24375 Z" stroke-miterlimit="10"/><rect fill="#1f77b4" stroke="none" x="242" y="311.89374999999995" width="106.86818181818182" height="34.762500000000045"/><path fill="none" stroke="#1f77b4" paint-order="fill stroke markers" d=" M 242 311.89374999999995 L 348.8681818181818 311.89374999999995 L 348.8681818181818 346.65625 L 242 346.65625 L 242 311.89374999999995 Z" stroke-miterlimit="10"/><rect fill="#1f77b4" stroke="none" x="242" y="265.54374999999993" width="91.33636363636361" height="34.762500000000045"/><path fill="none" stroke="#1f77b4" paint-order="fill stroke markers" d=" M 242 265.54374999999993 L 333.3363636363636 265.54374999999993 L 333.3363636363636 300.30625 L 242 300.30625 L 242 265.54374999999993 Z" stroke-miterlimit="10"/><rect fill="#1f77b4" stroke="none" x="242" y="219.19374999999997" width="63.363636363636374" height="34.76249999999993"/><path fill="none" stroke="#1f77b4" paint-order="fill stroke markers" d=" M 242 219.19374999999997 L 305.3636363636364 219.19374999999997 L 305.3636363636364 253.9562499999999 L 242 253.9562499999999 L 242 219.19374999999997 Z" stroke-miterlimit="10"/><rect fill="#1f77b4" stroke="none" x="242" y="172.84375000000006" width="61.2772727272727" height="34.76249999999993"/><path fill="none" stroke="#1f77b4" paint-order="fill stroke markers" d=" M 242 172.84375000000006 L 303.2772727272727 172.84375000000006 L 303.2772727272727 207.60625 L 242 207.60625 L 242 172.84375000000006 Z" stroke-miterlimit="10"/><rect fill="#1f77b4" stroke="none" x="242" y="126.49374999999998" width="59.113636363636374" height="34.762500000000045"/><path fill="none" stroke="#1f77b4" paint-order="fill stroke markers" d=" M 242 126.49374999999998 L 301.1136363636364 126.49374999999998 L 301.1136363636364 161.25625000000002 L 242 161.25625000000002 L 242 126.49374999999998 Z" stroke-miterlimit="10"/><rect fill="#1f77b4" stroke="none" x="242" y="80.14374999999995" width="43.73636363636365" height="34.762500000000045"/><path fill="none" stroke="#1f77b4" paint-order="fill stroke markers" d=" M 242 80.14374999999995 L 285.73636363636365 80.14374999999995 L 285.73636363636365 114.90625 L 242 114.90625 L 242 80.14374999999995 Z" stroke-miterlimit="10"/><rect fill="#1f77b4" stroke="none" x="242" y="33.79374999999993" width="13.909090909090907" height="34.762500000000045"/><path fill="none" stroke="#1f77b4" paint-order="fill stroke markers" d=" M 242 33.79374999999993 L 255.9090909090909 33.79374999999993 L 255.9090909090909 68.55624999999998 L 242 68.55624999999998 L 242 33.79374999999993 Z" stroke-miterlimit="10"/></g><g fill="#444444"><path fill="" stroke="none" d=""/><g transform="translate(588.1363636363636,929.825) rotate(0,0,0)"><path fill="none" stroke="none"/><text fill="" stroke="none" font-family="helvetica" font-size="8pt" font-style="normal" font-weight="normal" text-decoration="normal" x="0" y="0" text-anchor="start" dominant-baseline="text-after-edge">55.49%</text></g></g><g fill="#444444"><path fill="" stroke="none" d=""/><g transform="translate(497.4181818181818,883.475) rotate(0,0,0)"><path fill="none" stroke="none"/><text fill="" stroke="none" font-family="helvetica" font-size="8pt" font-style="normal" font-weight="normal" text-decoration="normal" x="0" y="0" text-anchor="start" dominant-baseline="text-after-edge">40.52%</text></g></g><g fill="#444444"><path fill="" stroke="none" d=""/><g transform="translate(480.57272727272726,837.125) rotate(0,0,0)"><path fill="none" stroke="none"/><text fill="" stroke="none" font-family="helvetica" font-size="8pt" font-style="normal" font-weight="normal" text-decoration="normal" x="0" y="0" text-anchor="start" dominant-baseline="text-after-edge">37.73%</text></g></g><g fill="#444444"><path fill="" stroke="none" d=""/><g transform="translate(454.2227272727273,790.775) rotate(0,0,0)"><path fill="none" stroke="none"/><text fill="" stroke="none" font-family="helvetica" font-size="8pt" font-style="normal" font-weight="normal" text-decoration="normal" x="0" y="0" text-anchor="start" dominant-baseline="text-after-edge">33.38%</text></g></g><g fill="#444444"><path fill="" stroke="none" d=""/><g transform="translate(432.2772727272727,744.425) rotate(0,0,0)"><path fill="none" stroke="none"/><text fill="" stroke="none" font-family="helvetica" font-size="8pt" font-style="normal" font-weight="normal" text-decoration="normal" x="0" y="0" text-anchor="start" dominant-baseline="text-after-edge">29.76%</text></g></g><g fill="#444444"><path fill="" stroke="none" d=""/><g transform="translate(408.1681818181818,698.075) rotate(0,0,0)"><path fill="none" stroke="none"/><text fill="" stroke="none" font-family="helvetica" font-size="8pt" font-style="normal" font-weight="normal" text-decoration="normal" x="0" y="0" text-anchor="start" dominant-baseline="text-after-edge">25.78%</text></g></g><g fill="#444444"><path fill="" stroke="none" d=""/><g transform="translate(407.54999999999995,651.7249999999999) rotate(0,0,0)"><path fill="none" stroke="none"/><text fill="" stroke="none" font-family="helvetica" font-size="8pt" font-style="normal" font-weight="normal" text-decoration="normal" x="0" y="0" text-anchor="start" dominant-baseline="text-after-edge">25.68%</text></g></g><g fill="#444444"><path fill="" stroke="none" d=""/><g transform="translate(407.08636363636367,605.375) rotate(0,0,0)"><path fill="none" stroke="none"/><text fill="" stroke="none" font-family="helvetica" font-size="8pt" font-style="normal" font-weight="normal" text-decoration="normal" x="0" y="0" text-anchor="start" dominant-baseline="text-after-edge">25.60%</text></g></g><g fill="#444444"><path fill="" stroke="none" d=""/><g transform="translate(398.5090909090909,559.025) rotate(0,0,0)"><path fill="none" stroke="none"/><text fill="" stroke="none" font-family="helvetica" font-size="8pt" font-style="normal" font-weight="normal" text-decoration="normal" x="0" y="0" text-anchor="start" dominant-baseline="text-after-edge">24.19%</text></g></g><g fill="#444444"><path fill="" stroke="none" d=""/><g transform="translate(387.22727272727275,512.675) rotate(0,0,0)"><path fill="none" stroke="none"/><text fill="" stroke="none" font-family="helvetica" font-size="8pt" font-style="normal" font-weight="normal" text-decoration="normal" x="0" y="0" text-anchor="start" dominant-baseline="text-after-edge">22.32%</text></g></g><g fill="#444444"><path fill="" stroke="none" d=""/><g transform="translate(377.2590909090909,466.325) rotate(0,0,0)"><path fill="none" stroke="none"/><text fill="" stroke="none" font-family="helvetica" font-size="8pt" font-style="normal" font-weight="normal" text-decoration="normal" x="0" y="0" text-anchor="start" dominant-baseline="text-after-edge">20.68%</text></g></g><g fill="#444444"><path fill="" stroke="none" d=""/><g transform="translate(367.9090909090909,419.975) rotate(0,0,0)"><path fill="none" stroke="none"/><text fill="" stroke="none" font-family="helvetica" font-size="8pt" font-style="normal" font-weight="normal" text-decoration="normal" x="0" y="0" text-anchor="start" dominant-baseline="text-after-edge">19.14%</text></g></g><g fill="#444444"><path fill="" stroke="none" d=""/><g transform="translate(363.50454545454545,373.625) rotate(0,0,0)"><path fill="none" stroke="none"/><text fill="" stroke="none" font-family="helvetica" font-size="8pt" font-style="normal" font-weight="normal" text-decoration="normal" x="0" y="0" text-anchor="start" dominant-baseline="text-after-edge">18.41%</text></g></g><g fill="#444444"><path fill="" stroke="none" d=""/><g transform="translate(358.8681818181818,327.275) rotate(0,0,0)"><path fill="none" stroke="none"/><text fill="" stroke="none" font-family="helvetica" font-size="8pt" font-style="normal" font-weight="normal" text-decoration="normal" x="0" y="0" text-anchor="start" dominant-baseline="text-after-edge">17.64%</text></g></g><g fill="#444444"><path fill="" stroke="none" d=""/><g transform="translate(343.3363636363636,280.92499999999995) rotate(0,0,0)"><path fill="none" stroke="none"/><text fill="" stroke="none" font-family="helvetica" font-size="8pt" font-style="normal" font-weight="normal" text-decoration="normal" x="0" y="0" text-anchor="start" dominant-baseline="text-after-edge">15.08%</text></g></g><g fill="#444444"><path fill="" stroke="none" d=""/><g transform="translate(315.3636363636364,234.57499999999993) rotate(0,0,0)"><path fill="none" stroke="none"/><text fill="" stroke="none" font-family="helvetica" font-size="8pt" font-style="normal" font-weight="normal" text-decoration="normal" x="0" y="0" text-anchor="start" dominant-baseline="text-after-edge">10.46%</text></g></g><g fill="#444444"><path fill="" stroke="none" d=""/><g transform="translate(313.2772727272727,188.22500000000002) rotate(0,0,0)"><path fill="none" stroke="none"/><text fill="" stroke="none" font-family="helvetica" font-size="8pt" font-style="normal" font-weight="normal" text-decoration="normal" x="0" y="0" text-anchor="start" dominant-baseline="text-after-edge">10.12%</text></g></g><g fill="#444444"><path fill="" stroke="none" d=""/><g transform="translate(311.1136363636364,141.875) rotate(0,0,0)"><path fill="none" stroke="none"/><text fill="" stroke="none" font-family="helvetica" font-size="8pt" font-style="normal" font-weight="normal" text-decoration="normal" x="0" y="0" text-anchor="start" dominant-baseline="text-after-edge">9.76%</text></g></g><g fill="#444444"><path fill="" stroke="none" d=""/><g transform="translate(295.73636363636365,95.52499999999998) rotate(0,0,0)"><path fill="none" stroke="none"/><text fill="" stroke="none" font-family="helvetica" font-size="8pt" font-style="normal" font-weight="normal" text-decoration="normal" x="0" y="0" text-anchor="start" dominant-baseline="text-after-edge">7.22%</text></g></g><g fill="#444444"><path fill="" stroke="none" d=""/><g transform="translate(265.9090909090909,49.174999999999955) rotate(0,0,0)"><path fill="none" stroke="none"/><text fill="" stroke="none" font-family="helvetica" font-size="8pt" font-style="normal" font-weight="normal" text-decoration="normal" x="0" y="0" text-anchor="start" dominant-baseline="text-after-edge">2.30%</text></g></g><g fill="#444444"><path fill="" stroke="none" d=""/><g transform="translate(588.1363636363636,943.825) rotate(0,0,0)"><path fill="none" stroke="none"/><text fill="" stroke="none" font-family="helvetica" font-size="8pt" font-style="normal" font-weight="normal" text-decoration="normal" x="0" y="0" text-anchor="start" dominant-baseline="text-after-edge">4350</text></g></g><g fill="#444444"><path fill="" stroke="none" d=""/><g transform="translate(497.4181818181818,897.475) rotate(0,0,0)"><path fill="none" stroke="none"/><text fill="" stroke="none" font-family="helvetica" font-size="8pt" font-style="normal" font-weight="normal" text-decoration="normal" x="0" y="0" text-anchor="start" dominant-baseline="text-after-edge">3176</text></g></g><g fill="#444444"><path fill="" stroke="none" d=""/><g transform="translate(480.57272727272726,851.125) rotate(0,0,0)"><path fill="none" stroke="none"/><text fill="" stroke="none" font-family="helvetica" font-size="8pt" font-style="normal" font-weight="normal" text-decoration="normal" x="0" y="0" text-anchor="start" dominant-baseline="text-after-edge">2958</text></g></g><g fill="#444444"><path fill="" stroke="none" d=""/><g transform="translate(454.2227272727273,804.775) rotate(0,0,0)"><path fill="none" stroke="none"/><text fill="" stroke="none" font-family="helvetica" font-size="8pt" font-style="normal" font-weight="normal" text-decoration="normal" x="0" y="0" text-anchor="start" dominant-baseline="text-after-edge">2617</text></g></g><g fill="#444444"><path fill="" stroke="none" d=""/><g transform="translate(432.2772727272727,758.425) rotate(0,0,0)"><path fill="none" stroke="none"/><text fill="" stroke="none" font-family="helvetica" font-size="8pt" font-style="normal" font-weight="normal" text-decoration="normal" x="0" y="0" text-anchor="start" dominant-baseline="text-after-edge">2333</text></g></g><g fill="#444444"><path fill="" stroke="none" d=""/><g transform="translate(408.1681818181818,712.075) rotate(0,0,0)"><path fill="none" stroke="none"/><text fill="" stroke="none" font-family="helvetica" font-size="8pt" font-style="normal" font-weight="normal" text-decoration="normal" x="0" y="0" text-anchor="start" dominant-baseline="text-after-edge">2021</text></g></g><g fill="#444444"><path fill="" stroke="none" d=""/><g transform="translate(407.54999999999995,665.7249999999999) rotate(0,0,0)"><path fill="none" stroke="none"/><text fill="" stroke="none" font-family="helvetica" font-size="8pt" font-style="normal" font-weight="normal" text-decoration="normal" x="0" y="0" text-anchor="start" dominant-baseline="text-after-edge">2013</text></g></g><g fill="#444444"><path fill="" stroke="none" d=""/><g transform="translate(407.08636363636367,619.375) rotate(0,0,0)"><path fill="none" stroke="none"/><text fill="" stroke="none" font-family="helvetica" font-size="8pt" font-style="normal" font-weight="normal" text-decoration="normal" x="0" y="0" text-anchor="start" dominant-baseline="text-after-edge">2007</text></g></g><g fill="#444444"><path fill="" stroke="none" d=""/><g transform="translate(398.5090909090909,573.025) rotate(0,0,0)"><path fill="none" stroke="none"/><text fill="" stroke="none" font-family="helvetica" font-size="8pt" font-style="normal" font-weight="normal" text-decoration="normal" x="0" y="0" text-anchor="start" dominant-baseline="text-after-edge">1896</text></g></g><g fill="#444444"><path fill="" stroke="none" d=""/><g transform="translate(387.22727272727275,526.675) rotate(0,0,0)"><path fill="none" stroke="none"/><text fill="" stroke="none" font-family="helvetica" font-size="8pt" font-style="normal" font-weight="normal" text-decoration="normal" x="0" y="0" text-anchor="start" dominant-baseline="text-after-edge">1750</text></g></g><g fill="#444444"><path fill="" stroke="none" d=""/><g transform="translate(377.2590909090909,480.325) rotate(0,0,0)"><path fill="none" stroke="none"/><text fill="" stroke="none" font-family="helvetica" font-size="8pt" font-style="normal" font-weight="normal" text-decoration="normal" x="0" y="0" text-anchor="start" dominant-baseline="text-after-edge">1621</text></g></g><g fill="#444444"><path fill="" stroke="none" d=""/><g transform="translate(367.9090909090909,433.975) rotate(0,0,0)"><path fill="none" stroke="none"/><text fill="" stroke="none" font-family="helvetica" font-size="8pt" font-style="normal" font-weight="normal" text-decoration="normal" x="0" y="0" text-anchor="start" dominant-baseline="text-after-edge">1500</text></g></g><g fill="#444444"><path fill="" stroke="none" d=""/><g transform="translate(363.50454545454545,387.625) rotate(0,0,0)"><path fill="none" stroke="none"/><text fill="" stroke="none" font-family="helvetica" font-size="8pt" font-style="normal" font-weight="normal" text-decoration="normal" x="0" y="0" text-anchor="start" dominant-baseline="text-after-edge">1443</text></g></g><g fill="#444444"><path fill="" stroke="none" d=""/><g transform="translate(358.8681818181818,341.275) rotate(0,0,0)"><path fill="none" stroke="none"/><text fill="" stroke="none" font-family="helvetica" font-size="8pt" font-style="normal" font-weight="normal" text-decoration="normal" x="0" y="0" text-anchor="start" dominant-baseline="text-after-edge">1383</text></g></g><g fill="#444444"><path fill="" stroke="none" d=""/><g transform="translate(343.3363636363636,294.92499999999995) rotate(0,0,0)"><path fill="none" stroke="none"/><text fill="" stroke="none" font-family="helvetica" font-size="8pt" font-style="normal" font-weight="normal" text-decoration="normal" x="0" y="0" text-anchor="start" dominant-baseline="text-after-edge">1182</text></g></g><g fill="#444444"><path fill="" stroke="none" d=""/><g transform="translate(315.3636363636364,248.57499999999993) rotate(0,0,0)"><path fill="none" stroke="none"/><text fill="" stroke="none" font-family="helvetica" font-size="8pt" font-style="normal" font-weight="normal" text-decoration="normal" x="0" y="0" text-anchor="start" dominant-baseline="text-after-edge">820</text></g></g><g fill="#444444"><path fill="" stroke="none" d=""/><g transform="translate(313.2772727272727,202.22500000000002) rotate(0,0,0)"><path fill="none" stroke="none"/><text fill="" stroke="none" font-family="helvetica" font-size="8pt" font-style="normal" font-weight="normal" text-decoration="normal" x="0" y="0" text-anchor="start" dominant-baseline="text-after-edge">793</text></g></g><g fill="#444444"><path fill="" stroke="none" d=""/><g transform="translate(311.1136363636364,155.875) rotate(0,0,0)"><path fill="none" stroke="none"/><text fill="" stroke="none" font-family="helvetica" font-size="8pt" font-style="normal" font-weight="normal" text-decoration="normal" x="0" y="0" text-anchor="start" dominant-baseline="text-after-edge">765</text></g></g><g fill="#444444"><path fill="" stroke="none" d=""/><g transform="translate(295.73636363636365,109.52499999999998) rotate(0,0,0)"><path fill="none" stroke="none"/><text fill="" stroke="none" font-family="helvetica" font-size="8pt" font-style="normal" font-weight="normal" text-decoration="normal" x="0" y="0" text-anchor="start" dominant-baseline="text-after-edge">566</text></g></g><g fill="#444444"><path fill="" stroke="none" d=""/><g transform="translate(265.9090909090909,63.174999999999955) rotate(0,0,0)"><path fill="none" stroke="none"/><text fill="" stroke="none" font-family="helvetica" font-size="8pt" font-style="normal" font-weight="normal" text-decoration="normal" x="0" y="0" text-anchor="start" dominant-baseline="text-after-edge">180</text></g></g></g><g/><g><g fill="#444444"><path fill="none" stroke="black" paint-order="fill stroke markers" d=" M 242 955 L 650 955" stroke-miterlimit="10"/><path fill="none" stroke="black" paint-order="fill stroke markers" d=" M 242 961 L 242 953" stroke-miterlimit="10"/><path fill="none" stroke="black" paint-order="fill stroke markers" d=" M 319 961 L 319 953" stroke-miterlimit="10"/><path fill="none" stroke="black" paint-order="fill stroke markers" d=" M 397 961 L 397 953" stroke-miterlimit="10"/><path fill="none" stroke="black" paint-order="fill stroke markers" d=" M 474 961 L 474 953" stroke-miterlimit="10"/><path fill="none" stroke="black" paint-order="fill stroke markers" d=" M 551 961 L 551 953" stroke-miterlimit="10"/><path fill="none" stroke="black" paint-order="fill stroke markers" d=" M 628 961 L 628 953" stroke-miterlimit="10"/><path fill="none" stroke="black" paint-order="fill stroke markers" d=" M 242 959 L 242 955" stroke-miterlimit="10"/><path fill="none" stroke="black" paint-order="fill stroke markers" d=" M 257 959 L 257 955" stroke-miterlimit="10"/><path fill="none" stroke="black" paint-order="fill stroke markers" d=" M 273 959 L 273 955" stroke-miterlimit="10"/><path fill="none" stroke="black" paint-order="fill stroke markers" d=" M 288 959 L 288 955" stroke-miterlimit="10"/><path fill="none" stroke="black" paint-order="fill stroke markers" d=" M 304 959 L 304 955" stroke-miterlimit="10"/><path fill="none" stroke="black" paint-order="fill stroke markers" d=" M 319 959 L 319 955" stroke-miterlimit="10"/><path fill="none" stroke="black" paint-order="fill stroke markers" d=" M 335 959 L 335 955" stroke-miterlimit="10"/><path fill="none" stroke="black" paint-order="fill stroke markers" d=" M 350 959 L 350 955" stroke-miterlimit="10"/><path fill="none" stroke="black" paint-order="fill stroke markers" d=" M 366 959 L 366 955" stroke-miterlimit="10"/><path fill="none" stroke="black" paint-order="fill stroke markers" d=" M 381 959 L 381 955" stroke-miterlimit="10"/><path fill="none" stroke="black" paint-order="fill stroke markers" d=" M 397 959 L 397 955" stroke-miterlimit="10"/><path fill="none" stroke="black" paint-order="fill stroke markers" d=" M 412 959 L 412 955" stroke-miterlimit="10"/><path fill="none" stroke="black" paint-order="fill stroke markers" d=" M 427 959 L 427 955" stroke-miterlimit="10"/><path fill="none" stroke="black" paint-order="fill stroke markers" d=" M 443 959 L 443 955" stroke-miterlimit="10"/><path fill="none" stroke="black" paint-order="fill stroke markers" d=" M 458 959 L 458 955" stroke-miterlimit="10"/><path fill="none" stroke="black" paint-order="fill stroke markers" d=" M 474 959 L 474 955" stroke-miterlimit="10"/><path fill="none" stroke="black" paint-order="fill stroke markers" d=" M 489 959 L 489 955" stroke-miterlimit="10"/><path fill="none" stroke="black" paint-order="fill stroke markers" d=" M 505 959 L 505 955" stroke-miterlimit="10"/><path fill="none" stroke="black" paint-order="fill stroke markers" d=" M 520 959 L 520 955" stroke-miterlimit="10"/><path fill="none" stroke="black" paint-order="fill stroke markers" d=" M 536 959 L 536 955" stroke-miterlimit="10"/><path fill="none" stroke="black" paint-order="fill stroke markers" d=" M 551 959 L 551 955" stroke-miterlimit="10"/><path fill="none" stroke="black" paint-order="fill stroke markers" d=" M 567 959 L 567 955" stroke-miterlimit="10"/><path fill="none" stroke="black" paint-order="fill stroke markers" d=" M 582 959 L 582 955" stroke-miterlimit="10"/><path fill="none" stroke="black" paint-order="fill stroke markers" d=" M 597 959 L 597 955" stroke-miterlimit="10"/><path fill="none" stroke="black" paint-order="fill stroke markers" d=" M 613 959 L 613 955" stroke-miterlimit="10"/><path fill="none" stroke="black" paint-order="fill stroke markers" d=" M 628 959 L 628 955" stroke-miterlimit="10"/><path fill="" stroke="black" paint-order="fill stroke markers" d=" M 644 959 L 644 955" stroke-miterlimit="10"/><g transform="translate(242,966) rotate(0,0,0)"><text fill="" stroke="none" font-family="helvetica" font-size="8pt" font-style="normal" font-weight="normal" text-decoration="normal" x="0" y="0" text-anchor="middle" dominant-baseline="hanging">0</text><g transform="rotate(0,0,0) translate(-242,-966) translate(319,966) rotate(0,0,0)"><text fill="" stroke="none" font-family="helvetica" font-size="8pt" font-style="normal" font-weight="normal" text-decoration="normal" x="0" y="0" text-anchor="middle" dominant-baseline="hanging">1000</text><g transform="rotate(0,0,0) translate(-319,-966) translate(397,966) rotate(0,0,0)"><text fill="" stroke="none" font-family="helvetica" font-size="8pt" font-style="normal" font-weight="normal" text-decoration="normal" x="0" y="0" text-anchor="middle" dominant-baseline="hanging">2000</text><g transform="rotate(0,0,0) translate(-397,-966) translate(474,966) rotate(0,0,0)"><text fill="" stroke="none" font-family="helvetica" font-size="8pt" font-style="normal" font-weight="normal" text-decoration="normal" x="0" y="0" text-anchor="middle" dominant-baseline="hanging">3000</text><g transform="rotate(0,0,0) translate(-474,-966) translate(551,966) rotate(0,0,0)"><text fill="" stroke="none" font-family="helvetica" font-size="8pt" font-style="normal" font-weight="normal" text-decoration="normal" x="0" y="0" text-anchor="middle" dominant-baseline="hanging">4000</text><g transform="rotate(0,0,0) translate(-551,-966) translate(628,966) rotate(0,0,0)"><text fill="" stroke="none" font-family="helvetica" font-size="8pt" font-style="normal" font-weight="normal" text-decoration="normal" x="0" y="0" text-anchor="middle" dominant-baseline="hanging">5000</text><g transform="rotate(0,0,0) translate(-628,-966) translate(446,984) rotate(0,0,0)"><text fill="" stroke="none" font-family="helvetica" font-size="10pt" font-style="italic" font-weight="normal" text-decoration="normal" x="0" y="0" text-anchor="middle" dominant-baseline="hanging">Respondents</text><g transform="rotate(0,0,0) translate(-446,-984)"/></g></g></g></g></g></g></g></g><g fill="#444444"><path fill="none" stroke="black" paint-order="fill stroke markers" d=" M 242 955 L 242 28" stroke-miterlimit="10"/><path fill="none" stroke="black" paint-order="fill stroke markers" d=" M 236 932 L 244 932" stroke-miterlimit="10"/><path fill="none" stroke="black" paint-order="fill stroke markers" d=" M 236 885 L 244 885" stroke-miterlimit="10"/><path fill="none" stroke="black" paint-order="fill stroke markers" d=" M 236 839 L 244 839" stroke-miterlimit="10"/><path fill="none" stroke="black" paint-order="fill stroke markers" d=" M 236 793 L 244 793" stroke-miterlimit="10"/><path fill="none" stroke="black" paint-order="fill stroke markers" d=" M 236 746 L 244 746" stroke-miterlimit="10"/><path fill="none" stroke="black" paint-order="fill stroke markers" d=" M 236 700 L 244 700" stroke-miterlimit="10"/><path fill="none" stroke="black" paint-order="fill stroke markers" d=" M 236 654 L 244 654" stroke-miterlimit="10"/><path fill="none" stroke="black" paint-order="fill stroke markers" d=" M 236 607 L 244 607" stroke-miterlimit="10"/><path fill="none" stroke="black" paint-order="fill stroke markers" d=" M 236 561 L 244 561" stroke-miterlimit="10"/><path fill="none" stroke="black" paint-order="fill stroke markers" d=" M 236 515 L 244 515" stroke-miterlimit="10"/><path fill="none" stroke="black" paint-order="fill stroke markers" d=" M 236 468 L 244 468" stroke-miterlimit="10"/><path fill="none" stroke="black" paint-order="fill stroke markers" d=" M 236 422 L 244 422" stroke-miterlimit="10"/><path fill="none" stroke="black" paint-order="fill stroke markers" d=" M 236 376 L 244 376" stroke-miterlimit="10"/><path fill="none" stroke="black" paint-order="fill stroke markers" d=" M 236 329 L 244 329" stroke-miterlimit="10"/><path fill="none" stroke="black" paint-order="fill stroke markers" d=" M 236 283 L 244 283" stroke-miterlimit="10"/><path fill="none" stroke="black" paint-order="fill stroke markers" d=" M 236 237 L 244 237" stroke-miterlimit="10"/><path fill="none" stroke="black" paint-order="fill stroke markers" d=" M 236 190 L 244 190" stroke-miterlimit="10"/><path fill="none" stroke="black" paint-order="fill stroke markers" d=" M 236 144 L 244 144" stroke-miterlimit="10"/><path fill="none" stroke="black" paint-order="fill stroke markers" d=" M 236 98 L 244 98" stroke-miterlimit="10"/><path fill="" stroke="black" paint-order="fill stroke markers" d=" M 236 51 L 244 51" stroke-miterlimit="10"/><g transform="translate(231,932) rotate(0,0,0)"><text fill="" stroke="none" font-family="helvetica" font-size="8pt" font-style="normal" font-weight="normal" text-decoration="normal" x="0" y="0" text-anchor="end" dominant-baseline="central">AI and machine learning</text><g transform="rotate(0,0,0) translate(-231,-932) translate(231,885) rotate(0,0,0)"><text fill="" stroke="none" font-family="helvetica" font-size="8pt" font-style="normal" font-weight="normal" text-decoration="normal" x="0" y="0" text-anchor="end" dominant-baseline="central">Augmented Reality</text><g transform="rotate(0,0,0) translate(-231,-885) translate(231,839) rotate(0,0,0)"><text fill="" stroke="none" font-family="helvetica" font-size="8pt" font-style="normal" font-weight="normal" text-decoration="normal" x="0" y="0" text-anchor="end" dominant-baseline="central">Virtual Reality</text><g transform="rotate(0,0,0) translate(-231,-839) translate(231,793) rotate(0,0,0)"><text fill="" stroke="none" font-family="helvetica" font-size="8pt" font-style="normal" font-weight="normal" text-decoration="normal" x="0" y="0" text-anchor="end" dominant-baseline="central">Behavior tracking and modeling</text><g transform="rotate(0,0,0) translate(-231,-793) translate(231,746) rotate(0,0,0)"><text fill="" stroke="none" font-family="helvetica" font-size="8pt" font-style="normal" font-weight="normal" text-decoration="normal" x="0" y="0" text-anchor="end" dominant-baseline="central">Internet of Things</text><g transform="rotate(0,0,0) translate(-231,-746) translate(231,700) rotate(0,0,0)"><text fill="" stroke="none" font-family="helvetica" font-size="8pt" font-style="normal" font-weight="normal" text-decoration="normal" x="0" y="0" text-anchor="end" dominant-baseline="central">Algorithmic design</text><g transform="rotate(0,0,0) translate(-231,-700) translate(231,654) rotate(0,0,0)"><text fill="" stroke="none" font-family="helvetica" font-size="8pt" font-style="normal" font-weight="normal" text-decoration="normal" x="0" y="0" text-anchor="end" dominant-baseline="central">Distributed teams and virtual workplace</text><g transform="rotate(0,0,0) translate(-231,-654) translate(231,607) rotate(0,0,0)"><text fill="" stroke="none" font-family="helvetica" font-size="8pt" font-style="normal" font-weight="normal" text-decoration="normal" x="0" y="0" text-anchor="end" dominant-baseline="central">3D printing</text><g transform="rotate(0,0,0) translate(-231,-607) translate(231,561) rotate(0,0,0)"><text fill="" stroke="none" font-family="helvetica" font-size="8pt" font-style="normal" font-weight="normal" text-decoration="normal" x="0" y="0" text-anchor="end" dominant-baseline="central">Democratization of design</text><g transform="rotate(0,0,0) translate(-231,-561) translate(231,515) rotate(0,0,0)"><text fill="" stroke="none" font-family="helvetica" font-size="8pt" font-style="normal" font-weight="normal" text-decoration="normal" x="0" y="0" text-anchor="end" dominant-baseline="central">Facial and voice recognition</text><g transform="rotate(0,0,0) translate(-231,-515) translate(231,468) rotate(0,0,0)"><text fill="" stroke="none" font-family="helvetica" font-size="8pt" font-style="normal" font-weight="normal" text-decoration="normal" x="0" y="0" text-anchor="end" dominant-baseline="central">Crowdsourcing and open source</text><g transform="rotate(0,0,0) translate(-231,-468) translate(231,422) rotate(0,0,0)"><text fill="" stroke="none" font-family="helvetica" font-size="8pt" font-style="normal" font-weight="normal" text-decoration="normal" x="0" y="0" text-anchor="end" dominant-baseline="central">Conversational interfaces</text><g transform="rotate(0,0,0) translate(-231,-422) translate(231,376) rotate(0,0,0)"><text fill="" stroke="none" font-family="helvetica" font-size="8pt" font-style="normal" font-weight="normal" text-decoration="normal" x="0" y="0" text-anchor="end" dominant-baseline="central">Image recognition</text><g transform="rotate(0,0,0) translate(-231,-376) translate(231,329) rotate(0,0,0)"><text fill="" stroke="none" font-family="helvetica" font-size="8pt" font-style="normal" font-weight="normal" text-decoration="normal" x="0" y="0" text-anchor="end" dominant-baseline="central">Human augmentation</text><g transform="rotate(0,0,0) translate(-231,-329) translate(231,283) rotate(0,0,0)"><text fill="" stroke="none" font-family="helvetica" font-size="8pt" font-style="normal" font-weight="normal" text-decoration="normal" x="0" y="0" text-anchor="end" dominant-baseline="central">Biological or genetic design</text><g transform="rotate(0,0,0) translate(-231,-283) translate(231,237) rotate(0,0,0)"><text fill="" stroke="none" font-family="helvetica" font-size="8pt" font-style="normal" font-weight="normal" text-decoration="normal" x="0" y="0" text-anchor="end" dominant-baseline="central">Battery and energy technology</text><g transform="rotate(0,0,0) translate(-231,-237) translate(231,190) rotate(0,0,0)"><text fill="" stroke="none" font-family="helvetica" font-size="8pt" font-style="normal" font-weight="normal" text-decoration="normal" x="0" y="0" text-anchor="end" dominant-baseline="central">Quantum computing</text><g transform="rotate(0,0,0) translate(-231,-190) translate(231,144) rotate(0,0,0)"><text fill="" stroke="none" font-family="helvetica" font-size="8pt" font-style="normal" font-weight="normal" text-decoration="normal" x="0" y="0" text-anchor="end" dominant-baseline="central">Miniaturization and nanotechnology</text><g transform="rotate(0,0,0) translate(-231,-144) translate(231,98) rotate(0,0,0)"><text fill="" stroke="none" font-family="helvetica" font-size="8pt" font-style="normal" font-weight="normal" text-decoration="normal" x="0" y="0" text-anchor="end" dominant-baseline="central">Networked device ubiquity</text><g transform="rotate(0,0,0) translate(-231,-98) translate(231,51) rotate(0,0,0)"><text fill="" stroke="none" font-family="helvetica" font-size="8pt" font-style="normal" font-weight="normal" text-decoration="normal" x="0" y="0" text-anchor="end" dominant-baseline="central">None of these</text><g transform="rotate(0,0,0) translate(-231,-51) translate(15,492) rotate(-90,0,0)"><text fill="" stroke="none" font-family="helvetica" font-size="10pt" font-style="italic" font-weight="normal" text-decoration="normal" x="0" y="0" text-anchor="middle" dominant-baseline="alphabetic">Categories</text><g transform="rotate(90,0,0) translate(-15,-492)"/></g></g></g></g></g></g></g></g></g></g></g></g></g></g></g></g></g></g></g></g></g></g><g fill="#444444"><path fill="" stroke="none" d=""/><g transform="translate(242,23)"><path fill="none" stroke="none"/><text fill="" stroke="none" font-family="helvetica" font-size="10pt" font-style="normal" font-weight="bold" text-decoration="normal" x="0" y="0" text-anchor="start" dominant-baseline="text-after-edge">NotAIGA: The emerging trends and technologies that will have the biggest impact on design are (answer optional):</text></g></g></g></g></g></svg>