<svg version="1.1" xmlns="http://www.w3.org/2000/svg" xmlns:xlink="http://www.w3.org/1999/xlink" width="700" height="300" style="width: 700px; height: 300px;"><defs/><g><g transform="scale(1,1) translate(0.5,0.5)"><rect fill="#FFFFFF" stroke="none" x="0" y="0" width="700" height="300"/><rect fill="#ffffff" stroke="none" x="0" y="0" width="700" height="300"/><rect fill="#FFFFFF" stroke="none" x="121" y="28" width="529" height="227"/><rect fill="#ffffff" stroke="none" x="121" y="28" width="529" height="227"/><g><rect fill="none" stroke="#e5e5e5" x="121" y="28" width="529" height="227" stroke-miterlimit="10"/></g><g><g><path fill="none" stroke="#e5e5e5" paint-order="fill stroke markers" d=" M 208 255 L 208 28" stroke-miterlimit="10"/><path fill="none" stroke="#e5e5e5" paint-order="fill stroke markers" d=" M 294 255 L 294 28" stroke-miterlimit="10"/><path fill="none" stroke="#e5e5e5" paint-order="fill stroke markers" d=" M 381 255 L 381 28" stroke-miterlimit="10"/><path fill="none" stroke="#e5e5e5" paint-order="fill stroke markers" d=" M 467 255 L 467 28" stroke-miterlimit="10"/><path fill="none" stroke="#e5e5e5" paint-order="fill stroke markers" d=" M 554 255 L 554 28" stroke-miterlimit="10"/><path fill="none" stroke="#e5e5e5" paint-order="fill stroke markers" d=" M 640 255 L 640 28" stroke-miterlimit="10"/></g><g><path fill="none" stroke="#e5e5e5" paint-order="fill stroke markers" d=" M 121 236 L 650 236" stroke-miterlimit="10"/><path fill="none" stroke="#e5e5e5" paint-order="fill stroke markers" d=" M 121 198 L 650 198" stroke-miterlimit="10"/><path fill="none" stroke="#e5e5e5" paint-order="fill stroke markers" d=" M 121 160 L 650 160" stroke-miterlimit="10"/><path fill="none" stroke="#e5e5e5" paint-order="fill stroke markers" d=" M 121 123 L 650 123" stroke-miterlimit="10"/><path fill="none" stroke="#e5e5e5" paint-order="fill stroke markers" d=" M 121 85 L 650 85" stroke-miterlimit="10"/><path fill="none" stroke="#e5e5e5" paint-order="fill stroke markers" d=" M 121 47 L 650 47" stroke-miterlimit="10"/></g><g><path fill="none" stroke="none"/><rect fill="#1f77b4" stroke="none" x="121" y="221.89583333333331" width="432.182757718472" height="28.375000000000057"/><path fill="none" stroke="#1f77b4" paint-order="fill stroke markers" d=" M 121 221.89583333333331 L 553.182757718472 221.89583333333331 L 553.182757718472 250.27083333333337 L 121 250.27083333333337 L 121 221.89583333333331 Z" stroke-miterlimit="10"/><rect fill="#1f77b4" stroke="none" x="121" y="184.0625" width="407.2690999476713" height="28.375"/><path fill="none" stroke="#1f77b4" paint-order="fill stroke markers" d=" M 121 184.0625 L 528.2690999476713 184.0625 L 528.2690999476713 212.4375 L 121 212.4375 L 121 184.0625 Z" stroke-miterlimit="10"/><rect fill="#1f77b4" stroke="none" x="121" y="146.22916666666666" width="224.39593144950288" height="28.375"/><path fill="none" stroke="#1f77b4" paint-order="fill stroke markers" d=" M 121 146.22916666666666 L 345.3959314495029 146.22916666666666 L 345.3959314495029 174.60416666666666 L 121 174.60416666666666 L 121 146.22916666666666 Z" stroke-miterlimit="10"/><rect fill="#1f77b4" stroke="none" x="121" y="108.39583333333331" width="126.8174385138671" height="28.375"/><path fill="none" stroke="#1f77b4" paint-order="fill stroke markers" d=" M 121 108.39583333333331 L 247.8174385138671 108.39583333333331 L 247.8174385138671 136.77083333333331 L 121 136.77083333333331 L 121 108.39583333333331 Z" stroke-miterlimit="10"/><rect fill="#1f77b4" stroke="none" x="121" y="70.5625" width="101.90378074306648" height="28.375"/><path fill="none" stroke="#1f77b4" paint-order="fill stroke markers" d=" M 121 70.5625 L 222.90378074306648 70.5625 L 222.90378074306648 98.9375 L 121 98.9375 L 121 70.5625 Z" stroke-miterlimit="10"/><rect fill="#1f77b4" stroke="none" x="121" y="32.72916666666666" width="63.66823652537937" height="28.375"/><path fill="none" stroke="#1f77b4" paint-order="fill stroke markers" d=" M 121 32.72916666666666 L 184.66823652537937 32.72916666666666 L 184.66823652537937 61.10416666666666 L 121 61.10416666666666 L 121 32.72916666666666 Z" stroke-miterlimit="10"/></g><g fill="#444444"><path fill="" stroke="none" d=""/><g transform="translate(563.182757718472,234.08333333333334) rotate(0,0,0)"><path fill="none" stroke="none"/><text fill="" stroke="none" font-family="helvetica" font-size="8pt" font-style="normal" font-weight="normal" text-decoration="normal" x="0" y="0" text-anchor="start" dominant-baseline="text-after-edge">31.87%</text></g></g><g fill="#444444"><path fill="" stroke="none" d=""/><g transform="translate(538.2690999476713,196.25) rotate(0,0,0)"><path fill="none" stroke="none"/><text fill="" stroke="none" font-family="helvetica" font-size="8pt" font-style="normal" font-weight="normal" text-decoration="normal" x="0" y="0" text-anchor="start" dominant-baseline="text-after-edge">30.03%</text></g></g><g fill="#444444"><path fill="" stroke="none" d=""/><g transform="translate(355.3959314495029,158.41666666666666) rotate(0,0,0)"><path fill="none" stroke="none"/><text fill="" stroke="none" font-family="helvetica" font-size="8pt" font-style="normal" font-weight="normal" text-decoration="normal" x="0" y="0" text-anchor="start" dominant-baseline="text-after-edge">16.55%</text></g></g><g fill="#444444"><path fill="" stroke="none" d=""/><g transform="translate(257.8174385138671,120.58333333333331) rotate(0,0,0)"><path fill="none" stroke="none"/><text fill="" stroke="none" font-family="helvetica" font-size="8pt" font-style="normal" font-weight="normal" text-decoration="normal" x="0" y="0" text-anchor="start" dominant-baseline="text-after-edge">9.35%</text></g></g><g fill="#444444"><path fill="" stroke="none" d=""/><g transform="translate(232.90378074306648,82.75) rotate(0,0,0)"><path fill="none" stroke="none"/><text fill="" stroke="none" font-family="helvetica" font-size="8pt" font-style="normal" font-weight="normal" text-decoration="normal" x="0" y="0" text-anchor="start" dominant-baseline="text-after-edge">7.51%</text></g></g><g fill="#444444"><path fill="" stroke="none" d=""/><g transform="translate(194.66823652537937,44.91666666666666) rotate(0,0,0)"><path fill="none" stroke="none"/><text fill="" stroke="none" font-family="helvetica" font-size="8pt" font-style="normal" font-weight="normal" text-decoration="normal" x="0" y="0" text-anchor="start" dominant-baseline="text-after-edge">4.69%</text></g></g><g fill="#444444"><path fill="" stroke="none" d=""/><g transform="translate(563.182757718472,248.08333333333334) rotate(0,0,0)"><path fill="none" stroke="none"/><text fill="" stroke="none" font-family="helvetica" font-size="8pt" font-style="normal" font-weight="normal" text-decoration="normal" x="0" y="0" text-anchor="start" dominant-baseline="text-after-edge">2498</text></g></g><g fill="#444444"><path fill="" stroke="none" d=""/><g transform="translate(538.2690999476713,210.25) rotate(0,0,0)"><path fill="none" stroke="none"/><text fill="" stroke="none" font-family="helvetica" font-size="8pt" font-style="normal" font-weight="normal" text-decoration="normal" x="0" y="0" text-anchor="start" dominant-baseline="text-after-edge">2354</text></g></g><g fill="#444444"><path fill="" stroke="none" d=""/><g transform="translate(355.3959314495029,172.41666666666666) rotate(0,0,0)"><path fill="none" stroke="none"/><text fill="" stroke="none" font-family="helvetica" font-size="8pt" font-style="normal" font-weight="normal" text-decoration="normal" x="0" y="0" text-anchor="start" dominant-baseline="text-after-edge">1297</text></g></g><g fill="#444444"><path fill="" stroke="none" d=""/><g transform="translate(257.8174385138671,134.58333333333331) rotate(0,0,0)"><path fill="none" stroke="none"/><text fill="" stroke="none" font-family="helvetica" font-size="8pt" font-style="normal" font-weight="normal" text-decoration="normal" x="0" y="0" text-anchor="start" dominant-baseline="text-after-edge">733</text></g></g><g fill="#444444"><path fill="" stroke="none" d=""/><g transform="translate(232.90378074306648,96.75) rotate(0,0,0)"><path fill="none" stroke="none"/><text fill="" stroke="none" font-family="helvetica" font-size="8pt" font-style="normal" font-weight="normal" text-decoration="normal" x="0" y="0" text-anchor="start" dominant-baseline="text-after-edge">589</text></g></g><g fill="#444444"><path fill="" stroke="none" d=""/><g transform="translate(194.66823652537937,58.91666666666666) rotate(0,0,0)"><path fill="none" stroke="none"/><text fill="" stroke="none" font-family="helvetica" font-size="8pt" font-style="normal" font-weight="normal" text-decoration="normal" x="0" y="0" text-anchor="start" dominant-baseline="text-after-edge">368</text></g></g></g><g/><g><g fill="#444444"><path fill="none" stroke="black" paint-order="fill stroke markers" d=" M 121 255 L 650 255" stroke-miterlimit="10"/><path fill="none" stroke="black" paint-order="fill stroke markers" d=" M 121 261 L 121 253" stroke-miterlimit="10"/><path fill="none" stroke="black" paint-order="fill stroke markers" d=" M 208 261 L 208 253" stroke-miterlimit="10"/><path fill="none" stroke="black" paint-order="fill stroke markers" d=" M 294 261 L 294 253" stroke-miterlimit="10"/><path fill="none" stroke="black" paint-order="fill stroke markers" d=" M 381 261 L 381 253" stroke-miterlimit="10"/><path fill="none" stroke="black" paint-order="fill stroke markers" d=" M 467 261 L 467 253" stroke-miterlimit="10"/><path fill="none" stroke="black" paint-order="fill stroke markers" d=" M 554 261 L 554 253" stroke-miterlimit="10"/><path fill="none" stroke="black" paint-order="fill stroke markers" d=" M 640 261 L 640 253" stroke-miterlimit="10"/><path fill="none" stroke="black" paint-order="fill stroke markers" d=" M 121 259 L 121 255" stroke-miterlimit="10"/><path fill="none" stroke="black" paint-order="fill stroke markers" d=" M 138 259 L 138 255" stroke-miterlimit="10"/><path fill="none" stroke="black" paint-order="fill stroke markers" d=" M 156 259 L 156 255" stroke-miterlimit="10"/><path fill="none" stroke="black" paint-order="fill stroke markers" d=" M 173 259 L 173 255" stroke-miterlimit="10"/><path fill="none" stroke="black" paint-order="fill stroke markers" d=" M 190 259 L 190 255" stroke-miterlimit="10"/><path fill="none" stroke="black" paint-order="fill stroke markers" d=" M 208 259 L 208 255" stroke-miterlimit="10"/><path fill="none" stroke="black" paint-order="fill stroke markers" d=" M 225 259 L 225 255" stroke-miterlimit="10"/><path fill="none" stroke="black" paint-order="fill stroke markers" d=" M 242 259 L 242 255" stroke-miterlimit="10"/><path fill="none" stroke="black" paint-order="fill stroke markers" d=" M 259 259 L 259 255" stroke-miterlimit="10"/><path fill="none" stroke="black" paint-order="fill stroke markers" d=" M 277 259 L 277 255" stroke-miterlimit="10"/><path fill="none" stroke="black" paint-order="fill stroke markers" d=" M 294 259 L 294 255" stroke-miterlimit="10"/><path fill="none" stroke="black" paint-order="fill stroke markers" d=" M 311 259 L 311 255" stroke-miterlimit="10"/><path fill="none" stroke="black" paint-order="fill stroke markers" d=" M 329 259 L 329 255" stroke-miterlimit="10"/><path fill="none" stroke="black" paint-order="fill stroke markers" d=" M 346 259 L 346 255" stroke-miterlimit="10"/><path fill="none" stroke="black" paint-order="fill stroke markers" d=" M 363 259 L 363 255" stroke-miterlimit="10"/><path fill="none" stroke="black" paint-order="fill stroke markers" d=" M 381 259 L 381 255" stroke-miterlimit="10"/><path fill="none" stroke="black" paint-order="fill stroke markers" d=" M 398 259 L 398 255" stroke-miterlimit="10"/><path fill="none" stroke="black" paint-order="fill stroke markers" d=" M 415 259 L 415 255" stroke-miterlimit="10"/><path fill="none" stroke="black" paint-order="fill stroke markers" d=" M 432 259 L 432 255" stroke-miterlimit="10"/><path fill="none" stroke="black" paint-order="fill stroke markers" d=" M 450 259 L 450 255" stroke-miterlimit="10"/><path fill="none" stroke="black" paint-order="fill stroke markers" d=" M 467 259 L 467 255" stroke-miterlimit="10"/><path fill="none" stroke="black" paint-order="fill stroke markers" d=" M 484 259 L 484 255" stroke-miterlimit="10"/><path fill="none" stroke="black" paint-order="fill stroke markers" d=" M 502 259 L 502 255" stroke-miterlimit="10"/><path fill="none" stroke="black" paint-order="fill stroke markers" d=" M 519 259 L 519 255" stroke-miterlimit="10"/><path fill="none" stroke="black" paint-order="fill stroke markers" d=" M 536 259 L 536 255" stroke-miterlimit="10"/><path fill="none" stroke="black" paint-order="fill stroke markers" d=" M 554 259 L 554 255" stroke-miterlimit="10"/><path fill="none" stroke="black" paint-order="fill stroke markers" d=" M 571 259 L 571 255" stroke-miterlimit="10"/><path fill="none" stroke="black" paint-order="fill stroke markers" d=" M 588 259 L 588 255" stroke-miterlimit="10"/><path fill="none" stroke="black" paint-order="fill stroke markers" d=" M 605 259 L 605 255" stroke-miterlimit="10"/><path fill="none" stroke="black" paint-order="fill stroke markers" d=" M 623 259 L 623 255" stroke-miterlimit="10"/><path fill="" stroke="black" paint-order="fill stroke markers" d=" M 640 259 L 640 255" stroke-miterlimit="10"/><g transform="translate(121,266) rotate(0,0,0)"><text fill="" stroke="none" font-family="helvetica" font-size="8pt" font-style="normal" font-weight="normal" text-decoration="normal" x="0" y="0" text-anchor="middle" dominant-baseline="hanging">0</text><g transform="rotate(0,0,0) translate(-121,-266) translate(208,266) rotate(0,0,0)"><text fill="" stroke="none" font-family="helvetica" font-size="8pt" font-style="normal" font-weight="normal" text-decoration="normal" x="0" y="0" text-anchor="middle" dominant-baseline="hanging">500</text><g transform="rotate(0,0,0) translate(-208,-266) translate(294,266) rotate(0,0,0)"><text fill="" stroke="none" font-family="helvetica" font-size="8pt" font-style="normal" font-weight="normal" text-decoration="normal" x="0" y="0" text-anchor="middle" dominant-baseline="hanging">1000</text><g transform="rotate(0,0,0) translate(-294,-266) translate(381,266) rotate(0,0,0)"><text fill="" stroke="none" font-family="helvetica" font-size="8pt" font-style="normal" font-weight="normal" text-decoration="normal" x="0" y="0" text-anchor="middle" dominant-baseline="hanging">1500</text><g transform="rotate(0,0,0) translate(-381,-266) translate(467,266) rotate(0,0,0)"><text fill="" stroke="none" font-family="helvetica" font-size="8pt" font-style="normal" font-weight="normal" text-decoration="normal" x="0" y="0" text-anchor="middle" dominant-baseline="hanging">2000</text><g transform="rotate(0,0,0) translate(-467,-266) translate(554,266) rotate(0,0,0)"><text fill="" stroke="none" font-family="helvetica" font-size="8pt" font-style="normal" font-weight="normal" text-decoration="normal" x="0" y="0" text-anchor="middle" dominant-baseline="hanging">2500</text><g transform="rotate(0,0,0) translate(-554,-266) translate(640,266) rotate(0,0,0)"><text fill="" stroke="none" font-family="helvetica" font-size="8pt" font-style="normal" font-weight="normal" text-decoration="normal" x="0" y="0" text-anchor="middle" dominant-baseline="hanging">3000</text><g transform="rotate(0,0,0) translate(-640,-266) translate(386,284) rotate(0,0,0)"><text fill="" stroke="none" font-family="helvetica" font-size="10pt" font-style="italic" font-weight="normal" text-decoration="normal" x="0" y="0" text-anchor="middle" dominant-baseline="hanging">Respondents</text><g transform="rotate(0,0,0) translate(-386,-284)"/></g></g></g></g></g></g></g></g></g><g fill="#444444"><path fill="none" stroke="black" paint-order="fill stroke markers" d=" M 121 255 L 121 28" stroke-miterlimit="10"/><path fill="none" stroke="black" paint-order="fill stroke markers" d=" M 115 236 L 123 236" stroke-miterlimit="10"/><path fill="none" stroke="black" paint-order="fill stroke markers" d=" M 115 198 L 123 198" stroke-miterlimit="10"/><path fill="none" stroke="black" paint-order="fill stroke markers" d=" M 115 160 L 123 160" stroke-miterlimit="10"/><path fill="none" stroke="black" paint-order="fill stroke markers" d=" M 115 123 L 123 123" stroke-miterlimit="10"/><path fill="none" stroke="black" paint-order="fill stroke markers" d=" M 115 85 L 123 85" stroke-miterlimit="10"/><path fill="" stroke="black" paint-order="fill stroke markers" d=" M 115 47 L 123 47" stroke-miterlimit="10"/><g transform="translate(110,236) rotate(0,0,0)"><text fill="" stroke="none" font-family="helvetica" font-size="8pt" font-style="normal" font-weight="normal" text-decoration="normal" x="0" y="0" text-anchor="end" dominant-baseline="central">1-4 years</text><g transform="rotate(0,0,0) translate(-110,-236) translate(110,198) rotate(0,0,0)"><text fill="" stroke="none" font-family="helvetica" font-size="8pt" font-style="normal" font-weight="normal" text-decoration="normal" x="0" y="0" text-anchor="end" dominant-baseline="central">5-9 years</text><g transform="rotate(0,0,0) translate(-110,-198) translate(110,160) rotate(0,0,0)"><text fill="" stroke="none" font-family="helvetica" font-size="8pt" font-style="normal" font-weight="normal" text-decoration="normal" x="0" y="0" text-anchor="end" dominant-baseline="central">10-14 years</text><g transform="rotate(0,0,0) translate(-110,-160) translate(110,123) rotate(0,0,0)"><text fill="" stroke="none" font-family="helvetica" font-size="8pt" font-style="normal" font-weight="normal" text-decoration="normal" x="0" y="0" text-anchor="end" dominant-baseline="central">15-20 years</text><g transform="rotate(0,0,0) translate(-110,-123) translate(110,85) rotate(0,0,0)"><text fill="" stroke="none" font-family="helvetica" font-size="8pt" font-style="normal" font-weight="normal" text-decoration="normal" x="0" y="0" text-anchor="end" dominant-baseline="central">20+ years</text><g transform="rotate(0,0,0) translate(-110,-85) translate(110,47) rotate(0,0,0)"><text fill="" stroke="none" font-family="helvetica" font-size="8pt" font-style="normal" font-weight="normal" text-decoration="normal" x="0" y="0" text-anchor="end" dominant-baseline="central">Less than 1 year</text><g transform="rotate(0,0,0) translate(-110,-47) translate(16,142) rotate(-90,0,0)"><text fill="" stroke="none" font-family="helvetica" font-size="10pt" font-style="italic" font-weight="normal" text-decoration="normal" x="0" y="0" text-anchor="middle" dominant-baseline="alphabetic">Categories</text><g transform="rotate(90,0,0) translate(-16,-142)"/></g></g></g></g></g></g></g></g><g fill="#444444"><path fill="" stroke="none" d=""/><g transform="translate(121,23)"><path fill="none" stroke="none"/><text fill="" stroke="none" font-family="helvetica" font-size="10pt" font-style="normal" font-weight="bold" text-decoration="normal" x="0" y="0" text-anchor="start" dominant-baseline="text-after-edge">NotAIGA:  I've worked in design for:</text></g></g></g></g></g></svg>