<svg version="1.1" xmlns="http://www.w3.org/2000/svg" xmlns:xlink="http://www.w3.org/1999/xlink" width="700" height="300" style="width: 700px; height: 300px;"><defs/><g><g transform="scale(1,1) translate(0.5,0.5)"><rect fill="#FFFFFF" stroke="none" x="0" y="0" width="700" height="300"/><rect fill="#ffffff" stroke="none" x="0" y="0" width="700" height="300"/><rect fill="#FFFFFF" stroke="none" x="120" y="28" width="530" height="227"/><rect fill="#ffffff" stroke="none" x="120" y="28" width="530" height="227"/><g><rect fill="none" stroke="#e5e5e5" x="120" y="28" width="530" height="227" stroke-miterlimit="10"/></g><g><g><path fill="none" stroke="#e5e5e5" paint-order="fill stroke markers" d=" M 244 255 L 244 28" stroke-miterlimit="10"/><path fill="none" stroke="#e5e5e5" paint-order="fill stroke markers" d=" M 368 255 L 368 28" stroke-miterlimit="10"/><path fill="none" stroke="#e5e5e5" paint-order="fill stroke markers" d=" M 492 255 L 492 28" stroke-miterlimit="10"/><path fill="none" stroke="#e5e5e5" paint-order="fill stroke markers" d=" M 616 255 L 616 28" stroke-miterlimit="10"/></g><g><path fill="none" stroke="#e5e5e5" paint-order="fill stroke markers" d=" M 120 236 L 650 236" stroke-miterlimit="10"/><path fill="none" stroke="#e5e5e5" paint-order="fill stroke markers" d=" M 120 198 L 650 198" stroke-miterlimit="10"/><path fill="none" stroke="#e5e5e5" paint-order="fill stroke markers" d=" M 120 160 L 650 160" stroke-miterlimit="10"/><path fill="none" stroke="#e5e5e5" paint-order="fill stroke markers" d=" M 120 123 L 650 123" stroke-miterlimit="10"/><path fill="none" stroke="#e5e5e5" paint-order="fill stroke markers" d=" M 120 85 L 650 85" stroke-miterlimit="10"/><path fill="none" stroke="#e5e5e5" paint-order="fill stroke markers" d=" M 120 47 L 650 47" stroke-miterlimit="10"/></g><g><path fill="none" stroke="none"/><rect fill="#1f77b4" stroke="none" x="120" y="221.89583333333331" width="435.4687061465057" height="28.375000000000057"/><path fill="none" stroke="#1f77b4" paint-order="fill stroke markers" d=" M 120 221.89583333333331 L 555.4687061465057 221.89583333333331 L 555.4687061465057 250.27083333333337 L 120 250.27083333333337 L 120 221.89583333333331 Z" stroke-miterlimit="10"/><rect fill="#1f77b4" stroke="none" x="120" y="184.0625" width="239.73711291982409" height="28.375"/><path fill="none" stroke="#1f77b4" paint-order="fill stroke markers" d=" M 120 184.0625 L 359.7371129198241 184.0625 L 359.7371129198241 212.4375 L 120 212.4375 L 120 184.0625 Z" stroke-miterlimit="10"/><rect fill="#1f77b4" stroke="none" x="120" y="146.22916666666666" width="140.94162222845915" height="28.375"/><path fill="none" stroke="#1f77b4" paint-order="fill stroke markers" d=" M 120 146.22916666666666 L 260.94162222845915 146.22916666666666 L 260.94162222845915 174.60416666666666 L 120 174.60416666666666 L 120 146.22916666666666 Z" stroke-miterlimit="10"/><rect fill="#1f77b4" stroke="none" x="120" y="108.39583333333331" width="78.96201702685002" height="28.375"/><path fill="none" stroke="#1f77b4" paint-order="fill stroke markers" d=" M 120 108.39583333333331 L 198.96201702685002 108.39583333333331 L 198.96201702685002 136.77083333333331 L 120 136.77083333333331 L 120 108.39583333333331 Z" stroke-miterlimit="10"/><rect fill="#1f77b4" stroke="none" x="120" y="70.5625" width="47.47637758443258" height="28.375"/><path fill="none" stroke="#1f77b4" paint-order="fill stroke markers" d=" M 120 70.5625 L 167.47637758443258 70.5625 L 167.47637758443258 98.9375 L 120 98.9375 L 120 70.5625 Z" stroke-miterlimit="10"/><rect fill="#1f77b4" stroke="none" x="120" y="32.72916666666666" width="29.130414444756298" height="28.375"/><path fill="none" stroke="#1f77b4" paint-order="fill stroke markers" d=" M 120 32.72916666666666 L 149.1304144447563 32.72916666666666 L 149.1304144447563 61.10416666666666 L 120 61.10416666666666 L 120 32.72916666666666 Z" stroke-miterlimit="10"/></g><g fill="#444444"><path fill="" stroke="none" d=""/><g transform="translate(565.4687061465057,234.08333333333334) rotate(0,0,0)"><path fill="none" stroke="none"/><text fill="" stroke="none" font-family="helvetica" font-size="8pt" font-style="normal" font-weight="normal" text-decoration="normal" x="0" y="0" text-anchor="start" dominant-baseline="text-after-edge">44.81%</text></g></g><g fill="#444444"><path fill="" stroke="none" d=""/><g transform="translate(369.7371129198241,196.25) rotate(0,0,0)"><path fill="none" stroke="none"/><text fill="" stroke="none" font-family="helvetica" font-size="8pt" font-style="normal" font-weight="normal" text-decoration="normal" x="0" y="0" text-anchor="start" dominant-baseline="text-after-edge">24.67%</text></g></g><g fill="#444444"><path fill="" stroke="none" d=""/><g transform="translate(270.94162222845915,158.41666666666666) rotate(0,0,0)"><path fill="none" stroke="none"/><text fill="" stroke="none" font-family="helvetica" font-size="8pt" font-style="normal" font-weight="normal" text-decoration="normal" x="0" y="0" text-anchor="start" dominant-baseline="text-after-edge">14.50%</text></g></g><g fill="#444444"><path fill="" stroke="none" d=""/><g transform="translate(208.96201702685002,120.58333333333331) rotate(0,0,0)"><path fill="none" stroke="none"/><text fill="" stroke="none" font-family="helvetica" font-size="8pt" font-style="normal" font-weight="normal" text-decoration="normal" x="0" y="0" text-anchor="start" dominant-baseline="text-after-edge">8.13%</text></g></g><g fill="#444444"><path fill="" stroke="none" d=""/><g transform="translate(177.47637758443258,82.75) rotate(0,0,0)"><path fill="none" stroke="none"/><text fill="" stroke="none" font-family="helvetica" font-size="8pt" font-style="normal" font-weight="normal" text-decoration="normal" x="0" y="0" text-anchor="start" dominant-baseline="text-after-edge">4.89%</text></g></g><g fill="#444444"><path fill="" stroke="none" d=""/><g transform="translate(159.1304144447563,44.91666666666666) rotate(0,0,0)"><path fill="none" stroke="none"/><text fill="" stroke="none" font-family="helvetica" font-size="8pt" font-style="normal" font-weight="normal" text-decoration="normal" x="0" y="0" text-anchor="start" dominant-baseline="text-after-edge">3.00%</text></g></g><g fill="#444444"><path fill="" stroke="none" d=""/><g transform="translate(565.4687061465057,248.08333333333334) rotate(0,0,0)"><path fill="none" stroke="none"/><text fill="" stroke="none" font-family="helvetica" font-size="8pt" font-style="normal" font-weight="normal" text-decoration="normal" x="0" y="0" text-anchor="start" dominant-baseline="text-after-edge">3513</text></g></g><g fill="#444444"><path fill="" stroke="none" d=""/><g transform="translate(369.7371129198241,210.25) rotate(0,0,0)"><path fill="none" stroke="none"/><text fill="" stroke="none" font-family="helvetica" font-size="8pt" font-style="normal" font-weight="normal" text-decoration="normal" x="0" y="0" text-anchor="start" dominant-baseline="text-after-edge">1934</text></g></g><g fill="#444444"><path fill="" stroke="none" d=""/><g transform="translate(270.94162222845915,172.41666666666666) rotate(0,0,0)"><path fill="none" stroke="none"/><text fill="" stroke="none" font-family="helvetica" font-size="8pt" font-style="normal" font-weight="normal" text-decoration="normal" x="0" y="0" text-anchor="start" dominant-baseline="text-after-edge">1137</text></g></g><g fill="#444444"><path fill="" stroke="none" d=""/><g transform="translate(208.96201702685002,134.58333333333331) rotate(0,0,0)"><path fill="none" stroke="none"/><text fill="" stroke="none" font-family="helvetica" font-size="8pt" font-style="normal" font-weight="normal" text-decoration="normal" x="0" y="0" text-anchor="start" dominant-baseline="text-after-edge">637</text></g></g><g fill="#444444"><path fill="" stroke="none" d=""/><g transform="translate(177.47637758443258,96.75) rotate(0,0,0)"><path fill="none" stroke="none"/><text fill="" stroke="none" font-family="helvetica" font-size="8pt" font-style="normal" font-weight="normal" text-decoration="normal" x="0" y="0" text-anchor="start" dominant-baseline="text-after-edge">383</text></g></g><g fill="#444444"><path fill="" stroke="none" d=""/><g transform="translate(159.1304144447563,58.91666666666666) rotate(0,0,0)"><path fill="none" stroke="none"/><text fill="" stroke="none" font-family="helvetica" font-size="8pt" font-style="normal" font-weight="normal" text-decoration="normal" x="0" y="0" text-anchor="start" dominant-baseline="text-after-edge">235</text></g></g></g><g/><g><g fill="#444444"><path fill="none" stroke="black" paint-order="fill stroke markers" d=" M 120 255 L 650 255" stroke-miterlimit="10"/><path fill="none" stroke="black" paint-order="fill stroke markers" d=" M 120 261 L 120 253" stroke-miterlimit="10"/><path fill="none" stroke="black" paint-order="fill stroke markers" d=" M 244 261 L 244 253" stroke-miterlimit="10"/><path fill="none" stroke="black" paint-order="fill stroke markers" d=" M 368 261 L 368 253" stroke-miterlimit="10"/><path fill="none" stroke="black" paint-order="fill stroke markers" d=" M 492 261 L 492 253" stroke-miterlimit="10"/><path fill="none" stroke="black" paint-order="fill stroke markers" d=" M 616 261 L 616 253" stroke-miterlimit="10"/><path fill="none" stroke="black" paint-order="fill stroke markers" d=" M 120 259 L 120 255" stroke-miterlimit="10"/><path fill="none" stroke="black" paint-order="fill stroke markers" d=" M 145 259 L 145 255" stroke-miterlimit="10"/><path fill="none" stroke="black" paint-order="fill stroke markers" d=" M 170 259 L 170 255" stroke-miterlimit="10"/><path fill="none" stroke="black" paint-order="fill stroke markers" d=" M 194 259 L 194 255" stroke-miterlimit="10"/><path fill="none" stroke="black" paint-order="fill stroke markers" d=" M 219 259 L 219 255" stroke-miterlimit="10"/><path fill="none" stroke="black" paint-order="fill stroke markers" d=" M 244 259 L 244 255" stroke-miterlimit="10"/><path fill="none" stroke="black" paint-order="fill stroke markers" d=" M 269 259 L 269 255" stroke-miterlimit="10"/><path fill="none" stroke="black" paint-order="fill stroke markers" d=" M 294 259 L 294 255" stroke-miterlimit="10"/><path fill="none" stroke="black" paint-order="fill stroke markers" d=" M 318 259 L 318 255" stroke-miterlimit="10"/><path fill="none" stroke="black" paint-order="fill stroke markers" d=" M 343 259 L 343 255" stroke-miterlimit="10"/><path fill="none" stroke="black" paint-order="fill stroke markers" d=" M 368 259 L 368 255" stroke-miterlimit="10"/><path fill="none" stroke="black" paint-order="fill stroke markers" d=" M 393 259 L 393 255" stroke-miterlimit="10"/><path fill="none" stroke="black" paint-order="fill stroke markers" d=" M 418 259 L 418 255" stroke-miterlimit="10"/><path fill="none" stroke="black" paint-order="fill stroke markers" d=" M 442 259 L 442 255" stroke-miterlimit="10"/><path fill="none" stroke="black" paint-order="fill stroke markers" d=" M 467 259 L 467 255" stroke-miterlimit="10"/><path fill="none" stroke="black" paint-order="fill stroke markers" d=" M 492 259 L 492 255" stroke-miterlimit="10"/><path fill="none" stroke="black" paint-order="fill stroke markers" d=" M 517 259 L 517 255" stroke-miterlimit="10"/><path fill="none" stroke="black" paint-order="fill stroke markers" d=" M 541 259 L 541 255" stroke-miterlimit="10"/><path fill="none" stroke="black" paint-order="fill stroke markers" d=" M 566 259 L 566 255" stroke-miterlimit="10"/><path fill="none" stroke="black" paint-order="fill stroke markers" d=" M 591 259 L 591 255" stroke-miterlimit="10"/><path fill="none" stroke="black" paint-order="fill stroke markers" d=" M 616 259 L 616 255" stroke-miterlimit="10"/><path fill="" stroke="black" paint-order="fill stroke markers" d=" M 641 259 L 641 255" stroke-miterlimit="10"/><g transform="translate(120,266) rotate(0,0,0)"><text fill="" stroke="none" font-family="helvetica" font-size="8pt" font-style="normal" font-weight="normal" text-decoration="normal" x="0" y="0" text-anchor="middle" dominant-baseline="hanging">0</text><g transform="rotate(0,0,0) translate(-120,-266) translate(244,266) rotate(0,0,0)"><text fill="" stroke="none" font-family="helvetica" font-size="8pt" font-style="normal" font-weight="normal" text-decoration="normal" x="0" y="0" text-anchor="middle" dominant-baseline="hanging">1000</text><g transform="rotate(0,0,0) translate(-244,-266) translate(368,266) rotate(0,0,0)"><text fill="" stroke="none" font-family="helvetica" font-size="8pt" font-style="normal" font-weight="normal" text-decoration="normal" x="0" y="0" text-anchor="middle" dominant-baseline="hanging">2000</text><g transform="rotate(0,0,0) translate(-368,-266) translate(492,266) rotate(0,0,0)"><text fill="" stroke="none" font-family="helvetica" font-size="8pt" font-style="normal" font-weight="normal" text-decoration="normal" x="0" y="0" text-anchor="middle" dominant-baseline="hanging">3000</text><g transform="rotate(0,0,0) translate(-492,-266) translate(616,266) rotate(0,0,0)"><text fill="" stroke="none" font-family="helvetica" font-size="8pt" font-style="normal" font-weight="normal" text-decoration="normal" x="0" y="0" text-anchor="middle" dominant-baseline="hanging">4000</text><g transform="rotate(0,0,0) translate(-616,-266) translate(385,284) rotate(0,0,0)"><text fill="" stroke="none" font-family="helvetica" font-size="10pt" font-style="italic" font-weight="normal" text-decoration="normal" x="0" y="0" text-anchor="middle" dominant-baseline="hanging">Respondents</text><g transform="rotate(0,0,0) translate(-385,-284)"/></g></g></g></g></g></g></g><g fill="#444444"><path fill="none" stroke="black" paint-order="fill stroke markers" d=" M 120 255 L 120 28" stroke-miterlimit="10"/><path fill="none" stroke="black" paint-order="fill stroke markers" d=" M 114 236 L 122 236" stroke-miterlimit="10"/><path fill="none" stroke="black" paint-order="fill stroke markers" d=" M 114 198 L 122 198" stroke-miterlimit="10"/><path fill="none" stroke="black" paint-order="fill stroke markers" d=" M 114 160 L 122 160" stroke-miterlimit="10"/><path fill="none" stroke="black" paint-order="fill stroke markers" d=" M 114 123 L 122 123" stroke-miterlimit="10"/><path fill="none" stroke="black" paint-order="fill stroke markers" d=" M 114 85 L 122 85" stroke-miterlimit="10"/><path fill="" stroke="black" paint-order="fill stroke markers" d=" M 114 47 L 122 47" stroke-miterlimit="10"/><g transform="translate(109,236) rotate(0,0,0)"><text fill="" stroke="none" font-family="helvetica" font-size="8pt" font-style="normal" font-weight="normal" text-decoration="normal" x="0" y="0" text-anchor="end" dominant-baseline="central">2-3 design jobs</text><g transform="rotate(0,0,0) translate(-109,-236) translate(109,198) rotate(0,0,0)"><text fill="" stroke="none" font-family="helvetica" font-size="8pt" font-style="normal" font-weight="normal" text-decoration="normal" x="0" y="0" text-anchor="end" dominant-baseline="central">4-5 design jobs</text><g transform="rotate(0,0,0) translate(-109,-198) translate(109,160) rotate(0,0,0)"><text fill="" stroke="none" font-family="helvetica" font-size="8pt" font-style="normal" font-weight="normal" text-decoration="normal" x="0" y="0" text-anchor="end" dominant-baseline="central">1 design job</text><g transform="rotate(0,0,0) translate(-109,-160) translate(109,123) rotate(0,0,0)"><text fill="" stroke="none" font-family="helvetica" font-size="8pt" font-style="normal" font-weight="normal" text-decoration="normal" x="0" y="0" text-anchor="end" dominant-baseline="central">6-7 design jobs</text><g transform="rotate(0,0,0) translate(-109,-123) translate(109,85) rotate(0,0,0)"><text fill="" stroke="none" font-family="helvetica" font-size="8pt" font-style="normal" font-weight="normal" text-decoration="normal" x="0" y="0" text-anchor="end" dominant-baseline="central">10+ design jobs</text><g transform="rotate(0,0,0) translate(-109,-85) translate(109,47) rotate(0,0,0)"><text fill="" stroke="none" font-family="helvetica" font-size="8pt" font-style="normal" font-weight="normal" text-decoration="normal" x="0" y="0" text-anchor="end" dominant-baseline="central">8-10 design jobs</text><g transform="rotate(0,0,0) translate(-109,-47) translate(15,142) rotate(-90,0,0)"><text fill="" stroke="none" font-family="helvetica" font-size="10pt" font-style="italic" font-weight="normal" text-decoration="normal" x="0" y="0" text-anchor="middle" dominant-baseline="alphabetic">Categories</text><g transform="rotate(90,0,0) translate(-15,-142)"/></g></g></g></g></g></g></g></g><g fill="#444444"><path fill="" stroke="none" d=""/><g transform="translate(120,23)"><path fill="none" stroke="none"/><text fill="" stroke="none" font-family="helvetica" font-size="10pt" font-style="normal" font-weight="bold" text-decoration="normal" x="0" y="0" text-anchor="start" dominant-baseline="text-after-edge">NotAIGA: Over my career, I've had:</text></g></g></g></g></g></svg>