<svg version="1.1" xmlns="http://www.w3.org/2000/svg" xmlns:xlink="http://www.w3.org/1999/xlink" width="700" height="750" style="width: 700px; height: 750px;"><defs/><g><g transform="scale(1,1) translate(0.5,0.5)"><rect fill="#FFFFFF" stroke="none" x="0" y="0" width="700" height="750"/><rect fill="#ffffff" stroke="none" x="0" y="0" width="700" height="750"/><rect fill="#FFFFFF" stroke="none" x="252" y="28" width="398" height="677"/><rect fill="#ffffff" stroke="none" x="252" y="28" width="398" height="677"/><g><rect fill="none" stroke="#e5e5e5" x="252" y="28" width="398" height="677" stroke-miterlimit="10"/></g><g><g><path fill="none" stroke="#e5e5e5" paint-order="fill stroke markers" d=" M 347 705 L 347 28" stroke-miterlimit="10"/><path fill="none" stroke="#e5e5e5" paint-order="fill stroke markers" d=" M 441 705 L 441 28" stroke-miterlimit="10"/><path fill="none" stroke="#e5e5e5" paint-order="fill stroke markers" d=" M 536 705 L 536 28" stroke-miterlimit="10"/><path fill="none" stroke="#e5e5e5" paint-order="fill stroke markers" d=" M 630 705 L 630 28" stroke-miterlimit="10"/></g><g><path fill="none" stroke="#e5e5e5" paint-order="fill stroke markers" d=" M 252 682 L 650 682" stroke-miterlimit="10"/><path fill="none" stroke="#e5e5e5" paint-order="fill stroke markers" d=" M 252 637 L 650 637" stroke-miterlimit="10"/><path fill="none" stroke="#e5e5e5" paint-order="fill stroke markers" d=" M 252 592 L 650 592" stroke-miterlimit="10"/><path fill="none" stroke="#e5e5e5" paint-order="fill stroke markers" d=" M 252 547 L 650 547" stroke-miterlimit="10"/><path fill="none" stroke="#e5e5e5" paint-order="fill stroke markers" d=" M 252 502 L 650 502" stroke-miterlimit="10"/><path fill="none" stroke="#e5e5e5" paint-order="fill stroke markers" d=" M 252 457 L 650 457" stroke-miterlimit="10"/><path fill="none" stroke="#e5e5e5" paint-order="fill stroke markers" d=" M 252 412 L 650 412" stroke-miterlimit="10"/><path fill="none" stroke="#e5e5e5" paint-order="fill stroke markers" d=" M 252 367 L 650 367" stroke-miterlimit="10"/><path fill="none" stroke="#e5e5e5" paint-order="fill stroke markers" d=" M 252 321 L 650 321" stroke-miterlimit="10"/><path fill="none" stroke="#e5e5e5" paint-order="fill stroke markers" d=" M 252 276 L 650 276" stroke-miterlimit="10"/><path fill="none" stroke="#e5e5e5" paint-order="fill stroke markers" d=" M 252 231 L 650 231" stroke-miterlimit="10"/><path fill="none" stroke="#e5e5e5" paint-order="fill stroke markers" d=" M 252 186 L 650 186" stroke-miterlimit="10"/><path fill="none" stroke="#e5e5e5" paint-order="fill stroke markers" d=" M 252 141 L 650 141" stroke-miterlimit="10"/><path fill="none" stroke="#e5e5e5" paint-order="fill stroke markers" d=" M 252 96 L 650 96" stroke-miterlimit="10"/><path fill="none" stroke="#e5e5e5" paint-order="fill stroke markers" d=" M 252 51 L 650 51" stroke-miterlimit="10"/></g><g><path fill="none" stroke="none"/><rect fill="#1f77b4" stroke="none" x="252" y="665.5083333333332" width="326.93802870449576" height="33.850000000000136"/><path fill="none" stroke="#1f77b4" paint-order="fill stroke markers" d=" M 252 665.5083333333332 L 578.9380287044958 665.5083333333332 L 578.9380287044958 699.3583333333333 L 252 699.3583333333333 L 252 665.5083333333332 Z" stroke-miterlimit="10"/><rect fill="#1f77b4" stroke="none" x="252" y="620.375" width="301.97082026423345" height="33.84999999999991"/><path fill="none" stroke="#1f77b4" paint-order="fill stroke markers" d=" M 252 620.375 L 553.9708202642335 620.375 L 553.9708202642335 654.2249999999999 L 252 654.2249999999999 L 252 620.375 Z" stroke-miterlimit="10"/><rect fill="#1f77b4" stroke="none" x="252" y="575.2416666666666" width="287.87947913696416" height="33.850000000000136"/><path fill="none" stroke="#1f77b4" paint-order="fill stroke markers" d=" M 252 575.2416666666666 L 539.8794791369642 575.2416666666666 L 539.8794791369642 609.0916666666667 L 252 609.0916666666667 L 252 575.2416666666666 Z" stroke-miterlimit="10"/><rect fill="#1f77b4" stroke="none" x="252" y="530.1083333333333" width="231.8924056648608" height="33.84999999999991"/><path fill="none" stroke="#1f77b4" paint-order="fill stroke markers" d=" M 252 530.1083333333333 L 483.8924056648608 530.1083333333333 L 483.8924056648608 563.9583333333333 L 252 563.9583333333333 L 252 530.1083333333333 Z" stroke-miterlimit="10"/><rect fill="#1f77b4" stroke="none" x="252" y="484.97499999999997" width="208.62750689097993" height="33.85000000000008"/><path fill="none" stroke="#1f77b4" paint-order="fill stroke markers" d=" M 252 484.97499999999997 L 460.62750689097993 484.97499999999997 L 460.62750689097993 518.825 L 252 518.825 L 252 484.97499999999997 Z" stroke-miterlimit="10"/><rect fill="#1f77b4" stroke="none" x="252" y="439.8416666666667" width="197.37334854101323" height="33.84999999999991"/><path fill="none" stroke="#1f77b4" paint-order="fill stroke markers" d=" M 252 439.8416666666667 L 449.37334854101323 439.8416666666667 L 449.37334854101323 473.6916666666666 L 252 473.6916666666666 L 252 439.8416666666667 Z" stroke-miterlimit="10"/><rect fill="#1f77b4" stroke="none" x="252" y="394.7083333333333" width="190.09124607927004" height="33.85000000000002"/><path fill="none" stroke="#1f77b4" paint-order="fill stroke markers" d=" M 252 394.7083333333333 L 442.09124607927004 394.7083333333333 L 442.09124607927004 428.55833333333334 L 252 428.55833333333334 L 252 394.7083333333333 Z" stroke-miterlimit="10"/><rect fill="#1f77b4" stroke="none" x="252" y="349.575" width="119.63454044292371" height="33.85000000000002"/><path fill="none" stroke="#1f77b4" paint-order="fill stroke markers" d=" M 252 349.575 L 371.6345404429237 349.575 L 371.6345404429237 383.425 L 252 383.425 L 252 349.575 Z" stroke-miterlimit="10"/><rect fill="#1f77b4" stroke="none" x="252" y="304.44166666666666" width="116.32449386940402" height="33.85000000000002"/><path fill="none" stroke="#1f77b4" paint-order="fill stroke markers" d=" M 252 304.44166666666666 L 368.324493869404 304.44166666666666 L 368.324493869404 338.2916666666667 L 252 338.2916666666667 L 252 304.44166666666666 Z" stroke-miterlimit="10"/><rect fill="#1f77b4" stroke="none" x="252" y="259.30833333333334" width="111.97414694420684" height="33.85000000000002"/><path fill="none" stroke="#1f77b4" paint-order="fill stroke markers" d=" M 252 259.30833333333334 L 363.97414694420684 259.30833333333334 L 363.97414694420684 293.15833333333336 L 252 293.15833333333336 L 252 259.30833333333334 Z" stroke-miterlimit="10"/><rect fill="#1f77b4" stroke="none" x="252" y="214.17500000000004" width="88.80382092956944" height="33.849999999999966"/><path fill="none" stroke="#1f77b4" paint-order="fill stroke markers" d=" M 252 214.17500000000004 L 340.80382092956944 214.17500000000004 L 340.80382092956944 248.025 L 252 248.025 L 252 214.17500000000004 Z" stroke-miterlimit="10"/><rect fill="#1f77b4" stroke="none" x="252" y="169.04166666666669" width="87.76352057789182" height="33.85000000000002"/><path fill="none" stroke="#1f77b4" paint-order="fill stroke markers" d=" M 252 169.04166666666669 L 339.7635205778918 169.04166666666669 L 339.7635205778918 202.8916666666667 L 252 202.8916666666667 L 252 169.04166666666669 Z" stroke-miterlimit="10"/><rect fill="#1f77b4" stroke="none" x="252" y="123.90833333333336" width="87.10151126318794" height="33.85000000000002"/><path fill="none" stroke="#1f77b4" paint-order="fill stroke markers" d=" M 252 123.90833333333336 L 339.10151126318794 123.90833333333336 L 339.10151126318794 157.75833333333338 L 252 157.75833333333338 L 252 123.90833333333336 Z" stroke-miterlimit="10"/><rect fill="#1f77b4" stroke="none" x="252" y="78.77500000000003" width="69.98384184012929" height="33.85000000000002"/><path fill="none" stroke="#1f77b4" paint-order="fill stroke markers" d=" M 252 78.77500000000003 L 321.9838418401293 78.77500000000003 L 321.9838418401293 112.62500000000006 L 252 112.62500000000006 L 252 78.77500000000003 Z" stroke-miterlimit="10"/><rect fill="#1f77b4" stroke="none" x="252" y="33.64166666666671" width="40.76085923391315" height="33.85000000000002"/><path fill="none" stroke="#1f77b4" paint-order="fill stroke markers" d=" M 252 33.64166666666671 L 292.76085923391315 33.64166666666671 L 292.76085923391315 67.49166666666673 L 252 67.49166666666673 L 252 33.64166666666671 Z" stroke-miterlimit="10"/></g><g fill="#444444"><path fill="" stroke="none" d=""/><g transform="translate(588.9380287044958,680.4333333333333) rotate(0,0,0)"><path fill="none" stroke="none"/><text fill="" stroke="none" font-family="helvetica" font-size="8pt" font-style="normal" font-weight="normal" text-decoration="normal" x="0" y="0" text-anchor="start" dominant-baseline="text-after-edge">44.10%</text></g></g><g fill="#444444"><path fill="" stroke="none" d=""/><g transform="translate(563.9708202642335,635.3) rotate(0,0,0)"><path fill="none" stroke="none"/><text fill="" stroke="none" font-family="helvetica" font-size="8pt" font-style="normal" font-weight="normal" text-decoration="normal" x="0" y="0" text-anchor="start" dominant-baseline="text-after-edge">40.73%</text></g></g><g fill="#444444"><path fill="" stroke="none" d=""/><g transform="translate(549.8794791369642,590.1666666666666) rotate(0,0,0)"><path fill="none" stroke="none"/><text fill="" stroke="none" font-family="helvetica" font-size="8pt" font-style="normal" font-weight="normal" text-decoration="normal" x="0" y="0" text-anchor="start" dominant-baseline="text-after-edge">38.83%</text></g></g><g fill="#444444"><path fill="" stroke="none" d=""/><g transform="translate(493.8924056648608,545.0333333333333) rotate(0,0,0)"><path fill="none" stroke="none"/><text fill="" stroke="none" font-family="helvetica" font-size="8pt" font-style="normal" font-weight="normal" text-decoration="normal" x="0" y="0" text-anchor="start" dominant-baseline="text-after-edge">31.28%</text></g></g><g fill="#444444"><path fill="" stroke="none" d=""/><g transform="translate(470.62750689097993,499.9) rotate(0,0,0)"><path fill="none" stroke="none"/><text fill="" stroke="none" font-family="helvetica" font-size="8pt" font-style="normal" font-weight="normal" text-decoration="normal" x="0" y="0" text-anchor="start" dominant-baseline="text-after-edge">28.14%</text></g></g><g fill="#444444"><path fill="" stroke="none" d=""/><g transform="translate(459.37334854101323,454.76666666666665) rotate(0,0,0)"><path fill="none" stroke="none"/><text fill="" stroke="none" font-family="helvetica" font-size="8pt" font-style="normal" font-weight="normal" text-decoration="normal" x="0" y="0" text-anchor="start" dominant-baseline="text-after-edge">26.62%</text></g></g><g fill="#444444"><path fill="" stroke="none" d=""/><g transform="translate(452.09124607927004,409.6333333333333) rotate(0,0,0)"><path fill="none" stroke="none"/><text fill="" stroke="none" font-family="helvetica" font-size="8pt" font-style="normal" font-weight="normal" text-decoration="normal" x="0" y="0" text-anchor="start" dominant-baseline="text-after-edge">25.64%</text></g></g><g fill="#444444"><path fill="" stroke="none" d=""/><g transform="translate(381.6345404429237,364.5) rotate(0,0,0)"><path fill="none" stroke="none"/><text fill="" stroke="none" font-family="helvetica" font-size="8pt" font-style="normal" font-weight="normal" text-decoration="normal" x="0" y="0" text-anchor="start" dominant-baseline="text-after-edge">16.14%</text></g></g><g fill="#444444"><path fill="" stroke="none" d=""/><g transform="translate(378.324493869404,319.3666666666667) rotate(0,0,0)"><path fill="none" stroke="none"/><text fill="" stroke="none" font-family="helvetica" font-size="8pt" font-style="normal" font-weight="normal" text-decoration="normal" x="0" y="0" text-anchor="start" dominant-baseline="text-after-edge">15.69%</text></g></g><g fill="#444444"><path fill="" stroke="none" d=""/><g transform="translate(373.97414694420684,274.23333333333335) rotate(0,0,0)"><path fill="none" stroke="none"/><text fill="" stroke="none" font-family="helvetica" font-size="8pt" font-style="normal" font-weight="normal" text-decoration="normal" x="0" y="0" text-anchor="start" dominant-baseline="text-after-edge">15.10%</text></g></g><g fill="#444444"><path fill="" stroke="none" d=""/><g transform="translate(350.80382092956944,229.10000000000002) rotate(0,0,0)"><path fill="none" stroke="none"/><text fill="" stroke="none" font-family="helvetica" font-size="8pt" font-style="normal" font-weight="normal" text-decoration="normal" x="0" y="0" text-anchor="start" dominant-baseline="text-after-edge">11.98%</text></g></g><g fill="#444444"><path fill="" stroke="none" d=""/><g transform="translate(349.7635205778918,183.9666666666667) rotate(0,0,0)"><path fill="none" stroke="none"/><text fill="" stroke="none" font-family="helvetica" font-size="8pt" font-style="normal" font-weight="normal" text-decoration="normal" x="0" y="0" text-anchor="start" dominant-baseline="text-after-edge">11.84%</text></g></g><g fill="#444444"><path fill="" stroke="none" d=""/><g transform="translate(349.10151126318794,138.83333333333337) rotate(0,0,0)"><path fill="none" stroke="none"/><text fill="" stroke="none" font-family="helvetica" font-size="8pt" font-style="normal" font-weight="normal" text-decoration="normal" x="0" y="0" text-anchor="start" dominant-baseline="text-after-edge">11.75%</text></g></g><g fill="#444444"><path fill="" stroke="none" d=""/><g transform="translate(331.9838418401293,93.70000000000005) rotate(0,0,0)"><path fill="none" stroke="none"/><text fill="" stroke="none" font-family="helvetica" font-size="8pt" font-style="normal" font-weight="normal" text-decoration="normal" x="0" y="0" text-anchor="start" dominant-baseline="text-after-edge">9.44%</text></g></g><g fill="#444444"><path fill="" stroke="none" d=""/><g transform="translate(302.76085923391315,48.56666666666672) rotate(0,0,0)"><path fill="none" stroke="none"/><text fill="" stroke="none" font-family="helvetica" font-size="8pt" font-style="normal" font-weight="normal" text-decoration="normal" x="0" y="0" text-anchor="start" dominant-baseline="text-after-edge">5.50%</text></g></g><g fill="#444444"><path fill="" stroke="none" d=""/><g transform="translate(588.9380287044958,694.4333333333333) rotate(0,0,0)"><path fill="none" stroke="none"/><text fill="" stroke="none" font-family="helvetica" font-size="8pt" font-style="normal" font-weight="normal" text-decoration="normal" x="0" y="0" text-anchor="start" dominant-baseline="text-after-edge">3457</text></g></g><g fill="#444444"><path fill="" stroke="none" d=""/><g transform="translate(563.9708202642335,649.3) rotate(0,0,0)"><path fill="none" stroke="none"/><text fill="" stroke="none" font-family="helvetica" font-size="8pt" font-style="normal" font-weight="normal" text-decoration="normal" x="0" y="0" text-anchor="start" dominant-baseline="text-after-edge">3193</text></g></g><g fill="#444444"><path fill="" stroke="none" d=""/><g transform="translate(549.8794791369642,604.1666666666666) rotate(0,0,0)"><path fill="none" stroke="none"/><text fill="" stroke="none" font-family="helvetica" font-size="8pt" font-style="normal" font-weight="normal" text-decoration="normal" x="0" y="0" text-anchor="start" dominant-baseline="text-after-edge">3044</text></g></g><g fill="#444444"><path fill="" stroke="none" d=""/><g transform="translate(493.8924056648608,559.0333333333333) rotate(0,0,0)"><path fill="none" stroke="none"/><text fill="" stroke="none" font-family="helvetica" font-size="8pt" font-style="normal" font-weight="normal" text-decoration="normal" x="0" y="0" text-anchor="start" dominant-baseline="text-after-edge">2452</text></g></g><g fill="#444444"><path fill="" stroke="none" d=""/><g transform="translate(470.62750689097993,513.9) rotate(0,0,0)"><path fill="none" stroke="none"/><text fill="" stroke="none" font-family="helvetica" font-size="8pt" font-style="normal" font-weight="normal" text-decoration="normal" x="0" y="0" text-anchor="start" dominant-baseline="text-after-edge">2206</text></g></g><g fill="#444444"><path fill="" stroke="none" d=""/><g transform="translate(459.37334854101323,468.76666666666665) rotate(0,0,0)"><path fill="none" stroke="none"/><text fill="" stroke="none" font-family="helvetica" font-size="8pt" font-style="normal" font-weight="normal" text-decoration="normal" x="0" y="0" text-anchor="start" dominant-baseline="text-after-edge">2087</text></g></g><g fill="#444444"><path fill="" stroke="none" d=""/><g transform="translate(452.09124607927004,423.6333333333333) rotate(0,0,0)"><path fill="none" stroke="none"/><text fill="" stroke="none" font-family="helvetica" font-size="8pt" font-style="normal" font-weight="normal" text-decoration="normal" x="0" y="0" text-anchor="start" dominant-baseline="text-after-edge">2010</text></g></g><g fill="#444444"><path fill="" stroke="none" d=""/><g transform="translate(381.6345404429237,378.5) rotate(0,0,0)"><path fill="none" stroke="none"/><text fill="" stroke="none" font-family="helvetica" font-size="8pt" font-style="normal" font-weight="normal" text-decoration="normal" x="0" y="0" text-anchor="start" dominant-baseline="text-after-edge">1265</text></g></g><g fill="#444444"><path fill="" stroke="none" d=""/><g transform="translate(378.324493869404,333.3666666666667) rotate(0,0,0)"><path fill="none" stroke="none"/><text fill="" stroke="none" font-family="helvetica" font-size="8pt" font-style="normal" font-weight="normal" text-decoration="normal" x="0" y="0" text-anchor="start" dominant-baseline="text-after-edge">1230</text></g></g><g fill="#444444"><path fill="" stroke="none" d=""/><g transform="translate(373.97414694420684,288.23333333333335) rotate(0,0,0)"><path fill="none" stroke="none"/><text fill="" stroke="none" font-family="helvetica" font-size="8pt" font-style="normal" font-weight="normal" text-decoration="normal" x="0" y="0" text-anchor="start" dominant-baseline="text-after-edge">1184</text></g></g><g fill="#444444"><path fill="" stroke="none" d=""/><g transform="translate(350.80382092956944,243.10000000000002) rotate(0,0,0)"><path fill="none" stroke="none"/><text fill="" stroke="none" font-family="helvetica" font-size="8pt" font-style="normal" font-weight="normal" text-decoration="normal" x="0" y="0" text-anchor="start" dominant-baseline="text-after-edge">939</text></g></g><g fill="#444444"><path fill="" stroke="none" d=""/><g transform="translate(349.7635205778918,197.9666666666667) rotate(0,0,0)"><path fill="none" stroke="none"/><text fill="" stroke="none" font-family="helvetica" font-size="8pt" font-style="normal" font-weight="normal" text-decoration="normal" x="0" y="0" text-anchor="start" dominant-baseline="text-after-edge">928</text></g></g><g fill="#444444"><path fill="" stroke="none" d=""/><g transform="translate(349.10151126318794,152.83333333333337) rotate(0,0,0)"><path fill="none" stroke="none"/><text fill="" stroke="none" font-family="helvetica" font-size="8pt" font-style="normal" font-weight="normal" text-decoration="normal" x="0" y="0" text-anchor="start" dominant-baseline="text-after-edge">921</text></g></g><g fill="#444444"><path fill="" stroke="none" d=""/><g transform="translate(331.9838418401293,107.70000000000005) rotate(0,0,0)"><path fill="none" stroke="none"/><text fill="" stroke="none" font-family="helvetica" font-size="8pt" font-style="normal" font-weight="normal" text-decoration="normal" x="0" y="0" text-anchor="start" dominant-baseline="text-after-edge">740</text></g></g><g fill="#444444"><path fill="" stroke="none" d=""/><g transform="translate(302.76085923391315,62.56666666666672) rotate(0,0,0)"><path fill="none" stroke="none"/><text fill="" stroke="none" font-family="helvetica" font-size="8pt" font-style="normal" font-weight="normal" text-decoration="normal" x="0" y="0" text-anchor="start" dominant-baseline="text-after-edge">431</text></g></g></g><g/><g><g fill="#444444"><path fill="none" stroke="black" paint-order="fill stroke markers" d=" M 252 705 L 650 705" stroke-miterlimit="10"/><path fill="none" stroke="black" paint-order="fill stroke markers" d=" M 252 711 L 252 703" stroke-miterlimit="10"/><path fill="none" stroke="black" paint-order="fill stroke markers" d=" M 347 711 L 347 703" stroke-miterlimit="10"/><path fill="none" stroke="black" paint-order="fill stroke markers" d=" M 441 711 L 441 703" stroke-miterlimit="10"/><path fill="none" stroke="black" paint-order="fill stroke markers" d=" M 536 711 L 536 703" stroke-miterlimit="10"/><path fill="none" stroke="black" paint-order="fill stroke markers" d=" M 630 711 L 630 703" stroke-miterlimit="10"/><path fill="none" stroke="black" paint-order="fill stroke markers" d=" M 252 709 L 252 705" stroke-miterlimit="10"/><path fill="none" stroke="black" paint-order="fill stroke markers" d=" M 271 709 L 271 705" stroke-miterlimit="10"/><path fill="none" stroke="black" paint-order="fill stroke markers" d=" M 290 709 L 290 705" stroke-miterlimit="10"/><path fill="none" stroke="black" paint-order="fill stroke markers" d=" M 309 709 L 309 705" stroke-miterlimit="10"/><path fill="none" stroke="black" paint-order="fill stroke markers" d=" M 328 709 L 328 705" stroke-miterlimit="10"/><path fill="none" stroke="black" paint-order="fill stroke markers" d=" M 347 709 L 347 705" stroke-miterlimit="10"/><path fill="none" stroke="black" paint-order="fill stroke markers" d=" M 365 709 L 365 705" stroke-miterlimit="10"/><path fill="none" stroke="black" paint-order="fill stroke markers" d=" M 384 709 L 384 705" stroke-miterlimit="10"/><path fill="none" stroke="black" paint-order="fill stroke markers" d=" M 403 709 L 403 705" stroke-miterlimit="10"/><path fill="none" stroke="black" paint-order="fill stroke markers" d=" M 422 709 L 422 705" stroke-miterlimit="10"/><path fill="none" stroke="black" paint-order="fill stroke markers" d=" M 441 709 L 441 705" stroke-miterlimit="10"/><path fill="none" stroke="black" paint-order="fill stroke markers" d=" M 460 709 L 460 705" stroke-miterlimit="10"/><path fill="none" stroke="black" paint-order="fill stroke markers" d=" M 479 709 L 479 705" stroke-miterlimit="10"/><path fill="none" stroke="black" paint-order="fill stroke markers" d=" M 498 709 L 498 705" stroke-miterlimit="10"/><path fill="none" stroke="black" paint-order="fill stroke markers" d=" M 517 709 L 517 705" stroke-miterlimit="10"/><path fill="none" stroke="black" paint-order="fill stroke markers" d=" M 536 709 L 536 705" stroke-miterlimit="10"/><path fill="none" stroke="black" paint-order="fill stroke markers" d=" M 555 709 L 555 705" stroke-miterlimit="10"/><path fill="none" stroke="black" paint-order="fill stroke markers" d=" M 574 709 L 574 705" stroke-miterlimit="10"/><path fill="none" stroke="black" paint-order="fill stroke markers" d=" M 592 709 L 592 705" stroke-miterlimit="10"/><path fill="none" stroke="black" paint-order="fill stroke markers" d=" M 611 709 L 611 705" stroke-miterlimit="10"/><path fill="none" stroke="black" paint-order="fill stroke markers" d=" M 630 709 L 630 705" stroke-miterlimit="10"/><path fill="" stroke="black" paint-order="fill stroke markers" d=" M 649 709 L 649 705" stroke-miterlimit="10"/><g transform="translate(252,716) rotate(0,0,0)"><text fill="" stroke="none" font-family="helvetica" font-size="8pt" font-style="normal" font-weight="normal" text-decoration="normal" x="0" y="0" text-anchor="middle" dominant-baseline="hanging">0</text><g transform="rotate(0,0,0) translate(-252,-716) translate(347,716) rotate(0,0,0)"><text fill="" stroke="none" font-family="helvetica" font-size="8pt" font-style="normal" font-weight="normal" text-decoration="normal" x="0" y="0" text-anchor="middle" dominant-baseline="hanging">1000</text><g transform="rotate(0,0,0) translate(-347,-716) translate(441,716) rotate(0,0,0)"><text fill="" stroke="none" font-family="helvetica" font-size="8pt" font-style="normal" font-weight="normal" text-decoration="normal" x="0" y="0" text-anchor="middle" dominant-baseline="hanging">2000</text><g transform="rotate(0,0,0) translate(-441,-716) translate(536,716) rotate(0,0,0)"><text fill="" stroke="none" font-family="helvetica" font-size="8pt" font-style="normal" font-weight="normal" text-decoration="normal" x="0" y="0" text-anchor="middle" dominant-baseline="hanging">3000</text><g transform="rotate(0,0,0) translate(-536,-716) translate(630,716) rotate(0,0,0)"><text fill="" stroke="none" font-family="helvetica" font-size="8pt" font-style="normal" font-weight="normal" text-decoration="normal" x="0" y="0" text-anchor="middle" dominant-baseline="hanging">4000</text><g transform="rotate(0,0,0) translate(-630,-716) translate(451,734) rotate(0,0,0)"><text fill="" stroke="none" font-family="helvetica" font-size="10pt" font-style="italic" font-weight="normal" text-decoration="normal" x="0" y="0" text-anchor="middle" dominant-baseline="hanging">Respondents</text><g transform="rotate(0,0,0) translate(-451,-734)"/></g></g></g></g></g></g></g><g fill="#444444"><path fill="none" stroke="black" paint-order="fill stroke markers" d=" M 252 705 L 252 28" stroke-miterlimit="10"/><path fill="none" stroke="black" paint-order="fill stroke markers" d=" M 246 682 L 254 682" stroke-miterlimit="10"/><path fill="none" stroke="black" paint-order="fill stroke markers" d=" M 246 637 L 254 637" stroke-miterlimit="10"/><path fill="none" stroke="black" paint-order="fill stroke markers" d=" M 246 592 L 254 592" stroke-miterlimit="10"/><path fill="none" stroke="black" paint-order="fill stroke markers" d=" M 246 547 L 254 547" stroke-miterlimit="10"/><path fill="none" stroke="black" paint-order="fill stroke markers" d=" M 246 502 L 254 502" stroke-miterlimit="10"/><path fill="none" stroke="black" paint-order="fill stroke markers" d=" M 246 457 L 254 457" stroke-miterlimit="10"/><path fill="none" stroke="black" paint-order="fill stroke markers" d=" M 246 412 L 254 412" stroke-miterlimit="10"/><path fill="none" stroke="black" paint-order="fill stroke markers" d=" M 246 367 L 254 367" stroke-miterlimit="10"/><path fill="none" stroke="black" paint-order="fill stroke markers" d=" M 246 321 L 254 321" stroke-miterlimit="10"/><path fill="none" stroke="black" paint-order="fill stroke markers" d=" M 246 276 L 254 276" stroke-miterlimit="10"/><path fill="none" stroke="black" paint-order="fill stroke markers" d=" M 246 231 L 254 231" stroke-miterlimit="10"/><path fill="none" stroke="black" paint-order="fill stroke markers" d=" M 246 186 L 254 186" stroke-miterlimit="10"/><path fill="none" stroke="black" paint-order="fill stroke markers" d=" M 246 141 L 254 141" stroke-miterlimit="10"/><path fill="none" stroke="black" paint-order="fill stroke markers" d=" M 246 96 L 254 96" stroke-miterlimit="10"/><path fill="" stroke="black" paint-order="fill stroke markers" d=" M 246 51 L 254 51" stroke-miterlimit="10"/><g transform="translate(241,682) rotate(0,0,0)"><text fill="" stroke="none" font-family="helvetica" font-size="8pt" font-style="normal" font-weight="normal" text-decoration="normal" x="0" y="0" text-anchor="end" dominant-baseline="central">Design not having a "seat at the table"</text><g transform="rotate(0,0,0) translate(-241,-682) translate(241,637) rotate(0,0,0)"><text fill="" stroke="none" font-family="helvetica" font-size="8pt" font-style="normal" font-weight="normal" text-decoration="normal" x="0" y="0" text-anchor="end" dominant-baseline="central">Diversity in design and tech</text><g transform="rotate(0,0,0) translate(-241,-637) translate(241,592) rotate(0,0,0)"><text fill="" stroke="none" font-family="helvetica" font-size="8pt" font-style="normal" font-weight="normal" text-decoration="normal" x="0" y="0" text-anchor="end" dominant-baseline="central">Ethics in design</text><g transform="rotate(0,0,0) translate(-241,-592) translate(241,547) rotate(0,0,0)"><text fill="" stroke="none" font-family="helvetica" font-size="8pt" font-style="normal" font-weight="normal" text-decoration="normal" x="0" y="0" text-anchor="end" dominant-baseline="central">Education cost and equity of access</text><g transform="rotate(0,0,0) translate(-241,-547) translate(241,502) rotate(0,0,0)"><text fill="" stroke="none" font-family="helvetica" font-size="8pt" font-style="normal" font-weight="normal" text-decoration="normal" x="0" y="0" text-anchor="end" dominant-baseline="central">Consumer vs. social impact focus</text><g transform="rotate(0,0,0) translate(-241,-502) translate(241,457) rotate(0,0,0)"><text fill="" stroke="none" font-family="helvetica" font-size="8pt" font-style="normal" font-weight="normal" text-decoration="normal" x="0" y="0" text-anchor="end" dominant-baseline="central">Generational differences in the workforce</text><g transform="rotate(0,0,0) translate(-241,-457) translate(241,412) rotate(0,0,0)"><text fill="" stroke="none" font-family="helvetica" font-size="8pt" font-style="normal" font-weight="normal" text-decoration="normal" x="0" y="0" text-anchor="end" dominant-baseline="central">Environmental impacts of design</text><g transform="rotate(0,0,0) translate(-241,-412) translate(241,367) rotate(0,0,0)"><text fill="" stroke="none" font-family="helvetica" font-size="8pt" font-style="normal" font-weight="normal" text-decoration="normal" x="0" y="0" text-anchor="end" dominant-baseline="central">Algorithm bias</text><g transform="rotate(0,0,0) translate(-241,-367) translate(241,321) rotate(0,0,0)"><text fill="" stroke="none" font-family="helvetica" font-size="8pt" font-style="normal" font-weight="normal" text-decoration="normal" x="0" y="0" text-anchor="end" dominant-baseline="central">Dark UX patterns</text><g transform="rotate(0,0,0) translate(-241,-321) translate(241,276) rotate(0,0,0)"><text fill="" stroke="none" font-family="helvetica" font-size="8pt" font-style="normal" font-weight="normal" text-decoration="normal" x="0" y="0" text-anchor="end" dominant-baseline="central">Advertising supported content model</text><g transform="rotate(0,0,0) translate(-241,-276) translate(241,231) rotate(0,0,0)"><text fill="" stroke="none" font-family="helvetica" font-size="8pt" font-style="normal" font-weight="normal" text-decoration="normal" x="0" y="0" text-anchor="end" dominant-baseline="central">Human-machine interface limitations</text><g transform="rotate(0,0,0) translate(-241,-231) translate(241,186) rotate(0,0,0)"><text fill="" stroke="none" font-family="helvetica" font-size="8pt" font-style="normal" font-weight="normal" text-decoration="normal" x="0" y="0" text-anchor="end" dominant-baseline="central">Software complexity</text><g transform="rotate(0,0,0) translate(-241,-186) translate(241,141) rotate(0,0,0)"><text fill="" stroke="none" font-family="helvetica" font-size="8pt" font-style="normal" font-weight="normal" text-decoration="normal" x="0" y="0" text-anchor="end" dominant-baseline="central">Machine ethics</text><g transform="rotate(0,0,0) translate(-241,-141) translate(241,96) rotate(0,0,0)"><text fill="" stroke="none" font-family="helvetica" font-size="8pt" font-style="normal" font-weight="normal" text-decoration="normal" x="0" y="0" text-anchor="end" dominant-baseline="central">Trademark and patent issues</text><g transform="rotate(0,0,0) translate(-241,-96) translate(241,51) rotate(0,0,0)"><text fill="" stroke="none" font-family="helvetica" font-size="8pt" font-style="normal" font-weight="normal" text-decoration="normal" x="0" y="0" text-anchor="end" dominant-baseline="central">None of these</text><g transform="rotate(0,0,0) translate(-241,-51) translate(16,367) rotate(-90,0,0)"><text fill="" stroke="none" font-family="helvetica" font-size="10pt" font-style="italic" font-weight="normal" text-decoration="normal" x="0" y="0" text-anchor="middle" dominant-baseline="alphabetic">Categories</text><g transform="rotate(90,0,0) translate(-16,-367)"/></g></g></g></g></g></g></g></g></g></g></g></g></g></g></g></g></g><g fill="#444444"><path fill="" stroke="none" d=""/><g transform="translate(252,23)"><path fill="none" stroke="none"/><text fill="" stroke="none" font-family="helvetica" font-size="10pt" font-style="normal" font-weight="bold" text-decoration="normal" x="0" y="0" text-anchor="start" dominant-baseline="text-after-edge">NotAIGA: The most critical issues and challenges currently facing design are (answer optional):</text></g></g></g></g></g></svg>