<svg version="1.1" xmlns="http://www.w3.org/2000/svg" xmlns:xlink="http://www.w3.org/1999/xlink" width="700" height="450" style="width: 700px; height: 450px;"><defs/><g><g transform="scale(1,1) translate(0.5,0.5)"><rect fill="#FFFFFF" stroke="none" x="0" y="0" width="700" height="450"/><rect fill="#ffffff" stroke="none" x="0" y="0" width="700" height="450"/><rect fill="#FFFFFF" stroke="none" x="179" y="28" width="471" height="377"/><rect fill="#ffffff" stroke="none" x="179" y="28" width="471" height="377"/><g><rect fill="none" stroke="#e5e5e5" x="179" y="28" width="471" height="377" stroke-miterlimit="10"/></g><g><g><path fill="none" stroke="#e5e5e5" paint-order="fill stroke markers" d=" M 241 405 L 241 28" stroke-miterlimit="10"/><path fill="none" stroke="#e5e5e5" paint-order="fill stroke markers" d=" M 302 405 L 302 28" stroke-miterlimit="10"/><path fill="none" stroke="#e5e5e5" paint-order="fill stroke markers" d=" M 364 405 L 364 28" stroke-miterlimit="10"/><path fill="none" stroke="#e5e5e5" paint-order="fill stroke markers" d=" M 426 405 L 426 28" stroke-miterlimit="10"/><path fill="none" stroke="#e5e5e5" paint-order="fill stroke markers" d=" M 487 405 L 487 28" stroke-miterlimit="10"/><path fill="none" stroke="#e5e5e5" paint-order="fill stroke markers" d=" M 549 405 L 549 28" stroke-miterlimit="10"/><path fill="none" stroke="#e5e5e5" paint-order="fill stroke markers" d=" M 611 405 L 611 28" stroke-miterlimit="10"/></g><g><path fill="none" stroke="#e5e5e5" paint-order="fill stroke markers" d=" M 179 384 L 650 384" stroke-miterlimit="10"/><path fill="none" stroke="#e5e5e5" paint-order="fill stroke markers" d=" M 179 342 L 650 342" stroke-miterlimit="10"/><path fill="none" stroke="#e5e5e5" paint-order="fill stroke markers" d=" M 179 300 L 650 300" stroke-miterlimit="10"/><path fill="none" stroke="#e5e5e5" paint-order="fill stroke markers" d=" M 179 258 L 650 258" stroke-miterlimit="10"/><path fill="none" stroke="#e5e5e5" paint-order="fill stroke markers" d=" M 179 217 L 650 217" stroke-miterlimit="10"/><path fill="none" stroke="#e5e5e5" paint-order="fill stroke markers" d=" M 179 175 L 650 175" stroke-miterlimit="10"/><path fill="none" stroke="#e5e5e5" paint-order="fill stroke markers" d=" M 179 133 L 650 133" stroke-miterlimit="10"/><path fill="none" stroke="#e5e5e5" paint-order="fill stroke markers" d=" M 179 91 L 650 91" stroke-miterlimit="10"/><path fill="none" stroke="#e5e5e5" paint-order="fill stroke markers" d=" M 179 49 L 650 49" stroke-miterlimit="10"/></g><g><path fill="none" stroke="none"/><rect fill="#1f77b4" stroke="none" x="179" y="368.3472222222222" width="389.4152782143981" height="31.416666666666742"/><path fill="none" stroke="#1f77b4" paint-order="fill stroke markers" d=" M 179 368.3472222222222 L 568.4152782143981 368.3472222222222 L 568.4152782143981 399.7638888888889 L 179 399.7638888888889 L 179 368.3472222222222 Z" stroke-miterlimit="10"/><rect fill="#1f77b4" stroke="none" x="179" y="326.45833333333337" width="366.03308707953477" height="31.41666666666663"/><path fill="none" stroke="#1f77b4" paint-order="fill stroke markers" d=" M 179 326.45833333333337 L 545.0330870795348 326.45833333333337 L 545.0330870795348 357.875 L 179 357.875 L 179 326.45833333333337 Z" stroke-miterlimit="10"/><rect fill="#1f77b4" stroke="none" x="179" y="284.56944444444446" width="347.7715341087709" height="31.41666666666663"/><path fill="none" stroke="#1f77b4" paint-order="fill stroke markers" d=" M 179 284.56944444444446 L 526.7715341087709 284.56944444444446 L 526.7715341087709 315.9861111111111 L 179 315.9861111111111 L 179 284.56944444444446 Z" stroke-miterlimit="10"/><rect fill="#1f77b4" stroke="none" x="179" y="242.6805555555556" width="326.91881483810124" height="31.41666666666663"/><path fill="none" stroke="#1f77b4" paint-order="fill stroke markers" d=" M 179 242.6805555555556 L 505.91881483810124 242.6805555555556 L 505.91881483810124 274.09722222222223 L 179 274.09722222222223 L 179 242.6805555555556 Z" stroke-miterlimit="10"/><rect fill="#1f77b4" stroke="none" x="179" y="200.79166666666669" width="257.0807136120717" height="31.41666666666663"/><path fill="none" stroke="#1f77b4" paint-order="fill stroke markers" d=" M 179 200.79166666666669 L 436.0807136120717 200.79166666666669 L 436.0807136120717 232.20833333333331 L 179 232.20833333333331 L 179 200.79166666666669 Z" stroke-miterlimit="10"/><rect fill="#1f77b4" stroke="none" x="179" y="158.90277777777783" width="212.90749764225086" height="31.41666666666663"/><path fill="none" stroke="#1f77b4" paint-order="fill stroke markers" d=" M 179 158.90277777777783 L 391.90749764225086 158.90277777777783 L 391.90749764225086 190.31944444444446 L 179 190.31944444444446 L 179 158.90277777777783 Z" stroke-miterlimit="10"/><rect fill="#1f77b4" stroke="none" x="179" y="117.01388888888889" width="192.7334171644137" height="31.416666666666686"/><path fill="none" stroke="#1f77b4" paint-order="fill stroke markers" d=" M 179 117.01388888888889 L 371.7334171644137 117.01388888888889 L 371.7334171644137 148.43055555555557 L 179 148.43055555555557 L 179 117.01388888888889 Z" stroke-miterlimit="10"/><rect fill="#1f77b4" stroke="none" x="179" y="75.12500000000003" width="66.56829613329143" height="31.416666666666686"/><path fill="none" stroke="#1f77b4" paint-order="fill stroke markers" d=" M 179 75.12500000000003 L 245.56829613329143 75.12500000000003 L 245.56829613329143 106.54166666666671 L 179 106.54166666666671 L 179 75.12500000000003 Z" stroke-miterlimit="10"/><rect fill="#1f77b4" stroke="none" x="179" y="33.236111111111114" width="7.526721156868916" height="31.416666666666686"/><path fill="none" stroke="#1f77b4" paint-order="fill stroke markers" d=" M 179 33.236111111111114 L 186.52672115686892 33.236111111111114 L 186.52672115686892 64.6527777777778 L 179 64.6527777777778 L 179 33.236111111111114 Z" stroke-miterlimit="10"/></g><g fill="#444444"><path fill="" stroke="none" d=""/><g transform="translate(578.4152782143981,382.05555555555554) rotate(0,0,0)"><path fill="none" stroke="none"/><text fill="" stroke="none" font-family="helvetica" font-size="8pt" font-style="normal" font-weight="normal" text-decoration="normal" x="0" y="0" text-anchor="start" dominant-baseline="text-after-edge">80.52%</text></g></g><g fill="#444444"><path fill="" stroke="none" d=""/><g transform="translate(555.0330870795348,340.1666666666667) rotate(0,0,0)"><path fill="none" stroke="none"/><text fill="" stroke="none" font-family="helvetica" font-size="8pt" font-style="normal" font-weight="normal" text-decoration="normal" x="0" y="0" text-anchor="start" dominant-baseline="text-after-edge">75.69%</text></g></g><g fill="#444444"><path fill="" stroke="none" d=""/><g transform="translate(536.7715341087709,298.27777777777777) rotate(0,0,0)"><path fill="none" stroke="none"/><text fill="" stroke="none" font-family="helvetica" font-size="8pt" font-style="normal" font-weight="normal" text-decoration="normal" x="0" y="0" text-anchor="start" dominant-baseline="text-after-edge">71.91%</text></g></g><g fill="#444444"><path fill="" stroke="none" d=""/><g transform="translate(515.9188148381013,256.3888888888889) rotate(0,0,0)"><path fill="none" stroke="none"/><text fill="" stroke="none" font-family="helvetica" font-size="8pt" font-style="normal" font-weight="normal" text-decoration="normal" x="0" y="0" text-anchor="start" dominant-baseline="text-after-edge">67.60%</text></g></g><g fill="#444444"><path fill="" stroke="none" d=""/><g transform="translate(446.0807136120717,214.5) rotate(0,0,0)"><path fill="none" stroke="none"/><text fill="" stroke="none" font-family="helvetica" font-size="8pt" font-style="normal" font-weight="normal" text-decoration="normal" x="0" y="0" text-anchor="start" dominant-baseline="text-after-edge">53.16%</text></g></g><g fill="#444444"><path fill="" stroke="none" d=""/><g transform="translate(401.90749764225086,172.61111111111114) rotate(0,0,0)"><path fill="none" stroke="none"/><text fill="" stroke="none" font-family="helvetica" font-size="8pt" font-style="normal" font-weight="normal" text-decoration="normal" x="0" y="0" text-anchor="start" dominant-baseline="text-after-edge">44.02%</text></g></g><g fill="#444444"><path fill="" stroke="none" d=""/><g transform="translate(381.7334171644137,130.72222222222223) rotate(0,0,0)"><path fill="none" stroke="none"/><text fill="" stroke="none" font-family="helvetica" font-size="8pt" font-style="normal" font-weight="normal" text-decoration="normal" x="0" y="0" text-anchor="start" dominant-baseline="text-after-edge">39.85%</text></g></g><g fill="#444444"><path fill="" stroke="none" d=""/><g transform="translate(255.56829613329143,88.83333333333337) rotate(0,0,0)"><path fill="none" stroke="none"/><text fill="" stroke="none" font-family="helvetica" font-size="8pt" font-style="normal" font-weight="normal" text-decoration="normal" x="0" y="0" text-anchor="start" dominant-baseline="text-after-edge">13.76%</text></g></g><g fill="#444444"><path fill="" stroke="none" d=""/><g transform="translate(196.52672115686892,46.94444444444446) rotate(0,0,0)"><path fill="none" stroke="none"/><text fill="" stroke="none" font-family="helvetica" font-size="8pt" font-style="normal" font-weight="normal" text-decoration="normal" x="0" y="0" text-anchor="start" dominant-baseline="text-after-edge">1.56%</text></g></g><g fill="#444444"><path fill="" stroke="none" d=""/><g transform="translate(578.4152782143981,396.05555555555554) rotate(0,0,0)"><path fill="none" stroke="none"/><text fill="" stroke="none" font-family="helvetica" font-size="8pt" font-style="normal" font-weight="normal" text-decoration="normal" x="0" y="0" text-anchor="start" dominant-baseline="text-after-edge">6312</text></g></g><g fill="#444444"><path fill="" stroke="none" d=""/><g transform="translate(555.0330870795348,354.1666666666667) rotate(0,0,0)"><path fill="none" stroke="none"/><text fill="" stroke="none" font-family="helvetica" font-size="8pt" font-style="normal" font-weight="normal" text-decoration="normal" x="0" y="0" text-anchor="start" dominant-baseline="text-after-edge">5933</text></g></g><g fill="#444444"><path fill="" stroke="none" d=""/><g transform="translate(536.7715341087709,312.27777777777777) rotate(0,0,0)"><path fill="none" stroke="none"/><text fill="" stroke="none" font-family="helvetica" font-size="8pt" font-style="normal" font-weight="normal" text-decoration="normal" x="0" y="0" text-anchor="start" dominant-baseline="text-after-edge">5637</text></g></g><g fill="#444444"><path fill="" stroke="none" d=""/><g transform="translate(515.9188148381013,270.3888888888889) rotate(0,0,0)"><path fill="none" stroke="none"/><text fill="" stroke="none" font-family="helvetica" font-size="8pt" font-style="normal" font-weight="normal" text-decoration="normal" x="0" y="0" text-anchor="start" dominant-baseline="text-after-edge">5299</text></g></g><g fill="#444444"><path fill="" stroke="none" d=""/><g transform="translate(446.0807136120717,228.5) rotate(0,0,0)"><path fill="none" stroke="none"/><text fill="" stroke="none" font-family="helvetica" font-size="8pt" font-style="normal" font-weight="normal" text-decoration="normal" x="0" y="0" text-anchor="start" dominant-baseline="text-after-edge">4167</text></g></g><g fill="#444444"><path fill="" stroke="none" d=""/><g transform="translate(401.90749764225086,186.61111111111114) rotate(0,0,0)"><path fill="none" stroke="none"/><text fill="" stroke="none" font-family="helvetica" font-size="8pt" font-style="normal" font-weight="normal" text-decoration="normal" x="0" y="0" text-anchor="start" dominant-baseline="text-after-edge">3451</text></g></g><g fill="#444444"><path fill="" stroke="none" d=""/><g transform="translate(381.7334171644137,144.72222222222223) rotate(0,0,0)"><path fill="none" stroke="none"/><text fill="" stroke="none" font-family="helvetica" font-size="8pt" font-style="normal" font-weight="normal" text-decoration="normal" x="0" y="0" text-anchor="start" dominant-baseline="text-after-edge">3124</text></g></g><g fill="#444444"><path fill="" stroke="none" d=""/><g transform="translate(255.56829613329143,102.83333333333337) rotate(0,0,0)"><path fill="none" stroke="none"/><text fill="" stroke="none" font-family="helvetica" font-size="8pt" font-style="normal" font-weight="normal" text-decoration="normal" x="0" y="0" text-anchor="start" dominant-baseline="text-after-edge">1079</text></g></g><g fill="#444444"><path fill="" stroke="none" d=""/><g transform="translate(196.52672115686892,60.94444444444446) rotate(0,0,0)"><path fill="none" stroke="none"/><text fill="" stroke="none" font-family="helvetica" font-size="8pt" font-style="normal" font-weight="normal" text-decoration="normal" x="0" y="0" text-anchor="start" dominant-baseline="text-after-edge">122</text></g></g></g><g/><g><g fill="#444444"><path fill="none" stroke="black" paint-order="fill stroke markers" d=" M 179 405 L 650 405" stroke-miterlimit="10"/><path fill="none" stroke="black" paint-order="fill stroke markers" d=" M 179 411 L 179 403" stroke-miterlimit="10"/><path fill="none" stroke="black" paint-order="fill stroke markers" d=" M 241 411 L 241 403" stroke-miterlimit="10"/><path fill="none" stroke="black" paint-order="fill stroke markers" d=" M 302 411 L 302 403" stroke-miterlimit="10"/><path fill="none" stroke="black" paint-order="fill stroke markers" d=" M 364 411 L 364 403" stroke-miterlimit="10"/><path fill="none" stroke="black" paint-order="fill stroke markers" d=" M 426 411 L 426 403" stroke-miterlimit="10"/><path fill="none" stroke="black" paint-order="fill stroke markers" d=" M 487 411 L 487 403" stroke-miterlimit="10"/><path fill="none" stroke="black" paint-order="fill stroke markers" d=" M 549 411 L 549 403" stroke-miterlimit="10"/><path fill="none" stroke="black" paint-order="fill stroke markers" d=" M 611 411 L 611 403" stroke-miterlimit="10"/><path fill="none" stroke="black" paint-order="fill stroke markers" d=" M 179 409 L 179 405" stroke-miterlimit="10"/><path fill="none" stroke="black" paint-order="fill stroke markers" d=" M 191 409 L 191 405" stroke-miterlimit="10"/><path fill="none" stroke="black" paint-order="fill stroke markers" d=" M 204 409 L 204 405" stroke-miterlimit="10"/><path fill="none" stroke="black" paint-order="fill stroke markers" d=" M 216 409 L 216 405" stroke-miterlimit="10"/><path fill="none" stroke="black" paint-order="fill stroke markers" d=" M 228 409 L 228 405" stroke-miterlimit="10"/><path fill="none" stroke="black" paint-order="fill stroke markers" d=" M 241 409 L 241 405" stroke-miterlimit="10"/><path fill="none" stroke="black" paint-order="fill stroke markers" d=" M 253 409 L 253 405" stroke-miterlimit="10"/><path fill="none" stroke="black" paint-order="fill stroke markers" d=" M 265 409 L 265 405" stroke-miterlimit="10"/><path fill="none" stroke="black" paint-order="fill stroke markers" d=" M 278 409 L 278 405" stroke-miterlimit="10"/><path fill="none" stroke="black" paint-order="fill stroke markers" d=" M 290 409 L 290 405" stroke-miterlimit="10"/><path fill="none" stroke="black" paint-order="fill stroke markers" d=" M 302 409 L 302 405" stroke-miterlimit="10"/><path fill="none" stroke="black" paint-order="fill stroke markers" d=" M 315 409 L 315 405" stroke-miterlimit="10"/><path fill="none" stroke="black" paint-order="fill stroke markers" d=" M 327 409 L 327 405" stroke-miterlimit="10"/><path fill="none" stroke="black" paint-order="fill stroke markers" d=" M 339 409 L 339 405" stroke-miterlimit="10"/><path fill="none" stroke="black" paint-order="fill stroke markers" d=" M 352 409 L 352 405" stroke-miterlimit="10"/><path fill="none" stroke="black" paint-order="fill stroke markers" d=" M 364 409 L 364 405" stroke-miterlimit="10"/><path fill="none" stroke="black" paint-order="fill stroke markers" d=" M 376 409 L 376 405" stroke-miterlimit="10"/><path fill="none" stroke="black" paint-order="fill stroke markers" d=" M 389 409 L 389 405" stroke-miterlimit="10"/><path fill="none" stroke="black" paint-order="fill stroke markers" d=" M 401 409 L 401 405" stroke-miterlimit="10"/><path fill="none" stroke="black" paint-order="fill stroke markers" d=" M 413 409 L 413 405" stroke-miterlimit="10"/><path fill="none" stroke="black" paint-order="fill stroke markers" d=" M 426 409 L 426 405" stroke-miterlimit="10"/><path fill="none" stroke="black" paint-order="fill stroke markers" d=" M 438 409 L 438 405" stroke-miterlimit="10"/><path fill="none" stroke="black" paint-order="fill stroke markers" d=" M 450 409 L 450 405" stroke-miterlimit="10"/><path fill="none" stroke="black" paint-order="fill stroke markers" d=" M 463 409 L 463 405" stroke-miterlimit="10"/><path fill="none" stroke="black" paint-order="fill stroke markers" d=" M 475 409 L 475 405" stroke-miterlimit="10"/><path fill="none" stroke="black" paint-order="fill stroke markers" d=" M 487 409 L 487 405" stroke-miterlimit="10"/><path fill="none" stroke="black" paint-order="fill stroke markers" d=" M 500 409 L 500 405" stroke-miterlimit="10"/><path fill="none" stroke="black" paint-order="fill stroke markers" d=" M 512 409 L 512 405" stroke-miterlimit="10"/><path fill="none" stroke="black" paint-order="fill stroke markers" d=" M 524 409 L 524 405" stroke-miterlimit="10"/><path fill="none" stroke="black" paint-order="fill stroke markers" d=" M 537 409 L 537 405" stroke-miterlimit="10"/><path fill="none" stroke="black" paint-order="fill stroke markers" d=" M 549 409 L 549 405" stroke-miterlimit="10"/><path fill="none" stroke="black" paint-order="fill stroke markers" d=" M 562 409 L 562 405" stroke-miterlimit="10"/><path fill="none" stroke="black" paint-order="fill stroke markers" d=" M 574 409 L 574 405" stroke-miterlimit="10"/><path fill="none" stroke="black" paint-order="fill stroke markers" d=" M 586 409 L 586 405" stroke-miterlimit="10"/><path fill="none" stroke="black" paint-order="fill stroke markers" d=" M 599 409 L 599 405" stroke-miterlimit="10"/><path fill="none" stroke="black" paint-order="fill stroke markers" d=" M 611 409 L 611 405" stroke-miterlimit="10"/><path fill="none" stroke="black" paint-order="fill stroke markers" d=" M 623 409 L 623 405" stroke-miterlimit="10"/><path fill="none" stroke="black" paint-order="fill stroke markers" d=" M 636 409 L 636 405" stroke-miterlimit="10"/><path fill="" stroke="black" paint-order="fill stroke markers" d=" M 648 409 L 648 405" stroke-miterlimit="10"/><g transform="translate(179,416) rotate(0,0,0)"><text fill="" stroke="none" font-family="helvetica" font-size="8pt" font-style="normal" font-weight="normal" text-decoration="normal" x="0" y="0" text-anchor="middle" dominant-baseline="hanging">0</text><g transform="rotate(0,0,0) translate(-179,-416) translate(241,416) rotate(0,0,0)"><text fill="" stroke="none" font-family="helvetica" font-size="8pt" font-style="normal" font-weight="normal" text-decoration="normal" x="0" y="0" text-anchor="middle" dominant-baseline="hanging">1000</text><g transform="rotate(0,0,0) translate(-241,-416) translate(302,416) rotate(0,0,0)"><text fill="" stroke="none" font-family="helvetica" font-size="8pt" font-style="normal" font-weight="normal" text-decoration="normal" x="0" y="0" text-anchor="middle" dominant-baseline="hanging">2000</text><g transform="rotate(0,0,0) translate(-302,-416) translate(364,416) rotate(0,0,0)"><text fill="" stroke="none" font-family="helvetica" font-size="8pt" font-style="normal" font-weight="normal" text-decoration="normal" x="0" y="0" text-anchor="middle" dominant-baseline="hanging">3000</text><g transform="rotate(0,0,0) translate(-364,-416) translate(426,416) rotate(0,0,0)"><text fill="" stroke="none" font-family="helvetica" font-size="8pt" font-style="normal" font-weight="normal" text-decoration="normal" x="0" y="0" text-anchor="middle" dominant-baseline="hanging">4000</text><g transform="rotate(0,0,0) translate(-426,-416) translate(487,416) rotate(0,0,0)"><text fill="" stroke="none" font-family="helvetica" font-size="8pt" font-style="normal" font-weight="normal" text-decoration="normal" x="0" y="0" text-anchor="middle" dominant-baseline="hanging">5000</text><g transform="rotate(0,0,0) translate(-487,-416) translate(549,416) rotate(0,0,0)"><text fill="" stroke="none" font-family="helvetica" font-size="8pt" font-style="normal" font-weight="normal" text-decoration="normal" x="0" y="0" text-anchor="middle" dominant-baseline="hanging">6000</text><g transform="rotate(0,0,0) translate(-549,-416) translate(611,416) rotate(0,0,0)"><text fill="" stroke="none" font-family="helvetica" font-size="8pt" font-style="normal" font-weight="normal" text-decoration="normal" x="0" y="0" text-anchor="middle" dominant-baseline="hanging">7000</text><g transform="rotate(0,0,0) translate(-611,-416) translate(415,434) rotate(0,0,0)"><text fill="" stroke="none" font-family="helvetica" font-size="10pt" font-style="italic" font-weight="normal" text-decoration="normal" x="0" y="0" text-anchor="middle" dominant-baseline="hanging">Respondents</text><g transform="rotate(0,0,0) translate(-415,-434)"/></g></g></g></g></g></g></g></g></g></g><g fill="#444444"><path fill="none" stroke="black" paint-order="fill stroke markers" d=" M 179 405 L 179 28" stroke-miterlimit="10"/><path fill="none" stroke="black" paint-order="fill stroke markers" d=" M 173 384 L 181 384" stroke-miterlimit="10"/><path fill="none" stroke="black" paint-order="fill stroke markers" d=" M 173 342 L 181 342" stroke-miterlimit="10"/><path fill="none" stroke="black" paint-order="fill stroke markers" d=" M 173 300 L 181 300" stroke-miterlimit="10"/><path fill="none" stroke="black" paint-order="fill stroke markers" d=" M 173 258 L 181 258" stroke-miterlimit="10"/><path fill="none" stroke="black" paint-order="fill stroke markers" d=" M 173 217 L 181 217" stroke-miterlimit="10"/><path fill="none" stroke="black" paint-order="fill stroke markers" d=" M 173 175 L 181 175" stroke-miterlimit="10"/><path fill="none" stroke="black" paint-order="fill stroke markers" d=" M 173 133 L 181 133" stroke-miterlimit="10"/><path fill="none" stroke="black" paint-order="fill stroke markers" d=" M 173 91 L 181 91" stroke-miterlimit="10"/><path fill="" stroke="black" paint-order="fill stroke markers" d=" M 173 49 L 181 49" stroke-miterlimit="10"/><g transform="translate(168,384) rotate(0,0,0)"><text fill="" stroke="none" font-family="helvetica" font-size="8pt" font-style="normal" font-weight="normal" text-decoration="normal" x="0" y="0" text-anchor="end" dominant-baseline="central">Following design feeds</text><g transform="rotate(0,0,0) translate(-168,-384) translate(168,342) rotate(0,0,0)"><text fill="" stroke="none" font-family="helvetica" font-size="8pt" font-style="normal" font-weight="normal" text-decoration="normal" x="0" y="0" text-anchor="end" dominant-baseline="central">Reading online publications</text><g transform="rotate(0,0,0) translate(-168,-342) translate(168,300) rotate(0,0,0)"><text fill="" stroke="none" font-family="helvetica" font-size="8pt" font-style="normal" font-weight="normal" text-decoration="normal" x="0" y="0" text-anchor="end" dominant-baseline="central">Following social media</text><g transform="rotate(0,0,0) translate(-168,-300) translate(168,258) rotate(0,0,0)"><text fill="" stroke="none" font-family="helvetica" font-size="8pt" font-style="normal" font-weight="normal" text-decoration="normal" x="0" y="0" text-anchor="end" dominant-baseline="central">Discussing with peers</text><g transform="rotate(0,0,0) translate(-168,-258) translate(168,217) rotate(0,0,0)"><text fill="" stroke="none" font-family="helvetica" font-size="8pt" font-style="normal" font-weight="normal" text-decoration="normal" x="0" y="0" text-anchor="end" dominant-baseline="central">Reading books/magazines</text><g transform="rotate(0,0,0) translate(-168,-217) translate(168,175) rotate(0,0,0)"><text fill="" stroke="none" font-family="helvetica" font-size="8pt" font-style="normal" font-weight="normal" text-decoration="normal" x="0" y="0" text-anchor="end" dominant-baseline="central">Seeking online training</text><g transform="rotate(0,0,0) translate(-168,-175) translate(168,133) rotate(0,0,0)"><text fill="" stroke="none" font-family="helvetica" font-size="8pt" font-style="normal" font-weight="normal" text-decoration="normal" x="0" y="0" text-anchor="end" dominant-baseline="central">Attending conferences</text><g transform="rotate(0,0,0) translate(-168,-133) translate(168,91) rotate(0,0,0)"><text fill="" stroke="none" font-family="helvetica" font-size="8pt" font-style="normal" font-weight="normal" text-decoration="normal" x="0" y="0" text-anchor="end" dominant-baseline="central">Having a mentor</text><g transform="rotate(0,0,0) translate(-168,-91) translate(168,49) rotate(0,0,0)"><text fill="" stroke="none" font-family="helvetica" font-size="8pt" font-style="normal" font-weight="normal" text-decoration="normal" x="0" y="0" text-anchor="end" dominant-baseline="central">None of these</text><g transform="rotate(0,0,0) translate(-168,-49) translate(15,217) rotate(-90,0,0)"><text fill="" stroke="none" font-family="helvetica" font-size="10pt" font-style="italic" font-weight="normal" text-decoration="normal" x="0" y="0" text-anchor="middle" dominant-baseline="alphabetic">Categories</text><g transform="rotate(90,0,0) translate(-15,-217)"/></g></g></g></g></g></g></g></g></g></g></g><g fill="#444444"><path fill="" stroke="none" d=""/><g transform="translate(179,23)"><path fill="none" stroke="none"/><text fill="" stroke="none" font-family="helvetica" font-size="10pt" font-style="normal" font-weight="bold" text-decoration="normal" x="0" y="0" text-anchor="start" dominant-baseline="text-after-edge">NotAIGA: I stay current with design by:</text></g></g></g></g></g></svg>