<svg version="1.1" xmlns="http://www.w3.org/2000/svg" xmlns:xlink="http://www.w3.org/1999/xlink" width="700" height="350" style="width: 700px; height: 350px;"><defs/><g><g transform="scale(1,1) translate(0.5,0.5)"><rect fill="#FFFFFF" stroke="none" x="0" y="0" width="700" height="350"/><rect fill="#ffffff" stroke="none" x="0" y="0" width="700" height="350"/><rect fill="#FFFFFF" stroke="none" x="192" y="28" width="458" height="277"/><rect fill="#ffffff" stroke="none" x="192" y="28" width="458" height="277"/><g><rect fill="none" stroke="#e5e5e5" x="192" y="28" width="458" height="277" stroke-miterlimit="10"/></g><g><g><path fill="none" stroke="#e5e5e5" paint-order="fill stroke markers" d=" M 264 305 L 264 28" stroke-miterlimit="10"/><path fill="none" stroke="#e5e5e5" paint-order="fill stroke markers" d=" M 337 305 L 337 28" stroke-miterlimit="10"/><path fill="none" stroke="#e5e5e5" paint-order="fill stroke markers" d=" M 409 305 L 409 28" stroke-miterlimit="10"/><path fill="none" stroke="#e5e5e5" paint-order="fill stroke markers" d=" M 482 305 L 482 28" stroke-miterlimit="10"/><path fill="none" stroke="#e5e5e5" paint-order="fill stroke markers" d=" M 554 305 L 554 28" stroke-miterlimit="10"/><path fill="none" stroke="#e5e5e5" paint-order="fill stroke markers" d=" M 627 305 L 627 28" stroke-miterlimit="10"/></g><g><path fill="none" stroke="#e5e5e5" paint-order="fill stroke markers" d=" M 192 285 L 650 285" stroke-miterlimit="10"/><path fill="none" stroke="#e5e5e5" paint-order="fill stroke markers" d=" M 192 246 L 650 246" stroke-miterlimit="10"/><path fill="none" stroke="#e5e5e5" paint-order="fill stroke markers" d=" M 192 206 L 650 206" stroke-miterlimit="10"/><path fill="none" stroke="#e5e5e5" paint-order="fill stroke markers" d=" M 192 167 L 650 167" stroke-miterlimit="10"/><path fill="none" stroke="#e5e5e5" paint-order="fill stroke markers" d=" M 192 127 L 650 127" stroke-miterlimit="10"/><path fill="none" stroke="#e5e5e5" paint-order="fill stroke markers" d=" M 192 87 L 650 87" stroke-miterlimit="10"/><path fill="none" stroke="#e5e5e5" paint-order="fill stroke markers" d=" M 192 48 L 650 48" stroke-miterlimit="10"/></g><g><path fill="none" stroke="none"/><rect fill="#1f77b4" stroke="none" x="192" y="270.375" width="378.0455407969639" height="29.678571428571445"/><path fill="none" stroke="#1f77b4" paint-order="fill stroke markers" d=" M 192 270.375 L 570.0455407969639 270.375 L 570.0455407969639 300.05357142857144 L 192 300.05357142857144 L 192 270.375 Z" stroke-miterlimit="10"/><rect fill="#1f77b4" stroke="none" x="192" y="230.80357142857142" width="96.53921568627447" height="29.678571428571473"/><path fill="none" stroke="#1f77b4" paint-order="fill stroke markers" d=" M 192 230.80357142857142 L 288.5392156862745 230.80357142857142 L 288.5392156862745 260.4821428571429 L 192 260.4821428571429 L 192 230.80357142857142 Z" stroke-miterlimit="10"/><rect fill="#1f77b4" stroke="none" x="192" y="191.2321428571429" width="33.097090449082856" height="29.678571428571388"/><path fill="none" stroke="#1f77b4" paint-order="fill stroke markers" d=" M 192 191.2321428571429 L 225.09709044908286 191.2321428571429 L 225.09709044908286 220.91071428571428 L 192 220.91071428571428 L 192 191.2321428571429 Z" stroke-miterlimit="10"/><rect fill="#1f77b4" stroke="none" x="192" y="151.66071428571428" width="24.768500948766587" height="29.678571428571445"/><path fill="none" stroke="#1f77b4" paint-order="fill stroke markers" d=" M 192 151.66071428571428 L 216.7685009487666 151.66071428571428 L 216.7685009487666 181.33928571428572 L 192 181.33928571428572 L 192 151.66071428571428 Z" stroke-miterlimit="10"/><rect fill="#1f77b4" stroke="none" x="192" y="112.08928571428574" width="17.598671726755214" height="29.67857142857143"/><path fill="none" stroke="#1f77b4" paint-order="fill stroke markers" d=" M 192 112.08928571428574 L 209.5986717267552 112.08928571428574 L 209.5986717267552 141.76785714285717 L 192 141.76785714285717 L 192 112.08928571428574 Z" stroke-miterlimit="10"/><rect fill="#1f77b4" stroke="none" x="192" y="72.51785714285715" width="12.818785578747622" height="29.678571428571416"/><path fill="none" stroke="#1f77b4" paint-order="fill stroke markers" d=" M 192 72.51785714285715 L 204.81878557874762 72.51785714285715 L 204.81878557874762 102.19642857142857 L 192 102.19642857142857 L 192 72.51785714285715 Z" stroke-miterlimit="10"/><rect fill="#1f77b4" stroke="none" x="192" y="32.946428571428584" width="4.852308665401637" height="29.678571428571388"/><path fill="none" stroke="#1f77b4" paint-order="fill stroke markers" d=" M 192 32.946428571428584 L 196.85230866540164 32.946428571428584 L 196.85230866540164 62.62499999999997 L 192 62.62499999999997 L 192 32.946428571428584 Z" stroke-miterlimit="10"/></g><g fill="#444444"><path fill="" stroke="none" d=""/><g transform="translate(580.0455407969639,283.2142857142857) rotate(0,0,0)"><path fill="none" stroke="none"/><text fill="" stroke="none" font-family="helvetica" font-size="8pt" font-style="normal" font-weight="normal" text-decoration="normal" x="0" y="0" text-anchor="start" dominant-baseline="text-after-edge">66.59%</text></g></g><g fill="#444444"><path fill="" stroke="none" d=""/><g transform="translate(298.5392156862745,243.64285714285714) rotate(0,0,0)"><path fill="none" stroke="none"/><text fill="" stroke="none" font-family="helvetica" font-size="8pt" font-style="normal" font-weight="normal" text-decoration="normal" x="0" y="0" text-anchor="start" dominant-baseline="text-after-edge">17.00%</text></g></g><g fill="#444444"><path fill="" stroke="none" d=""/><g transform="translate(235.09709044908286,204.07142857142858) rotate(0,0,0)"><path fill="none" stroke="none"/><text fill="" stroke="none" font-family="helvetica" font-size="8pt" font-style="normal" font-weight="normal" text-decoration="normal" x="0" y="0" text-anchor="start" dominant-baseline="text-after-edge">5.83%</text></g></g><g fill="#444444"><path fill="" stroke="none" d=""/><g transform="translate(226.7685009487666,164.5) rotate(0,0,0)"><path fill="none" stroke="none"/><text fill="" stroke="none" font-family="helvetica" font-size="8pt" font-style="normal" font-weight="normal" text-decoration="normal" x="0" y="0" text-anchor="start" dominant-baseline="text-after-edge">4.36%</text></g></g><g fill="#444444"><path fill="" stroke="none" d=""/><g transform="translate(219.5986717267552,124.92857142857144) rotate(0,0,0)"><path fill="none" stroke="none"/><text fill="" stroke="none" font-family="helvetica" font-size="8pt" font-style="normal" font-weight="normal" text-decoration="normal" x="0" y="0" text-anchor="start" dominant-baseline="text-after-edge">3.10%</text></g></g><g fill="#444444"><path fill="" stroke="none" d=""/><g transform="translate(214.81878557874762,85.35714285714286) rotate(0,0,0)"><path fill="none" stroke="none"/><text fill="" stroke="none" font-family="helvetica" font-size="8pt" font-style="normal" font-weight="normal" text-decoration="normal" x="0" y="0" text-anchor="start" dominant-baseline="text-after-edge">2.26%</text></g></g><g fill="#444444"><path fill="" stroke="none" d=""/><g transform="translate(206.85230866540164,45.78571428571428) rotate(0,0,0)"><path fill="none" stroke="none"/><text fill="" stroke="none" font-family="helvetica" font-size="8pt" font-style="normal" font-weight="normal" text-decoration="normal" x="0" y="0" text-anchor="start" dominant-baseline="text-after-edge">0.85%</text></g></g><g fill="#444444"><path fill="" stroke="none" d=""/><g transform="translate(580.0455407969639,297.2142857142857) rotate(0,0,0)"><path fill="none" stroke="none"/><text fill="" stroke="none" font-family="helvetica" font-size="8pt" font-style="normal" font-weight="normal" text-decoration="normal" x="0" y="0" text-anchor="start" dominant-baseline="text-after-edge">5220</text></g></g><g fill="#444444"><path fill="" stroke="none" d=""/><g transform="translate(298.5392156862745,257.6428571428571) rotate(0,0,0)"><path fill="none" stroke="none"/><text fill="" stroke="none" font-family="helvetica" font-size="8pt" font-style="normal" font-weight="normal" text-decoration="normal" x="0" y="0" text-anchor="start" dominant-baseline="text-after-edge">1333</text></g></g><g fill="#444444"><path fill="" stroke="none" d=""/><g transform="translate(235.09709044908286,218.07142857142858) rotate(0,0,0)"><path fill="none" stroke="none"/><text fill="" stroke="none" font-family="helvetica" font-size="8pt" font-style="normal" font-weight="normal" text-decoration="normal" x="0" y="0" text-anchor="start" dominant-baseline="text-after-edge">457</text></g></g><g fill="#444444"><path fill="" stroke="none" d=""/><g transform="translate(226.7685009487666,178.5) rotate(0,0,0)"><path fill="none" stroke="none"/><text fill="" stroke="none" font-family="helvetica" font-size="8pt" font-style="normal" font-weight="normal" text-decoration="normal" x="0" y="0" text-anchor="start" dominant-baseline="text-after-edge">342</text></g></g><g fill="#444444"><path fill="" stroke="none" d=""/><g transform="translate(219.5986717267552,138.92857142857144) rotate(0,0,0)"><path fill="none" stroke="none"/><text fill="" stroke="none" font-family="helvetica" font-size="8pt" font-style="normal" font-weight="normal" text-decoration="normal" x="0" y="0" text-anchor="start" dominant-baseline="text-after-edge">243</text></g></g><g fill="#444444"><path fill="" stroke="none" d=""/><g transform="translate(214.81878557874762,99.35714285714286) rotate(0,0,0)"><path fill="none" stroke="none"/><text fill="" stroke="none" font-family="helvetica" font-size="8pt" font-style="normal" font-weight="normal" text-decoration="normal" x="0" y="0" text-anchor="start" dominant-baseline="text-after-edge">177</text></g></g><g fill="#444444"><path fill="" stroke="none" d=""/><g transform="translate(206.85230866540164,59.78571428571428) rotate(0,0,0)"><path fill="none" stroke="none"/><text fill="" stroke="none" font-family="helvetica" font-size="8pt" font-style="normal" font-weight="normal" text-decoration="normal" x="0" y="0" text-anchor="start" dominant-baseline="text-after-edge">67</text></g></g></g><g/><g><g fill="#444444"><path fill="none" stroke="black" paint-order="fill stroke markers" d=" M 192 305 L 650 305" stroke-miterlimit="10"/><path fill="none" stroke="black" paint-order="fill stroke markers" d=" M 192 311 L 192 303" stroke-miterlimit="10"/><path fill="none" stroke="black" paint-order="fill stroke markers" d=" M 264 311 L 264 303" stroke-miterlimit="10"/><path fill="none" stroke="black" paint-order="fill stroke markers" d=" M 337 311 L 337 303" stroke-miterlimit="10"/><path fill="none" stroke="black" paint-order="fill stroke markers" d=" M 409 311 L 409 303" stroke-miterlimit="10"/><path fill="none" stroke="black" paint-order="fill stroke markers" d=" M 482 311 L 482 303" stroke-miterlimit="10"/><path fill="none" stroke="black" paint-order="fill stroke markers" d=" M 554 311 L 554 303" stroke-miterlimit="10"/><path fill="none" stroke="black" paint-order="fill stroke markers" d=" M 627 311 L 627 303" stroke-miterlimit="10"/><path fill="none" stroke="black" paint-order="fill stroke markers" d=" M 192 309 L 192 305" stroke-miterlimit="10"/><path fill="none" stroke="black" paint-order="fill stroke markers" d=" M 206 309 L 206 305" stroke-miterlimit="10"/><path fill="none" stroke="black" paint-order="fill stroke markers" d=" M 221 309 L 221 305" stroke-miterlimit="10"/><path fill="none" stroke="black" paint-order="fill stroke markers" d=" M 235 309 L 235 305" stroke-miterlimit="10"/><path fill="none" stroke="black" paint-order="fill stroke markers" d=" M 250 309 L 250 305" stroke-miterlimit="10"/><path fill="none" stroke="black" paint-order="fill stroke markers" d=" M 264 309 L 264 305" stroke-miterlimit="10"/><path fill="none" stroke="black" paint-order="fill stroke markers" d=" M 279 309 L 279 305" stroke-miterlimit="10"/><path fill="none" stroke="black" paint-order="fill stroke markers" d=" M 293 309 L 293 305" stroke-miterlimit="10"/><path fill="none" stroke="black" paint-order="fill stroke markers" d=" M 308 309 L 308 305" stroke-miterlimit="10"/><path fill="none" stroke="black" paint-order="fill stroke markers" d=" M 322 309 L 322 305" stroke-miterlimit="10"/><path fill="none" stroke="black" paint-order="fill stroke markers" d=" M 337 309 L 337 305" stroke-miterlimit="10"/><path fill="none" stroke="black" paint-order="fill stroke markers" d=" M 351 309 L 351 305" stroke-miterlimit="10"/><path fill="none" stroke="black" paint-order="fill stroke markers" d=" M 366 309 L 366 305" stroke-miterlimit="10"/><path fill="none" stroke="black" paint-order="fill stroke markers" d=" M 380 309 L 380 305" stroke-miterlimit="10"/><path fill="none" stroke="black" paint-order="fill stroke markers" d=" M 395 309 L 395 305" stroke-miterlimit="10"/><path fill="none" stroke="black" paint-order="fill stroke markers" d=" M 409 309 L 409 305" stroke-miterlimit="10"/><path fill="none" stroke="black" paint-order="fill stroke markers" d=" M 424 309 L 424 305" stroke-miterlimit="10"/><path fill="none" stroke="black" paint-order="fill stroke markers" d=" M 438 309 L 438 305" stroke-miterlimit="10"/><path fill="none" stroke="black" paint-order="fill stroke markers" d=" M 453 309 L 453 305" stroke-miterlimit="10"/><path fill="none" stroke="black" paint-order="fill stroke markers" d=" M 467 309 L 467 305" stroke-miterlimit="10"/><path fill="none" stroke="black" paint-order="fill stroke markers" d=" M 482 309 L 482 305" stroke-miterlimit="10"/><path fill="none" stroke="black" paint-order="fill stroke markers" d=" M 496 309 L 496 305" stroke-miterlimit="10"/><path fill="none" stroke="black" paint-order="fill stroke markers" d=" M 511 309 L 511 305" stroke-miterlimit="10"/><path fill="none" stroke="black" paint-order="fill stroke markers" d=" M 525 309 L 525 305" stroke-miterlimit="10"/><path fill="none" stroke="black" paint-order="fill stroke markers" d=" M 540 309 L 540 305" stroke-miterlimit="10"/><path fill="none" stroke="black" paint-order="fill stroke markers" d=" M 554 309 L 554 305" stroke-miterlimit="10"/><path fill="none" stroke="black" paint-order="fill stroke markers" d=" M 569 309 L 569 305" stroke-miterlimit="10"/><path fill="none" stroke="black" paint-order="fill stroke markers" d=" M 583 309 L 583 305" stroke-miterlimit="10"/><path fill="none" stroke="black" paint-order="fill stroke markers" d=" M 598 309 L 598 305" stroke-miterlimit="10"/><path fill="none" stroke="black" paint-order="fill stroke markers" d=" M 612 309 L 612 305" stroke-miterlimit="10"/><path fill="none" stroke="black" paint-order="fill stroke markers" d=" M 627 309 L 627 305" stroke-miterlimit="10"/><path fill="" stroke="black" paint-order="fill stroke markers" d=" M 641 309 L 641 305" stroke-miterlimit="10"/><g transform="translate(192,316) rotate(0,0,0)"><text fill="" stroke="none" font-family="helvetica" font-size="8pt" font-style="normal" font-weight="normal" text-decoration="normal" x="0" y="0" text-anchor="middle" dominant-baseline="hanging">0</text><g transform="rotate(0,0,0) translate(-192,-316) translate(264,316) rotate(0,0,0)"><text fill="" stroke="none" font-family="helvetica" font-size="8pt" font-style="normal" font-weight="normal" text-decoration="normal" x="0" y="0" text-anchor="middle" dominant-baseline="hanging">1000</text><g transform="rotate(0,0,0) translate(-264,-316) translate(337,316) rotate(0,0,0)"><text fill="" stroke="none" font-family="helvetica" font-size="8pt" font-style="normal" font-weight="normal" text-decoration="normal" x="0" y="0" text-anchor="middle" dominant-baseline="hanging">2000</text><g transform="rotate(0,0,0) translate(-337,-316) translate(409,316) rotate(0,0,0)"><text fill="" stroke="none" font-family="helvetica" font-size="8pt" font-style="normal" font-weight="normal" text-decoration="normal" x="0" y="0" text-anchor="middle" dominant-baseline="hanging">3000</text><g transform="rotate(0,0,0) translate(-409,-316) translate(482,316) rotate(0,0,0)"><text fill="" stroke="none" font-family="helvetica" font-size="8pt" font-style="normal" font-weight="normal" text-decoration="normal" x="0" y="0" text-anchor="middle" dominant-baseline="hanging">4000</text><g transform="rotate(0,0,0) translate(-482,-316) translate(554,316) rotate(0,0,0)"><text fill="" stroke="none" font-family="helvetica" font-size="8pt" font-style="normal" font-weight="normal" text-decoration="normal" x="0" y="0" text-anchor="middle" dominant-baseline="hanging">5000</text><g transform="rotate(0,0,0) translate(-554,-316) translate(627,316) rotate(0,0,0)"><text fill="" stroke="none" font-family="helvetica" font-size="8pt" font-style="normal" font-weight="normal" text-decoration="normal" x="0" y="0" text-anchor="middle" dominant-baseline="hanging">6000</text><g transform="rotate(0,0,0) translate(-627,-316) translate(421,334) rotate(0,0,0)"><text fill="" stroke="none" font-family="helvetica" font-size="10pt" font-style="italic" font-weight="normal" text-decoration="normal" x="0" y="0" text-anchor="middle" dominant-baseline="hanging">Respondents</text><g transform="rotate(0,0,0) translate(-421,-334)"/></g></g></g></g></g></g></g></g></g><g fill="#444444"><path fill="none" stroke="black" paint-order="fill stroke markers" d=" M 192 305 L 192 28" stroke-miterlimit="10"/><path fill="none" stroke="black" paint-order="fill stroke markers" d=" M 186 285 L 194 285" stroke-miterlimit="10"/><path fill="none" stroke="black" paint-order="fill stroke markers" d=" M 186 246 L 194 246" stroke-miterlimit="10"/><path fill="none" stroke="black" paint-order="fill stroke markers" d=" M 186 206 L 194 206" stroke-miterlimit="10"/><path fill="none" stroke="black" paint-order="fill stroke markers" d=" M 186 167 L 194 167" stroke-miterlimit="10"/><path fill="none" stroke="black" paint-order="fill stroke markers" d=" M 186 127 L 194 127" stroke-miterlimit="10"/><path fill="none" stroke="black" paint-order="fill stroke markers" d=" M 186 87 L 194 87" stroke-miterlimit="10"/><path fill="" stroke="black" paint-order="fill stroke markers" d=" M 186 48 L 194 48" stroke-miterlimit="10"/><g transform="translate(181,285) rotate(0,0,0)"><text fill="" stroke="none" font-family="helvetica" font-size="8pt" font-style="normal" font-weight="normal" text-decoration="normal" x="0" y="0" text-anchor="end" dominant-baseline="central">Bachelor's degree</text><g transform="rotate(0,0,0) translate(-181,-285) translate(181,246) rotate(0,0,0)"><text fill="" stroke="none" font-family="helvetica" font-size="8pt" font-style="normal" font-weight="normal" text-decoration="normal" x="0" y="0" text-anchor="end" dominant-baseline="central">Master's degree</text><g transform="rotate(0,0,0) translate(-181,-246) translate(181,206) rotate(0,0,0)"><text fill="" stroke="none" font-family="helvetica" font-size="8pt" font-style="normal" font-weight="normal" text-decoration="normal" x="0" y="0" text-anchor="end" dominant-baseline="central">Some college</text><g transform="rotate(0,0,0) translate(-181,-206) translate(181,167) rotate(0,0,0)"><text fill="" stroke="none" font-family="helvetica" font-size="8pt" font-style="normal" font-weight="normal" text-decoration="normal" x="0" y="0" text-anchor="end" dominant-baseline="central">Associate's degree</text><g transform="rotate(0,0,0) translate(-181,-167) translate(181,127) rotate(0,0,0)"><text fill="" stroke="none" font-family="helvetica" font-size="8pt" font-style="normal" font-weight="normal" text-decoration="normal" x="0" y="0" text-anchor="end" dominant-baseline="central">Technical degree or certificate</text><g transform="rotate(0,0,0) translate(-181,-127) translate(181,87) rotate(0,0,0)"><text fill="" stroke="none" font-family="helvetica" font-size="8pt" font-style="normal" font-weight="normal" text-decoration="normal" x="0" y="0" text-anchor="end" dominant-baseline="central">High School or less</text><g transform="rotate(0,0,0) translate(-181,-87) translate(181,48) rotate(0,0,0)"><text fill="" stroke="none" font-family="helvetica" font-size="8pt" font-style="normal" font-weight="normal" text-decoration="normal" x="0" y="0" text-anchor="end" dominant-baseline="central">Doctorate</text><g transform="rotate(0,0,0) translate(-181,-48) translate(15,167) rotate(-90,0,0)"><text fill="" stroke="none" font-family="helvetica" font-size="10pt" font-style="italic" font-weight="normal" text-decoration="normal" x="0" y="0" text-anchor="middle" dominant-baseline="alphabetic">Categories</text><g transform="rotate(90,0,0) translate(-15,-167)"/></g></g></g></g></g></g></g></g></g><g fill="#444444"><path fill="" stroke="none" d=""/><g transform="translate(192,23)"><path fill="none" stroke="none"/><text fill="" stroke="none" font-family="helvetica" font-size="10pt" font-style="normal" font-weight="bold" text-decoration="normal" x="0" y="0" text-anchor="start" dominant-baseline="text-after-edge">NotAIGA: Highest level of education I've completed:</text></g></g></g></g></g></svg>