<svg version="1.1" xmlns="http://www.w3.org/2000/svg" xmlns:xlink="http://www.w3.org/1999/xlink" width="700" height="550" style="width: 700px; height: 550px;"><defs/><g><g transform="scale(1,1) translate(0.5,0.5)"><rect fill="#FFFFFF" stroke="none" x="0" y="0" width="700" height="550"/><rect fill="#ffffff" stroke="none" x="0" y="0" width="700" height="550"/><rect fill="#FFFFFF" stroke="none" x="114" y="28" width="536" height="477"/><rect fill="#ffffff" stroke="none" x="114" y="28" width="536" height="477"/><g><rect fill="none" stroke="#e5e5e5" x="114" y="28" width="536" height="477" stroke-miterlimit="10"/></g><g><g><path fill="none" stroke="#e5e5e5" paint-order="fill stroke markers" d=" M 215 505 L 215 28" stroke-miterlimit="10"/><path fill="none" stroke="#e5e5e5" paint-order="fill stroke markers" d=" M 317 505 L 317 28" stroke-miterlimit="10"/><path fill="none" stroke="#e5e5e5" paint-order="fill stroke markers" d=" M 418 505 L 418 28" stroke-miterlimit="10"/><path fill="none" stroke="#e5e5e5" paint-order="fill stroke markers" d=" M 520 505 L 520 28" stroke-miterlimit="10"/><path fill="none" stroke="#e5e5e5" paint-order="fill stroke markers" d=" M 621 505 L 621 28" stroke-miterlimit="10"/></g><g><path fill="none" stroke="#e5e5e5" paint-order="fill stroke markers" d=" M 114 483 L 650 483" stroke-miterlimit="10"/><path fill="none" stroke="#e5e5e5" paint-order="fill stroke markers" d=" M 114 440 L 650 440" stroke-miterlimit="10"/><path fill="none" stroke="#e5e5e5" paint-order="fill stroke markers" d=" M 114 397 L 650 397" stroke-miterlimit="10"/><path fill="none" stroke="#e5e5e5" paint-order="fill stroke markers" d=" M 114 353 L 650 353" stroke-miterlimit="10"/><path fill="none" stroke="#e5e5e5" paint-order="fill stroke markers" d=" M 114 310 L 650 310" stroke-miterlimit="10"/><path fill="none" stroke="#e5e5e5" paint-order="fill stroke markers" d=" M 114 267 L 650 267" stroke-miterlimit="10"/><path fill="none" stroke="#e5e5e5" paint-order="fill stroke markers" d=" M 114 223 L 650 223" stroke-miterlimit="10"/><path fill="none" stroke="#e5e5e5" paint-order="fill stroke markers" d=" M 114 180 L 650 180" stroke-miterlimit="10"/><path fill="none" stroke="#e5e5e5" paint-order="fill stroke markers" d=" M 114 136 L 650 136" stroke-miterlimit="10"/><path fill="none" stroke="#e5e5e5" paint-order="fill stroke markers" d=" M 114 93 L 650 93" stroke-miterlimit="10"/><path fill="none" stroke="#e5e5e5" paint-order="fill stroke markers" d=" M 114 50 L 650 50" stroke-miterlimit="10"/></g><g><path fill="none" stroke="none"/><rect fill="#1f77b4" stroke="none" x="114" y="467.0568181818182" width="436.51976374375295" height="32.52272727272725"/><path fill="none" stroke="#1f77b4" paint-order="fill stroke markers" d=" M 114 467.0568181818182 L 550.519763743753 467.0568181818182 L 550.519763743753 499.57954545454544 L 114 499.57954545454544 L 114 467.0568181818182 Z" stroke-miterlimit="10"/><rect fill="#1f77b4" stroke="none" x="114" y="423.6931818181818" width="337.6889292745722" height="32.52272727272725"/><path fill="none" stroke="#1f77b4" paint-order="fill stroke markers" d=" M 114 423.6931818181818 L 451.6889292745722 423.6931818181818 L 451.6889292745722 456.21590909090907 L 114 456.21590909090907 L 114 423.6931818181818 Z" stroke-miterlimit="10"/><rect fill="#1f77b4" stroke="none" x="114" y="380.3295454545454" width="259.55777676813574" height="32.522727272727366"/><path fill="none" stroke="#1f77b4" paint-order="fill stroke markers" d=" M 114 380.3295454545454 L 373.55777676813574 380.3295454545454 L 373.55777676813574 412.85227272727275 L 114 412.85227272727275 L 114 380.3295454545454 Z" stroke-miterlimit="10"/><rect fill="#1f77b4" stroke="none" x="114" y="336.9659090909091" width="251.8461305467212" height="32.52272727272725"/><path fill="none" stroke="#1f77b4" paint-order="fill stroke markers" d=" M 114 336.9659090909091 L 365.8461305467212 336.9659090909091 L 365.8461305467212 369.4886363636364 L 114 369.4886363636364 L 114 336.9659090909091 Z" stroke-miterlimit="10"/><rect fill="#1f77b4" stroke="none" x="114" y="293.60227272727275" width="247.5844313190974" height="32.52272727272725"/><path fill="none" stroke="#1f77b4" paint-order="fill stroke markers" d=" M 114 293.60227272727275 L 361.5844313190974 293.60227272727275 L 361.5844313190974 326.125 L 114 326.125 L 114 293.60227272727275 Z" stroke-miterlimit="10"/><rect fill="#1f77b4" stroke="none" x="114" y="250.23863636363637" width="192.1823413599879" height="32.52272727272725"/><path fill="none" stroke="#1f77b4" paint-order="fill stroke markers" d=" M 114 250.23863636363637 L 306.1823413599879 250.23863636363637 L 306.1823413599879 282.7613636363636 L 114 282.7613636363636 L 114 250.23863636363637 Z" stroke-miterlimit="10"/><rect fill="#1f77b4" stroke="none" x="114" y="206.875" width="149.36241102529152" height="32.52272727272725"/><path fill="none" stroke="#1f77b4" paint-order="fill stroke markers" d=" M 114 206.875 L 263.3624110252915 206.875 L 263.3624110252915 239.39772727272725 L 114 239.39772727272725 L 114 206.875 Z" stroke-miterlimit="10"/><rect fill="#1f77b4" stroke="none" x="114" y="163.51136363636363" width="125.41572012721491" height="32.52272727272725"/><path fill="none" stroke="#1f77b4" paint-order="fill stroke markers" d=" M 114 163.51136363636363 L 239.4157201272149 163.51136363636363 L 239.4157201272149 196.03409090909088 L 114 196.03409090909088 L 114 163.51136363636363 Z" stroke-miterlimit="10"/><rect fill="#1f77b4" stroke="none" x="114" y="120.14772727272725" width="87.06042707860064" height="32.52272727272725"/><path fill="none" stroke="#1f77b4" paint-order="fill stroke markers" d=" M 114 120.14772727272725 L 201.06042707860064 120.14772727272725 L 201.06042707860064 152.6704545454545 L 114 152.6704545454545 L 114 120.14772727272725 Z" stroke-miterlimit="10"/><rect fill="#1f77b4" stroke="none" x="114" y="76.78409090909088" width="54.79327578373466" height="32.52272727272725"/><path fill="none" stroke="#1f77b4" paint-order="fill stroke markers" d=" M 114 76.78409090909088 L 168.79327578373466 76.78409090909088 L 168.79327578373466 109.30681818181813 L 114 109.30681818181813 L 114 76.78409090909088 Z" stroke-miterlimit="10"/><rect fill="#1f77b4" stroke="none" x="114" y="33.420454545454476" width="39.36998334090566" height="32.52272727272731"/><path fill="none" stroke="#1f77b4" paint-order="fill stroke markers" d=" M 114 33.420454545454476 L 153.36998334090566 33.420454545454476 L 153.36998334090566 65.94318181818178 L 114 65.94318181818178 L 114 33.420454545454476 Z" stroke-miterlimit="10"/></g><g fill="#444444"><path fill="" stroke="none" d=""/><g transform="translate(560.519763743753,481.3181818181818) rotate(0,0,0)"><path fill="none" stroke="none"/><text fill="" stroke="none" font-family="helvetica" font-size="8pt" font-style="normal" font-weight="normal" text-decoration="normal" x="0" y="0" text-anchor="start" dominant-baseline="text-after-edge">27.44%</text></g></g><g fill="#444444"><path fill="" stroke="none" d=""/><g transform="translate(461.6889292745722,437.95454545454544) rotate(0,0,0)"><path fill="none" stroke="none"/><text fill="" stroke="none" font-family="helvetica" font-size="8pt" font-style="normal" font-weight="normal" text-decoration="normal" x="0" y="0" text-anchor="start" dominant-baseline="text-after-edge">21.23%</text></g></g><g fill="#444444"><path fill="" stroke="none" d=""/><g transform="translate(383.55777676813574,394.59090909090907) rotate(0,0,0)"><path fill="none" stroke="none"/><text fill="" stroke="none" font-family="helvetica" font-size="8pt" font-style="normal" font-weight="normal" text-decoration="normal" x="0" y="0" text-anchor="start" dominant-baseline="text-after-edge">16.32%</text></g></g><g fill="#444444"><path fill="" stroke="none" d=""/><g transform="translate(375.8461305467212,351.22727272727275) rotate(0,0,0)"><path fill="none" stroke="none"/><text fill="" stroke="none" font-family="helvetica" font-size="8pt" font-style="normal" font-weight="normal" text-decoration="normal" x="0" y="0" text-anchor="start" dominant-baseline="text-after-edge">15.83%</text></g></g><g fill="#444444"><path fill="" stroke="none" d=""/><g transform="translate(371.5844313190974,307.8636363636364) rotate(0,0,0)"><path fill="none" stroke="none"/><text fill="" stroke="none" font-family="helvetica" font-size="8pt" font-style="normal" font-weight="normal" text-decoration="normal" x="0" y="0" text-anchor="start" dominant-baseline="text-after-edge">15.56%</text></g></g><g fill="#444444"><path fill="" stroke="none" d=""/><g transform="translate(316.1823413599879,264.5) rotate(0,0,0)"><path fill="none" stroke="none"/><text fill="" stroke="none" font-family="helvetica" font-size="8pt" font-style="normal" font-weight="normal" text-decoration="normal" x="0" y="0" text-anchor="start" dominant-baseline="text-after-edge">12.08%</text></g></g><g fill="#444444"><path fill="" stroke="none" d=""/><g transform="translate(273.3624110252915,221.13636363636363) rotate(0,0,0)"><path fill="none" stroke="none"/><text fill="" stroke="none" font-family="helvetica" font-size="8pt" font-style="normal" font-weight="normal" text-decoration="normal" x="0" y="0" text-anchor="start" dominant-baseline="text-after-edge">9.39%</text></g></g><g fill="#444444"><path fill="" stroke="none" d=""/><g transform="translate(249.4157201272149,177.77272727272725) rotate(0,0,0)"><path fill="none" stroke="none"/><text fill="" stroke="none" font-family="helvetica" font-size="8pt" font-style="normal" font-weight="normal" text-decoration="normal" x="0" y="0" text-anchor="start" dominant-baseline="text-after-edge">7.88%</text></g></g><g fill="#444444"><path fill="" stroke="none" d=""/><g transform="translate(211.06042707860064,134.40909090909088) rotate(0,0,0)"><path fill="none" stroke="none"/><text fill="" stroke="none" font-family="helvetica" font-size="8pt" font-style="normal" font-weight="normal" text-decoration="normal" x="0" y="0" text-anchor="start" dominant-baseline="text-after-edge">5.47%</text></g></g><g fill="#444444"><path fill="" stroke="none" d=""/><g transform="translate(178.79327578373466,91.0454545454545) rotate(0,0,0)"><path fill="none" stroke="none"/><text fill="" stroke="none" font-family="helvetica" font-size="8pt" font-style="normal" font-weight="normal" text-decoration="normal" x="0" y="0" text-anchor="start" dominant-baseline="text-after-edge">3.44%</text></g></g><g fill="#444444"><path fill="" stroke="none" d=""/><g transform="translate(163.36998334090566,47.68181818181813) rotate(0,0,0)"><path fill="none" stroke="none"/><text fill="" stroke="none" font-family="helvetica" font-size="8pt" font-style="normal" font-weight="normal" text-decoration="normal" x="0" y="0" text-anchor="start" dominant-baseline="text-after-edge">2.47%</text></g></g><g fill="#444444"><path fill="" stroke="none" d=""/><g transform="translate(560.519763743753,495.3181818181818) rotate(0,0,0)"><path fill="none" stroke="none"/><text fill="" stroke="none" font-family="helvetica" font-size="8pt" font-style="normal" font-weight="normal" text-decoration="normal" x="0" y="0" text-anchor="start" dominant-baseline="text-after-edge">2151</text></g></g><g fill="#444444"><path fill="" stroke="none" d=""/><g transform="translate(461.6889292745722,451.95454545454544) rotate(0,0,0)"><path fill="none" stroke="none"/><text fill="" stroke="none" font-family="helvetica" font-size="8pt" font-style="normal" font-weight="normal" text-decoration="normal" x="0" y="0" text-anchor="start" dominant-baseline="text-after-edge">1664</text></g></g><g fill="#444444"><path fill="" stroke="none" d=""/><g transform="translate(383.55777676813574,408.59090909090907) rotate(0,0,0)"><path fill="none" stroke="none"/><text fill="" stroke="none" font-family="helvetica" font-size="8pt" font-style="normal" font-weight="normal" text-decoration="normal" x="0" y="0" text-anchor="start" dominant-baseline="text-after-edge">1279</text></g></g><g fill="#444444"><path fill="" stroke="none" d=""/><g transform="translate(375.8461305467212,365.22727272727275) rotate(0,0,0)"><path fill="none" stroke="none"/><text fill="" stroke="none" font-family="helvetica" font-size="8pt" font-style="normal" font-weight="normal" text-decoration="normal" x="0" y="0" text-anchor="start" dominant-baseline="text-after-edge">1241</text></g></g><g fill="#444444"><path fill="" stroke="none" d=""/><g transform="translate(371.5844313190974,321.8636363636364) rotate(0,0,0)"><path fill="none" stroke="none"/><text fill="" stroke="none" font-family="helvetica" font-size="8pt" font-style="normal" font-weight="normal" text-decoration="normal" x="0" y="0" text-anchor="start" dominant-baseline="text-after-edge">1220</text></g></g><g fill="#444444"><path fill="" stroke="none" d=""/><g transform="translate(316.1823413599879,278.5) rotate(0,0,0)"><path fill="none" stroke="none"/><text fill="" stroke="none" font-family="helvetica" font-size="8pt" font-style="normal" font-weight="normal" text-decoration="normal" x="0" y="0" text-anchor="start" dominant-baseline="text-after-edge">947</text></g></g><g fill="#444444"><path fill="" stroke="none" d=""/><g transform="translate(273.3624110252915,235.13636363636363) rotate(0,0,0)"><path fill="none" stroke="none"/><text fill="" stroke="none" font-family="helvetica" font-size="8pt" font-style="normal" font-weight="normal" text-decoration="normal" x="0" y="0" text-anchor="start" dominant-baseline="text-after-edge">736</text></g></g><g fill="#444444"><path fill="" stroke="none" d=""/><g transform="translate(249.4157201272149,191.77272727272725) rotate(0,0,0)"><path fill="none" stroke="none"/><text fill="" stroke="none" font-family="helvetica" font-size="8pt" font-style="normal" font-weight="normal" text-decoration="normal" x="0" y="0" text-anchor="start" dominant-baseline="text-after-edge">618</text></g></g><g fill="#444444"><path fill="" stroke="none" d=""/><g transform="translate(211.06042707860064,148.40909090909088) rotate(0,0,0)"><path fill="none" stroke="none"/><text fill="" stroke="none" font-family="helvetica" font-size="8pt" font-style="normal" font-weight="normal" text-decoration="normal" x="0" y="0" text-anchor="start" dominant-baseline="text-after-edge">429</text></g></g><g fill="#444444"><path fill="" stroke="none" d=""/><g transform="translate(178.79327578373466,105.0454545454545) rotate(0,0,0)"><path fill="none" stroke="none"/><text fill="" stroke="none" font-family="helvetica" font-size="8pt" font-style="normal" font-weight="normal" text-decoration="normal" x="0" y="0" text-anchor="start" dominant-baseline="text-after-edge">270</text></g></g><g fill="#444444"><path fill="" stroke="none" d=""/><g transform="translate(163.36998334090566,61.68181818181813) rotate(0,0,0)"><path fill="none" stroke="none"/><text fill="" stroke="none" font-family="helvetica" font-size="8pt" font-style="normal" font-weight="normal" text-decoration="normal" x="0" y="0" text-anchor="start" dominant-baseline="text-after-edge">194</text></g></g></g><g/><g><g fill="#444444"><path fill="none" stroke="black" paint-order="fill stroke markers" d=" M 114 505 L 650 505" stroke-miterlimit="10"/><path fill="none" stroke="black" paint-order="fill stroke markers" d=" M 114 511 L 114 503" stroke-miterlimit="10"/><path fill="none" stroke="black" paint-order="fill stroke markers" d=" M 215 511 L 215 503" stroke-miterlimit="10"/><path fill="none" stroke="black" paint-order="fill stroke markers" d=" M 317 511 L 317 503" stroke-miterlimit="10"/><path fill="none" stroke="black" paint-order="fill stroke markers" d=" M 418 511 L 418 503" stroke-miterlimit="10"/><path fill="none" stroke="black" paint-order="fill stroke markers" d=" M 520 511 L 520 503" stroke-miterlimit="10"/><path fill="none" stroke="black" paint-order="fill stroke markers" d=" M 621 511 L 621 503" stroke-miterlimit="10"/><path fill="none" stroke="black" paint-order="fill stroke markers" d=" M 114 509 L 114 505" stroke-miterlimit="10"/><path fill="none" stroke="black" paint-order="fill stroke markers" d=" M 134 509 L 134 505" stroke-miterlimit="10"/><path fill="none" stroke="black" paint-order="fill stroke markers" d=" M 155 509 L 155 505" stroke-miterlimit="10"/><path fill="none" stroke="black" paint-order="fill stroke markers" d=" M 175 509 L 175 505" stroke-miterlimit="10"/><path fill="none" stroke="black" paint-order="fill stroke markers" d=" M 195 509 L 195 505" stroke-miterlimit="10"/><path fill="none" stroke="black" paint-order="fill stroke markers" d=" M 215 509 L 215 505" stroke-miterlimit="10"/><path fill="none" stroke="black" paint-order="fill stroke markers" d=" M 236 509 L 236 505" stroke-miterlimit="10"/><path fill="none" stroke="black" paint-order="fill stroke markers" d=" M 256 509 L 256 505" stroke-miterlimit="10"/><path fill="none" stroke="black" paint-order="fill stroke markers" d=" M 276 509 L 276 505" stroke-miterlimit="10"/><path fill="none" stroke="black" paint-order="fill stroke markers" d=" M 297 509 L 297 505" stroke-miterlimit="10"/><path fill="none" stroke="black" paint-order="fill stroke markers" d=" M 317 509 L 317 505" stroke-miterlimit="10"/><path fill="none" stroke="black" paint-order="fill stroke markers" d=" M 337 509 L 337 505" stroke-miterlimit="10"/><path fill="none" stroke="black" paint-order="fill stroke markers" d=" M 358 509 L 358 505" stroke-miterlimit="10"/><path fill="none" stroke="black" paint-order="fill stroke markers" d=" M 378 509 L 378 505" stroke-miterlimit="10"/><path fill="none" stroke="black" paint-order="fill stroke markers" d=" M 398 509 L 398 505" stroke-miterlimit="10"/><path fill="none" stroke="black" paint-order="fill stroke markers" d=" M 418 509 L 418 505" stroke-miterlimit="10"/><path fill="none" stroke="black" paint-order="fill stroke markers" d=" M 439 509 L 439 505" stroke-miterlimit="10"/><path fill="none" stroke="black" paint-order="fill stroke markers" d=" M 459 509 L 459 505" stroke-miterlimit="10"/><path fill="none" stroke="black" paint-order="fill stroke markers" d=" M 479 509 L 479 505" stroke-miterlimit="10"/><path fill="none" stroke="black" paint-order="fill stroke markers" d=" M 500 509 L 500 505" stroke-miterlimit="10"/><path fill="none" stroke="black" paint-order="fill stroke markers" d=" M 520 509 L 520 505" stroke-miterlimit="10"/><path fill="none" stroke="black" paint-order="fill stroke markers" d=" M 540 509 L 540 505" stroke-miterlimit="10"/><path fill="none" stroke="black" paint-order="fill stroke markers" d=" M 560 509 L 560 505" stroke-miterlimit="10"/><path fill="none" stroke="black" paint-order="fill stroke markers" d=" M 581 509 L 581 505" stroke-miterlimit="10"/><path fill="none" stroke="black" paint-order="fill stroke markers" d=" M 601 509 L 601 505" stroke-miterlimit="10"/><path fill="none" stroke="black" paint-order="fill stroke markers" d=" M 621 509 L 621 505" stroke-miterlimit="10"/><path fill="" stroke="black" paint-order="fill stroke markers" d=" M 642 509 L 642 505" stroke-miterlimit="10"/><g transform="translate(114,516) rotate(0,0,0)"><text fill="" stroke="none" font-family="helvetica" font-size="8pt" font-style="normal" font-weight="normal" text-decoration="normal" x="0" y="0" text-anchor="middle" dominant-baseline="hanging">0</text><g transform="rotate(0,0,0) translate(-114,-516) translate(215,516) rotate(0,0,0)"><text fill="" stroke="none" font-family="helvetica" font-size="8pt" font-style="normal" font-weight="normal" text-decoration="normal" x="0" y="0" text-anchor="middle" dominant-baseline="hanging">500</text><g transform="rotate(0,0,0) translate(-215,-516) translate(317,516) rotate(0,0,0)"><text fill="" stroke="none" font-family="helvetica" font-size="8pt" font-style="normal" font-weight="normal" text-decoration="normal" x="0" y="0" text-anchor="middle" dominant-baseline="hanging">1000</text><g transform="rotate(0,0,0) translate(-317,-516) translate(418,516) rotate(0,0,0)"><text fill="" stroke="none" font-family="helvetica" font-size="8pt" font-style="normal" font-weight="normal" text-decoration="normal" x="0" y="0" text-anchor="middle" dominant-baseline="hanging">1500</text><g transform="rotate(0,0,0) translate(-418,-516) translate(520,516) rotate(0,0,0)"><text fill="" stroke="none" font-family="helvetica" font-size="8pt" font-style="normal" font-weight="normal" text-decoration="normal" x="0" y="0" text-anchor="middle" dominant-baseline="hanging">2000</text><g transform="rotate(0,0,0) translate(-520,-516) translate(621,516) rotate(0,0,0)"><text fill="" stroke="none" font-family="helvetica" font-size="8pt" font-style="normal" font-weight="normal" text-decoration="normal" x="0" y="0" text-anchor="middle" dominant-baseline="hanging">2500</text><g transform="rotate(0,0,0) translate(-621,-516) translate(382,534) rotate(0,0,0)"><text fill="" stroke="none" font-family="helvetica" font-size="10pt" font-style="italic" font-weight="normal" text-decoration="normal" x="0" y="0" text-anchor="middle" dominant-baseline="hanging">Respondents</text><g transform="rotate(0,0,0) translate(-382,-534)"/></g></g></g></g></g></g></g></g><g fill="#444444"><path fill="none" stroke="black" paint-order="fill stroke markers" d=" M 114 505 L 114 28" stroke-miterlimit="10"/><path fill="none" stroke="black" paint-order="fill stroke markers" d=" M 108 483 L 116 483" stroke-miterlimit="10"/><path fill="none" stroke="black" paint-order="fill stroke markers" d=" M 108 440 L 116 440" stroke-miterlimit="10"/><path fill="none" stroke="black" paint-order="fill stroke markers" d=" M 108 397 L 116 397" stroke-miterlimit="10"/><path fill="none" stroke="black" paint-order="fill stroke markers" d=" M 108 353 L 116 353" stroke-miterlimit="10"/><path fill="none" stroke="black" paint-order="fill stroke markers" d=" M 108 310 L 116 310" stroke-miterlimit="10"/><path fill="none" stroke="black" paint-order="fill stroke markers" d=" M 108 267 L 116 267" stroke-miterlimit="10"/><path fill="none" stroke="black" paint-order="fill stroke markers" d=" M 108 223 L 116 223" stroke-miterlimit="10"/><path fill="none" stroke="black" paint-order="fill stroke markers" d=" M 108 180 L 116 180" stroke-miterlimit="10"/><path fill="none" stroke="black" paint-order="fill stroke markers" d=" M 108 136 L 116 136" stroke-miterlimit="10"/><path fill="none" stroke="black" paint-order="fill stroke markers" d=" M 108 93 L 116 93" stroke-miterlimit="10"/><path fill="" stroke="black" paint-order="fill stroke markers" d=" M 108 50 L 116 50" stroke-miterlimit="10"/><g transform="translate(103,483) rotate(0,0,0)"><text fill="" stroke="none" font-family="helvetica" font-size="8pt" font-style="normal" font-weight="normal" text-decoration="normal" x="0" y="0" text-anchor="end" dominant-baseline="central">Digital</text><g transform="rotate(0,0,0) translate(-103,-483) translate(103,440) rotate(0,0,0)"><text fill="" stroke="none" font-family="helvetica" font-size="8pt" font-style="normal" font-weight="normal" text-decoration="normal" x="0" y="0" text-anchor="end" dominant-baseline="central">Branding</text><g transform="rotate(0,0,0) translate(-103,-440) translate(103,397) rotate(0,0,0)"><text fill="" stroke="none" font-family="helvetica" font-size="8pt" font-style="normal" font-weight="normal" text-decoration="normal" x="0" y="0" text-anchor="end" dominant-baseline="central">Print</text><g transform="rotate(0,0,0) translate(-103,-397) translate(103,353) rotate(0,0,0)"><text fill="" stroke="none" font-family="helvetica" font-size="8pt" font-style="normal" font-weight="normal" text-decoration="normal" x="0" y="0" text-anchor="end" dominant-baseline="central">Strategy</text><g transform="rotate(0,0,0) translate(-103,-353) translate(103,310) rotate(0,0,0)"><text fill="" stroke="none" font-family="helvetica" font-size="8pt" font-style="normal" font-weight="normal" text-decoration="normal" x="0" y="0" text-anchor="end" dominant-baseline="central">Advertising</text><g transform="rotate(0,0,0) translate(-103,-310) translate(103,267) rotate(0,0,0)"><text fill="" stroke="none" font-family="helvetica" font-size="8pt" font-style="normal" font-weight="normal" text-decoration="normal" x="0" y="0" text-anchor="end" dominant-baseline="central">Product Design</text><g transform="rotate(0,0,0) translate(-103,-267) translate(103,223) rotate(0,0,0)"><text fill="" stroke="none" font-family="helvetica" font-size="8pt" font-style="normal" font-weight="normal" text-decoration="normal" x="0" y="0" text-anchor="end" dominant-baseline="central">Innovation</text><g transform="rotate(0,0,0) translate(-103,-223) translate(103,180) rotate(0,0,0)"><text fill="" stroke="none" font-family="helvetica" font-size="8pt" font-style="normal" font-weight="normal" text-decoration="normal" x="0" y="0" text-anchor="end" dominant-baseline="central">Service Design</text><g transform="rotate(0,0,0) translate(-103,-180) translate(103,136) rotate(0,0,0)"><text fill="" stroke="none" font-family="helvetica" font-size="8pt" font-style="normal" font-weight="normal" text-decoration="normal" x="0" y="0" text-anchor="end" dominant-baseline="central">Social Impact</text><g transform="rotate(0,0,0) translate(-103,-136) translate(103,93) rotate(0,0,0)"><text fill="" stroke="none" font-family="helvetica" font-size="8pt" font-style="normal" font-weight="normal" text-decoration="normal" x="0" y="0" text-anchor="end" dominant-baseline="central">None of these</text><g transform="rotate(0,0,0) translate(-103,-93) translate(103,50) rotate(0,0,0)"><text fill="" stroke="none" font-family="helvetica" font-size="8pt" font-style="normal" font-weight="normal" text-decoration="normal" x="0" y="0" text-anchor="end" dominant-baseline="central">Broadcast</text><g transform="rotate(0,0,0) translate(-103,-50) translate(15,267) rotate(-90,0,0)"><text fill="" stroke="none" font-family="helvetica" font-size="10pt" font-style="italic" font-weight="normal" text-decoration="normal" x="0" y="0" text-anchor="middle" dominant-baseline="alphabetic">Categories</text><g transform="rotate(90,0,0) translate(-15,-267)"/></g></g></g></g></g></g></g></g></g></g></g></g></g><g fill="#444444"><path fill="" stroke="none" d=""/><g transform="translate(114,23)"><path fill="none" stroke="none"/><text fill="" stroke="none" font-family="helvetica" font-size="10pt" font-style="normal" font-weight="bold" text-decoration="normal" x="0" y="0" text-anchor="start" dominant-baseline="text-after-edge">NotAIGA: My company specializes in:</text></g></g></g></g></g></svg>