<svg version="1.1" xmlns="http://www.w3.org/2000/svg" xmlns:xlink="http://www.w3.org/1999/xlink" width="700" height="900" style="width: 700px; height: 900px;"><defs/><g><g transform="scale(1,1) translate(0.5,0.5)"><rect fill="#FFFFFF" stroke="none" x="0" y="0" width="700" height="900"/><rect fill="#ffffff" stroke="none" x="0" y="0" width="700" height="900"/><rect fill="#FFFFFF" stroke="none" x="159" y="28" width="491" height="827"/><rect fill="#ffffff" stroke="none" x="159" y="28" width="491" height="827"/><g><rect fill="none" stroke="#e5e5e5" x="159" y="28" width="491" height="827" stroke-miterlimit="10"/></g><g><g><path fill="none" stroke="#e5e5e5" paint-order="fill stroke markers" d=" M 240 855 L 240 28" stroke-miterlimit="10"/><path fill="none" stroke="#e5e5e5" paint-order="fill stroke markers" d=" M 320 855 L 320 28" stroke-miterlimit="10"/><path fill="none" stroke="#e5e5e5" paint-order="fill stroke markers" d=" M 401 855 L 401 28" stroke-miterlimit="10"/><path fill="none" stroke="#e5e5e5" paint-order="fill stroke markers" d=" M 481 855 L 481 28" stroke-miterlimit="10"/><path fill="none" stroke="#e5e5e5" paint-order="fill stroke markers" d=" M 562 855 L 562 28" stroke-miterlimit="10"/><path fill="none" stroke="#e5e5e5" paint-order="fill stroke markers" d=" M 643 855 L 643 28" stroke-miterlimit="10"/></g><g><path fill="none" stroke="#e5e5e5" paint-order="fill stroke markers" d=" M 159 832 L 650 832" stroke-miterlimit="10"/><path fill="none" stroke="#e5e5e5" paint-order="fill stroke markers" d=" M 159 786 L 650 786" stroke-miterlimit="10"/><path fill="none" stroke="#e5e5e5" paint-order="fill stroke markers" d=" M 159 740 L 650 740" stroke-miterlimit="10"/><path fill="none" stroke="#e5e5e5" paint-order="fill stroke markers" d=" M 159 694 L 650 694" stroke-miterlimit="10"/><path fill="none" stroke="#e5e5e5" paint-order="fill stroke markers" d=" M 159 648 L 650 648" stroke-miterlimit="10"/><path fill="none" stroke="#e5e5e5" paint-order="fill stroke markers" d=" M 159 602 L 650 602" stroke-miterlimit="10"/><path fill="none" stroke="#e5e5e5" paint-order="fill stroke markers" d=" M 159 556 L 650 556" stroke-miterlimit="10"/><path fill="none" stroke="#e5e5e5" paint-order="fill stroke markers" d=" M 159 510 L 650 510" stroke-miterlimit="10"/><path fill="none" stroke="#e5e5e5" paint-order="fill stroke markers" d=" M 159 464 L 650 464" stroke-miterlimit="10"/><path fill="none" stroke="#e5e5e5" paint-order="fill stroke markers" d=" M 159 419 L 650 419" stroke-miterlimit="10"/><path fill="none" stroke="#e5e5e5" paint-order="fill stroke markers" d=" M 159 373 L 650 373" stroke-miterlimit="10"/><path fill="none" stroke="#e5e5e5" paint-order="fill stroke markers" d=" M 159 327 L 650 327" stroke-miterlimit="10"/><path fill="none" stroke="#e5e5e5" paint-order="fill stroke markers" d=" M 159 281 L 650 281" stroke-miterlimit="10"/><path fill="none" stroke="#e5e5e5" paint-order="fill stroke markers" d=" M 159 235 L 650 235" stroke-miterlimit="10"/><path fill="none" stroke="#e5e5e5" paint-order="fill stroke markers" d=" M 159 189 L 650 189" stroke-miterlimit="10"/><path fill="none" stroke="#e5e5e5" paint-order="fill stroke markers" d=" M 159 143 L 650 143" stroke-miterlimit="10"/><path fill="none" stroke="#e5e5e5" paint-order="fill stroke markers" d=" M 159 97 L 650 97" stroke-miterlimit="10"/><path fill="none" stroke="#e5e5e5" paint-order="fill stroke markers" d=" M 159 51 L 650 51" stroke-miterlimit="10"/></g><g><path fill="none" stroke="none"/><rect fill="#1f77b4" stroke="none" x="159" y="814.7986111111111" width="389.0106732348112" height="34.458333333333485"/><path fill="none" stroke="#1f77b4" paint-order="fill stroke markers" d=" M 159 814.7986111111111 L 548.0106732348112 814.7986111111111 L 548.0106732348112 849.2569444444446 L 159 849.2569444444446 L 159 814.7986111111111 Z" stroke-miterlimit="10"/><rect fill="#1f77b4" stroke="none" x="159" y="768.8541666666667" width="331.3645320197044" height="34.45833333333326"/><path fill="none" stroke="#1f77b4" paint-order="fill stroke markers" d=" M 159 768.8541666666667 L 490.3645320197044 768.8541666666667 L 490.3645320197044 803.3125 L 159 803.3125 L 159 768.8541666666667 Z" stroke-miterlimit="10"/><rect fill="#1f77b4" stroke="none" x="159" y="722.9097222222222" width="190.67569786535307" height="34.458333333333485"/><path fill="none" stroke="#1f77b4" paint-order="fill stroke markers" d=" M 159 722.9097222222222 L 349.6756978653531 722.9097222222222 L 349.6756978653531 757.3680555555557 L 159 757.3680555555557 L 159 722.9097222222222 Z" stroke-miterlimit="10"/><rect fill="#1f77b4" stroke="none" x="159" y="676.9652777777778" width="149.5574712643678" height="34.45833333333326"/><path fill="none" stroke="#1f77b4" paint-order="fill stroke markers" d=" M 159 676.9652777777778 L 308.5574712643678 676.9652777777778 L 308.5574712643678 711.4236111111111 L 159 711.4236111111111 L 159 676.9652777777778 Z" stroke-miterlimit="10"/><rect fill="#1f77b4" stroke="none" x="159" y="631.0208333333333" width="141.49507389162562" height="34.458333333333485"/><path fill="none" stroke="#1f77b4" paint-order="fill stroke markers" d=" M 159 631.0208333333333 L 300.4950738916256 631.0208333333333 L 300.4950738916256 665.4791666666667 L 159 665.4791666666667 L 159 631.0208333333333 Z" stroke-miterlimit="10"/><rect fill="#1f77b4" stroke="none" x="159" y="585.0763888888889" width="137.86699507389164" height="34.45833333333326"/><path fill="none" stroke="#1f77b4" paint-order="fill stroke markers" d=" M 159 585.0763888888889 L 296.86699507389164 585.0763888888889 L 296.86699507389164 619.5347222222222 L 159 619.5347222222222 L 159 585.0763888888889 Z" stroke-miterlimit="10"/><rect fill="#1f77b4" stroke="none" x="159" y="539.1319444444443" width="85.86453201970443" height="34.458333333333485"/><path fill="none" stroke="#1f77b4" paint-order="fill stroke markers" d=" M 159 539.1319444444443 L 244.86453201970443 539.1319444444443 L 244.86453201970443 573.5902777777778 L 159 573.5902777777778 L 159 539.1319444444443 Z" stroke-miterlimit="10"/><rect fill="#1f77b4" stroke="none" x="159" y="493.1875" width="43.13382594417078" height="34.45833333333337"/><path fill="none" stroke="#1f77b4" paint-order="fill stroke markers" d=" M 159 493.1875 L 202.13382594417078 493.1875 L 202.13382594417078 527.6458333333334 L 159 527.6458333333334 L 159 493.1875 Z" stroke-miterlimit="10"/><rect fill="#1f77b4" stroke="none" x="159" y="447.24305555555554" width="24.590311986863696" height="34.45833333333337"/><path fill="none" stroke="#1f77b4" paint-order="fill stroke markers" d=" M 159 447.24305555555554 L 183.5903119868637 447.24305555555554 L 183.5903119868637 481.7013888888889 L 159 481.7013888888889 L 159 447.24305555555554 Z" stroke-miterlimit="10"/><rect fill="#1f77b4" stroke="none" x="159" y="401.2986111111111" width="24.18719211822659" height="34.45833333333337"/><path fill="none" stroke="#1f77b4" paint-order="fill stroke markers" d=" M 159 401.2986111111111 L 183.1871921182266 401.2986111111111 L 183.1871921182266 435.75694444444446 L 159 435.75694444444446 L 159 401.2986111111111 Z" stroke-miterlimit="10"/><rect fill="#1f77b4" stroke="none" x="159" y="355.35416666666674" width="0.8062397372742112" height="34.45833333333326"/><path fill="none" stroke="#1f77b4" paint-order="fill stroke markers" d=" M 159 355.35416666666674 L 159.8062397372742 355.35416666666674 L 159.8062397372742 389.8125 L 159 389.8125 L 159 355.35416666666674 Z" stroke-miterlimit="10"/><rect fill="#1f77b4" stroke="none" x="159" y="309.4097222222223" width="0.4031198686371056" height="34.45833333333326"/><path fill="none" stroke="#1f77b4" paint-order="fill stroke markers" d=" M 159 309.4097222222223 L 159.4031198686371 309.4097222222223 L 159.4031198686371 343.86805555555554 L 159 343.86805555555554 L 159 309.4097222222223 Z" stroke-miterlimit="10"/><rect fill="#1f77b4" stroke="none" x="159" y="263.4652777777778" width="0.4031198686371056" height="34.45833333333326"/><path fill="none" stroke="#1f77b4" paint-order="fill stroke markers" d=" M 159 263.4652777777778 L 159.4031198686371 263.4652777777778 L 159.4031198686371 297.9236111111111 L 159 297.9236111111111 L 159 263.4652777777778 Z" stroke-miterlimit="10"/><rect fill="#1f77b4" stroke="none" x="159" y="217.52083333333331" width="0.4031198686371056" height="34.45833333333337"/><path fill="none" stroke="#1f77b4" paint-order="fill stroke markers" d=" M 159 217.52083333333331 L 159.4031198686371 217.52083333333331 L 159.4031198686371 251.97916666666669 L 159 251.97916666666669 L 159 217.52083333333331 Z" stroke-miterlimit="10"/><rect fill="#1f77b4" stroke="none" x="159" y="171.57638888888886" width="0.4031198686371056" height="34.45833333333337"/><path fill="none" stroke="#1f77b4" paint-order="fill stroke markers" d=" M 159 171.57638888888886 L 159.4031198686371 171.57638888888886 L 159.4031198686371 206.03472222222223 L 159 206.03472222222223 L 159 171.57638888888886 Z" stroke-miterlimit="10"/><rect fill="#1f77b4" stroke="none" x="159" y="125.6319444444444" width="0.4031198686371056" height="34.45833333333337"/><path fill="none" stroke="#1f77b4" paint-order="fill stroke markers" d=" M 159 125.6319444444444 L 159.4031198686371 125.6319444444444 L 159.4031198686371 160.09027777777777 L 159 160.09027777777777 L 159 125.6319444444444 Z" stroke-miterlimit="10"/><rect fill="#1f77b4" stroke="none" x="159" y="79.68750000000006" width="0.4031198686371056" height="34.45833333333337"/><path fill="none" stroke="#1f77b4" paint-order="fill stroke markers" d=" M 159 79.68750000000006 L 159.4031198686371 79.68750000000006 L 159.4031198686371 114.14583333333343 L 159 114.14583333333343 L 159 79.68750000000006 Z" stroke-miterlimit="10"/><rect fill="#1f77b4" stroke="none" x="159" y="33.7430555555556" width="0.4031198686371056" height="34.45833333333337"/><path fill="none" stroke="#1f77b4" paint-order="fill stroke markers" d=" M 159 33.7430555555556 L 159.4031198686371 33.7430555555556 L 159.4031198686371 68.20138888888897 L 159 68.20138888888897 L 159 33.7430555555556 Z" stroke-miterlimit="10"/></g><g fill="#444444"><path fill="" stroke="none" d=""/><g transform="translate(558.0106732348112,830.0277777777778) rotate(0,0,0)"><path fill="none" stroke="none"/><text fill="" stroke="none" font-family="helvetica" font-size="8pt" font-style="normal" font-weight="normal" text-decoration="normal" x="0" y="0" text-anchor="start" dominant-baseline="text-after-edge">12.31%</text></g></g><g fill="#444444"><path fill="" stroke="none" d=""/><g transform="translate(500.3645320197044,784.0833333333334) rotate(0,0,0)"><path fill="none" stroke="none"/><text fill="" stroke="none" font-family="helvetica" font-size="8pt" font-style="normal" font-weight="normal" text-decoration="normal" x="0" y="0" text-anchor="start" dominant-baseline="text-after-edge">10.49%</text></g></g><g fill="#444444"><path fill="" stroke="none" d=""/><g transform="translate(359.6756978653531,738.1388888888889) rotate(0,0,0)"><path fill="none" stroke="none"/><text fill="" stroke="none" font-family="helvetica" font-size="8pt" font-style="normal" font-weight="normal" text-decoration="normal" x="0" y="0" text-anchor="start" dominant-baseline="text-after-edge">6.03%</text></g></g><g fill="#444444"><path fill="" stroke="none" d=""/><g transform="translate(318.5574712643678,692.1944444444445) rotate(0,0,0)"><path fill="none" stroke="none"/><text fill="" stroke="none" font-family="helvetica" font-size="8pt" font-style="normal" font-weight="normal" text-decoration="normal" x="0" y="0" text-anchor="start" dominant-baseline="text-after-edge">4.73%</text></g></g><g fill="#444444"><path fill="" stroke="none" d=""/><g transform="translate(310.4950738916256,646.25) rotate(0,0,0)"><path fill="none" stroke="none"/><text fill="" stroke="none" font-family="helvetica" font-size="8pt" font-style="normal" font-weight="normal" text-decoration="normal" x="0" y="0" text-anchor="start" dominant-baseline="text-after-edge">4.48%</text></g></g><g fill="#444444"><path fill="" stroke="none" d=""/><g transform="translate(306.86699507389164,600.3055555555555) rotate(0,0,0)"><path fill="none" stroke="none"/><text fill="" stroke="none" font-family="helvetica" font-size="8pt" font-style="normal" font-weight="normal" text-decoration="normal" x="0" y="0" text-anchor="start" dominant-baseline="text-after-edge">4.36%</text></g></g><g fill="#444444"><path fill="" stroke="none" d=""/><g transform="translate(254.86453201970443,554.3611111111111) rotate(0,0,0)"><path fill="none" stroke="none"/><text fill="" stroke="none" font-family="helvetica" font-size="8pt" font-style="normal" font-weight="normal" text-decoration="normal" x="0" y="0" text-anchor="start" dominant-baseline="text-after-edge">2.72%</text></g></g><g fill="#444444"><path fill="" stroke="none" d=""/><g transform="translate(212.13382594417078,508.4166666666667) rotate(0,0,0)"><path fill="none" stroke="none"/><text fill="" stroke="none" font-family="helvetica" font-size="8pt" font-style="normal" font-weight="normal" text-decoration="normal" x="0" y="0" text-anchor="start" dominant-baseline="text-after-edge">1.36%</text></g></g><g fill="#444444"><path fill="" stroke="none" d=""/><g transform="translate(193.5903119868637,462.47222222222223) rotate(0,0,0)"><path fill="none" stroke="none"/><text fill="" stroke="none" font-family="helvetica" font-size="8pt" font-style="normal" font-weight="normal" text-decoration="normal" x="0" y="0" text-anchor="start" dominant-baseline="text-after-edge">0.78%</text></g></g><g fill="#444444"><path fill="" stroke="none" d=""/><g transform="translate(193.1871921182266,416.52777777777777) rotate(0,0,0)"><path fill="none" stroke="none"/><text fill="" stroke="none" font-family="helvetica" font-size="8pt" font-style="normal" font-weight="normal" text-decoration="normal" x="0" y="0" text-anchor="start" dominant-baseline="text-after-edge">0.77%</text></g></g><g fill="#444444"><path fill="" stroke="none" d=""/><g transform="translate(169.8062397372742,370.58333333333337) rotate(0,0,0)"><path fill="none" stroke="none"/><text fill="" stroke="none" font-family="helvetica" font-size="8pt" font-style="normal" font-weight="normal" text-decoration="normal" x="0" y="0" text-anchor="start" dominant-baseline="text-after-edge">0.03%</text></g></g><g fill="#444444"><path fill="" stroke="none" d=""/><g transform="translate(169.4031198686371,324.6388888888889) rotate(0,0,0)"><path fill="none" stroke="none"/><text fill="" stroke="none" font-family="helvetica" font-size="8pt" font-style="normal" font-weight="normal" text-decoration="normal" x="0" y="0" text-anchor="start" dominant-baseline="text-after-edge">0.01%</text></g></g><g fill="#444444"><path fill="" stroke="none" d=""/><g transform="translate(169.4031198686371,278.69444444444446) rotate(0,0,0)"><path fill="none" stroke="none"/><text fill="" stroke="none" font-family="helvetica" font-size="8pt" font-style="normal" font-weight="normal" text-decoration="normal" x="0" y="0" text-anchor="start" dominant-baseline="text-after-edge">0.01%</text></g></g><g fill="#444444"><path fill="" stroke="none" d=""/><g transform="translate(169.4031198686371,232.75) rotate(0,0,0)"><path fill="none" stroke="none"/><text fill="" stroke="none" font-family="helvetica" font-size="8pt" font-style="normal" font-weight="normal" text-decoration="normal" x="0" y="0" text-anchor="start" dominant-baseline="text-after-edge">0.01%</text></g></g><g fill="#444444"><path fill="" stroke="none" d=""/><g transform="translate(169.4031198686371,186.80555555555554) rotate(0,0,0)"><path fill="none" stroke="none"/><text fill="" stroke="none" font-family="helvetica" font-size="8pt" font-style="normal" font-weight="normal" text-decoration="normal" x="0" y="0" text-anchor="start" dominant-baseline="text-after-edge">0.01%</text></g></g><g fill="#444444"><path fill="" stroke="none" d=""/><g transform="translate(169.4031198686371,140.8611111111111) rotate(0,0,0)"><path fill="none" stroke="none"/><text fill="" stroke="none" font-family="helvetica" font-size="8pt" font-style="normal" font-weight="normal" text-decoration="normal" x="0" y="0" text-anchor="start" dominant-baseline="text-after-edge">0.01%</text></g></g><g fill="#444444"><path fill="" stroke="none" d=""/><g transform="translate(169.4031198686371,94.91666666666674) rotate(0,0,0)"><path fill="none" stroke="none"/><text fill="" stroke="none" font-family="helvetica" font-size="8pt" font-style="normal" font-weight="normal" text-decoration="normal" x="0" y="0" text-anchor="start" dominant-baseline="text-after-edge">0.01%</text></g></g><g fill="#444444"><path fill="" stroke="none" d=""/><g transform="translate(169.4031198686371,48.972222222222285) rotate(0,0,0)"><path fill="none" stroke="none"/><text fill="" stroke="none" font-family="helvetica" font-size="8pt" font-style="normal" font-weight="normal" text-decoration="normal" x="0" y="0" text-anchor="start" dominant-baseline="text-after-edge">0.01%</text></g></g><g fill="#444444"><path fill="" stroke="none" d=""/><g transform="translate(558.0106732348112,844.0277777777778) rotate(0,0,0)"><path fill="none" stroke="none"/><text fill="" stroke="none" font-family="helvetica" font-size="8pt" font-style="normal" font-weight="normal" text-decoration="normal" x="0" y="0" text-anchor="start" dominant-baseline="text-after-edge">965</text></g></g><g fill="#444444"><path fill="" stroke="none" d=""/><g transform="translate(500.3645320197044,798.0833333333334) rotate(0,0,0)"><path fill="none" stroke="none"/><text fill="" stroke="none" font-family="helvetica" font-size="8pt" font-style="normal" font-weight="normal" text-decoration="normal" x="0" y="0" text-anchor="start" dominant-baseline="text-after-edge">822</text></g></g><g fill="#444444"><path fill="" stroke="none" d=""/><g transform="translate(359.6756978653531,752.1388888888889) rotate(0,0,0)"><path fill="none" stroke="none"/><text fill="" stroke="none" font-family="helvetica" font-size="8pt" font-style="normal" font-weight="normal" text-decoration="normal" x="0" y="0" text-anchor="start" dominant-baseline="text-after-edge">473</text></g></g><g fill="#444444"><path fill="" stroke="none" d=""/><g transform="translate(318.5574712643678,706.1944444444445) rotate(0,0,0)"><path fill="none" stroke="none"/><text fill="" stroke="none" font-family="helvetica" font-size="8pt" font-style="normal" font-weight="normal" text-decoration="normal" x="0" y="0" text-anchor="start" dominant-baseline="text-after-edge">371</text></g></g><g fill="#444444"><path fill="" stroke="none" d=""/><g transform="translate(310.4950738916256,660.25) rotate(0,0,0)"><path fill="none" stroke="none"/><text fill="" stroke="none" font-family="helvetica" font-size="8pt" font-style="normal" font-weight="normal" text-decoration="normal" x="0" y="0" text-anchor="start" dominant-baseline="text-after-edge">351</text></g></g><g fill="#444444"><path fill="" stroke="none" d=""/><g transform="translate(306.86699507389164,614.3055555555555) rotate(0,0,0)"><path fill="none" stroke="none"/><text fill="" stroke="none" font-family="helvetica" font-size="8pt" font-style="normal" font-weight="normal" text-decoration="normal" x="0" y="0" text-anchor="start" dominant-baseline="text-after-edge">342</text></g></g><g fill="#444444"><path fill="" stroke="none" d=""/><g transform="translate(254.86453201970443,568.3611111111111) rotate(0,0,0)"><path fill="none" stroke="none"/><text fill="" stroke="none" font-family="helvetica" font-size="8pt" font-style="normal" font-weight="normal" text-decoration="normal" x="0" y="0" text-anchor="start" dominant-baseline="text-after-edge">213</text></g></g><g fill="#444444"><path fill="" stroke="none" d=""/><g transform="translate(212.13382594417078,522.4166666666667) rotate(0,0,0)"><path fill="none" stroke="none"/><text fill="" stroke="none" font-family="helvetica" font-size="8pt" font-style="normal" font-weight="normal" text-decoration="normal" x="0" y="0" text-anchor="start" dominant-baseline="text-after-edge">107</text></g></g><g fill="#444444"><path fill="" stroke="none" d=""/><g transform="translate(193.5903119868637,476.47222222222223) rotate(0,0,0)"><path fill="none" stroke="none"/><text fill="" stroke="none" font-family="helvetica" font-size="8pt" font-style="normal" font-weight="normal" text-decoration="normal" x="0" y="0" text-anchor="start" dominant-baseline="text-after-edge">61</text></g></g><g fill="#444444"><path fill="" stroke="none" d=""/><g transform="translate(193.1871921182266,430.52777777777777) rotate(0,0,0)"><path fill="none" stroke="none"/><text fill="" stroke="none" font-family="helvetica" font-size="8pt" font-style="normal" font-weight="normal" text-decoration="normal" x="0" y="0" text-anchor="start" dominant-baseline="text-after-edge">60</text></g></g><g fill="#444444"><path fill="" stroke="none" d=""/><g transform="translate(169.8062397372742,384.58333333333337) rotate(0,0,0)"><path fill="none" stroke="none"/><text fill="" stroke="none" font-family="helvetica" font-size="8pt" font-style="normal" font-weight="normal" text-decoration="normal" x="0" y="0" text-anchor="start" dominant-baseline="text-after-edge">2</text></g></g><g fill="#444444"><path fill="" stroke="none" d=""/><g transform="translate(169.4031198686371,338.6388888888889) rotate(0,0,0)"><path fill="none" stroke="none"/><text fill="" stroke="none" font-family="helvetica" font-size="8pt" font-style="normal" font-weight="normal" text-decoration="normal" x="0" y="0" text-anchor="start" dominant-baseline="text-after-edge">1</text></g></g><g fill="#444444"><path fill="" stroke="none" d=""/><g transform="translate(169.4031198686371,292.69444444444446) rotate(0,0,0)"><path fill="none" stroke="none"/><text fill="" stroke="none" font-family="helvetica" font-size="8pt" font-style="normal" font-weight="normal" text-decoration="normal" x="0" y="0" text-anchor="start" dominant-baseline="text-after-edge">1</text></g></g><g fill="#444444"><path fill="" stroke="none" d=""/><g transform="translate(169.4031198686371,246.75) rotate(0,0,0)"><path fill="none" stroke="none"/><text fill="" stroke="none" font-family="helvetica" font-size="8pt" font-style="normal" font-weight="normal" text-decoration="normal" x="0" y="0" text-anchor="start" dominant-baseline="text-after-edge">1</text></g></g><g fill="#444444"><path fill="" stroke="none" d=""/><g transform="translate(169.4031198686371,200.80555555555554) rotate(0,0,0)"><path fill="none" stroke="none"/><text fill="" stroke="none" font-family="helvetica" font-size="8pt" font-style="normal" font-weight="normal" text-decoration="normal" x="0" y="0" text-anchor="start" dominant-baseline="text-after-edge">1</text></g></g><g fill="#444444"><path fill="" stroke="none" d=""/><g transform="translate(169.4031198686371,154.8611111111111) rotate(0,0,0)"><path fill="none" stroke="none"/><text fill="" stroke="none" font-family="helvetica" font-size="8pt" font-style="normal" font-weight="normal" text-decoration="normal" x="0" y="0" text-anchor="start" dominant-baseline="text-after-edge">1</text></g></g><g fill="#444444"><path fill="" stroke="none" d=""/><g transform="translate(169.4031198686371,108.91666666666674) rotate(0,0,0)"><path fill="none" stroke="none"/><text fill="" stroke="none" font-family="helvetica" font-size="8pt" font-style="normal" font-weight="normal" text-decoration="normal" x="0" y="0" text-anchor="start" dominant-baseline="text-after-edge">1</text></g></g><g fill="#444444"><path fill="" stroke="none" d=""/><g transform="translate(169.4031198686371,62.972222222222285) rotate(0,0,0)"><path fill="none" stroke="none"/><text fill="" stroke="none" font-family="helvetica" font-size="8pt" font-style="normal" font-weight="normal" text-decoration="normal" x="0" y="0" text-anchor="start" dominant-baseline="text-after-edge">1</text></g></g></g><g/><g><g fill="#444444"><path fill="none" stroke="black" paint-order="fill stroke markers" d=" M 159 855 L 650 855" stroke-miterlimit="10"/><path fill="none" stroke="black" paint-order="fill stroke markers" d=" M 159 861 L 159 853" stroke-miterlimit="10"/><path fill="none" stroke="black" paint-order="fill stroke markers" d=" M 240 861 L 240 853" stroke-miterlimit="10"/><path fill="none" stroke="black" paint-order="fill stroke markers" d=" M 320 861 L 320 853" stroke-miterlimit="10"/><path fill="none" stroke="black" paint-order="fill stroke markers" d=" M 401 861 L 401 853" stroke-miterlimit="10"/><path fill="none" stroke="black" paint-order="fill stroke markers" d=" M 481 861 L 481 853" stroke-miterlimit="10"/><path fill="none" stroke="black" paint-order="fill stroke markers" d=" M 562 861 L 562 853" stroke-miterlimit="10"/><path fill="none" stroke="black" paint-order="fill stroke markers" d=" M 643 861 L 643 853" stroke-miterlimit="10"/><path fill="none" stroke="black" paint-order="fill stroke markers" d=" M 159 859 L 159 855" stroke-miterlimit="10"/><path fill="none" stroke="black" paint-order="fill stroke markers" d=" M 175 859 L 175 855" stroke-miterlimit="10"/><path fill="none" stroke="black" paint-order="fill stroke markers" d=" M 191 859 L 191 855" stroke-miterlimit="10"/><path fill="none" stroke="black" paint-order="fill stroke markers" d=" M 207 859 L 207 855" stroke-miterlimit="10"/><path fill="none" stroke="black" paint-order="fill stroke markers" d=" M 223 859 L 223 855" stroke-miterlimit="10"/><path fill="none" stroke="black" paint-order="fill stroke markers" d=" M 240 859 L 240 855" stroke-miterlimit="10"/><path fill="none" stroke="black" paint-order="fill stroke markers" d=" M 256 859 L 256 855" stroke-miterlimit="10"/><path fill="none" stroke="black" paint-order="fill stroke markers" d=" M 272 859 L 272 855" stroke-miterlimit="10"/><path fill="none" stroke="black" paint-order="fill stroke markers" d=" M 288 859 L 288 855" stroke-miterlimit="10"/><path fill="none" stroke="black" paint-order="fill stroke markers" d=" M 304 859 L 304 855" stroke-miterlimit="10"/><path fill="none" stroke="black" paint-order="fill stroke markers" d=" M 320 859 L 320 855" stroke-miterlimit="10"/><path fill="none" stroke="black" paint-order="fill stroke markers" d=" M 336 859 L 336 855" stroke-miterlimit="10"/><path fill="none" stroke="black" paint-order="fill stroke markers" d=" M 352 859 L 352 855" stroke-miterlimit="10"/><path fill="none" stroke="black" paint-order="fill stroke markers" d=" M 369 859 L 369 855" stroke-miterlimit="10"/><path fill="none" stroke="black" paint-order="fill stroke markers" d=" M 385 859 L 385 855" stroke-miterlimit="10"/><path fill="none" stroke="black" paint-order="fill stroke markers" d=" M 401 859 L 401 855" stroke-miterlimit="10"/><path fill="none" stroke="black" paint-order="fill stroke markers" d=" M 417 859 L 417 855" stroke-miterlimit="10"/><path fill="none" stroke="black" paint-order="fill stroke markers" d=" M 433 859 L 433 855" stroke-miterlimit="10"/><path fill="none" stroke="black" paint-order="fill stroke markers" d=" M 449 859 L 449 855" stroke-miterlimit="10"/><path fill="none" stroke="black" paint-order="fill stroke markers" d=" M 465 859 L 465 855" stroke-miterlimit="10"/><path fill="none" stroke="black" paint-order="fill stroke markers" d=" M 481 859 L 481 855" stroke-miterlimit="10"/><path fill="none" stroke="black" paint-order="fill stroke markers" d=" M 498 859 L 498 855" stroke-miterlimit="10"/><path fill="none" stroke="black" paint-order="fill stroke markers" d=" M 514 859 L 514 855" stroke-miterlimit="10"/><path fill="none" stroke="black" paint-order="fill stroke markers" d=" M 530 859 L 530 855" stroke-miterlimit="10"/><path fill="none" stroke="black" paint-order="fill stroke markers" d=" M 546 859 L 546 855" stroke-miterlimit="10"/><path fill="none" stroke="black" paint-order="fill stroke markers" d=" M 562 859 L 562 855" stroke-miterlimit="10"/><path fill="none" stroke="black" paint-order="fill stroke markers" d=" M 578 859 L 578 855" stroke-miterlimit="10"/><path fill="none" stroke="black" paint-order="fill stroke markers" d=" M 594 859 L 594 855" stroke-miterlimit="10"/><path fill="none" stroke="black" paint-order="fill stroke markers" d=" M 610 859 L 610 855" stroke-miterlimit="10"/><path fill="none" stroke="black" paint-order="fill stroke markers" d=" M 627 859 L 627 855" stroke-miterlimit="10"/><path fill="" stroke="black" paint-order="fill stroke markers" d=" M 643 859 L 643 855" stroke-miterlimit="10"/><g transform="translate(159,866) rotate(0,0,0)"><text fill="" stroke="none" font-family="helvetica" font-size="8pt" font-style="normal" font-weight="normal" text-decoration="normal" x="0" y="0" text-anchor="middle" dominant-baseline="hanging">0</text><g transform="rotate(0,0,0) translate(-159,-866) translate(240,866) rotate(0,0,0)"><text fill="" stroke="none" font-family="helvetica" font-size="8pt" font-style="normal" font-weight="normal" text-decoration="normal" x="0" y="0" text-anchor="middle" dominant-baseline="hanging">200</text><g transform="rotate(0,0,0) translate(-240,-866) translate(320,866) rotate(0,0,0)"><text fill="" stroke="none" font-family="helvetica" font-size="8pt" font-style="normal" font-weight="normal" text-decoration="normal" x="0" y="0" text-anchor="middle" dominant-baseline="hanging">400</text><g transform="rotate(0,0,0) translate(-320,-866) translate(401,866) rotate(0,0,0)"><text fill="" stroke="none" font-family="helvetica" font-size="8pt" font-style="normal" font-weight="normal" text-decoration="normal" x="0" y="0" text-anchor="middle" dominant-baseline="hanging">600</text><g transform="rotate(0,0,0) translate(-401,-866) translate(481,866) rotate(0,0,0)"><text fill="" stroke="none" font-family="helvetica" font-size="8pt" font-style="normal" font-weight="normal" text-decoration="normal" x="0" y="0" text-anchor="middle" dominant-baseline="hanging">800</text><g transform="rotate(0,0,0) translate(-481,-866) translate(562,866) rotate(0,0,0)"><text fill="" stroke="none" font-family="helvetica" font-size="8pt" font-style="normal" font-weight="normal" text-decoration="normal" x="0" y="0" text-anchor="middle" dominant-baseline="hanging">1000</text><g transform="rotate(0,0,0) translate(-562,-866) translate(643,866) rotate(0,0,0)"><text fill="" stroke="none" font-family="helvetica" font-size="8pt" font-style="normal" font-weight="normal" text-decoration="normal" x="0" y="0" text-anchor="middle" dominant-baseline="hanging">1200</text><g transform="rotate(0,0,0) translate(-643,-866) translate(405,884) rotate(0,0,0)"><text fill="" stroke="none" font-family="helvetica" font-size="10pt" font-style="italic" font-weight="normal" text-decoration="normal" x="0" y="0" text-anchor="middle" dominant-baseline="hanging">Respondents</text><g transform="rotate(0,0,0) translate(-405,-884)"/></g></g></g></g></g></g></g></g></g><g fill="#444444"><path fill="none" stroke="black" paint-order="fill stroke markers" d=" M 159 855 L 159 28" stroke-miterlimit="10"/><path fill="none" stroke="black" paint-order="fill stroke markers" d=" M 153 832 L 161 832" stroke-miterlimit="10"/><path fill="none" stroke="black" paint-order="fill stroke markers" d=" M 153 786 L 161 786" stroke-miterlimit="10"/><path fill="none" stroke="black" paint-order="fill stroke markers" d=" M 153 740 L 161 740" stroke-miterlimit="10"/><path fill="none" stroke="black" paint-order="fill stroke markers" d=" M 153 694 L 161 694" stroke-miterlimit="10"/><path fill="none" stroke="black" paint-order="fill stroke markers" d=" M 153 648 L 161 648" stroke-miterlimit="10"/><path fill="none" stroke="black" paint-order="fill stroke markers" d=" M 153 602 L 161 602" stroke-miterlimit="10"/><path fill="none" stroke="black" paint-order="fill stroke markers" d=" M 153 556 L 161 556" stroke-miterlimit="10"/><path fill="none" stroke="black" paint-order="fill stroke markers" d=" M 153 510 L 161 510" stroke-miterlimit="10"/><path fill="none" stroke="black" paint-order="fill stroke markers" d=" M 153 464 L 161 464" stroke-miterlimit="10"/><path fill="none" stroke="black" paint-order="fill stroke markers" d=" M 153 419 L 161 419" stroke-miterlimit="10"/><path fill="none" stroke="black" paint-order="fill stroke markers" d=" M 153 373 L 161 373" stroke-miterlimit="10"/><path fill="none" stroke="black" paint-order="fill stroke markers" d=" M 153 327 L 161 327" stroke-miterlimit="10"/><path fill="none" stroke="black" paint-order="fill stroke markers" d=" M 153 281 L 161 281" stroke-miterlimit="10"/><path fill="none" stroke="black" paint-order="fill stroke markers" d=" M 153 235 L 161 235" stroke-miterlimit="10"/><path fill="none" stroke="black" paint-order="fill stroke markers" d=" M 153 189 L 161 189" stroke-miterlimit="10"/><path fill="none" stroke="black" paint-order="fill stroke markers" d=" M 153 143 L 161 143" stroke-miterlimit="10"/><path fill="none" stroke="black" paint-order="fill stroke markers" d=" M 153 97 L 161 97" stroke-miterlimit="10"/><path fill="" stroke="black" paint-order="fill stroke markers" d=" M 153 51 L 161 51" stroke-miterlimit="10"/><g transform="translate(148,832) rotate(0,0,0)"><text fill="" stroke="none" font-family="helvetica" font-size="8pt" font-style="normal" font-weight="normal" text-decoration="normal" x="0" y="0" text-anchor="end" dominant-baseline="central">Mid-level specialist</text><g transform="rotate(0,0,0) translate(-148,-832) translate(148,786) rotate(0,0,0)"><text fill="" stroke="none" font-family="helvetica" font-size="8pt" font-style="normal" font-weight="normal" text-decoration="normal" x="0" y="0" text-anchor="end" dominant-baseline="central">Owner/Partner</text><g transform="rotate(0,0,0) translate(-148,-786) translate(148,740) rotate(0,0,0)"><text fill="" stroke="none" font-family="helvetica" font-size="8pt" font-style="normal" font-weight="normal" text-decoration="normal" x="0" y="0" text-anchor="end" dominant-baseline="central">Art Director</text><g transform="rotate(0,0,0) translate(-148,-740) translate(148,694) rotate(0,0,0)"><text fill="" stroke="none" font-family="helvetica" font-size="8pt" font-style="normal" font-weight="normal" text-decoration="normal" x="0" y="0" text-anchor="end" dominant-baseline="central">Other</text><g transform="rotate(0,0,0) translate(-148,-694) translate(148,648) rotate(0,0,0)"><text fill="" stroke="none" font-family="helvetica" font-size="8pt" font-style="normal" font-weight="normal" text-decoration="normal" x="0" y="0" text-anchor="end" dominant-baseline="central">Creative Director</text><g transform="rotate(0,0,0) translate(-148,-648) translate(148,602) rotate(0,0,0)"><text fill="" stroke="none" font-family="helvetica" font-size="8pt" font-style="normal" font-weight="normal" text-decoration="normal" x="0" y="0" text-anchor="end" dominant-baseline="central">Junior contributor</text><g transform="rotate(0,0,0) translate(-148,-602) translate(148,556) rotate(0,0,0)"><text fill="" stroke="none" font-family="helvetica" font-size="8pt" font-style="normal" font-weight="normal" text-decoration="normal" x="0" y="0" text-anchor="end" dominant-baseline="central">Senior manager</text><g transform="rotate(0,0,0) translate(-148,-556) translate(148,510) rotate(0,0,0)"><text fill="" stroke="none" font-family="helvetica" font-size="8pt" font-style="normal" font-weight="normal" text-decoration="normal" x="0" y="0" text-anchor="end" dominant-baseline="central">Director</text><g transform="rotate(0,0,0) translate(-148,-510) translate(148,464) rotate(0,0,0)"><text fill="" stroke="none" font-family="helvetica" font-size="8pt" font-style="normal" font-weight="normal" text-decoration="normal" x="0" y="0" text-anchor="end" dominant-baseline="central">Intern</text><g transform="rotate(0,0,0) translate(-148,-464) translate(148,419) rotate(0,0,0)"><text fill="" stroke="none" font-family="helvetica" font-size="8pt" font-style="normal" font-weight="normal" text-decoration="normal" x="0" y="0" text-anchor="end" dominant-baseline="central">Executive</text><g transform="rotate(0,0,0) translate(-148,-419) translate(148,373) rotate(0,0,0)"><text fill="" stroke="none" font-family="helvetica" font-size="8pt" font-style="normal" font-weight="normal" text-decoration="normal" x="0" y="0" text-anchor="end" dominant-baseline="central">Director de arte</text><g transform="rotate(0,0,0) translate(-148,-373) translate(148,327) rotate(0,0,0)"><text fill="" stroke="none" font-family="helvetica" font-size="8pt" font-style="normal" font-weight="normal" text-decoration="normal" x="0" y="0" text-anchor="end" dominant-baseline="central">Autre</text><g transform="rotate(0,0,0) translate(-148,-327) translate(148,281) rotate(0,0,0)"><text fill="" stroke="none" font-family="helvetica" font-size="8pt" font-style="normal" font-weight="normal" text-decoration="normal" x="0" y="0" text-anchor="end" dominant-baseline="central">미술 감독</text><g transform="rotate(0,0,0) translate(-148,-281) translate(148,235) rotate(0,0,0)"><text fill="" stroke="none" font-family="helvetica" font-size="8pt" font-style="normal" font-weight="normal" text-decoration="normal" x="0" y="0" text-anchor="end" dominant-baseline="central">高级经理</text><g transform="rotate(0,0,0) translate(-148,-235) translate(148,189) rotate(0,0,0)"><text fill="" stroke="none" font-family="helvetica" font-size="8pt" font-style="normal" font-weight="normal" text-decoration="normal" x="0" y="0" text-anchor="end" dominant-baseline="central">Sócia proprietária</text><g transform="rotate(0,0,0) translate(-148,-189) translate(148,143) rotate(0,0,0)"><text fill="" stroke="none" font-family="helvetica" font-size="8pt" font-style="normal" font-weight="normal" text-decoration="normal" x="0" y="0" text-anchor="end" dominant-baseline="central">Креативный директор</text><g transform="rotate(0,0,0) translate(-148,-143) translate(148,97) rotate(0,0,0)"><text fill="" stroke="none" font-family="helvetica" font-size="8pt" font-style="normal" font-weight="normal" text-decoration="normal" x="0" y="0" text-anchor="end" dominant-baseline="central">藝術總監</text><g transform="rotate(0,0,0) translate(-148,-97) translate(148,51) rotate(0,0,0)"><text fill="" stroke="none" font-family="helvetica" font-size="8pt" font-style="normal" font-weight="normal" text-decoration="normal" x="0" y="0" text-anchor="end" dominant-baseline="central">Propietario / Socio</text><g transform="rotate(0,0,0) translate(-148,-51) translate(15,442) rotate(-90,0,0)"><text fill="" stroke="none" font-family="helvetica" font-size="10pt" font-style="italic" font-weight="normal" text-decoration="normal" x="0" y="0" text-anchor="middle" dominant-baseline="alphabetic">Categories</text><g transform="rotate(90,0,0) translate(-15,-442)"/></g></g></g></g></g></g></g></g></g></g></g></g></g></g></g></g></g></g></g></g><g fill="#444444"><path fill="" stroke="none" d=""/><g transform="translate(159,23)"><path fill="none" stroke="none"/><text fill="" stroke="none" font-family="helvetica" font-size="10pt" font-style="normal" font-weight="bold" text-decoration="normal" x="0" y="0" text-anchor="start" dominant-baseline="text-after-edge">NotAIGA: My role is:</text></g></g></g></g></g></svg>