<svg version="1.1" xmlns="http://www.w3.org/2000/svg" xmlns:xlink="http://www.w3.org/1999/xlink" width="700" height="250" style="width: 700px; height: 250px;"><defs/><g><g transform="scale(1,1) translate(0.5,0.5)"><rect fill="#FFFFFF" stroke="none" x="0" y="0" width="700" height="250"/><rect fill="#ffffff" stroke="none" x="0" y="0" width="700" height="250"/><rect fill="#FFFFFF" stroke="none" x="93" y="28" width="557" height="177"/><rect fill="#ffffff" stroke="none" x="93" y="28" width="557" height="177"/><g><rect fill="none" stroke="#e5e5e5" x="93" y="28" width="557" height="177" stroke-miterlimit="10"/></g><g><g><path fill="none" stroke="#e5e5e5" paint-order="fill stroke markers" d=" M 184 205 L 184 28" stroke-miterlimit="10"/><path fill="none" stroke="#e5e5e5" paint-order="fill stroke markers" d=" M 274 205 L 274 28" stroke-miterlimit="10"/><path fill="none" stroke="#e5e5e5" paint-order="fill stroke markers" d=" M 365 205 L 365 28" stroke-miterlimit="10"/><path fill="none" stroke="#e5e5e5" paint-order="fill stroke markers" d=" M 456 205 L 456 28" stroke-miterlimit="10"/><path fill="none" stroke="#e5e5e5" paint-order="fill stroke markers" d=" M 546 205 L 546 28" stroke-miterlimit="10"/><path fill="none" stroke="#e5e5e5" paint-order="fill stroke markers" d=" M 637 205 L 637 28" stroke-miterlimit="10"/></g><g><path fill="none" stroke="#e5e5e5" paint-order="fill stroke markers" d=" M 93 187 L 650 187" stroke-miterlimit="10"/><path fill="none" stroke="#e5e5e5" paint-order="fill stroke markers" d=" M 93 152 L 650 152" stroke-miterlimit="10"/><path fill="none" stroke="#e5e5e5" paint-order="fill stroke markers" d=" M 93 117 L 650 117" stroke-miterlimit="10"/><path fill="none" stroke="#e5e5e5" paint-order="fill stroke markers" d=" M 93 81 L 650 81" stroke-miterlimit="10"/><path fill="none" stroke="#e5e5e5" paint-order="fill stroke markers" d=" M 93 46 L 650 46" stroke-miterlimit="10"/></g><g><path fill="none" stroke="none"/><rect fill="#1f77b4" stroke="none" x="93" y="174.02500000000003" width="459.63467421727523" height="26.549999999999955"/><path fill="none" stroke="#1f77b4" paint-order="fill stroke markers" d=" M 93 174.02500000000003 L 552.6346742172752 174.02500000000003 L 552.6346742172752 200.575 L 93 200.575 L 93 174.02500000000003 Z" stroke-miterlimit="10"/><rect fill="#1f77b4" stroke="none" x="93" y="138.625" width="121.81995703964071" height="26.55000000000001"/><path fill="none" stroke="#1f77b4" paint-order="fill stroke markers" d=" M 93 138.625 L 214.8199570396407 138.625 L 214.8199570396407 165.175 L 93 165.175 L 93 138.625 Z" stroke-miterlimit="10"/><rect fill="#1f77b4" stroke="none" x="93" y="103.225" width="109.13037818134478" height="26.55000000000001"/><path fill="none" stroke="#1f77b4" paint-order="fill stroke markers" d=" M 93 103.225 L 202.13037818134478 103.225 L 202.13037818134478 129.775 L 93 129.775 L 93 103.225 Z" stroke-miterlimit="10"/><rect fill="#1f77b4" stroke="none" x="93" y="67.82500000000002" width="11.783180368417632" height="26.549999999999983"/><path fill="none" stroke="#1f77b4" paint-order="fill stroke markers" d=" M 93 67.82500000000002 L 104.78318036841763 67.82500000000002 L 104.78318036841763 94.375 L 93 94.375 L 93 67.82500000000002 Z" stroke-miterlimit="10"/><rect fill="#1f77b4" stroke="none" x="93" y="32.425000000000026" width="8.066946559916687" height="26.549999999999983"/><path fill="none" stroke="#1f77b4" paint-order="fill stroke markers" d=" M 93 32.425000000000026 L 101.06694655991669 32.425000000000026 L 101.06694655991669 58.97500000000001 L 93 58.97500000000001 L 93 32.425000000000026 Z" stroke-miterlimit="10"/></g><g fill="#444444"><path fill="" stroke="none" d=""/><g transform="translate(562.6346742172752,185.3) rotate(0,0,0)"><path fill="none" stroke="none"/><text fill="" stroke="none" font-family="helvetica" font-size="8pt" font-style="normal" font-weight="normal" text-decoration="normal" x="0" y="0" text-anchor="start" dominant-baseline="text-after-edge">64.69%</text></g></g><g fill="#444444"><path fill="" stroke="none" d=""/><g transform="translate(224.8199570396407,149.9) rotate(0,0,0)"><path fill="none" stroke="none"/><text fill="" stroke="none" font-family="helvetica" font-size="8pt" font-style="normal" font-weight="normal" text-decoration="normal" x="0" y="0" text-anchor="start" dominant-baseline="text-after-edge">17.15%</text></g></g><g fill="#444444"><path fill="" stroke="none" d=""/><g transform="translate(212.13037818134478,114.5) rotate(0,0,0)"><path fill="none" stroke="none"/><text fill="" stroke="none" font-family="helvetica" font-size="8pt" font-style="normal" font-weight="normal" text-decoration="normal" x="0" y="0" text-anchor="start" dominant-baseline="text-after-edge">15.36%</text></g></g><g fill="#444444"><path fill="" stroke="none" d=""/><g transform="translate(114.78318036841763,79.10000000000001) rotate(0,0,0)"><path fill="none" stroke="none"/><text fill="" stroke="none" font-family="helvetica" font-size="8pt" font-style="normal" font-weight="normal" text-decoration="normal" x="0" y="0" text-anchor="start" dominant-baseline="text-after-edge">1.66%</text></g></g><g fill="#444444"><path fill="" stroke="none" d=""/><g transform="translate(111.06694655991669,43.70000000000002) rotate(0,0,0)"><path fill="none" stroke="none"/><text fill="" stroke="none" font-family="helvetica" font-size="8pt" font-style="normal" font-weight="normal" text-decoration="normal" x="0" y="0" text-anchor="start" dominant-baseline="text-after-edge">1.14%</text></g></g><g fill="#444444"><path fill="" stroke="none" d=""/><g transform="translate(562.6346742172752,199.3) rotate(0,0,0)"><path fill="none" stroke="none"/><text fill="" stroke="none" font-family="helvetica" font-size="8pt" font-style="normal" font-weight="normal" text-decoration="normal" x="0" y="0" text-anchor="start" dominant-baseline="text-after-edge">5071</text></g></g><g fill="#444444"><path fill="" stroke="none" d=""/><g transform="translate(224.8199570396407,163.9) rotate(0,0,0)"><path fill="none" stroke="none"/><text fill="" stroke="none" font-family="helvetica" font-size="8pt" font-style="normal" font-weight="normal" text-decoration="normal" x="0" y="0" text-anchor="start" dominant-baseline="text-after-edge">1344</text></g></g><g fill="#444444"><path fill="" stroke="none" d=""/><g transform="translate(212.13037818134478,128.5) rotate(0,0,0)"><path fill="none" stroke="none"/><text fill="" stroke="none" font-family="helvetica" font-size="8pt" font-style="normal" font-weight="normal" text-decoration="normal" x="0" y="0" text-anchor="start" dominant-baseline="text-after-edge">1204</text></g></g><g fill="#444444"><path fill="" stroke="none" d=""/><g transform="translate(114.78318036841763,93.10000000000001) rotate(0,0,0)"><path fill="none" stroke="none"/><text fill="" stroke="none" font-family="helvetica" font-size="8pt" font-style="normal" font-weight="normal" text-decoration="normal" x="0" y="0" text-anchor="start" dominant-baseline="text-after-edge">130</text></g></g><g fill="#444444"><path fill="" stroke="none" d=""/><g transform="translate(111.06694655991669,57.70000000000002) rotate(0,0,0)"><path fill="none" stroke="none"/><text fill="" stroke="none" font-family="helvetica" font-size="8pt" font-style="normal" font-weight="normal" text-decoration="normal" x="0" y="0" text-anchor="start" dominant-baseline="text-after-edge">89</text></g></g></g><g/><g><g fill="#444444"><path fill="none" stroke="black" paint-order="fill stroke markers" d=" M 93 205 L 650 205" stroke-miterlimit="10"/><path fill="none" stroke="black" paint-order="fill stroke markers" d=" M 93 211 L 93 203" stroke-miterlimit="10"/><path fill="none" stroke="black" paint-order="fill stroke markers" d=" M 184 211 L 184 203" stroke-miterlimit="10"/><path fill="none" stroke="black" paint-order="fill stroke markers" d=" M 274 211 L 274 203" stroke-miterlimit="10"/><path fill="none" stroke="black" paint-order="fill stroke markers" d=" M 365 211 L 365 203" stroke-miterlimit="10"/><path fill="none" stroke="black" paint-order="fill stroke markers" d=" M 456 211 L 456 203" stroke-miterlimit="10"/><path fill="none" stroke="black" paint-order="fill stroke markers" d=" M 546 211 L 546 203" stroke-miterlimit="10"/><path fill="none" stroke="black" paint-order="fill stroke markers" d=" M 637 211 L 637 203" stroke-miterlimit="10"/><path fill="none" stroke="black" paint-order="fill stroke markers" d=" M 93 209 L 93 205" stroke-miterlimit="10"/><path fill="none" stroke="black" paint-order="fill stroke markers" d=" M 111 209 L 111 205" stroke-miterlimit="10"/><path fill="none" stroke="black" paint-order="fill stroke markers" d=" M 129 209 L 129 205" stroke-miterlimit="10"/><path fill="none" stroke="black" paint-order="fill stroke markers" d=" M 147 209 L 147 205" stroke-miterlimit="10"/><path fill="none" stroke="black" paint-order="fill stroke markers" d=" M 166 209 L 166 205" stroke-miterlimit="10"/><path fill="none" stroke="black" paint-order="fill stroke markers" d=" M 184 209 L 184 205" stroke-miterlimit="10"/><path fill="none" stroke="black" paint-order="fill stroke markers" d=" M 202 209 L 202 205" stroke-miterlimit="10"/><path fill="none" stroke="black" paint-order="fill stroke markers" d=" M 220 209 L 220 205" stroke-miterlimit="10"/><path fill="none" stroke="black" paint-order="fill stroke markers" d=" M 238 209 L 238 205" stroke-miterlimit="10"/><path fill="none" stroke="black" paint-order="fill stroke markers" d=" M 256 209 L 256 205" stroke-miterlimit="10"/><path fill="none" stroke="black" paint-order="fill stroke markers" d=" M 274 209 L 274 205" stroke-miterlimit="10"/><path fill="none" stroke="black" paint-order="fill stroke markers" d=" M 292 209 L 292 205" stroke-miterlimit="10"/><path fill="none" stroke="black" paint-order="fill stroke markers" d=" M 311 209 L 311 205" stroke-miterlimit="10"/><path fill="none" stroke="black" paint-order="fill stroke markers" d=" M 329 209 L 329 205" stroke-miterlimit="10"/><path fill="none" stroke="black" paint-order="fill stroke markers" d=" M 347 209 L 347 205" stroke-miterlimit="10"/><path fill="none" stroke="black" paint-order="fill stroke markers" d=" M 365 209 L 365 205" stroke-miterlimit="10"/><path fill="none" stroke="black" paint-order="fill stroke markers" d=" M 383 209 L 383 205" stroke-miterlimit="10"/><path fill="none" stroke="black" paint-order="fill stroke markers" d=" M 401 209 L 401 205" stroke-miterlimit="10"/><path fill="none" stroke="black" paint-order="fill stroke markers" d=" M 419 209 L 419 205" stroke-miterlimit="10"/><path fill="none" stroke="black" paint-order="fill stroke markers" d=" M 437 209 L 437 205" stroke-miterlimit="10"/><path fill="none" stroke="black" paint-order="fill stroke markers" d=" M 456 209 L 456 205" stroke-miterlimit="10"/><path fill="none" stroke="black" paint-order="fill stroke markers" d=" M 474 209 L 474 205" stroke-miterlimit="10"/><path fill="none" stroke="black" paint-order="fill stroke markers" d=" M 492 209 L 492 205" stroke-miterlimit="10"/><path fill="none" stroke="black" paint-order="fill stroke markers" d=" M 510 209 L 510 205" stroke-miterlimit="10"/><path fill="none" stroke="black" paint-order="fill stroke markers" d=" M 528 209 L 528 205" stroke-miterlimit="10"/><path fill="none" stroke="black" paint-order="fill stroke markers" d=" M 546 209 L 546 205" stroke-miterlimit="10"/><path fill="none" stroke="black" paint-order="fill stroke markers" d=" M 564 209 L 564 205" stroke-miterlimit="10"/><path fill="none" stroke="black" paint-order="fill stroke markers" d=" M 582 209 L 582 205" stroke-miterlimit="10"/><path fill="none" stroke="black" paint-order="fill stroke markers" d=" M 601 209 L 601 205" stroke-miterlimit="10"/><path fill="none" stroke="black" paint-order="fill stroke markers" d=" M 619 209 L 619 205" stroke-miterlimit="10"/><path fill="" stroke="black" paint-order="fill stroke markers" d=" M 637 209 L 637 205" stroke-miterlimit="10"/><g transform="translate(93,216) rotate(0,0,0)"><text fill="" stroke="none" font-family="helvetica" font-size="8pt" font-style="normal" font-weight="normal" text-decoration="normal" x="0" y="0" text-anchor="middle" dominant-baseline="hanging">0</text><g transform="rotate(0,0,0) translate(-93,-216) translate(184,216) rotate(0,0,0)"><text fill="" stroke="none" font-family="helvetica" font-size="8pt" font-style="normal" font-weight="normal" text-decoration="normal" x="0" y="0" text-anchor="middle" dominant-baseline="hanging">1000</text><g transform="rotate(0,0,0) translate(-184,-216) translate(274,216) rotate(0,0,0)"><text fill="" stroke="none" font-family="helvetica" font-size="8pt" font-style="normal" font-weight="normal" text-decoration="normal" x="0" y="0" text-anchor="middle" dominant-baseline="hanging">2000</text><g transform="rotate(0,0,0) translate(-274,-216) translate(365,216) rotate(0,0,0)"><text fill="" stroke="none" font-family="helvetica" font-size="8pt" font-style="normal" font-weight="normal" text-decoration="normal" x="0" y="0" text-anchor="middle" dominant-baseline="hanging">3000</text><g transform="rotate(0,0,0) translate(-365,-216) translate(456,216) rotate(0,0,0)"><text fill="" stroke="none" font-family="helvetica" font-size="8pt" font-style="normal" font-weight="normal" text-decoration="normal" x="0" y="0" text-anchor="middle" dominant-baseline="hanging">4000</text><g transform="rotate(0,0,0) translate(-456,-216) translate(546,216) rotate(0,0,0)"><text fill="" stroke="none" font-family="helvetica" font-size="8pt" font-style="normal" font-weight="normal" text-decoration="normal" x="0" y="0" text-anchor="middle" dominant-baseline="hanging">5000</text><g transform="rotate(0,0,0) translate(-546,-216) translate(637,216) rotate(0,0,0)"><text fill="" stroke="none" font-family="helvetica" font-size="8pt" font-style="normal" font-weight="normal" text-decoration="normal" x="0" y="0" text-anchor="middle" dominant-baseline="hanging">6000</text><g transform="rotate(0,0,0) translate(-637,-216) translate(372,234) rotate(0,0,0)"><text fill="" stroke="none" font-family="helvetica" font-size="10pt" font-style="italic" font-weight="normal" text-decoration="normal" x="0" y="0" text-anchor="middle" dominant-baseline="hanging">Respondents</text><g transform="rotate(0,0,0) translate(-372,-234)"/></g></g></g></g></g></g></g></g></g><g fill="#444444"><path fill="none" stroke="black" paint-order="fill stroke markers" d=" M 93 205 L 93 28" stroke-miterlimit="10"/><path fill="none" stroke="black" paint-order="fill stroke markers" d=" M 87 187 L 95 187" stroke-miterlimit="10"/><path fill="none" stroke="black" paint-order="fill stroke markers" d=" M 87 152 L 95 152" stroke-miterlimit="10"/><path fill="none" stroke="black" paint-order="fill stroke markers" d=" M 87 117 L 95 117" stroke-miterlimit="10"/><path fill="none" stroke="black" paint-order="fill stroke markers" d=" M 87 81 L 95 81" stroke-miterlimit="10"/><path fill="" stroke="black" paint-order="fill stroke markers" d=" M 87 46 L 95 46" stroke-miterlimit="10"/><g transform="translate(82,187) rotate(0,0,0)"><text fill="" stroke="none" font-family="helvetica" font-size="8pt" font-style="normal" font-weight="normal" text-decoration="normal" x="0" y="0" text-anchor="end" dominant-baseline="central">Pretty good</text><g transform="rotate(0,0,0) translate(-82,-187) translate(82,152) rotate(0,0,0)"><text fill="" stroke="none" font-family="helvetica" font-size="8pt" font-style="normal" font-weight="normal" text-decoration="normal" x="0" y="0" text-anchor="end" dominant-baseline="central">The best</text><g transform="rotate(0,0,0) translate(-82,-152) translate(82,117) rotate(0,0,0)"><text fill="" stroke="none" font-family="helvetica" font-size="8pt" font-style="normal" font-weight="normal" text-decoration="normal" x="0" y="0" text-anchor="end" dominant-baseline="central">Not great</text><g transform="rotate(0,0,0) translate(-82,-117) translate(82,81) rotate(0,0,0)"><text fill="" stroke="none" font-family="helvetica" font-size="8pt" font-style="normal" font-weight="normal" text-decoration="normal" x="0" y="0" text-anchor="end" dominant-baseline="central">Not sure</text><g transform="rotate(0,0,0) translate(-82,-81) translate(82,46) rotate(0,0,0)"><text fill="" stroke="none" font-family="helvetica" font-size="8pt" font-style="normal" font-weight="normal" text-decoration="normal" x="0" y="0" text-anchor="end" dominant-baseline="central">The worst</text><g transform="rotate(0,0,0) translate(-82,-46) translate(15,117) rotate(-90,0,0)"><text fill="" stroke="none" font-family="helvetica" font-size="10pt" font-style="italic" font-weight="normal" text-decoration="normal" x="0" y="0" text-anchor="middle" dominant-baseline="alphabetic">Categories</text><g transform="rotate(90,0,0) translate(-15,-117)"/></g></g></g></g></g></g></g><g fill="#444444"><path fill="" stroke="none" d=""/><g transform="translate(93,23)"><path fill="none" stroke="none"/><text fill="" stroke="none" font-family="helvetica" font-size="10pt" font-style="normal" font-weight="bold" text-decoration="normal" x="0" y="0" text-anchor="start" dominant-baseline="text-after-edge">NotAIGA: My job is:</text></g></g></g></g></g></svg>