<svg version="1.1" xmlns="http://www.w3.org/2000/svg" xmlns:xlink="http://www.w3.org/1999/xlink" width="700" height="1200" style="width: 700px; height: 1200px;"><defs/><g><g transform="scale(1,1) translate(0.5,0.5)"><rect fill="#FFFFFF" stroke="none" x="0" y="0" width="700" height="1200"/><rect fill="#ffffff" stroke="none" x="0" y="0" width="700" height="1200"/><rect fill="#FFFFFF" stroke="none" x="238" y="28" width="412" height="1127"/><rect fill="#ffffff" stroke="none" x="238" y="28" width="412" height="1127"/><g><rect fill="none" stroke="#e5e5e5" x="238" y="28" width="412" height="1127" stroke-miterlimit="10"/></g><g><g><path fill="none" stroke="#e5e5e5" paint-order="fill stroke markers" d=" M 302 1155 L 302 28" stroke-miterlimit="10"/><path fill="none" stroke="#e5e5e5" paint-order="fill stroke markers" d=" M 367 1155 L 367 28" stroke-miterlimit="10"/><path fill="none" stroke="#e5e5e5" paint-order="fill stroke markers" d=" M 431 1155 L 431 28" stroke-miterlimit="10"/><path fill="none" stroke="#e5e5e5" paint-order="fill stroke markers" d=" M 495 1155 L 495 28" stroke-miterlimit="10"/><path fill="none" stroke="#e5e5e5" paint-order="fill stroke markers" d=" M 560 1155 L 560 28" stroke-miterlimit="10"/><path fill="none" stroke="#e5e5e5" paint-order="fill stroke markers" d=" M 624 1155 L 624 28" stroke-miterlimit="10"/></g><g><path fill="none" stroke="#e5e5e5" paint-order="fill stroke markers" d=" M 238 1132 L 650 1132" stroke-miterlimit="10"/><path fill="none" stroke="#e5e5e5" paint-order="fill stroke markers" d=" M 238 1085 L 650 1085" stroke-miterlimit="10"/><path fill="none" stroke="#e5e5e5" paint-order="fill stroke markers" d=" M 238 1038 L 650 1038" stroke-miterlimit="10"/><path fill="none" stroke="#e5e5e5" paint-order="fill stroke markers" d=" M 238 991 L 650 991" stroke-miterlimit="10"/><path fill="none" stroke="#e5e5e5" paint-order="fill stroke markers" d=" M 238 944 L 650 944" stroke-miterlimit="10"/><path fill="none" stroke="#e5e5e5" paint-order="fill stroke markers" d=" M 238 897 L 650 897" stroke-miterlimit="10"/><path fill="none" stroke="#e5e5e5" paint-order="fill stroke markers" d=" M 238 850 L 650 850" stroke-miterlimit="10"/><path fill="none" stroke="#e5e5e5" paint-order="fill stroke markers" d=" M 238 803 L 650 803" stroke-miterlimit="10"/><path fill="none" stroke="#e5e5e5" paint-order="fill stroke markers" d=" M 238 756 L 650 756" stroke-miterlimit="10"/><path fill="none" stroke="#e5e5e5" paint-order="fill stroke markers" d=" M 238 709 L 650 709" stroke-miterlimit="10"/><path fill="none" stroke="#e5e5e5" paint-order="fill stroke markers" d=" M 238 662 L 650 662" stroke-miterlimit="10"/><path fill="none" stroke="#e5e5e5" paint-order="fill stroke markers" d=" M 238 615 L 650 615" stroke-miterlimit="10"/><path fill="none" stroke="#e5e5e5" paint-order="fill stroke markers" d=" M 238 568 L 650 568" stroke-miterlimit="10"/><path fill="none" stroke="#e5e5e5" paint-order="fill stroke markers" d=" M 238 521 L 650 521" stroke-miterlimit="10"/><path fill="none" stroke="#e5e5e5" paint-order="fill stroke markers" d=" M 238 474 L 650 474" stroke-miterlimit="10"/><path fill="none" stroke="#e5e5e5" paint-order="fill stroke markers" d=" M 238 427 L 650 427" stroke-miterlimit="10"/><path fill="none" stroke="#e5e5e5" paint-order="fill stroke markers" d=" M 238 380 L 650 380" stroke-miterlimit="10"/><path fill="none" stroke="#e5e5e5" paint-order="fill stroke markers" d=" M 238 333 L 650 333" stroke-miterlimit="10"/><path fill="none" stroke="#e5e5e5" paint-order="fill stroke markers" d=" M 238 286 L 650 286" stroke-miterlimit="10"/><path fill="none" stroke="#e5e5e5" paint-order="fill stroke markers" d=" M 238 239 L 650 239" stroke-miterlimit="10"/><path fill="none" stroke="#e5e5e5" paint-order="fill stroke markers" d=" M 238 192 L 650 192" stroke-miterlimit="10"/><path fill="none" stroke="#e5e5e5" paint-order="fill stroke markers" d=" M 238 145 L 650 145" stroke-miterlimit="10"/><path fill="none" stroke="#e5e5e5" paint-order="fill stroke markers" d=" M 238 98 L 650 98" stroke-miterlimit="10"/><path fill="none" stroke="#e5e5e5" paint-order="fill stroke markers" d=" M 238 51 L 650 51" stroke-miterlimit="10"/></g><g><path fill="none" stroke="none"/><rect fill="#1f77b4" stroke="none" x="238" y="1113.9114583333333" width="340.1167947036413" height="35.21875"/><path fill="none" stroke="#1f77b4" paint-order="fill stroke markers" d=" M 238 1113.9114583333333 L 578.1167947036413 1113.9114583333333 L 578.1167947036413 1149.1302083333333 L 238 1149.1302083333333 L 238 1113.9114583333333 Z" stroke-miterlimit="10"/><rect fill="#1f77b4" stroke="none" x="238" y="1066.953125" width="282.090437823996" height="35.21875"/><path fill="none" stroke="#1f77b4" paint-order="fill stroke markers" d=" M 238 1066.953125 L 520.090437823996 1066.953125 L 520.090437823996 1102.171875 L 238 1102.171875 L 238 1066.953125 Z" stroke-miterlimit="10"/><rect fill="#1f77b4" stroke="none" x="238" y="1019.9947916666667" width="233.6493660608332" height="35.21875"/><path fill="none" stroke="#1f77b4" paint-order="fill stroke markers" d=" M 238 1019.9947916666667 L 471.6493660608332 1019.9947916666667 L 471.6493660608332 1055.2135416666667 L 238 1055.2135416666667 L 238 1019.9947916666667 Z" stroke-miterlimit="10"/><rect fill="#1f77b4" stroke="none" x="238" y="973.0364583333333" width="216.4730497782774" height="35.21875"/><path fill="none" stroke="#1f77b4" paint-order="fill stroke markers" d=" M 238 973.0364583333333 L 454.4730497782774 973.0364583333333 L 454.4730497782774 1008.2552083333333 L 238 1008.2552083333333 L 238 973.0364583333333 Z" stroke-miterlimit="10"/><rect fill="#1f77b4" stroke="none" x="238" y="926.078125" width="204.5718568484167" height="35.21875"/><path fill="none" stroke="#1f77b4" paint-order="fill stroke markers" d=" M 238 926.078125 L 442.5718568484167 926.078125 L 442.5718568484167 961.296875 L 238 961.296875 L 238 926.078125 Z" stroke-miterlimit="10"/><rect fill="#1f77b4" stroke="none" x="238" y="879.1197916666666" width="203.28524139653985" height="35.21875"/><path fill="none" stroke="#1f77b4" paint-order="fill stroke markers" d=" M 238 879.1197916666666 L 441.28524139653985 879.1197916666666 L 441.28524139653985 914.3385416666666 L 238 914.3385416666666 L 238 879.1197916666666 Z" stroke-miterlimit="10"/><rect fill="#1f77b4" stroke="none" x="238" y="832.1614583333333" width="188.87514833551933" height="35.21875"/><path fill="none" stroke="#1f77b4" paint-order="fill stroke markers" d=" M 238 832.1614583333333 L 426.8751483355193 832.1614583333333 L 426.8751483355193 867.3802083333333 L 238 867.3802083333333 L 238 832.1614583333333 Z" stroke-miterlimit="10"/><rect fill="#1f77b4" stroke="none" x="238" y="785.203125" width="187.84585597401787" height="35.21875"/><path fill="none" stroke="#1f77b4" paint-order="fill stroke markers" d=" M 238 785.203125 L 425.84585597401787 785.203125 L 425.84585597401787 820.421875 L 238 820.421875 L 238 785.203125 Z" stroke-miterlimit="10"/><rect fill="#1f77b4" stroke="none" x="238" y="738.2447916666666" width="187.2668790206733" height="35.21875"/><path fill="none" stroke="#1f77b4" paint-order="fill stroke markers" d=" M 238 738.2447916666666 L 425.2668790206733 738.2447916666666 L 425.2668790206733 773.4635416666666 L 238 773.4635416666666 L 238 738.2447916666666 Z" stroke-miterlimit="10"/><rect fill="#1f77b4" stroke="none" x="238" y="691.2864583333333" width="182.12041721316598" height="35.21875"/><path fill="none" stroke="#1f77b4" paint-order="fill stroke markers" d=" M 238 691.2864583333333 L 420.120417213166 691.2864583333333 L 420.120417213166 726.5052083333333 L 238 726.5052083333333 L 238 691.2864583333333 Z" stroke-miterlimit="10"/><rect fill="#1f77b4" stroke="none" x="238" y="644.328125" width="179.22553244644308" height="35.21875"/><path fill="none" stroke="#1f77b4" paint-order="fill stroke markers" d=" M 238 644.328125 L 417.2255324464431 644.328125 L 417.2255324464431 679.546875 L 238 679.546875 L 238 644.328125 Z" stroke-miterlimit="10"/><rect fill="#1f77b4" stroke="none" x="238" y="597.3697916666666" width="138.43982262194743" height="35.21875"/><path fill="none" stroke="#1f77b4" paint-order="fill stroke markers" d=" M 238 597.3697916666666 L 376.4398226219474 597.3697916666666 L 376.4398226219474 632.5885416666666 L 238 632.5885416666666 L 238 597.3697916666666 Z" stroke-miterlimit="10"/><rect fill="#1f77b4" stroke="none" x="238" y="550.4114583333333" width="131.87808381737557" height="35.21875"/><path fill="none" stroke="#1f77b4" paint-order="fill stroke markers" d=" M 238 550.4114583333333 L 369.87808381737557 550.4114583333333 L 369.87808381737557 585.6302083333333 L 238 585.6302083333333 L 238 550.4114583333333 Z" stroke-miterlimit="10"/><rect fill="#1f77b4" stroke="none" x="238" y="503.453125" width="117.85397539191808" height="35.21875"/><path fill="none" stroke="#1f77b4" paint-order="fill stroke markers" d=" M 238 503.453125 L 355.8539753919181 503.453125 L 355.8539753919181 538.671875 L 238 538.671875 L 238 503.453125 Z" stroke-miterlimit="10"/><rect fill="#1f77b4" stroke="none" x="238" y="456.49479166666663" width="103.82986696646054" height="35.21875"/><path fill="none" stroke="#1f77b4" paint-order="fill stroke markers" d=" M 238 456.49479166666663 L 341.82986696646054 456.49479166666663 L 341.82986696646054 491.71354166666663 L 238 491.71354166666663 L 238 456.49479166666663 Z" stroke-miterlimit="10"/><rect fill="#1f77b4" stroke="none" x="238" y="409.53645833333326" width="89.29111236025233" height="35.21875"/><path fill="none" stroke="#1f77b4" paint-order="fill stroke markers" d=" M 238 409.53645833333326 L 327.2911123602523 409.53645833333326 L 327.2911123602523 444.75520833333326 L 238 444.75520833333326 L 238 409.53645833333326 Z" stroke-miterlimit="10"/><rect fill="#1f77b4" stroke="none" x="238" y="362.578125" width="88.6478046343139" height="35.21875"/><path fill="none" stroke="#1f77b4" paint-order="fill stroke markers" d=" M 238 362.578125 L 326.6478046343139 362.578125 L 326.6478046343139 397.796875 L 238 397.796875 L 238 362.578125 Z" stroke-miterlimit="10"/><rect fill="#1f77b4" stroke="none" x="238" y="315.61979166666663" width="74.75235775404411" height="35.21875"/><path fill="none" stroke="#1f77b4" paint-order="fill stroke markers" d=" M 238 315.61979166666663 L 312.7523577540441 315.61979166666663 L 312.7523577540441 350.83854166666663 L 238 350.83854166666663 L 238 315.61979166666663 Z" stroke-miterlimit="10"/><rect fill="#1f77b4" stroke="none" x="238" y="268.66145833333326" width="62.91549559677719" height="35.21875"/><path fill="none" stroke="#1f77b4" paint-order="fill stroke markers" d=" M 238 268.66145833333326 L 300.9154955967772 268.66145833333326 L 300.9154955967772 303.88020833333326 L 238 303.88020833333326 L 238 268.66145833333326 Z" stroke-miterlimit="10"/><rect fill="#1f77b4" stroke="none" x="238" y="221.703125" width="57.704703016676035" height="35.21875"/><path fill="none" stroke="#1f77b4" paint-order="fill stroke markers" d=" M 238 221.703125 L 295.70470301667604 221.703125 L 295.70470301667604 256.921875 L 238 256.921875 L 238 221.703125 Z" stroke-miterlimit="10"/><rect fill="#1f77b4" stroke="none" x="238" y="174.74479166666663" width="55.8391106114546" height="35.21875"/><path fill="none" stroke="#1f77b4" paint-order="fill stroke markers" d=" M 238 174.74479166666663 L 293.8391106114546 174.74479166666663 L 293.8391106114546 209.96354166666663 L 238 209.96354166666663 L 238 174.74479166666663 Z" stroke-miterlimit="10"/><rect fill="#1f77b4" stroke="none" x="238" y="127.78645833333326" width="44.066579226781585" height="35.21875"/><path fill="none" stroke="#1f77b4" paint-order="fill stroke markers" d=" M 238 127.78645833333326 L 282.0665792267816 127.78645833333326 L 282.0665792267816 163.00520833333326 L 238 163.00520833333326 L 238 127.78645833333326 Z" stroke-miterlimit="10"/><rect fill="#1f77b4" stroke="none" x="238" y="80.828125" width="42.65130222971709" height="35.21875"/><path fill="none" stroke="#1f77b4" paint-order="fill stroke markers" d=" M 238 80.828125 L 280.6513022297171 80.828125 L 280.6513022297171 116.046875 L 238 116.046875 L 238 80.828125 Z" stroke-miterlimit="10"/><rect fill="#1f77b4" stroke="none" x="238" y="33.869791666666515" width="4.1171694460058745" height="35.21875"/><path fill="none" stroke="#1f77b4" paint-order="fill stroke markers" d=" M 238 33.869791666666515 L 242.11716944600587 33.869791666666515 L 242.11716944600587 69.08854166666652 L 238 69.08854166666652 L 238 33.869791666666515 Z" stroke-miterlimit="10"/></g><g fill="#444444"><path fill="" stroke="none" d=""/><g transform="translate(588.1167947036413,1129.5208333333333) rotate(0,0,0)"><path fill="none" stroke="none"/><text fill="" stroke="none" font-family="helvetica" font-size="8pt" font-style="normal" font-weight="normal" text-decoration="normal" x="0" y="0" text-anchor="start" dominant-baseline="text-after-edge">67.44%</text></g></g><g fill="#444444"><path fill="" stroke="none" d=""/><g transform="translate(530.090437823996,1082.5625) rotate(0,0,0)"><path fill="none" stroke="none"/><text fill="" stroke="none" font-family="helvetica" font-size="8pt" font-style="normal" font-weight="normal" text-decoration="normal" x="0" y="0" text-anchor="start" dominant-baseline="text-after-edge">55.94%</text></g></g><g fill="#444444"><path fill="" stroke="none" d=""/><g transform="translate(481.6493660608332,1035.6041666666667) rotate(0,0,0)"><path fill="none" stroke="none"/><text fill="" stroke="none" font-family="helvetica" font-size="8pt" font-style="normal" font-weight="normal" text-decoration="normal" x="0" y="0" text-anchor="start" dominant-baseline="text-after-edge">46.33%</text></g></g><g fill="#444444"><path fill="" stroke="none" d=""/><g transform="translate(464.4730497782774,988.6458333333333) rotate(0,0,0)"><path fill="none" stroke="none"/><text fill="" stroke="none" font-family="helvetica" font-size="8pt" font-style="normal" font-weight="normal" text-decoration="normal" x="0" y="0" text-anchor="start" dominant-baseline="text-after-edge">42.93%</text></g></g><g fill="#444444"><path fill="" stroke="none" d=""/><g transform="translate(452.5718568484167,941.6875) rotate(0,0,0)"><path fill="none" stroke="none"/><text fill="" stroke="none" font-family="helvetica" font-size="8pt" font-style="normal" font-weight="normal" text-decoration="normal" x="0" y="0" text-anchor="start" dominant-baseline="text-after-edge">40.57%</text></g></g><g fill="#444444"><path fill="" stroke="none" d=""/><g transform="translate(451.28524139653985,894.7291666666666) rotate(0,0,0)"><path fill="none" stroke="none"/><text fill="" stroke="none" font-family="helvetica" font-size="8pt" font-style="normal" font-weight="normal" text-decoration="normal" x="0" y="0" text-anchor="start" dominant-baseline="text-after-edge">40.31%</text></g></g><g fill="#444444"><path fill="" stroke="none" d=""/><g transform="translate(436.8751483355193,847.7708333333333) rotate(0,0,0)"><path fill="none" stroke="none"/><text fill="" stroke="none" font-family="helvetica" font-size="8pt" font-style="normal" font-weight="normal" text-decoration="normal" x="0" y="0" text-anchor="start" dominant-baseline="text-after-edge">37.45%</text></g></g><g fill="#444444"><path fill="" stroke="none" d=""/><g transform="translate(435.84585597401787,800.8125) rotate(0,0,0)"><path fill="none" stroke="none"/><text fill="" stroke="none" font-family="helvetica" font-size="8pt" font-style="normal" font-weight="normal" text-decoration="normal" x="0" y="0" text-anchor="start" dominant-baseline="text-after-edge">37.25%</text></g></g><g fill="#444444"><path fill="" stroke="none" d=""/><g transform="translate(435.2668790206733,753.8541666666666) rotate(0,0,0)"><path fill="none" stroke="none"/><text fill="" stroke="none" font-family="helvetica" font-size="8pt" font-style="normal" font-weight="normal" text-decoration="normal" x="0" y="0" text-anchor="start" dominant-baseline="text-after-edge">37.13%</text></g></g><g fill="#444444"><path fill="" stroke="none" d=""/><g transform="translate(430.120417213166,706.8958333333333) rotate(0,0,0)"><path fill="none" stroke="none"/><text fill="" stroke="none" font-family="helvetica" font-size="8pt" font-style="normal" font-weight="normal" text-decoration="normal" x="0" y="0" text-anchor="start" dominant-baseline="text-after-edge">36.11%</text></g></g><g fill="#444444"><path fill="" stroke="none" d=""/><g transform="translate(427.2255324464431,659.9375) rotate(0,0,0)"><path fill="none" stroke="none"/><text fill="" stroke="none" font-family="helvetica" font-size="8pt" font-style="normal" font-weight="normal" text-decoration="normal" x="0" y="0" text-anchor="start" dominant-baseline="text-after-edge">35.54%</text></g></g><g fill="#444444"><path fill="" stroke="none" d=""/><g transform="translate(386.4398226219474,612.9791666666666) rotate(0,0,0)"><path fill="none" stroke="none"/><text fill="" stroke="none" font-family="helvetica" font-size="8pt" font-style="normal" font-weight="normal" text-decoration="normal" x="0" y="0" text-anchor="start" dominant-baseline="text-after-edge">27.45%</text></g></g><g fill="#444444"><path fill="" stroke="none" d=""/><g transform="translate(379.87808381737557,566.0208333333333) rotate(0,0,0)"><path fill="none" stroke="none"/><text fill="" stroke="none" font-family="helvetica" font-size="8pt" font-style="normal" font-weight="normal" text-decoration="normal" x="0" y="0" text-anchor="start" dominant-baseline="text-after-edge">26.15%</text></g></g><g fill="#444444"><path fill="" stroke="none" d=""/><g transform="translate(365.8539753919181,519.0625) rotate(0,0,0)"><path fill="none" stroke="none"/><text fill="" stroke="none" font-family="helvetica" font-size="8pt" font-style="normal" font-weight="normal" text-decoration="normal" x="0" y="0" text-anchor="start" dominant-baseline="text-after-edge">23.37%</text></g></g><g fill="#444444"><path fill="" stroke="none" d=""/><g transform="translate(351.82986696646054,472.10416666666663) rotate(0,0,0)"><path fill="none" stroke="none"/><text fill="" stroke="none" font-family="helvetica" font-size="8pt" font-style="normal" font-weight="normal" text-decoration="normal" x="0" y="0" text-anchor="start" dominant-baseline="text-after-edge">20.59%</text></g></g><g fill="#444444"><path fill="" stroke="none" d=""/><g transform="translate(337.2911123602523,425.14583333333326) rotate(0,0,0)"><path fill="none" stroke="none"/><text fill="" stroke="none" font-family="helvetica" font-size="8pt" font-style="normal" font-weight="normal" text-decoration="normal" x="0" y="0" text-anchor="start" dominant-baseline="text-after-edge">17.71%</text></g></g><g fill="#444444"><path fill="" stroke="none" d=""/><g transform="translate(336.6478046343139,378.1875) rotate(0,0,0)"><path fill="none" stroke="none"/><text fill="" stroke="none" font-family="helvetica" font-size="8pt" font-style="normal" font-weight="normal" text-decoration="normal" x="0" y="0" text-anchor="start" dominant-baseline="text-after-edge">17.58%</text></g></g><g fill="#444444"><path fill="" stroke="none" d=""/><g transform="translate(322.7523577540441,331.22916666666663) rotate(0,0,0)"><path fill="none" stroke="none"/><text fill="" stroke="none" font-family="helvetica" font-size="8pt" font-style="normal" font-weight="normal" text-decoration="normal" x="0" y="0" text-anchor="start" dominant-baseline="text-after-edge">14.82%</text></g></g><g fill="#444444"><path fill="" stroke="none" d=""/><g transform="translate(310.9154955967772,284.27083333333326) rotate(0,0,0)"><path fill="none" stroke="none"/><text fill="" stroke="none" font-family="helvetica" font-size="8pt" font-style="normal" font-weight="normal" text-decoration="normal" x="0" y="0" text-anchor="start" dominant-baseline="text-after-edge">12.48%</text></g></g><g fill="#444444"><path fill="" stroke="none" d=""/><g transform="translate(305.70470301667604,237.3125) rotate(0,0,0)"><path fill="none" stroke="none"/><text fill="" stroke="none" font-family="helvetica" font-size="8pt" font-style="normal" font-weight="normal" text-decoration="normal" x="0" y="0" text-anchor="start" dominant-baseline="text-after-edge">11.44%</text></g></g><g fill="#444444"><path fill="" stroke="none" d=""/><g transform="translate(303.8391106114546,190.35416666666663) rotate(0,0,0)"><path fill="none" stroke="none"/><text fill="" stroke="none" font-family="helvetica" font-size="8pt" font-style="normal" font-weight="normal" text-decoration="normal" x="0" y="0" text-anchor="start" dominant-baseline="text-after-edge">11.07%</text></g></g><g fill="#444444"><path fill="" stroke="none" d=""/><g transform="translate(292.0665792267816,143.39583333333326) rotate(0,0,0)"><path fill="none" stroke="none"/><text fill="" stroke="none" font-family="helvetica" font-size="8pt" font-style="normal" font-weight="normal" text-decoration="normal" x="0" y="0" text-anchor="start" dominant-baseline="text-after-edge">8.74%</text></g></g><g fill="#444444"><path fill="" stroke="none" d=""/><g transform="translate(290.6513022297171,96.4375) rotate(0,0,0)"><path fill="none" stroke="none"/><text fill="" stroke="none" font-family="helvetica" font-size="8pt" font-style="normal" font-weight="normal" text-decoration="normal" x="0" y="0" text-anchor="start" dominant-baseline="text-after-edge">8.46%</text></g></g><g fill="#444444"><path fill="" stroke="none" d=""/><g transform="translate(252.11716944600587,49.479166666666515) rotate(0,0,0)"><path fill="none" stroke="none"/><text fill="" stroke="none" font-family="helvetica" font-size="8pt" font-style="normal" font-weight="normal" text-decoration="normal" x="0" y="0" text-anchor="start" dominant-baseline="text-after-edge">0.82%</text></g></g><g fill="#444444"><path fill="" stroke="none" d=""/><g transform="translate(588.1167947036413,1143.5208333333333) rotate(0,0,0)"><path fill="none" stroke="none"/><text fill="" stroke="none" font-family="helvetica" font-size="8pt" font-style="normal" font-weight="normal" text-decoration="normal" x="0" y="0" text-anchor="start" dominant-baseline="text-after-edge">5287</text></g></g><g fill="#444444"><path fill="" stroke="none" d=""/><g transform="translate(530.090437823996,1096.5625) rotate(0,0,0)"><path fill="none" stroke="none"/><text fill="" stroke="none" font-family="helvetica" font-size="8pt" font-style="normal" font-weight="normal" text-decoration="normal" x="0" y="0" text-anchor="start" dominant-baseline="text-after-edge">4385</text></g></g><g fill="#444444"><path fill="" stroke="none" d=""/><g transform="translate(481.6493660608332,1049.6041666666667) rotate(0,0,0)"><path fill="none" stroke="none"/><text fill="" stroke="none" font-family="helvetica" font-size="8pt" font-style="normal" font-weight="normal" text-decoration="normal" x="0" y="0" text-anchor="start" dominant-baseline="text-after-edge">3632</text></g></g><g fill="#444444"><path fill="" stroke="none" d=""/><g transform="translate(464.4730497782774,1002.6458333333333) rotate(0,0,0)"><path fill="none" stroke="none"/><text fill="" stroke="none" font-family="helvetica" font-size="8pt" font-style="normal" font-weight="normal" text-decoration="normal" x="0" y="0" text-anchor="start" dominant-baseline="text-after-edge">3365</text></g></g><g fill="#444444"><path fill="" stroke="none" d=""/><g transform="translate(452.5718568484167,955.6875) rotate(0,0,0)"><path fill="none" stroke="none"/><text fill="" stroke="none" font-family="helvetica" font-size="8pt" font-style="normal" font-weight="normal" text-decoration="normal" x="0" y="0" text-anchor="start" dominant-baseline="text-after-edge">3180</text></g></g><g fill="#444444"><path fill="" stroke="none" d=""/><g transform="translate(451.28524139653985,908.7291666666666) rotate(0,0,0)"><path fill="none" stroke="none"/><text fill="" stroke="none" font-family="helvetica" font-size="8pt" font-style="normal" font-weight="normal" text-decoration="normal" x="0" y="0" text-anchor="start" dominant-baseline="text-after-edge">3160</text></g></g><g fill="#444444"><path fill="" stroke="none" d=""/><g transform="translate(436.8751483355193,861.7708333333333) rotate(0,0,0)"><path fill="none" stroke="none"/><text fill="" stroke="none" font-family="helvetica" font-size="8pt" font-style="normal" font-weight="normal" text-decoration="normal" x="0" y="0" text-anchor="start" dominant-baseline="text-after-edge">2936</text></g></g><g fill="#444444"><path fill="" stroke="none" d=""/><g transform="translate(435.84585597401787,814.8125) rotate(0,0,0)"><path fill="none" stroke="none"/><text fill="" stroke="none" font-family="helvetica" font-size="8pt" font-style="normal" font-weight="normal" text-decoration="normal" x="0" y="0" text-anchor="start" dominant-baseline="text-after-edge">2920</text></g></g><g fill="#444444"><path fill="" stroke="none" d=""/><g transform="translate(435.2668790206733,767.8541666666666) rotate(0,0,0)"><path fill="none" stroke="none"/><text fill="" stroke="none" font-family="helvetica" font-size="8pt" font-style="normal" font-weight="normal" text-decoration="normal" x="0" y="0" text-anchor="start" dominant-baseline="text-after-edge">2911</text></g></g><g fill="#444444"><path fill="" stroke="none" d=""/><g transform="translate(430.120417213166,720.8958333333333) rotate(0,0,0)"><path fill="none" stroke="none"/><text fill="" stroke="none" font-family="helvetica" font-size="8pt" font-style="normal" font-weight="normal" text-decoration="normal" x="0" y="0" text-anchor="start" dominant-baseline="text-after-edge">2831</text></g></g><g fill="#444444"><path fill="" stroke="none" d=""/><g transform="translate(427.2255324464431,673.9375) rotate(0,0,0)"><path fill="none" stroke="none"/><text fill="" stroke="none" font-family="helvetica" font-size="8pt" font-style="normal" font-weight="normal" text-decoration="normal" x="0" y="0" text-anchor="start" dominant-baseline="text-after-edge">2786</text></g></g><g fill="#444444"><path fill="" stroke="none" d=""/><g transform="translate(386.4398226219474,626.9791666666666) rotate(0,0,0)"><path fill="none" stroke="none"/><text fill="" stroke="none" font-family="helvetica" font-size="8pt" font-style="normal" font-weight="normal" text-decoration="normal" x="0" y="0" text-anchor="start" dominant-baseline="text-after-edge">2152</text></g></g><g fill="#444444"><path fill="" stroke="none" d=""/><g transform="translate(379.87808381737557,580.0208333333333) rotate(0,0,0)"><path fill="none" stroke="none"/><text fill="" stroke="none" font-family="helvetica" font-size="8pt" font-style="normal" font-weight="normal" text-decoration="normal" x="0" y="0" text-anchor="start" dominant-baseline="text-after-edge">2050</text></g></g><g fill="#444444"><path fill="" stroke="none" d=""/><g transform="translate(365.8539753919181,533.0625) rotate(0,0,0)"><path fill="none" stroke="none"/><text fill="" stroke="none" font-family="helvetica" font-size="8pt" font-style="normal" font-weight="normal" text-decoration="normal" x="0" y="0" text-anchor="start" dominant-baseline="text-after-edge">1832</text></g></g><g fill="#444444"><path fill="" stroke="none" d=""/><g transform="translate(351.82986696646054,486.10416666666663) rotate(0,0,0)"><path fill="none" stroke="none"/><text fill="" stroke="none" font-family="helvetica" font-size="8pt" font-style="normal" font-weight="normal" text-decoration="normal" x="0" y="0" text-anchor="start" dominant-baseline="text-after-edge">1614</text></g></g><g fill="#444444"><path fill="" stroke="none" d=""/><g transform="translate(337.2911123602523,439.14583333333326) rotate(0,0,0)"><path fill="none" stroke="none"/><text fill="" stroke="none" font-family="helvetica" font-size="8pt" font-style="normal" font-weight="normal" text-decoration="normal" x="0" y="0" text-anchor="start" dominant-baseline="text-after-edge">1388</text></g></g><g fill="#444444"><path fill="" stroke="none" d=""/><g transform="translate(336.6478046343139,392.1875) rotate(0,0,0)"><path fill="none" stroke="none"/><text fill="" stroke="none" font-family="helvetica" font-size="8pt" font-style="normal" font-weight="normal" text-decoration="normal" x="0" y="0" text-anchor="start" dominant-baseline="text-after-edge">1378</text></g></g><g fill="#444444"><path fill="" stroke="none" d=""/><g transform="translate(322.7523577540441,345.22916666666663) rotate(0,0,0)"><path fill="none" stroke="none"/><text fill="" stroke="none" font-family="helvetica" font-size="8pt" font-style="normal" font-weight="normal" text-decoration="normal" x="0" y="0" text-anchor="start" dominant-baseline="text-after-edge">1162</text></g></g><g fill="#444444"><path fill="" stroke="none" d=""/><g transform="translate(310.9154955967772,298.27083333333326) rotate(0,0,0)"><path fill="none" stroke="none"/><text fill="" stroke="none" font-family="helvetica" font-size="8pt" font-style="normal" font-weight="normal" text-decoration="normal" x="0" y="0" text-anchor="start" dominant-baseline="text-after-edge">978</text></g></g><g fill="#444444"><path fill="" stroke="none" d=""/><g transform="translate(305.70470301667604,251.3125) rotate(0,0,0)"><path fill="none" stroke="none"/><text fill="" stroke="none" font-family="helvetica" font-size="8pt" font-style="normal" font-weight="normal" text-decoration="normal" x="0" y="0" text-anchor="start" dominant-baseline="text-after-edge">897</text></g></g><g fill="#444444"><path fill="" stroke="none" d=""/><g transform="translate(303.8391106114546,204.35416666666663) rotate(0,0,0)"><path fill="none" stroke="none"/><text fill="" stroke="none" font-family="helvetica" font-size="8pt" font-style="normal" font-weight="normal" text-decoration="normal" x="0" y="0" text-anchor="start" dominant-baseline="text-after-edge">868</text></g></g><g fill="#444444"><path fill="" stroke="none" d=""/><g transform="translate(292.0665792267816,157.39583333333326) rotate(0,0,0)"><path fill="none" stroke="none"/><text fill="" stroke="none" font-family="helvetica" font-size="8pt" font-style="normal" font-weight="normal" text-decoration="normal" x="0" y="0" text-anchor="start" dominant-baseline="text-after-edge">685</text></g></g><g fill="#444444"><path fill="" stroke="none" d=""/><g transform="translate(290.6513022297171,110.4375) rotate(0,0,0)"><path fill="none" stroke="none"/><text fill="" stroke="none" font-family="helvetica" font-size="8pt" font-style="normal" font-weight="normal" text-decoration="normal" x="0" y="0" text-anchor="start" dominant-baseline="text-after-edge">663</text></g></g><g fill="#444444"><path fill="" stroke="none" d=""/><g transform="translate(252.11716944600587,63.479166666666515) rotate(0,0,0)"><path fill="none" stroke="none"/><text fill="" stroke="none" font-family="helvetica" font-size="8pt" font-style="normal" font-weight="normal" text-decoration="normal" x="0" y="0" text-anchor="start" dominant-baseline="text-after-edge">64</text></g></g></g><g/><g><g fill="#444444"><path fill="none" stroke="black" paint-order="fill stroke markers" d=" M 238 1155 L 650 1155" stroke-miterlimit="10"/><path fill="none" stroke="black" paint-order="fill stroke markers" d=" M 238 1161 L 238 1153" stroke-miterlimit="10"/><path fill="none" stroke="black" paint-order="fill stroke markers" d=" M 302 1161 L 302 1153" stroke-miterlimit="10"/><path fill="none" stroke="black" paint-order="fill stroke markers" d=" M 367 1161 L 367 1153" stroke-miterlimit="10"/><path fill="none" stroke="black" paint-order="fill stroke markers" d=" M 431 1161 L 431 1153" stroke-miterlimit="10"/><path fill="none" stroke="black" paint-order="fill stroke markers" d=" M 495 1161 L 495 1153" stroke-miterlimit="10"/><path fill="none" stroke="black" paint-order="fill stroke markers" d=" M 560 1161 L 560 1153" stroke-miterlimit="10"/><path fill="none" stroke="black" paint-order="fill stroke markers" d=" M 624 1161 L 624 1153" stroke-miterlimit="10"/><path fill="none" stroke="black" paint-order="fill stroke markers" d=" M 238 1159 L 238 1155" stroke-miterlimit="10"/><path fill="none" stroke="black" paint-order="fill stroke markers" d=" M 251 1159 L 251 1155" stroke-miterlimit="10"/><path fill="none" stroke="black" paint-order="fill stroke markers" d=" M 264 1159 L 264 1155" stroke-miterlimit="10"/><path fill="none" stroke="black" paint-order="fill stroke markers" d=" M 277 1159 L 277 1155" stroke-miterlimit="10"/><path fill="none" stroke="black" paint-order="fill stroke markers" d=" M 289 1159 L 289 1155" stroke-miterlimit="10"/><path fill="none" stroke="black" paint-order="fill stroke markers" d=" M 302 1159 L 302 1155" stroke-miterlimit="10"/><path fill="none" stroke="black" paint-order="fill stroke markers" d=" M 315 1159 L 315 1155" stroke-miterlimit="10"/><path fill="none" stroke="black" paint-order="fill stroke markers" d=" M 328 1159 L 328 1155" stroke-miterlimit="10"/><path fill="none" stroke="black" paint-order="fill stroke markers" d=" M 341 1159 L 341 1155" stroke-miterlimit="10"/><path fill="none" stroke="black" paint-order="fill stroke markers" d=" M 354 1159 L 354 1155" stroke-miterlimit="10"/><path fill="none" stroke="black" paint-order="fill stroke markers" d=" M 367 1159 L 367 1155" stroke-miterlimit="10"/><path fill="none" stroke="black" paint-order="fill stroke markers" d=" M 380 1159 L 380 1155" stroke-miterlimit="10"/><path fill="none" stroke="black" paint-order="fill stroke markers" d=" M 392 1159 L 392 1155" stroke-miterlimit="10"/><path fill="none" stroke="black" paint-order="fill stroke markers" d=" M 405 1159 L 405 1155" stroke-miterlimit="10"/><path fill="none" stroke="black" paint-order="fill stroke markers" d=" M 418 1159 L 418 1155" stroke-miterlimit="10"/><path fill="none" stroke="black" paint-order="fill stroke markers" d=" M 431 1159 L 431 1155" stroke-miterlimit="10"/><path fill="none" stroke="black" paint-order="fill stroke markers" d=" M 444 1159 L 444 1155" stroke-miterlimit="10"/><path fill="none" stroke="black" paint-order="fill stroke markers" d=" M 457 1159 L 457 1155" stroke-miterlimit="10"/><path fill="none" stroke="black" paint-order="fill stroke markers" d=" M 470 1159 L 470 1155" stroke-miterlimit="10"/><path fill="none" stroke="black" paint-order="fill stroke markers" d=" M 482 1159 L 482 1155" stroke-miterlimit="10"/><path fill="none" stroke="black" paint-order="fill stroke markers" d=" M 495 1159 L 495 1155" stroke-miterlimit="10"/><path fill="none" stroke="black" paint-order="fill stroke markers" d=" M 508 1159 L 508 1155" stroke-miterlimit="10"/><path fill="none" stroke="black" paint-order="fill stroke markers" d=" M 521 1159 L 521 1155" stroke-miterlimit="10"/><path fill="none" stroke="black" paint-order="fill stroke markers" d=" M 534 1159 L 534 1155" stroke-miterlimit="10"/><path fill="none" stroke="black" paint-order="fill stroke markers" d=" M 547 1159 L 547 1155" stroke-miterlimit="10"/><path fill="none" stroke="black" paint-order="fill stroke markers" d=" M 560 1159 L 560 1155" stroke-miterlimit="10"/><path fill="none" stroke="black" paint-order="fill stroke markers" d=" M 573 1159 L 573 1155" stroke-miterlimit="10"/><path fill="none" stroke="black" paint-order="fill stroke markers" d=" M 585 1159 L 585 1155" stroke-miterlimit="10"/><path fill="none" stroke="black" paint-order="fill stroke markers" d=" M 598 1159 L 598 1155" stroke-miterlimit="10"/><path fill="none" stroke="black" paint-order="fill stroke markers" d=" M 611 1159 L 611 1155" stroke-miterlimit="10"/><path fill="none" stroke="black" paint-order="fill stroke markers" d=" M 624 1159 L 624 1155" stroke-miterlimit="10"/><path fill="none" stroke="black" paint-order="fill stroke markers" d=" M 637 1159 L 637 1155" stroke-miterlimit="10"/><path fill="" stroke="black" paint-order="fill stroke markers" d=" M 650 1159 L 650 1155" stroke-miterlimit="10"/><g transform="translate(238,1166) rotate(0,0,0)"><text fill="" stroke="none" font-family="helvetica" font-size="8pt" font-style="normal" font-weight="normal" text-decoration="normal" x="0" y="0" text-anchor="middle" dominant-baseline="hanging">0</text><g transform="rotate(0,0,0) translate(-238,-1166) translate(302,1166) rotate(0,0,0)"><text fill="" stroke="none" font-family="helvetica" font-size="8pt" font-style="normal" font-weight="normal" text-decoration="normal" x="0" y="0" text-anchor="middle" dominant-baseline="hanging">1000</text><g transform="rotate(0,0,0) translate(-302,-1166) translate(367,1166) rotate(0,0,0)"><text fill="" stroke="none" font-family="helvetica" font-size="8pt" font-style="normal" font-weight="normal" text-decoration="normal" x="0" y="0" text-anchor="middle" dominant-baseline="hanging">2000</text><g transform="rotate(0,0,0) translate(-367,-1166) translate(431,1166) rotate(0,0,0)"><text fill="" stroke="none" font-family="helvetica" font-size="8pt" font-style="normal" font-weight="normal" text-decoration="normal" x="0" y="0" text-anchor="middle" dominant-baseline="hanging">3000</text><g transform="rotate(0,0,0) translate(-431,-1166) translate(495,1166) rotate(0,0,0)"><text fill="" stroke="none" font-family="helvetica" font-size="8pt" font-style="normal" font-weight="normal" text-decoration="normal" x="0" y="0" text-anchor="middle" dominant-baseline="hanging">4000</text><g transform="rotate(0,0,0) translate(-495,-1166) translate(560,1166) rotate(0,0,0)"><text fill="" stroke="none" font-family="helvetica" font-size="8pt" font-style="normal" font-weight="normal" text-decoration="normal" x="0" y="0" text-anchor="middle" dominant-baseline="hanging">5000</text><g transform="rotate(0,0,0) translate(-560,-1166) translate(624,1166) rotate(0,0,0)"><text fill="" stroke="none" font-family="helvetica" font-size="8pt" font-style="normal" font-weight="normal" text-decoration="normal" x="0" y="0" text-anchor="middle" dominant-baseline="hanging">6000</text><g transform="rotate(0,0,0) translate(-624,-1166) translate(444,1184) rotate(0,0,0)"><text fill="" stroke="none" font-family="helvetica" font-size="10pt" font-style="italic" font-weight="normal" text-decoration="normal" x="0" y="0" text-anchor="middle" dominant-baseline="hanging">Respondents</text><g transform="rotate(0,0,0) translate(-444,-1184)"/></g></g></g></g></g></g></g></g></g><g fill="#444444"><path fill="none" stroke="black" paint-order="fill stroke markers" d=" M 238 1155 L 238 28" stroke-miterlimit="10"/><path fill="none" stroke="black" paint-order="fill stroke markers" d=" M 232 1132 L 240 1132" stroke-miterlimit="10"/><path fill="none" stroke="black" paint-order="fill stroke markers" d=" M 232 1085 L 240 1085" stroke-miterlimit="10"/><path fill="none" stroke="black" paint-order="fill stroke markers" d=" M 232 1038 L 240 1038" stroke-miterlimit="10"/><path fill="none" stroke="black" paint-order="fill stroke markers" d=" M 232 991 L 240 991" stroke-miterlimit="10"/><path fill="none" stroke="black" paint-order="fill stroke markers" d=" M 232 944 L 240 944" stroke-miterlimit="10"/><path fill="none" stroke="black" paint-order="fill stroke markers" d=" M 232 897 L 240 897" stroke-miterlimit="10"/><path fill="none" stroke="black" paint-order="fill stroke markers" d=" M 232 850 L 240 850" stroke-miterlimit="10"/><path fill="none" stroke="black" paint-order="fill stroke markers" d=" M 232 803 L 240 803" stroke-miterlimit="10"/><path fill="none" stroke="black" paint-order="fill stroke markers" d=" M 232 756 L 240 756" stroke-miterlimit="10"/><path fill="none" stroke="black" paint-order="fill stroke markers" d=" M 232 709 L 240 709" stroke-miterlimit="10"/><path fill="none" stroke="black" paint-order="fill stroke markers" d=" M 232 662 L 240 662" stroke-miterlimit="10"/><path fill="none" stroke="black" paint-order="fill stroke markers" d=" M 232 615 L 240 615" stroke-miterlimit="10"/><path fill="none" stroke="black" paint-order="fill stroke markers" d=" M 232 568 L 240 568" stroke-miterlimit="10"/><path fill="none" stroke="black" paint-order="fill stroke markers" d=" M 232 521 L 240 521" stroke-miterlimit="10"/><path fill="none" stroke="black" paint-order="fill stroke markers" d=" M 232 474 L 240 474" stroke-miterlimit="10"/><path fill="none" stroke="black" paint-order="fill stroke markers" d=" M 232 427 L 240 427" stroke-miterlimit="10"/><path fill="none" stroke="black" paint-order="fill stroke markers" d=" M 232 380 L 240 380" stroke-miterlimit="10"/><path fill="none" stroke="black" paint-order="fill stroke markers" d=" M 232 333 L 240 333" stroke-miterlimit="10"/><path fill="none" stroke="black" paint-order="fill stroke markers" d=" M 232 286 L 240 286" stroke-miterlimit="10"/><path fill="none" stroke="black" paint-order="fill stroke markers" d=" M 232 239 L 240 239" stroke-miterlimit="10"/><path fill="none" stroke="black" paint-order="fill stroke markers" d=" M 232 192 L 240 192" stroke-miterlimit="10"/><path fill="none" stroke="black" paint-order="fill stroke markers" d=" M 232 145 L 240 145" stroke-miterlimit="10"/><path fill="none" stroke="black" paint-order="fill stroke markers" d=" M 232 98 L 240 98" stroke-miterlimit="10"/><path fill="" stroke="black" paint-order="fill stroke markers" d=" M 232 51 L 240 51" stroke-miterlimit="10"/><g transform="translate(227,1132) rotate(0,0,0)"><text fill="" stroke="none" font-family="helvetica" font-size="8pt" font-style="normal" font-weight="normal" text-decoration="normal" x="0" y="0" text-anchor="end" dominant-baseline="central">Adaptability to tech and social change</text><g transform="rotate(0,0,0) translate(-227,-1132) translate(227,1085) rotate(0,0,0)"><text fill="" stroke="none" font-family="helvetica" font-size="8pt" font-style="normal" font-weight="normal" text-decoration="normal" x="0" y="0" text-anchor="end" dominant-baseline="central">Communication skills</text><g transform="rotate(0,0,0) translate(-227,-1085) translate(227,1038) rotate(0,0,0)"><text fill="" stroke="none" font-family="helvetica" font-size="8pt" font-style="normal" font-weight="normal" text-decoration="normal" x="0" y="0" text-anchor="end" dominant-baseline="central">Empathy</text><g transform="rotate(0,0,0) translate(-227,-1038) translate(227,991) rotate(0,0,0)"><text fill="" stroke="none" font-family="helvetica" font-size="8pt" font-style="normal" font-weight="normal" text-decoration="normal" x="0" y="0" text-anchor="end" dominant-baseline="central">Asking good questions</text><g transform="rotate(0,0,0) translate(-227,-991) translate(227,944) rotate(0,0,0)"><text fill="" stroke="none" font-family="helvetica" font-size="8pt" font-style="normal" font-weight="normal" text-decoration="normal" x="0" y="0" text-anchor="end" dominant-baseline="central">Cross-functional skills</text><g transform="rotate(0,0,0) translate(-227,-944) translate(227,897) rotate(0,0,0)"><text fill="" stroke="none" font-family="helvetica" font-size="8pt" font-style="normal" font-weight="normal" text-decoration="normal" x="0" y="0" text-anchor="end" dominant-baseline="central">Storytelling</text><g transform="rotate(0,0,0) translate(-227,-897) translate(227,850) rotate(0,0,0)"><text fill="" stroke="none" font-family="helvetica" font-size="8pt" font-style="normal" font-weight="normal" text-decoration="normal" x="0" y="0" text-anchor="end" dominant-baseline="central">Psychology and human behavior</text><g transform="rotate(0,0,0) translate(-227,-850) translate(227,803) rotate(0,0,0)"><text fill="" stroke="none" font-family="helvetica" font-size="8pt" font-style="normal" font-weight="normal" text-decoration="normal" x="0" y="0" text-anchor="end" dominant-baseline="central">Cross-cultural skills</text><g transform="rotate(0,0,0) translate(-227,-803) translate(227,756) rotate(0,0,0)"><text fill="" stroke="none" font-family="helvetica" font-size="8pt" font-style="normal" font-weight="normal" text-decoration="normal" x="0" y="0" text-anchor="end" dominant-baseline="central">Observation and listening</text><g transform="rotate(0,0,0) translate(-227,-756) translate(227,709) rotate(0,0,0)"><text fill="" stroke="none" font-family="helvetica" font-size="8pt" font-style="normal" font-weight="normal" text-decoration="normal" x="0" y="0" text-anchor="end" dominant-baseline="central">Managing complexity</text><g transform="rotate(0,0,0) translate(-227,-709) translate(227,662) rotate(0,0,0)"><text fill="" stroke="none" font-family="helvetica" font-size="8pt" font-style="normal" font-weight="normal" text-decoration="normal" x="0" y="0" text-anchor="end" dominant-baseline="central">Interpersonal skills</text><g transform="rotate(0,0,0) translate(-227,-662) translate(227,615) rotate(0,0,0)"><text fill="" stroke="none" font-family="helvetica" font-size="8pt" font-style="normal" font-weight="normal" text-decoration="normal" x="0" y="0" text-anchor="end" dominant-baseline="central">Leadership</text><g transform="rotate(0,0,0) translate(-227,-615) translate(227,568) rotate(0,0,0)"><text fill="" stroke="none" font-family="helvetica" font-size="8pt" font-style="normal" font-weight="normal" text-decoration="normal" x="0" y="0" text-anchor="end" dominant-baseline="central">Systems thinking</text><g transform="rotate(0,0,0) translate(-227,-568) translate(227,521) rotate(0,0,0)"><text fill="" stroke="none" font-family="helvetica" font-size="8pt" font-style="normal" font-weight="normal" text-decoration="normal" x="0" y="0" text-anchor="end" dominant-baseline="central">Improvisation</text><g transform="rotate(0,0,0) translate(-227,-521) translate(227,474) rotate(0,0,0)"><text fill="" stroke="none" font-family="helvetica" font-size="8pt" font-style="normal" font-weight="normal" text-decoration="normal" x="0" y="0" text-anchor="end" dominant-baseline="central">Play</text><g transform="rotate(0,0,0) translate(-227,-474) translate(227,427) rotate(0,0,0)"><text fill="" stroke="none" font-family="helvetica" font-size="8pt" font-style="normal" font-weight="normal" text-decoration="normal" x="0" y="0" text-anchor="end" dominant-baseline="central">Data analysis</text><g transform="rotate(0,0,0) translate(-227,-427) translate(227,380) rotate(0,0,0)"><text fill="" stroke="none" font-family="helvetica" font-size="8pt" font-style="normal" font-weight="normal" text-decoration="normal" x="0" y="0" text-anchor="end" dominant-baseline="central">DIY or maker mentality</text><g transform="rotate(0,0,0) translate(-227,-380) translate(227,333) rotate(0,0,0)"><text fill="" stroke="none" font-family="helvetica" font-size="8pt" font-style="normal" font-weight="normal" text-decoration="normal" x="0" y="0" text-anchor="end" dominant-baseline="central">Algorithm and data model design</text><g transform="rotate(0,0,0) translate(-227,-333) translate(227,286) rotate(0,0,0)"><text fill="" stroke="none" font-family="helvetica" font-size="8pt" font-style="normal" font-weight="normal" text-decoration="normal" x="0" y="0" text-anchor="end" dominant-baseline="central">Risk tolerance</text><g transform="rotate(0,0,0) translate(-227,-286) translate(227,239) rotate(0,0,0)"><text fill="" stroke="none" font-family="helvetica" font-size="8pt" font-style="normal" font-weight="normal" text-decoration="normal" x="0" y="0" text-anchor="end" dominant-baseline="central">Facilitation</text><g transform="rotate(0,0,0) translate(-227,-239) translate(227,192) rotate(0,0,0)"><text fill="" stroke="none" font-family="helvetica" font-size="8pt" font-style="normal" font-weight="normal" text-decoration="normal" x="0" y="0" text-anchor="end" dominant-baseline="central">Voice interface design</text><g transform="rotate(0,0,0) translate(-227,-192) translate(227,145) rotate(0,0,0)"><text fill="" stroke="none" font-family="helvetica" font-size="8pt" font-style="normal" font-weight="normal" text-decoration="normal" x="0" y="0" text-anchor="end" dominant-baseline="central">Architecture and environmental design</text><g transform="rotate(0,0,0) translate(-227,-145) translate(227,98) rotate(0,0,0)"><text fill="" stroke="none" font-family="helvetica" font-size="8pt" font-style="normal" font-weight="normal" text-decoration="normal" x="0" y="0" text-anchor="end" dominant-baseline="central">Scientific methods</text><g transform="rotate(0,0,0) translate(-227,-98) translate(227,51) rotate(0,0,0)"><text fill="" stroke="none" font-family="helvetica" font-size="8pt" font-style="normal" font-weight="normal" text-decoration="normal" x="0" y="0" text-anchor="end" dominant-baseline="central">None of these</text><g transform="rotate(0,0,0) translate(-227,-51) translate(16,592) rotate(-90,0,0)"><text fill="" stroke="none" font-family="helvetica" font-size="10pt" font-style="italic" font-weight="normal" text-decoration="normal" x="0" y="0" text-anchor="middle" dominant-baseline="alphabetic">Categories</text><g transform="rotate(90,0,0) translate(-16,-592)"/></g></g></g></g></g></g></g></g></g></g></g></g></g></g></g></g></g></g></g></g></g></g></g></g></g></g><g fill="#444444"><path fill="" stroke="none" d=""/><g transform="translate(238,23)"><path fill="none" stroke="none"/><text fill="" stroke="none" font-family="helvetica" font-size="10pt" font-style="normal" font-weight="bold" text-decoration="normal" x="0" y="0" text-anchor="start" dominant-baseline="text-after-edge">NotAIGA: The most valuable design skills for the future will be (answer optional):</text></g></g></g></g></g></svg>