<svg version="1.1" xmlns="http://www.w3.org/2000/svg" xmlns:xlink="http://www.w3.org/1999/xlink" width="700" height="250" style="width: 700px; height: 250px;"><defs/><g><g transform="scale(1,1) translate(0.5,0.5)"><rect fill="#FFFFFF" stroke="none" x="0" y="0" width="700" height="250"/><rect fill="#ffffff" stroke="none" x="0" y="0" width="700" height="250"/><rect fill="#FFFFFF" stroke="none" x="279" y="28" width="371" height="177"/><rect fill="#ffffff" stroke="none" x="279" y="28" width="371" height="177"/><g><rect fill="none" stroke="#e5e5e5" x="279" y="28" width="371" height="177" stroke-miterlimit="10"/></g><g><g><path fill="none" stroke="#e5e5e5" paint-order="fill stroke markers" d=" M 371 205 L 371 28" stroke-miterlimit="10"/><path fill="none" stroke="#e5e5e5" paint-order="fill stroke markers" d=" M 463 205 L 463 28" stroke-miterlimit="10"/><path fill="none" stroke="#e5e5e5" paint-order="fill stroke markers" d=" M 555 205 L 555 28" stroke-miterlimit="10"/><path fill="none" stroke="#e5e5e5" paint-order="fill stroke markers" d=" M 646 205 L 646 28" stroke-miterlimit="10"/></g><g><path fill="none" stroke="#e5e5e5" paint-order="fill stroke markers" d=" M 279 187 L 650 187" stroke-miterlimit="10"/><path fill="none" stroke="#e5e5e5" paint-order="fill stroke markers" d=" M 279 152 L 650 152" stroke-miterlimit="10"/><path fill="none" stroke="#e5e5e5" paint-order="fill stroke markers" d=" M 279 117 L 650 117" stroke-miterlimit="10"/><path fill="none" stroke="#e5e5e5" paint-order="fill stroke markers" d=" M 279 81 L 650 81" stroke-miterlimit="10"/><path fill="none" stroke="#e5e5e5" paint-order="fill stroke markers" d=" M 279 46 L 650 46" stroke-miterlimit="10"/></g><g><path fill="none" stroke="none"/><rect fill="#1f77b4" stroke="none" x="279" y="174.02500000000003" width="304.5741731035848" height="26.549999999999955"/><path fill="none" stroke="#1f77b4" paint-order="fill stroke markers" d=" M 279 174.02500000000003 L 583.5741731035848 174.02500000000003 L 583.5741731035848 200.575 L 279 200.575 L 279 174.02500000000003 Z" stroke-miterlimit="10"/><rect fill="#1f77b4" stroke="none" x="279" y="138.625" width="294.8380867498515" height="26.55000000000001"/><path fill="none" stroke="#1f77b4" paint-order="fill stroke markers" d=" M 279 138.625 L 573.8380867498515 138.625 L 573.8380867498515 165.175 L 279 165.175 L 279 138.625 Z" stroke-miterlimit="10"/><rect fill="#1f77b4" stroke="none" x="279" y="103.225" width="102.04520697167754" height="26.55000000000001"/><path fill="none" stroke="#1f77b4" paint-order="fill stroke markers" d=" M 279 103.225 L 381.04520697167754 103.225 L 381.04520697167754 129.775 L 279 129.775 L 279 103.225 Z" stroke-miterlimit="10"/><rect fill="#1f77b4" stroke="none" x="279" y="67.82500000000002" width="14.328579916815215" height="26.549999999999983"/><path fill="none" stroke="#1f77b4" paint-order="fill stroke markers" d=" M 279 67.82500000000002 L 293.3285799168152 67.82500000000002 L 293.3285799168152 94.375 L 279 94.375 L 279 67.82500000000002 Z" stroke-miterlimit="10"/><rect fill="#1f77b4" stroke="none" x="279" y="32.425000000000026" width="4.133244206773611" height="26.549999999999983"/><path fill="none" stroke="#1f77b4" paint-order="fill stroke markers" d=" M 279 32.425000000000026 L 283.1332442067736 32.425000000000026 L 283.1332442067736 58.97500000000001 L 279 58.97500000000001 L 279 32.425000000000026 Z" stroke-miterlimit="10"/></g><g fill="#444444"><path fill="" stroke="none" d=""/><g transform="translate(593.5741731035848,185.3) rotate(0,0,0)"><path fill="none" stroke="none"/><text fill="" stroke="none" font-family="helvetica" font-size="8pt" font-style="normal" font-weight="normal" text-decoration="normal" x="0" y="0" text-anchor="start" dominant-baseline="text-after-edge">42.30%</text></g></g><g fill="#444444"><path fill="" stroke="none" d=""/><g transform="translate(583.8380867498515,149.9) rotate(0,0,0)"><path fill="none" stroke="none"/><text fill="" stroke="none" font-family="helvetica" font-size="8pt" font-style="normal" font-weight="normal" text-decoration="normal" x="0" y="0" text-anchor="start" dominant-baseline="text-after-edge">40.95%</text></g></g><g fill="#444444"><path fill="" stroke="none" d=""/><g transform="translate(391.04520697167754,114.5) rotate(0,0,0)"><path fill="none" stroke="none"/><text fill="" stroke="none" font-family="helvetica" font-size="8pt" font-style="normal" font-weight="normal" text-decoration="normal" x="0" y="0" text-anchor="start" dominant-baseline="text-after-edge">14.17%</text></g></g><g fill="#444444"><path fill="" stroke="none" d=""/><g transform="translate(303.3285799168152,79.10000000000001) rotate(0,0,0)"><path fill="none" stroke="none"/><text fill="" stroke="none" font-family="helvetica" font-size="8pt" font-style="normal" font-weight="normal" text-decoration="normal" x="0" y="0" text-anchor="start" dominant-baseline="text-after-edge">1.99%</text></g></g><g fill="#444444"><path fill="" stroke="none" d=""/><g transform="translate(293.1332442067736,43.70000000000002) rotate(0,0,0)"><path fill="none" stroke="none"/><text fill="" stroke="none" font-family="helvetica" font-size="8pt" font-style="normal" font-weight="normal" text-decoration="normal" x="0" y="0" text-anchor="start" dominant-baseline="text-after-edge">0.57%</text></g></g><g fill="#444444"><path fill="" stroke="none" d=""/><g transform="translate(593.5741731035848,199.3) rotate(0,0,0)"><path fill="none" stroke="none"/><text fill="" stroke="none" font-family="helvetica" font-size="8pt" font-style="normal" font-weight="normal" text-decoration="normal" x="0" y="0" text-anchor="start" dominant-baseline="text-after-edge">3316</text></g></g><g fill="#444444"><path fill="" stroke="none" d=""/><g transform="translate(583.8380867498515,163.9) rotate(0,0,0)"><path fill="none" stroke="none"/><text fill="" stroke="none" font-family="helvetica" font-size="8pt" font-style="normal" font-weight="normal" text-decoration="normal" x="0" y="0" text-anchor="start" dominant-baseline="text-after-edge">3210</text></g></g><g fill="#444444"><path fill="" stroke="none" d=""/><g transform="translate(391.04520697167754,128.5) rotate(0,0,0)"><path fill="none" stroke="none"/><text fill="" stroke="none" font-family="helvetica" font-size="8pt" font-style="normal" font-weight="normal" text-decoration="normal" x="0" y="0" text-anchor="start" dominant-baseline="text-after-edge">1111</text></g></g><g fill="#444444"><path fill="" stroke="none" d=""/><g transform="translate(303.3285799168152,93.10000000000001) rotate(0,0,0)"><path fill="none" stroke="none"/><text fill="" stroke="none" font-family="helvetica" font-size="8pt" font-style="normal" font-weight="normal" text-decoration="normal" x="0" y="0" text-anchor="start" dominant-baseline="text-after-edge">156</text></g></g><g fill="#444444"><path fill="" stroke="none" d=""/><g transform="translate(293.1332442067736,57.70000000000002) rotate(0,0,0)"><path fill="none" stroke="none"/><text fill="" stroke="none" font-family="helvetica" font-size="8pt" font-style="normal" font-weight="normal" text-decoration="normal" x="0" y="0" text-anchor="start" dominant-baseline="text-after-edge">45</text></g></g></g><g/><g><g fill="#444444"><path fill="none" stroke="black" paint-order="fill stroke markers" d=" M 279 205 L 650 205" stroke-miterlimit="10"/><path fill="none" stroke="black" paint-order="fill stroke markers" d=" M 279 211 L 279 203" stroke-miterlimit="10"/><path fill="none" stroke="black" paint-order="fill stroke markers" d=" M 371 211 L 371 203" stroke-miterlimit="10"/><path fill="none" stroke="black" paint-order="fill stroke markers" d=" M 463 211 L 463 203" stroke-miterlimit="10"/><path fill="none" stroke="black" paint-order="fill stroke markers" d=" M 555 211 L 555 203" stroke-miterlimit="10"/><path fill="none" stroke="black" paint-order="fill stroke markers" d=" M 646 211 L 646 203" stroke-miterlimit="10"/><path fill="none" stroke="black" paint-order="fill stroke markers" d=" M 279 209 L 279 205" stroke-miterlimit="10"/><path fill="none" stroke="black" paint-order="fill stroke markers" d=" M 297 209 L 297 205" stroke-miterlimit="10"/><path fill="none" stroke="black" paint-order="fill stroke markers" d=" M 316 209 L 316 205" stroke-miterlimit="10"/><path fill="none" stroke="black" paint-order="fill stroke markers" d=" M 334 209 L 334 205" stroke-miterlimit="10"/><path fill="none" stroke="black" paint-order="fill stroke markers" d=" M 352 209 L 352 205" stroke-miterlimit="10"/><path fill="none" stroke="black" paint-order="fill stroke markers" d=" M 371 209 L 371 205" stroke-miterlimit="10"/><path fill="none" stroke="black" paint-order="fill stroke markers" d=" M 389 209 L 389 205" stroke-miterlimit="10"/><path fill="none" stroke="black" paint-order="fill stroke markers" d=" M 408 209 L 408 205" stroke-miterlimit="10"/><path fill="none" stroke="black" paint-order="fill stroke markers" d=" M 426 209 L 426 205" stroke-miterlimit="10"/><path fill="none" stroke="black" paint-order="fill stroke markers" d=" M 444 209 L 444 205" stroke-miterlimit="10"/><path fill="none" stroke="black" paint-order="fill stroke markers" d=" M 463 209 L 463 205" stroke-miterlimit="10"/><path fill="none" stroke="black" paint-order="fill stroke markers" d=" M 481 209 L 481 205" stroke-miterlimit="10"/><path fill="none" stroke="black" paint-order="fill stroke markers" d=" M 499 209 L 499 205" stroke-miterlimit="10"/><path fill="none" stroke="black" paint-order="fill stroke markers" d=" M 518 209 L 518 205" stroke-miterlimit="10"/><path fill="none" stroke="black" paint-order="fill stroke markers" d=" M 536 209 L 536 205" stroke-miterlimit="10"/><path fill="none" stroke="black" paint-order="fill stroke markers" d=" M 555 209 L 555 205" stroke-miterlimit="10"/><path fill="none" stroke="black" paint-order="fill stroke markers" d=" M 573 209 L 573 205" stroke-miterlimit="10"/><path fill="none" stroke="black" paint-order="fill stroke markers" d=" M 591 209 L 591 205" stroke-miterlimit="10"/><path fill="none" stroke="black" paint-order="fill stroke markers" d=" M 610 209 L 610 205" stroke-miterlimit="10"/><path fill="none" stroke="black" paint-order="fill stroke markers" d=" M 628 209 L 628 205" stroke-miterlimit="10"/><path fill="" stroke="black" paint-order="fill stroke markers" d=" M 646 209 L 646 205" stroke-miterlimit="10"/><g transform="translate(279,216) rotate(0,0,0)"><text fill="" stroke="none" font-family="helvetica" font-size="8pt" font-style="normal" font-weight="normal" text-decoration="normal" x="0" y="0" text-anchor="middle" dominant-baseline="hanging">0</text><g transform="rotate(0,0,0) translate(-279,-216) translate(371,216) rotate(0,0,0)"><text fill="" stroke="none" font-family="helvetica" font-size="8pt" font-style="normal" font-weight="normal" text-decoration="normal" x="0" y="0" text-anchor="middle" dominant-baseline="hanging">1000</text><g transform="rotate(0,0,0) translate(-371,-216) translate(463,216) rotate(0,0,0)"><text fill="" stroke="none" font-family="helvetica" font-size="8pt" font-style="normal" font-weight="normal" text-decoration="normal" x="0" y="0" text-anchor="middle" dominant-baseline="hanging">2000</text><g transform="rotate(0,0,0) translate(-463,-216) translate(555,216) rotate(0,0,0)"><text fill="" stroke="none" font-family="helvetica" font-size="8pt" font-style="normal" font-weight="normal" text-decoration="normal" x="0" y="0" text-anchor="middle" dominant-baseline="hanging">3000</text><g transform="rotate(0,0,0) translate(-555,-216) translate(646,216) rotate(0,0,0)"><text fill="" stroke="none" font-family="helvetica" font-size="8pt" font-style="normal" font-weight="normal" text-decoration="normal" x="0" y="0" text-anchor="middle" dominant-baseline="hanging">4000</text><g transform="rotate(0,0,0) translate(-646,-216) translate(465,234) rotate(0,0,0)"><text fill="" stroke="none" font-family="helvetica" font-size="10pt" font-style="italic" font-weight="normal" text-decoration="normal" x="0" y="0" text-anchor="middle" dominant-baseline="hanging">Respondents</text><g transform="rotate(0,0,0) translate(-465,-234)"/></g></g></g></g></g></g></g><g fill="#444444"><path fill="none" stroke="black" paint-order="fill stroke markers" d=" M 279 205 L 279 28" stroke-miterlimit="10"/><path fill="none" stroke="black" paint-order="fill stroke markers" d=" M 273 187 L 281 187" stroke-miterlimit="10"/><path fill="none" stroke="black" paint-order="fill stroke markers" d=" M 273 152 L 281 152" stroke-miterlimit="10"/><path fill="none" stroke="black" paint-order="fill stroke markers" d=" M 273 117 L 281 117" stroke-miterlimit="10"/><path fill="none" stroke="black" paint-order="fill stroke markers" d=" M 273 81 L 281 81" stroke-miterlimit="10"/><path fill="" stroke="black" paint-order="fill stroke markers" d=" M 273 46 L 281 46" stroke-miterlimit="10"/><g transform="translate(268,187) rotate(0,0,0)"><text fill="" stroke="none" font-family="helvetica" font-size="8pt" font-style="normal" font-weight="normal" text-decoration="normal" x="0" y="0" text-anchor="end" dominant-baseline="central">Learning some new skills</text><g transform="rotate(0,0,0) translate(-268,-187) translate(268,152) rotate(0,0,0)"><text fill="" stroke="none" font-family="helvetica" font-size="8pt" font-style="normal" font-weight="normal" text-decoration="normal" x="0" y="0" text-anchor="end" dominant-baseline="central">Learning and increasing my skill set every day</text><g transform="rotate(0,0,0) translate(-268,-152) translate(268,117) rotate(0,0,0)"><text fill="" stroke="none" font-family="helvetica" font-size="8pt" font-style="normal" font-weight="normal" text-decoration="normal" x="0" y="0" text-anchor="end" dominant-baseline="central">Learning very little</text><g transform="rotate(0,0,0) translate(-268,-117) translate(268,81) rotate(0,0,0)"><text fill="" stroke="none" font-family="helvetica" font-size="8pt" font-style="normal" font-weight="normal" text-decoration="normal" x="0" y="0" text-anchor="end" dominant-baseline="central">Learning nothing</text><g transform="rotate(0,0,0) translate(-268,-81) translate(268,46) rotate(0,0,0)"><text fill="" stroke="none" font-family="helvetica" font-size="8pt" font-style="normal" font-weight="normal" text-decoration="normal" x="0" y="0" text-anchor="end" dominant-baseline="central">Not sure</text><g transform="rotate(0,0,0) translate(-268,-46) translate(16,117) rotate(-90,0,0)"><text fill="" stroke="none" font-family="helvetica" font-size="10pt" font-style="italic" font-weight="normal" text-decoration="normal" x="0" y="0" text-anchor="middle" dominant-baseline="alphabetic">Categories</text><g transform="rotate(90,0,0) translate(-16,-117)"/></g></g></g></g></g></g></g><g fill="#444444"><path fill="" stroke="none" d=""/><g transform="translate(279,23)"><path fill="none" stroke="none"/><text fill="" stroke="none" font-family="helvetica" font-size="10pt" font-style="normal" font-weight="bold" text-decoration="normal" x="0" y="0" text-anchor="start" dominant-baseline="text-after-edge">NotAIGA: In my current role, I am:</text></g></g></g></g></g></svg>