<svg version="1.1" xmlns="http://www.w3.org/2000/svg" xmlns:xlink="http://www.w3.org/1999/xlink" width="700" height="800" style="width: 700px; height: 800px;"><defs/><g><g transform="scale(1,1) translate(0.5,0.5)"><rect fill="#FFFFFF" stroke="none" x="0" y="0" width="700" height="800"/><rect fill="#ffffff" stroke="none" x="0" y="0" width="700" height="800"/><rect fill="#FFFFFF" stroke="none" x="178" y="28" width="472" height="727"/><rect fill="#ffffff" stroke="none" x="178" y="28" width="472" height="727"/><g><rect fill="none" stroke="#e5e5e5" x="178" y="28" width="472" height="727" stroke-miterlimit="10"/></g><g><g><path fill="none" stroke="#e5e5e5" paint-order="fill stroke markers" d=" M 286 755 L 286 28" stroke-miterlimit="10"/><path fill="none" stroke="#e5e5e5" paint-order="fill stroke markers" d=" M 394 755 L 394 28" stroke-miterlimit="10"/><path fill="none" stroke="#e5e5e5" paint-order="fill stroke markers" d=" M 502 755 L 502 28" stroke-miterlimit="10"/><path fill="none" stroke="#e5e5e5" paint-order="fill stroke markers" d=" M 610 755 L 610 28" stroke-miterlimit="10"/></g><g><path fill="none" stroke="#e5e5e5" paint-order="fill stroke markers" d=" M 178 732 L 650 732" stroke-miterlimit="10"/><path fill="none" stroke="#e5e5e5" paint-order="fill stroke markers" d=" M 178 687 L 650 687" stroke-miterlimit="10"/><path fill="none" stroke="#e5e5e5" paint-order="fill stroke markers" d=" M 178 641 L 650 641" stroke-miterlimit="10"/><path fill="none" stroke="#e5e5e5" paint-order="fill stroke markers" d=" M 178 596 L 650 596" stroke-miterlimit="10"/><path fill="none" stroke="#e5e5e5" paint-order="fill stroke markers" d=" M 178 551 L 650 551" stroke-miterlimit="10"/><path fill="none" stroke="#e5e5e5" paint-order="fill stroke markers" d=" M 178 505 L 650 505" stroke-miterlimit="10"/><path fill="none" stroke="#e5e5e5" paint-order="fill stroke markers" d=" M 178 460 L 650 460" stroke-miterlimit="10"/><path fill="none" stroke="#e5e5e5" paint-order="fill stroke markers" d=" M 178 414 L 650 414" stroke-miterlimit="10"/><path fill="none" stroke="#e5e5e5" paint-order="fill stroke markers" d=" M 178 369 L 650 369" stroke-miterlimit="10"/><path fill="none" stroke="#e5e5e5" paint-order="fill stroke markers" d=" M 178 323 L 650 323" stroke-miterlimit="10"/><path fill="none" stroke="#e5e5e5" paint-order="fill stroke markers" d=" M 178 278 L 650 278" stroke-miterlimit="10"/><path fill="none" stroke="#e5e5e5" paint-order="fill stroke markers" d=" M 178 232 L 650 232" stroke-miterlimit="10"/><path fill="none" stroke="#e5e5e5" paint-order="fill stroke markers" d=" M 178 187 L 650 187" stroke-miterlimit="10"/><path fill="none" stroke="#e5e5e5" paint-order="fill stroke markers" d=" M 178 142 L 650 142" stroke-miterlimit="10"/><path fill="none" stroke="#e5e5e5" paint-order="fill stroke markers" d=" M 178 96 L 650 96" stroke-miterlimit="10"/><path fill="none" stroke="#e5e5e5" paint-order="fill stroke markers" d=" M 178 51 L 650 51" stroke-miterlimit="10"/></g><g><path fill="none" stroke="none"/><rect fill="#1f77b4" stroke="none" x="178" y="715.2421875" width="382.5274725274726" height="34.078125"/><path fill="none" stroke="#1f77b4" paint-order="fill stroke markers" d=" M 178 715.2421875 L 560.5274725274726 715.2421875 L 560.5274725274726 749.3203125 L 178 749.3203125 L 178 715.2421875 Z" stroke-miterlimit="10"/><rect fill="#1f77b4" stroke="none" x="178" y="669.8046875" width="91.41758241758242" height="34.078125"/><path fill="none" stroke="#1f77b4" paint-order="fill stroke markers" d=" M 178 669.8046875 L 269.4175824175824 669.8046875 L 269.4175824175824 703.8828125 L 178 703.8828125 L 178 669.8046875 Z" stroke-miterlimit="10"/><rect fill="#1f77b4" stroke="none" x="178" y="624.3671875" width="75.64102564102564" height="34.078125"/><path fill="none" stroke="#1f77b4" paint-order="fill stroke markers" d=" M 178 624.3671875 L 253.64102564102564 624.3671875 L 253.64102564102564 658.4453125 L 178 658.4453125 L 178 624.3671875 Z" stroke-miterlimit="10"/><rect fill="#1f77b4" stroke="none" x="178" y="578.9296875" width="71.75091575091574" height="34.078125"/><path fill="none" stroke="#1f77b4" paint-order="fill stroke markers" d=" M 178 578.9296875 L 249.75091575091574 578.9296875 L 249.75091575091574 613.0078125 L 178 613.0078125 L 178 578.9296875 Z" stroke-miterlimit="10"/><rect fill="#1f77b4" stroke="none" x="178" y="533.4921875" width="71.31868131868134" height="34.078125"/><path fill="none" stroke="#1f77b4" paint-order="fill stroke markers" d=" M 178 533.4921875 L 249.31868131868134 533.4921875 L 249.31868131868134 567.5703125 L 178 567.5703125 L 178 533.4921875 Z" stroke-miterlimit="10"/><rect fill="#1f77b4" stroke="none" x="178" y="488.0546875" width="62.8901098901099" height="34.078125"/><path fill="none" stroke="#1f77b4" paint-order="fill stroke markers" d=" M 178 488.0546875 L 240.8901098901099 488.0546875 L 240.8901098901099 522.1328125 L 178 522.1328125 L 178 488.0546875 Z" stroke-miterlimit="10"/><rect fill="#1f77b4" stroke="none" x="178" y="442.6171875" width="17.937728937728934" height="34.078125"/><path fill="none" stroke="#1f77b4" paint-order="fill stroke markers" d=" M 178 442.6171875 L 195.93772893772893 442.6171875 L 195.93772893772893 476.6953125 L 178 476.6953125 L 178 442.6171875 Z" stroke-miterlimit="10"/><rect fill="#1f77b4" stroke="none" x="178" y="397.1796875" width="11.454212454212467" height="34.078125"/><path fill="none" stroke="#1f77b4" paint-order="fill stroke markers" d=" M 178 397.1796875 L 189.45421245421247 397.1796875 L 189.45421245421247 431.2578125 L 178 431.2578125 L 178 397.1796875 Z" stroke-miterlimit="10"/><rect fill="#1f77b4" stroke="none" x="178" y="351.7421875" width="9.941391941391942" height="34.078125"/><path fill="none" stroke="#1f77b4" paint-order="fill stroke markers" d=" M 178 351.7421875 L 187.94139194139194 351.7421875 L 187.94139194139194 385.8203125 L 178 385.8203125 L 178 351.7421875 Z" stroke-miterlimit="10"/><rect fill="#1f77b4" stroke="none" x="178" y="306.3046875" width="6.91575091575092" height="34.078125"/><path fill="none" stroke="#1f77b4" paint-order="fill stroke markers" d=" M 178 306.3046875 L 184.91575091575092 306.3046875 L 184.91575091575092 340.3828125 L 178 340.3828125 L 178 306.3046875 Z" stroke-miterlimit="10"/><rect fill="#1f77b4" stroke="none" x="178" y="260.8671875" width="0.216117216117226" height="34.078125"/><path fill="none" stroke="#1f77b4" paint-order="fill stroke markers" d=" M 178 260.8671875 L 178.21611721611723 260.8671875 L 178.21611721611723 294.9453125 L 178 294.9453125 L 178 260.8671875 Z" stroke-miterlimit="10"/><rect fill="#1f77b4" stroke="none" x="178" y="215.4296875" width="0.216117216117226" height="34.078125"/><path fill="none" stroke="#1f77b4" paint-order="fill stroke markers" d=" M 178 215.4296875 L 178.21611721611723 215.4296875 L 178.21611721611723 249.5078125 L 178 249.5078125 L 178 215.4296875 Z" stroke-miterlimit="10"/><rect fill="#1f77b4" stroke="none" x="178" y="169.9921875" width="0.216117216117226" height="34.078125"/><path fill="none" stroke="#1f77b4" paint-order="fill stroke markers" d=" M 178 169.9921875 L 178.21611721611723 169.9921875 L 178.21611721611723 204.0703125 L 178 204.0703125 L 178 169.9921875 Z" stroke-miterlimit="10"/><rect fill="#1f77b4" stroke="none" x="178" y="124.5546875" width="0.216117216117226" height="34.078125"/><path fill="none" stroke="#1f77b4" paint-order="fill stroke markers" d=" M 178 124.5546875 L 178.21611721611723 124.5546875 L 178.21611721611723 158.6328125 L 178 158.6328125 L 178 124.5546875 Z" stroke-miterlimit="10"/><rect fill="#1f77b4" stroke="none" x="178" y="79.1171875" width="0.216117216117226" height="34.078125"/><path fill="none" stroke="#1f77b4" paint-order="fill stroke markers" d=" M 178 79.1171875 L 178.21611721611723 79.1171875 L 178.21611721611723 113.1953125 L 178 113.1953125 L 178 79.1171875 Z" stroke-miterlimit="10"/><rect fill="#1f77b4" stroke="none" x="178" y="33.6796875" width="0.216117216117226" height="34.078125"/><path fill="none" stroke="#1f77b4" paint-order="fill stroke markers" d=" M 178 33.6796875 L 178.21611721611723 33.6796875 L 178.21611721611723 67.7578125 L 178 67.7578125 L 178 33.6796875 Z" stroke-miterlimit="10"/></g><g fill="#444444"><path fill="" stroke="none" d=""/><g transform="translate(570.5274725274726,730.28125) rotate(0,0,0)"><path fill="none" stroke="none"/><text fill="" stroke="none" font-family="helvetica" font-size="8pt" font-style="normal" font-weight="normal" text-decoration="normal" x="0" y="0" text-anchor="start" dominant-baseline="text-after-edge">22.58%</text></g></g><g fill="#444444"><path fill="" stroke="none" d=""/><g transform="translate(279.4175824175824,684.84375) rotate(0,0,0)"><path fill="none" stroke="none"/><text fill="" stroke="none" font-family="helvetica" font-size="8pt" font-style="normal" font-weight="normal" text-decoration="normal" x="0" y="0" text-anchor="start" dominant-baseline="text-after-edge">5.40%</text></g></g><g fill="#444444"><path fill="" stroke="none" d=""/><g transform="translate(263.64102564102564,639.40625) rotate(0,0,0)"><path fill="none" stroke="none"/><text fill="" stroke="none" font-family="helvetica" font-size="8pt" font-style="normal" font-weight="normal" text-decoration="normal" x="0" y="0" text-anchor="start" dominant-baseline="text-after-edge">4.46%</text></g></g><g fill="#444444"><path fill="" stroke="none" d=""/><g transform="translate(259.75091575091574,593.96875) rotate(0,0,0)"><path fill="none" stroke="none"/><text fill="" stroke="none" font-family="helvetica" font-size="8pt" font-style="normal" font-weight="normal" text-decoration="normal" x="0" y="0" text-anchor="start" dominant-baseline="text-after-edge">4.24%</text></g></g><g fill="#444444"><path fill="" stroke="none" d=""/><g transform="translate(259.31868131868134,548.53125) rotate(0,0,0)"><path fill="none" stroke="none"/><text fill="" stroke="none" font-family="helvetica" font-size="8pt" font-style="normal" font-weight="normal" text-decoration="normal" x="0" y="0" text-anchor="start" dominant-baseline="text-after-edge">4.21%</text></g></g><g fill="#444444"><path fill="" stroke="none" d=""/><g transform="translate(250.8901098901099,503.09375) rotate(0,0,0)"><path fill="none" stroke="none"/><text fill="" stroke="none" font-family="helvetica" font-size="8pt" font-style="normal" font-weight="normal" text-decoration="normal" x="0" y="0" text-anchor="start" dominant-baseline="text-after-edge">3.71%</text></g></g><g fill="#444444"><path fill="" stroke="none" d=""/><g transform="translate(205.93772893772893,457.65625) rotate(0,0,0)"><path fill="none" stroke="none"/><text fill="" stroke="none" font-family="helvetica" font-size="8pt" font-style="normal" font-weight="normal" text-decoration="normal" x="0" y="0" text-anchor="start" dominant-baseline="text-after-edge">1.06%</text></g></g><g fill="#444444"><path fill="" stroke="none" d=""/><g transform="translate(199.45421245421247,412.21875) rotate(0,0,0)"><path fill="none" stroke="none"/><text fill="" stroke="none" font-family="helvetica" font-size="8pt" font-style="normal" font-weight="normal" text-decoration="normal" x="0" y="0" text-anchor="start" dominant-baseline="text-after-edge">0.68%</text></g></g><g fill="#444444"><path fill="" stroke="none" d=""/><g transform="translate(197.94139194139194,366.78125) rotate(0,0,0)"><path fill="none" stroke="none"/><text fill="" stroke="none" font-family="helvetica" font-size="8pt" font-style="normal" font-weight="normal" text-decoration="normal" x="0" y="0" text-anchor="start" dominant-baseline="text-after-edge">0.59%</text></g></g><g fill="#444444"><path fill="" stroke="none" d=""/><g transform="translate(194.91575091575092,321.34375) rotate(0,0,0)"><path fill="none" stroke="none"/><text fill="" stroke="none" font-family="helvetica" font-size="8pt" font-style="normal" font-weight="normal" text-decoration="normal" x="0" y="0" text-anchor="start" dominant-baseline="text-after-edge">0.41%</text></g></g><g fill="#444444"><path fill="" stroke="none" d=""/><g transform="translate(188.21611721611723,275.90625) rotate(0,0,0)"><path fill="none" stroke="none"/><text fill="" stroke="none" font-family="helvetica" font-size="8pt" font-style="normal" font-weight="normal" text-decoration="normal" x="0" y="0" text-anchor="start" dominant-baseline="text-after-edge">0.01%</text></g></g><g fill="#444444"><path fill="" stroke="none" d=""/><g transform="translate(188.21611721611723,230.46875) rotate(0,0,0)"><path fill="none" stroke="none"/><text fill="" stroke="none" font-family="helvetica" font-size="8pt" font-style="normal" font-weight="normal" text-decoration="normal" x="0" y="0" text-anchor="start" dominant-baseline="text-after-edge">0.01%</text></g></g><g fill="#444444"><path fill="" stroke="none" d=""/><g transform="translate(188.21611721611723,185.03125) rotate(0,0,0)"><path fill="none" stroke="none"/><text fill="" stroke="none" font-family="helvetica" font-size="8pt" font-style="normal" font-weight="normal" text-decoration="normal" x="0" y="0" text-anchor="start" dominant-baseline="text-after-edge">0.01%</text></g></g><g fill="#444444"><path fill="" stroke="none" d=""/><g transform="translate(188.21611721611723,139.59375) rotate(0,0,0)"><path fill="none" stroke="none"/><text fill="" stroke="none" font-family="helvetica" font-size="8pt" font-style="normal" font-weight="normal" text-decoration="normal" x="0" y="0" text-anchor="start" dominant-baseline="text-after-edge">0.01%</text></g></g><g fill="#444444"><path fill="" stroke="none" d=""/><g transform="translate(188.21611721611723,94.15625) rotate(0,0,0)"><path fill="none" stroke="none"/><text fill="" stroke="none" font-family="helvetica" font-size="8pt" font-style="normal" font-weight="normal" text-decoration="normal" x="0" y="0" text-anchor="start" dominant-baseline="text-after-edge">0.01%</text></g></g><g fill="#444444"><path fill="" stroke="none" d=""/><g transform="translate(188.21611721611723,48.71875) rotate(0,0,0)"><path fill="none" stroke="none"/><text fill="" stroke="none" font-family="helvetica" font-size="8pt" font-style="normal" font-weight="normal" text-decoration="normal" x="0" y="0" text-anchor="start" dominant-baseline="text-after-edge">0.01%</text></g></g><g fill="#444444"><path fill="" stroke="none" d=""/><g transform="translate(570.5274725274726,744.28125) rotate(0,0,0)"><path fill="none" stroke="none"/><text fill="" stroke="none" font-family="helvetica" font-size="8pt" font-style="normal" font-weight="normal" text-decoration="normal" x="0" y="0" text-anchor="start" dominant-baseline="text-after-edge">1770</text></g></g><g fill="#444444"><path fill="" stroke="none" d=""/><g transform="translate(279.4175824175824,698.84375) rotate(0,0,0)"><path fill="none" stroke="none"/><text fill="" stroke="none" font-family="helvetica" font-size="8pt" font-style="normal" font-weight="normal" text-decoration="normal" x="0" y="0" text-anchor="start" dominant-baseline="text-after-edge">423</text></g></g><g fill="#444444"><path fill="" stroke="none" d=""/><g transform="translate(263.64102564102564,653.40625) rotate(0,0,0)"><path fill="none" stroke="none"/><text fill="" stroke="none" font-family="helvetica" font-size="8pt" font-style="normal" font-weight="normal" text-decoration="normal" x="0" y="0" text-anchor="start" dominant-baseline="text-after-edge">350</text></g></g><g fill="#444444"><path fill="" stroke="none" d=""/><g transform="translate(259.75091575091574,607.96875) rotate(0,0,0)"><path fill="none" stroke="none"/><text fill="" stroke="none" font-family="helvetica" font-size="8pt" font-style="normal" font-weight="normal" text-decoration="normal" x="0" y="0" text-anchor="start" dominant-baseline="text-after-edge">332</text></g></g><g fill="#444444"><path fill="" stroke="none" d=""/><g transform="translate(259.31868131868134,562.53125) rotate(0,0,0)"><path fill="none" stroke="none"/><text fill="" stroke="none" font-family="helvetica" font-size="8pt" font-style="normal" font-weight="normal" text-decoration="normal" x="0" y="0" text-anchor="start" dominant-baseline="text-after-edge">330</text></g></g><g fill="#444444"><path fill="" stroke="none" d=""/><g transform="translate(250.8901098901099,517.09375) rotate(0,0,0)"><path fill="none" stroke="none"/><text fill="" stroke="none" font-family="helvetica" font-size="8pt" font-style="normal" font-weight="normal" text-decoration="normal" x="0" y="0" text-anchor="start" dominant-baseline="text-after-edge">291</text></g></g><g fill="#444444"><path fill="" stroke="none" d=""/><g transform="translate(205.93772893772893,471.65625) rotate(0,0,0)"><path fill="none" stroke="none"/><text fill="" stroke="none" font-family="helvetica" font-size="8pt" font-style="normal" font-weight="normal" text-decoration="normal" x="0" y="0" text-anchor="start" dominant-baseline="text-after-edge">83</text></g></g><g fill="#444444"><path fill="" stroke="none" d=""/><g transform="translate(199.45421245421247,426.21875) rotate(0,0,0)"><path fill="none" stroke="none"/><text fill="" stroke="none" font-family="helvetica" font-size="8pt" font-style="normal" font-weight="normal" text-decoration="normal" x="0" y="0" text-anchor="start" dominant-baseline="text-after-edge">53</text></g></g><g fill="#444444"><path fill="" stroke="none" d=""/><g transform="translate(197.94139194139194,380.78125) rotate(0,0,0)"><path fill="none" stroke="none"/><text fill="" stroke="none" font-family="helvetica" font-size="8pt" font-style="normal" font-weight="normal" text-decoration="normal" x="0" y="0" text-anchor="start" dominant-baseline="text-after-edge">46</text></g></g><g fill="#444444"><path fill="" stroke="none" d=""/><g transform="translate(194.91575091575092,335.34375) rotate(0,0,0)"><path fill="none" stroke="none"/><text fill="" stroke="none" font-family="helvetica" font-size="8pt" font-style="normal" font-weight="normal" text-decoration="normal" x="0" y="0" text-anchor="start" dominant-baseline="text-after-edge">32</text></g></g><g fill="#444444"><path fill="" stroke="none" d=""/><g transform="translate(188.21611721611723,289.90625) rotate(0,0,0)"><path fill="none" stroke="none"/><text fill="" stroke="none" font-family="helvetica" font-size="8pt" font-style="normal" font-weight="normal" text-decoration="normal" x="0" y="0" text-anchor="start" dominant-baseline="text-after-edge">1</text></g></g><g fill="#444444"><path fill="" stroke="none" d=""/><g transform="translate(188.21611721611723,244.46875) rotate(0,0,0)"><path fill="none" stroke="none"/><text fill="" stroke="none" font-family="helvetica" font-size="8pt" font-style="normal" font-weight="normal" text-decoration="normal" x="0" y="0" text-anchor="start" dominant-baseline="text-after-edge">1</text></g></g><g fill="#444444"><path fill="" stroke="none" d=""/><g transform="translate(188.21611721611723,199.03125) rotate(0,0,0)"><path fill="none" stroke="none"/><text fill="" stroke="none" font-family="helvetica" font-size="8pt" font-style="normal" font-weight="normal" text-decoration="normal" x="0" y="0" text-anchor="start" dominant-baseline="text-after-edge">1</text></g></g><g fill="#444444"><path fill="" stroke="none" d=""/><g transform="translate(188.21611721611723,153.59375) rotate(0,0,0)"><path fill="none" stroke="none"/><text fill="" stroke="none" font-family="helvetica" font-size="8pt" font-style="normal" font-weight="normal" text-decoration="normal" x="0" y="0" text-anchor="start" dominant-baseline="text-after-edge">1</text></g></g><g fill="#444444"><path fill="" stroke="none" d=""/><g transform="translate(188.21611721611723,108.15625) rotate(0,0,0)"><path fill="none" stroke="none"/><text fill="" stroke="none" font-family="helvetica" font-size="8pt" font-style="normal" font-weight="normal" text-decoration="normal" x="0" y="0" text-anchor="start" dominant-baseline="text-after-edge">1</text></g></g><g fill="#444444"><path fill="" stroke="none" d=""/><g transform="translate(188.21611721611723,62.71875) rotate(0,0,0)"><path fill="none" stroke="none"/><text fill="" stroke="none" font-family="helvetica" font-size="8pt" font-style="normal" font-weight="normal" text-decoration="normal" x="0" y="0" text-anchor="start" dominant-baseline="text-after-edge">1</text></g></g></g><g/><g><g fill="#444444"><path fill="none" stroke="black" paint-order="fill stroke markers" d=" M 178 755 L 650 755" stroke-miterlimit="10"/><path fill="none" stroke="black" paint-order="fill stroke markers" d=" M 178 761 L 178 753" stroke-miterlimit="10"/><path fill="none" stroke="black" paint-order="fill stroke markers" d=" M 286 761 L 286 753" stroke-miterlimit="10"/><path fill="none" stroke="black" paint-order="fill stroke markers" d=" M 394 761 L 394 753" stroke-miterlimit="10"/><path fill="none" stroke="black" paint-order="fill stroke markers" d=" M 502 761 L 502 753" stroke-miterlimit="10"/><path fill="none" stroke="black" paint-order="fill stroke markers" d=" M 610 761 L 610 753" stroke-miterlimit="10"/><path fill="none" stroke="black" paint-order="fill stroke markers" d=" M 178 759 L 178 755" stroke-miterlimit="10"/><path fill="none" stroke="black" paint-order="fill stroke markers" d=" M 200 759 L 200 755" stroke-miterlimit="10"/><path fill="none" stroke="black" paint-order="fill stroke markers" d=" M 221 759 L 221 755" stroke-miterlimit="10"/><path fill="none" stroke="black" paint-order="fill stroke markers" d=" M 243 759 L 243 755" stroke-miterlimit="10"/><path fill="none" stroke="black" paint-order="fill stroke markers" d=" M 264 759 L 264 755" stroke-miterlimit="10"/><path fill="none" stroke="black" paint-order="fill stroke markers" d=" M 286 759 L 286 755" stroke-miterlimit="10"/><path fill="none" stroke="black" paint-order="fill stroke markers" d=" M 308 759 L 308 755" stroke-miterlimit="10"/><path fill="none" stroke="black" paint-order="fill stroke markers" d=" M 329 759 L 329 755" stroke-miterlimit="10"/><path fill="none" stroke="black" paint-order="fill stroke markers" d=" M 351 759 L 351 755" stroke-miterlimit="10"/><path fill="none" stroke="black" paint-order="fill stroke markers" d=" M 373 759 L 373 755" stroke-miterlimit="10"/><path fill="none" stroke="black" paint-order="fill stroke markers" d=" M 394 759 L 394 755" stroke-miterlimit="10"/><path fill="none" stroke="black" paint-order="fill stroke markers" d=" M 416 759 L 416 755" stroke-miterlimit="10"/><path fill="none" stroke="black" paint-order="fill stroke markers" d=" M 437 759 L 437 755" stroke-miterlimit="10"/><path fill="none" stroke="black" paint-order="fill stroke markers" d=" M 459 759 L 459 755" stroke-miterlimit="10"/><path fill="none" stroke="black" paint-order="fill stroke markers" d=" M 481 759 L 481 755" stroke-miterlimit="10"/><path fill="none" stroke="black" paint-order="fill stroke markers" d=" M 502 759 L 502 755" stroke-miterlimit="10"/><path fill="none" stroke="black" paint-order="fill stroke markers" d=" M 524 759 L 524 755" stroke-miterlimit="10"/><path fill="none" stroke="black" paint-order="fill stroke markers" d=" M 545 759 L 545 755" stroke-miterlimit="10"/><path fill="none" stroke="black" paint-order="fill stroke markers" d=" M 567 759 L 567 755" stroke-miterlimit="10"/><path fill="none" stroke="black" paint-order="fill stroke markers" d=" M 589 759 L 589 755" stroke-miterlimit="10"/><path fill="none" stroke="black" paint-order="fill stroke markers" d=" M 610 759 L 610 755" stroke-miterlimit="10"/><path fill="" stroke="black" paint-order="fill stroke markers" d=" M 632 759 L 632 755" stroke-miterlimit="10"/><g transform="translate(178,766) rotate(0,0,0)"><text fill="" stroke="none" font-family="helvetica" font-size="8pt" font-style="normal" font-weight="normal" text-decoration="normal" x="0" y="0" text-anchor="middle" dominant-baseline="hanging">0</text><g transform="rotate(0,0,0) translate(-178,-766) translate(286,766) rotate(0,0,0)"><text fill="" stroke="none" font-family="helvetica" font-size="8pt" font-style="normal" font-weight="normal" text-decoration="normal" x="0" y="0" text-anchor="middle" dominant-baseline="hanging">500</text><g transform="rotate(0,0,0) translate(-286,-766) translate(394,766) rotate(0,0,0)"><text fill="" stroke="none" font-family="helvetica" font-size="8pt" font-style="normal" font-weight="normal" text-decoration="normal" x="0" y="0" text-anchor="middle" dominant-baseline="hanging">1000</text><g transform="rotate(0,0,0) translate(-394,-766) translate(502,766) rotate(0,0,0)"><text fill="" stroke="none" font-family="helvetica" font-size="8pt" font-style="normal" font-weight="normal" text-decoration="normal" x="0" y="0" text-anchor="middle" dominant-baseline="hanging">1500</text><g transform="rotate(0,0,0) translate(-502,-766) translate(610,766) rotate(0,0,0)"><text fill="" stroke="none" font-family="helvetica" font-size="8pt" font-style="normal" font-weight="normal" text-decoration="normal" x="0" y="0" text-anchor="middle" dominant-baseline="hanging">2000</text><g transform="rotate(0,0,0) translate(-610,-766) translate(414,784) rotate(0,0,0)"><text fill="" stroke="none" font-family="helvetica" font-size="10pt" font-style="italic" font-weight="normal" text-decoration="normal" x="0" y="0" text-anchor="middle" dominant-baseline="hanging">Respondents</text><g transform="rotate(0,0,0) translate(-414,-784)"/></g></g></g></g></g></g></g><g fill="#444444"><path fill="none" stroke="black" paint-order="fill stroke markers" d=" M 178 755 L 178 28" stroke-miterlimit="10"/><path fill="none" stroke="black" paint-order="fill stroke markers" d=" M 172 732 L 180 732" stroke-miterlimit="10"/><path fill="none" stroke="black" paint-order="fill stroke markers" d=" M 172 687 L 180 687" stroke-miterlimit="10"/><path fill="none" stroke="black" paint-order="fill stroke markers" d=" M 172 641 L 180 641" stroke-miterlimit="10"/><path fill="none" stroke="black" paint-order="fill stroke markers" d=" M 172 596 L 180 596" stroke-miterlimit="10"/><path fill="none" stroke="black" paint-order="fill stroke markers" d=" M 172 551 L 180 551" stroke-miterlimit="10"/><path fill="none" stroke="black" paint-order="fill stroke markers" d=" M 172 505 L 180 505" stroke-miterlimit="10"/><path fill="none" stroke="black" paint-order="fill stroke markers" d=" M 172 460 L 180 460" stroke-miterlimit="10"/><path fill="none" stroke="black" paint-order="fill stroke markers" d=" M 172 414 L 180 414" stroke-miterlimit="10"/><path fill="none" stroke="black" paint-order="fill stroke markers" d=" M 172 369 L 180 369" stroke-miterlimit="10"/><path fill="none" stroke="black" paint-order="fill stroke markers" d=" M 172 323 L 180 323" stroke-miterlimit="10"/><path fill="none" stroke="black" paint-order="fill stroke markers" d=" M 172 278 L 180 278" stroke-miterlimit="10"/><path fill="none" stroke="black" paint-order="fill stroke markers" d=" M 172 232 L 180 232" stroke-miterlimit="10"/><path fill="none" stroke="black" paint-order="fill stroke markers" d=" M 172 187 L 180 187" stroke-miterlimit="10"/><path fill="none" stroke="black" paint-order="fill stroke markers" d=" M 172 142 L 180 142" stroke-miterlimit="10"/><path fill="none" stroke="black" paint-order="fill stroke markers" d=" M 172 96 L 180 96" stroke-miterlimit="10"/><path fill="" stroke="black" paint-order="fill stroke markers" d=" M 172 51 L 180 51" stroke-miterlimit="10"/><g transform="translate(167,732) rotate(0,0,0)"><text fill="" stroke="none" font-family="helvetica" font-size="8pt" font-style="normal" font-weight="normal" text-decoration="normal" x="0" y="0" text-anchor="end" dominant-baseline="central">Mid-level specialist</text><g transform="rotate(0,0,0) translate(-167,-732) translate(167,687) rotate(0,0,0)"><text fill="" stroke="none" font-family="helvetica" font-size="8pt" font-style="normal" font-weight="normal" text-decoration="normal" x="0" y="0" text-anchor="end" dominant-baseline="central">Junior contributor</text><g transform="rotate(0,0,0) translate(-167,-687) translate(167,641) rotate(0,0,0)"><text fill="" stroke="none" font-family="helvetica" font-size="8pt" font-style="normal" font-weight="normal" text-decoration="normal" x="0" y="0" text-anchor="end" dominant-baseline="central">Senior manager</text><g transform="rotate(0,0,0) translate(-167,-641) translate(167,596) rotate(0,0,0)"><text fill="" stroke="none" font-family="helvetica" font-size="8pt" font-style="normal" font-weight="normal" text-decoration="normal" x="0" y="0" text-anchor="end" dominant-baseline="central">Team Leader</text><g transform="rotate(0,0,0) translate(-167,-596) translate(167,551) rotate(0,0,0)"><text fill="" stroke="none" font-family="helvetica" font-size="8pt" font-style="normal" font-weight="normal" text-decoration="normal" x="0" y="0" text-anchor="end" dominant-baseline="central">Director</text><g transform="rotate(0,0,0) translate(-167,-551) translate(167,505) rotate(0,0,0)"><text fill="" stroke="none" font-family="helvetica" font-size="8pt" font-style="normal" font-weight="normal" text-decoration="normal" x="0" y="0" text-anchor="end" dominant-baseline="central">Other</text><g transform="rotate(0,0,0) translate(-167,-505) translate(167,460) rotate(0,0,0)"><text fill="" stroke="none" font-family="helvetica" font-size="8pt" font-style="normal" font-weight="normal" text-decoration="normal" x="0" y="0" text-anchor="end" dominant-baseline="central">Group Leader</text><g transform="rotate(0,0,0) translate(-167,-460) translate(167,414) rotate(0,0,0)"><text fill="" stroke="none" font-family="helvetica" font-size="8pt" font-style="normal" font-weight="normal" text-decoration="normal" x="0" y="0" text-anchor="end" dominant-baseline="central">Executive</text><g transform="rotate(0,0,0) translate(-167,-414) translate(167,369) rotate(0,0,0)"><text fill="" stroke="none" font-family="helvetica" font-size="8pt" font-style="normal" font-weight="normal" text-decoration="normal" x="0" y="0" text-anchor="end" dominant-baseline="central">Senior Executive</text><g transform="rotate(0,0,0) translate(-167,-369) translate(167,323) rotate(0,0,0)"><text fill="" stroke="none" font-family="helvetica" font-size="8pt" font-style="normal" font-weight="normal" text-decoration="normal" x="0" y="0" text-anchor="end" dominant-baseline="central">Intern</text><g transform="rotate(0,0,0) translate(-167,-323) translate(167,278) rotate(0,0,0)"><text fill="" stroke="none" font-family="helvetica" font-size="8pt" font-style="normal" font-weight="normal" text-decoration="normal" x="0" y="0" text-anchor="end" dominant-baseline="central">Colaborador Junior</text><g transform="rotate(0,0,0) translate(-167,-278) translate(167,232) rotate(0,0,0)"><text fill="" stroke="none" font-family="helvetica" font-size="8pt" font-style="normal" font-weight="normal" text-decoration="normal" x="0" y="0" text-anchor="end" dominant-baseline="central">Especialista de nível médio</text><g transform="rotate(0,0,0) translate(-167,-232) translate(167,187) rotate(0,0,0)"><text fill="" stroke="none" font-family="helvetica" font-size="8pt" font-style="normal" font-weight="normal" text-decoration="normal" x="0" y="0" text-anchor="end" dominant-baseline="central">中级专家</text><g transform="rotate(0,0,0) translate(-167,-187) translate(167,142) rotate(0,0,0)"><text fill="" stroke="none" font-family="helvetica" font-size="8pt" font-style="normal" font-weight="normal" text-decoration="normal" x="0" y="0" text-anchor="end" dominant-baseline="central">Junior collaboratore</text><g transform="rotate(0,0,0) translate(-167,-142) translate(167,96) rotate(0,0,0)"><text fill="" stroke="none" font-family="helvetica" font-size="8pt" font-style="normal" font-weight="normal" text-decoration="normal" x="0" y="0" text-anchor="end" dominant-baseline="central">Ejecutivo</text><g transform="rotate(0,0,0) translate(-167,-96) translate(167,51) rotate(0,0,0)"><text fill="" stroke="none" font-family="helvetica" font-size="8pt" font-style="normal" font-weight="normal" text-decoration="normal" x="0" y="0" text-anchor="end" dominant-baseline="central">初级贡献者</text><g transform="rotate(0,0,0) translate(-167,-51) translate(16,392) rotate(-90,0,0)"><text fill="" stroke="none" font-family="helvetica" font-size="10pt" font-style="italic" font-weight="normal" text-decoration="normal" x="0" y="0" text-anchor="middle" dominant-baseline="alphabetic">Categories</text><g transform="rotate(90,0,0) translate(-16,-392)"/></g></g></g></g></g></g></g></g></g></g></g></g></g></g></g></g></g></g><g fill="#444444"><path fill="" stroke="none" d=""/><g transform="translate(178,23)"><path fill="none" stroke="none"/><text fill="" stroke="none" font-family="helvetica" font-size="10pt" font-style="normal" font-weight="bold" text-decoration="normal" x="0" y="0" text-anchor="start" dominant-baseline="text-after-edge">NotAIGA: My role is:</text></g></g></g></g></g></svg>