<svg version="1.1" xmlns="http://www.w3.org/2000/svg" xmlns:xlink="http://www.w3.org/1999/xlink" width="700" height="900" style="width: 700px; height: 900px;"><defs/><g><g transform="scale(1,1) translate(0.5,0.5)"><rect fill="#FFFFFF" stroke="none" x="0" y="0" width="700" height="900"/><rect fill="#ffffff" stroke="none" x="0" y="0" width="700" height="900"/><rect fill="#FFFFFF" stroke="none" x="176" y="28" width="474" height="827"/><rect fill="#ffffff" stroke="none" x="176" y="28" width="474" height="827"/><g><rect fill="none" stroke="#e5e5e5" x="176" y="28" width="474" height="827" stroke-miterlimit="10"/></g><g><g><path fill="none" stroke="#e5e5e5" paint-order="fill stroke markers" d=" M 241 855 L 241 28" stroke-miterlimit="10"/><path fill="none" stroke="#e5e5e5" paint-order="fill stroke markers" d=" M 306 855 L 306 28" stroke-miterlimit="10"/><path fill="none" stroke="#e5e5e5" paint-order="fill stroke markers" d=" M 371 855 L 371 28" stroke-miterlimit="10"/><path fill="none" stroke="#e5e5e5" paint-order="fill stroke markers" d=" M 436 855 L 436 28" stroke-miterlimit="10"/><path fill="none" stroke="#e5e5e5" paint-order="fill stroke markers" d=" M 501 855 L 501 28" stroke-miterlimit="10"/><path fill="none" stroke="#e5e5e5" paint-order="fill stroke markers" d=" M 566 855 L 566 28" stroke-miterlimit="10"/><path fill="none" stroke="#e5e5e5" paint-order="fill stroke markers" d=" M 631 855 L 631 28" stroke-miterlimit="10"/></g><g><path fill="none" stroke="#e5e5e5" paint-order="fill stroke markers" d=" M 176 832 L 650 832" stroke-miterlimit="10"/><path fill="none" stroke="#e5e5e5" paint-order="fill stroke markers" d=" M 176 786 L 650 786" stroke-miterlimit="10"/><path fill="none" stroke="#e5e5e5" paint-order="fill stroke markers" d=" M 176 740 L 650 740" stroke-miterlimit="10"/><path fill="none" stroke="#e5e5e5" paint-order="fill stroke markers" d=" M 176 694 L 650 694" stroke-miterlimit="10"/><path fill="none" stroke="#e5e5e5" paint-order="fill stroke markers" d=" M 176 648 L 650 648" stroke-miterlimit="10"/><path fill="none" stroke="#e5e5e5" paint-order="fill stroke markers" d=" M 176 602 L 650 602" stroke-miterlimit="10"/><path fill="none" stroke="#e5e5e5" paint-order="fill stroke markers" d=" M 176 556 L 650 556" stroke-miterlimit="10"/><path fill="none" stroke="#e5e5e5" paint-order="fill stroke markers" d=" M 176 510 L 650 510" stroke-miterlimit="10"/><path fill="none" stroke="#e5e5e5" paint-order="fill stroke markers" d=" M 176 464 L 650 464" stroke-miterlimit="10"/><path fill="none" stroke="#e5e5e5" paint-order="fill stroke markers" d=" M 176 419 L 650 419" stroke-miterlimit="10"/><path fill="none" stroke="#e5e5e5" paint-order="fill stroke markers" d=" M 176 373 L 650 373" stroke-miterlimit="10"/><path fill="none" stroke="#e5e5e5" paint-order="fill stroke markers" d=" M 176 327 L 650 327" stroke-miterlimit="10"/><path fill="none" stroke="#e5e5e5" paint-order="fill stroke markers" d=" M 176 281 L 650 281" stroke-miterlimit="10"/><path fill="none" stroke="#e5e5e5" paint-order="fill stroke markers" d=" M 176 235 L 650 235" stroke-miterlimit="10"/><path fill="none" stroke="#e5e5e5" paint-order="fill stroke markers" d=" M 176 189 L 650 189" stroke-miterlimit="10"/><path fill="none" stroke="#e5e5e5" paint-order="fill stroke markers" d=" M 176 143 L 650 143" stroke-miterlimit="10"/><path fill="none" stroke="#e5e5e5" paint-order="fill stroke markers" d=" M 176 97 L 650 97" stroke-miterlimit="10"/><path fill="none" stroke="#e5e5e5" paint-order="fill stroke markers" d=" M 176 51 L 650 51" stroke-miterlimit="10"/></g><g><path fill="none" stroke="none"/><rect fill="#1f77b4" stroke="none" x="176" y="814.7986111111111" width="391.75057584731826" height="34.458333333333485"/><path fill="none" stroke="#1f77b4" paint-order="fill stroke markers" d=" M 176 814.7986111111111 L 567.7505758473183 814.7986111111111 L 567.7505758473183 849.2569444444446 L 176 849.2569444444446 L 176 814.7986111111111 Z" stroke-miterlimit="10"/><rect fill="#1f77b4" stroke="none" x="176" y="768.8541666666667" width="210.30273116156633" height="34.45833333333326"/><path fill="none" stroke="#1f77b4" paint-order="fill stroke markers" d=" M 176 768.8541666666667 L 386.3027311615663 768.8541666666667 L 386.3027311615663 803.3125 L 176 803.3125 L 176 768.8541666666667 Z" stroke-miterlimit="10"/><rect fill="#1f77b4" stroke="none" x="176" y="722.9097222222222" width="193.4707140506746" height="34.458333333333485"/><path fill="none" stroke="#1f77b4" paint-order="fill stroke markers" d=" M 176 722.9097222222222 L 369.4707140506746 722.9097222222222 L 369.4707140506746 757.3680555555557 L 176 757.3680555555557 L 176 722.9097222222222 Z" stroke-miterlimit="10"/><rect fill="#1f77b4" stroke="none" x="176" y="676.9652777777778" width="188.72655478775914" height="34.45833333333326"/><path fill="none" stroke="#1f77b4" paint-order="fill stroke markers" d=" M 176 676.9652777777778 L 364.72655478775914 676.9652777777778 L 364.72655478775914 711.4236111111111 L 176 711.4236111111111 L 176 676.9652777777778 Z" stroke-miterlimit="10"/><rect fill="#1f77b4" stroke="none" x="176" y="631.0208333333333" width="180.60299440605462" height="34.458333333333485"/><path fill="none" stroke="#1f77b4" paint-order="fill stroke markers" d=" M 176 631.0208333333333 L 356.6029944060546 631.0208333333333 L 356.6029944060546 665.4791666666667 L 176 665.4791666666667 L 176 631.0208333333333 Z" stroke-miterlimit="10"/><rect fill="#1f77b4" stroke="none" x="176" y="585.0763888888889" width="170.39980256663375" height="34.45833333333326"/><path fill="none" stroke="#1f77b4" paint-order="fill stroke markers" d=" M 176 585.0763888888889 L 346.39980256663375 585.0763888888889 L 346.39980256663375 619.5347222222222 L 176 619.5347222222222 L 176 585.0763888888889 Z" stroke-miterlimit="10"/><rect fill="#1f77b4" stroke="none" x="176" y="539.1319444444443" width="152.52796972688384" height="34.458333333333485"/><path fill="none" stroke="#1f77b4" paint-order="fill stroke markers" d=" M 176 539.1319444444443 L 328.52796972688384 539.1319444444443 L 328.52796972688384 573.5902777777778 L 176 573.5902777777778 L 176 539.1319444444443 Z" stroke-miterlimit="10"/><rect fill="#1f77b4" stroke="none" x="176" y="493.1875" width="119.57880881869039" height="34.45833333333337"/><path fill="none" stroke="#1f77b4" paint-order="fill stroke markers" d=" M 176 493.1875 L 295.5788088186904 493.1875 L 295.5788088186904 527.6458333333334 L 176 527.6458333333334 L 176 493.1875 Z" stroke-miterlimit="10"/><rect fill="#1f77b4" stroke="none" x="176" y="447.24305555555554" width="110.02550180980586" height="34.45833333333337"/><path fill="none" stroke="#1f77b4" paint-order="fill stroke markers" d=" M 176 447.24305555555554 L 286.02550180980586 447.24305555555554 L 286.02550180980586 481.7013888888889 L 176 481.7013888888889 L 176 447.24305555555554 Z" stroke-miterlimit="10"/><rect fill="#1f77b4" stroke="none" x="176" y="401.2986111111111" width="103.33168805528135" height="34.45833333333337"/><path fill="none" stroke="#1f77b4" paint-order="fill stroke markers" d=" M 176 401.2986111111111 L 279.33168805528135 401.2986111111111 L 279.33168805528135 435.75694444444446 L 176 435.75694444444446 L 176 401.2986111111111 Z" stroke-miterlimit="10"/><rect fill="#1f77b4" stroke="none" x="176" y="355.35416666666674" width="93.06350773280684" height="34.45833333333326"/><path fill="none" stroke="#1f77b4" paint-order="fill stroke markers" d=" M 176 355.35416666666674 L 269.06350773280684 355.35416666666674 L 269.06350773280684 389.8125 L 176 389.8125 L 176 355.35416666666674 Z" stroke-miterlimit="10"/><rect fill="#1f77b4" stroke="none" x="176" y="309.4097222222223" width="91.11385324119777" height="34.45833333333326"/><path fill="none" stroke="#1f77b4" paint-order="fill stroke markers" d=" M 176 309.4097222222223 L 267.1138532411978 309.4097222222223 L 267.1138532411978 343.86805555555554 L 176 343.86805555555554 L 176 309.4097222222223 Z" stroke-miterlimit="10"/><rect fill="#1f77b4" stroke="none" x="176" y="263.4652777777778" width="76.42645607107602" height="34.45833333333326"/><path fill="none" stroke="#1f77b4" paint-order="fill stroke markers" d=" M 176 263.4652777777778 L 252.42645607107602 263.4652777777778 L 252.42645607107602 297.9236111111111 L 176 297.9236111111111 L 176 263.4652777777778 Z" stroke-miterlimit="10"/><rect fill="#1f77b4" stroke="none" x="176" y="217.52083333333331" width="57.51480750246793" height="34.45833333333337"/><path fill="none" stroke="#1f77b4" paint-order="fill stroke markers" d=" M 176 217.52083333333331 L 233.51480750246793 217.52083333333331 L 233.51480750246793 251.97916666666669 L 176 251.97916666666669 L 176 217.52083333333331 Z" stroke-miterlimit="10"/><rect fill="#1f77b4" stroke="none" x="176" y="171.57638888888886" width="29.43978282329715" height="34.45833333333337"/><path fill="none" stroke="#1f77b4" paint-order="fill stroke markers" d=" M 176 171.57638888888886 L 205.43978282329715 171.57638888888886 L 205.43978282329715 206.03472222222223 L 176 206.03472222222223 L 176 171.57638888888886 Z" stroke-miterlimit="10"/><rect fill="#1f77b4" stroke="none" x="176" y="125.6319444444444" width="27.100197433366247" height="34.45833333333337"/><path fill="none" stroke="#1f77b4" paint-order="fill stroke markers" d=" M 176 125.6319444444444 L 203.10019743336625 125.6319444444444 L 203.10019743336625 160.09027777777777 L 176 160.09027777777777 L 176 125.6319444444444 Z" stroke-miterlimit="10"/><rect fill="#1f77b4" stroke="none" x="176" y="79.68750000000006" width="26.90523198420533" height="34.45833333333337"/><path fill="none" stroke="#1f77b4" paint-order="fill stroke markers" d=" M 176 79.68750000000006 L 202.90523198420533 79.68750000000006 L 202.90523198420533 114.14583333333343 L 176 114.14583333333343 L 176 79.68750000000006 Z" stroke-miterlimit="10"/><rect fill="#1f77b4" stroke="none" x="176" y="33.7430555555556" width="9.618295491938142" height="34.45833333333337"/><path fill="none" stroke="#1f77b4" paint-order="fill stroke markers" d=" M 176 33.7430555555556 L 185.61829549193814 33.7430555555556 L 185.61829549193814 68.20138888888897 L 176 68.20138888888897 L 176 33.7430555555556 Z" stroke-miterlimit="10"/></g><g fill="#444444"><path fill="" stroke="none" d=""/><g transform="translate(577.7505758473183,830.0277777777778) rotate(0,0,0)"><path fill="none" stroke="none"/><text fill="" stroke="none" font-family="helvetica" font-size="8pt" font-style="normal" font-weight="normal" text-decoration="normal" x="0" y="0" text-anchor="start" dominant-baseline="text-after-edge">76.90%</text></g></g><g fill="#444444"><path fill="" stroke="none" d=""/><g transform="translate(396.3027311615663,784.0833333333334) rotate(0,0,0)"><path fill="none" stroke="none"/><text fill="" stroke="none" font-family="helvetica" font-size="8pt" font-style="normal" font-weight="normal" text-decoration="normal" x="0" y="0" text-anchor="start" dominant-baseline="text-after-edge">41.28%</text></g></g><g fill="#444444"><path fill="" stroke="none" d=""/><g transform="translate(379.4707140506746,738.1388888888889) rotate(0,0,0)"><path fill="none" stroke="none"/><text fill="" stroke="none" font-family="helvetica" font-size="8pt" font-style="normal" font-weight="normal" text-decoration="normal" x="0" y="0" text-anchor="start" dominant-baseline="text-after-edge">37.98%</text></g></g><g fill="#444444"><path fill="" stroke="none" d=""/><g transform="translate(374.72655478775914,692.1944444444445) rotate(0,0,0)"><path fill="none" stroke="none"/><text fill="" stroke="none" font-family="helvetica" font-size="8pt" font-style="normal" font-weight="normal" text-decoration="normal" x="0" y="0" text-anchor="start" dominant-baseline="text-after-edge">37.05%</text></g></g><g fill="#444444"><path fill="" stroke="none" d=""/><g transform="translate(366.6029944060546,646.25) rotate(0,0,0)"><path fill="none" stroke="none"/><text fill="" stroke="none" font-family="helvetica" font-size="8pt" font-style="normal" font-weight="normal" text-decoration="normal" x="0" y="0" text-anchor="start" dominant-baseline="text-after-edge">35.45%</text></g></g><g fill="#444444"><path fill="" stroke="none" d=""/><g transform="translate(356.39980256663375,600.3055555555555) rotate(0,0,0)"><path fill="none" stroke="none"/><text fill="" stroke="none" font-family="helvetica" font-size="8pt" font-style="normal" font-weight="normal" text-decoration="normal" x="0" y="0" text-anchor="start" dominant-baseline="text-after-edge">33.45%</text></g></g><g fill="#444444"><path fill="" stroke="none" d=""/><g transform="translate(338.52796972688384,554.3611111111111) rotate(0,0,0)"><path fill="none" stroke="none"/><text fill="" stroke="none" font-family="helvetica" font-size="8pt" font-style="normal" font-weight="normal" text-decoration="normal" x="0" y="0" text-anchor="start" dominant-baseline="text-after-edge">29.94%</text></g></g><g fill="#444444"><path fill="" stroke="none" d=""/><g transform="translate(305.5788088186904,508.4166666666667) rotate(0,0,0)"><path fill="none" stroke="none"/><text fill="" stroke="none" font-family="helvetica" font-size="8pt" font-style="normal" font-weight="normal" text-decoration="normal" x="0" y="0" text-anchor="start" dominant-baseline="text-after-edge">23.47%</text></g></g><g fill="#444444"><path fill="" stroke="none" d=""/><g transform="translate(296.02550180980586,462.47222222222223) rotate(0,0,0)"><path fill="none" stroke="none"/><text fill="" stroke="none" font-family="helvetica" font-size="8pt" font-style="normal" font-weight="normal" text-decoration="normal" x="0" y="0" text-anchor="start" dominant-baseline="text-after-edge">21.60%</text></g></g><g fill="#444444"><path fill="" stroke="none" d=""/><g transform="translate(289.33168805528135,416.52777777777777) rotate(0,0,0)"><path fill="none" stroke="none"/><text fill="" stroke="none" font-family="helvetica" font-size="8pt" font-style="normal" font-weight="normal" text-decoration="normal" x="0" y="0" text-anchor="start" dominant-baseline="text-after-edge">20.28%</text></g></g><g fill="#444444"><path fill="" stroke="none" d=""/><g transform="translate(279.06350773280684,370.58333333333337) rotate(0,0,0)"><path fill="none" stroke="none"/><text fill="" stroke="none" font-family="helvetica" font-size="8pt" font-style="normal" font-weight="normal" text-decoration="normal" x="0" y="0" text-anchor="start" dominant-baseline="text-after-edge">18.27%</text></g></g><g fill="#444444"><path fill="" stroke="none" d=""/><g transform="translate(277.1138532411978,324.6388888888889) rotate(0,0,0)"><path fill="none" stroke="none"/><text fill="" stroke="none" font-family="helvetica" font-size="8pt" font-style="normal" font-weight="normal" text-decoration="normal" x="0" y="0" text-anchor="start" dominant-baseline="text-after-edge">17.88%</text></g></g><g fill="#444444"><path fill="" stroke="none" d=""/><g transform="translate(262.426456071076,278.69444444444446) rotate(0,0,0)"><path fill="none" stroke="none"/><text fill="" stroke="none" font-family="helvetica" font-size="8pt" font-style="normal" font-weight="normal" text-decoration="normal" x="0" y="0" text-anchor="start" dominant-baseline="text-after-edge">15.00%</text></g></g><g fill="#444444"><path fill="" stroke="none" d=""/><g transform="translate(243.51480750246793,232.75) rotate(0,0,0)"><path fill="none" stroke="none"/><text fill="" stroke="none" font-family="helvetica" font-size="8pt" font-style="normal" font-weight="normal" text-decoration="normal" x="0" y="0" text-anchor="start" dominant-baseline="text-after-edge">11.29%</text></g></g><g fill="#444444"><path fill="" stroke="none" d=""/><g transform="translate(215.43978282329715,186.80555555555554) rotate(0,0,0)"><path fill="none" stroke="none"/><text fill="" stroke="none" font-family="helvetica" font-size="8pt" font-style="normal" font-weight="normal" text-decoration="normal" x="0" y="0" text-anchor="start" dominant-baseline="text-after-edge">5.78%</text></g></g><g fill="#444444"><path fill="" stroke="none" d=""/><g transform="translate(213.10019743336625,140.8611111111111) rotate(0,0,0)"><path fill="none" stroke="none"/><text fill="" stroke="none" font-family="helvetica" font-size="8pt" font-style="normal" font-weight="normal" text-decoration="normal" x="0" y="0" text-anchor="start" dominant-baseline="text-after-edge">5.32%</text></g></g><g fill="#444444"><path fill="" stroke="none" d=""/><g transform="translate(212.90523198420533,94.91666666666674) rotate(0,0,0)"><path fill="none" stroke="none"/><text fill="" stroke="none" font-family="helvetica" font-size="8pt" font-style="normal" font-weight="normal" text-decoration="normal" x="0" y="0" text-anchor="start" dominant-baseline="text-after-edge">5.28%</text></g></g><g fill="#444444"><path fill="" stroke="none" d=""/><g transform="translate(195.61829549193814,48.972222222222285) rotate(0,0,0)"><path fill="none" stroke="none"/><text fill="" stroke="none" font-family="helvetica" font-size="8pt" font-style="normal" font-weight="normal" text-decoration="normal" x="0" y="0" text-anchor="start" dominant-baseline="text-after-edge">1.89%</text></g></g><g fill="#444444"><path fill="" stroke="none" d=""/><g transform="translate(577.7505758473183,844.0277777777778) rotate(0,0,0)"><path fill="none" stroke="none"/><text fill="" stroke="none" font-family="helvetica" font-size="8pt" font-style="normal" font-weight="normal" text-decoration="normal" x="0" y="0" text-anchor="start" dominant-baseline="text-after-edge">6028</text></g></g><g fill="#444444"><path fill="" stroke="none" d=""/><g transform="translate(396.3027311615663,798.0833333333334) rotate(0,0,0)"><path fill="none" stroke="none"/><text fill="" stroke="none" font-family="helvetica" font-size="8pt" font-style="normal" font-weight="normal" text-decoration="normal" x="0" y="0" text-anchor="start" dominant-baseline="text-after-edge">3236</text></g></g><g fill="#444444"><path fill="" stroke="none" d=""/><g transform="translate(379.4707140506746,752.1388888888889) rotate(0,0,0)"><path fill="none" stroke="none"/><text fill="" stroke="none" font-family="helvetica" font-size="8pt" font-style="normal" font-weight="normal" text-decoration="normal" x="0" y="0" text-anchor="start" dominant-baseline="text-after-edge">2977</text></g></g><g fill="#444444"><path fill="" stroke="none" d=""/><g transform="translate(374.72655478775914,706.1944444444445) rotate(0,0,0)"><path fill="none" stroke="none"/><text fill="" stroke="none" font-family="helvetica" font-size="8pt" font-style="normal" font-weight="normal" text-decoration="normal" x="0" y="0" text-anchor="start" dominant-baseline="text-after-edge">2904</text></g></g><g fill="#444444"><path fill="" stroke="none" d=""/><g transform="translate(366.6029944060546,660.25) rotate(0,0,0)"><path fill="none" stroke="none"/><text fill="" stroke="none" font-family="helvetica" font-size="8pt" font-style="normal" font-weight="normal" text-decoration="normal" x="0" y="0" text-anchor="start" dominant-baseline="text-after-edge">2779</text></g></g><g fill="#444444"><path fill="" stroke="none" d=""/><g transform="translate(356.39980256663375,614.3055555555555) rotate(0,0,0)"><path fill="none" stroke="none"/><text fill="" stroke="none" font-family="helvetica" font-size="8pt" font-style="normal" font-weight="normal" text-decoration="normal" x="0" y="0" text-anchor="start" dominant-baseline="text-after-edge">2622</text></g></g><g fill="#444444"><path fill="" stroke="none" d=""/><g transform="translate(338.52796972688384,568.3611111111111) rotate(0,0,0)"><path fill="none" stroke="none"/><text fill="" stroke="none" font-family="helvetica" font-size="8pt" font-style="normal" font-weight="normal" text-decoration="normal" x="0" y="0" text-anchor="start" dominant-baseline="text-after-edge">2347</text></g></g><g fill="#444444"><path fill="" stroke="none" d=""/><g transform="translate(305.5788088186904,522.4166666666667) rotate(0,0,0)"><path fill="none" stroke="none"/><text fill="" stroke="none" font-family="helvetica" font-size="8pt" font-style="normal" font-weight="normal" text-decoration="normal" x="0" y="0" text-anchor="start" dominant-baseline="text-after-edge">1840</text></g></g><g fill="#444444"><path fill="" stroke="none" d=""/><g transform="translate(296.02550180980586,476.47222222222223) rotate(0,0,0)"><path fill="none" stroke="none"/><text fill="" stroke="none" font-family="helvetica" font-size="8pt" font-style="normal" font-weight="normal" text-decoration="normal" x="0" y="0" text-anchor="start" dominant-baseline="text-after-edge">1693</text></g></g><g fill="#444444"><path fill="" stroke="none" d=""/><g transform="translate(289.33168805528135,430.52777777777777) rotate(0,0,0)"><path fill="none" stroke="none"/><text fill="" stroke="none" font-family="helvetica" font-size="8pt" font-style="normal" font-weight="normal" text-decoration="normal" x="0" y="0" text-anchor="start" dominant-baseline="text-after-edge">1590</text></g></g><g fill="#444444"><path fill="" stroke="none" d=""/><g transform="translate(279.06350773280684,384.58333333333337) rotate(0,0,0)"><path fill="none" stroke="none"/><text fill="" stroke="none" font-family="helvetica" font-size="8pt" font-style="normal" font-weight="normal" text-decoration="normal" x="0" y="0" text-anchor="start" dominant-baseline="text-after-edge">1432</text></g></g><g fill="#444444"><path fill="" stroke="none" d=""/><g transform="translate(277.1138532411978,338.6388888888889) rotate(0,0,0)"><path fill="none" stroke="none"/><text fill="" stroke="none" font-family="helvetica" font-size="8pt" font-style="normal" font-weight="normal" text-decoration="normal" x="0" y="0" text-anchor="start" dominant-baseline="text-after-edge">1402</text></g></g><g fill="#444444"><path fill="" stroke="none" d=""/><g transform="translate(262.426456071076,292.69444444444446) rotate(0,0,0)"><path fill="none" stroke="none"/><text fill="" stroke="none" font-family="helvetica" font-size="8pt" font-style="normal" font-weight="normal" text-decoration="normal" x="0" y="0" text-anchor="start" dominant-baseline="text-after-edge">1176</text></g></g><g fill="#444444"><path fill="" stroke="none" d=""/><g transform="translate(243.51480750246793,246.75) rotate(0,0,0)"><path fill="none" stroke="none"/><text fill="" stroke="none" font-family="helvetica" font-size="8pt" font-style="normal" font-weight="normal" text-decoration="normal" x="0" y="0" text-anchor="start" dominant-baseline="text-after-edge">885</text></g></g><g fill="#444444"><path fill="" stroke="none" d=""/><g transform="translate(215.43978282329715,200.80555555555554) rotate(0,0,0)"><path fill="none" stroke="none"/><text fill="" stroke="none" font-family="helvetica" font-size="8pt" font-style="normal" font-weight="normal" text-decoration="normal" x="0" y="0" text-anchor="start" dominant-baseline="text-after-edge">453</text></g></g><g fill="#444444"><path fill="" stroke="none" d=""/><g transform="translate(213.10019743336625,154.8611111111111) rotate(0,0,0)"><path fill="none" stroke="none"/><text fill="" stroke="none" font-family="helvetica" font-size="8pt" font-style="normal" font-weight="normal" text-decoration="normal" x="0" y="0" text-anchor="start" dominant-baseline="text-after-edge">417</text></g></g><g fill="#444444"><path fill="" stroke="none" d=""/><g transform="translate(212.90523198420533,108.91666666666674) rotate(0,0,0)"><path fill="none" stroke="none"/><text fill="" stroke="none" font-family="helvetica" font-size="8pt" font-style="normal" font-weight="normal" text-decoration="normal" x="0" y="0" text-anchor="start" dominant-baseline="text-after-edge">414</text></g></g><g fill="#444444"><path fill="" stroke="none" d=""/><g transform="translate(195.61829549193814,62.972222222222285) rotate(0,0,0)"><path fill="none" stroke="none"/><text fill="" stroke="none" font-family="helvetica" font-size="8pt" font-style="normal" font-weight="normal" text-decoration="normal" x="0" y="0" text-anchor="start" dominant-baseline="text-after-edge">148</text></g></g></g><g/><g><g fill="#444444"><path fill="none" stroke="black" paint-order="fill stroke markers" d=" M 176 855 L 650 855" stroke-miterlimit="10"/><path fill="none" stroke="black" paint-order="fill stroke markers" d=" M 176 861 L 176 853" stroke-miterlimit="10"/><path fill="none" stroke="black" paint-order="fill stroke markers" d=" M 241 861 L 241 853" stroke-miterlimit="10"/><path fill="none" stroke="black" paint-order="fill stroke markers" d=" M 306 861 L 306 853" stroke-miterlimit="10"/><path fill="none" stroke="black" paint-order="fill stroke markers" d=" M 371 861 L 371 853" stroke-miterlimit="10"/><path fill="none" stroke="black" paint-order="fill stroke markers" d=" M 436 861 L 436 853" stroke-miterlimit="10"/><path fill="none" stroke="black" paint-order="fill stroke markers" d=" M 501 861 L 501 853" stroke-miterlimit="10"/><path fill="none" stroke="black" paint-order="fill stroke markers" d=" M 566 861 L 566 853" stroke-miterlimit="10"/><path fill="none" stroke="black" paint-order="fill stroke markers" d=" M 631 861 L 631 853" stroke-miterlimit="10"/><path fill="none" stroke="black" paint-order="fill stroke markers" d=" M 176 859 L 176 855" stroke-miterlimit="10"/><path fill="none" stroke="black" paint-order="fill stroke markers" d=" M 189 859 L 189 855" stroke-miterlimit="10"/><path fill="none" stroke="black" paint-order="fill stroke markers" d=" M 202 859 L 202 855" stroke-miterlimit="10"/><path fill="none" stroke="black" paint-order="fill stroke markers" d=" M 215 859 L 215 855" stroke-miterlimit="10"/><path fill="none" stroke="black" paint-order="fill stroke markers" d=" M 228 859 L 228 855" stroke-miterlimit="10"/><path fill="none" stroke="black" paint-order="fill stroke markers" d=" M 241 859 L 241 855" stroke-miterlimit="10"/><path fill="none" stroke="black" paint-order="fill stroke markers" d=" M 254 859 L 254 855" stroke-miterlimit="10"/><path fill="none" stroke="black" paint-order="fill stroke markers" d=" M 267 859 L 267 855" stroke-miterlimit="10"/><path fill="none" stroke="black" paint-order="fill stroke markers" d=" M 280 859 L 280 855" stroke-miterlimit="10"/><path fill="none" stroke="black" paint-order="fill stroke markers" d=" M 293 859 L 293 855" stroke-miterlimit="10"/><path fill="none" stroke="black" paint-order="fill stroke markers" d=" M 306 859 L 306 855" stroke-miterlimit="10"/><path fill="none" stroke="black" paint-order="fill stroke markers" d=" M 319 859 L 319 855" stroke-miterlimit="10"/><path fill="none" stroke="black" paint-order="fill stroke markers" d=" M 332 859 L 332 855" stroke-miterlimit="10"/><path fill="none" stroke="black" paint-order="fill stroke markers" d=" M 345 859 L 345 855" stroke-miterlimit="10"/><path fill="none" stroke="black" paint-order="fill stroke markers" d=" M 358 859 L 358 855" stroke-miterlimit="10"/><path fill="none" stroke="black" paint-order="fill stroke markers" d=" M 371 859 L 371 855" stroke-miterlimit="10"/><path fill="none" stroke="black" paint-order="fill stroke markers" d=" M 384 859 L 384 855" stroke-miterlimit="10"/><path fill="none" stroke="black" paint-order="fill stroke markers" d=" M 397 859 L 397 855" stroke-miterlimit="10"/><path fill="none" stroke="black" paint-order="fill stroke markers" d=" M 410 859 L 410 855" stroke-miterlimit="10"/><path fill="none" stroke="black" paint-order="fill stroke markers" d=" M 423 859 L 423 855" stroke-miterlimit="10"/><path fill="none" stroke="black" paint-order="fill stroke markers" d=" M 436 859 L 436 855" stroke-miterlimit="10"/><path fill="none" stroke="black" paint-order="fill stroke markers" d=" M 449 859 L 449 855" stroke-miterlimit="10"/><path fill="none" stroke="black" paint-order="fill stroke markers" d=" M 462 859 L 462 855" stroke-miterlimit="10"/><path fill="none" stroke="black" paint-order="fill stroke markers" d=" M 475 859 L 475 855" stroke-miterlimit="10"/><path fill="none" stroke="black" paint-order="fill stroke markers" d=" M 488 859 L 488 855" stroke-miterlimit="10"/><path fill="none" stroke="black" paint-order="fill stroke markers" d=" M 501 859 L 501 855" stroke-miterlimit="10"/><path fill="none" stroke="black" paint-order="fill stroke markers" d=" M 514 859 L 514 855" stroke-miterlimit="10"/><path fill="none" stroke="black" paint-order="fill stroke markers" d=" M 527 859 L 527 855" stroke-miterlimit="10"/><path fill="none" stroke="black" paint-order="fill stroke markers" d=" M 540 859 L 540 855" stroke-miterlimit="10"/><path fill="none" stroke="black" paint-order="fill stroke markers" d=" M 553 859 L 553 855" stroke-miterlimit="10"/><path fill="none" stroke="black" paint-order="fill stroke markers" d=" M 566 859 L 566 855" stroke-miterlimit="10"/><path fill="none" stroke="black" paint-order="fill stroke markers" d=" M 579 859 L 579 855" stroke-miterlimit="10"/><path fill="none" stroke="black" paint-order="fill stroke markers" d=" M 592 859 L 592 855" stroke-miterlimit="10"/><path fill="none" stroke="black" paint-order="fill stroke markers" d=" M 605 859 L 605 855" stroke-miterlimit="10"/><path fill="none" stroke="black" paint-order="fill stroke markers" d=" M 618 859 L 618 855" stroke-miterlimit="10"/><path fill="none" stroke="black" paint-order="fill stroke markers" d=" M 631 859 L 631 855" stroke-miterlimit="10"/><path fill="" stroke="black" paint-order="fill stroke markers" d=" M 644 859 L 644 855" stroke-miterlimit="10"/><g transform="translate(176,866) rotate(0,0,0)"><text fill="" stroke="none" font-family="helvetica" font-size="8pt" font-style="normal" font-weight="normal" text-decoration="normal" x="0" y="0" text-anchor="middle" dominant-baseline="hanging">0</text><g transform="rotate(0,0,0) translate(-176,-866) translate(241,866) rotate(0,0,0)"><text fill="" stroke="none" font-family="helvetica" font-size="8pt" font-style="normal" font-weight="normal" text-decoration="normal" x="0" y="0" text-anchor="middle" dominant-baseline="hanging">1000</text><g transform="rotate(0,0,0) translate(-241,-866) translate(306,866) rotate(0,0,0)"><text fill="" stroke="none" font-family="helvetica" font-size="8pt" font-style="normal" font-weight="normal" text-decoration="normal" x="0" y="0" text-anchor="middle" dominant-baseline="hanging">2000</text><g transform="rotate(0,0,0) translate(-306,-866) translate(371,866) rotate(0,0,0)"><text fill="" stroke="none" font-family="helvetica" font-size="8pt" font-style="normal" font-weight="normal" text-decoration="normal" x="0" y="0" text-anchor="middle" dominant-baseline="hanging">3000</text><g transform="rotate(0,0,0) translate(-371,-866) translate(436,866) rotate(0,0,0)"><text fill="" stroke="none" font-family="helvetica" font-size="8pt" font-style="normal" font-weight="normal" text-decoration="normal" x="0" y="0" text-anchor="middle" dominant-baseline="hanging">4000</text><g transform="rotate(0,0,0) translate(-436,-866) translate(501,866) rotate(0,0,0)"><text fill="" stroke="none" font-family="helvetica" font-size="8pt" font-style="normal" font-weight="normal" text-decoration="normal" x="0" y="0" text-anchor="middle" dominant-baseline="hanging">5000</text><g transform="rotate(0,0,0) translate(-501,-866) translate(566,866) rotate(0,0,0)"><text fill="" stroke="none" font-family="helvetica" font-size="8pt" font-style="normal" font-weight="normal" text-decoration="normal" x="0" y="0" text-anchor="middle" dominant-baseline="hanging">6000</text><g transform="rotate(0,0,0) translate(-566,-866) translate(631,866) rotate(0,0,0)"><text fill="" stroke="none" font-family="helvetica" font-size="8pt" font-style="normal" font-weight="normal" text-decoration="normal" x="0" y="0" text-anchor="middle" dominant-baseline="hanging">7000</text><g transform="rotate(0,0,0) translate(-631,-866) translate(413,884) rotate(0,0,0)"><text fill="" stroke="none" font-family="helvetica" font-size="10pt" font-style="italic" font-weight="normal" text-decoration="normal" x="0" y="0" text-anchor="middle" dominant-baseline="hanging">Respondents</text><g transform="rotate(0,0,0) translate(-413,-884)"/></g></g></g></g></g></g></g></g></g></g><g fill="#444444"><path fill="none" stroke="black" paint-order="fill stroke markers" d=" M 176 855 L 176 28" stroke-miterlimit="10"/><path fill="none" stroke="black" paint-order="fill stroke markers" d=" M 170 832 L 178 832" stroke-miterlimit="10"/><path fill="none" stroke="black" paint-order="fill stroke markers" d=" M 170 786 L 178 786" stroke-miterlimit="10"/><path fill="none" stroke="black" paint-order="fill stroke markers" d=" M 170 740 L 178 740" stroke-miterlimit="10"/><path fill="none" stroke="black" paint-order="fill stroke markers" d=" M 170 694 L 178 694" stroke-miterlimit="10"/><path fill="none" stroke="black" paint-order="fill stroke markers" d=" M 170 648 L 178 648" stroke-miterlimit="10"/><path fill="none" stroke="black" paint-order="fill stroke markers" d=" M 170 602 L 178 602" stroke-miterlimit="10"/><path fill="none" stroke="black" paint-order="fill stroke markers" d=" M 170 556 L 178 556" stroke-miterlimit="10"/><path fill="none" stroke="black" paint-order="fill stroke markers" d=" M 170 510 L 178 510" stroke-miterlimit="10"/><path fill="none" stroke="black" paint-order="fill stroke markers" d=" M 170 464 L 178 464" stroke-miterlimit="10"/><path fill="none" stroke="black" paint-order="fill stroke markers" d=" M 170 419 L 178 419" stroke-miterlimit="10"/><path fill="none" stroke="black" paint-order="fill stroke markers" d=" M 170 373 L 178 373" stroke-miterlimit="10"/><path fill="none" stroke="black" paint-order="fill stroke markers" d=" M 170 327 L 178 327" stroke-miterlimit="10"/><path fill="none" stroke="black" paint-order="fill stroke markers" d=" M 170 281 L 178 281" stroke-miterlimit="10"/><path fill="none" stroke="black" paint-order="fill stroke markers" d=" M 170 235 L 178 235" stroke-miterlimit="10"/><path fill="none" stroke="black" paint-order="fill stroke markers" d=" M 170 189 L 178 189" stroke-miterlimit="10"/><path fill="none" stroke="black" paint-order="fill stroke markers" d=" M 170 143 L 178 143" stroke-miterlimit="10"/><path fill="none" stroke="black" paint-order="fill stroke markers" d=" M 170 97 L 178 97" stroke-miterlimit="10"/><path fill="" stroke="black" paint-order="fill stroke markers" d=" M 170 51 L 178 51" stroke-miterlimit="10"/><g transform="translate(165,832) rotate(0,0,0)"><text fill="" stroke="none" font-family="helvetica" font-size="8pt" font-style="normal" font-weight="normal" text-decoration="normal" x="0" y="0" text-anchor="end" dominant-baseline="central">Brainstorming and Ideation</text><g transform="rotate(0,0,0) translate(-165,-832) translate(165,786) rotate(0,0,0)"><text fill="" stroke="none" font-family="helvetica" font-size="8pt" font-style="normal" font-weight="normal" text-decoration="normal" x="0" y="0" text-anchor="end" dominant-baseline="central">Project Management</text><g transform="rotate(0,0,0) translate(-165,-786) translate(165,740) rotate(0,0,0)"><text fill="" stroke="none" font-family="helvetica" font-size="8pt" font-style="normal" font-weight="normal" text-decoration="normal" x="0" y="0" text-anchor="end" dominant-baseline="central">Drawing or Painting</text><g transform="rotate(0,0,0) translate(-165,-740) translate(165,694) rotate(0,0,0)"><text fill="" stroke="none" font-family="helvetica" font-size="8pt" font-style="normal" font-weight="normal" text-decoration="normal" x="0" y="0" text-anchor="end" dominant-baseline="central">Leadership</text><g transform="rotate(0,0,0) translate(-165,-694) translate(165,648) rotate(0,0,0)"><text fill="" stroke="none" font-family="helvetica" font-size="8pt" font-style="normal" font-weight="normal" text-decoration="normal" x="0" y="0" text-anchor="end" dominant-baseline="central">Writing</text><g transform="rotate(0,0,0) translate(-165,-648) translate(165,602) rotate(0,0,0)"><text fill="" stroke="none" font-family="helvetica" font-size="8pt" font-style="normal" font-weight="normal" text-decoration="normal" x="0" y="0" text-anchor="end" dominant-baseline="central">Mentoring</text><g transform="rotate(0,0,0) translate(-165,-602) translate(165,556) rotate(0,0,0)"><text fill="" stroke="none" font-family="helvetica" font-size="8pt" font-style="normal" font-weight="normal" text-decoration="normal" x="0" y="0" text-anchor="end" dominant-baseline="central">Social Media</text><g transform="rotate(0,0,0) translate(-165,-556) translate(165,510) rotate(0,0,0)"><text fill="" stroke="none" font-family="helvetica" font-size="8pt" font-style="normal" font-weight="normal" text-decoration="normal" x="0" y="0" text-anchor="end" dominant-baseline="central">Business</text><g transform="rotate(0,0,0) translate(-165,-510) translate(165,464) rotate(0,0,0)"><text fill="" stroke="none" font-family="helvetica" font-size="8pt" font-style="normal" font-weight="normal" text-decoration="normal" x="0" y="0" text-anchor="end" dominant-baseline="central">Coding</text><g transform="rotate(0,0,0) translate(-165,-464) translate(165,419) rotate(0,0,0)"><text fill="" stroke="none" font-family="helvetica" font-size="8pt" font-style="normal" font-weight="normal" text-decoration="normal" x="0" y="0" text-anchor="end" dominant-baseline="central">Public Speaking</text><g transform="rotate(0,0,0) translate(-165,-419) translate(165,373) rotate(0,0,0)"><text fill="" stroke="none" font-family="helvetica" font-size="8pt" font-style="normal" font-weight="normal" text-decoration="normal" x="0" y="0" text-anchor="end" dominant-baseline="central">Diversity and Inclusion</text><g transform="rotate(0,0,0) translate(-165,-373) translate(165,327) rotate(0,0,0)"><text fill="" stroke="none" font-family="helvetica" font-size="8pt" font-style="normal" font-weight="normal" text-decoration="normal" x="0" y="0" text-anchor="end" dominant-baseline="central">Facilitation</text><g transform="rotate(0,0,0) translate(-165,-327) translate(165,281) rotate(0,0,0)"><text fill="" stroke="none" font-family="helvetica" font-size="8pt" font-style="normal" font-weight="normal" text-decoration="normal" x="0" y="0" text-anchor="end" dominant-baseline="central">Relationship Management</text><g transform="rotate(0,0,0) translate(-165,-281) translate(165,235) rotate(0,0,0)"><text fill="" stroke="none" font-family="helvetica" font-size="8pt" font-style="normal" font-weight="normal" text-decoration="normal" x="0" y="0" text-anchor="end" dominant-baseline="central">Data Analysis</text><g transform="rotate(0,0,0) translate(-165,-235) translate(165,189) rotate(0,0,0)"><text fill="" stroke="none" font-family="helvetica" font-size="8pt" font-style="normal" font-weight="normal" text-decoration="normal" x="0" y="0" text-anchor="end" dominant-baseline="central">SEO/SEM</text><g transform="rotate(0,0,0) translate(-165,-189) translate(165,143) rotate(0,0,0)"><text fill="" stroke="none" font-family="helvetica" font-size="8pt" font-style="normal" font-weight="normal" text-decoration="normal" x="0" y="0" text-anchor="end" dominant-baseline="central">Engineering</text><g transform="rotate(0,0,0) translate(-165,-143) translate(165,97) rotate(0,0,0)"><text fill="" stroke="none" font-family="helvetica" font-size="8pt" font-style="normal" font-weight="normal" text-decoration="normal" x="0" y="0" text-anchor="end" dominant-baseline="central">Sales</text><g transform="rotate(0,0,0) translate(-165,-97) translate(165,51) rotate(0,0,0)"><text fill="" stroke="none" font-family="helvetica" font-size="8pt" font-style="normal" font-weight="normal" text-decoration="normal" x="0" y="0" text-anchor="end" dominant-baseline="central">None of these</text><g transform="rotate(0,0,0) translate(-165,-51) translate(16,442) rotate(-90,0,0)"><text fill="" stroke="none" font-family="helvetica" font-size="10pt" font-style="italic" font-weight="normal" text-decoration="normal" x="0" y="0" text-anchor="middle" dominant-baseline="alphabetic">Categories</text><g transform="rotate(90,0,0) translate(-16,-442)"/></g></g></g></g></g></g></g></g></g></g></g></g></g></g></g></g></g></g></g></g><g fill="#444444"><path fill="" stroke="none" d=""/><g transform="translate(176,23)"><path fill="none" stroke="none"/><text fill="" stroke="none" font-family="helvetica" font-size="10pt" font-style="normal" font-weight="bold" text-decoration="normal" x="0" y="0" text-anchor="start" dominant-baseline="text-after-edge">NotAIGA: I'm also good at:</text></g></g></g></g></g></svg>