<svg version="1.1" xmlns="http://www.w3.org/2000/svg" xmlns:xlink="http://www.w3.org/1999/xlink" width="700" height="900" style="width: 700px; height: 900px;"><defs/><g><g transform="scale(1,1) translate(0.5,0.5)"><rect fill="#FFFFFF" stroke="none" x="0" y="0" width="700" height="900"/><rect fill="#ffffff" stroke="none" x="0" y="0" width="700" height="900"/><rect fill="#FFFFFF" stroke="none" x="176" y="28" width="474" height="827"/><rect fill="#ffffff" stroke="none" x="176" y="28" width="474" height="827"/><g><rect fill="none" stroke="#e5e5e5" x="176" y="28" width="474" height="827" stroke-miterlimit="10"/></g><g><g><path fill="none" stroke="#e5e5e5" paint-order="fill stroke markers" d=" M 282 855 L 282 28" stroke-miterlimit="10"/><path fill="none" stroke="#e5e5e5" paint-order="fill stroke markers" d=" M 388 855 L 388 28" stroke-miterlimit="10"/><path fill="none" stroke="#e5e5e5" paint-order="fill stroke markers" d=" M 494 855 L 494 28" stroke-miterlimit="10"/><path fill="none" stroke="#e5e5e5" paint-order="fill stroke markers" d=" M 599 855 L 599 28" stroke-miterlimit="10"/></g><g><path fill="none" stroke="#e5e5e5" paint-order="fill stroke markers" d=" M 176 832 L 650 832" stroke-miterlimit="10"/><path fill="none" stroke="#e5e5e5" paint-order="fill stroke markers" d=" M 176 786 L 650 786" stroke-miterlimit="10"/><path fill="none" stroke="#e5e5e5" paint-order="fill stroke markers" d=" M 176 740 L 650 740" stroke-miterlimit="10"/><path fill="none" stroke="#e5e5e5" paint-order="fill stroke markers" d=" M 176 694 L 650 694" stroke-miterlimit="10"/><path fill="none" stroke="#e5e5e5" paint-order="fill stroke markers" d=" M 176 648 L 650 648" stroke-miterlimit="10"/><path fill="none" stroke="#e5e5e5" paint-order="fill stroke markers" d=" M 176 602 L 650 602" stroke-miterlimit="10"/><path fill="none" stroke="#e5e5e5" paint-order="fill stroke markers" d=" M 176 556 L 650 556" stroke-miterlimit="10"/><path fill="none" stroke="#e5e5e5" paint-order="fill stroke markers" d=" M 176 510 L 650 510" stroke-miterlimit="10"/><path fill="none" stroke="#e5e5e5" paint-order="fill stroke markers" d=" M 176 464 L 650 464" stroke-miterlimit="10"/><path fill="none" stroke="#e5e5e5" paint-order="fill stroke markers" d=" M 176 419 L 650 419" stroke-miterlimit="10"/><path fill="none" stroke="#e5e5e5" paint-order="fill stroke markers" d=" M 176 373 L 650 373" stroke-miterlimit="10"/><path fill="none" stroke="#e5e5e5" paint-order="fill stroke markers" d=" M 176 327 L 650 327" stroke-miterlimit="10"/><path fill="none" stroke="#e5e5e5" paint-order="fill stroke markers" d=" M 176 281 L 650 281" stroke-miterlimit="10"/><path fill="none" stroke="#e5e5e5" paint-order="fill stroke markers" d=" M 176 235 L 650 235" stroke-miterlimit="10"/><path fill="none" stroke="#e5e5e5" paint-order="fill stroke markers" d=" M 176 189 L 650 189" stroke-miterlimit="10"/><path fill="none" stroke="#e5e5e5" paint-order="fill stroke markers" d=" M 176 143 L 650 143" stroke-miterlimit="10"/><path fill="none" stroke="#e5e5e5" paint-order="fill stroke markers" d=" M 176 97 L 650 97" stroke-miterlimit="10"/><path fill="none" stroke="#e5e5e5" paint-order="fill stroke markers" d=" M 176 51 L 650 51" stroke-miterlimit="10"/></g><g><path fill="none" stroke="none"/><rect fill="#1f77b4" stroke="none" x="176" y="814.7986111111111" width="389.70793140407295" height="34.458333333333485"/><path fill="none" stroke="#1f77b4" paint-order="fill stroke markers" d=" M 176 814.7986111111111 L 565.707931404073 814.7986111111111 L 565.707931404073 849.2569444444446 L 176 849.2569444444446 L 176 814.7986111111111 Z" stroke-miterlimit="10"/><rect fill="#1f77b4" stroke="none" x="176" y="768.8541666666667" width="233.38022508038586" height="34.45833333333326"/><path fill="none" stroke="#1f77b4" paint-order="fill stroke markers" d=" M 176 768.8541666666667 L 409.38022508038586 768.8541666666667 L 409.38022508038586 803.3125 L 176 803.3125 L 176 768.8541666666667 Z" stroke-miterlimit="10"/><rect fill="#1f77b4" stroke="none" x="176" y="722.9097222222222" width="217.60986066452307" height="34.458333333333485"/><path fill="none" stroke="#1f77b4" paint-order="fill stroke markers" d=" M 176 722.9097222222222 L 393.60986066452307 722.9097222222222 L 393.60986066452307 757.3680555555557 L 176 757.3680555555557 L 176 722.9097222222222 Z" stroke-miterlimit="10"/><rect fill="#1f77b4" stroke="none" x="176" y="676.9652777777778" width="210.83601286173632" height="34.45833333333326"/><path fill="none" stroke="#1f77b4" paint-order="fill stroke markers" d=" M 176 676.9652777777778 L 386.8360128617363 676.9652777777778 L 386.8360128617363 711.4236111111111 L 176 711.4236111111111 L 176 676.9652777777778 Z" stroke-miterlimit="10"/><rect fill="#1f77b4" stroke="none" x="176" y="631.0208333333333" width="189.5618971061093" height="34.458333333333485"/><path fill="none" stroke="#1f77b4" paint-order="fill stroke markers" d=" M 176 631.0208333333333 L 365.5618971061093 631.0208333333333 L 365.5618971061093 665.4791666666667 L 176 665.4791666666667 L 176 631.0208333333333 Z" stroke-miterlimit="10"/><rect fill="#1f77b4" stroke="none" x="176" y="585.0763888888889" width="187.65675241157555" height="34.45833333333326"/><path fill="none" stroke="#1f77b4" paint-order="fill stroke markers" d=" M 176 585.0763888888889 L 363.65675241157555 585.0763888888889 L 363.65675241157555 619.5347222222222 L 176 619.5347222222222 L 176 585.0763888888889 Z" stroke-miterlimit="10"/><rect fill="#1f77b4" stroke="none" x="176" y="539.1319444444443" width="171.03965702036442" height="34.458333333333485"/><path fill="none" stroke="#1f77b4" paint-order="fill stroke markers" d=" M 176 539.1319444444443 L 347.0396570203644 539.1319444444443 L 347.0396570203644 573.5902777777778 L 176 573.5902777777778 L 176 539.1319444444443 Z" stroke-miterlimit="10"/><rect fill="#1f77b4" stroke="none" x="176" y="493.1875" width="122.24678456591641" height="34.45833333333337"/><path fill="none" stroke="#1f77b4" paint-order="fill stroke markers" d=" M 176 493.1875 L 298.2467845659164 493.1875 L 298.2467845659164 527.6458333333334 L 176 527.6458333333334 L 176 493.1875 Z" stroke-miterlimit="10"/><rect fill="#1f77b4" stroke="none" x="176" y="447.24305555555554" width="116.42550911039655" height="34.45833333333337"/><path fill="none" stroke="#1f77b4" paint-order="fill stroke markers" d=" M 176 447.24305555555554 L 292.42550911039655 447.24305555555554 L 292.42550911039655 481.7013888888889 L 176 481.7013888888889 L 176 447.24305555555554 Z" stroke-miterlimit="10"/><rect fill="#1f77b4" stroke="none" x="176" y="401.2986111111111" width="109.4399785637728" height="34.45833333333337"/><path fill="none" stroke="#1f77b4" paint-order="fill stroke markers" d=" M 176 401.2986111111111 L 285.4399785637728 401.2986111111111 L 285.4399785637728 435.75694444444446 L 176 435.75694444444446 L 176 401.2986111111111 Z" stroke-miterlimit="10"/><rect fill="#1f77b4" stroke="none" x="176" y="355.35416666666674" width="95.99812433011789" height="34.45833333333326"/><path fill="none" stroke="#1f77b4" paint-order="fill stroke markers" d=" M 176 355.35416666666674 L 271.9981243301179 355.35416666666674 L 271.9981243301179 389.8125 L 176 389.8125 L 176 355.35416666666674 Z" stroke-miterlimit="10"/><rect fill="#1f77b4" stroke="none" x="176" y="309.4097222222223" width="81.07449088960345" height="34.45833333333326"/><path fill="none" stroke="#1f77b4" paint-order="fill stroke markers" d=" M 176 309.4097222222223 L 257.07449088960345 309.4097222222223 L 257.07449088960345 343.86805555555554 L 176 343.86805555555554 L 176 309.4097222222223 Z" stroke-miterlimit="10"/><rect fill="#1f77b4" stroke="none" x="176" y="263.4652777777778" width="79.16934619506969" height="34.45833333333326"/><path fill="none" stroke="#1f77b4" paint-order="fill stroke markers" d=" M 176 263.4652777777778 L 255.1693461950697 263.4652777777778 L 255.1693461950697 297.9236111111111 L 176 297.9236111111111 L 176 263.4652777777778 Z" stroke-miterlimit="10"/><rect fill="#1f77b4" stroke="none" x="176" y="217.52083333333331" width="45.7234726688103" height="34.45833333333337"/><path fill="none" stroke="#1f77b4" paint-order="fill stroke markers" d=" M 176 217.52083333333331 L 221.7234726688103 217.52083333333331 L 221.7234726688103 251.97916666666669 L 176 251.97916666666669 L 176 217.52083333333331 Z" stroke-miterlimit="10"/><rect fill="#1f77b4" stroke="none" x="176" y="171.57638888888886" width="27.201232583065377" height="34.45833333333337"/><path fill="none" stroke="#1f77b4" paint-order="fill stroke markers" d=" M 176 171.57638888888886 L 203.20123258306538 171.57638888888886 L 203.20123258306538 206.03472222222223 L 176 206.03472222222223 L 176 171.57638888888886 Z" stroke-miterlimit="10"/><rect fill="#1f77b4" stroke="none" x="176" y="125.6319444444444" width="24.02599142550912" height="34.45833333333337"/><path fill="none" stroke="#1f77b4" paint-order="fill stroke markers" d=" M 176 125.6319444444444 L 200.02599142550912 125.6319444444444 L 200.02599142550912 160.09027777777777 L 176 160.09027777777777 L 176 125.6319444444444 Z" stroke-miterlimit="10"/><rect fill="#1f77b4" stroke="none" x="176" y="79.68750000000006" width="8.890675241157567" height="34.45833333333337"/><path fill="none" stroke="#1f77b4" paint-order="fill stroke markers" d=" M 176 79.68750000000006 L 184.89067524115757 79.68750000000006 L 184.89067524115757 114.14583333333343 L 176 114.14583333333343 L 176 79.68750000000006 Z" stroke-miterlimit="10"/><rect fill="#1f77b4" stroke="none" x="176" y="33.7430555555556" width="6.2446409431939855" height="34.45833333333337"/><path fill="none" stroke="#1f77b4" paint-order="fill stroke markers" d=" M 176 33.7430555555556 L 182.24464094319399 33.7430555555556 L 182.24464094319399 68.20138888888897 L 176 68.20138888888897 L 176 33.7430555555556 Z" stroke-miterlimit="10"/></g><g fill="#444444"><path fill="" stroke="none" d=""/><g transform="translate(575.707931404073,830.0277777777778) rotate(0,0,0)"><path fill="none" stroke="none"/><text fill="" stroke="none" font-family="helvetica" font-size="8pt" font-style="normal" font-weight="normal" text-decoration="normal" x="0" y="0" text-anchor="start" dominant-baseline="text-after-edge">79.39%</text></g></g><g fill="#444444"><path fill="" stroke="none" d=""/><g transform="translate(419.38022508038586,784.0833333333334) rotate(0,0,0)"><path fill="none" stroke="none"/><text fill="" stroke="none" font-family="helvetica" font-size="8pt" font-style="normal" font-weight="normal" text-decoration="normal" x="0" y="0" text-anchor="start" dominant-baseline="text-after-edge">47.54%</text></g></g><g fill="#444444"><path fill="" stroke="none" d=""/><g transform="translate(403.60986066452307,738.1388888888889) rotate(0,0,0)"><path fill="none" stroke="none"/><text fill="" stroke="none" font-family="helvetica" font-size="8pt" font-style="normal" font-weight="normal" text-decoration="normal" x="0" y="0" text-anchor="start" dominant-baseline="text-after-edge">44.33%</text></g></g><g fill="#444444"><path fill="" stroke="none" d=""/><g transform="translate(396.8360128617363,692.1944444444445) rotate(0,0,0)"><path fill="none" stroke="none"/><text fill="" stroke="none" font-family="helvetica" font-size="8pt" font-style="normal" font-weight="normal" text-decoration="normal" x="0" y="0" text-anchor="start" dominant-baseline="text-after-edge">42.95%</text></g></g><g fill="#444444"><path fill="" stroke="none" d=""/><g transform="translate(375.5618971061093,646.25) rotate(0,0,0)"><path fill="none" stroke="none"/><text fill="" stroke="none" font-family="helvetica" font-size="8pt" font-style="normal" font-weight="normal" text-decoration="normal" x="0" y="0" text-anchor="start" dominant-baseline="text-after-edge">38.62%</text></g></g><g fill="#444444"><path fill="" stroke="none" d=""/><g transform="translate(373.65675241157555,600.3055555555555) rotate(0,0,0)"><path fill="none" stroke="none"/><text fill="" stroke="none" font-family="helvetica" font-size="8pt" font-style="normal" font-weight="normal" text-decoration="normal" x="0" y="0" text-anchor="start" dominant-baseline="text-after-edge">38.23%</text></g></g><g fill="#444444"><path fill="" stroke="none" d=""/><g transform="translate(357.0396570203644,554.3611111111111) rotate(0,0,0)"><path fill="none" stroke="none"/><text fill="" stroke="none" font-family="helvetica" font-size="8pt" font-style="normal" font-weight="normal" text-decoration="normal" x="0" y="0" text-anchor="start" dominant-baseline="text-after-edge">34.84%</text></g></g><g fill="#444444"><path fill="" stroke="none" d=""/><g transform="translate(308.2467845659164,508.4166666666667) rotate(0,0,0)"><path fill="none" stroke="none"/><text fill="" stroke="none" font-family="helvetica" font-size="8pt" font-style="normal" font-weight="normal" text-decoration="normal" x="0" y="0" text-anchor="start" dominant-baseline="text-after-edge">24.90%</text></g></g><g fill="#444444"><path fill="" stroke="none" d=""/><g transform="translate(302.42550911039655,462.47222222222223) rotate(0,0,0)"><path fill="none" stroke="none"/><text fill="" stroke="none" font-family="helvetica" font-size="8pt" font-style="normal" font-weight="normal" text-decoration="normal" x="0" y="0" text-anchor="start" dominant-baseline="text-after-edge">23.72%</text></g></g><g fill="#444444"><path fill="" stroke="none" d=""/><g transform="translate(295.4399785637728,416.52777777777777) rotate(0,0,0)"><path fill="none" stroke="none"/><text fill="" stroke="none" font-family="helvetica" font-size="8pt" font-style="normal" font-weight="normal" text-decoration="normal" x="0" y="0" text-anchor="start" dominant-baseline="text-after-edge">22.29%</text></g></g><g fill="#444444"><path fill="" stroke="none" d=""/><g transform="translate(281.9981243301179,370.58333333333337) rotate(0,0,0)"><path fill="none" stroke="none"/><text fill="" stroke="none" font-family="helvetica" font-size="8pt" font-style="normal" font-weight="normal" text-decoration="normal" x="0" y="0" text-anchor="start" dominant-baseline="text-after-edge">19.56%</text></g></g><g fill="#444444"><path fill="" stroke="none" d=""/><g transform="translate(267.07449088960345,324.6388888888889) rotate(0,0,0)"><path fill="none" stroke="none"/><text fill="" stroke="none" font-family="helvetica" font-size="8pt" font-style="normal" font-weight="normal" text-decoration="normal" x="0" y="0" text-anchor="start" dominant-baseline="text-after-edge">16.52%</text></g></g><g fill="#444444"><path fill="" stroke="none" d=""/><g transform="translate(265.1693461950697,278.69444444444446) rotate(0,0,0)"><path fill="none" stroke="none"/><text fill="" stroke="none" font-family="helvetica" font-size="8pt" font-style="normal" font-weight="normal" text-decoration="normal" x="0" y="0" text-anchor="start" dominant-baseline="text-after-edge">16.13%</text></g></g><g fill="#444444"><path fill="" stroke="none" d=""/><g transform="translate(231.7234726688103,232.75) rotate(0,0,0)"><path fill="none" stroke="none"/><text fill="" stroke="none" font-family="helvetica" font-size="8pt" font-style="normal" font-weight="normal" text-decoration="normal" x="0" y="0" text-anchor="start" dominant-baseline="text-after-edge">9.31%</text></g></g><g fill="#444444"><path fill="" stroke="none" d=""/><g transform="translate(213.20123258306538,186.80555555555554) rotate(0,0,0)"><path fill="none" stroke="none"/><text fill="" stroke="none" font-family="helvetica" font-size="8pt" font-style="normal" font-weight="normal" text-decoration="normal" x="0" y="0" text-anchor="start" dominant-baseline="text-after-edge">5.54%</text></g></g><g fill="#444444"><path fill="" stroke="none" d=""/><g transform="translate(210.02599142550912,140.8611111111111) rotate(0,0,0)"><path fill="none" stroke="none"/><text fill="" stroke="none" font-family="helvetica" font-size="8pt" font-style="normal" font-weight="normal" text-decoration="normal" x="0" y="0" text-anchor="start" dominant-baseline="text-after-edge">4.89%</text></g></g><g fill="#444444"><path fill="" stroke="none" d=""/><g transform="translate(194.89067524115757,94.91666666666674) rotate(0,0,0)"><path fill="none" stroke="none"/><text fill="" stroke="none" font-family="helvetica" font-size="8pt" font-style="normal" font-weight="normal" text-decoration="normal" x="0" y="0" text-anchor="start" dominant-baseline="text-after-edge">1.81%</text></g></g><g fill="#444444"><path fill="" stroke="none" d=""/><g transform="translate(192.24464094319399,48.972222222222285) rotate(0,0,0)"><path fill="none" stroke="none"/><text fill="" stroke="none" font-family="helvetica" font-size="8pt" font-style="normal" font-weight="normal" text-decoration="normal" x="0" y="0" text-anchor="start" dominant-baseline="text-after-edge">1.27%</text></g></g><g fill="#444444"><path fill="" stroke="none" d=""/><g transform="translate(575.707931404073,844.0277777777778) rotate(0,0,0)"><path fill="none" stroke="none"/><text fill="" stroke="none" font-family="helvetica" font-size="8pt" font-style="normal" font-weight="normal" text-decoration="normal" x="0" y="0" text-anchor="start" dominant-baseline="text-after-edge">3682</text></g></g><g fill="#444444"><path fill="" stroke="none" d=""/><g transform="translate(419.38022508038586,798.0833333333334) rotate(0,0,0)"><path fill="none" stroke="none"/><text fill="" stroke="none" font-family="helvetica" font-size="8pt" font-style="normal" font-weight="normal" text-decoration="normal" x="0" y="0" text-anchor="start" dominant-baseline="text-after-edge">2205</text></g></g><g fill="#444444"><path fill="" stroke="none" d=""/><g transform="translate(403.60986066452307,752.1388888888889) rotate(0,0,0)"><path fill="none" stroke="none"/><text fill="" stroke="none" font-family="helvetica" font-size="8pt" font-style="normal" font-weight="normal" text-decoration="normal" x="0" y="0" text-anchor="start" dominant-baseline="text-after-edge">2056</text></g></g><g fill="#444444"><path fill="" stroke="none" d=""/><g transform="translate(396.8360128617363,706.1944444444445) rotate(0,0,0)"><path fill="none" stroke="none"/><text fill="" stroke="none" font-family="helvetica" font-size="8pt" font-style="normal" font-weight="normal" text-decoration="normal" x="0" y="0" text-anchor="start" dominant-baseline="text-after-edge">1992</text></g></g><g fill="#444444"><path fill="" stroke="none" d=""/><g transform="translate(375.5618971061093,660.25) rotate(0,0,0)"><path fill="none" stroke="none"/><text fill="" stroke="none" font-family="helvetica" font-size="8pt" font-style="normal" font-weight="normal" text-decoration="normal" x="0" y="0" text-anchor="start" dominant-baseline="text-after-edge">1791</text></g></g><g fill="#444444"><path fill="" stroke="none" d=""/><g transform="translate(373.65675241157555,614.3055555555555) rotate(0,0,0)"><path fill="none" stroke="none"/><text fill="" stroke="none" font-family="helvetica" font-size="8pt" font-style="normal" font-weight="normal" text-decoration="normal" x="0" y="0" text-anchor="start" dominant-baseline="text-after-edge">1773</text></g></g><g fill="#444444"><path fill="" stroke="none" d=""/><g transform="translate(357.0396570203644,568.3611111111111) rotate(0,0,0)"><path fill="none" stroke="none"/><text fill="" stroke="none" font-family="helvetica" font-size="8pt" font-style="normal" font-weight="normal" text-decoration="normal" x="0" y="0" text-anchor="start" dominant-baseline="text-after-edge">1616</text></g></g><g fill="#444444"><path fill="" stroke="none" d=""/><g transform="translate(308.2467845659164,522.4166666666667) rotate(0,0,0)"><path fill="none" stroke="none"/><text fill="" stroke="none" font-family="helvetica" font-size="8pt" font-style="normal" font-weight="normal" text-decoration="normal" x="0" y="0" text-anchor="start" dominant-baseline="text-after-edge">1155</text></g></g><g fill="#444444"><path fill="" stroke="none" d=""/><g transform="translate(302.42550911039655,476.47222222222223) rotate(0,0,0)"><path fill="none" stroke="none"/><text fill="" stroke="none" font-family="helvetica" font-size="8pt" font-style="normal" font-weight="normal" text-decoration="normal" x="0" y="0" text-anchor="start" dominant-baseline="text-after-edge">1100</text></g></g><g fill="#444444"><path fill="" stroke="none" d=""/><g transform="translate(295.4399785637728,430.52777777777777) rotate(0,0,0)"><path fill="none" stroke="none"/><text fill="" stroke="none" font-family="helvetica" font-size="8pt" font-style="normal" font-weight="normal" text-decoration="normal" x="0" y="0" text-anchor="start" dominant-baseline="text-after-edge">1034</text></g></g><g fill="#444444"><path fill="" stroke="none" d=""/><g transform="translate(281.9981243301179,384.58333333333337) rotate(0,0,0)"><path fill="none" stroke="none"/><text fill="" stroke="none" font-family="helvetica" font-size="8pt" font-style="normal" font-weight="normal" text-decoration="normal" x="0" y="0" text-anchor="start" dominant-baseline="text-after-edge">907</text></g></g><g fill="#444444"><path fill="" stroke="none" d=""/><g transform="translate(267.07449088960345,338.6388888888889) rotate(0,0,0)"><path fill="none" stroke="none"/><text fill="" stroke="none" font-family="helvetica" font-size="8pt" font-style="normal" font-weight="normal" text-decoration="normal" x="0" y="0" text-anchor="start" dominant-baseline="text-after-edge">766</text></g></g><g fill="#444444"><path fill="" stroke="none" d=""/><g transform="translate(265.1693461950697,292.69444444444446) rotate(0,0,0)"><path fill="none" stroke="none"/><text fill="" stroke="none" font-family="helvetica" font-size="8pt" font-style="normal" font-weight="normal" text-decoration="normal" x="0" y="0" text-anchor="start" dominant-baseline="text-after-edge">748</text></g></g><g fill="#444444"><path fill="" stroke="none" d=""/><g transform="translate(231.7234726688103,246.75) rotate(0,0,0)"><path fill="none" stroke="none"/><text fill="" stroke="none" font-family="helvetica" font-size="8pt" font-style="normal" font-weight="normal" text-decoration="normal" x="0" y="0" text-anchor="start" dominant-baseline="text-after-edge">432</text></g></g><g fill="#444444"><path fill="" stroke="none" d=""/><g transform="translate(213.20123258306538,200.80555555555554) rotate(0,0,0)"><path fill="none" stroke="none"/><text fill="" stroke="none" font-family="helvetica" font-size="8pt" font-style="normal" font-weight="normal" text-decoration="normal" x="0" y="0" text-anchor="start" dominant-baseline="text-after-edge">257</text></g></g><g fill="#444444"><path fill="" stroke="none" d=""/><g transform="translate(210.02599142550912,154.8611111111111) rotate(0,0,0)"><path fill="none" stroke="none"/><text fill="" stroke="none" font-family="helvetica" font-size="8pt" font-style="normal" font-weight="normal" text-decoration="normal" x="0" y="0" text-anchor="start" dominant-baseline="text-after-edge">227</text></g></g><g fill="#444444"><path fill="" stroke="none" d=""/><g transform="translate(194.89067524115757,108.91666666666674) rotate(0,0,0)"><path fill="none" stroke="none"/><text fill="" stroke="none" font-family="helvetica" font-size="8pt" font-style="normal" font-weight="normal" text-decoration="normal" x="0" y="0" text-anchor="start" dominant-baseline="text-after-edge">84</text></g></g><g fill="#444444"><path fill="" stroke="none" d=""/><g transform="translate(192.24464094319399,62.972222222222285) rotate(0,0,0)"><path fill="none" stroke="none"/><text fill="" stroke="none" font-family="helvetica" font-size="8pt" font-style="normal" font-weight="normal" text-decoration="normal" x="0" y="0" text-anchor="start" dominant-baseline="text-after-edge">59</text></g></g></g><g/><g><g fill="#444444"><path fill="none" stroke="black" paint-order="fill stroke markers" d=" M 176 855 L 650 855" stroke-miterlimit="10"/><path fill="none" stroke="black" paint-order="fill stroke markers" d=" M 176 861 L 176 853" stroke-miterlimit="10"/><path fill="none" stroke="black" paint-order="fill stroke markers" d=" M 282 861 L 282 853" stroke-miterlimit="10"/><path fill="none" stroke="black" paint-order="fill stroke markers" d=" M 388 861 L 388 853" stroke-miterlimit="10"/><path fill="none" stroke="black" paint-order="fill stroke markers" d=" M 494 861 L 494 853" stroke-miterlimit="10"/><path fill="none" stroke="black" paint-order="fill stroke markers" d=" M 599 861 L 599 853" stroke-miterlimit="10"/><path fill="none" stroke="black" paint-order="fill stroke markers" d=" M 176 859 L 176 855" stroke-miterlimit="10"/><path fill="none" stroke="black" paint-order="fill stroke markers" d=" M 197 859 L 197 855" stroke-miterlimit="10"/><path fill="none" stroke="black" paint-order="fill stroke markers" d=" M 218 859 L 218 855" stroke-miterlimit="10"/><path fill="none" stroke="black" paint-order="fill stroke markers" d=" M 240 859 L 240 855" stroke-miterlimit="10"/><path fill="none" stroke="black" paint-order="fill stroke markers" d=" M 261 859 L 261 855" stroke-miterlimit="10"/><path fill="none" stroke="black" paint-order="fill stroke markers" d=" M 282 859 L 282 855" stroke-miterlimit="10"/><path fill="none" stroke="black" paint-order="fill stroke markers" d=" M 303 859 L 303 855" stroke-miterlimit="10"/><path fill="none" stroke="black" paint-order="fill stroke markers" d=" M 324 859 L 324 855" stroke-miterlimit="10"/><path fill="none" stroke="black" paint-order="fill stroke markers" d=" M 345 859 L 345 855" stroke-miterlimit="10"/><path fill="none" stroke="black" paint-order="fill stroke markers" d=" M 367 859 L 367 855" stroke-miterlimit="10"/><path fill="none" stroke="black" paint-order="fill stroke markers" d=" M 388 859 L 388 855" stroke-miterlimit="10"/><path fill="none" stroke="black" paint-order="fill stroke markers" d=" M 409 859 L 409 855" stroke-miterlimit="10"/><path fill="none" stroke="black" paint-order="fill stroke markers" d=" M 430 859 L 430 855" stroke-miterlimit="10"/><path fill="none" stroke="black" paint-order="fill stroke markers" d=" M 451 859 L 451 855" stroke-miterlimit="10"/><path fill="none" stroke="black" paint-order="fill stroke markers" d=" M 472 859 L 472 855" stroke-miterlimit="10"/><path fill="none" stroke="black" paint-order="fill stroke markers" d=" M 494 859 L 494 855" stroke-miterlimit="10"/><path fill="none" stroke="black" paint-order="fill stroke markers" d=" M 515 859 L 515 855" stroke-miterlimit="10"/><path fill="none" stroke="black" paint-order="fill stroke markers" d=" M 536 859 L 536 855" stroke-miterlimit="10"/><path fill="none" stroke="black" paint-order="fill stroke markers" d=" M 557 859 L 557 855" stroke-miterlimit="10"/><path fill="none" stroke="black" paint-order="fill stroke markers" d=" M 578 859 L 578 855" stroke-miterlimit="10"/><path fill="none" stroke="black" paint-order="fill stroke markers" d=" M 599 859 L 599 855" stroke-miterlimit="10"/><path fill="none" stroke="black" paint-order="fill stroke markers" d=" M 621 859 L 621 855" stroke-miterlimit="10"/><path fill="" stroke="black" paint-order="fill stroke markers" d=" M 642 859 L 642 855" stroke-miterlimit="10"/><g transform="translate(176,866) rotate(0,0,0)"><text fill="" stroke="none" font-family="helvetica" font-size="8pt" font-style="normal" font-weight="normal" text-decoration="normal" x="0" y="0" text-anchor="middle" dominant-baseline="hanging">0</text><g transform="rotate(0,0,0) translate(-176,-866) translate(282,866) rotate(0,0,0)"><text fill="" stroke="none" font-family="helvetica" font-size="8pt" font-style="normal" font-weight="normal" text-decoration="normal" x="0" y="0" text-anchor="middle" dominant-baseline="hanging">1000</text><g transform="rotate(0,0,0) translate(-282,-866) translate(388,866) rotate(0,0,0)"><text fill="" stroke="none" font-family="helvetica" font-size="8pt" font-style="normal" font-weight="normal" text-decoration="normal" x="0" y="0" text-anchor="middle" dominant-baseline="hanging">2000</text><g transform="rotate(0,0,0) translate(-388,-866) translate(494,866) rotate(0,0,0)"><text fill="" stroke="none" font-family="helvetica" font-size="8pt" font-style="normal" font-weight="normal" text-decoration="normal" x="0" y="0" text-anchor="middle" dominant-baseline="hanging">3000</text><g transform="rotate(0,0,0) translate(-494,-866) translate(599,866) rotate(0,0,0)"><text fill="" stroke="none" font-family="helvetica" font-size="8pt" font-style="normal" font-weight="normal" text-decoration="normal" x="0" y="0" text-anchor="middle" dominant-baseline="hanging">4000</text><g transform="rotate(0,0,0) translate(-599,-866) translate(413,884) rotate(0,0,0)"><text fill="" stroke="none" font-family="helvetica" font-size="10pt" font-style="italic" font-weight="normal" text-decoration="normal" x="0" y="0" text-anchor="middle" dominant-baseline="hanging">Respondents</text><g transform="rotate(0,0,0) translate(-413,-884)"/></g></g></g></g></g></g></g><g fill="#444444"><path fill="none" stroke="black" paint-order="fill stroke markers" d=" M 176 855 L 176 28" stroke-miterlimit="10"/><path fill="none" stroke="black" paint-order="fill stroke markers" d=" M 170 832 L 178 832" stroke-miterlimit="10"/><path fill="none" stroke="black" paint-order="fill stroke markers" d=" M 170 786 L 178 786" stroke-miterlimit="10"/><path fill="none" stroke="black" paint-order="fill stroke markers" d=" M 170 740 L 178 740" stroke-miterlimit="10"/><path fill="none" stroke="black" paint-order="fill stroke markers" d=" M 170 694 L 178 694" stroke-miterlimit="10"/><path fill="none" stroke="black" paint-order="fill stroke markers" d=" M 170 648 L 178 648" stroke-miterlimit="10"/><path fill="none" stroke="black" paint-order="fill stroke markers" d=" M 170 602 L 178 602" stroke-miterlimit="10"/><path fill="none" stroke="black" paint-order="fill stroke markers" d=" M 170 556 L 178 556" stroke-miterlimit="10"/><path fill="none" stroke="black" paint-order="fill stroke markers" d=" M 170 510 L 178 510" stroke-miterlimit="10"/><path fill="none" stroke="black" paint-order="fill stroke markers" d=" M 170 464 L 178 464" stroke-miterlimit="10"/><path fill="none" stroke="black" paint-order="fill stroke markers" d=" M 170 419 L 178 419" stroke-miterlimit="10"/><path fill="none" stroke="black" paint-order="fill stroke markers" d=" M 170 373 L 178 373" stroke-miterlimit="10"/><path fill="none" stroke="black" paint-order="fill stroke markers" d=" M 170 327 L 178 327" stroke-miterlimit="10"/><path fill="none" stroke="black" paint-order="fill stroke markers" d=" M 170 281 L 178 281" stroke-miterlimit="10"/><path fill="none" stroke="black" paint-order="fill stroke markers" d=" M 170 235 L 178 235" stroke-miterlimit="10"/><path fill="none" stroke="black" paint-order="fill stroke markers" d=" M 170 189 L 178 189" stroke-miterlimit="10"/><path fill="none" stroke="black" paint-order="fill stroke markers" d=" M 170 143 L 178 143" stroke-miterlimit="10"/><path fill="none" stroke="black" paint-order="fill stroke markers" d=" M 170 97 L 178 97" stroke-miterlimit="10"/><path fill="" stroke="black" paint-order="fill stroke markers" d=" M 170 51 L 178 51" stroke-miterlimit="10"/><g transform="translate(165,832) rotate(0,0,0)"><text fill="" stroke="none" font-family="helvetica" font-size="8pt" font-style="normal" font-weight="normal" text-decoration="normal" x="0" y="0" text-anchor="end" dominant-baseline="central">Brainstorming and Ideation</text><g transform="rotate(0,0,0) translate(-165,-832) translate(165,786) rotate(0,0,0)"><text fill="" stroke="none" font-family="helvetica" font-size="8pt" font-style="normal" font-weight="normal" text-decoration="normal" x="0" y="0" text-anchor="end" dominant-baseline="central">Project Management</text><g transform="rotate(0,0,0) translate(-165,-786) translate(165,740) rotate(0,0,0)"><text fill="" stroke="none" font-family="helvetica" font-size="8pt" font-style="normal" font-weight="normal" text-decoration="normal" x="0" y="0" text-anchor="end" dominant-baseline="central">Leadership</text><g transform="rotate(0,0,0) translate(-165,-740) translate(165,694) rotate(0,0,0)"><text fill="" stroke="none" font-family="helvetica" font-size="8pt" font-style="normal" font-weight="normal" text-decoration="normal" x="0" y="0" text-anchor="end" dominant-baseline="central">Drawing or Painting</text><g transform="rotate(0,0,0) translate(-165,-694) translate(165,648) rotate(0,0,0)"><text fill="" stroke="none" font-family="helvetica" font-size="8pt" font-style="normal" font-weight="normal" text-decoration="normal" x="0" y="0" text-anchor="end" dominant-baseline="central">Writing</text><g transform="rotate(0,0,0) translate(-165,-648) translate(165,602) rotate(0,0,0)"><text fill="" stroke="none" font-family="helvetica" font-size="8pt" font-style="normal" font-weight="normal" text-decoration="normal" x="0" y="0" text-anchor="end" dominant-baseline="central">Mentoring</text><g transform="rotate(0,0,0) translate(-165,-602) translate(165,556) rotate(0,0,0)"><text fill="" stroke="none" font-family="helvetica" font-size="8pt" font-style="normal" font-weight="normal" text-decoration="normal" x="0" y="0" text-anchor="end" dominant-baseline="central">Social Media</text><g transform="rotate(0,0,0) translate(-165,-556) translate(165,510) rotate(0,0,0)"><text fill="" stroke="none" font-family="helvetica" font-size="8pt" font-style="normal" font-weight="normal" text-decoration="normal" x="0" y="0" text-anchor="end" dominant-baseline="central">Business</text><g transform="rotate(0,0,0) translate(-165,-510) translate(165,464) rotate(0,0,0)"><text fill="" stroke="none" font-family="helvetica" font-size="8pt" font-style="normal" font-weight="normal" text-decoration="normal" x="0" y="0" text-anchor="end" dominant-baseline="central">Public Speaking</text><g transform="rotate(0,0,0) translate(-165,-464) translate(165,419) rotate(0,0,0)"><text fill="" stroke="none" font-family="helvetica" font-size="8pt" font-style="normal" font-weight="normal" text-decoration="normal" x="0" y="0" text-anchor="end" dominant-baseline="central">Diversity and Inclusion</text><g transform="rotate(0,0,0) translate(-165,-419) translate(165,373) rotate(0,0,0)"><text fill="" stroke="none" font-family="helvetica" font-size="8pt" font-style="normal" font-weight="normal" text-decoration="normal" x="0" y="0" text-anchor="end" dominant-baseline="central">Facilitation</text><g transform="rotate(0,0,0) translate(-165,-373) translate(165,327) rotate(0,0,0)"><text fill="" stroke="none" font-family="helvetica" font-size="8pt" font-style="normal" font-weight="normal" text-decoration="normal" x="0" y="0" text-anchor="end" dominant-baseline="central">Relationship Management</text><g transform="rotate(0,0,0) translate(-165,-327) translate(165,281) rotate(0,0,0)"><text fill="" stroke="none" font-family="helvetica" font-size="8pt" font-style="normal" font-weight="normal" text-decoration="normal" x="0" y="0" text-anchor="end" dominant-baseline="central">Coding</text><g transform="rotate(0,0,0) translate(-165,-281) translate(165,235) rotate(0,0,0)"><text fill="" stroke="none" font-family="helvetica" font-size="8pt" font-style="normal" font-weight="normal" text-decoration="normal" x="0" y="0" text-anchor="end" dominant-baseline="central">Data Analysis</text><g transform="rotate(0,0,0) translate(-165,-235) translate(165,189) rotate(0,0,0)"><text fill="" stroke="none" font-family="helvetica" font-size="8pt" font-style="normal" font-weight="normal" text-decoration="normal" x="0" y="0" text-anchor="end" dominant-baseline="central">Sales</text><g transform="rotate(0,0,0) translate(-165,-189) translate(165,143) rotate(0,0,0)"><text fill="" stroke="none" font-family="helvetica" font-size="8pt" font-style="normal" font-weight="normal" text-decoration="normal" x="0" y="0" text-anchor="end" dominant-baseline="central">SEO/SEM</text><g transform="rotate(0,0,0) translate(-165,-143) translate(165,97) rotate(0,0,0)"><text fill="" stroke="none" font-family="helvetica" font-size="8pt" font-style="normal" font-weight="normal" text-decoration="normal" x="0" y="0" text-anchor="end" dominant-baseline="central">Engineering</text><g transform="rotate(0,0,0) translate(-165,-97) translate(165,51) rotate(0,0,0)"><text fill="" stroke="none" font-family="helvetica" font-size="8pt" font-style="normal" font-weight="normal" text-decoration="normal" x="0" y="0" text-anchor="end" dominant-baseline="central">None of these</text><g transform="rotate(0,0,0) translate(-165,-51) translate(16,442) rotate(-90,0,0)"><text fill="" stroke="none" font-family="helvetica" font-size="10pt" font-style="italic" font-weight="normal" text-decoration="normal" x="0" y="0" text-anchor="middle" dominant-baseline="alphabetic">Categories</text><g transform="rotate(90,0,0) translate(-16,-442)"/></g></g></g></g></g></g></g></g></g></g></g></g></g></g></g></g></g></g></g></g><g fill="#444444"><path fill="" stroke="none" d=""/><g transform="translate(176,23)"><path fill="none" stroke="none"/><text fill="" stroke="none" font-family="helvetica" font-size="10pt" font-style="normal" font-weight="bold" text-decoration="normal" x="0" y="0" text-anchor="start" dominant-baseline="text-after-edge">AIGA-Only: I'm also good at:</text></g></g></g></g></g></svg>