<svg version="1.1" xmlns="http://www.w3.org/2000/svg" xmlns:xlink="http://www.w3.org/1999/xlink" width="700" height="450" style="width: 700px; height: 450px;"><defs/><g><g transform="scale(1,1) translate(0.5,0.5)"><rect fill="#FFFFFF" stroke="none" x="0" y="0" width="700" height="450"/><rect fill="#ffffff" stroke="none" x="0" y="0" width="700" height="450"/><rect fill="#FFFFFF" stroke="none" x="179" y="28" width="471" height="377"/><rect fill="#ffffff" stroke="none" x="179" y="28" width="471" height="377"/><g><rect fill="none" stroke="#e5e5e5" x="179" y="28" width="471" height="377" stroke-miterlimit="10"/></g><g><g><path fill="none" stroke="#e5e5e5" paint-order="fill stroke markers" d=" M 281 405 L 281 28" stroke-miterlimit="10"/><path fill="none" stroke="#e5e5e5" paint-order="fill stroke markers" d=" M 382 405 L 382 28" stroke-miterlimit="10"/><path fill="none" stroke="#e5e5e5" paint-order="fill stroke markers" d=" M 484 405 L 484 28" stroke-miterlimit="10"/><path fill="none" stroke="#e5e5e5" paint-order="fill stroke markers" d=" M 585 405 L 585 28" stroke-miterlimit="10"/></g><g><path fill="none" stroke="#e5e5e5" paint-order="fill stroke markers" d=" M 179 384 L 650 384" stroke-miterlimit="10"/><path fill="none" stroke="#e5e5e5" paint-order="fill stroke markers" d=" M 179 342 L 650 342" stroke-miterlimit="10"/><path fill="none" stroke="#e5e5e5" paint-order="fill stroke markers" d=" M 179 300 L 650 300" stroke-miterlimit="10"/><path fill="none" stroke="#e5e5e5" paint-order="fill stroke markers" d=" M 179 258 L 650 258" stroke-miterlimit="10"/><path fill="none" stroke="#e5e5e5" paint-order="fill stroke markers" d=" M 179 217 L 650 217" stroke-miterlimit="10"/><path fill="none" stroke="#e5e5e5" paint-order="fill stroke markers" d=" M 179 175 L 650 175" stroke-miterlimit="10"/><path fill="none" stroke="#e5e5e5" paint-order="fill stroke markers" d=" M 179 133 L 650 133" stroke-miterlimit="10"/><path fill="none" stroke="#e5e5e5" paint-order="fill stroke markers" d=" M 179 91 L 650 91" stroke-miterlimit="10"/><path fill="none" stroke="#e5e5e5" paint-order="fill stroke markers" d=" M 179 49 L 650 49" stroke-miterlimit="10"/></g><g><path fill="none" stroke="none"/><rect fill="#1f77b4" stroke="none" x="179" y="368.3472222222222" width="387.4223803363519" height="31.416666666666742"/><path fill="none" stroke="#1f77b4" paint-order="fill stroke markers" d=" M 179 368.3472222222222 L 566.4223803363519 368.3472222222222 L 566.4223803363519 399.7638888888889 L 179 399.7638888888889 L 179 368.3472222222222 Z" stroke-miterlimit="10"/><rect fill="#1f77b4" stroke="none" x="179" y="326.45833333333337" width="368.6351875808539" height="31.41666666666663"/><path fill="none" stroke="#1f77b4" paint-order="fill stroke markers" d=" M 179 326.45833333333337 L 547.6351875808539 326.45833333333337 L 547.6351875808539 357.875 L 179 357.875 L 179 326.45833333333337 Z" stroke-miterlimit="10"/><rect fill="#1f77b4" stroke="none" x="179" y="284.56944444444446" width="356.85510996119024" height="31.41666666666663"/><path fill="none" stroke="#1f77b4" paint-order="fill stroke markers" d=" M 179 284.56944444444446 L 535.8551099611902 284.56944444444446 L 535.8551099611902 315.9861111111111 L 179 315.9861111111111 L 179 284.56944444444446 Z" stroke-miterlimit="10"/><rect fill="#1f77b4" stroke="none" x="179" y="242.6805555555556" width="351.4728331177232" height="31.41666666666663"/><path fill="none" stroke="#1f77b4" paint-order="fill stroke markers" d=" M 179 242.6805555555556 L 530.4728331177232 242.6805555555556 L 530.4728331177232 274.09722222222223 L 179 274.09722222222223 L 179 242.6805555555556 Z" stroke-miterlimit="10"/><rect fill="#1f77b4" stroke="none" x="179" y="200.79166666666669" width="296.2283311772316" height="31.41666666666663"/><path fill="none" stroke="#1f77b4" paint-order="fill stroke markers" d=" M 179 200.79166666666669 L 475.2283311772316 200.79166666666669 L 475.2283311772316 232.20833333333331 L 179 232.20833333333331 L 179 200.79166666666669 Z" stroke-miterlimit="10"/><rect fill="#1f77b4" stroke="none" x="179" y="158.90277777777783" width="262.91914618369987" height="31.41666666666663"/><path fill="none" stroke="#1f77b4" paint-order="fill stroke markers" d=" M 179 158.90277777777783 L 441.91914618369987 158.90277777777783 L 441.91914618369987 190.31944444444446 L 179 190.31944444444446 L 179 158.90277777777783 Z" stroke-miterlimit="10"/><rect fill="#1f77b4" stroke="none" x="179" y="117.01388888888889" width="251.9514877102199" height="31.416666666666686"/><path fill="none" stroke="#1f77b4" paint-order="fill stroke markers" d=" M 179 117.01388888888889 L 430.9514877102199 117.01388888888889 L 430.9514877102199 148.43055555555557 L 179 148.43055555555557 L 179 117.01388888888889 Z" stroke-miterlimit="10"/><rect fill="#1f77b4" stroke="none" x="179" y="75.12500000000003" width="84.39003880983182" height="31.416666666666686"/><path fill="none" stroke="#1f77b4" paint-order="fill stroke markers" d=" M 179 75.12500000000003 L 263.3900388098318 75.12500000000003 L 263.3900388098318 106.54166666666671 L 179 106.54166666666671 L 179 75.12500000000003 Z" stroke-miterlimit="10"/><rect fill="#1f77b4" stroke="none" x="179" y="33.236111111111114" width="3.1481241914618465" height="31.416666666666686"/><path fill="none" stroke="#1f77b4" paint-order="fill stroke markers" d=" M 179 33.236111111111114 L 182.14812419146185 33.236111111111114 L 182.14812419146185 64.6527777777778 L 179 64.6527777777778 L 179 33.236111111111114 Z" stroke-miterlimit="10"/></g><g fill="#444444"><path fill="" stroke="none" d=""/><g transform="translate(576.4223803363519,382.05555555555554) rotate(0,0,0)"><path fill="none" stroke="none"/><text fill="" stroke="none" font-family="helvetica" font-size="8pt" font-style="normal" font-weight="normal" text-decoration="normal" x="0" y="0" text-anchor="start" dominant-baseline="text-after-edge">82.26%</text></g></g><g fill="#444444"><path fill="" stroke="none" d=""/><g transform="translate(557.6351875808539,340.1666666666667) rotate(0,0,0)"><path fill="none" stroke="none"/><text fill="" stroke="none" font-family="helvetica" font-size="8pt" font-style="normal" font-weight="normal" text-decoration="normal" x="0" y="0" text-anchor="start" dominant-baseline="text-after-edge">78.27%</text></g></g><g fill="#444444"><path fill="" stroke="none" d=""/><g transform="translate(545.8551099611902,298.27777777777777) rotate(0,0,0)"><path fill="none" stroke="none"/><text fill="" stroke="none" font-family="helvetica" font-size="8pt" font-style="normal" font-weight="normal" text-decoration="normal" x="0" y="0" text-anchor="start" dominant-baseline="text-after-edge">75.77%</text></g></g><g fill="#444444"><path fill="" stroke="none" d=""/><g transform="translate(540.4728331177232,256.3888888888889) rotate(0,0,0)"><path fill="none" stroke="none"/><text fill="" stroke="none" font-family="helvetica" font-size="8pt" font-style="normal" font-weight="normal" text-decoration="normal" x="0" y="0" text-anchor="start" dominant-baseline="text-after-edge">74.62%</text></g></g><g fill="#444444"><path fill="" stroke="none" d=""/><g transform="translate(485.2283311772316,214.5) rotate(0,0,0)"><path fill="none" stroke="none"/><text fill="" stroke="none" font-family="helvetica" font-size="8pt" font-style="normal" font-weight="normal" text-decoration="normal" x="0" y="0" text-anchor="start" dominant-baseline="text-after-edge">62.89%</text></g></g><g fill="#444444"><path fill="" stroke="none" d=""/><g transform="translate(451.91914618369987,172.61111111111114) rotate(0,0,0)"><path fill="none" stroke="none"/><text fill="" stroke="none" font-family="helvetica" font-size="8pt" font-style="normal" font-weight="normal" text-decoration="normal" x="0" y="0" text-anchor="start" dominant-baseline="text-after-edge">55.82%</text></g></g><g fill="#444444"><path fill="" stroke="none" d=""/><g transform="translate(440.9514877102199,130.72222222222223) rotate(0,0,0)"><path fill="none" stroke="none"/><text fill="" stroke="none" font-family="helvetica" font-size="8pt" font-style="normal" font-weight="normal" text-decoration="normal" x="0" y="0" text-anchor="start" dominant-baseline="text-after-edge">53.49%</text></g></g><g fill="#444444"><path fill="" stroke="none" d=""/><g transform="translate(273.3900388098318,88.83333333333337) rotate(0,0,0)"><path fill="none" stroke="none"/><text fill="" stroke="none" font-family="helvetica" font-size="8pt" font-style="normal" font-weight="normal" text-decoration="normal" x="0" y="0" text-anchor="start" dominant-baseline="text-after-edge">17.92%</text></g></g><g fill="#444444"><path fill="" stroke="none" d=""/><g transform="translate(192.14812419146185,46.94444444444446) rotate(0,0,0)"><path fill="none" stroke="none"/><text fill="" stroke="none" font-family="helvetica" font-size="8pt" font-style="normal" font-weight="normal" text-decoration="normal" x="0" y="0" text-anchor="start" dominant-baseline="text-after-edge">0.67%</text></g></g><g fill="#444444"><path fill="" stroke="none" d=""/><g transform="translate(576.4223803363519,396.05555555555554) rotate(0,0,0)"><path fill="none" stroke="none"/><text fill="" stroke="none" font-family="helvetica" font-size="8pt" font-style="normal" font-weight="normal" text-decoration="normal" x="0" y="0" text-anchor="start" dominant-baseline="text-after-edge">3815</text></g></g><g fill="#444444"><path fill="" stroke="none" d=""/><g transform="translate(557.6351875808539,354.1666666666667) rotate(0,0,0)"><path fill="none" stroke="none"/><text fill="" stroke="none" font-family="helvetica" font-size="8pt" font-style="normal" font-weight="normal" text-decoration="normal" x="0" y="0" text-anchor="start" dominant-baseline="text-after-edge">3630</text></g></g><g fill="#444444"><path fill="" stroke="none" d=""/><g transform="translate(545.8551099611902,312.27777777777777) rotate(0,0,0)"><path fill="none" stroke="none"/><text fill="" stroke="none" font-family="helvetica" font-size="8pt" font-style="normal" font-weight="normal" text-decoration="normal" x="0" y="0" text-anchor="start" dominant-baseline="text-after-edge">3514</text></g></g><g fill="#444444"><path fill="" stroke="none" d=""/><g transform="translate(540.4728331177232,270.3888888888889) rotate(0,0,0)"><path fill="none" stroke="none"/><text fill="" stroke="none" font-family="helvetica" font-size="8pt" font-style="normal" font-weight="normal" text-decoration="normal" x="0" y="0" text-anchor="start" dominant-baseline="text-after-edge">3461</text></g></g><g fill="#444444"><path fill="" stroke="none" d=""/><g transform="translate(485.2283311772316,228.5) rotate(0,0,0)"><path fill="none" stroke="none"/><text fill="" stroke="none" font-family="helvetica" font-size="8pt" font-style="normal" font-weight="normal" text-decoration="normal" x="0" y="0" text-anchor="start" dominant-baseline="text-after-edge">2917</text></g></g><g fill="#444444"><path fill="" stroke="none" d=""/><g transform="translate(451.91914618369987,186.61111111111114) rotate(0,0,0)"><path fill="none" stroke="none"/><text fill="" stroke="none" font-family="helvetica" font-size="8pt" font-style="normal" font-weight="normal" text-decoration="normal" x="0" y="0" text-anchor="start" dominant-baseline="text-after-edge">2589</text></g></g><g fill="#444444"><path fill="" stroke="none" d=""/><g transform="translate(440.9514877102199,144.72222222222223) rotate(0,0,0)"><path fill="none" stroke="none"/><text fill="" stroke="none" font-family="helvetica" font-size="8pt" font-style="normal" font-weight="normal" text-decoration="normal" x="0" y="0" text-anchor="start" dominant-baseline="text-after-edge">2481</text></g></g><g fill="#444444"><path fill="" stroke="none" d=""/><g transform="translate(273.3900388098318,102.83333333333337) rotate(0,0,0)"><path fill="none" stroke="none"/><text fill="" stroke="none" font-family="helvetica" font-size="8pt" font-style="normal" font-weight="normal" text-decoration="normal" x="0" y="0" text-anchor="start" dominant-baseline="text-after-edge">831</text></g></g><g fill="#444444"><path fill="" stroke="none" d=""/><g transform="translate(192.14812419146185,60.94444444444446) rotate(0,0,0)"><path fill="none" stroke="none"/><text fill="" stroke="none" font-family="helvetica" font-size="8pt" font-style="normal" font-weight="normal" text-decoration="normal" x="0" y="0" text-anchor="start" dominant-baseline="text-after-edge">31</text></g></g></g><g/><g><g fill="#444444"><path fill="none" stroke="black" paint-order="fill stroke markers" d=" M 179 405 L 650 405" stroke-miterlimit="10"/><path fill="none" stroke="black" paint-order="fill stroke markers" d=" M 179 411 L 179 403" stroke-miterlimit="10"/><path fill="none" stroke="black" paint-order="fill stroke markers" d=" M 281 411 L 281 403" stroke-miterlimit="10"/><path fill="none" stroke="black" paint-order="fill stroke markers" d=" M 382 411 L 382 403" stroke-miterlimit="10"/><path fill="none" stroke="black" paint-order="fill stroke markers" d=" M 484 411 L 484 403" stroke-miterlimit="10"/><path fill="none" stroke="black" paint-order="fill stroke markers" d=" M 585 411 L 585 403" stroke-miterlimit="10"/><path fill="none" stroke="black" paint-order="fill stroke markers" d=" M 179 409 L 179 405" stroke-miterlimit="10"/><path fill="none" stroke="black" paint-order="fill stroke markers" d=" M 199 409 L 199 405" stroke-miterlimit="10"/><path fill="none" stroke="black" paint-order="fill stroke markers" d=" M 220 409 L 220 405" stroke-miterlimit="10"/><path fill="none" stroke="black" paint-order="fill stroke markers" d=" M 240 409 L 240 405" stroke-miterlimit="10"/><path fill="none" stroke="black" paint-order="fill stroke markers" d=" M 260 409 L 260 405" stroke-miterlimit="10"/><path fill="none" stroke="black" paint-order="fill stroke markers" d=" M 281 409 L 281 405" stroke-miterlimit="10"/><path fill="none" stroke="black" paint-order="fill stroke markers" d=" M 301 409 L 301 405" stroke-miterlimit="10"/><path fill="none" stroke="black" paint-order="fill stroke markers" d=" M 321 409 L 321 405" stroke-miterlimit="10"/><path fill="none" stroke="black" paint-order="fill stroke markers" d=" M 341 409 L 341 405" stroke-miterlimit="10"/><path fill="none" stroke="black" paint-order="fill stroke markers" d=" M 362 409 L 362 405" stroke-miterlimit="10"/><path fill="none" stroke="black" paint-order="fill stroke markers" d=" M 382 409 L 382 405" stroke-miterlimit="10"/><path fill="none" stroke="black" paint-order="fill stroke markers" d=" M 402 409 L 402 405" stroke-miterlimit="10"/><path fill="none" stroke="black" paint-order="fill stroke markers" d=" M 423 409 L 423 405" stroke-miterlimit="10"/><path fill="none" stroke="black" paint-order="fill stroke markers" d=" M 443 409 L 443 405" stroke-miterlimit="10"/><path fill="none" stroke="black" paint-order="fill stroke markers" d=" M 463 409 L 463 405" stroke-miterlimit="10"/><path fill="none" stroke="black" paint-order="fill stroke markers" d=" M 484 409 L 484 405" stroke-miterlimit="10"/><path fill="none" stroke="black" paint-order="fill stroke markers" d=" M 504 409 L 504 405" stroke-miterlimit="10"/><path fill="none" stroke="black" paint-order="fill stroke markers" d=" M 524 409 L 524 405" stroke-miterlimit="10"/><path fill="none" stroke="black" paint-order="fill stroke markers" d=" M 545 409 L 545 405" stroke-miterlimit="10"/><path fill="none" stroke="black" paint-order="fill stroke markers" d=" M 565 409 L 565 405" stroke-miterlimit="10"/><path fill="none" stroke="black" paint-order="fill stroke markers" d=" M 585 409 L 585 405" stroke-miterlimit="10"/><path fill="none" stroke="black" paint-order="fill stroke markers" d=" M 606 409 L 606 405" stroke-miterlimit="10"/><path fill="none" stroke="black" paint-order="fill stroke markers" d=" M 626 409 L 626 405" stroke-miterlimit="10"/><path fill="" stroke="black" paint-order="fill stroke markers" d=" M 646 409 L 646 405" stroke-miterlimit="10"/><g transform="translate(179,416) rotate(0,0,0)"><text fill="" stroke="none" font-family="helvetica" font-size="8pt" font-style="normal" font-weight="normal" text-decoration="normal" x="0" y="0" text-anchor="middle" dominant-baseline="hanging">0</text><g transform="rotate(0,0,0) translate(-179,-416) translate(281,416) rotate(0,0,0)"><text fill="" stroke="none" font-family="helvetica" font-size="8pt" font-style="normal" font-weight="normal" text-decoration="normal" x="0" y="0" text-anchor="middle" dominant-baseline="hanging">1000</text><g transform="rotate(0,0,0) translate(-281,-416) translate(382,416) rotate(0,0,0)"><text fill="" stroke="none" font-family="helvetica" font-size="8pt" font-style="normal" font-weight="normal" text-decoration="normal" x="0" y="0" text-anchor="middle" dominant-baseline="hanging">2000</text><g transform="rotate(0,0,0) translate(-382,-416) translate(484,416) rotate(0,0,0)"><text fill="" stroke="none" font-family="helvetica" font-size="8pt" font-style="normal" font-weight="normal" text-decoration="normal" x="0" y="0" text-anchor="middle" dominant-baseline="hanging">3000</text><g transform="rotate(0,0,0) translate(-484,-416) translate(585,416) rotate(0,0,0)"><text fill="" stroke="none" font-family="helvetica" font-size="8pt" font-style="normal" font-weight="normal" text-decoration="normal" x="0" y="0" text-anchor="middle" dominant-baseline="hanging">4000</text><g transform="rotate(0,0,0) translate(-585,-416) translate(415,434) rotate(0,0,0)"><text fill="" stroke="none" font-family="helvetica" font-size="10pt" font-style="italic" font-weight="normal" text-decoration="normal" x="0" y="0" text-anchor="middle" dominant-baseline="hanging">Respondents</text><g transform="rotate(0,0,0) translate(-415,-434)"/></g></g></g></g></g></g></g><g fill="#444444"><path fill="none" stroke="black" paint-order="fill stroke markers" d=" M 179 405 L 179 28" stroke-miterlimit="10"/><path fill="none" stroke="black" paint-order="fill stroke markers" d=" M 173 384 L 181 384" stroke-miterlimit="10"/><path fill="none" stroke="black" paint-order="fill stroke markers" d=" M 173 342 L 181 342" stroke-miterlimit="10"/><path fill="none" stroke="black" paint-order="fill stroke markers" d=" M 173 300 L 181 300" stroke-miterlimit="10"/><path fill="none" stroke="black" paint-order="fill stroke markers" d=" M 173 258 L 181 258" stroke-miterlimit="10"/><path fill="none" stroke="black" paint-order="fill stroke markers" d=" M 173 217 L 181 217" stroke-miterlimit="10"/><path fill="none" stroke="black" paint-order="fill stroke markers" d=" M 173 175 L 181 175" stroke-miterlimit="10"/><path fill="none" stroke="black" paint-order="fill stroke markers" d=" M 173 133 L 181 133" stroke-miterlimit="10"/><path fill="none" stroke="black" paint-order="fill stroke markers" d=" M 173 91 L 181 91" stroke-miterlimit="10"/><path fill="" stroke="black" paint-order="fill stroke markers" d=" M 173 49 L 181 49" stroke-miterlimit="10"/><g transform="translate(168,384) rotate(0,0,0)"><text fill="" stroke="none" font-family="helvetica" font-size="8pt" font-style="normal" font-weight="normal" text-decoration="normal" x="0" y="0" text-anchor="end" dominant-baseline="central">Following design feeds</text><g transform="rotate(0,0,0) translate(-168,-384) translate(168,342) rotate(0,0,0)"><text fill="" stroke="none" font-family="helvetica" font-size="8pt" font-style="normal" font-weight="normal" text-decoration="normal" x="0" y="0" text-anchor="end" dominant-baseline="central">Reading online publications</text><g transform="rotate(0,0,0) translate(-168,-342) translate(168,300) rotate(0,0,0)"><text fill="" stroke="none" font-family="helvetica" font-size="8pt" font-style="normal" font-weight="normal" text-decoration="normal" x="0" y="0" text-anchor="end" dominant-baseline="central">Following social media</text><g transform="rotate(0,0,0) translate(-168,-300) translate(168,258) rotate(0,0,0)"><text fill="" stroke="none" font-family="helvetica" font-size="8pt" font-style="normal" font-weight="normal" text-decoration="normal" x="0" y="0" text-anchor="end" dominant-baseline="central">Discussing with peers</text><g transform="rotate(0,0,0) translate(-168,-258) translate(168,217) rotate(0,0,0)"><text fill="" stroke="none" font-family="helvetica" font-size="8pt" font-style="normal" font-weight="normal" text-decoration="normal" x="0" y="0" text-anchor="end" dominant-baseline="central">Reading books/magazines</text><g transform="rotate(0,0,0) translate(-168,-217) translate(168,175) rotate(0,0,0)"><text fill="" stroke="none" font-family="helvetica" font-size="8pt" font-style="normal" font-weight="normal" text-decoration="normal" x="0" y="0" text-anchor="end" dominant-baseline="central">Attending conferences</text><g transform="rotate(0,0,0) translate(-168,-175) translate(168,133) rotate(0,0,0)"><text fill="" stroke="none" font-family="helvetica" font-size="8pt" font-style="normal" font-weight="normal" text-decoration="normal" x="0" y="0" text-anchor="end" dominant-baseline="central">Seeking online training</text><g transform="rotate(0,0,0) translate(-168,-133) translate(168,91) rotate(0,0,0)"><text fill="" stroke="none" font-family="helvetica" font-size="8pt" font-style="normal" font-weight="normal" text-decoration="normal" x="0" y="0" text-anchor="end" dominant-baseline="central">Having a mentor</text><g transform="rotate(0,0,0) translate(-168,-91) translate(168,49) rotate(0,0,0)"><text fill="" stroke="none" font-family="helvetica" font-size="8pt" font-style="normal" font-weight="normal" text-decoration="normal" x="0" y="0" text-anchor="end" dominant-baseline="central">None of these</text><g transform="rotate(0,0,0) translate(-168,-49) translate(15,217) rotate(-90,0,0)"><text fill="" stroke="none" font-family="helvetica" font-size="10pt" font-style="italic" font-weight="normal" text-decoration="normal" x="0" y="0" text-anchor="middle" dominant-baseline="alphabetic">Categories</text><g transform="rotate(90,0,0) translate(-15,-217)"/></g></g></g></g></g></g></g></g></g></g></g><g fill="#444444"><path fill="" stroke="none" d=""/><g transform="translate(179,23)"><path fill="none" stroke="none"/><text fill="" stroke="none" font-family="helvetica" font-size="10pt" font-style="normal" font-weight="bold" text-decoration="normal" x="0" y="0" text-anchor="start" dominant-baseline="text-after-edge">AIGA-Only: I stay current with design by:</text></g></g></g></g></g></svg>