<svg version="1.1" xmlns="http://www.w3.org/2000/svg" xmlns:xlink="http://www.w3.org/1999/xlink" width="700" height="500" style="width: 700px; height: 500px;"><defs/><g><g transform="scale(1,1) translate(0.5,0.5)"><rect fill="#FFFFFF" stroke="none" x="0" y="0" width="700" height="500"/><rect fill="#ffffff" stroke="none" x="0" y="0" width="700" height="500"/><rect fill="#FFFFFF" stroke="none" x="133" y="28" width="517" height="427"/><rect fill="#ffffff" stroke="none" x="133" y="28" width="517" height="427"/><g><rect fill="none" stroke="#e5e5e5" x="133" y="28" width="517" height="427" stroke-miterlimit="10"/></g><g><g><path fill="none" stroke="#e5e5e5" paint-order="fill stroke markers" d=" M 216 455 L 216 28" stroke-miterlimit="10"/><path fill="none" stroke="#e5e5e5" paint-order="fill stroke markers" d=" M 299 455 L 299 28" stroke-miterlimit="10"/><path fill="none" stroke="#e5e5e5" paint-order="fill stroke markers" d=" M 382 455 L 382 28" stroke-miterlimit="10"/><path fill="none" stroke="#e5e5e5" paint-order="fill stroke markers" d=" M 465 455 L 465 28" stroke-miterlimit="10"/><path fill="none" stroke="#e5e5e5" paint-order="fill stroke markers" d=" M 548 455 L 548 28" stroke-miterlimit="10"/><path fill="none" stroke="#e5e5e5" paint-order="fill stroke markers" d=" M 631 455 L 631 28" stroke-miterlimit="10"/></g><g><path fill="none" stroke="#e5e5e5" paint-order="fill stroke markers" d=" M 133 434 L 650 434" stroke-miterlimit="10"/><path fill="none" stroke="#e5e5e5" paint-order="fill stroke markers" d=" M 133 391 L 650 391" stroke-miterlimit="10"/><path fill="none" stroke="#e5e5e5" paint-order="fill stroke markers" d=" M 133 348 L 650 348" stroke-miterlimit="10"/><path fill="none" stroke="#e5e5e5" paint-order="fill stroke markers" d=" M 133 306 L 650 306" stroke-miterlimit="10"/><path fill="none" stroke="#e5e5e5" paint-order="fill stroke markers" d=" M 133 263 L 650 263" stroke-miterlimit="10"/><path fill="none" stroke="#e5e5e5" paint-order="fill stroke markers" d=" M 133 220 L 650 220" stroke-miterlimit="10"/><path fill="none" stroke="#e5e5e5" paint-order="fill stroke markers" d=" M 133 177 L 650 177" stroke-miterlimit="10"/><path fill="none" stroke="#e5e5e5" paint-order="fill stroke markers" d=" M 133 135 L 650 135" stroke-miterlimit="10"/><path fill="none" stroke="#e5e5e5" paint-order="fill stroke markers" d=" M 133 92 L 650 92" stroke-miterlimit="10"/><path fill="none" stroke="#e5e5e5" paint-order="fill stroke markers" d=" M 133 49 L 650 49" stroke-miterlimit="10"/></g><g><path fill="none" stroke="none"/><rect fill="#1f77b4" stroke="none" x="133" y="417.63749999999993" width="410.0802825947335" height="32.02500000000009"/><path fill="none" stroke="#1f77b4" paint-order="fill stroke markers" d=" M 133 417.63749999999993 L 543.0802825947335 417.63749999999993 L 543.0802825947335 449.6625 L 133 449.6625 L 133 417.63749999999993 Z" stroke-miterlimit="10"/><rect fill="#1f77b4" stroke="none" x="133" y="374.9375" width="119.53757225433526" height="32.02499999999998"/><path fill="none" stroke="#1f77b4" paint-order="fill stroke markers" d=" M 133 374.9375 L 252.53757225433526 374.9375 L 252.53757225433526 406.9625 L 133 406.9625 L 133 374.9375 Z" stroke-miterlimit="10"/><rect fill="#1f77b4" stroke="none" x="133" y="332.2375" width="95.87909441233143" height="32.02499999999998"/><path fill="none" stroke="#1f77b4" paint-order="fill stroke markers" d=" M 133 332.2375 L 228.87909441233143 332.2375 L 228.87909441233143 364.2625 L 133 364.2625 L 133 332.2375 Z" stroke-miterlimit="10"/><rect fill="#1f77b4" stroke="none" x="133" y="289.53749999999997" width="86.74775208734746" height="32.02499999999998"/><path fill="none" stroke="#1f77b4" paint-order="fill stroke markers" d=" M 133 289.53749999999997 L 219.74775208734746 289.53749999999997 L 219.74775208734746 321.56249999999994 L 133 321.56249999999994 L 133 289.53749999999997 Z" stroke-miterlimit="10"/><rect fill="#1f77b4" stroke="none" x="133" y="246.83750000000003" width="78.03147077713552" height="32.02499999999998"/><path fill="none" stroke="#1f77b4" paint-order="fill stroke markers" d=" M 133 246.83750000000003 L 211.03147077713552 246.83750000000003 L 211.03147077713552 278.8625 L 133 278.8625 L 133 246.83750000000003 Z" stroke-miterlimit="10"/><rect fill="#1f77b4" stroke="none" x="133" y="204.1375" width="56.44829800899166" height="32.02499999999998"/><path fill="none" stroke="#1f77b4" paint-order="fill stroke markers" d=" M 133 204.1375 L 189.44829800899166 204.1375 L 189.44829800899166 236.16249999999997 L 133 236.16249999999997 L 133 204.1375 Z" stroke-miterlimit="10"/><rect fill="#1f77b4" stroke="none" x="133" y="161.4375" width="18.677745664739888" height="32.02499999999998"/><path fill="none" stroke="#1f77b4" paint-order="fill stroke markers" d=" M 133 161.4375 L 151.6777456647399 161.4375 L 151.6777456647399 193.46249999999998 L 133 193.46249999999998 L 133 161.4375 Z" stroke-miterlimit="10"/><rect fill="#1f77b4" stroke="none" x="133" y="118.73749999999998" width="8.301220295439947" height="32.025000000000034"/><path fill="none" stroke="#1f77b4" paint-order="fill stroke markers" d=" M 133 118.73749999999998 L 141.30122029543995 118.73749999999998 L 141.30122029543995 150.76250000000002 L 133 150.76250000000002 L 133 118.73749999999998 Z" stroke-miterlimit="10"/><rect fill="#1f77b4" stroke="none" x="133" y="76.03749999999994" width="5.81085420680796" height="32.025000000000034"/><path fill="none" stroke="#1f77b4" paint-order="fill stroke markers" d=" M 133 76.03749999999994 L 138.81085420680796 76.03749999999994 L 138.81085420680796 108.06249999999997 L 133 108.06249999999997 L 133 76.03749999999994 Z" stroke-miterlimit="10"/><rect fill="#1f77b4" stroke="none" x="133" y="33.33749999999998" width="5.395793192035967" height="32.02499999999998"/><path fill="none" stroke="#1f77b4" paint-order="fill stroke markers" d=" M 133 33.33749999999998 L 138.39579319203597 33.33749999999998 L 138.39579319203597 65.36249999999995 L 133 65.36249999999995 L 133 33.33749999999998 Z" stroke-miterlimit="10"/></g><g fill="#444444"><path fill="" stroke="none" d=""/><g transform="translate(553.0802825947335,431.65) rotate(0,0,0)"><path fill="none" stroke="none"/><text fill="" stroke="none" font-family="helvetica" font-size="8pt" font-style="normal" font-weight="normal" text-decoration="normal" x="0" y="0" text-anchor="start" dominant-baseline="text-after-edge">21.30%</text></g></g><g fill="#444444"><path fill="" stroke="none" d=""/><g transform="translate(262.53757225433526,388.95) rotate(0,0,0)"><path fill="none" stroke="none"/><text fill="" stroke="none" font-family="helvetica" font-size="8pt" font-style="normal" font-weight="normal" text-decoration="normal" x="0" y="0" text-anchor="start" dominant-baseline="text-after-edge">6.21%</text></g></g><g fill="#444444"><path fill="" stroke="none" d=""/><g transform="translate(238.87909441233143,346.25) rotate(0,0,0)"><path fill="none" stroke="none"/><text fill="" stroke="none" font-family="helvetica" font-size="8pt" font-style="normal" font-weight="normal" text-decoration="normal" x="0" y="0" text-anchor="start" dominant-baseline="text-after-edge">4.98%</text></g></g><g fill="#444444"><path fill="" stroke="none" d=""/><g transform="translate(229.74775208734746,303.54999999999995) rotate(0,0,0)"><path fill="none" stroke="none"/><text fill="" stroke="none" font-family="helvetica" font-size="8pt" font-style="normal" font-weight="normal" text-decoration="normal" x="0" y="0" text-anchor="start" dominant-baseline="text-after-edge">4.51%</text></g></g><g fill="#444444"><path fill="" stroke="none" d=""/><g transform="translate(221.03147077713552,260.85) rotate(0,0,0)"><path fill="none" stroke="none"/><text fill="" stroke="none" font-family="helvetica" font-size="8pt" font-style="normal" font-weight="normal" text-decoration="normal" x="0" y="0" text-anchor="start" dominant-baseline="text-after-edge">4.05%</text></g></g><g fill="#444444"><path fill="" stroke="none" d=""/><g transform="translate(199.44829800899166,218.14999999999998) rotate(0,0,0)"><path fill="none" stroke="none"/><text fill="" stroke="none" font-family="helvetica" font-size="8pt" font-style="normal" font-weight="normal" text-decoration="normal" x="0" y="0" text-anchor="start" dominant-baseline="text-after-edge">2.93%</text></g></g><g fill="#444444"><path fill="" stroke="none" d=""/><g transform="translate(161.6777456647399,175.45) rotate(0,0,0)"><path fill="none" stroke="none"/><text fill="" stroke="none" font-family="helvetica" font-size="8pt" font-style="normal" font-weight="normal" text-decoration="normal" x="0" y="0" text-anchor="start" dominant-baseline="text-after-edge">0.97%</text></g></g><g fill="#444444"><path fill="" stroke="none" d=""/><g transform="translate(151.30122029543995,132.75) rotate(0,0,0)"><path fill="none" stroke="none"/><text fill="" stroke="none" font-family="helvetica" font-size="8pt" font-style="normal" font-weight="normal" text-decoration="normal" x="0" y="0" text-anchor="start" dominant-baseline="text-after-edge">0.43%</text></g></g><g fill="#444444"><path fill="" stroke="none" d=""/><g transform="translate(148.81085420680796,90.04999999999995) rotate(0,0,0)"><path fill="none" stroke="none"/><text fill="" stroke="none" font-family="helvetica" font-size="8pt" font-style="normal" font-weight="normal" text-decoration="normal" x="0" y="0" text-anchor="start" dominant-baseline="text-after-edge">0.30%</text></g></g><g fill="#444444"><path fill="" stroke="none" d=""/><g transform="translate(148.39579319203597,47.349999999999966) rotate(0,0,0)"><path fill="none" stroke="none"/><text fill="" stroke="none" font-family="helvetica" font-size="8pt" font-style="normal" font-weight="normal" text-decoration="normal" x="0" y="0" text-anchor="start" dominant-baseline="text-after-edge">0.28%</text></g></g><g fill="#444444"><path fill="" stroke="none" d=""/><g transform="translate(553.0802825947335,445.65) rotate(0,0,0)"><path fill="none" stroke="none"/><text fill="" stroke="none" font-family="helvetica" font-size="8pt" font-style="normal" font-weight="normal" text-decoration="normal" x="0" y="0" text-anchor="start" dominant-baseline="text-after-edge">988</text></g></g><g fill="#444444"><path fill="" stroke="none" d=""/><g transform="translate(262.53757225433526,402.95) rotate(0,0,0)"><path fill="none" stroke="none"/><text fill="" stroke="none" font-family="helvetica" font-size="8pt" font-style="normal" font-weight="normal" text-decoration="normal" x="0" y="0" text-anchor="start" dominant-baseline="text-after-edge">288</text></g></g><g fill="#444444"><path fill="" stroke="none" d=""/><g transform="translate(238.87909441233143,360.25) rotate(0,0,0)"><path fill="none" stroke="none"/><text fill="" stroke="none" font-family="helvetica" font-size="8pt" font-style="normal" font-weight="normal" text-decoration="normal" x="0" y="0" text-anchor="start" dominant-baseline="text-after-edge">231</text></g></g><g fill="#444444"><path fill="" stroke="none" d=""/><g transform="translate(229.74775208734746,317.54999999999995) rotate(0,0,0)"><path fill="none" stroke="none"/><text fill="" stroke="none" font-family="helvetica" font-size="8pt" font-style="normal" font-weight="normal" text-decoration="normal" x="0" y="0" text-anchor="start" dominant-baseline="text-after-edge">209</text></g></g><g fill="#444444"><path fill="" stroke="none" d=""/><g transform="translate(221.03147077713552,274.85) rotate(0,0,0)"><path fill="none" stroke="none"/><text fill="" stroke="none" font-family="helvetica" font-size="8pt" font-style="normal" font-weight="normal" text-decoration="normal" x="0" y="0" text-anchor="start" dominant-baseline="text-after-edge">188</text></g></g><g fill="#444444"><path fill="" stroke="none" d=""/><g transform="translate(199.44829800899166,232.14999999999998) rotate(0,0,0)"><path fill="none" stroke="none"/><text fill="" stroke="none" font-family="helvetica" font-size="8pt" font-style="normal" font-weight="normal" text-decoration="normal" x="0" y="0" text-anchor="start" dominant-baseline="text-after-edge">136</text></g></g><g fill="#444444"><path fill="" stroke="none" d=""/><g transform="translate(161.6777456647399,189.45) rotate(0,0,0)"><path fill="none" stroke="none"/><text fill="" stroke="none" font-family="helvetica" font-size="8pt" font-style="normal" font-weight="normal" text-decoration="normal" x="0" y="0" text-anchor="start" dominant-baseline="text-after-edge">45</text></g></g><g fill="#444444"><path fill="" stroke="none" d=""/><g transform="translate(151.30122029543995,146.75) rotate(0,0,0)"><path fill="none" stroke="none"/><text fill="" stroke="none" font-family="helvetica" font-size="8pt" font-style="normal" font-weight="normal" text-decoration="normal" x="0" y="0" text-anchor="start" dominant-baseline="text-after-edge">20</text></g></g><g fill="#444444"><path fill="" stroke="none" d=""/><g transform="translate(148.81085420680796,104.04999999999995) rotate(0,0,0)"><path fill="none" stroke="none"/><text fill="" stroke="none" font-family="helvetica" font-size="8pt" font-style="normal" font-weight="normal" text-decoration="normal" x="0" y="0" text-anchor="start" dominant-baseline="text-after-edge">14</text></g></g><g fill="#444444"><path fill="" stroke="none" d=""/><g transform="translate(148.39579319203597,61.349999999999966) rotate(0,0,0)"><path fill="none" stroke="none"/><text fill="" stroke="none" font-family="helvetica" font-size="8pt" font-style="normal" font-weight="normal" text-decoration="normal" x="0" y="0" text-anchor="start" dominant-baseline="text-after-edge">13</text></g></g></g><g/><g><g fill="#444444"><path fill="none" stroke="black" paint-order="fill stroke markers" d=" M 133 455 L 650 455" stroke-miterlimit="10"/><path fill="none" stroke="black" paint-order="fill stroke markers" d=" M 133 461 L 133 453" stroke-miterlimit="10"/><path fill="none" stroke="black" paint-order="fill stroke markers" d=" M 216 461 L 216 453" stroke-miterlimit="10"/><path fill="none" stroke="black" paint-order="fill stroke markers" d=" M 299 461 L 299 453" stroke-miterlimit="10"/><path fill="none" stroke="black" paint-order="fill stroke markers" d=" M 382 461 L 382 453" stroke-miterlimit="10"/><path fill="none" stroke="black" paint-order="fill stroke markers" d=" M 465 461 L 465 453" stroke-miterlimit="10"/><path fill="none" stroke="black" paint-order="fill stroke markers" d=" M 548 461 L 548 453" stroke-miterlimit="10"/><path fill="none" stroke="black" paint-order="fill stroke markers" d=" M 631 461 L 631 453" stroke-miterlimit="10"/><path fill="none" stroke="black" paint-order="fill stroke markers" d=" M 133 459 L 133 455" stroke-miterlimit="10"/><path fill="none" stroke="black" paint-order="fill stroke markers" d=" M 150 459 L 150 455" stroke-miterlimit="10"/><path fill="none" stroke="black" paint-order="fill stroke markers" d=" M 166 459 L 166 455" stroke-miterlimit="10"/><path fill="none" stroke="black" paint-order="fill stroke markers" d=" M 183 459 L 183 455" stroke-miterlimit="10"/><path fill="none" stroke="black" paint-order="fill stroke markers" d=" M 199 459 L 199 455" stroke-miterlimit="10"/><path fill="none" stroke="black" paint-order="fill stroke markers" d=" M 216 459 L 216 455" stroke-miterlimit="10"/><path fill="none" stroke="black" paint-order="fill stroke markers" d=" M 233 459 L 233 455" stroke-miterlimit="10"/><path fill="none" stroke="black" paint-order="fill stroke markers" d=" M 249 459 L 249 455" stroke-miterlimit="10"/><path fill="none" stroke="black" paint-order="fill stroke markers" d=" M 266 459 L 266 455" stroke-miterlimit="10"/><path fill="none" stroke="black" paint-order="fill stroke markers" d=" M 282 459 L 282 455" stroke-miterlimit="10"/><path fill="none" stroke="black" paint-order="fill stroke markers" d=" M 299 459 L 299 455" stroke-miterlimit="10"/><path fill="none" stroke="black" paint-order="fill stroke markers" d=" M 316 459 L 316 455" stroke-miterlimit="10"/><path fill="none" stroke="black" paint-order="fill stroke markers" d=" M 332 459 L 332 455" stroke-miterlimit="10"/><path fill="none" stroke="black" paint-order="fill stroke markers" d=" M 349 459 L 349 455" stroke-miterlimit="10"/><path fill="none" stroke="black" paint-order="fill stroke markers" d=" M 365 459 L 365 455" stroke-miterlimit="10"/><path fill="none" stroke="black" paint-order="fill stroke markers" d=" M 382 459 L 382 455" stroke-miterlimit="10"/><path fill="none" stroke="black" paint-order="fill stroke markers" d=" M 399 459 L 399 455" stroke-miterlimit="10"/><path fill="none" stroke="black" paint-order="fill stroke markers" d=" M 415 459 L 415 455" stroke-miterlimit="10"/><path fill="none" stroke="black" paint-order="fill stroke markers" d=" M 432 459 L 432 455" stroke-miterlimit="10"/><path fill="none" stroke="black" paint-order="fill stroke markers" d=" M 448 459 L 448 455" stroke-miterlimit="10"/><path fill="none" stroke="black" paint-order="fill stroke markers" d=" M 465 459 L 465 455" stroke-miterlimit="10"/><path fill="none" stroke="black" paint-order="fill stroke markers" d=" M 482 459 L 482 455" stroke-miterlimit="10"/><path fill="none" stroke="black" paint-order="fill stroke markers" d=" M 498 459 L 498 455" stroke-miterlimit="10"/><path fill="none" stroke="black" paint-order="fill stroke markers" d=" M 515 459 L 515 455" stroke-miterlimit="10"/><path fill="none" stroke="black" paint-order="fill stroke markers" d=" M 531 459 L 531 455" stroke-miterlimit="10"/><path fill="none" stroke="black" paint-order="fill stroke markers" d=" M 548 459 L 548 455" stroke-miterlimit="10"/><path fill="none" stroke="black" paint-order="fill stroke markers" d=" M 565 459 L 565 455" stroke-miterlimit="10"/><path fill="none" stroke="black" paint-order="fill stroke markers" d=" M 581 459 L 581 455" stroke-miterlimit="10"/><path fill="none" stroke="black" paint-order="fill stroke markers" d=" M 598 459 L 598 455" stroke-miterlimit="10"/><path fill="none" stroke="black" paint-order="fill stroke markers" d=" M 614 459 L 614 455" stroke-miterlimit="10"/><path fill="none" stroke="black" paint-order="fill stroke markers" d=" M 631 459 L 631 455" stroke-miterlimit="10"/><path fill="" stroke="black" paint-order="fill stroke markers" d=" M 648 459 L 648 455" stroke-miterlimit="10"/><g transform="translate(133,466) rotate(0,0,0)"><text fill="" stroke="none" font-family="helvetica" font-size="8pt" font-style="normal" font-weight="normal" text-decoration="normal" x="0" y="0" text-anchor="middle" dominant-baseline="hanging">0</text><g transform="rotate(0,0,0) translate(-133,-466) translate(216,466) rotate(0,0,0)"><text fill="" stroke="none" font-family="helvetica" font-size="8pt" font-style="normal" font-weight="normal" text-decoration="normal" x="0" y="0" text-anchor="middle" dominant-baseline="hanging">200</text><g transform="rotate(0,0,0) translate(-216,-466) translate(299,466) rotate(0,0,0)"><text fill="" stroke="none" font-family="helvetica" font-size="8pt" font-style="normal" font-weight="normal" text-decoration="normal" x="0" y="0" text-anchor="middle" dominant-baseline="hanging">400</text><g transform="rotate(0,0,0) translate(-299,-466) translate(382,466) rotate(0,0,0)"><text fill="" stroke="none" font-family="helvetica" font-size="8pt" font-style="normal" font-weight="normal" text-decoration="normal" x="0" y="0" text-anchor="middle" dominant-baseline="hanging">600</text><g transform="rotate(0,0,0) translate(-382,-466) translate(465,466) rotate(0,0,0)"><text fill="" stroke="none" font-family="helvetica" font-size="8pt" font-style="normal" font-weight="normal" text-decoration="normal" x="0" y="0" text-anchor="middle" dominant-baseline="hanging">800</text><g transform="rotate(0,0,0) translate(-465,-466) translate(548,466) rotate(0,0,0)"><text fill="" stroke="none" font-family="helvetica" font-size="8pt" font-style="normal" font-weight="normal" text-decoration="normal" x="0" y="0" text-anchor="middle" dominant-baseline="hanging">1000</text><g transform="rotate(0,0,0) translate(-548,-466) translate(631,466) rotate(0,0,0)"><text fill="" stroke="none" font-family="helvetica" font-size="8pt" font-style="normal" font-weight="normal" text-decoration="normal" x="0" y="0" text-anchor="middle" dominant-baseline="hanging">1200</text><g transform="rotate(0,0,0) translate(-631,-466) translate(392,484) rotate(0,0,0)"><text fill="" stroke="none" font-family="helvetica" font-size="10pt" font-style="italic" font-weight="normal" text-decoration="normal" x="0" y="0" text-anchor="middle" dominant-baseline="hanging">Respondents</text><g transform="rotate(0,0,0) translate(-392,-484)"/></g></g></g></g></g></g></g></g></g><g fill="#444444"><path fill="none" stroke="black" paint-order="fill stroke markers" d=" M 133 455 L 133 28" stroke-miterlimit="10"/><path fill="none" stroke="black" paint-order="fill stroke markers" d=" M 127 434 L 135 434" stroke-miterlimit="10"/><path fill="none" stroke="black" paint-order="fill stroke markers" d=" M 127 391 L 135 391" stroke-miterlimit="10"/><path fill="none" stroke="black" paint-order="fill stroke markers" d=" M 127 348 L 135 348" stroke-miterlimit="10"/><path fill="none" stroke="black" paint-order="fill stroke markers" d=" M 127 306 L 135 306" stroke-miterlimit="10"/><path fill="none" stroke="black" paint-order="fill stroke markers" d=" M 127 263 L 135 263" stroke-miterlimit="10"/><path fill="none" stroke="black" paint-order="fill stroke markers" d=" M 127 220 L 135 220" stroke-miterlimit="10"/><path fill="none" stroke="black" paint-order="fill stroke markers" d=" M 127 177 L 135 177" stroke-miterlimit="10"/><path fill="none" stroke="black" paint-order="fill stroke markers" d=" M 127 135 L 135 135" stroke-miterlimit="10"/><path fill="none" stroke="black" paint-order="fill stroke markers" d=" M 127 92 L 135 92" stroke-miterlimit="10"/><path fill="" stroke="black" paint-order="fill stroke markers" d=" M 127 49 L 135 49" stroke-miterlimit="10"/><g transform="translate(122,434) rotate(0,0,0)"><text fill="" stroke="none" font-family="helvetica" font-size="8pt" font-style="normal" font-weight="normal" text-decoration="normal" x="0" y="0" text-anchor="end" dominant-baseline="central">Mid-level specialist</text><g transform="rotate(0,0,0) translate(-122,-434) translate(122,391) rotate(0,0,0)"><text fill="" stroke="none" font-family="helvetica" font-size="8pt" font-style="normal" font-weight="normal" text-decoration="normal" x="0" y="0" text-anchor="end" dominant-baseline="central">Junior contributor</text><g transform="rotate(0,0,0) translate(-122,-391) translate(122,348) rotate(0,0,0)"><text fill="" stroke="none" font-family="helvetica" font-size="8pt" font-style="normal" font-weight="normal" text-decoration="normal" x="0" y="0" text-anchor="end" dominant-baseline="central">Director</text><g transform="rotate(0,0,0) translate(-122,-348) translate(122,306) rotate(0,0,0)"><text fill="" stroke="none" font-family="helvetica" font-size="8pt" font-style="normal" font-weight="normal" text-decoration="normal" x="0" y="0" text-anchor="end" dominant-baseline="central">Senior manager</text><g transform="rotate(0,0,0) translate(-122,-306) translate(122,263) rotate(0,0,0)"><text fill="" stroke="none" font-family="helvetica" font-size="8pt" font-style="normal" font-weight="normal" text-decoration="normal" x="0" y="0" text-anchor="end" dominant-baseline="central">Team Leader</text><g transform="rotate(0,0,0) translate(-122,-263) translate(122,220) rotate(0,0,0)"><text fill="" stroke="none" font-family="helvetica" font-size="8pt" font-style="normal" font-weight="normal" text-decoration="normal" x="0" y="0" text-anchor="end" dominant-baseline="central">Other</text><g transform="rotate(0,0,0) translate(-122,-220) translate(122,177) rotate(0,0,0)"><text fill="" stroke="none" font-family="helvetica" font-size="8pt" font-style="normal" font-weight="normal" text-decoration="normal" x="0" y="0" text-anchor="end" dominant-baseline="central">Group Leader</text><g transform="rotate(0,0,0) translate(-122,-177) translate(122,135) rotate(0,0,0)"><text fill="" stroke="none" font-family="helvetica" font-size="8pt" font-style="normal" font-weight="normal" text-decoration="normal" x="0" y="0" text-anchor="end" dominant-baseline="central">Executive</text><g transform="rotate(0,0,0) translate(-122,-135) translate(122,92) rotate(0,0,0)"><text fill="" stroke="none" font-family="helvetica" font-size="8pt" font-style="normal" font-weight="normal" text-decoration="normal" x="0" y="0" text-anchor="end" dominant-baseline="central">Senior Executive</text><g transform="rotate(0,0,0) translate(-122,-92) translate(122,49) rotate(0,0,0)"><text fill="" stroke="none" font-family="helvetica" font-size="8pt" font-style="normal" font-weight="normal" text-decoration="normal" x="0" y="0" text-anchor="end" dominant-baseline="central">Intern</text><g transform="rotate(0,0,0) translate(-122,-49) translate(16,242) rotate(-90,0,0)"><text fill="" stroke="none" font-family="helvetica" font-size="10pt" font-style="italic" font-weight="normal" text-decoration="normal" x="0" y="0" text-anchor="middle" dominant-baseline="alphabetic">Categories</text><g transform="rotate(90,0,0) translate(-16,-242)"/></g></g></g></g></g></g></g></g></g></g></g></g><g fill="#444444"><path fill="" stroke="none" d=""/><g transform="translate(133,23)"><path fill="none" stroke="none"/><text fill="" stroke="none" font-family="helvetica" font-size="10pt" font-style="normal" font-weight="bold" text-decoration="normal" x="0" y="0" text-anchor="start" dominant-baseline="text-after-edge">AIGA-Only: My role is:</text></g></g></g></g></g></svg>