<svg version="1.1" xmlns="http://www.w3.org/2000/svg" xmlns:xlink="http://www.w3.org/1999/xlink" width="700" height="350" style="width: 700px; height: 350px;"><defs/><g><g transform="scale(1,1) translate(0.5,0.5)"><rect fill="#FFFFFF" stroke="none" x="0" y="0" width="700" height="350"/><rect fill="#ffffff" stroke="none" x="0" y="0" width="700" height="350"/><rect fill="#FFFFFF" stroke="none" x="192" y="28" width="458" height="277"/><rect fill="#ffffff" stroke="none" x="192" y="28" width="458" height="277"/><g><rect fill="none" stroke="#e5e5e5" x="192" y="28" width="458" height="277" stroke-miterlimit="10"/></g><g><g><path fill="none" stroke="#e5e5e5" paint-order="fill stroke markers" d=" M 303 305 L 303 28" stroke-miterlimit="10"/><path fill="none" stroke="#e5e5e5" paint-order="fill stroke markers" d=" M 414 305 L 414 28" stroke-miterlimit="10"/><path fill="none" stroke="#e5e5e5" paint-order="fill stroke markers" d=" M 525 305 L 525 28" stroke-miterlimit="10"/><path fill="none" stroke="#e5e5e5" paint-order="fill stroke markers" d=" M 635 305 L 635 28" stroke-miterlimit="10"/></g><g><path fill="none" stroke="#e5e5e5" paint-order="fill stroke markers" d=" M 192 285 L 650 285" stroke-miterlimit="10"/><path fill="none" stroke="#e5e5e5" paint-order="fill stroke markers" d=" M 192 246 L 650 246" stroke-miterlimit="10"/><path fill="none" stroke="#e5e5e5" paint-order="fill stroke markers" d=" M 192 206 L 650 206" stroke-miterlimit="10"/><path fill="none" stroke="#e5e5e5" paint-order="fill stroke markers" d=" M 192 167 L 650 167" stroke-miterlimit="10"/><path fill="none" stroke="#e5e5e5" paint-order="fill stroke markers" d=" M 192 127 L 650 127" stroke-miterlimit="10"/><path fill="none" stroke="#e5e5e5" paint-order="fill stroke markers" d=" M 192 87 L 650 87" stroke-miterlimit="10"/><path fill="none" stroke="#e5e5e5" paint-order="fill stroke markers" d=" M 192 48 L 650 48" stroke-miterlimit="10"/></g><g><path fill="none" stroke="none"/><rect fill="#1f77b4" stroke="none" x="192" y="270.375" width="376.1240197502178" height="29.678571428571445"/><path fill="none" stroke="#1f77b4" paint-order="fill stroke markers" d=" M 192 270.375 L 568.1240197502178 270.375 L 568.1240197502178 300.05357142857144 L 192 300.05357142857144 L 192 270.375 Z" stroke-miterlimit="10"/><rect fill="#1f77b4" stroke="none" x="192" y="230.80357142857142" width="86.9087036499177" height="29.678571428571473"/><path fill="none" stroke="#1f77b4" paint-order="fill stroke markers" d=" M 192 230.80357142857142 L 278.9087036499177 230.80357142857142 L 278.9087036499177 260.4821428571429 L 192 260.4821428571429 L 192 230.80357142857142 Z" stroke-miterlimit="10"/><rect fill="#1f77b4" stroke="none" x="192" y="191.2321428571429" width="22.503146480782277" height="29.678571428571388"/><path fill="none" stroke="#1f77b4" paint-order="fill stroke markers" d=" M 192 191.2321428571429 L 214.50314648078228 191.2321428571429 L 214.50314648078228 220.91071428571428 L 192 220.91071428571428 L 192 191.2321428571429 Z" stroke-miterlimit="10"/><rect fill="#1f77b4" stroke="none" x="192" y="151.66071428571428" width="18.955852454255023" height="29.678571428571445"/><path fill="none" stroke="#1f77b4" paint-order="fill stroke markers" d=" M 192 151.66071428571428 L 210.95585245425502 151.66071428571428 L 210.95585245425502 181.33928571428572 L 192 181.33928571428572 L 192 151.66071428571428 Z" stroke-miterlimit="10"/><rect fill="#1f77b4" stroke="none" x="192" y="112.08928571428574" width="4.544970471488057" height="29.67857142857143"/><path fill="none" stroke="#1f77b4" paint-order="fill stroke markers" d=" M 192 112.08928571428574 L 196.54497047148806 112.08928571428574 L 196.54497047148806 141.76785714285717 L 192 141.76785714285717 L 192 112.08928571428574 Z" stroke-miterlimit="10"/><rect fill="#1f77b4" stroke="none" x="192" y="72.51785714285715" width="2.6604705198954264" height="29.678571428571416"/><path fill="none" stroke="#1f77b4" paint-order="fill stroke markers" d=" M 192 72.51785714285715 L 194.66047051989543 72.51785714285715 L 194.66047051989543 102.19642857142857 L 192 102.19642857142857 L 192 72.51785714285715 Z" stroke-miterlimit="10"/><rect fill="#1f77b4" stroke="none" x="192" y="32.946428571428584" width="2.4387646432374765" height="29.678571428571388"/><path fill="none" stroke="#1f77b4" paint-order="fill stroke markers" d=" M 192 32.946428571428584 L 194.43876464323748 32.946428571428584 L 194.43876464323748 62.62499999999997 L 192 62.62499999999997 L 192 32.946428571428584 Z" stroke-miterlimit="10"/></g><g fill="#444444"><path fill="" stroke="none" d=""/><g transform="translate(578.1240197502178,283.2142857142857) rotate(0,0,0)"><path fill="none" stroke="none"/><text fill="" stroke="none" font-family="helvetica" font-size="8pt" font-style="normal" font-weight="normal" text-decoration="normal" x="0" y="0" text-anchor="start" dominant-baseline="text-after-edge">73.16%</text></g></g><g fill="#444444"><path fill="" stroke="none" d=""/><g transform="translate(288.9087036499177,243.64285714285714) rotate(0,0,0)"><path fill="none" stroke="none"/><text fill="" stroke="none" font-family="helvetica" font-size="8pt" font-style="normal" font-weight="normal" text-decoration="normal" x="0" y="0" text-anchor="start" dominant-baseline="text-after-edge">16.90%</text></g></g><g fill="#444444"><path fill="" stroke="none" d=""/><g transform="translate(224.50314648078228,204.07142857142858) rotate(0,0,0)"><path fill="none" stroke="none"/><text fill="" stroke="none" font-family="helvetica" font-size="8pt" font-style="normal" font-weight="normal" text-decoration="normal" x="0" y="0" text-anchor="start" dominant-baseline="text-after-edge">4.38%</text></g></g><g fill="#444444"><path fill="" stroke="none" d=""/><g transform="translate(220.95585245425502,164.5) rotate(0,0,0)"><path fill="none" stroke="none"/><text fill="" stroke="none" font-family="helvetica" font-size="8pt" font-style="normal" font-weight="normal" text-decoration="normal" x="0" y="0" text-anchor="start" dominant-baseline="text-after-edge">3.69%</text></g></g><g fill="#444444"><path fill="" stroke="none" d=""/><g transform="translate(206.54497047148806,124.92857142857144) rotate(0,0,0)"><path fill="none" stroke="none"/><text fill="" stroke="none" font-family="helvetica" font-size="8pt" font-style="normal" font-weight="normal" text-decoration="normal" x="0" y="0" text-anchor="start" dominant-baseline="text-after-edge">0.88%</text></g></g><g fill="#444444"><path fill="" stroke="none" d=""/><g transform="translate(204.66047051989543,85.35714285714286) rotate(0,0,0)"><path fill="none" stroke="none"/><text fill="" stroke="none" font-family="helvetica" font-size="8pt" font-style="normal" font-weight="normal" text-decoration="normal" x="0" y="0" text-anchor="start" dominant-baseline="text-after-edge">0.52%</text></g></g><g fill="#444444"><path fill="" stroke="none" d=""/><g transform="translate(204.43876464323748,45.78571428571428) rotate(0,0,0)"><path fill="none" stroke="none"/><text fill="" stroke="none" font-family="helvetica" font-size="8pt" font-style="normal" font-weight="normal" text-decoration="normal" x="0" y="0" text-anchor="start" dominant-baseline="text-after-edge">0.47%</text></g></g><g fill="#444444"><path fill="" stroke="none" d=""/><g transform="translate(578.1240197502178,297.2142857142857) rotate(0,0,0)"><path fill="none" stroke="none"/><text fill="" stroke="none" font-family="helvetica" font-size="8pt" font-style="normal" font-weight="normal" text-decoration="normal" x="0" y="0" text-anchor="start" dominant-baseline="text-after-edge">3393</text></g></g><g fill="#444444"><path fill="" stroke="none" d=""/><g transform="translate(288.9087036499177,257.6428571428571) rotate(0,0,0)"><path fill="none" stroke="none"/><text fill="" stroke="none" font-family="helvetica" font-size="8pt" font-style="normal" font-weight="normal" text-decoration="normal" x="0" y="0" text-anchor="start" dominant-baseline="text-after-edge">784</text></g></g><g fill="#444444"><path fill="" stroke="none" d=""/><g transform="translate(224.50314648078228,218.07142857142858) rotate(0,0,0)"><path fill="none" stroke="none"/><text fill="" stroke="none" font-family="helvetica" font-size="8pt" font-style="normal" font-weight="normal" text-decoration="normal" x="0" y="0" text-anchor="start" dominant-baseline="text-after-edge">203</text></g></g><g fill="#444444"><path fill="" stroke="none" d=""/><g transform="translate(220.95585245425502,178.5) rotate(0,0,0)"><path fill="none" stroke="none"/><text fill="" stroke="none" font-family="helvetica" font-size="8pt" font-style="normal" font-weight="normal" text-decoration="normal" x="0" y="0" text-anchor="start" dominant-baseline="text-after-edge">171</text></g></g><g fill="#444444"><path fill="" stroke="none" d=""/><g transform="translate(206.54497047148806,138.92857142857144) rotate(0,0,0)"><path fill="none" stroke="none"/><text fill="" stroke="none" font-family="helvetica" font-size="8pt" font-style="normal" font-weight="normal" text-decoration="normal" x="0" y="0" text-anchor="start" dominant-baseline="text-after-edge">41</text></g></g><g fill="#444444"><path fill="" stroke="none" d=""/><g transform="translate(204.66047051989543,99.35714285714286) rotate(0,0,0)"><path fill="none" stroke="none"/><text fill="" stroke="none" font-family="helvetica" font-size="8pt" font-style="normal" font-weight="normal" text-decoration="normal" x="0" y="0" text-anchor="start" dominant-baseline="text-after-edge">24</text></g></g><g fill="#444444"><path fill="" stroke="none" d=""/><g transform="translate(204.43876464323748,59.78571428571428) rotate(0,0,0)"><path fill="none" stroke="none"/><text fill="" stroke="none" font-family="helvetica" font-size="8pt" font-style="normal" font-weight="normal" text-decoration="normal" x="0" y="0" text-anchor="start" dominant-baseline="text-after-edge">22</text></g></g></g><g/><g><g fill="#444444"><path fill="none" stroke="black" paint-order="fill stroke markers" d=" M 192 305 L 650 305" stroke-miterlimit="10"/><path fill="none" stroke="black" paint-order="fill stroke markers" d=" M 192 311 L 192 303" stroke-miterlimit="10"/><path fill="none" stroke="black" paint-order="fill stroke markers" d=" M 303 311 L 303 303" stroke-miterlimit="10"/><path fill="none" stroke="black" paint-order="fill stroke markers" d=" M 414 311 L 414 303" stroke-miterlimit="10"/><path fill="none" stroke="black" paint-order="fill stroke markers" d=" M 525 311 L 525 303" stroke-miterlimit="10"/><path fill="none" stroke="black" paint-order="fill stroke markers" d=" M 635 311 L 635 303" stroke-miterlimit="10"/><path fill="none" stroke="black" paint-order="fill stroke markers" d=" M 192 309 L 192 305" stroke-miterlimit="10"/><path fill="none" stroke="black" paint-order="fill stroke markers" d=" M 214 309 L 214 305" stroke-miterlimit="10"/><path fill="none" stroke="black" paint-order="fill stroke markers" d=" M 236 309 L 236 305" stroke-miterlimit="10"/><path fill="none" stroke="black" paint-order="fill stroke markers" d=" M 259 309 L 259 305" stroke-miterlimit="10"/><path fill="none" stroke="black" paint-order="fill stroke markers" d=" M 281 309 L 281 305" stroke-miterlimit="10"/><path fill="none" stroke="black" paint-order="fill stroke markers" d=" M 303 309 L 303 305" stroke-miterlimit="10"/><path fill="none" stroke="black" paint-order="fill stroke markers" d=" M 325 309 L 325 305" stroke-miterlimit="10"/><path fill="none" stroke="black" paint-order="fill stroke markers" d=" M 347 309 L 347 305" stroke-miterlimit="10"/><path fill="none" stroke="black" paint-order="fill stroke markers" d=" M 369 309 L 369 305" stroke-miterlimit="10"/><path fill="none" stroke="black" paint-order="fill stroke markers" d=" M 392 309 L 392 305" stroke-miterlimit="10"/><path fill="none" stroke="black" paint-order="fill stroke markers" d=" M 414 309 L 414 305" stroke-miterlimit="10"/><path fill="none" stroke="black" paint-order="fill stroke markers" d=" M 436 309 L 436 305" stroke-miterlimit="10"/><path fill="none" stroke="black" paint-order="fill stroke markers" d=" M 458 309 L 458 305" stroke-miterlimit="10"/><path fill="none" stroke="black" paint-order="fill stroke markers" d=" M 480 309 L 480 305" stroke-miterlimit="10"/><path fill="none" stroke="black" paint-order="fill stroke markers" d=" M 502 309 L 502 305" stroke-miterlimit="10"/><path fill="none" stroke="black" paint-order="fill stroke markers" d=" M 525 309 L 525 305" stroke-miterlimit="10"/><path fill="none" stroke="black" paint-order="fill stroke markers" d=" M 547 309 L 547 305" stroke-miterlimit="10"/><path fill="none" stroke="black" paint-order="fill stroke markers" d=" M 569 309 L 569 305" stroke-miterlimit="10"/><path fill="none" stroke="black" paint-order="fill stroke markers" d=" M 591 309 L 591 305" stroke-miterlimit="10"/><path fill="none" stroke="black" paint-order="fill stroke markers" d=" M 613 309 L 613 305" stroke-miterlimit="10"/><path fill="" stroke="black" paint-order="fill stroke markers" d=" M 635 309 L 635 305" stroke-miterlimit="10"/><g transform="translate(192,316) rotate(0,0,0)"><text fill="" stroke="none" font-family="helvetica" font-size="8pt" font-style="normal" font-weight="normal" text-decoration="normal" x="0" y="0" text-anchor="middle" dominant-baseline="hanging">0</text><g transform="rotate(0,0,0) translate(-192,-316) translate(303,316) rotate(0,0,0)"><text fill="" stroke="none" font-family="helvetica" font-size="8pt" font-style="normal" font-weight="normal" text-decoration="normal" x="0" y="0" text-anchor="middle" dominant-baseline="hanging">1000</text><g transform="rotate(0,0,0) translate(-303,-316) translate(414,316) rotate(0,0,0)"><text fill="" stroke="none" font-family="helvetica" font-size="8pt" font-style="normal" font-weight="normal" text-decoration="normal" x="0" y="0" text-anchor="middle" dominant-baseline="hanging">2000</text><g transform="rotate(0,0,0) translate(-414,-316) translate(525,316) rotate(0,0,0)"><text fill="" stroke="none" font-family="helvetica" font-size="8pt" font-style="normal" font-weight="normal" text-decoration="normal" x="0" y="0" text-anchor="middle" dominant-baseline="hanging">3000</text><g transform="rotate(0,0,0) translate(-525,-316) translate(635,316) rotate(0,0,0)"><text fill="" stroke="none" font-family="helvetica" font-size="8pt" font-style="normal" font-weight="normal" text-decoration="normal" x="0" y="0" text-anchor="middle" dominant-baseline="hanging">4000</text><g transform="rotate(0,0,0) translate(-635,-316) translate(421,334) rotate(0,0,0)"><text fill="" stroke="none" font-family="helvetica" font-size="10pt" font-style="italic" font-weight="normal" text-decoration="normal" x="0" y="0" text-anchor="middle" dominant-baseline="hanging">Respondents</text><g transform="rotate(0,0,0) translate(-421,-334)"/></g></g></g></g></g></g></g><g fill="#444444"><path fill="none" stroke="black" paint-order="fill stroke markers" d=" M 192 305 L 192 28" stroke-miterlimit="10"/><path fill="none" stroke="black" paint-order="fill stroke markers" d=" M 186 285 L 194 285" stroke-miterlimit="10"/><path fill="none" stroke="black" paint-order="fill stroke markers" d=" M 186 246 L 194 246" stroke-miterlimit="10"/><path fill="none" stroke="black" paint-order="fill stroke markers" d=" M 186 206 L 194 206" stroke-miterlimit="10"/><path fill="none" stroke="black" paint-order="fill stroke markers" d=" M 186 167 L 194 167" stroke-miterlimit="10"/><path fill="none" stroke="black" paint-order="fill stroke markers" d=" M 186 127 L 194 127" stroke-miterlimit="10"/><path fill="none" stroke="black" paint-order="fill stroke markers" d=" M 186 87 L 194 87" stroke-miterlimit="10"/><path fill="" stroke="black" paint-order="fill stroke markers" d=" M 186 48 L 194 48" stroke-miterlimit="10"/><g transform="translate(181,285) rotate(0,0,0)"><text fill="" stroke="none" font-family="helvetica" font-size="8pt" font-style="normal" font-weight="normal" text-decoration="normal" x="0" y="0" text-anchor="end" dominant-baseline="central">Bachelor's degree</text><g transform="rotate(0,0,0) translate(-181,-285) translate(181,246) rotate(0,0,0)"><text fill="" stroke="none" font-family="helvetica" font-size="8pt" font-style="normal" font-weight="normal" text-decoration="normal" x="0" y="0" text-anchor="end" dominant-baseline="central">Master's degree</text><g transform="rotate(0,0,0) translate(-181,-246) translate(181,206) rotate(0,0,0)"><text fill="" stroke="none" font-family="helvetica" font-size="8pt" font-style="normal" font-weight="normal" text-decoration="normal" x="0" y="0" text-anchor="end" dominant-baseline="central">Associate's degree</text><g transform="rotate(0,0,0) translate(-181,-206) translate(181,167) rotate(0,0,0)"><text fill="" stroke="none" font-family="helvetica" font-size="8pt" font-style="normal" font-weight="normal" text-decoration="normal" x="0" y="0" text-anchor="end" dominant-baseline="central">Some college</text><g transform="rotate(0,0,0) translate(-181,-167) translate(181,127) rotate(0,0,0)"><text fill="" stroke="none" font-family="helvetica" font-size="8pt" font-style="normal" font-weight="normal" text-decoration="normal" x="0" y="0" text-anchor="end" dominant-baseline="central">Technical degree or certificate</text><g transform="rotate(0,0,0) translate(-181,-127) translate(181,87) rotate(0,0,0)"><text fill="" stroke="none" font-family="helvetica" font-size="8pt" font-style="normal" font-weight="normal" text-decoration="normal" x="0" y="0" text-anchor="end" dominant-baseline="central">Doctorate</text><g transform="rotate(0,0,0) translate(-181,-87) translate(181,48) rotate(0,0,0)"><text fill="" stroke="none" font-family="helvetica" font-size="8pt" font-style="normal" font-weight="normal" text-decoration="normal" x="0" y="0" text-anchor="end" dominant-baseline="central">High School or less</text><g transform="rotate(0,0,0) translate(-181,-48) translate(15,167) rotate(-90,0,0)"><text fill="" stroke="none" font-family="helvetica" font-size="10pt" font-style="italic" font-weight="normal" text-decoration="normal" x="0" y="0" text-anchor="middle" dominant-baseline="alphabetic">Categories</text><g transform="rotate(90,0,0) translate(-15,-167)"/></g></g></g></g></g></g></g></g></g><g fill="#444444"><path fill="" stroke="none" d=""/><g transform="translate(192,23)"><path fill="none" stroke="none"/><text fill="" stroke="none" font-family="helvetica" font-size="10pt" font-style="normal" font-weight="bold" text-decoration="normal" x="0" y="0" text-anchor="start" dominant-baseline="text-after-edge">AIGA-Only: Highest level of education I've completed:</text></g></g></g></g></g></svg>