<svg version="1.1" xmlns="http://www.w3.org/2000/svg" xmlns:xlink="http://www.w3.org/1999/xlink" width="700" height="550" style="width: 700px; height: 550px;"><defs/><g><g transform="scale(1,1) translate(0.5,0.5)"><rect fill="#FFFFFF" stroke="none" x="0" y="0" width="700" height="550"/><rect fill="#ffffff" stroke="none" x="0" y="0" width="700" height="550"/><rect fill="#FFFFFF" stroke="none" x="114" y="28" width="536" height="477"/><rect fill="#ffffff" stroke="none" x="114" y="28" width="536" height="477"/><g><rect fill="none" stroke="#e5e5e5" x="114" y="28" width="536" height="477" stroke-miterlimit="10"/></g><g><g><path fill="none" stroke="#e5e5e5" paint-order="fill stroke markers" d=" M 182 505 L 182 28" stroke-miterlimit="10"/><path fill="none" stroke="#e5e5e5" paint-order="fill stroke markers" d=" M 250 505 L 250 28" stroke-miterlimit="10"/><path fill="none" stroke="#e5e5e5" paint-order="fill stroke markers" d=" M 318 505 L 318 28" stroke-miterlimit="10"/><path fill="none" stroke="#e5e5e5" paint-order="fill stroke markers" d=" M 386 505 L 386 28" stroke-miterlimit="10"/><path fill="none" stroke="#e5e5e5" paint-order="fill stroke markers" d=" M 454 505 L 454 28" stroke-miterlimit="10"/><path fill="none" stroke="#e5e5e5" paint-order="fill stroke markers" d=" M 522 505 L 522 28" stroke-miterlimit="10"/><path fill="none" stroke="#e5e5e5" paint-order="fill stroke markers" d=" M 590 505 L 590 28" stroke-miterlimit="10"/></g><g><path fill="none" stroke="#e5e5e5" paint-order="fill stroke markers" d=" M 114 483 L 650 483" stroke-miterlimit="10"/><path fill="none" stroke="#e5e5e5" paint-order="fill stroke markers" d=" M 114 440 L 650 440" stroke-miterlimit="10"/><path fill="none" stroke="#e5e5e5" paint-order="fill stroke markers" d=" M 114 397 L 650 397" stroke-miterlimit="10"/><path fill="none" stroke="#e5e5e5" paint-order="fill stroke markers" d=" M 114 353 L 650 353" stroke-miterlimit="10"/><path fill="none" stroke="#e5e5e5" paint-order="fill stroke markers" d=" M 114 310 L 650 310" stroke-miterlimit="10"/><path fill="none" stroke="#e5e5e5" paint-order="fill stroke markers" d=" M 114 267 L 650 267" stroke-miterlimit="10"/><path fill="none" stroke="#e5e5e5" paint-order="fill stroke markers" d=" M 114 223 L 650 223" stroke-miterlimit="10"/><path fill="none" stroke="#e5e5e5" paint-order="fill stroke markers" d=" M 114 180 L 650 180" stroke-miterlimit="10"/><path fill="none" stroke="#e5e5e5" paint-order="fill stroke markers" d=" M 114 136 L 650 136" stroke-miterlimit="10"/><path fill="none" stroke="#e5e5e5" paint-order="fill stroke markers" d=" M 114 93 L 650 93" stroke-miterlimit="10"/><path fill="none" stroke="#e5e5e5" paint-order="fill stroke markers" d=" M 114 50 L 650 50" stroke-miterlimit="10"/></g><g><path fill="none" stroke="none"/><rect fill="#1f77b4" stroke="none" x="114" y="467.0568181818182" width="429.6702181633689" height="32.52272727272725"/><path fill="none" stroke="#1f77b4" paint-order="fill stroke markers" d=" M 114 467.0568181818182 L 543.6702181633689 467.0568181818182 L 543.6702181633689 499.57954545454544 L 114 499.57954545454544 L 114 467.0568181818182 Z" stroke-miterlimit="10"/><rect fill="#1f77b4" stroke="none" x="114" y="423.6931818181818" width="403.15575849822426" height="32.52272727272725"/><path fill="none" stroke="#1f77b4" paint-order="fill stroke markers" d=" M 114 423.6931818181818 L 517.1557584982243 423.6931818181818 L 517.1557584982243 456.21590909090907 L 114 456.21590909090907 L 114 423.6931818181818 Z" stroke-miterlimit="10"/><rect fill="#1f77b4" stroke="none" x="114" y="380.3295454545454" width="357.2653475393202" height="32.522727272727366"/><path fill="none" stroke="#1f77b4" paint-order="fill stroke markers" d=" M 114 380.3295454545454 L 471.2653475393202 380.3295454545454 L 471.2653475393202 412.85227272727275 L 114 412.85227272727275 L 114 380.3295454545454 Z" stroke-miterlimit="10"/><rect fill="#1f77b4" stroke="none" x="114" y="336.9659090909091" width="280.78132927448" height="32.52272727272725"/><path fill="none" stroke="#1f77b4" paint-order="fill stroke markers" d=" M 114 336.9659090909091 L 394.78132927448 336.9659090909091 L 394.78132927448 369.4886363636364 L 114 369.4886363636364 L 114 336.9659090909091 Z" stroke-miterlimit="10"/><rect fill="#1f77b4" stroke="none" x="114" y="293.60227272727275" width="271.2633181126332" height="32.52272727272725"/><path fill="none" stroke="#1f77b4" paint-order="fill stroke markers" d=" M 114 293.60227272727275 L 385.2633181126332 293.60227272727275 L 385.2633181126332 326.125 L 114 326.125 L 114 293.60227272727275 Z" stroke-miterlimit="10"/><rect fill="#1f77b4" stroke="none" x="114" y="250.23863636363637" width="125.09386098427194" height="32.52272727272725"/><path fill="none" stroke="#1f77b4" paint-order="fill stroke markers" d=" M 114 250.23863636363637 L 239.09386098427194 250.23863636363637 L 239.09386098427194 282.7613636363636 L 114 282.7613636363636 L 114 250.23863636363637 Z" stroke-miterlimit="10"/><rect fill="#1f77b4" stroke="none" x="114" y="206.875" width="112.51648909183157" height="32.52272727272725"/><path fill="none" stroke="#1f77b4" paint-order="fill stroke markers" d=" M 114 206.875 L 226.51648909183157 206.875 L 226.51648909183157 239.39772727272725 L 114 239.39772727272725 L 114 206.875 Z" stroke-miterlimit="10"/><rect fill="#1f77b4" stroke="none" x="114" y="163.51136363636363" width="98.2394723490614" height="32.52272727272725"/><path fill="none" stroke="#1f77b4" paint-order="fill stroke markers" d=" M 114 163.51136363636363 L 212.2394723490614 163.51136363636363 L 212.2394723490614 196.03409090909088 L 114 196.03409090909088 L 114 163.51136363636363 Z" stroke-miterlimit="10"/><rect fill="#1f77b4" stroke="none" x="114" y="120.14772727272725" width="82.26281075596145" height="32.52272727272725"/><path fill="none" stroke="#1f77b4" paint-order="fill stroke markers" d=" M 114 120.14772727272725 L 196.26281075596145 120.14772727272725 L 196.26281075596145 152.6704545454545 L 114 152.6704545454545 L 114 120.14772727272725 Z" stroke-miterlimit="10"/><rect fill="#1f77b4" stroke="none" x="114" y="76.78409090909088" width="48.609842719431754" height="32.52272727272725"/><path fill="none" stroke="#1f77b4" paint-order="fill stroke markers" d=" M 114 76.78409090909088 L 162.60984271943175 76.78409090909088 L 162.60984271943175 109.30681818181813 L 114 109.30681818181813 L 114 76.78409090909088 Z" stroke-miterlimit="10"/><rect fill="#1f77b4" stroke="none" x="114" y="33.420454545454476" width="35.01268391679352" height="32.52272727272731"/><path fill="none" stroke="#1f77b4" paint-order="fill stroke markers" d=" M 114 33.420454545454476 L 149.01268391679352 33.420454545454476 L 149.01268391679352 65.94318181818178 L 114 65.94318181818178 L 114 33.420454545454476 Z" stroke-miterlimit="10"/></g><g fill="#444444"><path fill="" stroke="none" d=""/><g transform="translate(553.6702181633689,481.3181818181818) rotate(0,0,0)"><path fill="none" stroke="none"/><text fill="" stroke="none" font-family="helvetica" font-size="8pt" font-style="normal" font-weight="normal" text-decoration="normal" x="0" y="0" text-anchor="start" dominant-baseline="text-after-edge">27.25%</text></g></g><g fill="#444444"><path fill="" stroke="none" d=""/><g transform="translate(527.1557584982243,437.95454545454544) rotate(0,0,0)"><path fill="none" stroke="none"/><text fill="" stroke="none" font-family="helvetica" font-size="8pt" font-style="normal" font-weight="normal" text-decoration="normal" x="0" y="0" text-anchor="start" dominant-baseline="text-after-edge">25.57%</text></g></g><g fill="#444444"><path fill="" stroke="none" d=""/><g transform="translate(481.2653475393202,394.59090909090907) rotate(0,0,0)"><path fill="none" stroke="none"/><text fill="" stroke="none" font-family="helvetica" font-size="8pt" font-style="normal" font-weight="normal" text-decoration="normal" x="0" y="0" text-anchor="start" dominant-baseline="text-after-edge">22.66%</text></g></g><g fill="#444444"><path fill="" stroke="none" d=""/><g transform="translate(404.78132927448,351.22727272727275) rotate(0,0,0)"><path fill="none" stroke="none"/><text fill="" stroke="none" font-family="helvetica" font-size="8pt" font-style="normal" font-weight="normal" text-decoration="normal" x="0" y="0" text-anchor="start" dominant-baseline="text-after-edge">17.81%</text></g></g><g fill="#444444"><path fill="" stroke="none" d=""/><g transform="translate(395.2633181126332,307.8636363636364) rotate(0,0,0)"><path fill="none" stroke="none"/><text fill="" stroke="none" font-family="helvetica" font-size="8pt" font-style="normal" font-weight="normal" text-decoration="normal" x="0" y="0" text-anchor="start" dominant-baseline="text-after-edge">17.21%</text></g></g><g fill="#444444"><path fill="" stroke="none" d=""/><g transform="translate(249.09386098427194,264.5) rotate(0,0,0)"><path fill="none" stroke="none"/><text fill="" stroke="none" font-family="helvetica" font-size="8pt" font-style="normal" font-weight="normal" text-decoration="normal" x="0" y="0" text-anchor="start" dominant-baseline="text-after-edge">7.93%</text></g></g><g fill="#444444"><path fill="" stroke="none" d=""/><g transform="translate(236.51648909183157,221.13636363636363) rotate(0,0,0)"><path fill="none" stroke="none"/><text fill="" stroke="none" font-family="helvetica" font-size="8pt" font-style="normal" font-weight="normal" text-decoration="normal" x="0" y="0" text-anchor="start" dominant-baseline="text-after-edge">7.14%</text></g></g><g fill="#444444"><path fill="" stroke="none" d=""/><g transform="translate(222.2394723490614,177.77272727272725) rotate(0,0,0)"><path fill="none" stroke="none"/><text fill="" stroke="none" font-family="helvetica" font-size="8pt" font-style="normal" font-weight="normal" text-decoration="normal" x="0" y="0" text-anchor="start" dominant-baseline="text-after-edge">6.23%</text></g></g><g fill="#444444"><path fill="" stroke="none" d=""/><g transform="translate(206.26281075596145,134.40909090909088) rotate(0,0,0)"><path fill="none" stroke="none"/><text fill="" stroke="none" font-family="helvetica" font-size="8pt" font-style="normal" font-weight="normal" text-decoration="normal" x="0" y="0" text-anchor="start" dominant-baseline="text-after-edge">5.22%</text></g></g><g fill="#444444"><path fill="" stroke="none" d=""/><g transform="translate(172.60984271943175,91.0454545454545) rotate(0,0,0)"><path fill="none" stroke="none"/><text fill="" stroke="none" font-family="helvetica" font-size="8pt" font-style="normal" font-weight="normal" text-decoration="normal" x="0" y="0" text-anchor="start" dominant-baseline="text-after-edge">3.08%</text></g></g><g fill="#444444"><path fill="" stroke="none" d=""/><g transform="translate(159.01268391679352,47.68181818181813) rotate(0,0,0)"><path fill="none" stroke="none"/><text fill="" stroke="none" font-family="helvetica" font-size="8pt" font-style="normal" font-weight="normal" text-decoration="normal" x="0" y="0" text-anchor="start" dominant-baseline="text-after-edge">2.22%</text></g></g><g fill="#444444"><path fill="" stroke="none" d=""/><g transform="translate(553.6702181633689,495.3181818181818) rotate(0,0,0)"><path fill="none" stroke="none"/><text fill="" stroke="none" font-family="helvetica" font-size="8pt" font-style="normal" font-weight="normal" text-decoration="normal" x="0" y="0" text-anchor="start" dominant-baseline="text-after-edge">1264</text></g></g><g fill="#444444"><path fill="" stroke="none" d=""/><g transform="translate(527.1557584982243,451.95454545454544) rotate(0,0,0)"><path fill="none" stroke="none"/><text fill="" stroke="none" font-family="helvetica" font-size="8pt" font-style="normal" font-weight="normal" text-decoration="normal" x="0" y="0" text-anchor="start" dominant-baseline="text-after-edge">1186</text></g></g><g fill="#444444"><path fill="" stroke="none" d=""/><g transform="translate(481.2653475393202,408.59090909090907) rotate(0,0,0)"><path fill="none" stroke="none"/><text fill="" stroke="none" font-family="helvetica" font-size="8pt" font-style="normal" font-weight="normal" text-decoration="normal" x="0" y="0" text-anchor="start" dominant-baseline="text-after-edge">1051</text></g></g><g fill="#444444"><path fill="" stroke="none" d=""/><g transform="translate(404.78132927448,365.22727272727275) rotate(0,0,0)"><path fill="none" stroke="none"/><text fill="" stroke="none" font-family="helvetica" font-size="8pt" font-style="normal" font-weight="normal" text-decoration="normal" x="0" y="0" text-anchor="start" dominant-baseline="text-after-edge">826</text></g></g><g fill="#444444"><path fill="" stroke="none" d=""/><g transform="translate(395.2633181126332,321.8636363636364) rotate(0,0,0)"><path fill="none" stroke="none"/><text fill="" stroke="none" font-family="helvetica" font-size="8pt" font-style="normal" font-weight="normal" text-decoration="normal" x="0" y="0" text-anchor="start" dominant-baseline="text-after-edge">798</text></g></g><g fill="#444444"><path fill="" stroke="none" d=""/><g transform="translate(249.09386098427194,278.5) rotate(0,0,0)"><path fill="none" stroke="none"/><text fill="" stroke="none" font-family="helvetica" font-size="8pt" font-style="normal" font-weight="normal" text-decoration="normal" x="0" y="0" text-anchor="start" dominant-baseline="text-after-edge">368</text></g></g><g fill="#444444"><path fill="" stroke="none" d=""/><g transform="translate(236.51648909183157,235.13636363636363) rotate(0,0,0)"><path fill="none" stroke="none"/><text fill="" stroke="none" font-family="helvetica" font-size="8pt" font-style="normal" font-weight="normal" text-decoration="normal" x="0" y="0" text-anchor="start" dominant-baseline="text-after-edge">331</text></g></g><g fill="#444444"><path fill="" stroke="none" d=""/><g transform="translate(222.2394723490614,191.77272727272725) rotate(0,0,0)"><path fill="none" stroke="none"/><text fill="" stroke="none" font-family="helvetica" font-size="8pt" font-style="normal" font-weight="normal" text-decoration="normal" x="0" y="0" text-anchor="start" dominant-baseline="text-after-edge">289</text></g></g><g fill="#444444"><path fill="" stroke="none" d=""/><g transform="translate(206.26281075596145,148.40909090909088) rotate(0,0,0)"><path fill="none" stroke="none"/><text fill="" stroke="none" font-family="helvetica" font-size="8pt" font-style="normal" font-weight="normal" text-decoration="normal" x="0" y="0" text-anchor="start" dominant-baseline="text-after-edge">242</text></g></g><g fill="#444444"><path fill="" stroke="none" d=""/><g transform="translate(172.60984271943175,105.0454545454545) rotate(0,0,0)"><path fill="none" stroke="none"/><text fill="" stroke="none" font-family="helvetica" font-size="8pt" font-style="normal" font-weight="normal" text-decoration="normal" x="0" y="0" text-anchor="start" dominant-baseline="text-after-edge">143</text></g></g><g fill="#444444"><path fill="" stroke="none" d=""/><g transform="translate(159.01268391679352,61.68181818181813) rotate(0,0,0)"><path fill="none" stroke="none"/><text fill="" stroke="none" font-family="helvetica" font-size="8pt" font-style="normal" font-weight="normal" text-decoration="normal" x="0" y="0" text-anchor="start" dominant-baseline="text-after-edge">103</text></g></g></g><g/><g><g fill="#444444"><path fill="none" stroke="black" paint-order="fill stroke markers" d=" M 114 505 L 650 505" stroke-miterlimit="10"/><path fill="none" stroke="black" paint-order="fill stroke markers" d=" M 114 511 L 114 503" stroke-miterlimit="10"/><path fill="none" stroke="black" paint-order="fill stroke markers" d=" M 182 511 L 182 503" stroke-miterlimit="10"/><path fill="none" stroke="black" paint-order="fill stroke markers" d=" M 250 511 L 250 503" stroke-miterlimit="10"/><path fill="none" stroke="black" paint-order="fill stroke markers" d=" M 318 511 L 318 503" stroke-miterlimit="10"/><path fill="none" stroke="black" paint-order="fill stroke markers" d=" M 386 511 L 386 503" stroke-miterlimit="10"/><path fill="none" stroke="black" paint-order="fill stroke markers" d=" M 454 511 L 454 503" stroke-miterlimit="10"/><path fill="none" stroke="black" paint-order="fill stroke markers" d=" M 522 511 L 522 503" stroke-miterlimit="10"/><path fill="none" stroke="black" paint-order="fill stroke markers" d=" M 590 511 L 590 503" stroke-miterlimit="10"/><path fill="none" stroke="black" paint-order="fill stroke markers" d=" M 114 509 L 114 505" stroke-miterlimit="10"/><path fill="none" stroke="black" paint-order="fill stroke markers" d=" M 128 509 L 128 505" stroke-miterlimit="10"/><path fill="none" stroke="black" paint-order="fill stroke markers" d=" M 141 509 L 141 505" stroke-miterlimit="10"/><path fill="none" stroke="black" paint-order="fill stroke markers" d=" M 155 509 L 155 505" stroke-miterlimit="10"/><path fill="none" stroke="black" paint-order="fill stroke markers" d=" M 168 509 L 168 505" stroke-miterlimit="10"/><path fill="none" stroke="black" paint-order="fill stroke markers" d=" M 182 509 L 182 505" stroke-miterlimit="10"/><path fill="none" stroke="black" paint-order="fill stroke markers" d=" M 196 509 L 196 505" stroke-miterlimit="10"/><path fill="none" stroke="black" paint-order="fill stroke markers" d=" M 209 509 L 209 505" stroke-miterlimit="10"/><path fill="none" stroke="black" paint-order="fill stroke markers" d=" M 223 509 L 223 505" stroke-miterlimit="10"/><path fill="none" stroke="black" paint-order="fill stroke markers" d=" M 236 509 L 236 505" stroke-miterlimit="10"/><path fill="none" stroke="black" paint-order="fill stroke markers" d=" M 250 509 L 250 505" stroke-miterlimit="10"/><path fill="none" stroke="black" paint-order="fill stroke markers" d=" M 264 509 L 264 505" stroke-miterlimit="10"/><path fill="none" stroke="black" paint-order="fill stroke markers" d=" M 277 509 L 277 505" stroke-miterlimit="10"/><path fill="none" stroke="black" paint-order="fill stroke markers" d=" M 291 509 L 291 505" stroke-miterlimit="10"/><path fill="none" stroke="black" paint-order="fill stroke markers" d=" M 304 509 L 304 505" stroke-miterlimit="10"/><path fill="none" stroke="black" paint-order="fill stroke markers" d=" M 318 509 L 318 505" stroke-miterlimit="10"/><path fill="none" stroke="black" paint-order="fill stroke markers" d=" M 332 509 L 332 505" stroke-miterlimit="10"/><path fill="none" stroke="black" paint-order="fill stroke markers" d=" M 345 509 L 345 505" stroke-miterlimit="10"/><path fill="none" stroke="black" paint-order="fill stroke markers" d=" M 359 509 L 359 505" stroke-miterlimit="10"/><path fill="none" stroke="black" paint-order="fill stroke markers" d=" M 372 509 L 372 505" stroke-miterlimit="10"/><path fill="none" stroke="black" paint-order="fill stroke markers" d=" M 386 509 L 386 505" stroke-miterlimit="10"/><path fill="none" stroke="black" paint-order="fill stroke markers" d=" M 400 509 L 400 505" stroke-miterlimit="10"/><path fill="none" stroke="black" paint-order="fill stroke markers" d=" M 413 509 L 413 505" stroke-miterlimit="10"/><path fill="none" stroke="black" paint-order="fill stroke markers" d=" M 427 509 L 427 505" stroke-miterlimit="10"/><path fill="none" stroke="black" paint-order="fill stroke markers" d=" M 440 509 L 440 505" stroke-miterlimit="10"/><path fill="none" stroke="black" paint-order="fill stroke markers" d=" M 454 509 L 454 505" stroke-miterlimit="10"/><path fill="none" stroke="black" paint-order="fill stroke markers" d=" M 468 509 L 468 505" stroke-miterlimit="10"/><path fill="none" stroke="black" paint-order="fill stroke markers" d=" M 481 509 L 481 505" stroke-miterlimit="10"/><path fill="none" stroke="black" paint-order="fill stroke markers" d=" M 495 509 L 495 505" stroke-miterlimit="10"/><path fill="none" stroke="black" paint-order="fill stroke markers" d=" M 508 509 L 508 505" stroke-miterlimit="10"/><path fill="none" stroke="black" paint-order="fill stroke markers" d=" M 522 509 L 522 505" stroke-miterlimit="10"/><path fill="none" stroke="black" paint-order="fill stroke markers" d=" M 536 509 L 536 505" stroke-miterlimit="10"/><path fill="none" stroke="black" paint-order="fill stroke markers" d=" M 549 509 L 549 505" stroke-miterlimit="10"/><path fill="none" stroke="black" paint-order="fill stroke markers" d=" M 563 509 L 563 505" stroke-miterlimit="10"/><path fill="none" stroke="black" paint-order="fill stroke markers" d=" M 576 509 L 576 505" stroke-miterlimit="10"/><path fill="none" stroke="black" paint-order="fill stroke markers" d=" M 590 509 L 590 505" stroke-miterlimit="10"/><path fill="none" stroke="black" paint-order="fill stroke markers" d=" M 603 509 L 603 505" stroke-miterlimit="10"/><path fill="none" stroke="black" paint-order="fill stroke markers" d=" M 617 509 L 617 505" stroke-miterlimit="10"/><path fill="none" stroke="black" paint-order="fill stroke markers" d=" M 631 509 L 631 505" stroke-miterlimit="10"/><path fill="" stroke="black" paint-order="fill stroke markers" d=" M 644 509 L 644 505" stroke-miterlimit="10"/><g transform="translate(114,516) rotate(0,0,0)"><text fill="" stroke="none" font-family="helvetica" font-size="8pt" font-style="normal" font-weight="normal" text-decoration="normal" x="0" y="0" text-anchor="middle" dominant-baseline="hanging">0</text><g transform="rotate(0,0,0) translate(-114,-516) translate(182,516) rotate(0,0,0)"><text fill="" stroke="none" font-family="helvetica" font-size="8pt" font-style="normal" font-weight="normal" text-decoration="normal" x="0" y="0" text-anchor="middle" dominant-baseline="hanging">200</text><g transform="rotate(0,0,0) translate(-182,-516) translate(250,516) rotate(0,0,0)"><text fill="" stroke="none" font-family="helvetica" font-size="8pt" font-style="normal" font-weight="normal" text-decoration="normal" x="0" y="0" text-anchor="middle" dominant-baseline="hanging">400</text><g transform="rotate(0,0,0) translate(-250,-516) translate(318,516) rotate(0,0,0)"><text fill="" stroke="none" font-family="helvetica" font-size="8pt" font-style="normal" font-weight="normal" text-decoration="normal" x="0" y="0" text-anchor="middle" dominant-baseline="hanging">600</text><g transform="rotate(0,0,0) translate(-318,-516) translate(386,516) rotate(0,0,0)"><text fill="" stroke="none" font-family="helvetica" font-size="8pt" font-style="normal" font-weight="normal" text-decoration="normal" x="0" y="0" text-anchor="middle" dominant-baseline="hanging">800</text><g transform="rotate(0,0,0) translate(-386,-516) translate(454,516) rotate(0,0,0)"><text fill="" stroke="none" font-family="helvetica" font-size="8pt" font-style="normal" font-weight="normal" text-decoration="normal" x="0" y="0" text-anchor="middle" dominant-baseline="hanging">1000</text><g transform="rotate(0,0,0) translate(-454,-516) translate(522,516) rotate(0,0,0)"><text fill="" stroke="none" font-family="helvetica" font-size="8pt" font-style="normal" font-weight="normal" text-decoration="normal" x="0" y="0" text-anchor="middle" dominant-baseline="hanging">1200</text><g transform="rotate(0,0,0) translate(-522,-516) translate(590,516) rotate(0,0,0)"><text fill="" stroke="none" font-family="helvetica" font-size="8pt" font-style="normal" font-weight="normal" text-decoration="normal" x="0" y="0" text-anchor="middle" dominant-baseline="hanging">1400</text><g transform="rotate(0,0,0) translate(-590,-516) translate(382,534) rotate(0,0,0)"><text fill="" stroke="none" font-family="helvetica" font-size="10pt" font-style="italic" font-weight="normal" text-decoration="normal" x="0" y="0" text-anchor="middle" dominant-baseline="hanging">Respondents</text><g transform="rotate(0,0,0) translate(-382,-534)"/></g></g></g></g></g></g></g></g></g></g><g fill="#444444"><path fill="none" stroke="black" paint-order="fill stroke markers" d=" M 114 505 L 114 28" stroke-miterlimit="10"/><path fill="none" stroke="black" paint-order="fill stroke markers" d=" M 108 483 L 116 483" stroke-miterlimit="10"/><path fill="none" stroke="black" paint-order="fill stroke markers" d=" M 108 440 L 116 440" stroke-miterlimit="10"/><path fill="none" stroke="black" paint-order="fill stroke markers" d=" M 108 397 L 116 397" stroke-miterlimit="10"/><path fill="none" stroke="black" paint-order="fill stroke markers" d=" M 108 353 L 116 353" stroke-miterlimit="10"/><path fill="none" stroke="black" paint-order="fill stroke markers" d=" M 108 310 L 116 310" stroke-miterlimit="10"/><path fill="none" stroke="black" paint-order="fill stroke markers" d=" M 108 267 L 116 267" stroke-miterlimit="10"/><path fill="none" stroke="black" paint-order="fill stroke markers" d=" M 108 223 L 116 223" stroke-miterlimit="10"/><path fill="none" stroke="black" paint-order="fill stroke markers" d=" M 108 180 L 116 180" stroke-miterlimit="10"/><path fill="none" stroke="black" paint-order="fill stroke markers" d=" M 108 136 L 116 136" stroke-miterlimit="10"/><path fill="none" stroke="black" paint-order="fill stroke markers" d=" M 108 93 L 116 93" stroke-miterlimit="10"/><path fill="" stroke="black" paint-order="fill stroke markers" d=" M 108 50 L 116 50" stroke-miterlimit="10"/><g transform="translate(103,483) rotate(0,0,0)"><text fill="" stroke="none" font-family="helvetica" font-size="8pt" font-style="normal" font-weight="normal" text-decoration="normal" x="0" y="0" text-anchor="end" dominant-baseline="central">Branding</text><g transform="rotate(0,0,0) translate(-103,-483) translate(103,440) rotate(0,0,0)"><text fill="" stroke="none" font-family="helvetica" font-size="8pt" font-style="normal" font-weight="normal" text-decoration="normal" x="0" y="0" text-anchor="end" dominant-baseline="central">Digital</text><g transform="rotate(0,0,0) translate(-103,-440) translate(103,397) rotate(0,0,0)"><text fill="" stroke="none" font-family="helvetica" font-size="8pt" font-style="normal" font-weight="normal" text-decoration="normal" x="0" y="0" text-anchor="end" dominant-baseline="central">Print</text><g transform="rotate(0,0,0) translate(-103,-397) translate(103,353) rotate(0,0,0)"><text fill="" stroke="none" font-family="helvetica" font-size="8pt" font-style="normal" font-weight="normal" text-decoration="normal" x="0" y="0" text-anchor="end" dominant-baseline="central">Advertising</text><g transform="rotate(0,0,0) translate(-103,-353) translate(103,310) rotate(0,0,0)"><text fill="" stroke="none" font-family="helvetica" font-size="8pt" font-style="normal" font-weight="normal" text-decoration="normal" x="0" y="0" text-anchor="end" dominant-baseline="central">Strategy</text><g transform="rotate(0,0,0) translate(-103,-310) translate(103,267) rotate(0,0,0)"><text fill="" stroke="none" font-family="helvetica" font-size="8pt" font-style="normal" font-weight="normal" text-decoration="normal" x="0" y="0" text-anchor="end" dominant-baseline="central">Product Design</text><g transform="rotate(0,0,0) translate(-103,-267) translate(103,223) rotate(0,0,0)"><text fill="" stroke="none" font-family="helvetica" font-size="8pt" font-style="normal" font-weight="normal" text-decoration="normal" x="0" y="0" text-anchor="end" dominant-baseline="central">Innovation</text><g transform="rotate(0,0,0) translate(-103,-223) translate(103,180) rotate(0,0,0)"><text fill="" stroke="none" font-family="helvetica" font-size="8pt" font-style="normal" font-weight="normal" text-decoration="normal" x="0" y="0" text-anchor="end" dominant-baseline="central">Social Impact</text><g transform="rotate(0,0,0) translate(-103,-180) translate(103,136) rotate(0,0,0)"><text fill="" stroke="none" font-family="helvetica" font-size="8pt" font-style="normal" font-weight="normal" text-decoration="normal" x="0" y="0" text-anchor="end" dominant-baseline="central">Service Design</text><g transform="rotate(0,0,0) translate(-103,-136) translate(103,93) rotate(0,0,0)"><text fill="" stroke="none" font-family="helvetica" font-size="8pt" font-style="normal" font-weight="normal" text-decoration="normal" x="0" y="0" text-anchor="end" dominant-baseline="central">None of these</text><g transform="rotate(0,0,0) translate(-103,-93) translate(103,50) rotate(0,0,0)"><text fill="" stroke="none" font-family="helvetica" font-size="8pt" font-style="normal" font-weight="normal" text-decoration="normal" x="0" y="0" text-anchor="end" dominant-baseline="central">Broadcast</text><g transform="rotate(0,0,0) translate(-103,-50) translate(15,267) rotate(-90,0,0)"><text fill="" stroke="none" font-family="helvetica" font-size="10pt" font-style="italic" font-weight="normal" text-decoration="normal" x="0" y="0" text-anchor="middle" dominant-baseline="alphabetic">Categories</text><g transform="rotate(90,0,0) translate(-15,-267)"/></g></g></g></g></g></g></g></g></g></g></g></g></g><g fill="#444444"><path fill="" stroke="none" d=""/><g transform="translate(114,23)"><path fill="none" stroke="none"/><text fill="" stroke="none" font-family="helvetica" font-size="10pt" font-style="normal" font-weight="bold" text-decoration="normal" x="0" y="0" text-anchor="start" dominant-baseline="text-after-edge">AIGA-Only: My company specializes in:</text></g></g></g></g></g></svg>