<svg version="1.1" xmlns="http://www.w3.org/2000/svg" xmlns:xlink="http://www.w3.org/1999/xlink" width="700" height="400" style="width: 700px; height: 400px;"><defs/><g><g transform="scale(1,1) translate(0.5,0.5)"><rect fill="#FFFFFF" stroke="none" x="0" y="0" width="700" height="400"/><rect fill="#ffffff" stroke="none" x="0" y="0" width="700" height="400"/><rect fill="#FFFFFF" stroke="none" x="144" y="28" width="506" height="327"/><rect fill="#ffffff" stroke="none" x="144" y="28" width="506" height="327"/><g><rect fill="none" stroke="#e5e5e5" x="144" y="28" width="506" height="327" stroke-miterlimit="10"/></g><g><g><path fill="none" stroke="#e5e5e5" paint-order="fill stroke markers" d=" M 212 355 L 212 28" stroke-miterlimit="10"/><path fill="none" stroke="#e5e5e5" paint-order="fill stroke markers" d=" M 280 355 L 280 28" stroke-miterlimit="10"/><path fill="none" stroke="#e5e5e5" paint-order="fill stroke markers" d=" M 349 355 L 349 28" stroke-miterlimit="10"/><path fill="none" stroke="#e5e5e5" paint-order="fill stroke markers" d=" M 417 355 L 417 28" stroke-miterlimit="10"/><path fill="none" stroke="#e5e5e5" paint-order="fill stroke markers" d=" M 485 355 L 485 28" stroke-miterlimit="10"/><path fill="none" stroke="#e5e5e5" paint-order="fill stroke markers" d=" M 553 355 L 553 28" stroke-miterlimit="10"/><path fill="none" stroke="#e5e5e5" paint-order="fill stroke markers" d=" M 622 355 L 622 28" stroke-miterlimit="10"/></g><g><path fill="none" stroke="#e5e5e5" paint-order="fill stroke markers" d=" M 144 335 L 650 335" stroke-miterlimit="10"/><path fill="none" stroke="#e5e5e5" paint-order="fill stroke markers" d=" M 144 294 L 650 294" stroke-miterlimit="10"/><path fill="none" stroke="#e5e5e5" paint-order="fill stroke markers" d=" M 144 253 L 650 253" stroke-miterlimit="10"/><path fill="none" stroke="#e5e5e5" paint-order="fill stroke markers" d=" M 144 212 L 650 212" stroke-miterlimit="10"/><path fill="none" stroke="#e5e5e5" paint-order="fill stroke markers" d=" M 144 171 L 650 171" stroke-miterlimit="10"/><path fill="none" stroke="#e5e5e5" paint-order="fill stroke markers" d=" M 144 130 L 650 130" stroke-miterlimit="10"/><path fill="none" stroke="#e5e5e5" paint-order="fill stroke markers" d=" M 144 89 L 650 89" stroke-miterlimit="10"/><path fill="none" stroke="#e5e5e5" paint-order="fill stroke markers" d=" M 144 48 L 650 48" stroke-miterlimit="10"/></g><g><path fill="none" stroke="none"/><rect fill="#1f77b4" stroke="none" x="144" y="319.234375" width="404.6089536138079" height="30.65625"/><path fill="none" stroke="#1f77b4" paint-order="fill stroke markers" d=" M 144 319.234375 L 548.6089536138079 319.234375 L 548.6089536138079 349.890625 L 144 349.890625 L 144 319.234375 Z" stroke-miterlimit="10"/><rect fill="#1f77b4" stroke="none" x="144" y="278.359375" width="360.2588996763754" height="30.65625"/><path fill="none" stroke="#1f77b4" paint-order="fill stroke markers" d=" M 144 278.359375 L 504.2588996763754 278.359375 L 504.2588996763754 309.015625 L 144 309.015625 L 144 278.359375 Z" stroke-miterlimit="10"/><rect fill="#1f77b4" stroke="none" x="144" y="237.484375" width="299.87459546925567" height="30.65625"/><path fill="none" stroke="#1f77b4" paint-order="fill stroke markers" d=" M 144 237.484375 L 443.87459546925567 237.484375 L 443.87459546925567 268.140625 L 144 268.140625 L 144 237.484375 Z" stroke-miterlimit="10"/><rect fill="#1f77b4" stroke="none" x="144" y="196.609375" width="141.92017259978422" height="30.65625"/><path fill="none" stroke="#1f77b4" paint-order="fill stroke markers" d=" M 144 196.609375 L 285.9201725997842 196.609375 L 285.9201725997842 227.265625 L 144 227.265625 L 144 196.609375 Z" stroke-miterlimit="10"/><rect fill="#1f77b4" stroke="none" x="144" y="155.734375" width="129.97977346278316" height="30.65625"/><path fill="none" stroke="#1f77b4" paint-order="fill stroke markers" d=" M 144 155.734375 L 273.97977346278316 155.734375 L 273.97977346278316 186.390625 L 144 186.390625 L 144 155.734375 Z" stroke-miterlimit="10"/><rect fill="#1f77b4" stroke="none" x="144" y="114.859375" width="112.58090614886731" height="30.65625"/><path fill="none" stroke="#1f77b4" paint-order="fill stroke markers" d=" M 144 114.859375 L 256.5809061488673 114.859375 L 256.5809061488673 145.515625 L 144 145.515625 L 144 114.859375 Z" stroke-miterlimit="10"/><rect fill="#1f77b4" stroke="none" x="144" y="73.984375" width="97.91127292340883" height="30.65625"/><path fill="none" stroke="#1f77b4" paint-order="fill stroke markers" d=" M 144 73.984375 L 241.91127292340883 73.984375 L 241.91127292340883 104.640625 L 144 104.640625 L 144 73.984375 Z" stroke-miterlimit="10"/><rect fill="#1f77b4" stroke="none" x="144" y="33.109375" width="34.115426105717376" height="30.65625"/><path fill="none" stroke="#1f77b4" paint-order="fill stroke markers" d=" M 144 33.109375 L 178.11542610571738 33.109375 L 178.11542610571738 63.765625 L 144 63.765625 L 144 33.109375 Z" stroke-miterlimit="10"/></g><g fill="#444444"><path fill="" stroke="none" d=""/><g transform="translate(558.6089536138079,332.5625) rotate(0,0,0)"><path fill="none" stroke="none"/><text fill="" stroke="none" font-family="helvetica" font-size="8pt" font-style="normal" font-weight="normal" text-decoration="normal" x="0" y="0" text-anchor="start" dominant-baseline="text-after-edge">25.57%</text></g></g><g fill="#444444"><path fill="" stroke="none" d=""/><g transform="translate(514.2588996763754,291.6875) rotate(0,0,0)"><path fill="none" stroke="none"/><text fill="" stroke="none" font-family="helvetica" font-size="8pt" font-style="normal" font-weight="normal" text-decoration="normal" x="0" y="0" text-anchor="start" dominant-baseline="text-after-edge">22.77%</text></g></g><g fill="#444444"><path fill="" stroke="none" d=""/><g transform="translate(453.87459546925567,250.8125) rotate(0,0,0)"><path fill="none" stroke="none"/><text fill="" stroke="none" font-family="helvetica" font-size="8pt" font-style="normal" font-weight="normal" text-decoration="normal" x="0" y="0" text-anchor="start" dominant-baseline="text-after-edge">18.95%</text></g></g><g fill="#444444"><path fill="" stroke="none" d=""/><g transform="translate(295.9201725997842,209.9375) rotate(0,0,0)"><path fill="none" stroke="none"/><text fill="" stroke="none" font-family="helvetica" font-size="8pt" font-style="normal" font-weight="normal" text-decoration="normal" x="0" y="0" text-anchor="start" dominant-baseline="text-after-edge">8.97%</text></g></g><g fill="#444444"><path fill="" stroke="none" d=""/><g transform="translate(283.97977346278316,169.0625) rotate(0,0,0)"><path fill="none" stroke="none"/><text fill="" stroke="none" font-family="helvetica" font-size="8pt" font-style="normal" font-weight="normal" text-decoration="normal" x="0" y="0" text-anchor="start" dominant-baseline="text-after-edge">8.21%</text></g></g><g fill="#444444"><path fill="" stroke="none" d=""/><g transform="translate(266.5809061488673,128.1875) rotate(0,0,0)"><path fill="none" stroke="none"/><text fill="" stroke="none" font-family="helvetica" font-size="8pt" font-style="normal" font-weight="normal" text-decoration="normal" x="0" y="0" text-anchor="start" dominant-baseline="text-after-edge">7.12%</text></g></g><g fill="#444444"><path fill="" stroke="none" d=""/><g transform="translate(251.91127292340883,87.3125) rotate(0,0,0)"><path fill="none" stroke="none"/><text fill="" stroke="none" font-family="helvetica" font-size="8pt" font-style="normal" font-weight="normal" text-decoration="normal" x="0" y="0" text-anchor="start" dominant-baseline="text-after-edge">6.19%</text></g></g><g fill="#444444"><path fill="" stroke="none" d=""/><g transform="translate(188.11542610571738,46.4375) rotate(0,0,0)"><path fill="none" stroke="none"/><text fill="" stroke="none" font-family="helvetica" font-size="8pt" font-style="normal" font-weight="normal" text-decoration="normal" x="0" y="0" text-anchor="start" dominant-baseline="text-after-edge">2.16%</text></g></g><g fill="#444444"><path fill="" stroke="none" d=""/><g transform="translate(558.6089536138079,346.5625) rotate(0,0,0)"><path fill="none" stroke="none"/><text fill="" stroke="none" font-family="helvetica" font-size="8pt" font-style="normal" font-weight="normal" text-decoration="normal" x="0" y="0" text-anchor="start" dominant-baseline="text-after-edge">1186</text></g></g><g fill="#444444"><path fill="" stroke="none" d=""/><g transform="translate(514.2588996763754,305.6875) rotate(0,0,0)"><path fill="none" stroke="none"/><text fill="" stroke="none" font-family="helvetica" font-size="8pt" font-style="normal" font-weight="normal" text-decoration="normal" x="0" y="0" text-anchor="start" dominant-baseline="text-after-edge">1056</text></g></g><g fill="#444444"><path fill="" stroke="none" d=""/><g transform="translate(453.87459546925567,264.8125) rotate(0,0,0)"><path fill="none" stroke="none"/><text fill="" stroke="none" font-family="helvetica" font-size="8pt" font-style="normal" font-weight="normal" text-decoration="normal" x="0" y="0" text-anchor="start" dominant-baseline="text-after-edge">879</text></g></g><g fill="#444444"><path fill="" stroke="none" d=""/><g transform="translate(295.9201725997842,223.9375) rotate(0,0,0)"><path fill="none" stroke="none"/><text fill="" stroke="none" font-family="helvetica" font-size="8pt" font-style="normal" font-weight="normal" text-decoration="normal" x="0" y="0" text-anchor="start" dominant-baseline="text-after-edge">416</text></g></g><g fill="#444444"><path fill="" stroke="none" d=""/><g transform="translate(283.97977346278316,183.0625) rotate(0,0,0)"><path fill="none" stroke="none"/><text fill="" stroke="none" font-family="helvetica" font-size="8pt" font-style="normal" font-weight="normal" text-decoration="normal" x="0" y="0" text-anchor="start" dominant-baseline="text-after-edge">381</text></g></g><g fill="#444444"><path fill="" stroke="none" d=""/><g transform="translate(266.5809061488673,142.1875) rotate(0,0,0)"><path fill="none" stroke="none"/><text fill="" stroke="none" font-family="helvetica" font-size="8pt" font-style="normal" font-weight="normal" text-decoration="normal" x="0" y="0" text-anchor="start" dominant-baseline="text-after-edge">330</text></g></g><g fill="#444444"><path fill="" stroke="none" d=""/><g transform="translate(251.91127292340883,101.3125) rotate(0,0,0)"><path fill="none" stroke="none"/><text fill="" stroke="none" font-family="helvetica" font-size="8pt" font-style="normal" font-weight="normal" text-decoration="normal" x="0" y="0" text-anchor="start" dominant-baseline="text-after-edge">287</text></g></g><g fill="#444444"><path fill="" stroke="none" d=""/><g transform="translate(188.11542610571738,60.4375) rotate(0,0,0)"><path fill="none" stroke="none"/><text fill="" stroke="none" font-family="helvetica" font-size="8pt" font-style="normal" font-weight="normal" text-decoration="normal" x="0" y="0" text-anchor="start" dominant-baseline="text-after-edge">100</text></g></g></g><g/><g><g fill="#444444"><path fill="none" stroke="black" paint-order="fill stroke markers" d=" M 144 355 L 650 355" stroke-miterlimit="10"/><path fill="none" stroke="black" paint-order="fill stroke markers" d=" M 144 361 L 144 353" stroke-miterlimit="10"/><path fill="none" stroke="black" paint-order="fill stroke markers" d=" M 212 361 L 212 353" stroke-miterlimit="10"/><path fill="none" stroke="black" paint-order="fill stroke markers" d=" M 280 361 L 280 353" stroke-miterlimit="10"/><path fill="none" stroke="black" paint-order="fill stroke markers" d=" M 349 361 L 349 353" stroke-miterlimit="10"/><path fill="none" stroke="black" paint-order="fill stroke markers" d=" M 417 361 L 417 353" stroke-miterlimit="10"/><path fill="none" stroke="black" paint-order="fill stroke markers" d=" M 485 361 L 485 353" stroke-miterlimit="10"/><path fill="none" stroke="black" paint-order="fill stroke markers" d=" M 553 361 L 553 353" stroke-miterlimit="10"/><path fill="none" stroke="black" paint-order="fill stroke markers" d=" M 622 361 L 622 353" stroke-miterlimit="10"/><path fill="none" stroke="black" paint-order="fill stroke markers" d=" M 144 359 L 144 355" stroke-miterlimit="10"/><path fill="none" stroke="black" paint-order="fill stroke markers" d=" M 158 359 L 158 355" stroke-miterlimit="10"/><path fill="none" stroke="black" paint-order="fill stroke markers" d=" M 171 359 L 171 355" stroke-miterlimit="10"/><path fill="none" stroke="black" paint-order="fill stroke markers" d=" M 185 359 L 185 355" stroke-miterlimit="10"/><path fill="none" stroke="black" paint-order="fill stroke markers" d=" M 199 359 L 199 355" stroke-miterlimit="10"/><path fill="none" stroke="black" paint-order="fill stroke markers" d=" M 212 359 L 212 355" stroke-miterlimit="10"/><path fill="none" stroke="black" paint-order="fill stroke markers" d=" M 226 359 L 226 355" stroke-miterlimit="10"/><path fill="none" stroke="black" paint-order="fill stroke markers" d=" M 240 359 L 240 355" stroke-miterlimit="10"/><path fill="none" stroke="black" paint-order="fill stroke markers" d=" M 253 359 L 253 355" stroke-miterlimit="10"/><path fill="none" stroke="black" paint-order="fill stroke markers" d=" M 267 359 L 267 355" stroke-miterlimit="10"/><path fill="none" stroke="black" paint-order="fill stroke markers" d=" M 280 359 L 280 355" stroke-miterlimit="10"/><path fill="none" stroke="black" paint-order="fill stroke markers" d=" M 294 359 L 294 355" stroke-miterlimit="10"/><path fill="none" stroke="black" paint-order="fill stroke markers" d=" M 308 359 L 308 355" stroke-miterlimit="10"/><path fill="none" stroke="black" paint-order="fill stroke markers" d=" M 321 359 L 321 355" stroke-miterlimit="10"/><path fill="none" stroke="black" paint-order="fill stroke markers" d=" M 335 359 L 335 355" stroke-miterlimit="10"/><path fill="none" stroke="black" paint-order="fill stroke markers" d=" M 349 359 L 349 355" stroke-miterlimit="10"/><path fill="none" stroke="black" paint-order="fill stroke markers" d=" M 362 359 L 362 355" stroke-miterlimit="10"/><path fill="none" stroke="black" paint-order="fill stroke markers" d=" M 376 359 L 376 355" stroke-miterlimit="10"/><path fill="none" stroke="black" paint-order="fill stroke markers" d=" M 390 359 L 390 355" stroke-miterlimit="10"/><path fill="none" stroke="black" paint-order="fill stroke markers" d=" M 403 359 L 403 355" stroke-miterlimit="10"/><path fill="none" stroke="black" paint-order="fill stroke markers" d=" M 417 359 L 417 355" stroke-miterlimit="10"/><path fill="none" stroke="black" paint-order="fill stroke markers" d=" M 431 359 L 431 355" stroke-miterlimit="10"/><path fill="none" stroke="black" paint-order="fill stroke markers" d=" M 444 359 L 444 355" stroke-miterlimit="10"/><path fill="none" stroke="black" paint-order="fill stroke markers" d=" M 458 359 L 458 355" stroke-miterlimit="10"/><path fill="none" stroke="black" paint-order="fill stroke markers" d=" M 472 359 L 472 355" stroke-miterlimit="10"/><path fill="none" stroke="black" paint-order="fill stroke markers" d=" M 485 359 L 485 355" stroke-miterlimit="10"/><path fill="none" stroke="black" paint-order="fill stroke markers" d=" M 499 359 L 499 355" stroke-miterlimit="10"/><path fill="none" stroke="black" paint-order="fill stroke markers" d=" M 512 359 L 512 355" stroke-miterlimit="10"/><path fill="none" stroke="black" paint-order="fill stroke markers" d=" M 526 359 L 526 355" stroke-miterlimit="10"/><path fill="none" stroke="black" paint-order="fill stroke markers" d=" M 540 359 L 540 355" stroke-miterlimit="10"/><path fill="none" stroke="black" paint-order="fill stroke markers" d=" M 553 359 L 553 355" stroke-miterlimit="10"/><path fill="none" stroke="black" paint-order="fill stroke markers" d=" M 567 359 L 567 355" stroke-miterlimit="10"/><path fill="none" stroke="black" paint-order="fill stroke markers" d=" M 581 359 L 581 355" stroke-miterlimit="10"/><path fill="none" stroke="black" paint-order="fill stroke markers" d=" M 594 359 L 594 355" stroke-miterlimit="10"/><path fill="none" stroke="black" paint-order="fill stroke markers" d=" M 608 359 L 608 355" stroke-miterlimit="10"/><path fill="none" stroke="black" paint-order="fill stroke markers" d=" M 622 359 L 622 355" stroke-miterlimit="10"/><path fill="none" stroke="black" paint-order="fill stroke markers" d=" M 635 359 L 635 355" stroke-miterlimit="10"/><path fill="" stroke="black" paint-order="fill stroke markers" d=" M 649 359 L 649 355" stroke-miterlimit="10"/><g transform="translate(144,366) rotate(0,0,0)"><text fill="" stroke="none" font-family="helvetica" font-size="8pt" font-style="normal" font-weight="normal" text-decoration="normal" x="0" y="0" text-anchor="middle" dominant-baseline="hanging">0</text><g transform="rotate(0,0,0) translate(-144,-366) translate(212,366) rotate(0,0,0)"><text fill="" stroke="none" font-family="helvetica" font-size="8pt" font-style="normal" font-weight="normal" text-decoration="normal" x="0" y="0" text-anchor="middle" dominant-baseline="hanging">200</text><g transform="rotate(0,0,0) translate(-212,-366) translate(280,366) rotate(0,0,0)"><text fill="" stroke="none" font-family="helvetica" font-size="8pt" font-style="normal" font-weight="normal" text-decoration="normal" x="0" y="0" text-anchor="middle" dominant-baseline="hanging">400</text><g transform="rotate(0,0,0) translate(-280,-366) translate(349,366) rotate(0,0,0)"><text fill="" stroke="none" font-family="helvetica" font-size="8pt" font-style="normal" font-weight="normal" text-decoration="normal" x="0" y="0" text-anchor="middle" dominant-baseline="hanging">600</text><g transform="rotate(0,0,0) translate(-349,-366) translate(417,366) rotate(0,0,0)"><text fill="" stroke="none" font-family="helvetica" font-size="8pt" font-style="normal" font-weight="normal" text-decoration="normal" x="0" y="0" text-anchor="middle" dominant-baseline="hanging">800</text><g transform="rotate(0,0,0) translate(-417,-366) translate(485,366) rotate(0,0,0)"><text fill="" stroke="none" font-family="helvetica" font-size="8pt" font-style="normal" font-weight="normal" text-decoration="normal" x="0" y="0" text-anchor="middle" dominant-baseline="hanging">1000</text><g transform="rotate(0,0,0) translate(-485,-366) translate(553,366) rotate(0,0,0)"><text fill="" stroke="none" font-family="helvetica" font-size="8pt" font-style="normal" font-weight="normal" text-decoration="normal" x="0" y="0" text-anchor="middle" dominant-baseline="hanging">1200</text><g transform="rotate(0,0,0) translate(-553,-366) translate(622,366) rotate(0,0,0)"><text fill="" stroke="none" font-family="helvetica" font-size="8pt" font-style="normal" font-weight="normal" text-decoration="normal" x="0" y="0" text-anchor="middle" dominant-baseline="hanging">1400</text><g transform="rotate(0,0,0) translate(-622,-366) translate(397,384) rotate(0,0,0)"><text fill="" stroke="none" font-family="helvetica" font-size="10pt" font-style="italic" font-weight="normal" text-decoration="normal" x="0" y="0" text-anchor="middle" dominant-baseline="hanging">Respondents</text><g transform="rotate(0,0,0) translate(-397,-384)"/></g></g></g></g></g></g></g></g></g></g><g fill="#444444"><path fill="none" stroke="black" paint-order="fill stroke markers" d=" M 144 355 L 144 28" stroke-miterlimit="10"/><path fill="none" stroke="black" paint-order="fill stroke markers" d=" M 138 335 L 146 335" stroke-miterlimit="10"/><path fill="none" stroke="black" paint-order="fill stroke markers" d=" M 138 294 L 146 294" stroke-miterlimit="10"/><path fill="none" stroke="black" paint-order="fill stroke markers" d=" M 138 253 L 146 253" stroke-miterlimit="10"/><path fill="none" stroke="black" paint-order="fill stroke markers" d=" M 138 212 L 146 212" stroke-miterlimit="10"/><path fill="none" stroke="black" paint-order="fill stroke markers" d=" M 138 171 L 146 171" stroke-miterlimit="10"/><path fill="none" stroke="black" paint-order="fill stroke markers" d=" M 138 130 L 146 130" stroke-miterlimit="10"/><path fill="none" stroke="black" paint-order="fill stroke markers" d=" M 138 89 L 146 89" stroke-miterlimit="10"/><path fill="" stroke="black" paint-order="fill stroke markers" d=" M 138 48 L 146 48" stroke-miterlimit="10"/><g transform="translate(133,335) rotate(0,0,0)"><text fill="" stroke="none" font-family="helvetica" font-size="8pt" font-style="normal" font-weight="normal" text-decoration="normal" x="0" y="0" text-anchor="end" dominant-baseline="central">1-10 employees</text><g transform="rotate(0,0,0) translate(-133,-335) translate(133,294) rotate(0,0,0)"><text fill="" stroke="none" font-family="helvetica" font-size="8pt" font-style="normal" font-weight="normal" text-decoration="normal" x="0" y="0" text-anchor="end" dominant-baseline="central">1000+ employees</text><g transform="rotate(0,0,0) translate(-133,-294) translate(133,253) rotate(0,0,0)"><text fill="" stroke="none" font-family="helvetica" font-size="8pt" font-style="normal" font-weight="normal" text-decoration="normal" x="0" y="0" text-anchor="end" dominant-baseline="central">11-50 employees</text><g transform="rotate(0,0,0) translate(-133,-253) translate(133,212) rotate(0,0,0)"><text fill="" stroke="none" font-family="helvetica" font-size="8pt" font-style="normal" font-weight="normal" text-decoration="normal" x="0" y="0" text-anchor="end" dominant-baseline="central">101-250 employees</text><g transform="rotate(0,0,0) translate(-133,-212) translate(133,171) rotate(0,0,0)"><text fill="" stroke="none" font-family="helvetica" font-size="8pt" font-style="normal" font-weight="normal" text-decoration="normal" x="0" y="0" text-anchor="end" dominant-baseline="central">51-100 employees</text><g transform="rotate(0,0,0) translate(-133,-171) translate(133,130) rotate(0,0,0)"><text fill="" stroke="none" font-family="helvetica" font-size="8pt" font-style="normal" font-weight="normal" text-decoration="normal" x="0" y="0" text-anchor="end" dominant-baseline="central">251-500 employees</text><g transform="rotate(0,0,0) translate(-133,-130) translate(133,89) rotate(0,0,0)"><text fill="" stroke="none" font-family="helvetica" font-size="8pt" font-style="normal" font-weight="normal" text-decoration="normal" x="0" y="0" text-anchor="end" dominant-baseline="central">501-1000 employees</text><g transform="rotate(0,0,0) translate(-133,-89) translate(133,48) rotate(0,0,0)"><text fill="" stroke="none" font-family="helvetica" font-size="8pt" font-style="normal" font-weight="normal" text-decoration="normal" x="0" y="0" text-anchor="end" dominant-baseline="central">Not sure</text><g transform="rotate(0,0,0) translate(-133,-48) translate(15,192) rotate(-90,0,0)"><text fill="" stroke="none" font-family="helvetica" font-size="10pt" font-style="italic" font-weight="normal" text-decoration="normal" x="0" y="0" text-anchor="middle" dominant-baseline="alphabetic">Categories</text><g transform="rotate(90,0,0) translate(-15,-192)"/></g></g></g></g></g></g></g></g></g></g><g fill="#444444"><path fill="" stroke="none" d=""/><g transform="translate(144,23)"><path fill="none" stroke="none"/><text fill="" stroke="none" font-family="helvetica" font-size="10pt" font-style="normal" font-weight="bold" text-decoration="normal" x="0" y="0" text-anchor="start" dominant-baseline="text-after-edge">AIGA-Only: My organization has:</text></g></g></g></g></g></svg>