<svg version="1.1" xmlns="http://www.w3.org/2000/svg" xmlns:xlink="http://www.w3.org/1999/xlink" width="700" height="350" style="width: 700px; height: 350px;"><defs/><g><g transform="scale(1,1) translate(0.5,0.5)"><rect fill="#FFFFFF" stroke="none" x="0" y="0" width="700" height="350"/><rect fill="#ffffff" stroke="none" x="0" y="0" width="700" height="350"/><rect fill="#FFFFFF" stroke="none" x="295" y="28" width="355" height="277"/><rect fill="#ffffff" stroke="none" x="295" y="28" width="355" height="277"/><g><rect fill="none" stroke="#e5e5e5" x="295" y="28" width="355" height="277" stroke-miterlimit="10"/></g><g><g><path fill="none" stroke="#e5e5e5" paint-order="fill stroke markers" d=" M 367 305 L 367 28" stroke-miterlimit="10"/><path fill="none" stroke="#e5e5e5" paint-order="fill stroke markers" d=" M 440 305 L 440 28" stroke-miterlimit="10"/><path fill="none" stroke="#e5e5e5" paint-order="fill stroke markers" d=" M 512 305 L 512 28" stroke-miterlimit="10"/><path fill="none" stroke="#e5e5e5" paint-order="fill stroke markers" d=" M 584 305 L 584 28" stroke-miterlimit="10"/></g><g><path fill="none" stroke="#e5e5e5" paint-order="fill stroke markers" d=" M 295 285 L 650 285" stroke-miterlimit="10"/><path fill="none" stroke="#e5e5e5" paint-order="fill stroke markers" d=" M 295 246 L 650 246" stroke-miterlimit="10"/><path fill="none" stroke="#e5e5e5" paint-order="fill stroke markers" d=" M 295 206 L 650 206" stroke-miterlimit="10"/><path fill="none" stroke="#e5e5e5" paint-order="fill stroke markers" d=" M 295 167 L 650 167" stroke-miterlimit="10"/><path fill="none" stroke="#e5e5e5" paint-order="fill stroke markers" d=" M 295 127 L 650 127" stroke-miterlimit="10"/><path fill="none" stroke="#e5e5e5" paint-order="fill stroke markers" d=" M 295 87 L 650 87" stroke-miterlimit="10"/><path fill="none" stroke="#e5e5e5" paint-order="fill stroke markers" d=" M 295 48 L 650 48" stroke-miterlimit="10"/></g><g><path fill="none" stroke="none"/><rect fill="#1f77b4" stroke="none" x="295" y="270.375" width="288.5967058056099" height="29.678571428571445"/><path fill="none" stroke="#1f77b4" paint-order="fill stroke markers" d=" M 295 270.375 L 583.5967058056099 270.375 L 583.5967058056099 300.05357142857144 L 295 300.05357142857144 L 295 270.375 Z" stroke-miterlimit="10"/><rect fill="#1f77b4" stroke="none" x="295" y="230.80357142857142" width="188.15231572080882" height="29.678571428571473"/><path fill="none" stroke="#1f77b4" paint-order="fill stroke markers" d=" M 295 230.80357142857142 L 483.1523157208088 230.80357142857142 L 483.1523157208088 260.4821428571429 L 295 260.4821428571429 L 295 230.80357142857142 Z" stroke-miterlimit="10"/><rect fill="#1f77b4" stroke="none" x="295" y="191.2321428571429" width="106.81262230919765" height="29.678571428571388"/><path fill="none" stroke="#1f77b4" paint-order="fill stroke markers" d=" M 295 191.2321428571429 L 401.81262230919765 191.2321428571429 L 401.81262230919765 220.91071428571428 L 295 220.91071428571428 L 295 191.2321428571429 Z" stroke-miterlimit="10"/><rect fill="#1f77b4" stroke="none" x="295" y="151.66071428571428" width="32.56482387475535" height="29.678571428571445"/><path fill="none" stroke="#1f77b4" paint-order="fill stroke markers" d=" M 295 151.66071428571428 L 327.56482387475535 151.66071428571428 L 327.56482387475535 181.33928571428572 L 295 181.33928571428572 L 295 151.66071428571428 Z" stroke-miterlimit="10"/><rect fill="#1f77b4" stroke="none" x="295" y="112.08928571428574" width="19.973091976516628" height="29.67857142857143"/><path fill="none" stroke="#1f77b4" paint-order="fill stroke markers" d=" M 295 112.08928571428574 L 314.9730919765166 112.08928571428574 L 314.9730919765166 141.76785714285717 L 295 141.76785714285717 L 295 112.08928571428574 Z" stroke-miterlimit="10"/><rect fill="#1f77b4" stroke="none" x="295" y="72.51785714285715" width="19.104696673189835" height="29.678571428571416"/><path fill="none" stroke="#1f77b4" paint-order="fill stroke markers" d=" M 295 72.51785714285715 L 314.10469667318984 72.51785714285715 L 314.10469667318984 102.19642857142857 L 295 102.19642857142857 L 295 72.51785714285715 Z" stroke-miterlimit="10"/><rect fill="#1f77b4" stroke="none" x="295" y="32.946428571428584" width="16.065313111546004" height="29.678571428571388"/><path fill="none" stroke="#1f77b4" paint-order="fill stroke markers" d=" M 295 32.946428571428584 L 311.065313111546 32.946428571428584 L 311.065313111546 62.62499999999997 L 295 62.62499999999997 L 295 32.946428571428584 Z" stroke-miterlimit="10"/></g><g fill="#444444"><path fill="" stroke="none" d=""/><g transform="translate(593.5967058056099,283.2142857142857) rotate(0,0,0)"><path fill="none" stroke="none"/><text fill="" stroke="none" font-family="helvetica" font-size="8pt" font-style="normal" font-weight="normal" text-decoration="normal" x="0" y="0" text-anchor="start" dominant-baseline="text-after-edge">42.99%</text></g></g><g fill="#444444"><path fill="" stroke="none" d=""/><g transform="translate(493.1523157208088,243.64285714285714) rotate(0,0,0)"><path fill="none" stroke="none"/><text fill="" stroke="none" font-family="helvetica" font-size="8pt" font-style="normal" font-weight="normal" text-decoration="normal" x="0" y="0" text-anchor="start" dominant-baseline="text-after-edge">28.03%</text></g></g><g fill="#444444"><path fill="" stroke="none" d=""/><g transform="translate(411.81262230919765,204.07142857142858) rotate(0,0,0)"><path fill="none" stroke="none"/><text fill="" stroke="none" font-family="helvetica" font-size="8pt" font-style="normal" font-weight="normal" text-decoration="normal" x="0" y="0" text-anchor="start" dominant-baseline="text-after-edge">15.91%</text></g></g><g fill="#444444"><path fill="" stroke="none" d=""/><g transform="translate(337.56482387475535,164.5) rotate(0,0,0)"><path fill="none" stroke="none"/><text fill="" stroke="none" font-family="helvetica" font-size="8pt" font-style="normal" font-weight="normal" text-decoration="normal" x="0" y="0" text-anchor="start" dominant-baseline="text-after-edge">4.85%</text></g></g><g fill="#444444"><path fill="" stroke="none" d=""/><g transform="translate(324.9730919765166,124.92857142857144) rotate(0,0,0)"><path fill="none" stroke="none"/><text fill="" stroke="none" font-family="helvetica" font-size="8pt" font-style="normal" font-weight="normal" text-decoration="normal" x="0" y="0" text-anchor="start" dominant-baseline="text-after-edge">2.98%</text></g></g><g fill="#444444"><path fill="" stroke="none" d=""/><g transform="translate(324.10469667318984,85.35714285714286) rotate(0,0,0)"><path fill="none" stroke="none"/><text fill="" stroke="none" font-family="helvetica" font-size="8pt" font-style="normal" font-weight="normal" text-decoration="normal" x="0" y="0" text-anchor="start" dominant-baseline="text-after-edge">2.85%</text></g></g><g fill="#444444"><path fill="" stroke="none" d=""/><g transform="translate(321.065313111546,45.78571428571428) rotate(0,0,0)"><path fill="none" stroke="none"/><text fill="" stroke="none" font-family="helvetica" font-size="8pt" font-style="normal" font-weight="normal" text-decoration="normal" x="0" y="0" text-anchor="start" dominant-baseline="text-after-edge">2.39%</text></g></g><g fill="#444444"><path fill="" stroke="none" d=""/><g transform="translate(593.5967058056099,297.2142857142857) rotate(0,0,0)"><path fill="none" stroke="none"/><text fill="" stroke="none" font-family="helvetica" font-size="8pt" font-style="normal" font-weight="normal" text-decoration="normal" x="0" y="0" text-anchor="start" dominant-baseline="text-after-edge">1994</text></g></g><g fill="#444444"><path fill="" stroke="none" d=""/><g transform="translate(493.1523157208088,257.6428571428571) rotate(0,0,0)"><path fill="none" stroke="none"/><text fill="" stroke="none" font-family="helvetica" font-size="8pt" font-style="normal" font-weight="normal" text-decoration="normal" x="0" y="0" text-anchor="start" dominant-baseline="text-after-edge">1300</text></g></g><g fill="#444444"><path fill="" stroke="none" d=""/><g transform="translate(411.81262230919765,218.07142857142858) rotate(0,0,0)"><path fill="none" stroke="none"/><text fill="" stroke="none" font-family="helvetica" font-size="8pt" font-style="normal" font-weight="normal" text-decoration="normal" x="0" y="0" text-anchor="start" dominant-baseline="text-after-edge">738</text></g></g><g fill="#444444"><path fill="" stroke="none" d=""/><g transform="translate(337.56482387475535,178.5) rotate(0,0,0)"><path fill="none" stroke="none"/><text fill="" stroke="none" font-family="helvetica" font-size="8pt" font-style="normal" font-weight="normal" text-decoration="normal" x="0" y="0" text-anchor="start" dominant-baseline="text-after-edge">225</text></g></g><g fill="#444444"><path fill="" stroke="none" d=""/><g transform="translate(324.9730919765166,138.92857142857144) rotate(0,0,0)"><path fill="none" stroke="none"/><text fill="" stroke="none" font-family="helvetica" font-size="8pt" font-style="normal" font-weight="normal" text-decoration="normal" x="0" y="0" text-anchor="start" dominant-baseline="text-after-edge">138</text></g></g><g fill="#444444"><path fill="" stroke="none" d=""/><g transform="translate(324.10469667318984,99.35714285714286) rotate(0,0,0)"><path fill="none" stroke="none"/><text fill="" stroke="none" font-family="helvetica" font-size="8pt" font-style="normal" font-weight="normal" text-decoration="normal" x="0" y="0" text-anchor="start" dominant-baseline="text-after-edge">132</text></g></g><g fill="#444444"><path fill="" stroke="none" d=""/><g transform="translate(321.065313111546,59.78571428571428) rotate(0,0,0)"><path fill="none" stroke="none"/><text fill="" stroke="none" font-family="helvetica" font-size="8pt" font-style="normal" font-weight="normal" text-decoration="normal" x="0" y="0" text-anchor="start" dominant-baseline="text-after-edge">111</text></g></g></g><g/><g><g fill="#444444"><path fill="none" stroke="black" paint-order="fill stroke markers" d=" M 295 305 L 650 305" stroke-miterlimit="10"/><path fill="none" stroke="black" paint-order="fill stroke markers" d=" M 295 311 L 295 303" stroke-miterlimit="10"/><path fill="none" stroke="black" paint-order="fill stroke markers" d=" M 367 311 L 367 303" stroke-miterlimit="10"/><path fill="none" stroke="black" paint-order="fill stroke markers" d=" M 440 311 L 440 303" stroke-miterlimit="10"/><path fill="none" stroke="black" paint-order="fill stroke markers" d=" M 512 311 L 512 303" stroke-miterlimit="10"/><path fill="none" stroke="black" paint-order="fill stroke markers" d=" M 584 311 L 584 303" stroke-miterlimit="10"/><path fill="none" stroke="black" paint-order="fill stroke markers" d=" M 295 309 L 295 305" stroke-miterlimit="10"/><path fill="none" stroke="black" paint-order="fill stroke markers" d=" M 309 309 L 309 305" stroke-miterlimit="10"/><path fill="none" stroke="black" paint-order="fill stroke markers" d=" M 324 309 L 324 305" stroke-miterlimit="10"/><path fill="none" stroke="black" paint-order="fill stroke markers" d=" M 338 309 L 338 305" stroke-miterlimit="10"/><path fill="none" stroke="black" paint-order="fill stroke markers" d=" M 353 309 L 353 305" stroke-miterlimit="10"/><path fill="none" stroke="black" paint-order="fill stroke markers" d=" M 367 309 L 367 305" stroke-miterlimit="10"/><path fill="none" stroke="black" paint-order="fill stroke markers" d=" M 382 309 L 382 305" stroke-miterlimit="10"/><path fill="none" stroke="black" paint-order="fill stroke markers" d=" M 396 309 L 396 305" stroke-miterlimit="10"/><path fill="none" stroke="black" paint-order="fill stroke markers" d=" M 411 309 L 411 305" stroke-miterlimit="10"/><path fill="none" stroke="black" paint-order="fill stroke markers" d=" M 425 309 L 425 305" stroke-miterlimit="10"/><path fill="none" stroke="black" paint-order="fill stroke markers" d=" M 440 309 L 440 305" stroke-miterlimit="10"/><path fill="none" stroke="black" paint-order="fill stroke markers" d=" M 454 309 L 454 305" stroke-miterlimit="10"/><path fill="none" stroke="black" paint-order="fill stroke markers" d=" M 469 309 L 469 305" stroke-miterlimit="10"/><path fill="none" stroke="black" paint-order="fill stroke markers" d=" M 483 309 L 483 305" stroke-miterlimit="10"/><path fill="none" stroke="black" paint-order="fill stroke markers" d=" M 498 309 L 498 305" stroke-miterlimit="10"/><path fill="none" stroke="black" paint-order="fill stroke markers" d=" M 512 309 L 512 305" stroke-miterlimit="10"/><path fill="none" stroke="black" paint-order="fill stroke markers" d=" M 527 309 L 527 305" stroke-miterlimit="10"/><path fill="none" stroke="black" paint-order="fill stroke markers" d=" M 541 309 L 541 305" stroke-miterlimit="10"/><path fill="none" stroke="black" paint-order="fill stroke markers" d=" M 556 309 L 556 305" stroke-miterlimit="10"/><path fill="none" stroke="black" paint-order="fill stroke markers" d=" M 570 309 L 570 305" stroke-miterlimit="10"/><path fill="none" stroke="black" paint-order="fill stroke markers" d=" M 584 309 L 584 305" stroke-miterlimit="10"/><path fill="none" stroke="black" paint-order="fill stroke markers" d=" M 599 309 L 599 305" stroke-miterlimit="10"/><path fill="none" stroke="black" paint-order="fill stroke markers" d=" M 613 309 L 613 305" stroke-miterlimit="10"/><path fill="none" stroke="black" paint-order="fill stroke markers" d=" M 628 309 L 628 305" stroke-miterlimit="10"/><path fill="" stroke="black" paint-order="fill stroke markers" d=" M 642 309 L 642 305" stroke-miterlimit="10"/><g transform="translate(295,316) rotate(0,0,0)"><text fill="" stroke="none" font-family="helvetica" font-size="8pt" font-style="normal" font-weight="normal" text-decoration="normal" x="0" y="0" text-anchor="middle" dominant-baseline="hanging">0</text><g transform="rotate(0,0,0) translate(-295,-316) translate(367,316) rotate(0,0,0)"><text fill="" stroke="none" font-family="helvetica" font-size="8pt" font-style="normal" font-weight="normal" text-decoration="normal" x="0" y="0" text-anchor="middle" dominant-baseline="hanging">500</text><g transform="rotate(0,0,0) translate(-367,-316) translate(440,316) rotate(0,0,0)"><text fill="" stroke="none" font-family="helvetica" font-size="8pt" font-style="normal" font-weight="normal" text-decoration="normal" x="0" y="0" text-anchor="middle" dominant-baseline="hanging">1000</text><g transform="rotate(0,0,0) translate(-440,-316) translate(512,316) rotate(0,0,0)"><text fill="" stroke="none" font-family="helvetica" font-size="8pt" font-style="normal" font-weight="normal" text-decoration="normal" x="0" y="0" text-anchor="middle" dominant-baseline="hanging">1500</text><g transform="rotate(0,0,0) translate(-512,-316) translate(584,316) rotate(0,0,0)"><text fill="" stroke="none" font-family="helvetica" font-size="8pt" font-style="normal" font-weight="normal" text-decoration="normal" x="0" y="0" text-anchor="middle" dominant-baseline="hanging">2000</text><g transform="rotate(0,0,0) translate(-584,-316) translate(473,334) rotate(0,0,0)"><text fill="" stroke="none" font-family="helvetica" font-size="10pt" font-style="italic" font-weight="normal" text-decoration="normal" x="0" y="0" text-anchor="middle" dominant-baseline="hanging">Respondents</text><g transform="rotate(0,0,0) translate(-473,-334)"/></g></g></g></g></g></g></g><g fill="#444444"><path fill="none" stroke="black" paint-order="fill stroke markers" d=" M 295 305 L 295 28" stroke-miterlimit="10"/><path fill="none" stroke="black" paint-order="fill stroke markers" d=" M 289 285 L 297 285" stroke-miterlimit="10"/><path fill="none" stroke="black" paint-order="fill stroke markers" d=" M 289 246 L 297 246" stroke-miterlimit="10"/><path fill="none" stroke="black" paint-order="fill stroke markers" d=" M 289 206 L 297 206" stroke-miterlimit="10"/><path fill="none" stroke="black" paint-order="fill stroke markers" d=" M 289 167 L 297 167" stroke-miterlimit="10"/><path fill="none" stroke="black" paint-order="fill stroke markers" d=" M 289 127 L 297 127" stroke-miterlimit="10"/><path fill="none" stroke="black" paint-order="fill stroke markers" d=" M 289 87 L 297 87" stroke-miterlimit="10"/><path fill="" stroke="black" paint-order="fill stroke markers" d=" M 289 48 L 297 48" stroke-miterlimit="10"/><g transform="translate(284,285) rotate(0,0,0)"><text fill="" stroke="none" font-family="helvetica" font-size="8pt" font-style="normal" font-weight="normal" text-decoration="normal" x="0" y="0" text-anchor="end" dominant-baseline="central">A full-time employee in-house</text><g transform="rotate(0,0,0) translate(-284,-285) translate(284,246) rotate(0,0,0)"><text fill="" stroke="none" font-family="helvetica" font-size="8pt" font-style="normal" font-weight="normal" text-decoration="normal" x="0" y="0" text-anchor="end" dominant-baseline="central">A full-time employee at an agency or consultancy</text><g transform="rotate(0,0,0) translate(-284,-246) translate(284,206) rotate(0,0,0)"><text fill="" stroke="none" font-family="helvetica" font-size="8pt" font-style="normal" font-weight="normal" text-decoration="normal" x="0" y="0" text-anchor="end" dominant-baseline="central">Self-employed or freelancing</text><g transform="rotate(0,0,0) translate(-284,-206) translate(284,167) rotate(0,0,0)"><text fill="" stroke="none" font-family="helvetica" font-size="8pt" font-style="normal" font-weight="normal" text-decoration="normal" x="0" y="0" text-anchor="end" dominant-baseline="central">An educator</text><g transform="rotate(0,0,0) translate(-284,-167) translate(284,127) rotate(0,0,0)"><text fill="" stroke="none" font-family="helvetica" font-size="8pt" font-style="normal" font-weight="normal" text-decoration="normal" x="0" y="0" text-anchor="end" dominant-baseline="central">A contract employee in-house</text><g transform="rotate(0,0,0) translate(-284,-127) translate(284,87) rotate(0,0,0)"><text fill="" stroke="none" font-family="helvetica" font-size="8pt" font-style="normal" font-weight="normal" text-decoration="normal" x="0" y="0" text-anchor="end" dominant-baseline="central">Other</text><g transform="rotate(0,0,0) translate(-284,-87) translate(284,48) rotate(0,0,0)"><text fill="" stroke="none" font-family="helvetica" font-size="8pt" font-style="normal" font-weight="normal" text-decoration="normal" x="0" y="0" text-anchor="end" dominant-baseline="central">A contract employee at an agency or consultancy</text><g transform="rotate(0,0,0) translate(-284,-48) translate(16,167) rotate(-90,0,0)"><text fill="" stroke="none" font-family="helvetica" font-size="10pt" font-style="italic" font-weight="normal" text-decoration="normal" x="0" y="0" text-anchor="middle" dominant-baseline="alphabetic">Categories</text><g transform="rotate(90,0,0) translate(-16,-167)"/></g></g></g></g></g></g></g></g></g><g fill="#444444"><path fill="" stroke="none" d=""/><g transform="translate(295,23)"><path fill="none" stroke="none"/><text fill="" stroke="none" font-family="helvetica" font-size="10pt" font-style="normal" font-weight="bold" text-decoration="normal" x="0" y="0" text-anchor="start" dominant-baseline="text-after-edge">AIGA-Only: I am currently:</text></g></g></g></g></g></svg>