<svg version="1.1" xmlns="http://www.w3.org/2000/svg" xmlns:xlink="http://www.w3.org/1999/xlink" width="700" height="500" style="width: 700px; height: 500px;"><defs/><g><g transform="scale(1,1) translate(0.5,0.5)"><rect fill="#FFFFFF" stroke="none" x="0" y="0" width="700" height="500"/><rect fill="#ffffff" stroke="none" x="0" y="0" width="700" height="500"/><rect fill="#FFFFFF" stroke="none" x="133" y="28" width="517" height="427"/><rect fill="#ffffff" stroke="none" x="133" y="28" width="517" height="427"/><g><rect fill="none" stroke="#e5e5e5" x="133" y="28" width="517" height="427" stroke-miterlimit="10"/></g><g><g><path fill="none" stroke="#e5e5e5" paint-order="fill stroke markers" d=" M 202 455 L 202 28" stroke-miterlimit="10"/><path fill="none" stroke="#e5e5e5" paint-order="fill stroke markers" d=" M 272 455 L 272 28" stroke-miterlimit="10"/><path fill="none" stroke="#e5e5e5" paint-order="fill stroke markers" d=" M 341 455 L 341 28" stroke-miterlimit="10"/><path fill="none" stroke="#e5e5e5" paint-order="fill stroke markers" d=" M 411 455 L 411 28" stroke-miterlimit="10"/><path fill="none" stroke="#e5e5e5" paint-order="fill stroke markers" d=" M 480 455 L 480 28" stroke-miterlimit="10"/><path fill="none" stroke="#e5e5e5" paint-order="fill stroke markers" d=" M 549 455 L 549 28" stroke-miterlimit="10"/><path fill="none" stroke="#e5e5e5" paint-order="fill stroke markers" d=" M 619 455 L 619 28" stroke-miterlimit="10"/></g><g><path fill="none" stroke="#e5e5e5" paint-order="fill stroke markers" d=" M 133 434 L 650 434" stroke-miterlimit="10"/><path fill="none" stroke="#e5e5e5" paint-order="fill stroke markers" d=" M 133 391 L 650 391" stroke-miterlimit="10"/><path fill="none" stroke="#e5e5e5" paint-order="fill stroke markers" d=" M 133 348 L 650 348" stroke-miterlimit="10"/><path fill="none" stroke="#e5e5e5" paint-order="fill stroke markers" d=" M 133 306 L 650 306" stroke-miterlimit="10"/><path fill="none" stroke="#e5e5e5" paint-order="fill stroke markers" d=" M 133 263 L 650 263" stroke-miterlimit="10"/><path fill="none" stroke="#e5e5e5" paint-order="fill stroke markers" d=" M 133 220 L 650 220" stroke-miterlimit="10"/><path fill="none" stroke="#e5e5e5" paint-order="fill stroke markers" d=" M 133 177 L 650 177" stroke-miterlimit="10"/><path fill="none" stroke="#e5e5e5" paint-order="fill stroke markers" d=" M 133 135 L 650 135" stroke-miterlimit="10"/><path fill="none" stroke="#e5e5e5" paint-order="fill stroke markers" d=" M 133 92 L 650 92" stroke-miterlimit="10"/><path fill="none" stroke="#e5e5e5" paint-order="fill stroke markers" d=" M 133 49 L 650 49" stroke-miterlimit="10"/></g><g><path fill="none" stroke="none"/><rect fill="#1f77b4" stroke="none" x="133" y="417.63749999999993" width="396.14465915190544" height="32.02500000000009"/><path fill="none" stroke="#1f77b4" paint-order="fill stroke markers" d=" M 133 417.63749999999993 L 529.1446591519054 417.63749999999993 L 529.1446591519054 449.6625 L 133 449.6625 L 133 417.63749999999993 Z" stroke-miterlimit="10"/><rect fill="#1f77b4" stroke="none" x="133" y="374.9375" width="312.89184111647876" height="32.02499999999998"/><path fill="none" stroke="#1f77b4" paint-order="fill stroke markers" d=" M 133 374.9375 L 445.89184111647876 374.9375 L 445.89184111647876 406.9625 L 133 406.9625 L 133 374.9375 Z" stroke-miterlimit="10"/><rect fill="#1f77b4" stroke="none" x="133" y="332.2375" width="192.86902844873862" height="32.02499999999998"/><path fill="none" stroke="#1f77b4" paint-order="fill stroke markers" d=" M 133 332.2375 L 325.8690284487386 332.2375 L 325.8690284487386 364.2625 L 133 364.2625 L 133 332.2375 Z" stroke-miterlimit="10"/><rect fill="#1f77b4" stroke="none" x="133" y="289.53749999999997" width="191.48148148148147" height="32.02499999999998"/><path fill="none" stroke="#1f77b4" paint-order="fill stroke markers" d=" M 133 289.53749999999997 L 324.48148148148147 289.53749999999997 L 324.48148148148147 321.56249999999994 L 133 321.56249999999994 L 133 289.53749999999997 Z" stroke-miterlimit="10"/><rect fill="#1f77b4" stroke="none" x="133" y="246.83750000000003" width="142.91733762748254" height="32.02499999999998"/><path fill="none" stroke="#1f77b4" paint-order="fill stroke markers" d=" M 133 246.83750000000003 L 275.91733762748254 246.83750000000003 L 275.91733762748254 278.8625 L 133 278.8625 L 133 246.83750000000003 Z" stroke-miterlimit="10"/><rect fill="#1f77b4" stroke="none" x="133" y="204.1375" width="104.75979602791196" height="32.02499999999998"/><path fill="none" stroke="#1f77b4" paint-order="fill stroke markers" d=" M 133 204.1375 L 237.75979602791196 204.1375 L 237.75979602791196 236.16249999999997 L 133 236.16249999999997 L 133 204.1375 Z" stroke-miterlimit="10"/><rect fill="#1f77b4" stroke="none" x="133" y="161.4375" width="75.62130971551261" height="32.02499999999998"/><path fill="none" stroke="#1f77b4" paint-order="fill stroke markers" d=" M 133 161.4375 L 208.6213097155126 161.4375 L 208.6213097155126 193.46249999999998 L 133 193.46249999999998 L 133 161.4375 Z" stroke-miterlimit="10"/><rect fill="#1f77b4" stroke="none" x="133" y="118.73749999999998" width="29.13848631239935" height="32.025000000000034"/><path fill="none" stroke="#1f77b4" paint-order="fill stroke markers" d=" M 133 118.73749999999998 L 162.13848631239935 118.73749999999998 L 162.13848631239935 150.76250000000002 L 133 150.76250000000002 L 133 118.73749999999998 Z" stroke-miterlimit="10"/><rect fill="#1f77b4" stroke="none" x="133" y="76.03749999999994" width="25.669618894256587" height="32.025000000000034"/><path fill="none" stroke="#1f77b4" paint-order="fill stroke markers" d=" M 133 76.03749999999994 L 158.6696188942566 76.03749999999994 L 158.6696188942566 108.06249999999997 L 133 108.06249999999997 L 133 76.03749999999994 Z" stroke-miterlimit="10"/><rect fill="#1f77b4" stroke="none" x="133" y="33.33749999999998" width="19.425657541599577" height="32.02499999999998"/><path fill="none" stroke="#1f77b4" paint-order="fill stroke markers" d=" M 133 33.33749999999998 L 152.42565754159958 33.33749999999998 L 152.42565754159958 65.36249999999995 L 133 65.36249999999995 L 133 33.33749999999998 Z" stroke-miterlimit="10"/></g><g fill="#444444"><path fill="" stroke="none" d=""/><g transform="translate(539.1446591519054,431.65) rotate(0,0,0)"><path fill="none" stroke="none"/><text fill="" stroke="none" font-family="helvetica" font-size="8pt" font-style="normal" font-weight="normal" text-decoration="normal" x="0" y="0" text-anchor="start" dominant-baseline="text-after-edge">12.31%</text></g></g><g fill="#444444"><path fill="" stroke="none" d=""/><g transform="translate(455.89184111647876,388.95) rotate(0,0,0)"><path fill="none" stroke="none"/><text fill="" stroke="none" font-family="helvetica" font-size="8pt" font-style="normal" font-weight="normal" text-decoration="normal" x="0" y="0" text-anchor="start" dominant-baseline="text-after-edge">9.72%</text></g></g><g fill="#444444"><path fill="" stroke="none" d=""/><g transform="translate(335.8690284487386,346.25) rotate(0,0,0)"><path fill="none" stroke="none"/><text fill="" stroke="none" font-family="helvetica" font-size="8pt" font-style="normal" font-weight="normal" text-decoration="normal" x="0" y="0" text-anchor="start" dominant-baseline="text-after-edge">5.99%</text></g></g><g fill="#444444"><path fill="" stroke="none" d=""/><g transform="translate(334.48148148148147,303.54999999999995) rotate(0,0,0)"><path fill="none" stroke="none"/><text fill="" stroke="none" font-family="helvetica" font-size="8pt" font-style="normal" font-weight="normal" text-decoration="normal" x="0" y="0" text-anchor="start" dominant-baseline="text-after-edge">5.95%</text></g></g><g fill="#444444"><path fill="" stroke="none" d=""/><g transform="translate(285.91733762748254,260.85) rotate(0,0,0)"><path fill="none" stroke="none"/><text fill="" stroke="none" font-family="helvetica" font-size="8pt" font-style="normal" font-weight="normal" text-decoration="normal" x="0" y="0" text-anchor="start" dominant-baseline="text-after-edge">4.44%</text></g></g><g fill="#444444"><path fill="" stroke="none" d=""/><g transform="translate(247.75979602791196,218.14999999999998) rotate(0,0,0)"><path fill="none" stroke="none"/><text fill="" stroke="none" font-family="helvetica" font-size="8pt" font-style="normal" font-weight="normal" text-decoration="normal" x="0" y="0" text-anchor="start" dominant-baseline="text-after-edge">3.26%</text></g></g><g fill="#444444"><path fill="" stroke="none" d=""/><g transform="translate(218.6213097155126,175.45) rotate(0,0,0)"><path fill="none" stroke="none"/><text fill="" stroke="none" font-family="helvetica" font-size="8pt" font-style="normal" font-weight="normal" text-decoration="normal" x="0" y="0" text-anchor="start" dominant-baseline="text-after-edge">2.35%</text></g></g><g fill="#444444"><path fill="" stroke="none" d=""/><g transform="translate(172.13848631239935,132.75) rotate(0,0,0)"><path fill="none" stroke="none"/><text fill="" stroke="none" font-family="helvetica" font-size="8pt" font-style="normal" font-weight="normal" text-decoration="normal" x="0" y="0" text-anchor="start" dominant-baseline="text-after-edge">0.91%</text></g></g><g fill="#444444"><path fill="" stroke="none" d=""/><g transform="translate(168.6696188942566,90.04999999999995) rotate(0,0,0)"><path fill="none" stroke="none"/><text fill="" stroke="none" font-family="helvetica" font-size="8pt" font-style="normal" font-weight="normal" text-decoration="normal" x="0" y="0" text-anchor="start" dominant-baseline="text-after-edge">0.80%</text></g></g><g fill="#444444"><path fill="" stroke="none" d=""/><g transform="translate(162.42565754159958,47.349999999999966) rotate(0,0,0)"><path fill="none" stroke="none"/><text fill="" stroke="none" font-family="helvetica" font-size="8pt" font-style="normal" font-weight="normal" text-decoration="normal" x="0" y="0" text-anchor="start" dominant-baseline="text-after-edge">0.60%</text></g></g><g fill="#444444"><path fill="" stroke="none" d=""/><g transform="translate(539.1446591519054,445.65) rotate(0,0,0)"><path fill="none" stroke="none"/><text fill="" stroke="none" font-family="helvetica" font-size="8pt" font-style="normal" font-weight="normal" text-decoration="normal" x="0" y="0" text-anchor="start" dominant-baseline="text-after-edge">571</text></g></g><g fill="#444444"><path fill="" stroke="none" d=""/><g transform="translate(455.89184111647876,402.95) rotate(0,0,0)"><path fill="none" stroke="none"/><text fill="" stroke="none" font-family="helvetica" font-size="8pt" font-style="normal" font-weight="normal" text-decoration="normal" x="0" y="0" text-anchor="start" dominant-baseline="text-after-edge">451</text></g></g><g fill="#444444"><path fill="" stroke="none" d=""/><g transform="translate(335.8690284487386,360.25) rotate(0,0,0)"><path fill="none" stroke="none"/><text fill="" stroke="none" font-family="helvetica" font-size="8pt" font-style="normal" font-weight="normal" text-decoration="normal" x="0" y="0" text-anchor="start" dominant-baseline="text-after-edge">278</text></g></g><g fill="#444444"><path fill="" stroke="none" d=""/><g transform="translate(334.48148148148147,317.54999999999995) rotate(0,0,0)"><path fill="none" stroke="none"/><text fill="" stroke="none" font-family="helvetica" font-size="8pt" font-style="normal" font-weight="normal" text-decoration="normal" x="0" y="0" text-anchor="start" dominant-baseline="text-after-edge">276</text></g></g><g fill="#444444"><path fill="" stroke="none" d=""/><g transform="translate(285.91733762748254,274.85) rotate(0,0,0)"><path fill="none" stroke="none"/><text fill="" stroke="none" font-family="helvetica" font-size="8pt" font-style="normal" font-weight="normal" text-decoration="normal" x="0" y="0" text-anchor="start" dominant-baseline="text-after-edge">206</text></g></g><g fill="#444444"><path fill="" stroke="none" d=""/><g transform="translate(247.75979602791196,232.14999999999998) rotate(0,0,0)"><path fill="none" stroke="none"/><text fill="" stroke="none" font-family="helvetica" font-size="8pt" font-style="normal" font-weight="normal" text-decoration="normal" x="0" y="0" text-anchor="start" dominant-baseline="text-after-edge">151</text></g></g><g fill="#444444"><path fill="" stroke="none" d=""/><g transform="translate(218.6213097155126,189.45) rotate(0,0,0)"><path fill="none" stroke="none"/><text fill="" stroke="none" font-family="helvetica" font-size="8pt" font-style="normal" font-weight="normal" text-decoration="normal" x="0" y="0" text-anchor="start" dominant-baseline="text-after-edge">109</text></g></g><g fill="#444444"><path fill="" stroke="none" d=""/><g transform="translate(172.13848631239935,146.75) rotate(0,0,0)"><path fill="none" stroke="none"/><text fill="" stroke="none" font-family="helvetica" font-size="8pt" font-style="normal" font-weight="normal" text-decoration="normal" x="0" y="0" text-anchor="start" dominant-baseline="text-after-edge">42</text></g></g><g fill="#444444"><path fill="" stroke="none" d=""/><g transform="translate(168.6696188942566,104.04999999999995) rotate(0,0,0)"><path fill="none" stroke="none"/><text fill="" stroke="none" font-family="helvetica" font-size="8pt" font-style="normal" font-weight="normal" text-decoration="normal" x="0" y="0" text-anchor="start" dominant-baseline="text-after-edge">37</text></g></g><g fill="#444444"><path fill="" stroke="none" d=""/><g transform="translate(162.42565754159958,61.349999999999966) rotate(0,0,0)"><path fill="none" stroke="none"/><text fill="" stroke="none" font-family="helvetica" font-size="8pt" font-style="normal" font-weight="normal" text-decoration="normal" x="0" y="0" text-anchor="start" dominant-baseline="text-after-edge">28</text></g></g></g><g/><g><g fill="#444444"><path fill="none" stroke="black" paint-order="fill stroke markers" d=" M 133 455 L 650 455" stroke-miterlimit="10"/><path fill="none" stroke="black" paint-order="fill stroke markers" d=" M 133 461 L 133 453" stroke-miterlimit="10"/><path fill="none" stroke="black" paint-order="fill stroke markers" d=" M 202 461 L 202 453" stroke-miterlimit="10"/><path fill="none" stroke="black" paint-order="fill stroke markers" d=" M 272 461 L 272 453" stroke-miterlimit="10"/><path fill="none" stroke="black" paint-order="fill stroke markers" d=" M 341 461 L 341 453" stroke-miterlimit="10"/><path fill="none" stroke="black" paint-order="fill stroke markers" d=" M 411 461 L 411 453" stroke-miterlimit="10"/><path fill="none" stroke="black" paint-order="fill stroke markers" d=" M 480 461 L 480 453" stroke-miterlimit="10"/><path fill="none" stroke="black" paint-order="fill stroke markers" d=" M 549 461 L 549 453" stroke-miterlimit="10"/><path fill="none" stroke="black" paint-order="fill stroke markers" d=" M 619 461 L 619 453" stroke-miterlimit="10"/><path fill="none" stroke="black" paint-order="fill stroke markers" d=" M 133 459 L 133 455" stroke-miterlimit="10"/><path fill="none" stroke="black" paint-order="fill stroke markers" d=" M 147 459 L 147 455" stroke-miterlimit="10"/><path fill="none" stroke="black" paint-order="fill stroke markers" d=" M 161 459 L 161 455" stroke-miterlimit="10"/><path fill="none" stroke="black" paint-order="fill stroke markers" d=" M 175 459 L 175 455" stroke-miterlimit="10"/><path fill="none" stroke="black" paint-order="fill stroke markers" d=" M 189 459 L 189 455" stroke-miterlimit="10"/><path fill="none" stroke="black" paint-order="fill stroke markers" d=" M 202 459 L 202 455" stroke-miterlimit="10"/><path fill="none" stroke="black" paint-order="fill stroke markers" d=" M 216 459 L 216 455" stroke-miterlimit="10"/><path fill="none" stroke="black" paint-order="fill stroke markers" d=" M 230 459 L 230 455" stroke-miterlimit="10"/><path fill="none" stroke="black" paint-order="fill stroke markers" d=" M 244 459 L 244 455" stroke-miterlimit="10"/><path fill="none" stroke="black" paint-order="fill stroke markers" d=" M 258 459 L 258 455" stroke-miterlimit="10"/><path fill="none" stroke="black" paint-order="fill stroke markers" d=" M 272 459 L 272 455" stroke-miterlimit="10"/><path fill="none" stroke="black" paint-order="fill stroke markers" d=" M 286 459 L 286 455" stroke-miterlimit="10"/><path fill="none" stroke="black" paint-order="fill stroke markers" d=" M 300 459 L 300 455" stroke-miterlimit="10"/><path fill="none" stroke="black" paint-order="fill stroke markers" d=" M 313 459 L 313 455" stroke-miterlimit="10"/><path fill="none" stroke="black" paint-order="fill stroke markers" d=" M 327 459 L 327 455" stroke-miterlimit="10"/><path fill="none" stroke="black" paint-order="fill stroke markers" d=" M 341 459 L 341 455" stroke-miterlimit="10"/><path fill="none" stroke="black" paint-order="fill stroke markers" d=" M 355 459 L 355 455" stroke-miterlimit="10"/><path fill="none" stroke="black" paint-order="fill stroke markers" d=" M 369 459 L 369 455" stroke-miterlimit="10"/><path fill="none" stroke="black" paint-order="fill stroke markers" d=" M 383 459 L 383 455" stroke-miterlimit="10"/><path fill="none" stroke="black" paint-order="fill stroke markers" d=" M 397 459 L 397 455" stroke-miterlimit="10"/><path fill="none" stroke="black" paint-order="fill stroke markers" d=" M 411 459 L 411 455" stroke-miterlimit="10"/><path fill="none" stroke="black" paint-order="fill stroke markers" d=" M 424 459 L 424 455" stroke-miterlimit="10"/><path fill="none" stroke="black" paint-order="fill stroke markers" d=" M 438 459 L 438 455" stroke-miterlimit="10"/><path fill="none" stroke="black" paint-order="fill stroke markers" d=" M 452 459 L 452 455" stroke-miterlimit="10"/><path fill="none" stroke="black" paint-order="fill stroke markers" d=" M 466 459 L 466 455" stroke-miterlimit="10"/><path fill="none" stroke="black" paint-order="fill stroke markers" d=" M 480 459 L 480 455" stroke-miterlimit="10"/><path fill="none" stroke="black" paint-order="fill stroke markers" d=" M 494 459 L 494 455" stroke-miterlimit="10"/><path fill="none" stroke="black" paint-order="fill stroke markers" d=" M 508 459 L 508 455" stroke-miterlimit="10"/><path fill="none" stroke="black" paint-order="fill stroke markers" d=" M 522 459 L 522 455" stroke-miterlimit="10"/><path fill="none" stroke="black" paint-order="fill stroke markers" d=" M 535 459 L 535 455" stroke-miterlimit="10"/><path fill="none" stroke="black" paint-order="fill stroke markers" d=" M 549 459 L 549 455" stroke-miterlimit="10"/><path fill="none" stroke="black" paint-order="fill stroke markers" d=" M 563 459 L 563 455" stroke-miterlimit="10"/><path fill="none" stroke="black" paint-order="fill stroke markers" d=" M 577 459 L 577 455" stroke-miterlimit="10"/><path fill="none" stroke="black" paint-order="fill stroke markers" d=" M 591 459 L 591 455" stroke-miterlimit="10"/><path fill="none" stroke="black" paint-order="fill stroke markers" d=" M 605 459 L 605 455" stroke-miterlimit="10"/><path fill="none" stroke="black" paint-order="fill stroke markers" d=" M 619 459 L 619 455" stroke-miterlimit="10"/><path fill="none" stroke="black" paint-order="fill stroke markers" d=" M 633 459 L 633 455" stroke-miterlimit="10"/><path fill="" stroke="black" paint-order="fill stroke markers" d=" M 646 459 L 646 455" stroke-miterlimit="10"/><g transform="translate(133,466) rotate(0,0,0)"><text fill="" stroke="none" font-family="helvetica" font-size="8pt" font-style="normal" font-weight="normal" text-decoration="normal" x="0" y="0" text-anchor="middle" dominant-baseline="hanging">0</text><g transform="rotate(0,0,0) translate(-133,-466) translate(202,466) rotate(0,0,0)"><text fill="" stroke="none" font-family="helvetica" font-size="8pt" font-style="normal" font-weight="normal" text-decoration="normal" x="0" y="0" text-anchor="middle" dominant-baseline="hanging">100</text><g transform="rotate(0,0,0) translate(-202,-466) translate(272,466) rotate(0,0,0)"><text fill="" stroke="none" font-family="helvetica" font-size="8pt" font-style="normal" font-weight="normal" text-decoration="normal" x="0" y="0" text-anchor="middle" dominant-baseline="hanging">200</text><g transform="rotate(0,0,0) translate(-272,-466) translate(341,466) rotate(0,0,0)"><text fill="" stroke="none" font-family="helvetica" font-size="8pt" font-style="normal" font-weight="normal" text-decoration="normal" x="0" y="0" text-anchor="middle" dominant-baseline="hanging">300</text><g transform="rotate(0,0,0) translate(-341,-466) translate(411,466) rotate(0,0,0)"><text fill="" stroke="none" font-family="helvetica" font-size="8pt" font-style="normal" font-weight="normal" text-decoration="normal" x="0" y="0" text-anchor="middle" dominant-baseline="hanging">400</text><g transform="rotate(0,0,0) translate(-411,-466) translate(480,466) rotate(0,0,0)"><text fill="" stroke="none" font-family="helvetica" font-size="8pt" font-style="normal" font-weight="normal" text-decoration="normal" x="0" y="0" text-anchor="middle" dominant-baseline="hanging">500</text><g transform="rotate(0,0,0) translate(-480,-466) translate(549,466) rotate(0,0,0)"><text fill="" stroke="none" font-family="helvetica" font-size="8pt" font-style="normal" font-weight="normal" text-decoration="normal" x="0" y="0" text-anchor="middle" dominant-baseline="hanging">600</text><g transform="rotate(0,0,0) translate(-549,-466) translate(619,466) rotate(0,0,0)"><text fill="" stroke="none" font-family="helvetica" font-size="8pt" font-style="normal" font-weight="normal" text-decoration="normal" x="0" y="0" text-anchor="middle" dominant-baseline="hanging">700</text><g transform="rotate(0,0,0) translate(-619,-466) translate(392,484) rotate(0,0,0)"><text fill="" stroke="none" font-family="helvetica" font-size="10pt" font-style="italic" font-weight="normal" text-decoration="normal" x="0" y="0" text-anchor="middle" dominant-baseline="hanging">Respondents</text><g transform="rotate(0,0,0) translate(-392,-484)"/></g></g></g></g></g></g></g></g></g></g><g fill="#444444"><path fill="none" stroke="black" paint-order="fill stroke markers" d=" M 133 455 L 133 28" stroke-miterlimit="10"/><path fill="none" stroke="black" paint-order="fill stroke markers" d=" M 127 434 L 135 434" stroke-miterlimit="10"/><path fill="none" stroke="black" paint-order="fill stroke markers" d=" M 127 391 L 135 391" stroke-miterlimit="10"/><path fill="none" stroke="black" paint-order="fill stroke markers" d=" M 127 348 L 135 348" stroke-miterlimit="10"/><path fill="none" stroke="black" paint-order="fill stroke markers" d=" M 127 306 L 135 306" stroke-miterlimit="10"/><path fill="none" stroke="black" paint-order="fill stroke markers" d=" M 127 263 L 135 263" stroke-miterlimit="10"/><path fill="none" stroke="black" paint-order="fill stroke markers" d=" M 127 220 L 135 220" stroke-miterlimit="10"/><path fill="none" stroke="black" paint-order="fill stroke markers" d=" M 127 177 L 135 177" stroke-miterlimit="10"/><path fill="none" stroke="black" paint-order="fill stroke markers" d=" M 127 135 L 135 135" stroke-miterlimit="10"/><path fill="none" stroke="black" paint-order="fill stroke markers" d=" M 127 92 L 135 92" stroke-miterlimit="10"/><path fill="" stroke="black" paint-order="fill stroke markers" d=" M 127 49 L 135 49" stroke-miterlimit="10"/><g transform="translate(122,434) rotate(0,0,0)"><text fill="" stroke="none" font-family="helvetica" font-size="8pt" font-style="normal" font-weight="normal" text-decoration="normal" x="0" y="0" text-anchor="end" dominant-baseline="central">Owner/Partner</text><g transform="rotate(0,0,0) translate(-122,-434) translate(122,391) rotate(0,0,0)"><text fill="" stroke="none" font-family="helvetica" font-size="8pt" font-style="normal" font-weight="normal" text-decoration="normal" x="0" y="0" text-anchor="end" dominant-baseline="central">Mid-level specialist</text><g transform="rotate(0,0,0) translate(-122,-391) translate(122,348) rotate(0,0,0)"><text fill="" stroke="none" font-family="helvetica" font-size="8pt" font-style="normal" font-weight="normal" text-decoration="normal" x="0" y="0" text-anchor="end" dominant-baseline="central">Art Director</text><g transform="rotate(0,0,0) translate(-122,-348) translate(122,306) rotate(0,0,0)"><text fill="" stroke="none" font-family="helvetica" font-size="8pt" font-style="normal" font-weight="normal" text-decoration="normal" x="0" y="0" text-anchor="end" dominant-baseline="central">Junior contributor</text><g transform="rotate(0,0,0) translate(-122,-306) translate(122,263) rotate(0,0,0)"><text fill="" stroke="none" font-family="helvetica" font-size="8pt" font-style="normal" font-weight="normal" text-decoration="normal" x="0" y="0" text-anchor="end" dominant-baseline="central">Creative Director</text><g transform="rotate(0,0,0) translate(-122,-263) translate(122,220) rotate(0,0,0)"><text fill="" stroke="none" font-family="helvetica" font-size="8pt" font-style="normal" font-weight="normal" text-decoration="normal" x="0" y="0" text-anchor="end" dominant-baseline="central">Other</text><g transform="rotate(0,0,0) translate(-122,-220) translate(122,177) rotate(0,0,0)"><text fill="" stroke="none" font-family="helvetica" font-size="8pt" font-style="normal" font-weight="normal" text-decoration="normal" x="0" y="0" text-anchor="end" dominant-baseline="central">Senior manager</text><g transform="rotate(0,0,0) translate(-122,-177) translate(122,135) rotate(0,0,0)"><text fill="" stroke="none" font-family="helvetica" font-size="8pt" font-style="normal" font-weight="normal" text-decoration="normal" x="0" y="0" text-anchor="end" dominant-baseline="central">Director</text><g transform="rotate(0,0,0) translate(-122,-135) translate(122,92) rotate(0,0,0)"><text fill="" stroke="none" font-family="helvetica" font-size="8pt" font-style="normal" font-weight="normal" text-decoration="normal" x="0" y="0" text-anchor="end" dominant-baseline="central">Intern</text><g transform="rotate(0,0,0) translate(-122,-92) translate(122,49) rotate(0,0,0)"><text fill="" stroke="none" font-family="helvetica" font-size="8pt" font-style="normal" font-weight="normal" text-decoration="normal" x="0" y="0" text-anchor="end" dominant-baseline="central">Executive</text><g transform="rotate(0,0,0) translate(-122,-49) translate(16,242) rotate(-90,0,0)"><text fill="" stroke="none" font-family="helvetica" font-size="10pt" font-style="italic" font-weight="normal" text-decoration="normal" x="0" y="0" text-anchor="middle" dominant-baseline="alphabetic">Categories</text><g transform="rotate(90,0,0) translate(-16,-242)"/></g></g></g></g></g></g></g></g></g></g></g></g><g fill="#444444"><path fill="" stroke="none" d=""/><g transform="translate(133,23)"><path fill="none" stroke="none"/><text fill="" stroke="none" font-family="helvetica" font-size="10pt" font-style="normal" font-weight="bold" text-decoration="normal" x="0" y="0" text-anchor="start" dominant-baseline="text-after-edge">AIGA-Only: My role is:</text></g></g></g></g></g></svg>