<svg version="1.1" xmlns="http://www.w3.org/2000/svg" xmlns:xlink="http://www.w3.org/1999/xlink" width="700" height="450" style="width: 700px; height: 450px;"><defs/><g><g transform="scale(1,1) translate(0.5,0.5)"><rect fill="#FFFFFF" stroke="none" x="0" y="0" width="700" height="450"/><rect fill="#ffffff" stroke="none" x="0" y="0" width="700" height="450"/><rect fill="#FFFFFF" stroke="none" x="139" y="28" width="511" height="377"/><rect fill="#ffffff" stroke="none" x="139" y="28" width="511" height="377"/><g><rect fill="none" stroke="#e5e5e5" x="139" y="28" width="511" height="377" stroke-miterlimit="10"/></g><g><g><path fill="none" stroke="#e5e5e5" paint-order="fill stroke markers" d=" M 202 405 L 202 28" stroke-miterlimit="10"/><path fill="none" stroke="#e5e5e5" paint-order="fill stroke markers" d=" M 264 405 L 264 28" stroke-miterlimit="10"/><path fill="none" stroke="#e5e5e5" paint-order="fill stroke markers" d=" M 327 405 L 327 28" stroke-miterlimit="10"/><path fill="none" stroke="#e5e5e5" paint-order="fill stroke markers" d=" M 389 405 L 389 28" stroke-miterlimit="10"/><path fill="none" stroke="#e5e5e5" paint-order="fill stroke markers" d=" M 452 405 L 452 28" stroke-miterlimit="10"/><path fill="none" stroke="#e5e5e5" paint-order="fill stroke markers" d=" M 515 405 L 515 28" stroke-miterlimit="10"/><path fill="none" stroke="#e5e5e5" paint-order="fill stroke markers" d=" M 577 405 L 577 28" stroke-miterlimit="10"/><path fill="none" stroke="#e5e5e5" paint-order="fill stroke markers" d=" M 640 405 L 640 28" stroke-miterlimit="10"/></g><g><path fill="none" stroke="#e5e5e5" paint-order="fill stroke markers" d=" M 139 384 L 650 384" stroke-miterlimit="10"/><path fill="none" stroke="#e5e5e5" paint-order="fill stroke markers" d=" M 139 342 L 650 342" stroke-miterlimit="10"/><path fill="none" stroke="#e5e5e5" paint-order="fill stroke markers" d=" M 139 300 L 650 300" stroke-miterlimit="10"/><path fill="none" stroke="#e5e5e5" paint-order="fill stroke markers" d=" M 139 258 L 650 258" stroke-miterlimit="10"/><path fill="none" stroke="#e5e5e5" paint-order="fill stroke markers" d=" M 139 217 L 650 217" stroke-miterlimit="10"/><path fill="none" stroke="#e5e5e5" paint-order="fill stroke markers" d=" M 139 175 L 650 175" stroke-miterlimit="10"/><path fill="none" stroke="#e5e5e5" paint-order="fill stroke markers" d=" M 139 133 L 650 133" stroke-miterlimit="10"/><path fill="none" stroke="#e5e5e5" paint-order="fill stroke markers" d=" M 139 91 L 650 91" stroke-miterlimit="10"/><path fill="none" stroke="#e5e5e5" paint-order="fill stroke markers" d=" M 139 49 L 650 49" stroke-miterlimit="10"/></g><g><path fill="none" stroke="none"/><rect fill="#1f77b4" stroke="none" x="139" y="368.3472222222222" width="269.27696078431376" height="31.416666666666742"/><path fill="none" stroke="#1f77b4" paint-order="fill stroke markers" d=" M 139 368.3472222222222 L 408.27696078431376 368.3472222222222 L 408.27696078431376 399.7638888888889 L 139 399.7638888888889 L 139 368.3472222222222 Z" stroke-miterlimit="10"/><rect fill="#1f77b4" stroke="none" x="139" y="326.45833333333337" width="109.58946078431373" height="31.41666666666663"/><path fill="none" stroke="#1f77b4" paint-order="fill stroke markers" d=" M 139 326.45833333333337 L 248.58946078431373 326.45833333333337 L 248.58946078431373 357.875 L 139 357.875 L 139 326.45833333333337 Z" stroke-miterlimit="10"/><rect fill="#1f77b4" stroke="none" x="139" y="284.56944444444446" width="87.671568627451" height="31.41666666666663"/><path fill="none" stroke="#1f77b4" paint-order="fill stroke markers" d=" M 139 284.56944444444446 L 226.671568627451 284.56944444444446 L 226.671568627451 315.9861111111111 L 139 315.9861111111111 L 139 284.56944444444446 Z" stroke-miterlimit="10"/><rect fill="#1f77b4" stroke="none" x="139" y="242.6805555555556" width="81.40931372549022" height="31.41666666666663"/><path fill="none" stroke="#1f77b4" paint-order="fill stroke markers" d=" M 139 242.6805555555556 L 220.40931372549022 242.6805555555556 L 220.40931372549022 274.09722222222223 L 139 274.09722222222223 L 139 242.6805555555556 Z" stroke-miterlimit="10"/><rect fill="#1f77b4" stroke="none" x="139" y="200.79166666666669" width="72.015931372549" height="31.41666666666663"/><path fill="none" stroke="#1f77b4" paint-order="fill stroke markers" d=" M 139 200.79166666666669 L 211.015931372549 200.79166666666669 L 211.015931372549 232.20833333333331 L 139 232.20833333333331 L 139 200.79166666666669 Z" stroke-miterlimit="10"/><rect fill="#1f77b4" stroke="none" x="139" y="158.90277777777783" width="40.70465686274511" height="31.41666666666663"/><path fill="none" stroke="#1f77b4" paint-order="fill stroke markers" d=" M 139 158.90277777777783 L 179.7046568627451 158.90277777777783 L 179.7046568627451 190.31944444444446 L 139 190.31944444444446 L 139 158.90277777777783 Z" stroke-miterlimit="10"/><rect fill="#1f77b4" stroke="none" x="139" y="117.01388888888889" width="34.44240196078431" height="31.416666666666686"/><path fill="none" stroke="#1f77b4" paint-order="fill stroke markers" d=" M 139 117.01388888888889 L 173.4424019607843 117.01388888888889 L 173.4424019607843 148.43055555555557 L 139 148.43055555555557 L 139 117.01388888888889 Z" stroke-miterlimit="10"/><rect fill="#1f77b4" stroke="none" x="139" y="75.12500000000003" width="6.262254901960773" height="31.416666666666686"/><path fill="none" stroke="#1f77b4" paint-order="fill stroke markers" d=" M 139 75.12500000000003 L 145.26225490196077 75.12500000000003 L 145.26225490196077 106.54166666666671 L 139 106.54166666666671 L 139 75.12500000000003 Z" stroke-miterlimit="10"/><rect fill="#1f77b4" stroke="none" x="139" y="33.236111111111114" width="3.1311274509803866" height="31.416666666666686"/><path fill="none" stroke="#1f77b4" paint-order="fill stroke markers" d=" M 139 33.236111111111114 L 142.1311274509804 33.236111111111114 L 142.1311274509804 64.6527777777778 L 139 64.6527777777778 L 139 33.236111111111114 Z" stroke-miterlimit="10"/></g><g fill="#444444"><path fill="" stroke="none" d=""/><g transform="translate(418.27696078431376,382.05555555555554) rotate(0,0,0)"><path fill="none" stroke="none"/><text fill="" stroke="none" font-family="helvetica" font-size="8pt" font-style="normal" font-weight="normal" text-decoration="normal" x="0" y="0" text-anchor="start" dominant-baseline="text-after-edge">1.85%</text></g></g><g fill="#444444"><path fill="" stroke="none" d=""/><g transform="translate(258.5894607843137,340.1666666666667) rotate(0,0,0)"><path fill="none" stroke="none"/><text fill="" stroke="none" font-family="helvetica" font-size="8pt" font-style="normal" font-weight="normal" text-decoration="normal" x="0" y="0" text-anchor="start" dominant-baseline="text-after-edge">0.75%</text></g></g><g fill="#444444"><path fill="" stroke="none" d=""/><g transform="translate(236.671568627451,298.27777777777777) rotate(0,0,0)"><path fill="none" stroke="none"/><text fill="" stroke="none" font-family="helvetica" font-size="8pt" font-style="normal" font-weight="normal" text-decoration="normal" x="0" y="0" text-anchor="start" dominant-baseline="text-after-edge">0.60%</text></g></g><g fill="#444444"><path fill="" stroke="none" d=""/><g transform="translate(230.40931372549022,256.3888888888889) rotate(0,0,0)"><path fill="none" stroke="none"/><text fill="" stroke="none" font-family="helvetica" font-size="8pt" font-style="normal" font-weight="normal" text-decoration="normal" x="0" y="0" text-anchor="start" dominant-baseline="text-after-edge">0.56%</text></g></g><g fill="#444444"><path fill="" stroke="none" d=""/><g transform="translate(221.015931372549,214.5) rotate(0,0,0)"><path fill="none" stroke="none"/><text fill="" stroke="none" font-family="helvetica" font-size="8pt" font-style="normal" font-weight="normal" text-decoration="normal" x="0" y="0" text-anchor="start" dominant-baseline="text-after-edge">0.50%</text></g></g><g fill="#444444"><path fill="" stroke="none" d=""/><g transform="translate(189.7046568627451,172.61111111111114) rotate(0,0,0)"><path fill="none" stroke="none"/><text fill="" stroke="none" font-family="helvetica" font-size="8pt" font-style="normal" font-weight="normal" text-decoration="normal" x="0" y="0" text-anchor="start" dominant-baseline="text-after-edge">0.28%</text></g></g><g fill="#444444"><path fill="" stroke="none" d=""/><g transform="translate(183.4424019607843,130.72222222222223) rotate(0,0,0)"><path fill="none" stroke="none"/><text fill="" stroke="none" font-family="helvetica" font-size="8pt" font-style="normal" font-weight="normal" text-decoration="normal" x="0" y="0" text-anchor="start" dominant-baseline="text-after-edge">0.24%</text></g></g><g fill="#444444"><path fill="" stroke="none" d=""/><g transform="translate(155.26225490196077,88.83333333333337) rotate(0,0,0)"><path fill="none" stroke="none"/><text fill="" stroke="none" font-family="helvetica" font-size="8pt" font-style="normal" font-weight="normal" text-decoration="normal" x="0" y="0" text-anchor="start" dominant-baseline="text-after-edge">0.04%</text></g></g><g fill="#444444"><path fill="" stroke="none" d=""/><g transform="translate(152.1311274509804,46.94444444444446) rotate(0,0,0)"><path fill="none" stroke="none"/><text fill="" stroke="none" font-family="helvetica" font-size="8pt" font-style="normal" font-weight="normal" text-decoration="normal" x="0" y="0" text-anchor="start" dominant-baseline="text-after-edge">0.02%</text></g></g><g fill="#444444"><path fill="" stroke="none" d=""/><g transform="translate(418.27696078431376,396.05555555555554) rotate(0,0,0)"><path fill="none" stroke="none"/><text fill="" stroke="none" font-family="helvetica" font-size="8pt" font-style="normal" font-weight="normal" text-decoration="normal" x="0" y="0" text-anchor="start" dominant-baseline="text-after-edge">86</text></g></g><g fill="#444444"><path fill="" stroke="none" d=""/><g transform="translate(258.5894607843137,354.1666666666667) rotate(0,0,0)"><path fill="none" stroke="none"/><text fill="" stroke="none" font-family="helvetica" font-size="8pt" font-style="normal" font-weight="normal" text-decoration="normal" x="0" y="0" text-anchor="start" dominant-baseline="text-after-edge">35</text></g></g><g fill="#444444"><path fill="" stroke="none" d=""/><g transform="translate(236.671568627451,312.27777777777777) rotate(0,0,0)"><path fill="none" stroke="none"/><text fill="" stroke="none" font-family="helvetica" font-size="8pt" font-style="normal" font-weight="normal" text-decoration="normal" x="0" y="0" text-anchor="start" dominant-baseline="text-after-edge">28</text></g></g><g fill="#444444"><path fill="" stroke="none" d=""/><g transform="translate(230.40931372549022,270.3888888888889) rotate(0,0,0)"><path fill="none" stroke="none"/><text fill="" stroke="none" font-family="helvetica" font-size="8pt" font-style="normal" font-weight="normal" text-decoration="normal" x="0" y="0" text-anchor="start" dominant-baseline="text-after-edge">26</text></g></g><g fill="#444444"><path fill="" stroke="none" d=""/><g transform="translate(221.015931372549,228.5) rotate(0,0,0)"><path fill="none" stroke="none"/><text fill="" stroke="none" font-family="helvetica" font-size="8pt" font-style="normal" font-weight="normal" text-decoration="normal" x="0" y="0" text-anchor="start" dominant-baseline="text-after-edge">23</text></g></g><g fill="#444444"><path fill="" stroke="none" d=""/><g transform="translate(189.7046568627451,186.61111111111114) rotate(0,0,0)"><path fill="none" stroke="none"/><text fill="" stroke="none" font-family="helvetica" font-size="8pt" font-style="normal" font-weight="normal" text-decoration="normal" x="0" y="0" text-anchor="start" dominant-baseline="text-after-edge">13</text></g></g><g fill="#444444"><path fill="" stroke="none" d=""/><g transform="translate(183.4424019607843,144.72222222222223) rotate(0,0,0)"><path fill="none" stroke="none"/><text fill="" stroke="none" font-family="helvetica" font-size="8pt" font-style="normal" font-weight="normal" text-decoration="normal" x="0" y="0" text-anchor="start" dominant-baseline="text-after-edge">11</text></g></g><g fill="#444444"><path fill="" stroke="none" d=""/><g transform="translate(155.26225490196077,102.83333333333337) rotate(0,0,0)"><path fill="none" stroke="none"/><text fill="" stroke="none" font-family="helvetica" font-size="8pt" font-style="normal" font-weight="normal" text-decoration="normal" x="0" y="0" text-anchor="start" dominant-baseline="text-after-edge">2</text></g></g><g fill="#444444"><path fill="" stroke="none" d=""/><g transform="translate(152.1311274509804,60.94444444444446) rotate(0,0,0)"><path fill="none" stroke="none"/><text fill="" stroke="none" font-family="helvetica" font-size="8pt" font-style="normal" font-weight="normal" text-decoration="normal" x="0" y="0" text-anchor="start" dominant-baseline="text-after-edge">1</text></g></g></g><g/><g><g fill="#444444"><path fill="none" stroke="black" paint-order="fill stroke markers" d=" M 139 405 L 650 405" stroke-miterlimit="10"/><path fill="none" stroke="black" paint-order="fill stroke markers" d=" M 139 411 L 139 403" stroke-miterlimit="10"/><path fill="none" stroke="black" paint-order="fill stroke markers" d=" M 202 411 L 202 403" stroke-miterlimit="10"/><path fill="none" stroke="black" paint-order="fill stroke markers" d=" M 264 411 L 264 403" stroke-miterlimit="10"/><path fill="none" stroke="black" paint-order="fill stroke markers" d=" M 327 411 L 327 403" stroke-miterlimit="10"/><path fill="none" stroke="black" paint-order="fill stroke markers" d=" M 389 411 L 389 403" stroke-miterlimit="10"/><path fill="none" stroke="black" paint-order="fill stroke markers" d=" M 452 411 L 452 403" stroke-miterlimit="10"/><path fill="none" stroke="black" paint-order="fill stroke markers" d=" M 515 411 L 515 403" stroke-miterlimit="10"/><path fill="none" stroke="black" paint-order="fill stroke markers" d=" M 577 411 L 577 403" stroke-miterlimit="10"/><path fill="none" stroke="black" paint-order="fill stroke markers" d=" M 640 411 L 640 403" stroke-miterlimit="10"/><path fill="none" stroke="black" paint-order="fill stroke markers" d=" M 139 409 L 139 405" stroke-miterlimit="10"/><path fill="none" stroke="black" paint-order="fill stroke markers" d=" M 152 409 L 152 405" stroke-miterlimit="10"/><path fill="none" stroke="black" paint-order="fill stroke markers" d=" M 164 409 L 164 405" stroke-miterlimit="10"/><path fill="none" stroke="black" paint-order="fill stroke markers" d=" M 177 409 L 177 405" stroke-miterlimit="10"/><path fill="none" stroke="black" paint-order="fill stroke markers" d=" M 189 409 L 189 405" stroke-miterlimit="10"/><path fill="none" stroke="black" paint-order="fill stroke markers" d=" M 202 409 L 202 405" stroke-miterlimit="10"/><path fill="none" stroke="black" paint-order="fill stroke markers" d=" M 214 409 L 214 405" stroke-miterlimit="10"/><path fill="none" stroke="black" paint-order="fill stroke markers" d=" M 227 409 L 227 405" stroke-miterlimit="10"/><path fill="none" stroke="black" paint-order="fill stroke markers" d=" M 239 409 L 239 405" stroke-miterlimit="10"/><path fill="none" stroke="black" paint-order="fill stroke markers" d=" M 252 409 L 252 405" stroke-miterlimit="10"/><path fill="none" stroke="black" paint-order="fill stroke markers" d=" M 264 409 L 264 405" stroke-miterlimit="10"/><path fill="none" stroke="black" paint-order="fill stroke markers" d=" M 277 409 L 277 405" stroke-miterlimit="10"/><path fill="none" stroke="black" paint-order="fill stroke markers" d=" M 289 409 L 289 405" stroke-miterlimit="10"/><path fill="none" stroke="black" paint-order="fill stroke markers" d=" M 302 409 L 302 405" stroke-miterlimit="10"/><path fill="none" stroke="black" paint-order="fill stroke markers" d=" M 314 409 L 314 405" stroke-miterlimit="10"/><path fill="none" stroke="black" paint-order="fill stroke markers" d=" M 327 409 L 327 405" stroke-miterlimit="10"/><path fill="none" stroke="black" paint-order="fill stroke markers" d=" M 339 409 L 339 405" stroke-miterlimit="10"/><path fill="none" stroke="black" paint-order="fill stroke markers" d=" M 352 409 L 352 405" stroke-miterlimit="10"/><path fill="none" stroke="black" paint-order="fill stroke markers" d=" M 364 409 L 364 405" stroke-miterlimit="10"/><path fill="none" stroke="black" paint-order="fill stroke markers" d=" M 377 409 L 377 405" stroke-miterlimit="10"/><path fill="none" stroke="black" paint-order="fill stroke markers" d=" M 389 409 L 389 405" stroke-miterlimit="10"/><path fill="none" stroke="black" paint-order="fill stroke markers" d=" M 402 409 L 402 405" stroke-miterlimit="10"/><path fill="none" stroke="black" paint-order="fill stroke markers" d=" M 415 409 L 415 405" stroke-miterlimit="10"/><path fill="none" stroke="black" paint-order="fill stroke markers" d=" M 427 409 L 427 405" stroke-miterlimit="10"/><path fill="none" stroke="black" paint-order="fill stroke markers" d=" M 440 409 L 440 405" stroke-miterlimit="10"/><path fill="none" stroke="black" paint-order="fill stroke markers" d=" M 452 409 L 452 405" stroke-miterlimit="10"/><path fill="none" stroke="black" paint-order="fill stroke markers" d=" M 465 409 L 465 405" stroke-miterlimit="10"/><path fill="none" stroke="black" paint-order="fill stroke markers" d=" M 477 409 L 477 405" stroke-miterlimit="10"/><path fill="none" stroke="black" paint-order="fill stroke markers" d=" M 490 409 L 490 405" stroke-miterlimit="10"/><path fill="none" stroke="black" paint-order="fill stroke markers" d=" M 502 409 L 502 405" stroke-miterlimit="10"/><path fill="none" stroke="black" paint-order="fill stroke markers" d=" M 515 409 L 515 405" stroke-miterlimit="10"/><path fill="none" stroke="black" paint-order="fill stroke markers" d=" M 527 409 L 527 405" stroke-miterlimit="10"/><path fill="none" stroke="black" paint-order="fill stroke markers" d=" M 540 409 L 540 405" stroke-miterlimit="10"/><path fill="none" stroke="black" paint-order="fill stroke markers" d=" M 552 409 L 552 405" stroke-miterlimit="10"/><path fill="none" stroke="black" paint-order="fill stroke markers" d=" M 565 409 L 565 405" stroke-miterlimit="10"/><path fill="none" stroke="black" paint-order="fill stroke markers" d=" M 577 409 L 577 405" stroke-miterlimit="10"/><path fill="none" stroke="black" paint-order="fill stroke markers" d=" M 590 409 L 590 405" stroke-miterlimit="10"/><path fill="none" stroke="black" paint-order="fill stroke markers" d=" M 602 409 L 602 405" stroke-miterlimit="10"/><path fill="none" stroke="black" paint-order="fill stroke markers" d=" M 615 409 L 615 405" stroke-miterlimit="10"/><path fill="none" stroke="black" paint-order="fill stroke markers" d=" M 627 409 L 627 405" stroke-miterlimit="10"/><path fill="" stroke="black" paint-order="fill stroke markers" d=" M 640 409 L 640 405" stroke-miterlimit="10"/><g transform="translate(139,416) rotate(0,0,0)"><text fill="" stroke="none" font-family="helvetica" font-size="8pt" font-style="normal" font-weight="normal" text-decoration="normal" x="0" y="0" text-anchor="middle" dominant-baseline="hanging">0</text><g transform="rotate(0,0,0) translate(-139,-416) translate(202,416) rotate(0,0,0)"><text fill="" stroke="none" font-family="helvetica" font-size="8pt" font-style="normal" font-weight="normal" text-decoration="normal" x="0" y="0" text-anchor="middle" dominant-baseline="hanging">20</text><g transform="rotate(0,0,0) translate(-202,-416) translate(264,416) rotate(0,0,0)"><text fill="" stroke="none" font-family="helvetica" font-size="8pt" font-style="normal" font-weight="normal" text-decoration="normal" x="0" y="0" text-anchor="middle" dominant-baseline="hanging">40</text><g transform="rotate(0,0,0) translate(-264,-416) translate(327,416) rotate(0,0,0)"><text fill="" stroke="none" font-family="helvetica" font-size="8pt" font-style="normal" font-weight="normal" text-decoration="normal" x="0" y="0" text-anchor="middle" dominant-baseline="hanging">60</text><g transform="rotate(0,0,0) translate(-327,-416) translate(389,416) rotate(0,0,0)"><text fill="" stroke="none" font-family="helvetica" font-size="8pt" font-style="normal" font-weight="normal" text-decoration="normal" x="0" y="0" text-anchor="middle" dominant-baseline="hanging">80</text><g transform="rotate(0,0,0) translate(-389,-416) translate(452,416) rotate(0,0,0)"><text fill="" stroke="none" font-family="helvetica" font-size="8pt" font-style="normal" font-weight="normal" text-decoration="normal" x="0" y="0" text-anchor="middle" dominant-baseline="hanging">100</text><g transform="rotate(0,0,0) translate(-452,-416) translate(515,416) rotate(0,0,0)"><text fill="" stroke="none" font-family="helvetica" font-size="8pt" font-style="normal" font-weight="normal" text-decoration="normal" x="0" y="0" text-anchor="middle" dominant-baseline="hanging">120</text><g transform="rotate(0,0,0) translate(-515,-416) translate(577,416) rotate(0,0,0)"><text fill="" stroke="none" font-family="helvetica" font-size="8pt" font-style="normal" font-weight="normal" text-decoration="normal" x="0" y="0" text-anchor="middle" dominant-baseline="hanging">140</text><g transform="rotate(0,0,0) translate(-577,-416) translate(640,416) rotate(0,0,0)"><text fill="" stroke="none" font-family="helvetica" font-size="8pt" font-style="normal" font-weight="normal" text-decoration="normal" x="0" y="0" text-anchor="middle" dominant-baseline="hanging">160</text><g transform="rotate(0,0,0) translate(-640,-416) translate(395,434) rotate(0,0,0)"><text fill="" stroke="none" font-family="helvetica" font-size="10pt" font-style="italic" font-weight="normal" text-decoration="normal" x="0" y="0" text-anchor="middle" dominant-baseline="hanging">Respondents</text><g transform="rotate(0,0,0) translate(-395,-434)"/></g></g></g></g></g></g></g></g></g></g></g><g fill="#444444"><path fill="none" stroke="black" paint-order="fill stroke markers" d=" M 139 405 L 139 28" stroke-miterlimit="10"/><path fill="none" stroke="black" paint-order="fill stroke markers" d=" M 133 384 L 141 384" stroke-miterlimit="10"/><path fill="none" stroke="black" paint-order="fill stroke markers" d=" M 133 342 L 141 342" stroke-miterlimit="10"/><path fill="none" stroke="black" paint-order="fill stroke markers" d=" M 133 300 L 141 300" stroke-miterlimit="10"/><path fill="none" stroke="black" paint-order="fill stroke markers" d=" M 133 258 L 141 258" stroke-miterlimit="10"/><path fill="none" stroke="black" paint-order="fill stroke markers" d=" M 133 217 L 141 217" stroke-miterlimit="10"/><path fill="none" stroke="black" paint-order="fill stroke markers" d=" M 133 175 L 141 175" stroke-miterlimit="10"/><path fill="none" stroke="black" paint-order="fill stroke markers" d=" M 133 133 L 141 133" stroke-miterlimit="10"/><path fill="none" stroke="black" paint-order="fill stroke markers" d=" M 133 91 L 141 91" stroke-miterlimit="10"/><path fill="" stroke="black" paint-order="fill stroke markers" d=" M 133 49 L 141 49" stroke-miterlimit="10"/><g transform="translate(128,384) rotate(0,0,0)"><text fill="" stroke="none" font-family="helvetica" font-size="8pt" font-style="normal" font-weight="normal" text-decoration="normal" x="0" y="0" text-anchor="end" dominant-baseline="central">Associate Professor</text><g transform="rotate(0,0,0) translate(-128,-384) translate(128,342) rotate(0,0,0)"><text fill="" stroke="none" font-family="helvetica" font-size="8pt" font-style="normal" font-weight="normal" text-decoration="normal" x="0" y="0" text-anchor="end" dominant-baseline="central">Professor</text><g transform="rotate(0,0,0) translate(-128,-342) translate(128,300) rotate(0,0,0)"><text fill="" stroke="none" font-family="helvetica" font-size="8pt" font-style="normal" font-weight="normal" text-decoration="normal" x="0" y="0" text-anchor="end" dominant-baseline="central">Program Chair</text><g transform="rotate(0,0,0) translate(-128,-300) translate(128,258) rotate(0,0,0)"><text fill="" stroke="none" font-family="helvetica" font-size="8pt" font-style="normal" font-weight="normal" text-decoration="normal" x="0" y="0" text-anchor="end" dominant-baseline="central">Other</text><g transform="rotate(0,0,0) translate(-128,-258) translate(128,217) rotate(0,0,0)"><text fill="" stroke="none" font-family="helvetica" font-size="8pt" font-style="normal" font-weight="normal" text-decoration="normal" x="0" y="0" text-anchor="end" dominant-baseline="central">Instructor</text><g transform="rotate(0,0,0) translate(-128,-217) translate(128,175) rotate(0,0,0)"><text fill="" stroke="none" font-family="helvetica" font-size="8pt" font-style="normal" font-weight="normal" text-decoration="normal" x="0" y="0" text-anchor="end" dominant-baseline="central">Adjunct Professor</text><g transform="rotate(0,0,0) translate(-128,-175) translate(128,133) rotate(0,0,0)"><text fill="" stroke="none" font-family="helvetica" font-size="8pt" font-style="normal" font-weight="normal" text-decoration="normal" x="0" y="0" text-anchor="end" dominant-baseline="central">Lecturer</text><g transform="rotate(0,0,0) translate(-128,-133) translate(128,91) rotate(0,0,0)"><text fill="" stroke="none" font-family="helvetica" font-size="8pt" font-style="normal" font-weight="normal" text-decoration="normal" x="0" y="0" text-anchor="end" dominant-baseline="central">Dean</text><g transform="rotate(0,0,0) translate(-128,-91) translate(128,49) rotate(0,0,0)"><text fill="" stroke="none" font-family="helvetica" font-size="8pt" font-style="normal" font-weight="normal" text-decoration="normal" x="0" y="0" text-anchor="end" dominant-baseline="central">Associate Dean</text><g transform="rotate(0,0,0) translate(-128,-49) translate(16,217) rotate(-90,0,0)"><text fill="" stroke="none" font-family="helvetica" font-size="10pt" font-style="italic" font-weight="normal" text-decoration="normal" x="0" y="0" text-anchor="middle" dominant-baseline="alphabetic">Categories</text><g transform="rotate(90,0,0) translate(-16,-217)"/></g></g></g></g></g></g></g></g></g></g></g><g fill="#444444"><path fill="" stroke="none" d=""/><g transform="translate(139,23)"><path fill="none" stroke="none"/><text fill="" stroke="none" font-family="helvetica" font-size="10pt" font-style="normal" font-weight="bold" text-decoration="normal" x="0" y="0" text-anchor="start" dominant-baseline="text-after-edge">AIGA-Only: My role is:</text></g></g></g></g></g></svg>