<svg version="1.1" xmlns="http://www.w3.org/2000/svg" xmlns:xlink="http://www.w3.org/1999/xlink" width="700" height="1000" style="width: 700px; height: 1000px;"><defs/><g><g transform="scale(1,1) translate(0.5,0.5)"><rect fill="#FFFFFF" stroke="none" x="0" y="0" width="700" height="1000"/><rect fill="#ffffff" stroke="none" x="0" y="0" width="700" height="1000"/><rect fill="#FFFFFF" stroke="none" x="242" y="28" width="408" height="927"/><rect fill="#ffffff" stroke="none" x="242" y="28" width="408" height="927"/><g><rect fill="none" stroke="#e5e5e5" x="242" y="28" width="408" height="927" stroke-miterlimit="10"/></g><g><g><path fill="none" stroke="#e5e5e5" paint-order="fill stroke markers" d=" M 314 955 L 314 28" stroke-miterlimit="10"/><path fill="none" stroke="#e5e5e5" paint-order="fill stroke markers" d=" M 386 955 L 386 28" stroke-miterlimit="10"/><path fill="none" stroke="#e5e5e5" paint-order="fill stroke markers" d=" M 458 955 L 458 28" stroke-miterlimit="10"/><path fill="none" stroke="#e5e5e5" paint-order="fill stroke markers" d=" M 530 955 L 530 28" stroke-miterlimit="10"/><path fill="none" stroke="#e5e5e5" paint-order="fill stroke markers" d=" M 602 955 L 602 28" stroke-miterlimit="10"/></g><g><path fill="none" stroke="#e5e5e5" paint-order="fill stroke markers" d=" M 242 932 L 650 932" stroke-miterlimit="10"/><path fill="none" stroke="#e5e5e5" paint-order="fill stroke markers" d=" M 242 885 L 650 885" stroke-miterlimit="10"/><path fill="none" stroke="#e5e5e5" paint-order="fill stroke markers" d=" M 242 839 L 650 839" stroke-miterlimit="10"/><path fill="none" stroke="#e5e5e5" paint-order="fill stroke markers" d=" M 242 793 L 650 793" stroke-miterlimit="10"/><path fill="none" stroke="#e5e5e5" paint-order="fill stroke markers" d=" M 242 746 L 650 746" stroke-miterlimit="10"/><path fill="none" stroke="#e5e5e5" paint-order="fill stroke markers" d=" M 242 700 L 650 700" stroke-miterlimit="10"/><path fill="none" stroke="#e5e5e5" paint-order="fill stroke markers" d=" M 242 654 L 650 654" stroke-miterlimit="10"/><path fill="none" stroke="#e5e5e5" paint-order="fill stroke markers" d=" M 242 607 L 650 607" stroke-miterlimit="10"/><path fill="none" stroke="#e5e5e5" paint-order="fill stroke markers" d=" M 242 561 L 650 561" stroke-miterlimit="10"/><path fill="none" stroke="#e5e5e5" paint-order="fill stroke markers" d=" M 242 515 L 650 515" stroke-miterlimit="10"/><path fill="none" stroke="#e5e5e5" paint-order="fill stroke markers" d=" M 242 468 L 650 468" stroke-miterlimit="10"/><path fill="none" stroke="#e5e5e5" paint-order="fill stroke markers" d=" M 242 422 L 650 422" stroke-miterlimit="10"/><path fill="none" stroke="#e5e5e5" paint-order="fill stroke markers" d=" M 242 376 L 650 376" stroke-miterlimit="10"/><path fill="none" stroke="#e5e5e5" paint-order="fill stroke markers" d=" M 242 329 L 650 329" stroke-miterlimit="10"/><path fill="none" stroke="#e5e5e5" paint-order="fill stroke markers" d=" M 242 283 L 650 283" stroke-miterlimit="10"/><path fill="none" stroke="#e5e5e5" paint-order="fill stroke markers" d=" M 242 237 L 650 237" stroke-miterlimit="10"/><path fill="none" stroke="#e5e5e5" paint-order="fill stroke markers" d=" M 242 190 L 650 190" stroke-miterlimit="10"/><path fill="none" stroke="#e5e5e5" paint-order="fill stroke markers" d=" M 242 144 L 650 144" stroke-miterlimit="10"/><path fill="none" stroke="#e5e5e5" paint-order="fill stroke markers" d=" M 242 98 L 650 98" stroke-miterlimit="10"/><path fill="none" stroke="#e5e5e5" paint-order="fill stroke markers" d=" M 242 51 L 650 51" stroke-miterlimit="10"/></g><g><path fill="none" stroke="none"/><rect fill="#1f77b4" stroke="none" x="242" y="914.4437500000001" width="332.7966101694915" height="34.76249999999982"/><path fill="none" stroke="#1f77b4" paint-order="fill stroke markers" d=" M 242 914.4437500000001 L 574.7966101694915 914.4437500000001 L 574.7966101694915 949.20625 L 242 949.20625 L 242 914.4437500000001 Z" stroke-miterlimit="10"/><rect fill="#1f77b4" stroke="none" x="242" y="868.09375" width="273.728813559322" height="34.762500000000045"/><path fill="none" stroke="#1f77b4" paint-order="fill stroke markers" d=" M 242 868.09375 L 515.728813559322 868.09375 L 515.728813559322 902.85625 L 242 902.85625 L 242 868.09375 Z" stroke-miterlimit="10"/><rect fill="#1f77b4" stroke="none" x="242" y="821.74375" width="267.53389830508473" height="34.762500000000045"/><path fill="none" stroke="#1f77b4" paint-order="fill stroke markers" d=" M 242 821.74375 L 509.53389830508473 821.74375 L 509.53389830508473 856.50625 L 242 856.50625 L 242 821.74375 Z" stroke-miterlimit="10"/><rect fill="#1f77b4" stroke="none" x="242" y="775.39375" width="247.36440677966107" height="34.762500000000045"/><path fill="none" stroke="#1f77b4" paint-order="fill stroke markers" d=" M 242 775.39375 L 489.36440677966107 775.39375 L 489.36440677966107 810.15625 L 242 810.15625 L 242 775.39375 Z" stroke-miterlimit="10"/><rect fill="#1f77b4" stroke="none" x="242" y="729.04375" width="198.66949152542372" height="34.76249999999982"/><path fill="none" stroke="#1f77b4" paint-order="fill stroke markers" d=" M 242 729.04375 L 440.6694915254237 729.04375 L 440.6694915254237 763.8062499999999 L 242 763.8062499999999 L 242 729.04375 Z" stroke-miterlimit="10"/><rect fill="#1f77b4" stroke="none" x="242" y="682.69375" width="195.93220338983053" height="34.762500000000045"/><path fill="none" stroke="#1f77b4" paint-order="fill stroke markers" d=" M 242 682.69375 L 437.93220338983053 682.69375 L 437.93220338983053 717.4562500000001 L 242 717.4562500000001 L 242 682.69375 Z" stroke-miterlimit="10"/><rect fill="#1f77b4" stroke="none" x="242" y="636.3437499999999" width="188.15254237288138" height="34.762500000000045"/><path fill="none" stroke="#1f77b4" paint-order="fill stroke markers" d=" M 242 636.3437499999999 L 430.1525423728814 636.3437499999999 L 430.1525423728814 671.1062499999999 L 242 671.1062499999999 L 242 636.3437499999999 Z" stroke-miterlimit="10"/><rect fill="#1f77b4" stroke="none" x="242" y="589.9937500000001" width="186.71186440677968" height="34.76249999999982"/><path fill="none" stroke="#1f77b4" paint-order="fill stroke markers" d=" M 242 589.9937500000001 L 428.7118644067797 589.9937500000001 L 428.7118644067797 624.7562499999999 L 242 624.7562499999999 L 242 589.9937500000001 Z" stroke-miterlimit="10"/><rect fill="#1f77b4" stroke="none" x="242" y="543.64375" width="172.44915254237287" height="34.762500000000045"/><path fill="none" stroke="#1f77b4" paint-order="fill stroke markers" d=" M 242 543.64375 L 414.4491525423729 543.64375 L 414.4491525423729 578.40625 L 242 578.40625 L 242 543.64375 Z" stroke-miterlimit="10"/><rect fill="#1f77b4" stroke="none" x="242" y="497.29374999999993" width="155.44915254237287" height="34.762500000000045"/><path fill="none" stroke="#1f77b4" paint-order="fill stroke markers" d=" M 242 497.29374999999993 L 397.4491525423729 497.29374999999993 L 397.4491525423729 532.05625 L 242 532.05625 L 242 497.29374999999993 Z" stroke-miterlimit="10"/><rect fill="#1f77b4" stroke="none" x="242" y="450.94374999999997" width="150.1186440677966" height="34.762500000000045"/><path fill="none" stroke="#1f77b4" paint-order="fill stroke markers" d=" M 242 450.94374999999997 L 392.1186440677966 450.94374999999997 L 392.1186440677966 485.70625 L 242 485.70625 L 242 450.94374999999997 Z" stroke-miterlimit="10"/><rect fill="#1f77b4" stroke="none" x="242" y="404.59375000000006" width="121.0169491525424" height="34.76249999999993"/><path fill="none" stroke="#1f77b4" paint-order="fill stroke markers" d=" M 242 404.59375000000006 L 363.0169491525424 404.59375000000006 L 363.0169491525424 439.35625 L 242 439.35625 L 242 404.59375000000006 Z" stroke-miterlimit="10"/><rect fill="#1f77b4" stroke="none" x="242" y="358.24375" width="113.09322033898309" height="34.762500000000045"/><path fill="none" stroke="#1f77b4" paint-order="fill stroke markers" d=" M 242 358.24375 L 355.0932203389831 358.24375 L 355.0932203389831 393.00625 L 242 393.00625 L 242 358.24375 Z" stroke-miterlimit="10"/><rect fill="#1f77b4" stroke="none" x="242" y="311.89374999999995" width="105.31355932203388" height="34.762500000000045"/><path fill="none" stroke="#1f77b4" paint-order="fill stroke markers" d=" M 242 311.89374999999995 L 347.3135593220339 311.89374999999995 L 347.3135593220339 346.65625 L 242 346.65625 L 242 311.89374999999995 Z" stroke-miterlimit="10"/><rect fill="#1f77b4" stroke="none" x="242" y="265.54374999999993" width="92.92372881355931" height="34.762500000000045"/><path fill="none" stroke="#1f77b4" paint-order="fill stroke markers" d=" M 242 265.54374999999993 L 334.9237288135593 265.54374999999993 L 334.9237288135593 300.30625 L 242 300.30625 L 242 265.54374999999993 Z" stroke-miterlimit="10"/><rect fill="#1f77b4" stroke="none" x="242" y="219.19374999999997" width="54.31355932203388" height="34.76249999999993"/><path fill="none" stroke="#1f77b4" paint-order="fill stroke markers" d=" M 242 219.19374999999997 L 296.3135593220339 219.19374999999997 L 296.3135593220339 253.9562499999999 L 242 253.9562499999999 L 242 219.19374999999997 Z" stroke-miterlimit="10"/><rect fill="#1f77b4" stroke="none" x="242" y="172.84375000000006" width="52.58474576271186" height="34.76249999999993"/><path fill="none" stroke="#1f77b4" paint-order="fill stroke markers" d=" M 242 172.84375000000006 L 294.58474576271186 172.84375000000006 L 294.58474576271186 207.60625 L 242 207.60625 L 242 172.84375000000006 Z" stroke-miterlimit="10"/><rect fill="#1f77b4" stroke="none" x="242" y="126.49374999999998" width="52.58474576271186" height="34.762500000000045"/><path fill="none" stroke="#1f77b4" paint-order="fill stroke markers" d=" M 242 126.49374999999998 L 294.58474576271186 126.49374999999998 L 294.58474576271186 161.25625000000002 L 242 161.25625000000002 L 242 126.49374999999998 Z" stroke-miterlimit="10"/><rect fill="#1f77b4" stroke="none" x="242" y="80.14374999999995" width="47.974576271186436" height="34.762500000000045"/><path fill="none" stroke="#1f77b4" paint-order="fill stroke markers" d=" M 242 80.14374999999995 L 289.97457627118644 80.14374999999995 L 289.97457627118644 114.90625 L 242 114.90625 L 242 80.14374999999995 Z" stroke-miterlimit="10"/><rect fill="#1f77b4" stroke="none" x="242" y="33.79374999999993" width="11.093220338983059" height="34.762500000000045"/><path fill="none" stroke="#1f77b4" paint-order="fill stroke markers" d=" M 242 33.79374999999993 L 253.09322033898306 33.79374999999993 L 253.09322033898306 68.55624999999998 L 242 68.55624999999998 L 242 33.79374999999993 Z" stroke-miterlimit="10"/></g><g fill="#444444"><path fill="" stroke="none" d=""/><g transform="translate(584.7966101694915,929.825) rotate(0,0,0)"><path fill="none" stroke="none"/><text fill="" stroke="none" font-family="helvetica" font-size="8pt" font-style="normal" font-weight="normal" text-decoration="normal" x="0" y="0" text-anchor="start" dominant-baseline="text-after-edge">49.81%</text></g></g><g fill="#444444"><path fill="" stroke="none" d=""/><g transform="translate(525.728813559322,883.475) rotate(0,0,0)"><path fill="none" stroke="none"/><text fill="" stroke="none" font-family="helvetica" font-size="8pt" font-style="normal" font-weight="normal" text-decoration="normal" x="0" y="0" text-anchor="start" dominant-baseline="text-after-edge">40.97%</text></g></g><g fill="#444444"><path fill="" stroke="none" d=""/><g transform="translate(519.5338983050847,837.125) rotate(0,0,0)"><path fill="none" stroke="none"/><text fill="" stroke="none" font-family="helvetica" font-size="8pt" font-style="normal" font-weight="normal" text-decoration="normal" x="0" y="0" text-anchor="start" dominant-baseline="text-after-edge">40.04%</text></g></g><g fill="#444444"><path fill="" stroke="none" d=""/><g transform="translate(499.36440677966107,790.775) rotate(0,0,0)"><path fill="none" stroke="none"/><text fill="" stroke="none" font-family="helvetica" font-size="8pt" font-style="normal" font-weight="normal" text-decoration="normal" x="0" y="0" text-anchor="start" dominant-baseline="text-after-edge">37.02%</text></g></g><g fill="#444444"><path fill="" stroke="none" d=""/><g transform="translate(450.6694915254237,744.425) rotate(0,0,0)"><path fill="none" stroke="none"/><text fill="" stroke="none" font-family="helvetica" font-size="8pt" font-style="normal" font-weight="normal" text-decoration="normal" x="0" y="0" text-anchor="start" dominant-baseline="text-after-edge">29.73%</text></g></g><g fill="#444444"><path fill="" stroke="none" d=""/><g transform="translate(447.93220338983053,698.075) rotate(0,0,0)"><path fill="none" stroke="none"/><text fill="" stroke="none" font-family="helvetica" font-size="8pt" font-style="normal" font-weight="normal" text-decoration="normal" x="0" y="0" text-anchor="start" dominant-baseline="text-after-edge">29.32%</text></g></g><g fill="#444444"><path fill="" stroke="none" d=""/><g transform="translate(440.1525423728814,651.7249999999999) rotate(0,0,0)"><path fill="none" stroke="none"/><text fill="" stroke="none" font-family="helvetica" font-size="8pt" font-style="normal" font-weight="normal" text-decoration="normal" x="0" y="0" text-anchor="start" dominant-baseline="text-after-edge">28.16%</text></g></g><g fill="#444444"><path fill="" stroke="none" d=""/><g transform="translate(438.7118644067797,605.375) rotate(0,0,0)"><path fill="none" stroke="none"/><text fill="" stroke="none" font-family="helvetica" font-size="8pt" font-style="normal" font-weight="normal" text-decoration="normal" x="0" y="0" text-anchor="start" dominant-baseline="text-after-edge">27.94%</text></g></g><g fill="#444444"><path fill="" stroke="none" d=""/><g transform="translate(424.4491525423729,559.025) rotate(0,0,0)"><path fill="none" stroke="none"/><text fill="" stroke="none" font-family="helvetica" font-size="8pt" font-style="normal" font-weight="normal" text-decoration="normal" x="0" y="0" text-anchor="start" dominant-baseline="text-after-edge">25.81%</text></g></g><g fill="#444444"><path fill="" stroke="none" d=""/><g transform="translate(407.4491525423729,512.675) rotate(0,0,0)"><path fill="none" stroke="none"/><text fill="" stroke="none" font-family="helvetica" font-size="8pt" font-style="normal" font-weight="normal" text-decoration="normal" x="0" y="0" text-anchor="start" dominant-baseline="text-after-edge">23.26%</text></g></g><g fill="#444444"><path fill="" stroke="none" d=""/><g transform="translate(402.1186440677966,466.325) rotate(0,0,0)"><path fill="none" stroke="none"/><text fill="" stroke="none" font-family="helvetica" font-size="8pt" font-style="normal" font-weight="normal" text-decoration="normal" x="0" y="0" text-anchor="start" dominant-baseline="text-after-edge">22.47%</text></g></g><g fill="#444444"><path fill="" stroke="none" d=""/><g transform="translate(373.0169491525424,419.975) rotate(0,0,0)"><path fill="none" stroke="none"/><text fill="" stroke="none" font-family="helvetica" font-size="8pt" font-style="normal" font-weight="normal" text-decoration="normal" x="0" y="0" text-anchor="start" dominant-baseline="text-after-edge">18.11%</text></g></g><g fill="#444444"><path fill="" stroke="none" d=""/><g transform="translate(365.0932203389831,373.625) rotate(0,0,0)"><path fill="none" stroke="none"/><text fill="" stroke="none" font-family="helvetica" font-size="8pt" font-style="normal" font-weight="normal" text-decoration="normal" x="0" y="0" text-anchor="start" dominant-baseline="text-after-edge">16.93%</text></g></g><g fill="#444444"><path fill="" stroke="none" d=""/><g transform="translate(357.3135593220339,327.275) rotate(0,0,0)"><path fill="none" stroke="none"/><text fill="" stroke="none" font-family="helvetica" font-size="8pt" font-style="normal" font-weight="normal" text-decoration="normal" x="0" y="0" text-anchor="start" dominant-baseline="text-after-edge">15.76%</text></g></g><g fill="#444444"><path fill="" stroke="none" d=""/><g transform="translate(344.9237288135593,280.92499999999995) rotate(0,0,0)"><path fill="none" stroke="none"/><text fill="" stroke="none" font-family="helvetica" font-size="8pt" font-style="normal" font-weight="normal" text-decoration="normal" x="0" y="0" text-anchor="start" dominant-baseline="text-after-edge">13.91%</text></g></g><g fill="#444444"><path fill="" stroke="none" d=""/><g transform="translate(306.3135593220339,234.57499999999993) rotate(0,0,0)"><path fill="none" stroke="none"/><text fill="" stroke="none" font-family="helvetica" font-size="8pt" font-style="normal" font-weight="normal" text-decoration="normal" x="0" y="0" text-anchor="start" dominant-baseline="text-after-edge">8.13%</text></g></g><g fill="#444444"><path fill="" stroke="none" d=""/><g transform="translate(304.58474576271186,188.22500000000002) rotate(0,0,0)"><path fill="none" stroke="none"/><text fill="" stroke="none" font-family="helvetica" font-size="8pt" font-style="normal" font-weight="normal" text-decoration="normal" x="0" y="0" text-anchor="start" dominant-baseline="text-after-edge">7.87%</text></g></g><g fill="#444444"><path fill="" stroke="none" d=""/><g transform="translate(304.58474576271186,141.875) rotate(0,0,0)"><path fill="none" stroke="none"/><text fill="" stroke="none" font-family="helvetica" font-size="8pt" font-style="normal" font-weight="normal" text-decoration="normal" x="0" y="0" text-anchor="start" dominant-baseline="text-after-edge">7.87%</text></g></g><g fill="#444444"><path fill="" stroke="none" d=""/><g transform="translate(299.97457627118644,95.52499999999998) rotate(0,0,0)"><path fill="none" stroke="none"/><text fill="" stroke="none" font-family="helvetica" font-size="8pt" font-style="normal" font-weight="normal" text-decoration="normal" x="0" y="0" text-anchor="start" dominant-baseline="text-after-edge">7.18%</text></g></g><g fill="#444444"><path fill="" stroke="none" d=""/><g transform="translate(263.0932203389831,49.174999999999955) rotate(0,0,0)"><path fill="none" stroke="none"/><text fill="" stroke="none" font-family="helvetica" font-size="8pt" font-style="normal" font-weight="normal" text-decoration="normal" x="0" y="0" text-anchor="start" dominant-baseline="text-after-edge">1.66%</text></g></g><g fill="#444444"><path fill="" stroke="none" d=""/><g transform="translate(584.7966101694915,943.825) rotate(0,0,0)"><path fill="none" stroke="none"/><text fill="" stroke="none" font-family="helvetica" font-size="8pt" font-style="normal" font-weight="normal" text-decoration="normal" x="0" y="0" text-anchor="start" dominant-baseline="text-after-edge">2310</text></g></g><g fill="#444444"><path fill="" stroke="none" d=""/><g transform="translate(525.728813559322,897.475) rotate(0,0,0)"><path fill="none" stroke="none"/><text fill="" stroke="none" font-family="helvetica" font-size="8pt" font-style="normal" font-weight="normal" text-decoration="normal" x="0" y="0" text-anchor="start" dominant-baseline="text-after-edge">1900</text></g></g><g fill="#444444"><path fill="" stroke="none" d=""/><g transform="translate(519.5338983050847,851.125) rotate(0,0,0)"><path fill="none" stroke="none"/><text fill="" stroke="none" font-family="helvetica" font-size="8pt" font-style="normal" font-weight="normal" text-decoration="normal" x="0" y="0" text-anchor="start" dominant-baseline="text-after-edge">1857</text></g></g><g fill="#444444"><path fill="" stroke="none" d=""/><g transform="translate(499.36440677966107,804.775) rotate(0,0,0)"><path fill="none" stroke="none"/><text fill="" stroke="none" font-family="helvetica" font-size="8pt" font-style="normal" font-weight="normal" text-decoration="normal" x="0" y="0" text-anchor="start" dominant-baseline="text-after-edge">1717</text></g></g><g fill="#444444"><path fill="" stroke="none" d=""/><g transform="translate(450.6694915254237,758.425) rotate(0,0,0)"><path fill="none" stroke="none"/><text fill="" stroke="none" font-family="helvetica" font-size="8pt" font-style="normal" font-weight="normal" text-decoration="normal" x="0" y="0" text-anchor="start" dominant-baseline="text-after-edge">1379</text></g></g><g fill="#444444"><path fill="" stroke="none" d=""/><g transform="translate(447.93220338983053,712.075) rotate(0,0,0)"><path fill="none" stroke="none"/><text fill="" stroke="none" font-family="helvetica" font-size="8pt" font-style="normal" font-weight="normal" text-decoration="normal" x="0" y="0" text-anchor="start" dominant-baseline="text-after-edge">1360</text></g></g><g fill="#444444"><path fill="" stroke="none" d=""/><g transform="translate(440.1525423728814,665.7249999999999) rotate(0,0,0)"><path fill="none" stroke="none"/><text fill="" stroke="none" font-family="helvetica" font-size="8pt" font-style="normal" font-weight="normal" text-decoration="normal" x="0" y="0" text-anchor="start" dominant-baseline="text-after-edge">1306</text></g></g><g fill="#444444"><path fill="" stroke="none" d=""/><g transform="translate(438.7118644067797,619.375) rotate(0,0,0)"><path fill="none" stroke="none"/><text fill="" stroke="none" font-family="helvetica" font-size="8pt" font-style="normal" font-weight="normal" text-decoration="normal" x="0" y="0" text-anchor="start" dominant-baseline="text-after-edge">1296</text></g></g><g fill="#444444"><path fill="" stroke="none" d=""/><g transform="translate(424.4491525423729,573.025) rotate(0,0,0)"><path fill="none" stroke="none"/><text fill="" stroke="none" font-family="helvetica" font-size="8pt" font-style="normal" font-weight="normal" text-decoration="normal" x="0" y="0" text-anchor="start" dominant-baseline="text-after-edge">1197</text></g></g><g fill="#444444"><path fill="" stroke="none" d=""/><g transform="translate(407.4491525423729,526.675) rotate(0,0,0)"><path fill="none" stroke="none"/><text fill="" stroke="none" font-family="helvetica" font-size="8pt" font-style="normal" font-weight="normal" text-decoration="normal" x="0" y="0" text-anchor="start" dominant-baseline="text-after-edge">1079</text></g></g><g fill="#444444"><path fill="" stroke="none" d=""/><g transform="translate(402.1186440677966,480.325) rotate(0,0,0)"><path fill="none" stroke="none"/><text fill="" stroke="none" font-family="helvetica" font-size="8pt" font-style="normal" font-weight="normal" text-decoration="normal" x="0" y="0" text-anchor="start" dominant-baseline="text-after-edge">1042</text></g></g><g fill="#444444"><path fill="" stroke="none" d=""/><g transform="translate(373.0169491525424,433.975) rotate(0,0,0)"><path fill="none" stroke="none"/><text fill="" stroke="none" font-family="helvetica" font-size="8pt" font-style="normal" font-weight="normal" text-decoration="normal" x="0" y="0" text-anchor="start" dominant-baseline="text-after-edge">840</text></g></g><g fill="#444444"><path fill="" stroke="none" d=""/><g transform="translate(365.0932203389831,387.625) rotate(0,0,0)"><path fill="none" stroke="none"/><text fill="" stroke="none" font-family="helvetica" font-size="8pt" font-style="normal" font-weight="normal" text-decoration="normal" x="0" y="0" text-anchor="start" dominant-baseline="text-after-edge">785</text></g></g><g fill="#444444"><path fill="" stroke="none" d=""/><g transform="translate(357.3135593220339,341.275) rotate(0,0,0)"><path fill="none" stroke="none"/><text fill="" stroke="none" font-family="helvetica" font-size="8pt" font-style="normal" font-weight="normal" text-decoration="normal" x="0" y="0" text-anchor="start" dominant-baseline="text-after-edge">731</text></g></g><g fill="#444444"><path fill="" stroke="none" d=""/><g transform="translate(344.9237288135593,294.92499999999995) rotate(0,0,0)"><path fill="none" stroke="none"/><text fill="" stroke="none" font-family="helvetica" font-size="8pt" font-style="normal" font-weight="normal" text-decoration="normal" x="0" y="0" text-anchor="start" dominant-baseline="text-after-edge">645</text></g></g><g fill="#444444"><path fill="" stroke="none" d=""/><g transform="translate(306.3135593220339,248.57499999999993) rotate(0,0,0)"><path fill="none" stroke="none"/><text fill="" stroke="none" font-family="helvetica" font-size="8pt" font-style="normal" font-weight="normal" text-decoration="normal" x="0" y="0" text-anchor="start" dominant-baseline="text-after-edge">377</text></g></g><g fill="#444444"><path fill="" stroke="none" d=""/><g transform="translate(304.58474576271186,202.22500000000002) rotate(0,0,0)"><path fill="none" stroke="none"/><text fill="" stroke="none" font-family="helvetica" font-size="8pt" font-style="normal" font-weight="normal" text-decoration="normal" x="0" y="0" text-anchor="start" dominant-baseline="text-after-edge">365</text></g></g><g fill="#444444"><path fill="" stroke="none" d=""/><g transform="translate(304.58474576271186,155.875) rotate(0,0,0)"><path fill="none" stroke="none"/><text fill="" stroke="none" font-family="helvetica" font-size="8pt" font-style="normal" font-weight="normal" text-decoration="normal" x="0" y="0" text-anchor="start" dominant-baseline="text-after-edge">365</text></g></g><g fill="#444444"><path fill="" stroke="none" d=""/><g transform="translate(299.97457627118644,109.52499999999998) rotate(0,0,0)"><path fill="none" stroke="none"/><text fill="" stroke="none" font-family="helvetica" font-size="8pt" font-style="normal" font-weight="normal" text-decoration="normal" x="0" y="0" text-anchor="start" dominant-baseline="text-after-edge">333</text></g></g><g fill="#444444"><path fill="" stroke="none" d=""/><g transform="translate(263.0932203389831,63.174999999999955) rotate(0,0,0)"><path fill="none" stroke="none"/><text fill="" stroke="none" font-family="helvetica" font-size="8pt" font-style="normal" font-weight="normal" text-decoration="normal" x="0" y="0" text-anchor="start" dominant-baseline="text-after-edge">77</text></g></g></g><g/><g><g fill="#444444"><path fill="none" stroke="black" paint-order="fill stroke markers" d=" M 242 955 L 650 955" stroke-miterlimit="10"/><path fill="none" stroke="black" paint-order="fill stroke markers" d=" M 242 961 L 242 953" stroke-miterlimit="10"/><path fill="none" stroke="black" paint-order="fill stroke markers" d=" M 314 961 L 314 953" stroke-miterlimit="10"/><path fill="none" stroke="black" paint-order="fill stroke markers" d=" M 386 961 L 386 953" stroke-miterlimit="10"/><path fill="none" stroke="black" paint-order="fill stroke markers" d=" M 458 961 L 458 953" stroke-miterlimit="10"/><path fill="none" stroke="black" paint-order="fill stroke markers" d=" M 530 961 L 530 953" stroke-miterlimit="10"/><path fill="none" stroke="black" paint-order="fill stroke markers" d=" M 602 961 L 602 953" stroke-miterlimit="10"/><path fill="none" stroke="black" paint-order="fill stroke markers" d=" M 242 959 L 242 955" stroke-miterlimit="10"/><path fill="none" stroke="black" paint-order="fill stroke markers" d=" M 256 959 L 256 955" stroke-miterlimit="10"/><path fill="none" stroke="black" paint-order="fill stroke markers" d=" M 271 959 L 271 955" stroke-miterlimit="10"/><path fill="none" stroke="black" paint-order="fill stroke markers" d=" M 285 959 L 285 955" stroke-miterlimit="10"/><path fill="none" stroke="black" paint-order="fill stroke markers" d=" M 300 959 L 300 955" stroke-miterlimit="10"/><path fill="none" stroke="black" paint-order="fill stroke markers" d=" M 314 959 L 314 955" stroke-miterlimit="10"/><path fill="none" stroke="black" paint-order="fill stroke markers" d=" M 328 959 L 328 955" stroke-miterlimit="10"/><path fill="none" stroke="black" paint-order="fill stroke markers" d=" M 343 959 L 343 955" stroke-miterlimit="10"/><path fill="none" stroke="black" paint-order="fill stroke markers" d=" M 357 959 L 357 955" stroke-miterlimit="10"/><path fill="none" stroke="black" paint-order="fill stroke markers" d=" M 372 959 L 372 955" stroke-miterlimit="10"/><path fill="none" stroke="black" paint-order="fill stroke markers" d=" M 386 959 L 386 955" stroke-miterlimit="10"/><path fill="none" stroke="black" paint-order="fill stroke markers" d=" M 400 959 L 400 955" stroke-miterlimit="10"/><path fill="none" stroke="black" paint-order="fill stroke markers" d=" M 415 959 L 415 955" stroke-miterlimit="10"/><path fill="none" stroke="black" paint-order="fill stroke markers" d=" M 429 959 L 429 955" stroke-miterlimit="10"/><path fill="none" stroke="black" paint-order="fill stroke markers" d=" M 444 959 L 444 955" stroke-miterlimit="10"/><path fill="none" stroke="black" paint-order="fill stroke markers" d=" M 458 959 L 458 955" stroke-miterlimit="10"/><path fill="none" stroke="black" paint-order="fill stroke markers" d=" M 473 959 L 473 955" stroke-miterlimit="10"/><path fill="none" stroke="black" paint-order="fill stroke markers" d=" M 487 959 L 487 955" stroke-miterlimit="10"/><path fill="none" stroke="black" paint-order="fill stroke markers" d=" M 501 959 L 501 955" stroke-miterlimit="10"/><path fill="none" stroke="black" paint-order="fill stroke markers" d=" M 516 959 L 516 955" stroke-miterlimit="10"/><path fill="none" stroke="black" paint-order="fill stroke markers" d=" M 530 959 L 530 955" stroke-miterlimit="10"/><path fill="none" stroke="black" paint-order="fill stroke markers" d=" M 545 959 L 545 955" stroke-miterlimit="10"/><path fill="none" stroke="black" paint-order="fill stroke markers" d=" M 559 959 L 559 955" stroke-miterlimit="10"/><path fill="none" stroke="black" paint-order="fill stroke markers" d=" M 573 959 L 573 955" stroke-miterlimit="10"/><path fill="none" stroke="black" paint-order="fill stroke markers" d=" M 588 959 L 588 955" stroke-miterlimit="10"/><path fill="none" stroke="black" paint-order="fill stroke markers" d=" M 602 959 L 602 955" stroke-miterlimit="10"/><path fill="none" stroke="black" paint-order="fill stroke markers" d=" M 617 959 L 617 955" stroke-miterlimit="10"/><path fill="none" stroke="black" paint-order="fill stroke markers" d=" M 631 959 L 631 955" stroke-miterlimit="10"/><path fill="" stroke="black" paint-order="fill stroke markers" d=" M 645 959 L 645 955" stroke-miterlimit="10"/><g transform="translate(242,966) rotate(0,0,0)"><text fill="" stroke="none" font-family="helvetica" font-size="8pt" font-style="normal" font-weight="normal" text-decoration="normal" x="0" y="0" text-anchor="middle" dominant-baseline="hanging">0</text><g transform="rotate(0,0,0) translate(-242,-966) translate(314,966) rotate(0,0,0)"><text fill="" stroke="none" font-family="helvetica" font-size="8pt" font-style="normal" font-weight="normal" text-decoration="normal" x="0" y="0" text-anchor="middle" dominant-baseline="hanging">500</text><g transform="rotate(0,0,0) translate(-314,-966) translate(386,966) rotate(0,0,0)"><text fill="" stroke="none" font-family="helvetica" font-size="8pt" font-style="normal" font-weight="normal" text-decoration="normal" x="0" y="0" text-anchor="middle" dominant-baseline="hanging">1000</text><g transform="rotate(0,0,0) translate(-386,-966) translate(458,966) rotate(0,0,0)"><text fill="" stroke="none" font-family="helvetica" font-size="8pt" font-style="normal" font-weight="normal" text-decoration="normal" x="0" y="0" text-anchor="middle" dominant-baseline="hanging">1500</text><g transform="rotate(0,0,0) translate(-458,-966) translate(530,966) rotate(0,0,0)"><text fill="" stroke="none" font-family="helvetica" font-size="8pt" font-style="normal" font-weight="normal" text-decoration="normal" x="0" y="0" text-anchor="middle" dominant-baseline="hanging">2000</text><g transform="rotate(0,0,0) translate(-530,-966) translate(602,966) rotate(0,0,0)"><text fill="" stroke="none" font-family="helvetica" font-size="8pt" font-style="normal" font-weight="normal" text-decoration="normal" x="0" y="0" text-anchor="middle" dominant-baseline="hanging">2500</text><g transform="rotate(0,0,0) translate(-602,-966) translate(446,984) rotate(0,0,0)"><text fill="" stroke="none" font-family="helvetica" font-size="10pt" font-style="italic" font-weight="normal" text-decoration="normal" x="0" y="0" text-anchor="middle" dominant-baseline="hanging">Respondents</text><g transform="rotate(0,0,0) translate(-446,-984)"/></g></g></g></g></g></g></g></g><g fill="#444444"><path fill="none" stroke="black" paint-order="fill stroke markers" d=" M 242 955 L 242 28" stroke-miterlimit="10"/><path fill="none" stroke="black" paint-order="fill stroke markers" d=" M 236 932 L 244 932" stroke-miterlimit="10"/><path fill="none" stroke="black" paint-order="fill stroke markers" d=" M 236 885 L 244 885" stroke-miterlimit="10"/><path fill="none" stroke="black" paint-order="fill stroke markers" d=" M 236 839 L 244 839" stroke-miterlimit="10"/><path fill="none" stroke="black" paint-order="fill stroke markers" d=" M 236 793 L 244 793" stroke-miterlimit="10"/><path fill="none" stroke="black" paint-order="fill stroke markers" d=" M 236 746 L 244 746" stroke-miterlimit="10"/><path fill="none" stroke="black" paint-order="fill stroke markers" d=" M 236 700 L 244 700" stroke-miterlimit="10"/><path fill="none" stroke="black" paint-order="fill stroke markers" d=" M 236 654 L 244 654" stroke-miterlimit="10"/><path fill="none" stroke="black" paint-order="fill stroke markers" d=" M 236 607 L 244 607" stroke-miterlimit="10"/><path fill="none" stroke="black" paint-order="fill stroke markers" d=" M 236 561 L 244 561" stroke-miterlimit="10"/><path fill="none" stroke="black" paint-order="fill stroke markers" d=" M 236 515 L 244 515" stroke-miterlimit="10"/><path fill="none" stroke="black" paint-order="fill stroke markers" d=" M 236 468 L 244 468" stroke-miterlimit="10"/><path fill="none" stroke="black" paint-order="fill stroke markers" d=" M 236 422 L 244 422" stroke-miterlimit="10"/><path fill="none" stroke="black" paint-order="fill stroke markers" d=" M 236 376 L 244 376" stroke-miterlimit="10"/><path fill="none" stroke="black" paint-order="fill stroke markers" d=" M 236 329 L 244 329" stroke-miterlimit="10"/><path fill="none" stroke="black" paint-order="fill stroke markers" d=" M 236 283 L 244 283" stroke-miterlimit="10"/><path fill="none" stroke="black" paint-order="fill stroke markers" d=" M 236 237 L 244 237" stroke-miterlimit="10"/><path fill="none" stroke="black" paint-order="fill stroke markers" d=" M 236 190 L 244 190" stroke-miterlimit="10"/><path fill="none" stroke="black" paint-order="fill stroke markers" d=" M 236 144 L 244 144" stroke-miterlimit="10"/><path fill="none" stroke="black" paint-order="fill stroke markers" d=" M 236 98 L 244 98" stroke-miterlimit="10"/><path fill="" stroke="black" paint-order="fill stroke markers" d=" M 236 51 L 244 51" stroke-miterlimit="10"/><g transform="translate(231,932) rotate(0,0,0)"><text fill="" stroke="none" font-family="helvetica" font-size="8pt" font-style="normal" font-weight="normal" text-decoration="normal" x="0" y="0" text-anchor="end" dominant-baseline="central">AI and machine learning</text><g transform="rotate(0,0,0) translate(-231,-932) translate(231,885) rotate(0,0,0)"><text fill="" stroke="none" font-family="helvetica" font-size="8pt" font-style="normal" font-weight="normal" text-decoration="normal" x="0" y="0" text-anchor="end" dominant-baseline="central">Augmented Reality</text><g transform="rotate(0,0,0) translate(-231,-885) translate(231,839) rotate(0,0,0)"><text fill="" stroke="none" font-family="helvetica" font-size="8pt" font-style="normal" font-weight="normal" text-decoration="normal" x="0" y="0" text-anchor="end" dominant-baseline="central">Virtual Reality</text><g transform="rotate(0,0,0) translate(-231,-839) translate(231,793) rotate(0,0,0)"><text fill="" stroke="none" font-family="helvetica" font-size="8pt" font-style="normal" font-weight="normal" text-decoration="normal" x="0" y="0" text-anchor="end" dominant-baseline="central">Behavior tracking and modeling</text><g transform="rotate(0,0,0) translate(-231,-793) translate(231,746) rotate(0,0,0)"><text fill="" stroke="none" font-family="helvetica" font-size="8pt" font-style="normal" font-weight="normal" text-decoration="normal" x="0" y="0" text-anchor="end" dominant-baseline="central">Democratization of design</text><g transform="rotate(0,0,0) translate(-231,-746) translate(231,700) rotate(0,0,0)"><text fill="" stroke="none" font-family="helvetica" font-size="8pt" font-style="normal" font-weight="normal" text-decoration="normal" x="0" y="0" text-anchor="end" dominant-baseline="central">Distributed teams and virtual workplace</text><g transform="rotate(0,0,0) translate(-231,-700) translate(231,654) rotate(0,0,0)"><text fill="" stroke="none" font-family="helvetica" font-size="8pt" font-style="normal" font-weight="normal" text-decoration="normal" x="0" y="0" text-anchor="end" dominant-baseline="central">3D printing</text><g transform="rotate(0,0,0) translate(-231,-654) translate(231,607) rotate(0,0,0)"><text fill="" stroke="none" font-family="helvetica" font-size="8pt" font-style="normal" font-weight="normal" text-decoration="normal" x="0" y="0" text-anchor="end" dominant-baseline="central">Internet of Things</text><g transform="rotate(0,0,0) translate(-231,-607) translate(231,561) rotate(0,0,0)"><text fill="" stroke="none" font-family="helvetica" font-size="8pt" font-style="normal" font-weight="normal" text-decoration="normal" x="0" y="0" text-anchor="end" dominant-baseline="central">Crowdsourcing and open source</text><g transform="rotate(0,0,0) translate(-231,-561) translate(231,515) rotate(0,0,0)"><text fill="" stroke="none" font-family="helvetica" font-size="8pt" font-style="normal" font-weight="normal" text-decoration="normal" x="0" y="0" text-anchor="end" dominant-baseline="central">Algorithmic design</text><g transform="rotate(0,0,0) translate(-231,-515) translate(231,468) rotate(0,0,0)"><text fill="" stroke="none" font-family="helvetica" font-size="8pt" font-style="normal" font-weight="normal" text-decoration="normal" x="0" y="0" text-anchor="end" dominant-baseline="central">Facial and voice recognition</text><g transform="rotate(0,0,0) translate(-231,-468) translate(231,422) rotate(0,0,0)"><text fill="" stroke="none" font-family="helvetica" font-size="8pt" font-style="normal" font-weight="normal" text-decoration="normal" x="0" y="0" text-anchor="end" dominant-baseline="central">Image recognition</text><g transform="rotate(0,0,0) translate(-231,-422) translate(231,376) rotate(0,0,0)"><text fill="" stroke="none" font-family="helvetica" font-size="8pt" font-style="normal" font-weight="normal" text-decoration="normal" x="0" y="0" text-anchor="end" dominant-baseline="central">Conversational interfaces</text><g transform="rotate(0,0,0) translate(-231,-376) translate(231,329) rotate(0,0,0)"><text fill="" stroke="none" font-family="helvetica" font-size="8pt" font-style="normal" font-weight="normal" text-decoration="normal" x="0" y="0" text-anchor="end" dominant-baseline="central">Human augmentation</text><g transform="rotate(0,0,0) translate(-231,-329) translate(231,283) rotate(0,0,0)"><text fill="" stroke="none" font-family="helvetica" font-size="8pt" font-style="normal" font-weight="normal" text-decoration="normal" x="0" y="0" text-anchor="end" dominant-baseline="central">Biological or genetic design</text><g transform="rotate(0,0,0) translate(-231,-283) translate(231,237) rotate(0,0,0)"><text fill="" stroke="none" font-family="helvetica" font-size="8pt" font-style="normal" font-weight="normal" text-decoration="normal" x="0" y="0" text-anchor="end" dominant-baseline="central">Battery and energy technology</text><g transform="rotate(0,0,0) translate(-231,-237) translate(231,190) rotate(0,0,0)"><text fill="" stroke="none" font-family="helvetica" font-size="8pt" font-style="normal" font-weight="normal" text-decoration="normal" x="0" y="0" text-anchor="end" dominant-baseline="central">Quantum computing</text><g transform="rotate(0,0,0) translate(-231,-190) translate(231,144) rotate(0,0,0)"><text fill="" stroke="none" font-family="helvetica" font-size="8pt" font-style="normal" font-weight="normal" text-decoration="normal" x="0" y="0" text-anchor="end" dominant-baseline="central">Miniaturization and nanotechnology</text><g transform="rotate(0,0,0) translate(-231,-144) translate(231,98) rotate(0,0,0)"><text fill="" stroke="none" font-family="helvetica" font-size="8pt" font-style="normal" font-weight="normal" text-decoration="normal" x="0" y="0" text-anchor="end" dominant-baseline="central">Networked device ubiquity</text><g transform="rotate(0,0,0) translate(-231,-98) translate(231,51) rotate(0,0,0)"><text fill="" stroke="none" font-family="helvetica" font-size="8pt" font-style="normal" font-weight="normal" text-decoration="normal" x="0" y="0" text-anchor="end" dominant-baseline="central">None of these</text><g transform="rotate(0,0,0) translate(-231,-51) translate(15,492) rotate(-90,0,0)"><text fill="" stroke="none" font-family="helvetica" font-size="10pt" font-style="italic" font-weight="normal" text-decoration="normal" x="0" y="0" text-anchor="middle" dominant-baseline="alphabetic">Categories</text><g transform="rotate(90,0,0) translate(-15,-492)"/></g></g></g></g></g></g></g></g></g></g></g></g></g></g></g></g></g></g></g></g></g></g><g fill="#444444"><path fill="" stroke="none" d=""/><g transform="translate(242,23)"><path fill="none" stroke="none"/><text fill="" stroke="none" font-family="helvetica" font-size="10pt" font-style="normal" font-weight="bold" text-decoration="normal" x="0" y="0" text-anchor="start" dominant-baseline="text-after-edge">AIGA-Only: The emerging trends and technologies that will have the biggest impact on design are (answer optional):</text></g></g></g></g></g></svg>