<svg version="1.1" xmlns="http://www.w3.org/2000/svg" xmlns:xlink="http://www.w3.org/1999/xlink" width="700" height="800" style="width: 700px; height: 800px;"><defs/><g><g transform="scale(1,1) translate(0.5,0.5)"><rect fill="#FFFFFF" stroke="none" x="0" y="0" width="700" height="800"/><rect fill="#ffffff" stroke="none" x="0" y="0" width="700" height="800"/><rect fill="#FFFFFF" stroke="none" x="197" y="28" width="453" height="727"/><rect fill="#ffffff" stroke="none" x="197" y="28" width="453" height="727"/><g><rect fill="none" stroke="#e5e5e5" x="197" y="28" width="453" height="727" stroke-miterlimit="10"/></g><g><g><path fill="none" stroke="#e5e5e5" paint-order="fill stroke markers" d=" M 306 755 L 306 28" stroke-miterlimit="10"/><path fill="none" stroke="#e5e5e5" paint-order="fill stroke markers" d=" M 415 755 L 415 28" stroke-miterlimit="10"/><path fill="none" stroke="#e5e5e5" paint-order="fill stroke markers" d=" M 523 755 L 523 28" stroke-miterlimit="10"/><path fill="none" stroke="#e5e5e5" paint-order="fill stroke markers" d=" M 632 755 L 632 28" stroke-miterlimit="10"/></g><g><path fill="none" stroke="#e5e5e5" paint-order="fill stroke markers" d=" M 197 732 L 650 732" stroke-miterlimit="10"/><path fill="none" stroke="#e5e5e5" paint-order="fill stroke markers" d=" M 197 687 L 650 687" stroke-miterlimit="10"/><path fill="none" stroke="#e5e5e5" paint-order="fill stroke markers" d=" M 197 641 L 650 641" stroke-miterlimit="10"/><path fill="none" stroke="#e5e5e5" paint-order="fill stroke markers" d=" M 197 596 L 650 596" stroke-miterlimit="10"/><path fill="none" stroke="#e5e5e5" paint-order="fill stroke markers" d=" M 197 551 L 650 551" stroke-miterlimit="10"/><path fill="none" stroke="#e5e5e5" paint-order="fill stroke markers" d=" M 197 505 L 650 505" stroke-miterlimit="10"/><path fill="none" stroke="#e5e5e5" paint-order="fill stroke markers" d=" M 197 460 L 650 460" stroke-miterlimit="10"/><path fill="none" stroke="#e5e5e5" paint-order="fill stroke markers" d=" M 197 414 L 650 414" stroke-miterlimit="10"/><path fill="none" stroke="#e5e5e5" paint-order="fill stroke markers" d=" M 197 369 L 650 369" stroke-miterlimit="10"/><path fill="none" stroke="#e5e5e5" paint-order="fill stroke markers" d=" M 197 323 L 650 323" stroke-miterlimit="10"/><path fill="none" stroke="#e5e5e5" paint-order="fill stroke markers" d=" M 197 278 L 650 278" stroke-miterlimit="10"/><path fill="none" stroke="#e5e5e5" paint-order="fill stroke markers" d=" M 197 232 L 650 232" stroke-miterlimit="10"/><path fill="none" stroke="#e5e5e5" paint-order="fill stroke markers" d=" M 197 187 L 650 187" stroke-miterlimit="10"/><path fill="none" stroke="#e5e5e5" paint-order="fill stroke markers" d=" M 197 142 L 650 142" stroke-miterlimit="10"/><path fill="none" stroke="#e5e5e5" paint-order="fill stroke markers" d=" M 197 96 L 650 96" stroke-miterlimit="10"/><path fill="none" stroke="#e5e5e5" paint-order="fill stroke markers" d=" M 197 51 L 650 51" stroke-miterlimit="10"/></g><g><path fill="none" stroke="none"/><rect fill="#1f77b4" stroke="none" x="197" y="715.2421875" width="372.06208585422064" height="34.078125"/><path fill="none" stroke="#1f77b4" paint-order="fill stroke markers" d=" M 197 715.2421875 L 569.0620858542206 715.2421875 L 569.0620858542206 749.3203125 L 197 749.3203125 L 197 715.2421875 Z" stroke-miterlimit="10"/><rect fill="#1f77b4" stroke="none" x="197" y="669.8046875" width="366.73292999135697" height="34.078125"/><path fill="none" stroke="#1f77b4" paint-order="fill stroke markers" d=" M 197 669.8046875 L 563.732929991357 669.8046875 L 563.732929991357 703.8828125 L 197 703.8828125 L 197 669.8046875 Z" stroke-miterlimit="10"/><rect fill="#1f77b4" stroke="none" x="197" y="624.3671875" width="336.28061077499274" height="34.078125"/><path fill="none" stroke="#1f77b4" paint-order="fill stroke markers" d=" M 197 624.3671875 L 533.2806107749927 624.3671875 L 533.2806107749927 658.4453125 L 197 658.4453125 L 197 624.3671875 Z" stroke-miterlimit="10"/><rect fill="#1f77b4" stroke="none" x="197" y="578.9296875" width="269.1767502160761" height="34.078125"/><path fill="none" stroke="#1f77b4" paint-order="fill stroke markers" d=" M 197 578.9296875 L 466.1767502160761 578.9296875 L 466.1767502160761 613.0078125 L 197 613.0078125 L 197 578.9296875 Z" stroke-miterlimit="10"/><rect fill="#1f77b4" stroke="none" x="197" y="533.4921875" width="256.56078939786806" height="34.078125"/><path fill="none" stroke="#1f77b4" paint-order="fill stroke markers" d=" M 197 533.4921875 L 453.56078939786806 533.4921875 L 453.56078939786806 567.5703125 L 197 567.5703125 L 197 533.4921875 Z" stroke-miterlimit="10"/><rect fill="#1f77b4" stroke="none" x="197" y="488.0546875" width="249.92653414001728" height="34.078125"/><path fill="none" stroke="#1f77b4" paint-order="fill stroke markers" d=" M 197 488.0546875 L 446.9265341400173 488.0546875 L 446.9265341400173 522.1328125 L 197 522.1328125 L 197 488.0546875 Z" stroke-miterlimit="10"/><rect fill="#1f77b4" stroke="none" x="197" y="442.6171875" width="206.96701238836067" height="34.078125"/><path fill="none" stroke="#1f77b4" paint-order="fill stroke markers" d=" M 197 442.6171875 L 403.9670123883607 442.6171875 L 403.9670123883607 476.6953125 L 197 476.6953125 L 197 442.6171875 Z" stroke-miterlimit="10"/><rect fill="#1f77b4" stroke="none" x="197" y="397.1796875" width="197.61380005762027" height="34.078125"/><path fill="none" stroke="#1f77b4" paint-order="fill stroke markers" d=" M 197 397.1796875 L 394.61380005762027 397.1796875 L 394.61380005762027 431.2578125 L 197 431.2578125 L 197 397.1796875 Z" stroke-miterlimit="10"/><rect fill="#1f77b4" stroke="none" x="197" y="351.7421875" width="154.87179487179486" height="34.078125"/><path fill="none" stroke="#1f77b4" paint-order="fill stroke markers" d=" M 197 351.7421875 L 351.87179487179486 351.7421875 L 351.87179487179486 385.8203125 L 197 385.8203125 L 197 351.7421875 Z" stroke-miterlimit="10"/><rect fill="#1f77b4" stroke="none" x="197" y="306.3046875" width="152.2615960818208" height="34.078125"/><path fill="none" stroke="#1f77b4" paint-order="fill stroke markers" d=" M 197 306.3046875 L 349.2615960818208 306.3046875 L 349.2615960818208 340.3828125 L 197 340.3828125 L 197 306.3046875 Z" stroke-miterlimit="10"/><rect fill="#1f77b4" stroke="none" x="197" y="260.8671875" width="145.9536156727168" height="34.078125"/><path fill="none" stroke="#1f77b4" paint-order="fill stroke markers" d=" M 197 260.8671875 L 342.9536156727168 260.8671875 L 342.9536156727168 294.9453125 L 197 294.9453125 L 197 260.8671875 Z" stroke-miterlimit="10"/><rect fill="#1f77b4" stroke="none" x="197" y="215.4296875" width="139.53687698069723" height="34.078125"/><path fill="none" stroke="#1f77b4" paint-order="fill stroke markers" d=" M 197 215.4296875 L 336.53687698069723 215.4296875 L 336.53687698069723 249.5078125 L 197 249.5078125 L 197 215.4296875 Z" stroke-miterlimit="10"/><rect fill="#1f77b4" stroke="none" x="197" y="169.9921875" width="125.39830020167096" height="34.078125"/><path fill="none" stroke="#1f77b4" paint-order="fill stroke markers" d=" M 197 169.9921875 L 322.39830020167096 169.9921875 L 322.39830020167096 204.0703125 L 197 204.0703125 L 197 169.9921875 Z" stroke-miterlimit="10"/><rect fill="#1f77b4" stroke="none" x="197" y="124.5546875" width="113.76116392970323" height="34.078125"/><path fill="none" stroke="#1f77b4" paint-order="fill stroke markers" d=" M 197 124.5546875 L 310.76116392970323 124.5546875 L 310.76116392970323 158.6328125 L 197 158.6328125 L 197 124.5546875 Z" stroke-miterlimit="10"/><rect fill="#1f77b4" stroke="none" x="197" y="79.1171875" width="87.98545087870929" height="34.078125"/><path fill="none" stroke="#1f77b4" paint-order="fill stroke markers" d=" M 197 79.1171875 L 284.9854508787093 79.1171875 L 284.9854508787093 113.1953125 L 197 113.1953125 L 197 79.1171875 Z" stroke-miterlimit="10"/><rect fill="#1f77b4" stroke="none" x="197" y="33.6796875" width="27.51584557764332" height="34.078125"/><path fill="none" stroke="#1f77b4" paint-order="fill stroke markers" d=" M 197 33.6796875 L 224.51584557764332 33.6796875 L 224.51584557764332 67.7578125 L 197 67.7578125 L 197 33.6796875 Z" stroke-miterlimit="10"/></g><g fill="#444444"><path fill="" stroke="none" d=""/><g transform="translate(579.0620858542206,730.28125) rotate(0,0,0)"><path fill="none" stroke="none"/><text fill="" stroke="none" font-family="helvetica" font-size="8pt" font-style="normal" font-weight="normal" text-decoration="normal" x="0" y="0" text-anchor="start" dominant-baseline="text-after-edge">73.76%</text></g></g><g fill="#444444"><path fill="" stroke="none" d=""/><g transform="translate(573.732929991357,684.84375) rotate(0,0,0)"><path fill="none" stroke="none"/><text fill="" stroke="none" font-family="helvetica" font-size="8pt" font-style="normal" font-weight="normal" text-decoration="normal" x="0" y="0" text-anchor="start" dominant-baseline="text-after-edge">72.70%</text></g></g><g fill="#444444"><path fill="" stroke="none" d=""/><g transform="translate(543.2806107749927,639.40625) rotate(0,0,0)"><path fill="none" stroke="none"/><text fill="" stroke="none" font-family="helvetica" font-size="8pt" font-style="normal" font-weight="normal" text-decoration="normal" x="0" y="0" text-anchor="start" dominant-baseline="text-after-edge">66.67%</text></g></g><g fill="#444444"><path fill="" stroke="none" d=""/><g transform="translate(476.1767502160761,593.96875) rotate(0,0,0)"><path fill="none" stroke="none"/><text fill="" stroke="none" font-family="helvetica" font-size="8pt" font-style="normal" font-weight="normal" text-decoration="normal" x="0" y="0" text-anchor="start" dominant-baseline="text-after-edge">53.36%</text></g></g><g fill="#444444"><path fill="" stroke="none" d=""/><g transform="translate(463.56078939786806,548.53125) rotate(0,0,0)"><path fill="none" stroke="none"/><text fill="" stroke="none" font-family="helvetica" font-size="8pt" font-style="normal" font-weight="normal" text-decoration="normal" x="0" y="0" text-anchor="start" dominant-baseline="text-after-edge">50.86%</text></g></g><g fill="#444444"><path fill="" stroke="none" d=""/><g transform="translate(456.9265341400173,503.09375) rotate(0,0,0)"><path fill="none" stroke="none"/><text fill="" stroke="none" font-family="helvetica" font-size="8pt" font-style="normal" font-weight="normal" text-decoration="normal" x="0" y="0" text-anchor="start" dominant-baseline="text-after-edge">49.55%</text></g></g><g fill="#444444"><path fill="" stroke="none" d=""/><g transform="translate(413.9670123883607,457.65625) rotate(0,0,0)"><path fill="none" stroke="none"/><text fill="" stroke="none" font-family="helvetica" font-size="8pt" font-style="normal" font-weight="normal" text-decoration="normal" x="0" y="0" text-anchor="start" dominant-baseline="text-after-edge">41.03%</text></g></g><g fill="#444444"><path fill="" stroke="none" d=""/><g transform="translate(404.61380005762027,412.21875) rotate(0,0,0)"><path fill="none" stroke="none"/><text fill="" stroke="none" font-family="helvetica" font-size="8pt" font-style="normal" font-weight="normal" text-decoration="normal" x="0" y="0" text-anchor="start" dominant-baseline="text-after-edge">39.18%</text></g></g><g fill="#444444"><path fill="" stroke="none" d=""/><g transform="translate(361.87179487179486,366.78125) rotate(0,0,0)"><path fill="none" stroke="none"/><text fill="" stroke="none" font-family="helvetica" font-size="8pt" font-style="normal" font-weight="normal" text-decoration="normal" x="0" y="0" text-anchor="start" dominant-baseline="text-after-edge">30.70%</text></g></g><g fill="#444444"><path fill="" stroke="none" d=""/><g transform="translate(359.2615960818208,321.34375) rotate(0,0,0)"><path fill="none" stroke="none"/><text fill="" stroke="none" font-family="helvetica" font-size="8pt" font-style="normal" font-weight="normal" text-decoration="normal" x="0" y="0" text-anchor="start" dominant-baseline="text-after-edge">30.19%</text></g></g><g fill="#444444"><path fill="" stroke="none" d=""/><g transform="translate(352.9536156727168,275.90625) rotate(0,0,0)"><path fill="none" stroke="none"/><text fill="" stroke="none" font-family="helvetica" font-size="8pt" font-style="normal" font-weight="normal" text-decoration="normal" x="0" y="0" text-anchor="start" dominant-baseline="text-after-edge">28.93%</text></g></g><g fill="#444444"><path fill="" stroke="none" d=""/><g transform="translate(346.53687698069723,230.46875) rotate(0,0,0)"><path fill="none" stroke="none"/><text fill="" stroke="none" font-family="helvetica" font-size="8pt" font-style="normal" font-weight="normal" text-decoration="normal" x="0" y="0" text-anchor="start" dominant-baseline="text-after-edge">27.66%</text></g></g><g fill="#444444"><path fill="" stroke="none" d=""/><g transform="translate(332.39830020167096,185.03125) rotate(0,0,0)"><path fill="none" stroke="none"/><text fill="" stroke="none" font-family="helvetica" font-size="8pt" font-style="normal" font-weight="normal" text-decoration="normal" x="0" y="0" text-anchor="start" dominant-baseline="text-after-edge">24.86%</text></g></g><g fill="#444444"><path fill="" stroke="none" d=""/><g transform="translate(320.76116392970323,139.59375) rotate(0,0,0)"><path fill="none" stroke="none"/><text fill="" stroke="none" font-family="helvetica" font-size="8pt" font-style="normal" font-weight="normal" text-decoration="normal" x="0" y="0" text-anchor="start" dominant-baseline="text-after-edge">22.55%</text></g></g><g fill="#444444"><path fill="" stroke="none" d=""/><g transform="translate(294.9854508787093,94.15625) rotate(0,0,0)"><path fill="none" stroke="none"/><text fill="" stroke="none" font-family="helvetica" font-size="8pt" font-style="normal" font-weight="normal" text-decoration="normal" x="0" y="0" text-anchor="start" dominant-baseline="text-after-edge">17.44%</text></g></g><g fill="#444444"><path fill="" stroke="none" d=""/><g transform="translate(234.51584557764332,48.71875) rotate(0,0,0)"><path fill="none" stroke="none"/><text fill="" stroke="none" font-family="helvetica" font-size="8pt" font-style="normal" font-weight="normal" text-decoration="normal" x="0" y="0" text-anchor="start" dominant-baseline="text-after-edge">5.45%</text></g></g><g fill="#444444"><path fill="" stroke="none" d=""/><g transform="translate(579.0620858542206,744.28125) rotate(0,0,0)"><path fill="none" stroke="none"/><text fill="" stroke="none" font-family="helvetica" font-size="8pt" font-style="normal" font-weight="normal" text-decoration="normal" x="0" y="0" text-anchor="start" dominant-baseline="text-after-edge">3421</text></g></g><g fill="#444444"><path fill="" stroke="none" d=""/><g transform="translate(573.732929991357,698.84375) rotate(0,0,0)"><path fill="none" stroke="none"/><text fill="" stroke="none" font-family="helvetica" font-size="8pt" font-style="normal" font-weight="normal" text-decoration="normal" x="0" y="0" text-anchor="start" dominant-baseline="text-after-edge">3372</text></g></g><g fill="#444444"><path fill="" stroke="none" d=""/><g transform="translate(543.2806107749927,653.40625) rotate(0,0,0)"><path fill="none" stroke="none"/><text fill="" stroke="none" font-family="helvetica" font-size="8pt" font-style="normal" font-weight="normal" text-decoration="normal" x="0" y="0" text-anchor="start" dominant-baseline="text-after-edge">3092</text></g></g><g fill="#444444"><path fill="" stroke="none" d=""/><g transform="translate(476.1767502160761,607.96875) rotate(0,0,0)"><path fill="none" stroke="none"/><text fill="" stroke="none" font-family="helvetica" font-size="8pt" font-style="normal" font-weight="normal" text-decoration="normal" x="0" y="0" text-anchor="start" dominant-baseline="text-after-edge">2475</text></g></g><g fill="#444444"><path fill="" stroke="none" d=""/><g transform="translate(463.56078939786806,562.53125) rotate(0,0,0)"><path fill="none" stroke="none"/><text fill="" stroke="none" font-family="helvetica" font-size="8pt" font-style="normal" font-weight="normal" text-decoration="normal" x="0" y="0" text-anchor="start" dominant-baseline="text-after-edge">2359</text></g></g><g fill="#444444"><path fill="" stroke="none" d=""/><g transform="translate(456.9265341400173,517.09375) rotate(0,0,0)"><path fill="none" stroke="none"/><text fill="" stroke="none" font-family="helvetica" font-size="8pt" font-style="normal" font-weight="normal" text-decoration="normal" x="0" y="0" text-anchor="start" dominant-baseline="text-after-edge">2298</text></g></g><g fill="#444444"><path fill="" stroke="none" d=""/><g transform="translate(413.9670123883607,471.65625) rotate(0,0,0)"><path fill="none" stroke="none"/><text fill="" stroke="none" font-family="helvetica" font-size="8pt" font-style="normal" font-weight="normal" text-decoration="normal" x="0" y="0" text-anchor="start" dominant-baseline="text-after-edge">1903</text></g></g><g fill="#444444"><path fill="" stroke="none" d=""/><g transform="translate(404.61380005762027,426.21875) rotate(0,0,0)"><path fill="none" stroke="none"/><text fill="" stroke="none" font-family="helvetica" font-size="8pt" font-style="normal" font-weight="normal" text-decoration="normal" x="0" y="0" text-anchor="start" dominant-baseline="text-after-edge">1817</text></g></g><g fill="#444444"><path fill="" stroke="none" d=""/><g transform="translate(361.87179487179486,380.78125) rotate(0,0,0)"><path fill="none" stroke="none"/><text fill="" stroke="none" font-family="helvetica" font-size="8pt" font-style="normal" font-weight="normal" text-decoration="normal" x="0" y="0" text-anchor="start" dominant-baseline="text-after-edge">1424</text></g></g><g fill="#444444"><path fill="" stroke="none" d=""/><g transform="translate(359.2615960818208,335.34375) rotate(0,0,0)"><path fill="none" stroke="none"/><text fill="" stroke="none" font-family="helvetica" font-size="8pt" font-style="normal" font-weight="normal" text-decoration="normal" x="0" y="0" text-anchor="start" dominant-baseline="text-after-edge">1400</text></g></g><g fill="#444444"><path fill="" stroke="none" d=""/><g transform="translate(352.9536156727168,289.90625) rotate(0,0,0)"><path fill="none" stroke="none"/><text fill="" stroke="none" font-family="helvetica" font-size="8pt" font-style="normal" font-weight="normal" text-decoration="normal" x="0" y="0" text-anchor="start" dominant-baseline="text-after-edge">1342</text></g></g><g fill="#444444"><path fill="" stroke="none" d=""/><g transform="translate(346.53687698069723,244.46875) rotate(0,0,0)"><path fill="none" stroke="none"/><text fill="" stroke="none" font-family="helvetica" font-size="8pt" font-style="normal" font-weight="normal" text-decoration="normal" x="0" y="0" text-anchor="start" dominant-baseline="text-after-edge">1283</text></g></g><g fill="#444444"><path fill="" stroke="none" d=""/><g transform="translate(332.39830020167096,199.03125) rotate(0,0,0)"><path fill="none" stroke="none"/><text fill="" stroke="none" font-family="helvetica" font-size="8pt" font-style="normal" font-weight="normal" text-decoration="normal" x="0" y="0" text-anchor="start" dominant-baseline="text-after-edge">1153</text></g></g><g fill="#444444"><path fill="" stroke="none" d=""/><g transform="translate(320.76116392970323,153.59375) rotate(0,0,0)"><path fill="none" stroke="none"/><text fill="" stroke="none" font-family="helvetica" font-size="8pt" font-style="normal" font-weight="normal" text-decoration="normal" x="0" y="0" text-anchor="start" dominant-baseline="text-after-edge">1046</text></g></g><g fill="#444444"><path fill="" stroke="none" d=""/><g transform="translate(294.9854508787093,108.15625) rotate(0,0,0)"><path fill="none" stroke="none"/><text fill="" stroke="none" font-family="helvetica" font-size="8pt" font-style="normal" font-weight="normal" text-decoration="normal" x="0" y="0" text-anchor="start" dominant-baseline="text-after-edge">809</text></g></g><g fill="#444444"><path fill="" stroke="none" d=""/><g transform="translate(234.51584557764332,62.71875) rotate(0,0,0)"><path fill="none" stroke="none"/><text fill="" stroke="none" font-family="helvetica" font-size="8pt" font-style="normal" font-weight="normal" text-decoration="normal" x="0" y="0" text-anchor="start" dominant-baseline="text-after-edge">253</text></g></g></g><g/><g><g fill="#444444"><path fill="none" stroke="black" paint-order="fill stroke markers" d=" M 197 755 L 650 755" stroke-miterlimit="10"/><path fill="none" stroke="black" paint-order="fill stroke markers" d=" M 197 761 L 197 753" stroke-miterlimit="10"/><path fill="none" stroke="black" paint-order="fill stroke markers" d=" M 306 761 L 306 753" stroke-miterlimit="10"/><path fill="none" stroke="black" paint-order="fill stroke markers" d=" M 415 761 L 415 753" stroke-miterlimit="10"/><path fill="none" stroke="black" paint-order="fill stroke markers" d=" M 523 761 L 523 753" stroke-miterlimit="10"/><path fill="none" stroke="black" paint-order="fill stroke markers" d=" M 632 761 L 632 753" stroke-miterlimit="10"/><path fill="none" stroke="black" paint-order="fill stroke markers" d=" M 197 759 L 197 755" stroke-miterlimit="10"/><path fill="none" stroke="black" paint-order="fill stroke markers" d=" M 219 759 L 219 755" stroke-miterlimit="10"/><path fill="none" stroke="black" paint-order="fill stroke markers" d=" M 241 759 L 241 755" stroke-miterlimit="10"/><path fill="none" stroke="black" paint-order="fill stroke markers" d=" M 262 759 L 262 755" stroke-miterlimit="10"/><path fill="none" stroke="black" paint-order="fill stroke markers" d=" M 284 759 L 284 755" stroke-miterlimit="10"/><path fill="none" stroke="black" paint-order="fill stroke markers" d=" M 306 759 L 306 755" stroke-miterlimit="10"/><path fill="none" stroke="black" paint-order="fill stroke markers" d=" M 328 759 L 328 755" stroke-miterlimit="10"/><path fill="none" stroke="black" paint-order="fill stroke markers" d=" M 349 759 L 349 755" stroke-miterlimit="10"/><path fill="none" stroke="black" paint-order="fill stroke markers" d=" M 371 759 L 371 755" stroke-miterlimit="10"/><path fill="none" stroke="black" paint-order="fill stroke markers" d=" M 393 759 L 393 755" stroke-miterlimit="10"/><path fill="none" stroke="black" paint-order="fill stroke markers" d=" M 415 759 L 415 755" stroke-miterlimit="10"/><path fill="none" stroke="black" paint-order="fill stroke markers" d=" M 436 759 L 436 755" stroke-miterlimit="10"/><path fill="none" stroke="black" paint-order="fill stroke markers" d=" M 458 759 L 458 755" stroke-miterlimit="10"/><path fill="none" stroke="black" paint-order="fill stroke markers" d=" M 480 759 L 480 755" stroke-miterlimit="10"/><path fill="none" stroke="black" paint-order="fill stroke markers" d=" M 502 759 L 502 755" stroke-miterlimit="10"/><path fill="none" stroke="black" paint-order="fill stroke markers" d=" M 523 759 L 523 755" stroke-miterlimit="10"/><path fill="none" stroke="black" paint-order="fill stroke markers" d=" M 545 759 L 545 755" stroke-miterlimit="10"/><path fill="none" stroke="black" paint-order="fill stroke markers" d=" M 567 759 L 567 755" stroke-miterlimit="10"/><path fill="none" stroke="black" paint-order="fill stroke markers" d=" M 589 759 L 589 755" stroke-miterlimit="10"/><path fill="none" stroke="black" paint-order="fill stroke markers" d=" M 610 759 L 610 755" stroke-miterlimit="10"/><path fill="" stroke="black" paint-order="fill stroke markers" d=" M 632 759 L 632 755" stroke-miterlimit="10"/><g transform="translate(197,766) rotate(0,0,0)"><text fill="" stroke="none" font-family="helvetica" font-size="8pt" font-style="normal" font-weight="normal" text-decoration="normal" x="0" y="0" text-anchor="middle" dominant-baseline="hanging">0</text><g transform="rotate(0,0,0) translate(-197,-766) translate(306,766) rotate(0,0,0)"><text fill="" stroke="none" font-family="helvetica" font-size="8pt" font-style="normal" font-weight="normal" text-decoration="normal" x="0" y="0" text-anchor="middle" dominant-baseline="hanging">1000</text><g transform="rotate(0,0,0) translate(-306,-766) translate(415,766) rotate(0,0,0)"><text fill="" stroke="none" font-family="helvetica" font-size="8pt" font-style="normal" font-weight="normal" text-decoration="normal" x="0" y="0" text-anchor="middle" dominant-baseline="hanging">2000</text><g transform="rotate(0,0,0) translate(-415,-766) translate(523,766) rotate(0,0,0)"><text fill="" stroke="none" font-family="helvetica" font-size="8pt" font-style="normal" font-weight="normal" text-decoration="normal" x="0" y="0" text-anchor="middle" dominant-baseline="hanging">3000</text><g transform="rotate(0,0,0) translate(-523,-766) translate(632,766) rotate(0,0,0)"><text fill="" stroke="none" font-family="helvetica" font-size="8pt" font-style="normal" font-weight="normal" text-decoration="normal" x="0" y="0" text-anchor="middle" dominant-baseline="hanging">4000</text><g transform="rotate(0,0,0) translate(-632,-766) translate(424,784) rotate(0,0,0)"><text fill="" stroke="none" font-family="helvetica" font-size="10pt" font-style="italic" font-weight="normal" text-decoration="normal" x="0" y="0" text-anchor="middle" dominant-baseline="hanging">Respondents</text><g transform="rotate(0,0,0) translate(-424,-784)"/></g></g></g></g></g></g></g><g fill="#444444"><path fill="none" stroke="black" paint-order="fill stroke markers" d=" M 197 755 L 197 28" stroke-miterlimit="10"/><path fill="none" stroke="black" paint-order="fill stroke markers" d=" M 191 732 L 199 732" stroke-miterlimit="10"/><path fill="none" stroke="black" paint-order="fill stroke markers" d=" M 191 687 L 199 687" stroke-miterlimit="10"/><path fill="none" stroke="black" paint-order="fill stroke markers" d=" M 191 641 L 199 641" stroke-miterlimit="10"/><path fill="none" stroke="black" paint-order="fill stroke markers" d=" M 191 596 L 199 596" stroke-miterlimit="10"/><path fill="none" stroke="black" paint-order="fill stroke markers" d=" M 191 551 L 199 551" stroke-miterlimit="10"/><path fill="none" stroke="black" paint-order="fill stroke markers" d=" M 191 505 L 199 505" stroke-miterlimit="10"/><path fill="none" stroke="black" paint-order="fill stroke markers" d=" M 191 460 L 199 460" stroke-miterlimit="10"/><path fill="none" stroke="black" paint-order="fill stroke markers" d=" M 191 414 L 199 414" stroke-miterlimit="10"/><path fill="none" stroke="black" paint-order="fill stroke markers" d=" M 191 369 L 199 369" stroke-miterlimit="10"/><path fill="none" stroke="black" paint-order="fill stroke markers" d=" M 191 323 L 199 323" stroke-miterlimit="10"/><path fill="none" stroke="black" paint-order="fill stroke markers" d=" M 191 278 L 199 278" stroke-miterlimit="10"/><path fill="none" stroke="black" paint-order="fill stroke markers" d=" M 191 232 L 199 232" stroke-miterlimit="10"/><path fill="none" stroke="black" paint-order="fill stroke markers" d=" M 191 187 L 199 187" stroke-miterlimit="10"/><path fill="none" stroke="black" paint-order="fill stroke markers" d=" M 191 142 L 199 142" stroke-miterlimit="10"/><path fill="none" stroke="black" paint-order="fill stroke markers" d=" M 191 96 L 199 96" stroke-miterlimit="10"/><path fill="" stroke="black" paint-order="fill stroke markers" d=" M 191 51 L 199 51" stroke-miterlimit="10"/><g transform="translate(186,732) rotate(0,0,0)"><text fill="" stroke="none" font-family="helvetica" font-size="8pt" font-style="normal" font-weight="normal" text-decoration="normal" x="0" y="0" text-anchor="end" dominant-baseline="central">Medical Insurance</text><g transform="rotate(0,0,0) translate(-186,-732) translate(186,687) rotate(0,0,0)"><text fill="" stroke="none" font-family="helvetica" font-size="8pt" font-style="normal" font-weight="normal" text-decoration="normal" x="0" y="0" text-anchor="end" dominant-baseline="central">Paid Time Off</text><g transform="rotate(0,0,0) translate(-186,-687) translate(186,641) rotate(0,0,0)"><text fill="" stroke="none" font-family="helvetica" font-size="8pt" font-style="normal" font-weight="normal" text-decoration="normal" x="0" y="0" text-anchor="end" dominant-baseline="central">Dental Insurance</text><g transform="rotate(0,0,0) translate(-186,-641) translate(186,596) rotate(0,0,0)"><text fill="" stroke="none" font-family="helvetica" font-size="8pt" font-style="normal" font-weight="normal" text-decoration="normal" x="0" y="0" text-anchor="end" dominant-baseline="central">Employer-matched Retirement</text><g transform="rotate(0,0,0) translate(-186,-596) translate(186,551) rotate(0,0,0)"><text fill="" stroke="none" font-family="helvetica" font-size="8pt" font-style="normal" font-weight="normal" text-decoration="normal" x="0" y="0" text-anchor="end" dominant-baseline="central">Life Insurance</text><g transform="rotate(0,0,0) translate(-186,-551) translate(186,505) rotate(0,0,0)"><text fill="" stroke="none" font-family="helvetica" font-size="8pt" font-style="normal" font-weight="normal" text-decoration="normal" x="0" y="0" text-anchor="end" dominant-baseline="central">Professional Development</text><g transform="rotate(0,0,0) translate(-186,-505) translate(186,460) rotate(0,0,0)"><text fill="" stroke="none" font-family="helvetica" font-size="8pt" font-style="normal" font-weight="normal" text-decoration="normal" x="0" y="0" text-anchor="end" dominant-baseline="central">Disability Insurance</text><g transform="rotate(0,0,0) translate(-186,-460) translate(186,414) rotate(0,0,0)"><text fill="" stroke="none" font-family="helvetica" font-size="8pt" font-style="normal" font-weight="normal" text-decoration="normal" x="0" y="0" text-anchor="end" dominant-baseline="central">Paid Parental Leave</text><g transform="rotate(0,0,0) translate(-186,-414) translate(186,369) rotate(0,0,0)"><text fill="" stroke="none" font-family="helvetica" font-size="8pt" font-style="normal" font-weight="normal" text-decoration="normal" x="0" y="0" text-anchor="end" dominant-baseline="central">Wellness Programs</text><g transform="rotate(0,0,0) translate(-186,-369) translate(186,323) rotate(0,0,0)"><text fill="" stroke="none" font-family="helvetica" font-size="8pt" font-style="normal" font-weight="normal" text-decoration="normal" x="0" y="0" text-anchor="end" dominant-baseline="central">Professional Memberships</text><g transform="rotate(0,0,0) translate(-186,-323) translate(186,278) rotate(0,0,0)"><text fill="" stroke="none" font-family="helvetica" font-size="8pt" font-style="normal" font-weight="normal" text-decoration="normal" x="0" y="0" text-anchor="end" dominant-baseline="central">Fitness Benefits</text><g transform="rotate(0,0,0) translate(-186,-278) translate(186,232) rotate(0,0,0)"><text fill="" stroke="none" font-family="helvetica" font-size="8pt" font-style="normal" font-weight="normal" text-decoration="normal" x="0" y="0" text-anchor="end" dominant-baseline="central">Education Funding</text><g transform="rotate(0,0,0) translate(-186,-232) translate(186,187) rotate(0,0,0)"><text fill="" stroke="none" font-family="helvetica" font-size="8pt" font-style="normal" font-weight="normal" text-decoration="normal" x="0" y="0" text-anchor="end" dominant-baseline="central">Commuting Benefits</text><g transform="rotate(0,0,0) translate(-186,-187) translate(186,142) rotate(0,0,0)"><text fill="" stroke="none" font-family="helvetica" font-size="8pt" font-style="normal" font-weight="normal" text-decoration="normal" x="0" y="0" text-anchor="end" dominant-baseline="central">Profit Sharing or Stock Options</text><g transform="rotate(0,0,0) translate(-186,-142) translate(186,96) rotate(0,0,0)"><text fill="" stroke="none" font-family="helvetica" font-size="8pt" font-style="normal" font-weight="normal" text-decoration="normal" x="0" y="0" text-anchor="end" dominant-baseline="central">None of these</text><g transform="rotate(0,0,0) translate(-186,-96) translate(186,51) rotate(0,0,0)"><text fill="" stroke="none" font-family="helvetica" font-size="8pt" font-style="normal" font-weight="normal" text-decoration="normal" x="0" y="0" text-anchor="end" dominant-baseline="central">Child Care</text><g transform="rotate(0,0,0) translate(-186,-51) translate(15,392) rotate(-90,0,0)"><text fill="" stroke="none" font-family="helvetica" font-size="10pt" font-style="italic" font-weight="normal" text-decoration="normal" x="0" y="0" text-anchor="middle" dominant-baseline="alphabetic">Categories</text><g transform="rotate(90,0,0) translate(-15,-392)"/></g></g></g></g></g></g></g></g></g></g></g></g></g></g></g></g></g></g><g fill="#444444"><path fill="" stroke="none" d=""/><g transform="translate(197,23)"><path fill="none" stroke="none"/><text fill="" stroke="none" font-family="helvetica" font-size="10pt" font-style="normal" font-weight="bold" text-decoration="normal" x="0" y="0" text-anchor="start" dominant-baseline="text-after-edge">AIGA-Only: My job provides:</text></g></g></g></g></g></svg>