<svg version="1.1" xmlns="http://www.w3.org/2000/svg" xmlns:xlink="http://www.w3.org/1999/xlink" width="700" height="750" style="width: 700px; height: 750px;"><defs/><g><g transform="scale(1,1) translate(0.5,0.5)"><rect fill="#FFFFFF" stroke="none" x="0" y="0" width="700" height="750"/><rect fill="#ffffff" stroke="none" x="0" y="0" width="700" height="750"/><rect fill="#FFFFFF" stroke="none" x="252" y="28" width="398" height="677"/><rect fill="#ffffff" stroke="none" x="252" y="28" width="398" height="677"/><g><rect fill="none" stroke="#e5e5e5" x="252" y="28" width="398" height="677" stroke-miterlimit="10"/></g><g><g><path fill="none" stroke="#e5e5e5" paint-order="fill stroke markers" d=" M 321 705 L 321 28" stroke-miterlimit="10"/><path fill="none" stroke="#e5e5e5" paint-order="fill stroke markers" d=" M 390 705 L 390 28" stroke-miterlimit="10"/><path fill="none" stroke="#e5e5e5" paint-order="fill stroke markers" d=" M 460 705 L 460 28" stroke-miterlimit="10"/><path fill="none" stroke="#e5e5e5" paint-order="fill stroke markers" d=" M 529 705 L 529 28" stroke-miterlimit="10"/><path fill="none" stroke="#e5e5e5" paint-order="fill stroke markers" d=" M 598 705 L 598 28" stroke-miterlimit="10"/></g><g><path fill="none" stroke="#e5e5e5" paint-order="fill stroke markers" d=" M 252 682 L 650 682" stroke-miterlimit="10"/><path fill="none" stroke="#e5e5e5" paint-order="fill stroke markers" d=" M 252 637 L 650 637" stroke-miterlimit="10"/><path fill="none" stroke="#e5e5e5" paint-order="fill stroke markers" d=" M 252 592 L 650 592" stroke-miterlimit="10"/><path fill="none" stroke="#e5e5e5" paint-order="fill stroke markers" d=" M 252 547 L 650 547" stroke-miterlimit="10"/><path fill="none" stroke="#e5e5e5" paint-order="fill stroke markers" d=" M 252 502 L 650 502" stroke-miterlimit="10"/><path fill="none" stroke="#e5e5e5" paint-order="fill stroke markers" d=" M 252 457 L 650 457" stroke-miterlimit="10"/><path fill="none" stroke="#e5e5e5" paint-order="fill stroke markers" d=" M 252 412 L 650 412" stroke-miterlimit="10"/><path fill="none" stroke="#e5e5e5" paint-order="fill stroke markers" d=" M 252 367 L 650 367" stroke-miterlimit="10"/><path fill="none" stroke="#e5e5e5" paint-order="fill stroke markers" d=" M 252 321 L 650 321" stroke-miterlimit="10"/><path fill="none" stroke="#e5e5e5" paint-order="fill stroke markers" d=" M 252 276 L 650 276" stroke-miterlimit="10"/><path fill="none" stroke="#e5e5e5" paint-order="fill stroke markers" d=" M 252 231 L 650 231" stroke-miterlimit="10"/><path fill="none" stroke="#e5e5e5" paint-order="fill stroke markers" d=" M 252 186 L 650 186" stroke-miterlimit="10"/><path fill="none" stroke="#e5e5e5" paint-order="fill stroke markers" d=" M 252 141 L 650 141" stroke-miterlimit="10"/><path fill="none" stroke="#e5e5e5" paint-order="fill stroke markers" d=" M 252 96 L 650 96" stroke-miterlimit="10"/><path fill="none" stroke="#e5e5e5" paint-order="fill stroke markers" d=" M 252 51 L 650 51" stroke-miterlimit="10"/></g><g><path fill="none" stroke="none"/><rect fill="#1f77b4" stroke="none" x="252" y="665.5083333333332" width="324.7454090150251" height="33.850000000000136"/><path fill="none" stroke="#1f77b4" paint-order="fill stroke markers" d=" M 252 665.5083333333332 L 576.7454090150251 665.5083333333332 L 576.7454090150251 699.3583333333333 L 252 699.3583333333333 L 252 665.5083333333332 Z" stroke-miterlimit="10"/><rect fill="#1f77b4" stroke="none" x="252" y="620.375" width="291.80022259321095" height="33.84999999999991"/><path fill="none" stroke="#1f77b4" paint-order="fill stroke markers" d=" M 252 620.375 L 543.800222593211 620.375 L 543.800222593211 654.2249999999999 L 252 654.2249999999999 L 252 620.375 Z" stroke-miterlimit="10"/><rect fill="#1f77b4" stroke="none" x="252" y="575.2416666666666" width="258.16291040623264" height="33.850000000000136"/><path fill="none" stroke="#1f77b4" paint-order="fill stroke markers" d=" M 252 575.2416666666666 L 510.16291040623264 575.2416666666666 L 510.16291040623264 609.0916666666667 L 252 609.0916666666667 L 252 575.2416666666666 Z" stroke-miterlimit="10"/><rect fill="#1f77b4" stroke="none" x="252" y="530.1083333333333" width="249.580550918197" height="33.84999999999991"/><path fill="none" stroke="#1f77b4" paint-order="fill stroke markers" d=" M 252 530.1083333333333 L 501.580550918197 530.1083333333333 L 501.580550918197 563.9583333333333 L 252 563.9583333333333 L 252 530.1083333333333 Z" stroke-miterlimit="10"/><rect fill="#1f77b4" stroke="none" x="252" y="484.97499999999997" width="210.54465776293824" height="33.85000000000008"/><path fill="none" stroke="#1f77b4" paint-order="fill stroke markers" d=" M 252 484.97499999999997 L 462.54465776293824 484.97499999999997 L 462.54465776293824 518.825 L 252 518.825 L 252 484.97499999999997 Z" stroke-miterlimit="10"/><rect fill="#1f77b4" stroke="none" x="252" y="439.8416666666667" width="207.9145798553144" height="33.84999999999991"/><path fill="none" stroke="#1f77b4" paint-order="fill stroke markers" d=" M 252 439.8416666666667 L 459.9145798553144 439.8416666666667 L 459.9145798553144 473.6916666666666 L 252 473.6916666666666 L 252 439.8416666666667 Z" stroke-miterlimit="10"/><rect fill="#1f77b4" stroke="none" x="252" y="394.7083333333333" width="186.59710628825826" height="33.85000000000002"/><path fill="none" stroke="#1f77b4" paint-order="fill stroke markers" d=" M 252 394.7083333333333 L 438.59710628825826 394.7083333333333 L 438.59710628825826 428.55833333333334 L 252 428.55833333333334 L 252 394.7083333333333 Z" stroke-miterlimit="10"/><rect fill="#1f77b4" stroke="none" x="252" y="349.575" width="96.34390651085141" height="33.85000000000002"/><path fill="none" stroke="#1f77b4" paint-order="fill stroke markers" d=" M 252 349.575 L 348.3439065108514 349.575 L 348.3439065108514 383.425 L 252 383.425 L 252 349.575 Z" stroke-miterlimit="10"/><rect fill="#1f77b4" stroke="none" x="252" y="304.44166666666666" width="88.86894824707849" height="33.85000000000002"/><path fill="none" stroke="#1f77b4" paint-order="fill stroke markers" d=" M 252 304.44166666666666 L 340.8689482470785 304.44166666666666 L 340.8689482470785 338.2916666666667 L 252 338.2916666666667 L 252 304.44166666666666 Z" stroke-miterlimit="10"/><rect fill="#1f77b4" stroke="none" x="252" y="259.30833333333334" width="74.3343071786311" height="33.85000000000002"/><path fill="none" stroke="#1f77b4" paint-order="fill stroke markers" d=" M 252 259.30833333333334 L 326.3343071786311 259.30833333333334 L 326.3343071786311 293.15833333333336 L 252 293.15833333333336 L 252 259.30833333333334 Z" stroke-miterlimit="10"/><rect fill="#1f77b4" stroke="none" x="252" y="214.17500000000004" width="68.5204507512521" height="33.849999999999966"/><path fill="none" stroke="#1f77b4" paint-order="fill stroke markers" d=" M 252 214.17500000000004 L 320.5204507512521 214.17500000000004 L 320.5204507512521 248.025 L 252 248.025 L 252 214.17500000000004 Z" stroke-miterlimit="10"/><rect fill="#1f77b4" stroke="none" x="252" y="169.04166666666669" width="64.36769616026709" height="33.85000000000002"/><path fill="none" stroke="#1f77b4" paint-order="fill stroke markers" d=" M 252 169.04166666666669 L 316.3676961602671 169.04166666666669 L 316.3676961602671 202.8916666666667 L 252 202.8916666666667 L 252 169.04166666666669 Z" stroke-miterlimit="10"/><rect fill="#1f77b4" stroke="none" x="252" y="123.90833333333336" width="58.41541457985534" height="33.85000000000002"/><path fill="none" stroke="#1f77b4" paint-order="fill stroke markers" d=" M 252 123.90833333333336 L 310.41541457985534 123.90833333333336 L 310.41541457985534 157.75833333333338 L 252 157.75833333333338 L 252 123.90833333333336 Z" stroke-miterlimit="10"/><rect fill="#1f77b4" stroke="none" x="252" y="78.77500000000003" width="58.41541457985534" height="33.85000000000002"/><path fill="none" stroke="#1f77b4" paint-order="fill stroke markers" d=" M 252 78.77500000000003 L 310.41541457985534 78.77500000000003 L 310.41541457985534 112.62500000000006 L 252 112.62500000000006 L 252 78.77500000000003 Z" stroke-miterlimit="10"/><rect fill="#1f77b4" stroke="none" x="252" y="33.64166666666671" width="25.747078464106835" height="33.85000000000002"/><path fill="none" stroke="#1f77b4" paint-order="fill stroke markers" d=" M 252 33.64166666666671 L 277.74707846410683 33.64166666666671 L 277.74707846410683 67.49166666666673 L 252 67.49166666666673 L 252 33.64166666666671 Z" stroke-miterlimit="10"/></g><g fill="#444444"><path fill="" stroke="none" d=""/><g transform="translate(586.7454090150251,680.4333333333333) rotate(0,0,0)"><path fill="none" stroke="none"/><text fill="" stroke="none" font-family="helvetica" font-size="8pt" font-style="normal" font-weight="normal" text-decoration="normal" x="0" y="0" text-anchor="start" dominant-baseline="text-after-edge">50.58%</text></g></g><g fill="#444444"><path fill="" stroke="none" d=""/><g transform="translate(553.800222593211,635.3) rotate(0,0,0)"><path fill="none" stroke="none"/><text fill="" stroke="none" font-family="helvetica" font-size="8pt" font-style="normal" font-weight="normal" text-decoration="normal" x="0" y="0" text-anchor="start" dominant-baseline="text-after-edge">45.45%</text></g></g><g fill="#444444"><path fill="" stroke="none" d=""/><g transform="translate(520.1629104062326,590.1666666666666) rotate(0,0,0)"><path fill="none" stroke="none"/><text fill="" stroke="none" font-family="helvetica" font-size="8pt" font-style="normal" font-weight="normal" text-decoration="normal" x="0" y="0" text-anchor="start" dominant-baseline="text-after-edge">40.21%</text></g></g><g fill="#444444"><path fill="" stroke="none" d=""/><g transform="translate(511.580550918197,545.0333333333333) rotate(0,0,0)"><path fill="none" stroke="none"/><text fill="" stroke="none" font-family="helvetica" font-size="8pt" font-style="normal" font-weight="normal" text-decoration="normal" x="0" y="0" text-anchor="start" dominant-baseline="text-after-edge">38.87%</text></g></g><g fill="#444444"><path fill="" stroke="none" d=""/><g transform="translate(472.54465776293824,499.9) rotate(0,0,0)"><path fill="none" stroke="none"/><text fill="" stroke="none" font-family="helvetica" font-size="8pt" font-style="normal" font-weight="normal" text-decoration="normal" x="0" y="0" text-anchor="start" dominant-baseline="text-after-edge">32.79%</text></g></g><g fill="#444444"><path fill="" stroke="none" d=""/><g transform="translate(469.9145798553144,454.76666666666665) rotate(0,0,0)"><path fill="none" stroke="none"/><text fill="" stroke="none" font-family="helvetica" font-size="8pt" font-style="normal" font-weight="normal" text-decoration="normal" x="0" y="0" text-anchor="start" dominant-baseline="text-after-edge">32.38%</text></g></g><g fill="#444444"><path fill="" stroke="none" d=""/><g transform="translate(448.59710628825826,409.6333333333333) rotate(0,0,0)"><path fill="none" stroke="none"/><text fill="" stroke="none" font-family="helvetica" font-size="8pt" font-style="normal" font-weight="normal" text-decoration="normal" x="0" y="0" text-anchor="start" dominant-baseline="text-after-edge">29.06%</text></g></g><g fill="#444444"><path fill="" stroke="none" d=""/><g transform="translate(358.3439065108514,364.5) rotate(0,0,0)"><path fill="none" stroke="none"/><text fill="" stroke="none" font-family="helvetica" font-size="8pt" font-style="normal" font-weight="normal" text-decoration="normal" x="0" y="0" text-anchor="start" dominant-baseline="text-after-edge">15.01%</text></g></g><g fill="#444444"><path fill="" stroke="none" d=""/><g transform="translate(350.8689482470785,319.3666666666667) rotate(0,0,0)"><path fill="none" stroke="none"/><text fill="" stroke="none" font-family="helvetica" font-size="8pt" font-style="normal" font-weight="normal" text-decoration="normal" x="0" y="0" text-anchor="start" dominant-baseline="text-after-edge">13.84%</text></g></g><g fill="#444444"><path fill="" stroke="none" d=""/><g transform="translate(336.3343071786311,274.23333333333335) rotate(0,0,0)"><path fill="none" stroke="none"/><text fill="" stroke="none" font-family="helvetica" font-size="8pt" font-style="normal" font-weight="normal" text-decoration="normal" x="0" y="0" text-anchor="start" dominant-baseline="text-after-edge">11.58%</text></g></g><g fill="#444444"><path fill="" stroke="none" d=""/><g transform="translate(330.5204507512521,229.10000000000002) rotate(0,0,0)"><path fill="none" stroke="none"/><text fill="" stroke="none" font-family="helvetica" font-size="8pt" font-style="normal" font-weight="normal" text-decoration="normal" x="0" y="0" text-anchor="start" dominant-baseline="text-after-edge">10.67%</text></g></g><g fill="#444444"><path fill="" stroke="none" d=""/><g transform="translate(326.3676961602671,183.9666666666667) rotate(0,0,0)"><path fill="none" stroke="none"/><text fill="" stroke="none" font-family="helvetica" font-size="8pt" font-style="normal" font-weight="normal" text-decoration="normal" x="0" y="0" text-anchor="start" dominant-baseline="text-after-edge">10.03%</text></g></g><g fill="#444444"><path fill="" stroke="none" d=""/><g transform="translate(320.41541457985534,138.83333333333337) rotate(0,0,0)"><path fill="none" stroke="none"/><text fill="" stroke="none" font-family="helvetica" font-size="8pt" font-style="normal" font-weight="normal" text-decoration="normal" x="0" y="0" text-anchor="start" dominant-baseline="text-after-edge">9.10%</text></g></g><g fill="#444444"><path fill="" stroke="none" d=""/><g transform="translate(320.41541457985534,93.70000000000005) rotate(0,0,0)"><path fill="none" stroke="none"/><text fill="" stroke="none" font-family="helvetica" font-size="8pt" font-style="normal" font-weight="normal" text-decoration="normal" x="0" y="0" text-anchor="start" dominant-baseline="text-after-edge">9.10%</text></g></g><g fill="#444444"><path fill="" stroke="none" d=""/><g transform="translate(287.74707846410683,48.56666666666672) rotate(0,0,0)"><path fill="none" stroke="none"/><text fill="" stroke="none" font-family="helvetica" font-size="8pt" font-style="normal" font-weight="normal" text-decoration="normal" x="0" y="0" text-anchor="start" dominant-baseline="text-after-edge">4.01%</text></g></g><g fill="#444444"><path fill="" stroke="none" d=""/><g transform="translate(586.7454090150251,694.4333333333333) rotate(0,0,0)"><path fill="none" stroke="none"/><text fill="" stroke="none" font-family="helvetica" font-size="8pt" font-style="normal" font-weight="normal" text-decoration="normal" x="0" y="0" text-anchor="start" dominant-baseline="text-after-edge">2346</text></g></g><g fill="#444444"><path fill="" stroke="none" d=""/><g transform="translate(553.800222593211,649.3) rotate(0,0,0)"><path fill="none" stroke="none"/><text fill="" stroke="none" font-family="helvetica" font-size="8pt" font-style="normal" font-weight="normal" text-decoration="normal" x="0" y="0" text-anchor="start" dominant-baseline="text-after-edge">2108</text></g></g><g fill="#444444"><path fill="" stroke="none" d=""/><g transform="translate(520.1629104062326,604.1666666666666) rotate(0,0,0)"><path fill="none" stroke="none"/><text fill="" stroke="none" font-family="helvetica" font-size="8pt" font-style="normal" font-weight="normal" text-decoration="normal" x="0" y="0" text-anchor="start" dominant-baseline="text-after-edge">1865</text></g></g><g fill="#444444"><path fill="" stroke="none" d=""/><g transform="translate(511.580550918197,559.0333333333333) rotate(0,0,0)"><path fill="none" stroke="none"/><text fill="" stroke="none" font-family="helvetica" font-size="8pt" font-style="normal" font-weight="normal" text-decoration="normal" x="0" y="0" text-anchor="start" dominant-baseline="text-after-edge">1803</text></g></g><g fill="#444444"><path fill="" stroke="none" d=""/><g transform="translate(472.54465776293824,513.9) rotate(0,0,0)"><path fill="none" stroke="none"/><text fill="" stroke="none" font-family="helvetica" font-size="8pt" font-style="normal" font-weight="normal" text-decoration="normal" x="0" y="0" text-anchor="start" dominant-baseline="text-after-edge">1521</text></g></g><g fill="#444444"><path fill="" stroke="none" d=""/><g transform="translate(469.9145798553144,468.76666666666665) rotate(0,0,0)"><path fill="none" stroke="none"/><text fill="" stroke="none" font-family="helvetica" font-size="8pt" font-style="normal" font-weight="normal" text-decoration="normal" x="0" y="0" text-anchor="start" dominant-baseline="text-after-edge">1502</text></g></g><g fill="#444444"><path fill="" stroke="none" d=""/><g transform="translate(448.59710628825826,423.6333333333333) rotate(0,0,0)"><path fill="none" stroke="none"/><text fill="" stroke="none" font-family="helvetica" font-size="8pt" font-style="normal" font-weight="normal" text-decoration="normal" x="0" y="0" text-anchor="start" dominant-baseline="text-after-edge">1348</text></g></g><g fill="#444444"><path fill="" stroke="none" d=""/><g transform="translate(358.3439065108514,378.5) rotate(0,0,0)"><path fill="none" stroke="none"/><text fill="" stroke="none" font-family="helvetica" font-size="8pt" font-style="normal" font-weight="normal" text-decoration="normal" x="0" y="0" text-anchor="start" dominant-baseline="text-after-edge">696</text></g></g><g fill="#444444"><path fill="" stroke="none" d=""/><g transform="translate(350.8689482470785,333.3666666666667) rotate(0,0,0)"><path fill="none" stroke="none"/><text fill="" stroke="none" font-family="helvetica" font-size="8pt" font-style="normal" font-weight="normal" text-decoration="normal" x="0" y="0" text-anchor="start" dominant-baseline="text-after-edge">642</text></g></g><g fill="#444444"><path fill="" stroke="none" d=""/><g transform="translate(336.3343071786311,288.23333333333335) rotate(0,0,0)"><path fill="none" stroke="none"/><text fill="" stroke="none" font-family="helvetica" font-size="8pt" font-style="normal" font-weight="normal" text-decoration="normal" x="0" y="0" text-anchor="start" dominant-baseline="text-after-edge">537</text></g></g><g fill="#444444"><path fill="" stroke="none" d=""/><g transform="translate(330.5204507512521,243.10000000000002) rotate(0,0,0)"><path fill="none" stroke="none"/><text fill="" stroke="none" font-family="helvetica" font-size="8pt" font-style="normal" font-weight="normal" text-decoration="normal" x="0" y="0" text-anchor="start" dominant-baseline="text-after-edge">495</text></g></g><g fill="#444444"><path fill="" stroke="none" d=""/><g transform="translate(326.3676961602671,197.9666666666667) rotate(0,0,0)"><path fill="none" stroke="none"/><text fill="" stroke="none" font-family="helvetica" font-size="8pt" font-style="normal" font-weight="normal" text-decoration="normal" x="0" y="0" text-anchor="start" dominant-baseline="text-after-edge">465</text></g></g><g fill="#444444"><path fill="" stroke="none" d=""/><g transform="translate(320.41541457985534,152.83333333333337) rotate(0,0,0)"><path fill="none" stroke="none"/><text fill="" stroke="none" font-family="helvetica" font-size="8pt" font-style="normal" font-weight="normal" text-decoration="normal" x="0" y="0" text-anchor="start" dominant-baseline="text-after-edge">422</text></g></g><g fill="#444444"><path fill="" stroke="none" d=""/><g transform="translate(320.41541457985534,107.70000000000005) rotate(0,0,0)"><path fill="none" stroke="none"/><text fill="" stroke="none" font-family="helvetica" font-size="8pt" font-style="normal" font-weight="normal" text-decoration="normal" x="0" y="0" text-anchor="start" dominant-baseline="text-after-edge">422</text></g></g><g fill="#444444"><path fill="" stroke="none" d=""/><g transform="translate(287.74707846410683,62.56666666666672) rotate(0,0,0)"><path fill="none" stroke="none"/><text fill="" stroke="none" font-family="helvetica" font-size="8pt" font-style="normal" font-weight="normal" text-decoration="normal" x="0" y="0" text-anchor="start" dominant-baseline="text-after-edge">186</text></g></g></g><g/><g><g fill="#444444"><path fill="none" stroke="black" paint-order="fill stroke markers" d=" M 252 705 L 650 705" stroke-miterlimit="10"/><path fill="none" stroke="black" paint-order="fill stroke markers" d=" M 252 711 L 252 703" stroke-miterlimit="10"/><path fill="none" stroke="black" paint-order="fill stroke markers" d=" M 321 711 L 321 703" stroke-miterlimit="10"/><path fill="none" stroke="black" paint-order="fill stroke markers" d=" M 390 711 L 390 703" stroke-miterlimit="10"/><path fill="none" stroke="black" paint-order="fill stroke markers" d=" M 460 711 L 460 703" stroke-miterlimit="10"/><path fill="none" stroke="black" paint-order="fill stroke markers" d=" M 529 711 L 529 703" stroke-miterlimit="10"/><path fill="none" stroke="black" paint-order="fill stroke markers" d=" M 598 711 L 598 703" stroke-miterlimit="10"/><path fill="none" stroke="black" paint-order="fill stroke markers" d=" M 252 709 L 252 705" stroke-miterlimit="10"/><path fill="none" stroke="black" paint-order="fill stroke markers" d=" M 266 709 L 266 705" stroke-miterlimit="10"/><path fill="none" stroke="black" paint-order="fill stroke markers" d=" M 280 709 L 280 705" stroke-miterlimit="10"/><path fill="none" stroke="black" paint-order="fill stroke markers" d=" M 294 709 L 294 705" stroke-miterlimit="10"/><path fill="none" stroke="black" paint-order="fill stroke markers" d=" M 307 709 L 307 705" stroke-miterlimit="10"/><path fill="none" stroke="black" paint-order="fill stroke markers" d=" M 321 709 L 321 705" stroke-miterlimit="10"/><path fill="none" stroke="black" paint-order="fill stroke markers" d=" M 335 709 L 335 705" stroke-miterlimit="10"/><path fill="none" stroke="black" paint-order="fill stroke markers" d=" M 349 709 L 349 705" stroke-miterlimit="10"/><path fill="none" stroke="black" paint-order="fill stroke markers" d=" M 363 709 L 363 705" stroke-miterlimit="10"/><path fill="none" stroke="black" paint-order="fill stroke markers" d=" M 377 709 L 377 705" stroke-miterlimit="10"/><path fill="none" stroke="black" paint-order="fill stroke markers" d=" M 390 709 L 390 705" stroke-miterlimit="10"/><path fill="none" stroke="black" paint-order="fill stroke markers" d=" M 404 709 L 404 705" stroke-miterlimit="10"/><path fill="none" stroke="black" paint-order="fill stroke markers" d=" M 418 709 L 418 705" stroke-miterlimit="10"/><path fill="none" stroke="black" paint-order="fill stroke markers" d=" M 432 709 L 432 705" stroke-miterlimit="10"/><path fill="none" stroke="black" paint-order="fill stroke markers" d=" M 446 709 L 446 705" stroke-miterlimit="10"/><path fill="none" stroke="black" paint-order="fill stroke markers" d=" M 460 709 L 460 705" stroke-miterlimit="10"/><path fill="none" stroke="black" paint-order="fill stroke markers" d=" M 473 709 L 473 705" stroke-miterlimit="10"/><path fill="none" stroke="black" paint-order="fill stroke markers" d=" M 487 709 L 487 705" stroke-miterlimit="10"/><path fill="none" stroke="black" paint-order="fill stroke markers" d=" M 501 709 L 501 705" stroke-miterlimit="10"/><path fill="none" stroke="black" paint-order="fill stroke markers" d=" M 515 709 L 515 705" stroke-miterlimit="10"/><path fill="none" stroke="black" paint-order="fill stroke markers" d=" M 529 709 L 529 705" stroke-miterlimit="10"/><path fill="none" stroke="black" paint-order="fill stroke markers" d=" M 543 709 L 543 705" stroke-miterlimit="10"/><path fill="none" stroke="black" paint-order="fill stroke markers" d=" M 557 709 L 557 705" stroke-miterlimit="10"/><path fill="none" stroke="black" paint-order="fill stroke markers" d=" M 570 709 L 570 705" stroke-miterlimit="10"/><path fill="none" stroke="black" paint-order="fill stroke markers" d=" M 584 709 L 584 705" stroke-miterlimit="10"/><path fill="none" stroke="black" paint-order="fill stroke markers" d=" M 598 709 L 598 705" stroke-miterlimit="10"/><path fill="none" stroke="black" paint-order="fill stroke markers" d=" M 612 709 L 612 705" stroke-miterlimit="10"/><path fill="none" stroke="black" paint-order="fill stroke markers" d=" M 626 709 L 626 705" stroke-miterlimit="10"/><path fill="" stroke="black" paint-order="fill stroke markers" d=" M 640 709 L 640 705" stroke-miterlimit="10"/><g transform="translate(252,716) rotate(0,0,0)"><text fill="" stroke="none" font-family="helvetica" font-size="8pt" font-style="normal" font-weight="normal" text-decoration="normal" x="0" y="0" text-anchor="middle" dominant-baseline="hanging">0</text><g transform="rotate(0,0,0) translate(-252,-716) translate(321,716) rotate(0,0,0)"><text fill="" stroke="none" font-family="helvetica" font-size="8pt" font-style="normal" font-weight="normal" text-decoration="normal" x="0" y="0" text-anchor="middle" dominant-baseline="hanging">500</text><g transform="rotate(0,0,0) translate(-321,-716) translate(390,716) rotate(0,0,0)"><text fill="" stroke="none" font-family="helvetica" font-size="8pt" font-style="normal" font-weight="normal" text-decoration="normal" x="0" y="0" text-anchor="middle" dominant-baseline="hanging">1000</text><g transform="rotate(0,0,0) translate(-390,-716) translate(460,716) rotate(0,0,0)"><text fill="" stroke="none" font-family="helvetica" font-size="8pt" font-style="normal" font-weight="normal" text-decoration="normal" x="0" y="0" text-anchor="middle" dominant-baseline="hanging">1500</text><g transform="rotate(0,0,0) translate(-460,-716) translate(529,716) rotate(0,0,0)"><text fill="" stroke="none" font-family="helvetica" font-size="8pt" font-style="normal" font-weight="normal" text-decoration="normal" x="0" y="0" text-anchor="middle" dominant-baseline="hanging">2000</text><g transform="rotate(0,0,0) translate(-529,-716) translate(598,716) rotate(0,0,0)"><text fill="" stroke="none" font-family="helvetica" font-size="8pt" font-style="normal" font-weight="normal" text-decoration="normal" x="0" y="0" text-anchor="middle" dominant-baseline="hanging">2500</text><g transform="rotate(0,0,0) translate(-598,-716) translate(451,734) rotate(0,0,0)"><text fill="" stroke="none" font-family="helvetica" font-size="10pt" font-style="italic" font-weight="normal" text-decoration="normal" x="0" y="0" text-anchor="middle" dominant-baseline="hanging">Respondents</text><g transform="rotate(0,0,0) translate(-451,-734)"/></g></g></g></g></g></g></g></g><g fill="#444444"><path fill="none" stroke="black" paint-order="fill stroke markers" d=" M 252 705 L 252 28" stroke-miterlimit="10"/><path fill="none" stroke="black" paint-order="fill stroke markers" d=" M 246 682 L 254 682" stroke-miterlimit="10"/><path fill="none" stroke="black" paint-order="fill stroke markers" d=" M 246 637 L 254 637" stroke-miterlimit="10"/><path fill="none" stroke="black" paint-order="fill stroke markers" d=" M 246 592 L 254 592" stroke-miterlimit="10"/><path fill="none" stroke="black" paint-order="fill stroke markers" d=" M 246 547 L 254 547" stroke-miterlimit="10"/><path fill="none" stroke="black" paint-order="fill stroke markers" d=" M 246 502 L 254 502" stroke-miterlimit="10"/><path fill="none" stroke="black" paint-order="fill stroke markers" d=" M 246 457 L 254 457" stroke-miterlimit="10"/><path fill="none" stroke="black" paint-order="fill stroke markers" d=" M 246 412 L 254 412" stroke-miterlimit="10"/><path fill="none" stroke="black" paint-order="fill stroke markers" d=" M 246 367 L 254 367" stroke-miterlimit="10"/><path fill="none" stroke="black" paint-order="fill stroke markers" d=" M 246 321 L 254 321" stroke-miterlimit="10"/><path fill="none" stroke="black" paint-order="fill stroke markers" d=" M 246 276 L 254 276" stroke-miterlimit="10"/><path fill="none" stroke="black" paint-order="fill stroke markers" d=" M 246 231 L 254 231" stroke-miterlimit="10"/><path fill="none" stroke="black" paint-order="fill stroke markers" d=" M 246 186 L 254 186" stroke-miterlimit="10"/><path fill="none" stroke="black" paint-order="fill stroke markers" d=" M 246 141 L 254 141" stroke-miterlimit="10"/><path fill="none" stroke="black" paint-order="fill stroke markers" d=" M 246 96 L 254 96" stroke-miterlimit="10"/><path fill="" stroke="black" paint-order="fill stroke markers" d=" M 246 51 L 254 51" stroke-miterlimit="10"/><g transform="translate(241,682) rotate(0,0,0)"><text fill="" stroke="none" font-family="helvetica" font-size="8pt" font-style="normal" font-weight="normal" text-decoration="normal" x="0" y="0" text-anchor="end" dominant-baseline="central">Design not having a "seat at the table"</text><g transform="rotate(0,0,0) translate(-241,-682) translate(241,637) rotate(0,0,0)"><text fill="" stroke="none" font-family="helvetica" font-size="8pt" font-style="normal" font-weight="normal" text-decoration="normal" x="0" y="0" text-anchor="end" dominant-baseline="central">Diversity in design and tech</text><g transform="rotate(0,0,0) translate(-241,-637) translate(241,592) rotate(0,0,0)"><text fill="" stroke="none" font-family="helvetica" font-size="8pt" font-style="normal" font-weight="normal" text-decoration="normal" x="0" y="0" text-anchor="end" dominant-baseline="central">Education cost and equity of access</text><g transform="rotate(0,0,0) translate(-241,-592) translate(241,547) rotate(0,0,0)"><text fill="" stroke="none" font-family="helvetica" font-size="8pt" font-style="normal" font-weight="normal" text-decoration="normal" x="0" y="0" text-anchor="end" dominant-baseline="central">Ethics in design</text><g transform="rotate(0,0,0) translate(-241,-547) translate(241,502) rotate(0,0,0)"><text fill="" stroke="none" font-family="helvetica" font-size="8pt" font-style="normal" font-weight="normal" text-decoration="normal" x="0" y="0" text-anchor="end" dominant-baseline="central">Consumer vs. social impact focus</text><g transform="rotate(0,0,0) translate(-241,-502) translate(241,457) rotate(0,0,0)"><text fill="" stroke="none" font-family="helvetica" font-size="8pt" font-style="normal" font-weight="normal" text-decoration="normal" x="0" y="0" text-anchor="end" dominant-baseline="central">Generational differences in the workforce</text><g transform="rotate(0,0,0) translate(-241,-457) translate(241,412) rotate(0,0,0)"><text fill="" stroke="none" font-family="helvetica" font-size="8pt" font-style="normal" font-weight="normal" text-decoration="normal" x="0" y="0" text-anchor="end" dominant-baseline="central">Environmental impacts of design</text><g transform="rotate(0,0,0) translate(-241,-412) translate(241,367) rotate(0,0,0)"><text fill="" stroke="none" font-family="helvetica" font-size="8pt" font-style="normal" font-weight="normal" text-decoration="normal" x="0" y="0" text-anchor="end" dominant-baseline="central">Algorithm bias</text><g transform="rotate(0,0,0) translate(-241,-367) translate(241,321) rotate(0,0,0)"><text fill="" stroke="none" font-family="helvetica" font-size="8pt" font-style="normal" font-weight="normal" text-decoration="normal" x="0" y="0" text-anchor="end" dominant-baseline="central">Advertising supported content model</text><g transform="rotate(0,0,0) translate(-241,-321) translate(241,276) rotate(0,0,0)"><text fill="" stroke="none" font-family="helvetica" font-size="8pt" font-style="normal" font-weight="normal" text-decoration="normal" x="0" y="0" text-anchor="end" dominant-baseline="central">Human-machine interface limitations</text><g transform="rotate(0,0,0) translate(-241,-276) translate(241,231) rotate(0,0,0)"><text fill="" stroke="none" font-family="helvetica" font-size="8pt" font-style="normal" font-weight="normal" text-decoration="normal" x="0" y="0" text-anchor="end" dominant-baseline="central">Dark UX patterns</text><g transform="rotate(0,0,0) translate(-241,-231) translate(241,186) rotate(0,0,0)"><text fill="" stroke="none" font-family="helvetica" font-size="8pt" font-style="normal" font-weight="normal" text-decoration="normal" x="0" y="0" text-anchor="end" dominant-baseline="central">Machine ethics</text><g transform="rotate(0,0,0) translate(-241,-186) translate(241,141) rotate(0,0,0)"><text fill="" stroke="none" font-family="helvetica" font-size="8pt" font-style="normal" font-weight="normal" text-decoration="normal" x="0" y="0" text-anchor="end" dominant-baseline="central">Software complexity</text><g transform="rotate(0,0,0) translate(-241,-141) translate(241,96) rotate(0,0,0)"><text fill="" stroke="none" font-family="helvetica" font-size="8pt" font-style="normal" font-weight="normal" text-decoration="normal" x="0" y="0" text-anchor="end" dominant-baseline="central">Trademark and patent issues</text><g transform="rotate(0,0,0) translate(-241,-96) translate(241,51) rotate(0,0,0)"><text fill="" stroke="none" font-family="helvetica" font-size="8pt" font-style="normal" font-weight="normal" text-decoration="normal" x="0" y="0" text-anchor="end" dominant-baseline="central">None of these</text><g transform="rotate(0,0,0) translate(-241,-51) translate(16,367) rotate(-90,0,0)"><text fill="" stroke="none" font-family="helvetica" font-size="10pt" font-style="italic" font-weight="normal" text-decoration="normal" x="0" y="0" text-anchor="middle" dominant-baseline="alphabetic">Categories</text><g transform="rotate(90,0,0) translate(-16,-367)"/></g></g></g></g></g></g></g></g></g></g></g></g></g></g></g></g></g><g fill="#444444"><path fill="" stroke="none" d=""/><g transform="translate(252,23)"><path fill="none" stroke="none"/><text fill="" stroke="none" font-family="helvetica" font-size="10pt" font-style="normal" font-weight="bold" text-decoration="normal" x="0" y="0" text-anchor="start" dominant-baseline="text-after-edge">AIGA-Only: The most critical issues and challenges currently facing design are (answer optional):</text></g></g></g></g></g></svg>