<svg version="1.1" xmlns="http://www.w3.org/2000/svg" xmlns:xlink="http://www.w3.org/1999/xlink" width="700" height="1200" style="width: 700px; height: 1200px;"><defs/><g><g transform="scale(1,1) translate(0.5,0.5)"><rect fill="#FFFFFF" stroke="none" x="0" y="0" width="700" height="1200"/><rect fill="#ffffff" stroke="none" x="0" y="0" width="700" height="1200"/><rect fill="#FFFFFF" stroke="none" x="238" y="28" width="412" height="1127"/><rect fill="#ffffff" stroke="none" x="238" y="28" width="412" height="1127"/><g><rect fill="none" stroke="#e5e5e5" x="238" y="28" width="412" height="1127" stroke-miterlimit="10"/></g><g><g><path fill="none" stroke="#e5e5e5" paint-order="fill stroke markers" d=" M 336 1155 L 336 28" stroke-miterlimit="10"/><path fill="none" stroke="#e5e5e5" paint-order="fill stroke markers" d=" M 435 1155 L 435 28" stroke-miterlimit="10"/><path fill="none" stroke="#e5e5e5" paint-order="fill stroke markers" d=" M 533 1155 L 533 28" stroke-miterlimit="10"/><path fill="none" stroke="#e5e5e5" paint-order="fill stroke markers" d=" M 632 1155 L 632 28" stroke-miterlimit="10"/></g><g><path fill="none" stroke="#e5e5e5" paint-order="fill stroke markers" d=" M 238 1132 L 650 1132" stroke-miterlimit="10"/><path fill="none" stroke="#e5e5e5" paint-order="fill stroke markers" d=" M 238 1085 L 650 1085" stroke-miterlimit="10"/><path fill="none" stroke="#e5e5e5" paint-order="fill stroke markers" d=" M 238 1038 L 650 1038" stroke-miterlimit="10"/><path fill="none" stroke="#e5e5e5" paint-order="fill stroke markers" d=" M 238 991 L 650 991" stroke-miterlimit="10"/><path fill="none" stroke="#e5e5e5" paint-order="fill stroke markers" d=" M 238 944 L 650 944" stroke-miterlimit="10"/><path fill="none" stroke="#e5e5e5" paint-order="fill stroke markers" d=" M 238 897 L 650 897" stroke-miterlimit="10"/><path fill="none" stroke="#e5e5e5" paint-order="fill stroke markers" d=" M 238 850 L 650 850" stroke-miterlimit="10"/><path fill="none" stroke="#e5e5e5" paint-order="fill stroke markers" d=" M 238 803 L 650 803" stroke-miterlimit="10"/><path fill="none" stroke="#e5e5e5" paint-order="fill stroke markers" d=" M 238 756 L 650 756" stroke-miterlimit="10"/><path fill="none" stroke="#e5e5e5" paint-order="fill stroke markers" d=" M 238 709 L 650 709" stroke-miterlimit="10"/><path fill="none" stroke="#e5e5e5" paint-order="fill stroke markers" d=" M 238 662 L 650 662" stroke-miterlimit="10"/><path fill="none" stroke="#e5e5e5" paint-order="fill stroke markers" d=" M 238 615 L 650 615" stroke-miterlimit="10"/><path fill="none" stroke="#e5e5e5" paint-order="fill stroke markers" d=" M 238 568 L 650 568" stroke-miterlimit="10"/><path fill="none" stroke="#e5e5e5" paint-order="fill stroke markers" d=" M 238 521 L 650 521" stroke-miterlimit="10"/><path fill="none" stroke="#e5e5e5" paint-order="fill stroke markers" d=" M 238 474 L 650 474" stroke-miterlimit="10"/><path fill="none" stroke="#e5e5e5" paint-order="fill stroke markers" d=" M 238 427 L 650 427" stroke-miterlimit="10"/><path fill="none" stroke="#e5e5e5" paint-order="fill stroke markers" d=" M 238 380 L 650 380" stroke-miterlimit="10"/><path fill="none" stroke="#e5e5e5" paint-order="fill stroke markers" d=" M 238 333 L 650 333" stroke-miterlimit="10"/><path fill="none" stroke="#e5e5e5" paint-order="fill stroke markers" d=" M 238 286 L 650 286" stroke-miterlimit="10"/><path fill="none" stroke="#e5e5e5" paint-order="fill stroke markers" d=" M 238 239 L 650 239" stroke-miterlimit="10"/><path fill="none" stroke="#e5e5e5" paint-order="fill stroke markers" d=" M 238 192 L 650 192" stroke-miterlimit="10"/><path fill="none" stroke="#e5e5e5" paint-order="fill stroke markers" d=" M 238 145 L 650 145" stroke-miterlimit="10"/><path fill="none" stroke="#e5e5e5" paint-order="fill stroke markers" d=" M 238 98 L 650 98" stroke-miterlimit="10"/><path fill="none" stroke="#e5e5e5" paint-order="fill stroke markers" d=" M 238 51 L 650 51" stroke-miterlimit="10"/></g><g><path fill="none" stroke="none"/><rect fill="#1f77b4" stroke="none" x="238" y="1113.9114583333333" width="338.4131078628069" height="35.21875"/><path fill="none" stroke="#1f77b4" paint-order="fill stroke markers" d=" M 238 1113.9114583333333 L 576.4131078628069 1113.9114583333333 L 576.4131078628069 1149.1302083333333 L 238 1149.1302083333333 L 238 1113.9114583333333 Z" stroke-miterlimit="10"/><rect fill="#1f77b4" stroke="none" x="238" y="1066.953125" width="285.4714817999427" height="35.21875"/><path fill="none" stroke="#1f77b4" paint-order="fill stroke markers" d=" M 238 1066.953125 L 523.4714817999427 1066.953125 L 523.4714817999427 1102.171875 L 238 1102.171875 L 238 1066.953125 Z" stroke-miterlimit="10"/><rect fill="#1f77b4" stroke="none" x="238" y="1019.9947916666667" width="225.8383490971625" height="35.21875"/><path fill="none" stroke="#1f77b4" paint-order="fill stroke markers" d=" M 238 1019.9947916666667 L 463.8383490971625 1019.9947916666667 L 463.8383490971625 1055.2135416666667 L 238 1055.2135416666667 L 238 1019.9947916666667 Z" stroke-miterlimit="10"/><rect fill="#1f77b4" stroke="none" x="238" y="973.0364583333333" width="204.18935702684627" height="35.21875"/><path fill="none" stroke="#1f77b4" paint-order="fill stroke markers" d=" M 238 973.0364583333333 L 442.18935702684627 973.0364583333333 L 442.18935702684627 1008.2552083333333 L 238 1008.2552083333333 L 238 973.0364583333333 Z" stroke-miterlimit="10"/><rect fill="#1f77b4" stroke="none" x="238" y="926.078125" width="202.6148848762778" height="35.21875"/><path fill="none" stroke="#1f77b4" paint-order="fill stroke markers" d=" M 238 926.078125 L 440.6148848762778 926.078125 L 440.6148848762778 961.296875 L 238 961.296875 L 238 926.078125 Z" stroke-miterlimit="10"/><rect fill="#1f77b4" stroke="none" x="238" y="879.1197916666666" width="199.66274959396196" height="35.21875"/><path fill="none" stroke="#1f77b4" paint-order="fill stroke markers" d=" M 238 879.1197916666666 L 437.66274959396196 879.1197916666666 L 437.66274959396196 914.3385416666666 L 238 914.3385416666666 L 238 879.1197916666666 Z" stroke-miterlimit="10"/><rect fill="#1f77b4" stroke="none" x="238" y="832.1614583333333" width="197.39944587751984" height="35.21875"/><path fill="none" stroke="#1f77b4" paint-order="fill stroke markers" d=" M 238 832.1614583333333 L 435.39944587751984 832.1614583333333 L 435.39944587751984 867.3802083333333 L 238 867.3802083333333 L 238 832.1614583333333 Z" stroke-miterlimit="10"/><rect fill="#1f77b4" stroke="none" x="238" y="785.203125" width="188.73984904939334" height="35.21875"/><path fill="none" stroke="#1f77b4" paint-order="fill stroke markers" d=" M 238 785.203125 L 426.73984904939334 785.203125 L 426.73984904939334 820.421875 L 238 820.421875 L 238 785.203125 Z" stroke-miterlimit="10"/><rect fill="#1f77b4" stroke="none" x="238" y="738.2447916666666" width="184.6068596541511" height="35.21875"/><path fill="none" stroke="#1f77b4" paint-order="fill stroke markers" d=" M 238 738.2447916666666 L 422.6068596541511 738.2447916666666 L 422.6068596541511 773.4635416666666 L 238 773.4635416666666 L 238 738.2447916666666 Z" stroke-miterlimit="10"/><rect fill="#1f77b4" stroke="none" x="238" y="691.2864583333333" width="179.48982516480362" height="35.21875"/><path fill="none" stroke="#1f77b4" paint-order="fill stroke markers" d=" M 238 691.2864583333333 L 417.4898251648036 691.2864583333333 L 417.4898251648036 726.5052083333333 L 238 726.5052083333333 L 238 691.2864583333333 Z" stroke-miterlimit="10"/><rect fill="#1f77b4" stroke="none" x="238" y="644.328125" width="171.81427343078246" height="35.21875"/><path fill="none" stroke="#1f77b4" paint-order="fill stroke markers" d=" M 238 644.328125 L 409.81427343078246 644.328125 L 409.81427343078246 679.546875 L 238 679.546875 L 238 644.328125 Z" stroke-miterlimit="10"/><rect fill="#1f77b4" stroke="none" x="238" y="597.3697916666666" width="138.75035826884493" height="35.21875"/><path fill="none" stroke="#1f77b4" paint-order="fill stroke markers" d=" M 238 597.3697916666666 L 376.75035826884493 597.3697916666666 L 376.75035826884493 632.5885416666666 L 238 632.5885416666666 L 238 597.3697916666666 Z" stroke-miterlimit="10"/><rect fill="#1f77b4" stroke="none" x="238" y="550.4114583333333" width="125.66255851724463" height="35.21875"/><path fill="none" stroke="#1f77b4" paint-order="fill stroke markers" d=" M 238 550.4114583333333 L 363.66255851724463 550.4114583333333 L 363.66255851724463 585.6302083333333 L 238 585.6302083333333 L 238 550.4114583333333 Z" stroke-miterlimit="10"/><rect fill="#1f77b4" stroke="none" x="238" y="503.453125" width="117.1013661985287" height="35.21875"/><path fill="none" stroke="#1f77b4" paint-order="fill stroke markers" d=" M 238 503.453125 L 355.1013661985287 503.453125 L 355.1013661985287 538.671875 L 238 538.671875 L 238 503.453125 Z" stroke-miterlimit="10"/><rect fill="#1f77b4" stroke="none" x="238" y="456.49479166666663" width="111.68911818094966" height="35.21875"/><path fill="none" stroke="#1f77b4" paint-order="fill stroke markers" d=" M 238 456.49479166666663 L 349.68911818094966 456.49479166666663 L 349.68911818094966 491.71354166666663 L 238 491.71354166666663 L 238 456.49479166666663 Z" stroke-miterlimit="10"/><rect fill="#1f77b4" stroke="none" x="238" y="409.53645833333326" width="85.61192318715962" height="35.21875"/><path fill="none" stroke="#1f77b4" paint-order="fill stroke markers" d=" M 238 409.53645833333326 L 323.6119231871596 409.53645833333326 L 323.6119231871596 444.75520833333326 L 238 444.75520833333326 L 238 409.53645833333326 Z" stroke-miterlimit="10"/><rect fill="#1f77b4" stroke="none" x="238" y="362.578125" width="75.77147224610678" height="35.21875"/><path fill="none" stroke="#1f77b4" paint-order="fill stroke markers" d=" M 238 362.578125 L 313.7714722461068 362.578125 L 313.7714722461068 397.796875 L 238 397.796875 L 238 362.578125 Z" stroke-miterlimit="10"/><rect fill="#1f77b4" stroke="none" x="238" y="315.61979166666663" width="63.66771758861182" height="35.21875"/><path fill="none" stroke="#1f77b4" paint-order="fill stroke markers" d=" M 238 315.61979166666663 L 301.6677175886118 315.61979166666663 L 301.6677175886118 350.83854166666663 L 238 350.83854166666663 L 238 315.61979166666663 Z" stroke-miterlimit="10"/><rect fill="#1f77b4" stroke="none" x="238" y="268.66145833333326" width="57.468233495748564" height="35.21875"/><path fill="none" stroke="#1f77b4" paint-order="fill stroke markers" d=" M 238 268.66145833333326 L 295.46823349574856 268.66145833333326 L 295.46823349574856 303.88020833333326 L 238 303.88020833333326 L 238 268.66145833333326 Z" stroke-miterlimit="10"/><rect fill="#1f77b4" stroke="none" x="238" y="221.703125" width="55.598547816948496" height="35.21875"/><path fill="none" stroke="#1f77b4" paint-order="fill stroke markers" d=" M 238 221.703125 L 293.5985478169485 221.703125 L 293.5985478169485 256.921875 L 238 256.921875 L 238 221.703125 Z" stroke-miterlimit="10"/><rect fill="#1f77b4" stroke="none" x="238" y="174.74479166666663" width="42.60915257475875" height="35.21875"/><path fill="none" stroke="#1f77b4" paint-order="fill stroke markers" d=" M 238 174.74479166666663 L 280.60915257475875 174.74479166666663 L 280.60915257475875 209.96354166666663 L 238 209.96354166666663 L 238 174.74479166666663 Z" stroke-miterlimit="10"/><rect fill="#1f77b4" stroke="none" x="238" y="127.78645833333326" width="42.51074806534825" height="35.21875"/><path fill="none" stroke="#1f77b4" paint-order="fill stroke markers" d=" M 238 127.78645833333326 L 280.51074806534825 127.78645833333326 L 280.51074806534825 163.00520833333326 L 238 163.00520833333326 L 238 127.78645833333326 Z" stroke-miterlimit="10"/><rect fill="#1f77b4" stroke="none" x="238" y="80.828125" width="36.70488201012705" height="35.21875"/><path fill="none" stroke="#1f77b4" paint-order="fill stroke markers" d=" M 238 80.828125 L 274.70488201012705 80.828125 L 274.70488201012705 116.046875 L 238 116.046875 L 238 80.828125 Z" stroke-miterlimit="10"/><rect fill="#1f77b4" stroke="none" x="238" y="33.869791666666515" width="2.460112735263209" height="35.21875"/><path fill="none" stroke="#1f77b4" paint-order="fill stroke markers" d=" M 238 33.869791666666515 L 240.4601127352632 33.869791666666515 L 240.4601127352632 69.08854166666652 L 238 69.08854166666652 L 238 33.869791666666515 Z" stroke-miterlimit="10"/></g><g fill="#444444"><path fill="" stroke="none" d=""/><g transform="translate(586.4131078628069,1129.5208333333333) rotate(0,0,0)"><path fill="none" stroke="none"/><text fill="" stroke="none" font-family="helvetica" font-size="8pt" font-style="normal" font-weight="normal" text-decoration="normal" x="0" y="0" text-anchor="start" dominant-baseline="text-after-edge">74.15%</text></g></g><g fill="#444444"><path fill="" stroke="none" d=""/><g transform="translate(533.4714817999427,1082.5625) rotate(0,0,0)"><path fill="none" stroke="none"/><text fill="" stroke="none" font-family="helvetica" font-size="8pt" font-style="normal" font-weight="normal" text-decoration="normal" x="0" y="0" text-anchor="start" dominant-baseline="text-after-edge">62.55%</text></g></g><g fill="#444444"><path fill="" stroke="none" d=""/><g transform="translate(473.8383490971625,1035.6041666666667) rotate(0,0,0)"><path fill="none" stroke="none"/><text fill="" stroke="none" font-family="helvetica" font-size="8pt" font-style="normal" font-weight="normal" text-decoration="normal" x="0" y="0" text-anchor="start" dominant-baseline="text-after-edge">49.48%</text></g></g><g fill="#444444"><path fill="" stroke="none" d=""/><g transform="translate(452.18935702684627,988.6458333333333) rotate(0,0,0)"><path fill="none" stroke="none"/><text fill="" stroke="none" font-family="helvetica" font-size="8pt" font-style="normal" font-weight="normal" text-decoration="normal" x="0" y="0" text-anchor="start" dominant-baseline="text-after-edge">44.74%</text></g></g><g fill="#444444"><path fill="" stroke="none" d=""/><g transform="translate(450.6148848762778,941.6875) rotate(0,0,0)"><path fill="none" stroke="none"/><text fill="" stroke="none" font-family="helvetica" font-size="8pt" font-style="normal" font-weight="normal" text-decoration="normal" x="0" y="0" text-anchor="start" dominant-baseline="text-after-edge">44.39%</text></g></g><g fill="#444444"><path fill="" stroke="none" d=""/><g transform="translate(447.66274959396196,894.7291666666666) rotate(0,0,0)"><path fill="none" stroke="none"/><text fill="" stroke="none" font-family="helvetica" font-size="8pt" font-style="normal" font-weight="normal" text-decoration="normal" x="0" y="0" text-anchor="start" dominant-baseline="text-after-edge">43.75%</text></g></g><g fill="#444444"><path fill="" stroke="none" d=""/><g transform="translate(445.39944587751984,847.7708333333333) rotate(0,0,0)"><path fill="none" stroke="none"/><text fill="" stroke="none" font-family="helvetica" font-size="8pt" font-style="normal" font-weight="normal" text-decoration="normal" x="0" y="0" text-anchor="start" dominant-baseline="text-after-edge">43.25%</text></g></g><g fill="#444444"><path fill="" stroke="none" d=""/><g transform="translate(436.73984904939334,800.8125) rotate(0,0,0)"><path fill="none" stroke="none"/><text fill="" stroke="none" font-family="helvetica" font-size="8pt" font-style="normal" font-weight="normal" text-decoration="normal" x="0" y="0" text-anchor="start" dominant-baseline="text-after-edge">41.35%</text></g></g><g fill="#444444"><path fill="" stroke="none" d=""/><g transform="translate(432.6068596541511,753.8541666666666) rotate(0,0,0)"><path fill="none" stroke="none"/><text fill="" stroke="none" font-family="helvetica" font-size="8pt" font-style="normal" font-weight="normal" text-decoration="normal" x="0" y="0" text-anchor="start" dominant-baseline="text-after-edge">40.45%</text></g></g><g fill="#444444"><path fill="" stroke="none" d=""/><g transform="translate(427.4898251648036,706.8958333333333) rotate(0,0,0)"><path fill="none" stroke="none"/><text fill="" stroke="none" font-family="helvetica" font-size="8pt" font-style="normal" font-weight="normal" text-decoration="normal" x="0" y="0" text-anchor="start" dominant-baseline="text-after-edge">39.33%</text></g></g><g fill="#444444"><path fill="" stroke="none" d=""/><g transform="translate(419.81427343078246,659.9375) rotate(0,0,0)"><path fill="none" stroke="none"/><text fill="" stroke="none" font-family="helvetica" font-size="8pt" font-style="normal" font-weight="normal" text-decoration="normal" x="0" y="0" text-anchor="start" dominant-baseline="text-after-edge">37.65%</text></g></g><g fill="#444444"><path fill="" stroke="none" d=""/><g transform="translate(386.75035826884493,612.9791666666666) rotate(0,0,0)"><path fill="none" stroke="none"/><text fill="" stroke="none" font-family="helvetica" font-size="8pt" font-style="normal" font-weight="normal" text-decoration="normal" x="0" y="0" text-anchor="start" dominant-baseline="text-after-edge">30.40%</text></g></g><g fill="#444444"><path fill="" stroke="none" d=""/><g transform="translate(373.66255851724463,566.0208333333333) rotate(0,0,0)"><path fill="none" stroke="none"/><text fill="" stroke="none" font-family="helvetica" font-size="8pt" font-style="normal" font-weight="normal" text-decoration="normal" x="0" y="0" text-anchor="start" dominant-baseline="text-after-edge">27.53%</text></g></g><g fill="#444444"><path fill="" stroke="none" d=""/><g transform="translate(365.1013661985287,519.0625) rotate(0,0,0)"><path fill="none" stroke="none"/><text fill="" stroke="none" font-family="helvetica" font-size="8pt" font-style="normal" font-weight="normal" text-decoration="normal" x="0" y="0" text-anchor="start" dominant-baseline="text-after-edge">25.66%</text></g></g><g fill="#444444"><path fill="" stroke="none" d=""/><g transform="translate(359.68911818094966,472.10416666666663) rotate(0,0,0)"><path fill="none" stroke="none"/><text fill="" stroke="none" font-family="helvetica" font-size="8pt" font-style="normal" font-weight="normal" text-decoration="normal" x="0" y="0" text-anchor="start" dominant-baseline="text-after-edge">24.47%</text></g></g><g fill="#444444"><path fill="" stroke="none" d=""/><g transform="translate(333.6119231871596,425.14583333333326) rotate(0,0,0)"><path fill="none" stroke="none"/><text fill="" stroke="none" font-family="helvetica" font-size="8pt" font-style="normal" font-weight="normal" text-decoration="normal" x="0" y="0" text-anchor="start" dominant-baseline="text-after-edge">18.76%</text></g></g><g fill="#444444"><path fill="" stroke="none" d=""/><g transform="translate(323.7714722461068,378.1875) rotate(0,0,0)"><path fill="none" stroke="none"/><text fill="" stroke="none" font-family="helvetica" font-size="8pt" font-style="normal" font-weight="normal" text-decoration="normal" x="0" y="0" text-anchor="start" dominant-baseline="text-after-edge">16.60%</text></g></g><g fill="#444444"><path fill="" stroke="none" d=""/><g transform="translate(311.6677175886118,331.22916666666663) rotate(0,0,0)"><path fill="none" stroke="none"/><text fill="" stroke="none" font-family="helvetica" font-size="8pt" font-style="normal" font-weight="normal" text-decoration="normal" x="0" y="0" text-anchor="start" dominant-baseline="text-after-edge">13.95%</text></g></g><g fill="#444444"><path fill="" stroke="none" d=""/><g transform="translate(305.46823349574856,284.27083333333326) rotate(0,0,0)"><path fill="none" stroke="none"/><text fill="" stroke="none" font-family="helvetica" font-size="8pt" font-style="normal" font-weight="normal" text-decoration="normal" x="0" y="0" text-anchor="start" dominant-baseline="text-after-edge">12.59%</text></g></g><g fill="#444444"><path fill="" stroke="none" d=""/><g transform="translate(303.5985478169485,237.3125) rotate(0,0,0)"><path fill="none" stroke="none"/><text fill="" stroke="none" font-family="helvetica" font-size="8pt" font-style="normal" font-weight="normal" text-decoration="normal" x="0" y="0" text-anchor="start" dominant-baseline="text-after-edge">12.18%</text></g></g><g fill="#444444"><path fill="" stroke="none" d=""/><g transform="translate(290.60915257475875,190.35416666666663) rotate(0,0,0)"><path fill="none" stroke="none"/><text fill="" stroke="none" font-family="helvetica" font-size="8pt" font-style="normal" font-weight="normal" text-decoration="normal" x="0" y="0" text-anchor="start" dominant-baseline="text-after-edge">9.34%</text></g></g><g fill="#444444"><path fill="" stroke="none" d=""/><g transform="translate(290.51074806534825,143.39583333333326) rotate(0,0,0)"><path fill="none" stroke="none"/><text fill="" stroke="none" font-family="helvetica" font-size="8pt" font-style="normal" font-weight="normal" text-decoration="normal" x="0" y="0" text-anchor="start" dominant-baseline="text-after-edge">9.31%</text></g></g><g fill="#444444"><path fill="" stroke="none" d=""/><g transform="translate(284.70488201012705,96.4375) rotate(0,0,0)"><path fill="none" stroke="none"/><text fill="" stroke="none" font-family="helvetica" font-size="8pt" font-style="normal" font-weight="normal" text-decoration="normal" x="0" y="0" text-anchor="start" dominant-baseline="text-after-edge">8.04%</text></g></g><g fill="#444444"><path fill="" stroke="none" d=""/><g transform="translate(250.4601127352632,49.479166666666515) rotate(0,0,0)"><path fill="none" stroke="none"/><text fill="" stroke="none" font-family="helvetica" font-size="8pt" font-style="normal" font-weight="normal" text-decoration="normal" x="0" y="0" text-anchor="start" dominant-baseline="text-after-edge">0.54%</text></g></g><g fill="#444444"><path fill="" stroke="none" d=""/><g transform="translate(586.4131078628069,1143.5208333333333) rotate(0,0,0)"><path fill="none" stroke="none"/><text fill="" stroke="none" font-family="helvetica" font-size="8pt" font-style="normal" font-weight="normal" text-decoration="normal" x="0" y="0" text-anchor="start" dominant-baseline="text-after-edge">3439</text></g></g><g fill="#444444"><path fill="" stroke="none" d=""/><g transform="translate(533.4714817999427,1096.5625) rotate(0,0,0)"><path fill="none" stroke="none"/><text fill="" stroke="none" font-family="helvetica" font-size="8pt" font-style="normal" font-weight="normal" text-decoration="normal" x="0" y="0" text-anchor="start" dominant-baseline="text-after-edge">2901</text></g></g><g fill="#444444"><path fill="" stroke="none" d=""/><g transform="translate(473.8383490971625,1049.6041666666667) rotate(0,0,0)"><path fill="none" stroke="none"/><text fill="" stroke="none" font-family="helvetica" font-size="8pt" font-style="normal" font-weight="normal" text-decoration="normal" x="0" y="0" text-anchor="start" dominant-baseline="text-after-edge">2295</text></g></g><g fill="#444444"><path fill="" stroke="none" d=""/><g transform="translate(452.18935702684627,1002.6458333333333) rotate(0,0,0)"><path fill="none" stroke="none"/><text fill="" stroke="none" font-family="helvetica" font-size="8pt" font-style="normal" font-weight="normal" text-decoration="normal" x="0" y="0" text-anchor="start" dominant-baseline="text-after-edge">2075</text></g></g><g fill="#444444"><path fill="" stroke="none" d=""/><g transform="translate(450.6148848762778,955.6875) rotate(0,0,0)"><path fill="none" stroke="none"/><text fill="" stroke="none" font-family="helvetica" font-size="8pt" font-style="normal" font-weight="normal" text-decoration="normal" x="0" y="0" text-anchor="start" dominant-baseline="text-after-edge">2059</text></g></g><g fill="#444444"><path fill="" stroke="none" d=""/><g transform="translate(447.66274959396196,908.7291666666666) rotate(0,0,0)"><path fill="none" stroke="none"/><text fill="" stroke="none" font-family="helvetica" font-size="8pt" font-style="normal" font-weight="normal" text-decoration="normal" x="0" y="0" text-anchor="start" dominant-baseline="text-after-edge">2029</text></g></g><g fill="#444444"><path fill="" stroke="none" d=""/><g transform="translate(445.39944587751984,861.7708333333333) rotate(0,0,0)"><path fill="none" stroke="none"/><text fill="" stroke="none" font-family="helvetica" font-size="8pt" font-style="normal" font-weight="normal" text-decoration="normal" x="0" y="0" text-anchor="start" dominant-baseline="text-after-edge">2006</text></g></g><g fill="#444444"><path fill="" stroke="none" d=""/><g transform="translate(436.73984904939334,814.8125) rotate(0,0,0)"><path fill="none" stroke="none"/><text fill="" stroke="none" font-family="helvetica" font-size="8pt" font-style="normal" font-weight="normal" text-decoration="normal" x="0" y="0" text-anchor="start" dominant-baseline="text-after-edge">1918</text></g></g><g fill="#444444"><path fill="" stroke="none" d=""/><g transform="translate(432.6068596541511,767.8541666666666) rotate(0,0,0)"><path fill="none" stroke="none"/><text fill="" stroke="none" font-family="helvetica" font-size="8pt" font-style="normal" font-weight="normal" text-decoration="normal" x="0" y="0" text-anchor="start" dominant-baseline="text-after-edge">1876</text></g></g><g fill="#444444"><path fill="" stroke="none" d=""/><g transform="translate(427.4898251648036,720.8958333333333) rotate(0,0,0)"><path fill="none" stroke="none"/><text fill="" stroke="none" font-family="helvetica" font-size="8pt" font-style="normal" font-weight="normal" text-decoration="normal" x="0" y="0" text-anchor="start" dominant-baseline="text-after-edge">1824</text></g></g><g fill="#444444"><path fill="" stroke="none" d=""/><g transform="translate(419.81427343078246,673.9375) rotate(0,0,0)"><path fill="none" stroke="none"/><text fill="" stroke="none" font-family="helvetica" font-size="8pt" font-style="normal" font-weight="normal" text-decoration="normal" x="0" y="0" text-anchor="start" dominant-baseline="text-after-edge">1746</text></g></g><g fill="#444444"><path fill="" stroke="none" d=""/><g transform="translate(386.75035826884493,626.9791666666666) rotate(0,0,0)"><path fill="none" stroke="none"/><text fill="" stroke="none" font-family="helvetica" font-size="8pt" font-style="normal" font-weight="normal" text-decoration="normal" x="0" y="0" text-anchor="start" dominant-baseline="text-after-edge">1410</text></g></g><g fill="#444444"><path fill="" stroke="none" d=""/><g transform="translate(373.66255851724463,580.0208333333333) rotate(0,0,0)"><path fill="none" stroke="none"/><text fill="" stroke="none" font-family="helvetica" font-size="8pt" font-style="normal" font-weight="normal" text-decoration="normal" x="0" y="0" text-anchor="start" dominant-baseline="text-after-edge">1277</text></g></g><g fill="#444444"><path fill="" stroke="none" d=""/><g transform="translate(365.1013661985287,533.0625) rotate(0,0,0)"><path fill="none" stroke="none"/><text fill="" stroke="none" font-family="helvetica" font-size="8pt" font-style="normal" font-weight="normal" text-decoration="normal" x="0" y="0" text-anchor="start" dominant-baseline="text-after-edge">1190</text></g></g><g fill="#444444"><path fill="" stroke="none" d=""/><g transform="translate(359.68911818094966,486.10416666666663) rotate(0,0,0)"><path fill="none" stroke="none"/><text fill="" stroke="none" font-family="helvetica" font-size="8pt" font-style="normal" font-weight="normal" text-decoration="normal" x="0" y="0" text-anchor="start" dominant-baseline="text-after-edge">1135</text></g></g><g fill="#444444"><path fill="" stroke="none" d=""/><g transform="translate(333.6119231871596,439.14583333333326) rotate(0,0,0)"><path fill="none" stroke="none"/><text fill="" stroke="none" font-family="helvetica" font-size="8pt" font-style="normal" font-weight="normal" text-decoration="normal" x="0" y="0" text-anchor="start" dominant-baseline="text-after-edge">870</text></g></g><g fill="#444444"><path fill="" stroke="none" d=""/><g transform="translate(323.7714722461068,392.1875) rotate(0,0,0)"><path fill="none" stroke="none"/><text fill="" stroke="none" font-family="helvetica" font-size="8pt" font-style="normal" font-weight="normal" text-decoration="normal" x="0" y="0" text-anchor="start" dominant-baseline="text-after-edge">770</text></g></g><g fill="#444444"><path fill="" stroke="none" d=""/><g transform="translate(311.6677175886118,345.22916666666663) rotate(0,0,0)"><path fill="none" stroke="none"/><text fill="" stroke="none" font-family="helvetica" font-size="8pt" font-style="normal" font-weight="normal" text-decoration="normal" x="0" y="0" text-anchor="start" dominant-baseline="text-after-edge">647</text></g></g><g fill="#444444"><path fill="" stroke="none" d=""/><g transform="translate(305.46823349574856,298.27083333333326) rotate(0,0,0)"><path fill="none" stroke="none"/><text fill="" stroke="none" font-family="helvetica" font-size="8pt" font-style="normal" font-weight="normal" text-decoration="normal" x="0" y="0" text-anchor="start" dominant-baseline="text-after-edge">584</text></g></g><g fill="#444444"><path fill="" stroke="none" d=""/><g transform="translate(303.5985478169485,251.3125) rotate(0,0,0)"><path fill="none" stroke="none"/><text fill="" stroke="none" font-family="helvetica" font-size="8pt" font-style="normal" font-weight="normal" text-decoration="normal" x="0" y="0" text-anchor="start" dominant-baseline="text-after-edge">565</text></g></g><g fill="#444444"><path fill="" stroke="none" d=""/><g transform="translate(290.60915257475875,204.35416666666663) rotate(0,0,0)"><path fill="none" stroke="none"/><text fill="" stroke="none" font-family="helvetica" font-size="8pt" font-style="normal" font-weight="normal" text-decoration="normal" x="0" y="0" text-anchor="start" dominant-baseline="text-after-edge">433</text></g></g><g fill="#444444"><path fill="" stroke="none" d=""/><g transform="translate(290.51074806534825,157.39583333333326) rotate(0,0,0)"><path fill="none" stroke="none"/><text fill="" stroke="none" font-family="helvetica" font-size="8pt" font-style="normal" font-weight="normal" text-decoration="normal" x="0" y="0" text-anchor="start" dominant-baseline="text-after-edge">432</text></g></g><g fill="#444444"><path fill="" stroke="none" d=""/><g transform="translate(284.70488201012705,110.4375) rotate(0,0,0)"><path fill="none" stroke="none"/><text fill="" stroke="none" font-family="helvetica" font-size="8pt" font-style="normal" font-weight="normal" text-decoration="normal" x="0" y="0" text-anchor="start" dominant-baseline="text-after-edge">373</text></g></g><g fill="#444444"><path fill="" stroke="none" d=""/><g transform="translate(250.4601127352632,63.479166666666515) rotate(0,0,0)"><path fill="none" stroke="none"/><text fill="" stroke="none" font-family="helvetica" font-size="8pt" font-style="normal" font-weight="normal" text-decoration="normal" x="0" y="0" text-anchor="start" dominant-baseline="text-after-edge">25</text></g></g></g><g/><g><g fill="#444444"><path fill="none" stroke="black" paint-order="fill stroke markers" d=" M 238 1155 L 650 1155" stroke-miterlimit="10"/><path fill="none" stroke="black" paint-order="fill stroke markers" d=" M 238 1161 L 238 1153" stroke-miterlimit="10"/><path fill="none" stroke="black" paint-order="fill stroke markers" d=" M 336 1161 L 336 1153" stroke-miterlimit="10"/><path fill="none" stroke="black" paint-order="fill stroke markers" d=" M 435 1161 L 435 1153" stroke-miterlimit="10"/><path fill="none" stroke="black" paint-order="fill stroke markers" d=" M 533 1161 L 533 1153" stroke-miterlimit="10"/><path fill="none" stroke="black" paint-order="fill stroke markers" d=" M 632 1161 L 632 1153" stroke-miterlimit="10"/><path fill="none" stroke="black" paint-order="fill stroke markers" d=" M 238 1159 L 238 1155" stroke-miterlimit="10"/><path fill="none" stroke="black" paint-order="fill stroke markers" d=" M 258 1159 L 258 1155" stroke-miterlimit="10"/><path fill="none" stroke="black" paint-order="fill stroke markers" d=" M 277 1159 L 277 1155" stroke-miterlimit="10"/><path fill="none" stroke="black" paint-order="fill stroke markers" d=" M 297 1159 L 297 1155" stroke-miterlimit="10"/><path fill="none" stroke="black" paint-order="fill stroke markers" d=" M 317 1159 L 317 1155" stroke-miterlimit="10"/><path fill="none" stroke="black" paint-order="fill stroke markers" d=" M 336 1159 L 336 1155" stroke-miterlimit="10"/><path fill="none" stroke="black" paint-order="fill stroke markers" d=" M 356 1159 L 356 1155" stroke-miterlimit="10"/><path fill="none" stroke="black" paint-order="fill stroke markers" d=" M 376 1159 L 376 1155" stroke-miterlimit="10"/><path fill="none" stroke="black" paint-order="fill stroke markers" d=" M 395 1159 L 395 1155" stroke-miterlimit="10"/><path fill="none" stroke="black" paint-order="fill stroke markers" d=" M 415 1159 L 415 1155" stroke-miterlimit="10"/><path fill="none" stroke="black" paint-order="fill stroke markers" d=" M 435 1159 L 435 1155" stroke-miterlimit="10"/><path fill="none" stroke="black" paint-order="fill stroke markers" d=" M 454 1159 L 454 1155" stroke-miterlimit="10"/><path fill="none" stroke="black" paint-order="fill stroke markers" d=" M 474 1159 L 474 1155" stroke-miterlimit="10"/><path fill="none" stroke="black" paint-order="fill stroke markers" d=" M 494 1159 L 494 1155" stroke-miterlimit="10"/><path fill="none" stroke="black" paint-order="fill stroke markers" d=" M 514 1159 L 514 1155" stroke-miterlimit="10"/><path fill="none" stroke="black" paint-order="fill stroke markers" d=" M 533 1159 L 533 1155" stroke-miterlimit="10"/><path fill="none" stroke="black" paint-order="fill stroke markers" d=" M 553 1159 L 553 1155" stroke-miterlimit="10"/><path fill="none" stroke="black" paint-order="fill stroke markers" d=" M 573 1159 L 573 1155" stroke-miterlimit="10"/><path fill="none" stroke="black" paint-order="fill stroke markers" d=" M 592 1159 L 592 1155" stroke-miterlimit="10"/><path fill="none" stroke="black" paint-order="fill stroke markers" d=" M 612 1159 L 612 1155" stroke-miterlimit="10"/><path fill="" stroke="black" paint-order="fill stroke markers" d=" M 632 1159 L 632 1155" stroke-miterlimit="10"/><g transform="translate(238,1166) rotate(0,0,0)"><text fill="" stroke="none" font-family="helvetica" font-size="8pt" font-style="normal" font-weight="normal" text-decoration="normal" x="0" y="0" text-anchor="middle" dominant-baseline="hanging">0</text><g transform="rotate(0,0,0) translate(-238,-1166) translate(336,1166) rotate(0,0,0)"><text fill="" stroke="none" font-family="helvetica" font-size="8pt" font-style="normal" font-weight="normal" text-decoration="normal" x="0" y="0" text-anchor="middle" dominant-baseline="hanging">1000</text><g transform="rotate(0,0,0) translate(-336,-1166) translate(435,1166) rotate(0,0,0)"><text fill="" stroke="none" font-family="helvetica" font-size="8pt" font-style="normal" font-weight="normal" text-decoration="normal" x="0" y="0" text-anchor="middle" dominant-baseline="hanging">2000</text><g transform="rotate(0,0,0) translate(-435,-1166) translate(533,1166) rotate(0,0,0)"><text fill="" stroke="none" font-family="helvetica" font-size="8pt" font-style="normal" font-weight="normal" text-decoration="normal" x="0" y="0" text-anchor="middle" dominant-baseline="hanging">3000</text><g transform="rotate(0,0,0) translate(-533,-1166) translate(632,1166) rotate(0,0,0)"><text fill="" stroke="none" font-family="helvetica" font-size="8pt" font-style="normal" font-weight="normal" text-decoration="normal" x="0" y="0" text-anchor="middle" dominant-baseline="hanging">4000</text><g transform="rotate(0,0,0) translate(-632,-1166) translate(444,1184) rotate(0,0,0)"><text fill="" stroke="none" font-family="helvetica" font-size="10pt" font-style="italic" font-weight="normal" text-decoration="normal" x="0" y="0" text-anchor="middle" dominant-baseline="hanging">Respondents</text><g transform="rotate(0,0,0) translate(-444,-1184)"/></g></g></g></g></g></g></g><g fill="#444444"><path fill="none" stroke="black" paint-order="fill stroke markers" d=" M 238 1155 L 238 28" stroke-miterlimit="10"/><path fill="none" stroke="black" paint-order="fill stroke markers" d=" M 232 1132 L 240 1132" stroke-miterlimit="10"/><path fill="none" stroke="black" paint-order="fill stroke markers" d=" M 232 1085 L 240 1085" stroke-miterlimit="10"/><path fill="none" stroke="black" paint-order="fill stroke markers" d=" M 232 1038 L 240 1038" stroke-miterlimit="10"/><path fill="none" stroke="black" paint-order="fill stroke markers" d=" M 232 991 L 240 991" stroke-miterlimit="10"/><path fill="none" stroke="black" paint-order="fill stroke markers" d=" M 232 944 L 240 944" stroke-miterlimit="10"/><path fill="none" stroke="black" paint-order="fill stroke markers" d=" M 232 897 L 240 897" stroke-miterlimit="10"/><path fill="none" stroke="black" paint-order="fill stroke markers" d=" M 232 850 L 240 850" stroke-miterlimit="10"/><path fill="none" stroke="black" paint-order="fill stroke markers" d=" M 232 803 L 240 803" stroke-miterlimit="10"/><path fill="none" stroke="black" paint-order="fill stroke markers" d=" M 232 756 L 240 756" stroke-miterlimit="10"/><path fill="none" stroke="black" paint-order="fill stroke markers" d=" M 232 709 L 240 709" stroke-miterlimit="10"/><path fill="none" stroke="black" paint-order="fill stroke markers" d=" M 232 662 L 240 662" stroke-miterlimit="10"/><path fill="none" stroke="black" paint-order="fill stroke markers" d=" M 232 615 L 240 615" stroke-miterlimit="10"/><path fill="none" stroke="black" paint-order="fill stroke markers" d=" M 232 568 L 240 568" stroke-miterlimit="10"/><path fill="none" stroke="black" paint-order="fill stroke markers" d=" M 232 521 L 240 521" stroke-miterlimit="10"/><path fill="none" stroke="black" paint-order="fill stroke markers" d=" M 232 474 L 240 474" stroke-miterlimit="10"/><path fill="none" stroke="black" paint-order="fill stroke markers" d=" M 232 427 L 240 427" stroke-miterlimit="10"/><path fill="none" stroke="black" paint-order="fill stroke markers" d=" M 232 380 L 240 380" stroke-miterlimit="10"/><path fill="none" stroke="black" paint-order="fill stroke markers" d=" M 232 333 L 240 333" stroke-miterlimit="10"/><path fill="none" stroke="black" paint-order="fill stroke markers" d=" M 232 286 L 240 286" stroke-miterlimit="10"/><path fill="none" stroke="black" paint-order="fill stroke markers" d=" M 232 239 L 240 239" stroke-miterlimit="10"/><path fill="none" stroke="black" paint-order="fill stroke markers" d=" M 232 192 L 240 192" stroke-miterlimit="10"/><path fill="none" stroke="black" paint-order="fill stroke markers" d=" M 232 145 L 240 145" stroke-miterlimit="10"/><path fill="none" stroke="black" paint-order="fill stroke markers" d=" M 232 98 L 240 98" stroke-miterlimit="10"/><path fill="" stroke="black" paint-order="fill stroke markers" d=" M 232 51 L 240 51" stroke-miterlimit="10"/><g transform="translate(227,1132) rotate(0,0,0)"><text fill="" stroke="none" font-family="helvetica" font-size="8pt" font-style="normal" font-weight="normal" text-decoration="normal" x="0" y="0" text-anchor="end" dominant-baseline="central">Adaptability to tech and social change</text><g transform="rotate(0,0,0) translate(-227,-1132) translate(227,1085) rotate(0,0,0)"><text fill="" stroke="none" font-family="helvetica" font-size="8pt" font-style="normal" font-weight="normal" text-decoration="normal" x="0" y="0" text-anchor="end" dominant-baseline="central">Communication skills</text><g transform="rotate(0,0,0) translate(-227,-1085) translate(227,1038) rotate(0,0,0)"><text fill="" stroke="none" font-family="helvetica" font-size="8pt" font-style="normal" font-weight="normal" text-decoration="normal" x="0" y="0" text-anchor="end" dominant-baseline="central">Empathy</text><g transform="rotate(0,0,0) translate(-227,-1038) translate(227,991) rotate(0,0,0)"><text fill="" stroke="none" font-family="helvetica" font-size="8pt" font-style="normal" font-weight="normal" text-decoration="normal" x="0" y="0" text-anchor="end" dominant-baseline="central">Asking good questions</text><g transform="rotate(0,0,0) translate(-227,-991) translate(227,944) rotate(0,0,0)"><text fill="" stroke="none" font-family="helvetica" font-size="8pt" font-style="normal" font-weight="normal" text-decoration="normal" x="0" y="0" text-anchor="end" dominant-baseline="central">Cross-functional skills</text><g transform="rotate(0,0,0) translate(-227,-944) translate(227,897) rotate(0,0,0)"><text fill="" stroke="none" font-family="helvetica" font-size="8pt" font-style="normal" font-weight="normal" text-decoration="normal" x="0" y="0" text-anchor="end" dominant-baseline="central">Storytelling</text><g transform="rotate(0,0,0) translate(-227,-897) translate(227,850) rotate(0,0,0)"><text fill="" stroke="none" font-family="helvetica" font-size="8pt" font-style="normal" font-weight="normal" text-decoration="normal" x="0" y="0" text-anchor="end" dominant-baseline="central">Cross-cultural skills</text><g transform="rotate(0,0,0) translate(-227,-850) translate(227,803) rotate(0,0,0)"><text fill="" stroke="none" font-family="helvetica" font-size="8pt" font-style="normal" font-weight="normal" text-decoration="normal" x="0" y="0" text-anchor="end" dominant-baseline="central">Observation and listening</text><g transform="rotate(0,0,0) translate(-227,-803) translate(227,756) rotate(0,0,0)"><text fill="" stroke="none" font-family="helvetica" font-size="8pt" font-style="normal" font-weight="normal" text-decoration="normal" x="0" y="0" text-anchor="end" dominant-baseline="central">Interpersonal skills</text><g transform="rotate(0,0,0) translate(-227,-756) translate(227,709) rotate(0,0,0)"><text fill="" stroke="none" font-family="helvetica" font-size="8pt" font-style="normal" font-weight="normal" text-decoration="normal" x="0" y="0" text-anchor="end" dominant-baseline="central">Managing complexity</text><g transform="rotate(0,0,0) translate(-227,-709) translate(227,662) rotate(0,0,0)"><text fill="" stroke="none" font-family="helvetica" font-size="8pt" font-style="normal" font-weight="normal" text-decoration="normal" x="0" y="0" text-anchor="end" dominant-baseline="central">Psychology and human behavior</text><g transform="rotate(0,0,0) translate(-227,-662) translate(227,615) rotate(0,0,0)"><text fill="" stroke="none" font-family="helvetica" font-size="8pt" font-style="normal" font-weight="normal" text-decoration="normal" x="0" y="0" text-anchor="end" dominant-baseline="central">Leadership</text><g transform="rotate(0,0,0) translate(-227,-615) translate(227,568) rotate(0,0,0)"><text fill="" stroke="none" font-family="helvetica" font-size="8pt" font-style="normal" font-weight="normal" text-decoration="normal" x="0" y="0" text-anchor="end" dominant-baseline="central">Systems thinking</text><g transform="rotate(0,0,0) translate(-227,-568) translate(227,521) rotate(0,0,0)"><text fill="" stroke="none" font-family="helvetica" font-size="8pt" font-style="normal" font-weight="normal" text-decoration="normal" x="0" y="0" text-anchor="end" dominant-baseline="central">Improvisation</text><g transform="rotate(0,0,0) translate(-227,-521) translate(227,474) rotate(0,0,0)"><text fill="" stroke="none" font-family="helvetica" font-size="8pt" font-style="normal" font-weight="normal" text-decoration="normal" x="0" y="0" text-anchor="end" dominant-baseline="central">Play</text><g transform="rotate(0,0,0) translate(-227,-474) translate(227,427) rotate(0,0,0)"><text fill="" stroke="none" font-family="helvetica" font-size="8pt" font-style="normal" font-weight="normal" text-decoration="normal" x="0" y="0" text-anchor="end" dominant-baseline="central">DIY or maker mentality</text><g transform="rotate(0,0,0) translate(-227,-427) translate(227,380) rotate(0,0,0)"><text fill="" stroke="none" font-family="helvetica" font-size="8pt" font-style="normal" font-weight="normal" text-decoration="normal" x="0" y="0" text-anchor="end" dominant-baseline="central">Data analysis</text><g transform="rotate(0,0,0) translate(-227,-380) translate(227,333) rotate(0,0,0)"><text fill="" stroke="none" font-family="helvetica" font-size="8pt" font-style="normal" font-weight="normal" text-decoration="normal" x="0" y="0" text-anchor="end" dominant-baseline="central">Risk tolerance</text><g transform="rotate(0,0,0) translate(-227,-333) translate(227,286) rotate(0,0,0)"><text fill="" stroke="none" font-family="helvetica" font-size="8pt" font-style="normal" font-weight="normal" text-decoration="normal" x="0" y="0" text-anchor="end" dominant-baseline="central">Algorithm and data model design</text><g transform="rotate(0,0,0) translate(-227,-286) translate(227,239) rotate(0,0,0)"><text fill="" stroke="none" font-family="helvetica" font-size="8pt" font-style="normal" font-weight="normal" text-decoration="normal" x="0" y="0" text-anchor="end" dominant-baseline="central">Facilitation</text><g transform="rotate(0,0,0) translate(-227,-239) translate(227,192) rotate(0,0,0)"><text fill="" stroke="none" font-family="helvetica" font-size="8pt" font-style="normal" font-weight="normal" text-decoration="normal" x="0" y="0" text-anchor="end" dominant-baseline="central">Voice interface design</text><g transform="rotate(0,0,0) translate(-227,-192) translate(227,145) rotate(0,0,0)"><text fill="" stroke="none" font-family="helvetica" font-size="8pt" font-style="normal" font-weight="normal" text-decoration="normal" x="0" y="0" text-anchor="end" dominant-baseline="central">Architecture and environmental design</text><g transform="rotate(0,0,0) translate(-227,-145) translate(227,98) rotate(0,0,0)"><text fill="" stroke="none" font-family="helvetica" font-size="8pt" font-style="normal" font-weight="normal" text-decoration="normal" x="0" y="0" text-anchor="end" dominant-baseline="central">Scientific methods</text><g transform="rotate(0,0,0) translate(-227,-98) translate(227,51) rotate(0,0,0)"><text fill="" stroke="none" font-family="helvetica" font-size="8pt" font-style="normal" font-weight="normal" text-decoration="normal" x="0" y="0" text-anchor="end" dominant-baseline="central">None of these</text><g transform="rotate(0,0,0) translate(-227,-51) translate(16,592) rotate(-90,0,0)"><text fill="" stroke="none" font-family="helvetica" font-size="10pt" font-style="italic" font-weight="normal" text-decoration="normal" x="0" y="0" text-anchor="middle" dominant-baseline="alphabetic">Categories</text><g transform="rotate(90,0,0) translate(-16,-592)"/></g></g></g></g></g></g></g></g></g></g></g></g></g></g></g></g></g></g></g></g></g></g></g></g></g></g><g fill="#444444"><path fill="" stroke="none" d=""/><g transform="translate(238,23)"><path fill="none" stroke="none"/><text fill="" stroke="none" font-family="helvetica" font-size="10pt" font-style="normal" font-weight="bold" text-decoration="normal" x="0" y="0" text-anchor="start" dominant-baseline="text-after-edge">AIGA-Only: The most valuable design skills for the future will be (answer optional):</text></g></g></g></g></g></svg>